<svg id="Layer_1" data-name="Layer 1" xmlns="http://www.w3.org/2000/svg" xmlns:xlink="http://www.w3.org/1999/xlink" viewBox="0 0 612 792"><defs><style>.cls-1,.cls-4,.cls-6{fill:none;}.cls-2{clip-path:url(#clip-path);}.cls-3{fill:#fff;}.cls-4,.cls-6{stroke:#000;stroke-miterlimit:10;}.cls-4{stroke-width:0.3px;}.cls-5{font-size:16px;}.cls-10,.cls-5{font-family:Maestro;}.cls-6{stroke-width:2px;}.cls-7{font-size:9.34px;}.cls-11,.cls-12,.cls-7{font-family:TimesNewRomanPSMT, Times New Roman;}.cls-8{font-size:6.67px;font-family:TimesNewRomanPS-ItalicMT, Times New Roman;font-style:italic;}.cls-9{font-size:8px;font-family:FinaleLyrics;}.cls-10{font-size:12px;}.cls-11{font-size:14px;}.cls-12{font-size:12px;}</style><clipPath id="clip-path"><rect class="cls-1" width="612" height="792"/></clipPath></defs><title>burro_chilo_8</title><g class="cls-2"><rect class="cls-3" width="612" height="792"/><line class="cls-4" x1="72.17" y1="55.94" x2="72.17" y2="348.7"/><text class="cls-5" transform="translate(76.36 67.94)">&amp;</text><text class="cls-5" transform="translate(76.36 121.29)">&amp;</text><text class="cls-5" transform="translate(76.36 174.64)">V</text><text class="cls-5" transform="translate(76.36 219.99)">?</text><text class="cls-5" transform="translate(76.36 291.34)">&amp;</text><text class="cls-5" transform="translate(76.36 336.69)">?</text><line class="cls-4" x1="194.21" y1="279.34" x2="194.21" y2="348.7"/><line class="cls-4" x1="194.21" y1="55.94" x2="194.21" y2="71.94"/><line class="cls-4" x1="194.21" y1="109.29" x2="194.21" y2="125.29"/><line class="cls-4" x1="194.21" y1="162.64" x2="194.21" y2="178.64"/><line class="cls-4" x1="194.21" y1="215.99" x2="194.21" y2="231.99"/><line class="cls-4" x1="284.57" y1="279.34" x2="284.57" y2="348.7"/><line class="cls-4" x1="284.57" y1="55.94" x2="284.57" y2="71.94"/><line class="cls-4" x1="284.57" y1="109.29" x2="284.57" y2="125.29"/><line class="cls-4" x1="284.57" y1="162.64" x2="284.57" y2="178.64"/><line class="cls-4" x1="284.57" y1="215.99" x2="284.57" y2="231.99"/><line class="cls-4" x1="348.26" y1="279.34" x2="348.26" y2="348.7"/><line class="cls-4" x1="348.26" y1="55.94" x2="348.26" y2="71.94"/><line class="cls-4" x1="348.26" y1="109.29" x2="348.26" y2="125.29"/><line class="cls-4" x1="348.26" y1="162.64" x2="348.26" y2="178.64"/><line class="cls-4" x1="348.26" y1="215.99" x2="348.26" y2="231.99"/><line class="cls-4" x1="422.45" y1="279.34" x2="422.45" y2="348.7"/><line class="cls-4" x1="422.45" y1="55.94" x2="422.45" y2="71.94"/><line class="cls-4" x1="422.45" y1="109.29" x2="422.45" y2="125.29"/><line class="cls-4" x1="422.45" y1="162.64" x2="422.45" y2="178.64"/><line class="cls-4" x1="422.45" y1="215.99" x2="422.45" y2="231.99"/><line class="cls-4" x1="495.47" y1="279.34" x2="495.47" y2="348.7"/><line class="cls-4" x1="495.47" y1="55.94" x2="495.47" y2="71.94"/><line class="cls-4" x1="495.47" y1="109.29" x2="495.47" y2="125.29"/><line class="cls-4" x1="495.47" y1="162.64" x2="495.47" y2="178.64"/><line class="cls-4" x1="495.47" y1="215.99" x2="495.47" y2="231.99"/><line class="cls-6" x1="575.01" y1="279.34" x2="575.01" y2="348.7"/><line class="cls-4" x1="571.86" y1="279.34" x2="571.86" y2="348.7"/><line class="cls-6" x1="575.01" y1="55.94" x2="575.01" y2="71.94"/><line class="cls-4" x1="571.86" y1="55.94" x2="571.86" y2="71.94"/><line class="cls-6" x1="575.01" y1="109.29" x2="575.01" y2="125.29"/><line class="cls-4" x1="571.86" y1="109.29" x2="571.86" y2="125.29"/><line class="cls-6" x1="575.01" y1="162.64" x2="575.01" y2="178.64"/><line class="cls-4" x1="571.86" y1="162.64" x2="571.86" y2="178.64"/><line class="cls-6" x1="575.01" y1="215.99" x2="575.01" y2="231.99"/><line class="cls-4" x1="571.86" y1="215.99" x2="571.86" y2="231.99"/><line class="cls-4" x1="72.02" y1="55.94" x2="576.01" y2="55.94"/><line class="cls-4" x1="72.02" y1="59.94" x2="576.01" y2="59.94"/><line class="cls-4" x1="72.02" y1="63.94" x2="576.01" y2="63.94"/><line class="cls-4" x1="72.02" y1="67.94" x2="576.01" y2="67.94"/><line class="cls-4" x1="72.02" y1="71.94" x2="576.01" y2="71.94"/><text class="cls-7" transform="translate(54.85 66.94)">S</text><line class="cls-4" x1="72.02" y1="109.29" x2="576.01" y2="109.29"/><line class="cls-4" x1="72.02" y1="113.29" x2="576.01" y2="113.29"/><line class="cls-4" x1="72.02" y1="117.29" x2="576.01" y2="117.29"/><line class="cls-4" x1="72.02" y1="121.29" x2="576.01" y2="121.29"/><line class="cls-4" x1="72.02" y1="125.29" x2="576.01" y2="125.29"/><text class="cls-7" transform="translate(53.35 120.29)">A</text><line class="cls-4" x1="72.02" y1="162.64" x2="576.01" y2="162.64"/><line class="cls-4" x1="72.02" y1="166.64" x2="576.01" y2="166.64"/><line class="cls-4" x1="72.02" y1="170.64" x2="576.01" y2="170.64"/><line class="cls-4" x1="72.02" y1="174.64" x2="576.01" y2="174.64"/><line class="cls-4" x1="72.02" y1="178.64" x2="576.01" y2="178.64"/><text class="cls-7" transform="translate(54.02 173.64)">T</text><line class="cls-4" x1="72.02" y1="215.99" x2="576.01" y2="215.99"/><line class="cls-4" x1="72.02" y1="219.99" x2="576.01" y2="219.99"/><line class="cls-4" x1="72.02" y1="223.99" x2="576.01" y2="223.99"/><line class="cls-4" x1="72.02" y1="227.99" x2="576.01" y2="227.99"/><line class="cls-4" x1="72.02" y1="231.99" x2="576.01" y2="231.99"/><text class="cls-7" transform="translate(54.02 226.99)">B</text><line class="cls-4" x1="72.02" y1="279.34" x2="576.01" y2="279.34"/><line class="cls-4" x1="72.02" y1="283.34" x2="576.01" y2="283.34"/><line class="cls-4" x1="72.02" y1="287.34" x2="576.01" y2="287.34"/><line class="cls-4" x1="72.02" y1="291.34" x2="576.01" y2="291.34"/><line class="cls-4" x1="72.02" y1="295.35" x2="576.01" y2="295.35"/><line class="cls-4" x1="72.02" y1="332.69" x2="576.01" y2="332.69"/><line class="cls-4" x1="72.02" y1="336.69" x2="576.01" y2="336.69"/><line class="cls-4" x1="72.02" y1="340.69" x2="576.01" y2="340.69"/><line class="cls-4" x1="72.02" y1="344.69" x2="576.01" y2="344.69"/><line class="cls-4" x1="72.02" y1="348.7" x2="576.01" y2="348.7"/><path d="M69.52,53.94c5,0,6-.67,7.34-2-.84,2.33-2.84,3-5.84,3V233c3,0,5,.67,5.84,3-1.34-1.33-2.34-2-7.34-2"/><path d="M70,279.34c-10,16,5,26.68-4,34.68h.67c8.4-6-2.6-22.68,3.4-33.48"/><path d="M70,348.7c-10-16,5-26.68-4-34.68h.67c8.4,6-2.6,22.67,3.4,33.47"/><text class="cls-7" transform="translate(43.51 317.02)">P</text><text class="cls-7" transform="translate(48.76 317.02)">n</text><text class="cls-7" transform="translate(53.26 317.02)">o</text><text class="cls-7" transform="translate(57.76 317.02)">.</text><text class="cls-8" transform="translate(73.02 48.6)">8</text><text class="cls-8" transform="translate(76.02 48.6)">8</text><path d="M94,60.53a1,1,0,0,1,.72,0,1,1,0,0,1,.44.45,1.65,1.65,0,0,1,.14,1.21,2.68,2.68,0,0,0,.46-.09,1.19,1.19,0,0,0,.44-.29,5,5,0,0,0,.34-.38,4.93,4.93,0,0,1,.33-.4l.22.12-1.77,6.71h-.64c.1-.35.22-.7.33-1s.19-.57.29-.87.18-.55.26-.73q.25-.7.42-1.26c.11-.37.2-.68.26-.93s.14-.56.18-.79l-.39.28-.54.33a4.53,4.53,0,0,1-.59.28,1.87,1.87,0,0,1-.59.14,1.25,1.25,0,0,1-1-.34,1.43,1.43,0,0,1-.44-.86,1.47,1.47,0,0,1,.21-1A1.41,1.41,0,0,1,94,60.53Z"/><path d="M110.85,60.53a1,1,0,0,1,.72,0A1.06,1.06,0,0,1,112,61a1.65,1.65,0,0,1,.19.63,1.5,1.5,0,0,1,0,.58,2.88,2.88,0,0,0,.46-.09,1.19,1.19,0,0,0,.44-.29l.34-.38a4.93,4.93,0,0,1,.33-.4l.22.12-1.78,6.71h-.64c.11-.35.22-.7.34-1s.19-.57.29-.87.18-.55.25-.73c.18-.47.32-.89.43-1.26s.2-.68.26-.93.14-.56.18-.79l-.39.28-.54.33a4.53,4.53,0,0,1-.59.28,1.87,1.87,0,0,1-.59.14,1.25,1.25,0,0,1-1-.34,1.43,1.43,0,0,1-.44-.86,1.46,1.46,0,0,1,.2-1A1.43,1.43,0,0,1,110.85,60.53Z"/><text class="cls-5" transform="translate(126.54 71.94)">J</text><line class="cls-4" x1="126.69" y1="62.61" x2="126.69" y2="75.94"/><path d="M126.67,62a2.51,2.51,0,0,1,.49-.8,3.39,3.39,0,0,1,.76-.64,3.72,3.72,0,0,1,.92-.44,3.48,3.48,0,0,1,1-.15,2.29,2.29,0,0,1,.9.17,1.57,1.57,0,0,1,.61.45,1.36,1.36,0,0,1,.28.65,1.68,1.68,0,0,1-.11.81,2.44,2.44,0,0,1-.49.81,4.07,4.07,0,0,1-.77.66,3.82,3.82,0,0,1-.94.43,3.46,3.46,0,0,1-1,.15,2.05,2.05,0,0,1-.89-.17,1.53,1.53,0,0,1-.6-.45,1.26,1.26,0,0,1-.28-.67A1.58,1.58,0,0,1,126.67,62Z"/><path d="M143.67,58a2.7,2.7,0,0,1,.49-.8,3.93,3.93,0,0,1,1.69-1.08,3.48,3.48,0,0,1,1-.15,2.21,2.21,0,0,1,.89.17,1.5,1.5,0,0,1,.61.45,1.32,1.32,0,0,1,.28.65,1.68,1.68,0,0,1-.1.81,2.47,2.47,0,0,1-.5.81,3.71,3.71,0,0,1-1.7,1.09,3.52,3.52,0,0,1-1,.15,2.21,2.21,0,0,1-.89-.17,1.65,1.65,0,0,1-.61-.45,1.38,1.38,0,0,1-.28-.67A1.82,1.82,0,0,1,143.67,58Z"/><line class="cls-4" x1="143.69" y1="58.6" x2="143.69" y2="72.94"/><path d="M160.51,60a2.7,2.7,0,0,1,.49-.8,3.63,3.63,0,0,1,.76-.64,4,4,0,0,1,.93-.44,3.43,3.43,0,0,1,1-.15,2.21,2.21,0,0,1,.89.17,1.5,1.5,0,0,1,.61.45,1.32,1.32,0,0,1,.28.65,1.66,1.66,0,0,1-.1.81,2.66,2.66,0,0,1-.5.81,3.78,3.78,0,0,1-.77.66,3.93,3.93,0,0,1-.93.43,3.52,3.52,0,0,1-1,.15,2,2,0,0,1-.89-.17,1.57,1.57,0,0,1-.61-.45,1.29,1.29,0,0,1-.28-.67A1.69,1.69,0,0,1,160.51,60Z"/><line class="cls-4" x1="160.53" y1="60.61" x2="160.53" y2="73.94"/><path d="M177.35,62a2.7,2.7,0,0,1,.49-.8,3.63,3.63,0,0,1,.76-.64,4,4,0,0,1,.93-.44,3.41,3.41,0,0,1,1-.15,2.22,2.22,0,0,1,.9.17,1.5,1.5,0,0,1,.61.45,1.36,1.36,0,0,1,.28.65,1.66,1.66,0,0,1-.1.81,2.66,2.66,0,0,1-.5.81,3.78,3.78,0,0,1-.77.66,3.82,3.82,0,0,1-.94.43,3.41,3.41,0,0,1-1,.15,2,2,0,0,1-.88-.17,1.57,1.57,0,0,1-.61-.45,1.26,1.26,0,0,1-.28-.67A1.69,1.69,0,0,1,177.35,62Z"/><line class="cls-4" x1="177.37" y1="62.61" x2="177.37" y2="74.94"/><polyline points="143.54 71.94 177.52 73.94 177.52 75.94 143.54 73.94"/><text class="cls-9" transform="translate(125.79 87.95)">c</text><text class="cls-9" transform="translate(128.79 87.95)">o</text><text class="cls-9" transform="translate(137.92 87.95)">m</text><text class="cls-9" transform="translate(143.17 87.95)">/</text><text class="cls-9" transform="translate(145.42 87.95)">o</text><text class="cls-9" transform="translate(149.17 87.95)">e</text><text class="cls-9" transform="translate(152.17 87.95)">l</text><text class="cls-9" transform="translate(159.26 87.95)">b</text><text class="cls-9" transform="translate(163.01 87.95)">u</text><text class="cls-9" transform="translate(172.34 87.95)">r</text><text class="cls-9" transform="translate(175.34 87.95)">r</text><text class="cls-9" transform="translate(178.35 87.95)">o</text><text class="cls-9" transform="translate(182.1 87.95)">/</text><text class="cls-9" transform="translate(184.35 87.95)">e</text><path d="M94,113.88a1,1,0,0,1,.72.05,1,1,0,0,1,.44.45,1.65,1.65,0,0,1,.14,1.21,2.68,2.68,0,0,0,.46-.09,1.19,1.19,0,0,0,.44-.29,3.62,3.62,0,0,0,.34-.39l.33-.4.22.13-1.77,6.71h-.64c.1-.35.22-.7.33-1s.19-.57.29-.87.18-.55.26-.73q.25-.7.42-1.26c.11-.37.2-.68.26-.93s.14-.56.18-.79l-.39.28-.54.33a4.53,4.53,0,0,1-.59.28,2.19,2.19,0,0,1-.59.14,1.29,1.29,0,0,1-1-.34,1.43,1.43,0,0,1-.44-.86,1.47,1.47,0,0,1,.21-1A1.41,1.41,0,0,1,94,113.88Z"/><path d="M110.85,113.88a1,1,0,0,1,.72.05,1.06,1.06,0,0,1,.44.45,1.65,1.65,0,0,1,.19.63,1.5,1.5,0,0,1,0,.58,2.88,2.88,0,0,0,.46-.09,1.19,1.19,0,0,0,.44-.29c.13-.14.25-.27.34-.39l.33-.4.22.13-1.78,6.71h-.64c.11-.35.22-.7.34-1s.19-.57.29-.87.18-.55.25-.73c.18-.47.32-.89.43-1.26s.2-.68.26-.93.14-.56.18-.79l-.39.28-.54.33a4.53,4.53,0,0,1-.59.28,2.19,2.19,0,0,1-.59.14,1.29,1.29,0,0,1-1-.34,1.43,1.43,0,0,1-.44-.86,1.46,1.46,0,0,1,.2-1A1.43,1.43,0,0,1,110.85,113.88Z"/><text class="cls-5" transform="translate(131.64 115.29)">j</text><line class="cls-4" x1="131.64" y1="124.63" x2="131.64" y2="111.29"/><path d="M126.67,125.31a2.31,2.31,0,0,1,.49-.8,3.43,3.43,0,0,1,.76-.65,3.37,3.37,0,0,1,.92-.43,3.48,3.48,0,0,1,1-.15,2.29,2.29,0,0,1,.9.16,1.8,1.8,0,0,1,.61.45,1.4,1.4,0,0,1,.28.66,1.69,1.69,0,0,1-.11.81,2.51,2.51,0,0,1-.49.8,4.07,4.07,0,0,1-.77.66,3.66,3.66,0,0,1-1.94.58,2.21,2.21,0,0,1-.89-.16,1.66,1.66,0,0,1-.6-.46,1.22,1.22,0,0,1-.28-.66A1.58,1.58,0,0,1,126.67,125.31Z"/><path d="M143.67,115.31a2.47,2.47,0,0,1,.49-.8,3.4,3.4,0,0,1,.76-.65,4,4,0,0,1,.93-.44,3.48,3.48,0,0,1,1-.15,2.21,2.21,0,0,1,.89.17,1.5,1.5,0,0,1,.61.45,1.36,1.36,0,0,1,.28.66,1.62,1.62,0,0,1-.1.8,2.47,2.47,0,0,1-.5.81,3.71,3.71,0,0,1-1.7,1.09,3.52,3.52,0,0,1-1,.15,2.05,2.05,0,0,1-.89-.17,1.65,1.65,0,0,1-.61-.45,1.34,1.34,0,0,1-.28-.67A1.76,1.76,0,0,1,143.67,115.31Z"/><line class="cls-4" x1="143.69" y1="115.96" x2="143.69" y2="130.29"/><path d="M160.51,117.31a2.47,2.47,0,0,1,.49-.8,3.4,3.4,0,0,1,.76-.65,3.57,3.57,0,0,1,.93-.43,3.14,3.14,0,0,1,1-.16,2.21,2.21,0,0,1,.89.17,1.5,1.5,0,0,1,.61.45,1.36,1.36,0,0,1,.28.66,1.62,1.62,0,0,1-.1.8,2.66,2.66,0,0,1-.5.81,3.78,3.78,0,0,1-.77.66,3.93,3.93,0,0,1-.93.43,3.52,3.52,0,0,1-1,.15,2,2,0,0,1-.89-.17,1.57,1.57,0,0,1-.61-.45,1.26,1.26,0,0,1-.28-.67A1.64,1.64,0,0,1,160.51,117.31Z"/><line class="cls-4" x1="160.53" y1="117.96" x2="160.53" y2="131.29"/><path d="M177.35,119.31a2.47,2.47,0,0,1,.49-.8,3.4,3.4,0,0,1,.76-.65,3.57,3.57,0,0,1,.93-.43,3.12,3.12,0,0,1,1-.16,2.22,2.22,0,0,1,.9.17,1.5,1.5,0,0,1,.61.45,1.4,1.4,0,0,1,.28.66,1.62,1.62,0,0,1-.1.8,2.66,2.66,0,0,1-.5.81,3.78,3.78,0,0,1-.77.66,3.49,3.49,0,0,1-.94.43,3.41,3.41,0,0,1-1,.15,2.16,2.16,0,0,1-.88-.16,1.7,1.7,0,0,1-.61-.46,1.22,1.22,0,0,1-.28-.67A1.64,1.64,0,0,1,177.35,119.31Z"/><line class="cls-4" x1="177.37" y1="119.96" x2="177.37" y2="132.29"/><polyline points="143.54 129.29 177.52 131.29 177.52 133.29 143.54 131.29"/><text class="cls-9" transform="translate(125.79 141.3)">c</text><text class="cls-9" transform="translate(128.79 141.3)">o</text><text class="cls-9" transform="translate(137.92 141.3)">m</text><text class="cls-9" transform="translate(143.17 141.3)">/</text><text class="cls-9" transform="translate(145.42 141.3)">o</text><text class="cls-9" transform="translate(149.17 141.3)">e</text><text class="cls-9" transform="translate(152.17 141.3)">l</text><text class="cls-9" transform="translate(159.26 141.3)">b</text><text class="cls-9" transform="translate(163.01 141.3)">u</text><text class="cls-9" transform="translate(172.34 141.3)">r</text><text class="cls-9" transform="translate(175.34 141.3)">r</text><text class="cls-9" transform="translate(178.35 141.3)">o</text><text class="cls-9" transform="translate(182.1 141.3)">/</text><text class="cls-9" transform="translate(184.35 141.3)">e</text><path d="M94,167.23a1,1,0,0,1,.72.05,1,1,0,0,1,.44.45,1.65,1.65,0,0,1,.14,1.21,2.68,2.68,0,0,0,.46-.09,1.19,1.19,0,0,0,.44-.29,3.62,3.62,0,0,0,.34-.39l.33-.4.22.13-1.77,6.71h-.64c.1-.35.22-.7.33-1s.19-.57.29-.87.18-.55.26-.73q.25-.71.42-1.26c.11-.37.2-.68.26-.93s.14-.57.18-.79l-.39.28-.54.33a4.53,4.53,0,0,1-.59.28,2.19,2.19,0,0,1-.59.14,1.29,1.29,0,0,1-1-.34,1.43,1.43,0,0,1-.44-.86,1.47,1.47,0,0,1,.21-1A1.41,1.41,0,0,1,94,167.23Z"/><path d="M110.85,167.23a1,1,0,0,1,.72.05,1.06,1.06,0,0,1,.44.45,1.65,1.65,0,0,1,.19.63,1.5,1.5,0,0,1,0,.58,2.88,2.88,0,0,0,.46-.09,1.19,1.19,0,0,0,.44-.29c.13-.14.25-.27.34-.39l.33-.4.22.13-1.78,6.71h-.64c.11-.35.22-.7.34-1s.19-.57.29-.87.18-.55.25-.73c.18-.47.32-.89.43-1.26s.2-.68.26-.93.14-.57.18-.79l-.39.28-.54.33a4.53,4.53,0,0,1-.59.28,2.19,2.19,0,0,1-.59.14,1.29,1.29,0,0,1-1-.34,1.43,1.43,0,0,1-.44-.86,1.46,1.46,0,0,1,.2-1A1.43,1.43,0,0,1,110.85,167.23Z"/><text class="cls-5" transform="translate(126.54 168.64)">J</text><line class="cls-4" x1="126.69" y1="159.3" x2="126.69" y2="172.64"/><line class="cls-4" x1="125.54" y1="158.64" x2="132.71" y2="158.64"/><path d="M126.67,158.65a2.4,2.4,0,0,1,.49-.8,3.74,3.74,0,0,1,1.68-1.08,3.48,3.48,0,0,1,1-.15,2.29,2.29,0,0,1,.9.17,1.57,1.57,0,0,1,.61.45,1.32,1.32,0,0,1,.28.65,1.69,1.69,0,0,1-.11.81,2.44,2.44,0,0,1-.49.81,3.69,3.69,0,0,1-.77.65,3.85,3.85,0,0,1-.94.44,3.46,3.46,0,0,1-1,.15,2.21,2.21,0,0,1-.89-.17,1.46,1.46,0,0,1-.6-.46,1.22,1.22,0,0,1-.28-.66A1.58,1.58,0,0,1,126.67,158.65Z"/><path d="M143.67,164.65a2.7,2.7,0,0,1,.49-.8,3.93,3.93,0,0,1,1.69-1.08,3.48,3.48,0,0,1,1-.15,2.21,2.21,0,0,1,.89.17,1.5,1.5,0,0,1,.61.45,1.32,1.32,0,0,1,.28.65,1.68,1.68,0,0,1-.1.81,2.47,2.47,0,0,1-.5.81,3.71,3.71,0,0,1-1.7,1.09,3.52,3.52,0,0,1-1,.15,2.21,2.21,0,0,1-.89-.17,1.65,1.65,0,0,1-.61-.45,1.38,1.38,0,0,1-.28-.67A1.82,1.82,0,0,1,143.67,164.65Z"/><line class="cls-4" x1="143.69" y1="165.3" x2="143.69" y2="179.64"/><path d="M160.51,166.65a2.7,2.7,0,0,1,.49-.8,3.63,3.63,0,0,1,.76-.64,4,4,0,0,1,.93-.44,3.43,3.43,0,0,1,1-.15,2.21,2.21,0,0,1,.89.17,1.5,1.5,0,0,1,.61.45,1.32,1.32,0,0,1,.28.65,1.68,1.68,0,0,1-.1.81,2.66,2.66,0,0,1-.5.81,3.78,3.78,0,0,1-.77.66,3.93,3.93,0,0,1-.93.43,3.52,3.52,0,0,1-1,.15,2.17,2.17,0,0,1-.89-.17,1.57,1.57,0,0,1-.61-.45,1.29,1.29,0,0,1-.28-.67A1.69,1.69,0,0,1,160.51,166.65Z"/><line class="cls-4" x1="160.53" y1="167.31" x2="160.53" y2="180.64"/><path d="M177.35,168.66a2.62,2.62,0,0,1,.49-.81,3.63,3.63,0,0,1,.76-.64,4,4,0,0,1,.93-.44,3.41,3.41,0,0,1,1-.15,2.22,2.22,0,0,1,.9.17,1.5,1.5,0,0,1,.61.45,1.36,1.36,0,0,1,.28.65,1.66,1.66,0,0,1-.1.81,2.66,2.66,0,0,1-.5.81,3.78,3.78,0,0,1-.77.66,3.82,3.82,0,0,1-.94.43,3.41,3.41,0,0,1-1,.15,2,2,0,0,1-.88-.17,1.57,1.57,0,0,1-.61-.45,1.26,1.26,0,0,1-.28-.67A1.64,1.64,0,0,1,177.35,168.66Z"/><line class="cls-4" x1="177.37" y1="169.31" x2="177.37" y2="181.64"/><polyline points="143.54 178.64 177.52 180.64 177.52 182.64 143.54 180.64"/><text class="cls-9" transform="translate(125.79 194.65)">c</text><text class="cls-9" transform="translate(128.79 194.65)">o</text><text class="cls-9" transform="translate(137.92 194.65)">m</text><text class="cls-9" transform="translate(143.17 194.65)">/</text><text class="cls-9" transform="translate(145.42 194.65)">o</text><text class="cls-9" transform="translate(149.17 194.65)">e</text><text class="cls-9" transform="translate(152.17 194.65)">l</text><text class="cls-9" transform="translate(159.26 194.65)">b</text><text class="cls-9" transform="translate(163.01 194.65)">u</text><text class="cls-9" transform="translate(172.34 194.65)">r</text><text class="cls-9" transform="translate(175.34 194.65)">r</text><text class="cls-9" transform="translate(178.35 194.65)">o</text><text class="cls-9" transform="translate(182.1 194.65)">/</text><text class="cls-9" transform="translate(184.35 194.65)">e</text><path d="M94,220.58a1,1,0,0,1,.72,0,1,1,0,0,1,.44.45,1.65,1.65,0,0,1,.14,1.21,2.68,2.68,0,0,0,.46-.09,1.19,1.19,0,0,0,.44-.29,5,5,0,0,0,.34-.38c.09-.12.2-.26.33-.41l.22.13L95.33,228h-.64c.1-.35.22-.7.33-1s.19-.57.29-.87.18-.55.26-.73q.25-.7.42-1.26c.11-.37.2-.68.26-.93s.14-.56.18-.79l-.39.28-.54.33a4.53,4.53,0,0,1-.59.28,1.87,1.87,0,0,1-.59.14,1.25,1.25,0,0,1-1-.34,1.43,1.43,0,0,1-.44-.86,1.47,1.47,0,0,1,.21-1A1.41,1.41,0,0,1,94,220.58Z"/><path d="M110.85,220.58a1,1,0,0,1,.72,0,1.06,1.06,0,0,1,.44.45,1.65,1.65,0,0,1,.19.63,1.5,1.5,0,0,1,0,.58,2.88,2.88,0,0,0,.46-.09,1.19,1.19,0,0,0,.44-.29l.34-.38c.09-.12.2-.26.33-.41l.22.13L112.16,228h-.64c.11-.35.22-.7.34-1s.19-.57.29-.87.18-.55.25-.73c.18-.47.32-.89.43-1.26s.2-.68.26-.93.14-.56.18-.79l-.39.28-.54.33a4.53,4.53,0,0,1-.59.28,1.87,1.87,0,0,1-.59.14,1.25,1.25,0,0,1-1-.34,1.43,1.43,0,0,1-.44-.86,1.46,1.46,0,0,1,.2-1A1.43,1.43,0,0,1,110.85,220.58Z"/><text class="cls-5" transform="translate(126.54 231.99)">J</text><line class="cls-4" x1="126.69" y1="222.66" x2="126.69" y2="235.99"/><path d="M126.67,222a2.51,2.51,0,0,1,.49-.8,3.39,3.39,0,0,1,.76-.64,3.72,3.72,0,0,1,.92-.44,3.48,3.48,0,0,1,1-.15,2.29,2.29,0,0,1,.9.17,1.57,1.57,0,0,1,.61.45,1.36,1.36,0,0,1,.28.65,1.68,1.68,0,0,1-.11.81,2.44,2.44,0,0,1-.49.81,4.07,4.07,0,0,1-.77.66,3.82,3.82,0,0,1-.94.43,3.46,3.46,0,0,1-1,.15,2.05,2.05,0,0,1-.89-.17,1.53,1.53,0,0,1-.6-.45,1.26,1.26,0,0,1-.28-.67A1.58,1.58,0,0,1,126.67,222Z"/><path d="M143.67,216a2.7,2.7,0,0,1,.49-.8,4,4,0,0,1,.76-.65,3.93,3.93,0,0,1,.93-.43,3.48,3.48,0,0,1,1-.15,2.21,2.21,0,0,1,.89.17,1.5,1.5,0,0,1,.61.45,1.32,1.32,0,0,1,.28.65,1.68,1.68,0,0,1-.1.81,2.47,2.47,0,0,1-.5.81,3.71,3.71,0,0,1-1.7,1.09,3.52,3.52,0,0,1-1,.15,2.21,2.21,0,0,1-.89-.17,1.65,1.65,0,0,1-.61-.45,1.38,1.38,0,0,1-.28-.67A1.82,1.82,0,0,1,143.67,216Z"/><line class="cls-4" x1="143.69" y1="216.65" x2="143.69" y2="243"/><path d="M160.51,230a2.47,2.47,0,0,1,.49-.8,3.68,3.68,0,0,1,.76-.65,3.57,3.57,0,0,1,.93-.43,3.44,3.44,0,0,1,1-.16,2.21,2.21,0,0,1,.89.17,1.5,1.5,0,0,1,.61.45,1.4,1.4,0,0,1,.28.66,1.68,1.68,0,0,1-.1.81,2.74,2.74,0,0,1-.5.8,3.78,3.78,0,0,1-.77.66,3.57,3.57,0,0,1-.93.43,3.52,3.52,0,0,1-1,.15,2.18,2.18,0,0,1-.89-.16,1.7,1.7,0,0,1-.61-.46,1.22,1.22,0,0,1-.28-.66A1.68,1.68,0,0,1,160.51,230Z"/><line class="cls-4" x1="160.53" y1="230.66" x2="160.53" y2="243"/><path d="M177.35,230a2.47,2.47,0,0,1,.49-.8,3.68,3.68,0,0,1,.76-.65,3.57,3.57,0,0,1,.93-.43,3.43,3.43,0,0,1,1-.16,2.22,2.22,0,0,1,.9.17,1.5,1.5,0,0,1,.61.45,1.4,1.4,0,0,1,.28.66,1.68,1.68,0,0,1-.1.81,2.74,2.74,0,0,1-.5.8,3.78,3.78,0,0,1-.77.66,3.49,3.49,0,0,1-.94.43,3.41,3.41,0,0,1-1,.15,2.16,2.16,0,0,1-.88-.16,1.7,1.7,0,0,1-.61-.46,1.22,1.22,0,0,1-.28-.66A1.68,1.68,0,0,1,177.35,230Z"/><line class="cls-4" x1="177.37" y1="230.66" x2="177.37" y2="243"/><polyline points="143.54 242 177.52 242 177.52 244 143.54 244"/><text class="cls-9" transform="translate(125.79 248)">c</text><text class="cls-9" transform="translate(128.79 248)">o</text><text class="cls-9" transform="translate(137.92 248)">m</text><text class="cls-9" transform="translate(143.17 248)">/</text><text class="cls-9" transform="translate(145.42 248)">o</text><text class="cls-9" transform="translate(149.17 248)">e</text><text class="cls-9" transform="translate(152.17 248)">l</text><text class="cls-9" transform="translate(159.26 248)">b</text><text class="cls-9" transform="translate(163.01 248)">u</text><text class="cls-9" transform="translate(172.34 248)">r</text><text class="cls-9" transform="translate(175.34 248)">r</text><text class="cls-9" transform="translate(178.35 248)">o</text><text class="cls-9" transform="translate(182.1 248)">/</text><text class="cls-9" transform="translate(184.35 248)">e</text><path d="M97,290.82a4.61,4.61,0,0,0-.74-.25,2.54,2.54,0,0,0-.58-.07,1.31,1.31,0,0,0-.87.3,1.06,1.06,0,0,0-.36.86.86.86,0,0,0,.12.4,2.36,2.36,0,0,0,.28.42,4.32,4.32,0,0,0,.42.45l-.2.16a6.28,6.28,0,0,1-1-.71,5.93,5.93,0,0,1-.69-.72,1.76,1.76,0,0,1-.39-.86,1.1,1.1,0,0,1,0-.54,1.32,1.32,0,0,1,.24-.49,1.23,1.23,0,0,1,.43-.35,1.49,1.49,0,0,1,.6-.17h.31a2,2,0,0,1,.34,0l.32,0,.25,0a21.29,21.29,0,0,1-1.74-1.86c-.39-.49-.55-.81-.49-1l.35-.44a6.09,6.09,0,0,0,.45-.7,5.54,5.54,0,0,0,.4-.85,2.31,2.31,0,0,0,.18-.88,1.81,1.81,0,0,0-.18-.68,8.17,8.17,0,0,0-.38-.79c-.17-.29-.36-.59-.56-.91l.22-.16,2.92,3.66a6.74,6.74,0,0,0-.69,1,6.42,6.42,0,0,0-.48.9,2.39,2.39,0,0,0-.21.93,1.9,1.9,0,0,0,.09.58,4.18,4.18,0,0,0,.21.53,5.16,5.16,0,0,0,.29.46l.29.38a2.5,2.5,0,0,0,.21.25c.09.1.19.2.27.3l.23.28a.6.6,0,0,1,.11.16l0,.26Z"/><text class="cls-5" transform="translate(126.54 297.35)">J</text><line class="cls-4" x1="126.69" y1="288.01" x2="126.69" y2="301.35"/><path d="M126.67,287.36a2.31,2.31,0,0,1,.49-.8,3.43,3.43,0,0,1,.76-.65,3.37,3.37,0,0,1,.92-.43,3.48,3.48,0,0,1,1-.15,2.29,2.29,0,0,1,.9.16,1.8,1.8,0,0,1,.61.45,1.4,1.4,0,0,1,.28.66,1.69,1.69,0,0,1-.11.81,2.55,2.55,0,0,1-.49.81,4,4,0,0,1-.77.65,3.8,3.8,0,0,1-1.94.59,2.21,2.21,0,0,1-.89-.17,1.55,1.55,0,0,1-.6-.46,1.22,1.22,0,0,1-.28-.66A1.58,1.58,0,0,1,126.67,287.36Z"/><path d="M143.67,281.36a2.47,2.47,0,0,1,.49-.8,3.68,3.68,0,0,1,.76-.65,3.57,3.57,0,0,1,.93-.43,3.49,3.49,0,0,1,1-.16,2.21,2.21,0,0,1,.89.17,1.5,1.5,0,0,1,.61.45,1.4,1.4,0,0,1,.28.66,1.62,1.62,0,0,1-.1.8,2.47,2.47,0,0,1-.5.81,3.78,3.78,0,0,1-.77.66,3.43,3.43,0,0,1-.93.43,3.52,3.52,0,0,1-1,.15,2.21,2.21,0,0,1-.89-.16,1.79,1.79,0,0,1-.61-.46,1.3,1.3,0,0,1-.28-.67A1.76,1.76,0,0,1,143.67,281.36Z"/><line class="cls-4" x1="143.69" y1="282.01" x2="143.69" y2="300.35"/><path d="M160.51,287.36a2.47,2.47,0,0,1,.49-.8,3.68,3.68,0,0,1,.76-.65,3.57,3.57,0,0,1,.93-.43,3.43,3.43,0,0,1,1-.15,2.21,2.21,0,0,1,.89.16,1.7,1.7,0,0,1,.61.45,1.4,1.4,0,0,1,.28.66,1.68,1.68,0,0,1-.1.81,2.78,2.78,0,0,1-.5.81,3.74,3.74,0,0,1-.77.65,3.57,3.57,0,0,1-.93.43,3.54,3.54,0,0,1-1,.16,2.17,2.17,0,0,1-.89-.17,1.59,1.59,0,0,1-.61-.46,1.22,1.22,0,0,1-.28-.66A1.69,1.69,0,0,1,160.51,287.36Z"/><line class="cls-4" x1="160.53" y1="288.01" x2="160.53" y2="300.35"/><path d="M177.35,285.36a2.47,2.47,0,0,1,.49-.8,3.68,3.68,0,0,1,.76-.65,3.57,3.57,0,0,1,.93-.43,3.41,3.41,0,0,1,1-.15,2.23,2.23,0,0,1,.9.16,1.7,1.7,0,0,1,.61.45,1.4,1.4,0,0,1,.28.66,1.68,1.68,0,0,1-.1.81,2.74,2.74,0,0,1-.5.8,3.78,3.78,0,0,1-.77.66,3.49,3.49,0,0,1-.94.43,3.41,3.41,0,0,1-1,.15,2.16,2.16,0,0,1-.88-.16,1.7,1.7,0,0,1-.61-.46,1.22,1.22,0,0,1-.28-.66A1.69,1.69,0,0,1,177.35,285.36Z"/><line class="cls-4" x1="177.37" y1="286.01" x2="177.37" y2="300.35"/><polyline points="143.54 299.35 177.52 299.35 177.52 301.35 143.54 301.35"/><path d="M97,344.17a4.61,4.61,0,0,0-.74-.25,2.54,2.54,0,0,0-.58-.07,1.31,1.31,0,0,0-.87.3,1.06,1.06,0,0,0-.36.86.86.86,0,0,0,.12.4,2.36,2.36,0,0,0,.28.42,4.32,4.32,0,0,0,.42.45l-.2.16a7,7,0,0,1-1-.71,5.93,5.93,0,0,1-.69-.72,1.76,1.76,0,0,1-.39-.86,1.1,1.1,0,0,1,0-.54,1.32,1.32,0,0,1,.24-.49,1.23,1.23,0,0,1,.43-.35,1.49,1.49,0,0,1,.6-.17h.31a2,2,0,0,1,.34,0l.32.05.25,0a21.29,21.29,0,0,1-1.74-1.86c-.39-.49-.55-.81-.49-1l.35-.44a6.09,6.09,0,0,0,.45-.7,5.54,5.54,0,0,0,.4-.85,2.31,2.31,0,0,0,.18-.88,1.81,1.81,0,0,0-.18-.68,8.17,8.17,0,0,0-.38-.79c-.17-.29-.36-.59-.56-.91l.22-.16,2.92,3.66a6.74,6.74,0,0,0-.69,1,6.42,6.42,0,0,0-.48.9,2.38,2.38,0,0,0-.21.92,1.92,1.92,0,0,0,.09.59,4.18,4.18,0,0,0,.21.53,5.16,5.16,0,0,0,.29.46l.29.38a2.5,2.5,0,0,0,.21.25c.09.1.19.2.27.3l.23.28a.47.47,0,0,1,.11.16l0,.26Z"/><line class="cls-4" x1="126.69" y1="339.36" x2="126.69" y2="352.7"/><path d="M126.67,338.71a2.31,2.31,0,0,1,.49-.8,3.43,3.43,0,0,1,.76-.65,3.37,3.37,0,0,1,.92-.43,3.48,3.48,0,0,1,1-.15,2.29,2.29,0,0,1,.9.16,1.67,1.67,0,0,1,.61.45,1.4,1.4,0,0,1,.28.66,1.69,1.69,0,0,1-.11.81,2.51,2.51,0,0,1-.49.8,4.07,4.07,0,0,1-.77.66,3.66,3.66,0,0,1-1.94.58,2.21,2.21,0,0,1-.89-.16,1.66,1.66,0,0,1-.6-.46,1.22,1.22,0,0,1-.28-.66A1.58,1.58,0,0,1,126.67,338.71Z"/><line class="cls-4" x1="160.53" y1="333.36" x2="160.53" y2="346.69"/><path d="M160.51,332.71a2.47,2.47,0,0,1,.49-.8,3.4,3.4,0,0,1,.76-.65,3.57,3.57,0,0,1,.93-.43,3.14,3.14,0,0,1,1-.16,2.21,2.21,0,0,1,.89.17,1.5,1.5,0,0,1,.61.45,1.4,1.4,0,0,1,.28.66,1.62,1.62,0,0,1-.1.8,2.66,2.66,0,0,1-.5.81,3.78,3.78,0,0,1-.77.66,3.57,3.57,0,0,1-.93.43,3.52,3.52,0,0,1-1,.15,2,2,0,0,1-.89-.17,1.57,1.57,0,0,1-.61-.45,1.22,1.22,0,0,1-.28-.67A1.64,1.64,0,0,1,160.51,332.71Z"/><path d="M200,60a2.7,2.7,0,0,1,.49-.8,3.63,3.63,0,0,1,.76-.64,4,4,0,0,1,.93-.44,3.48,3.48,0,0,1,1-.15,2.21,2.21,0,0,1,.89.17,1.5,1.5,0,0,1,.61.45,1.24,1.24,0,0,1,.28.65,1.55,1.55,0,0,1-.1.81,2.47,2.47,0,0,1-.5.81,3.71,3.71,0,0,1-1.7,1.09,3.52,3.52,0,0,1-1,.15,2.05,2.05,0,0,1-.89-.17,1.65,1.65,0,0,1-.61-.45,1.38,1.38,0,0,1-.28-.67A1.82,1.82,0,0,1,200,60Z"/><line class="cls-4" x1="200.05" y1="60.61" x2="200.05" y2="74.94"/><path d="M214.19,62a2.7,2.7,0,0,1,.49-.8,3.63,3.63,0,0,1,.76-.64,4,4,0,0,1,.93-.44,3.48,3.48,0,0,1,1-.15,2.29,2.29,0,0,1,.9.17,1.53,1.53,0,0,1,.6.45,1.27,1.27,0,0,1,.28.65,1.55,1.55,0,0,1-.1.81,2.47,2.47,0,0,1-.5.81,4,4,0,0,1-.76.66,3.82,3.82,0,0,1-.94.43,3.52,3.52,0,0,1-1,.15,2.05,2.05,0,0,1-.89-.17,1.65,1.65,0,0,1-.61-.45,1.34,1.34,0,0,1-.28-.67A1.82,1.82,0,0,1,214.19,62Z"/><line class="cls-4" x1="214.22" y1="62.61" x2="214.22" y2="75.95"/><path d="M228.2,64a2.47,2.47,0,0,1,.49-.8,3.4,3.4,0,0,1,.76-.65,3.29,3.29,0,0,1,.93-.43,3.12,3.12,0,0,1,1-.16,2.29,2.29,0,0,1,.9.17,1.5,1.5,0,0,1,.61.45,1.4,1.4,0,0,1,.28.66,1.53,1.53,0,0,1-.11.8,2.44,2.44,0,0,1-.49.81,4.07,4.07,0,0,1-.77.66,3.82,3.82,0,0,1-.94.43,3.46,3.46,0,0,1-1,.15,2.08,2.08,0,0,1-.89-.17,1.53,1.53,0,0,1-.6-.45,1.26,1.26,0,0,1-.28-.67A1.53,1.53,0,0,1,228.2,64Z"/><line class="cls-4" x1="228.22" y1="64.61" x2="228.22" y2="76.94"/><polyline points="199.9 73.94 228.37 75.94 228.37 77.94 199.9 75.94"/><path d="M242.37,60a2.7,2.7,0,0,1,.49-.8,3.63,3.63,0,0,1,.76-.64,4,4,0,0,1,.93-.44,3.41,3.41,0,0,1,1-.15,2.26,2.26,0,0,1,.9.17,1.5,1.5,0,0,1,.61.45,1.32,1.32,0,0,1,.28.65,1.66,1.66,0,0,1-.1.81,2.66,2.66,0,0,1-.5.81,4.07,4.07,0,0,1-.77.66,3.82,3.82,0,0,1-.94.43,3.46,3.46,0,0,1-1,.15,2,2,0,0,1-.88-.17,1.57,1.57,0,0,1-.61-.45,1.29,1.29,0,0,1-.28-.67A1.69,1.69,0,0,1,242.37,60Z"/><line class="cls-4" x1="242.39" y1="60.61" x2="242.39" y2="74.94"/><path d="M256.37,62a2.7,2.7,0,0,1,.49-.8,3.63,3.63,0,0,1,.76-.64,4,4,0,0,1,.93-.44,3.48,3.48,0,0,1,1-.15,2.29,2.29,0,0,1,.9.17,1.53,1.53,0,0,1,.6.45,1.27,1.27,0,0,1,.28.65,1.55,1.55,0,0,1-.1.81,2.47,2.47,0,0,1-.5.81,4,4,0,0,1-.76.66,3.82,3.82,0,0,1-.94.43,3.52,3.52,0,0,1-1,.15,2.05,2.05,0,0,1-.89-.17,1.65,1.65,0,0,1-.61-.45,1.34,1.34,0,0,1-.28-.67A1.82,1.82,0,0,1,256.37,62Z"/><line class="cls-4" x1="256.4" y1="62.61" x2="256.4" y2="74.94"/><path d="M270.55,60a2.66,2.66,0,0,1,.48-.8,3.91,3.91,0,0,1,.76-.64,4,4,0,0,1,.93-.44,3.48,3.48,0,0,1,1-.15,2.29,2.29,0,0,1,.9.17,1.57,1.57,0,0,1,.61.45,1.42,1.42,0,0,1,.28.65,1.68,1.68,0,0,1-.11.81,2.47,2.47,0,0,1-.5.81,4,4,0,0,1-.76.66,3.82,3.82,0,0,1-.94.43,3.52,3.52,0,0,1-1,.15,2.05,2.05,0,0,1-.89-.17,1.65,1.65,0,0,1-.61-.45,1.48,1.48,0,0,1-.28-.67A1.71,1.71,0,0,1,270.55,60Z"/><line class="cls-4" x1="270.57" y1="60.61" x2="270.57" y2="74.94"/><polyline points="242.24 73.94 270.72 73.94 270.72 75.94 242.24 75.94"/><text class="cls-9" transform="translate(197.27 87.95)">C</text><text class="cls-9" transform="translate(201.77 87.95)">h</text><text class="cls-9" transform="translate(205.52 87.95)">i</text><text class="cls-9" transform="translate(213.69 87.95)">l</text><text class="cls-9" transform="translate(215.94 87.95)">o</text><text class="cls-9" transform="translate(226.19 87.95)">s</text><text class="cls-9" transform="translate(229.19 87.95)">i</text><text class="cls-9" transform="translate(231.45 87.95)">n</text><text class="cls-9" transform="translate(238.87 87.95)">m</text><text class="cls-9" transform="translate(244.12 87.95)">á</text><text class="cls-9" transform="translate(247.87 87.95)">s</text><text class="cls-9" transform="translate(257.75 87.95)">i</text><text class="cls-9" transform="translate(270.04 87.95)">l</text><text class="cls-9" transform="translate(272.29 87.95)">u</text><path d="M200,121.31a2.47,2.47,0,0,1,.49-.8,3.68,3.68,0,0,1,.76-.65,3.57,3.57,0,0,1,.93-.43,3.49,3.49,0,0,1,1-.16,2.21,2.21,0,0,1,.89.17,1.5,1.5,0,0,1,.61.45,1.3,1.3,0,0,1,.28.66,1.52,1.52,0,0,1-.1.8,2.47,2.47,0,0,1-.5.81,3.78,3.78,0,0,1-.77.66,3.43,3.43,0,0,1-.93.43,3.52,3.52,0,0,1-1,.15,2.21,2.21,0,0,1-.89-.16,1.79,1.79,0,0,1-.61-.46,1.3,1.3,0,0,1-.28-.67A1.76,1.76,0,0,1,200,121.31Z"/><line class="cls-4" x1="204.99" y1="120.62" x2="204.99" y2="106.29"/><path d="M214.19,119.31a2.47,2.47,0,0,1,.49-.8,3.4,3.4,0,0,1,.76-.65,3.57,3.57,0,0,1,.93-.43,3.18,3.18,0,0,1,1-.16,2.29,2.29,0,0,1,.9.17,1.53,1.53,0,0,1,.6.45,1.3,1.3,0,0,1,.28.66,1.52,1.52,0,0,1-.1.8,2.47,2.47,0,0,1-.5.81,4,4,0,0,1-.76.66,3.66,3.66,0,0,1-1.94.58,2.21,2.21,0,0,1-.89-.16,1.79,1.79,0,0,1-.61-.46,1.3,1.3,0,0,1-.28-.67A1.76,1.76,0,0,1,214.19,119.31Z"/><line class="cls-4" x1="219.17" y1="118.62" x2="219.17" y2="106.29"/><path d="M228.2,121.31a2.47,2.47,0,0,1,.49-.8,3.68,3.68,0,0,1,.76-.65,3.29,3.29,0,0,1,.93-.43,3.43,3.43,0,0,1,1-.16,2.29,2.29,0,0,1,.9.17,1.5,1.5,0,0,1,.61.45,1.4,1.4,0,0,1,.28.66,1.53,1.53,0,0,1-.11.8,2.44,2.44,0,0,1-.49.81,4.07,4.07,0,0,1-.77.66,3.66,3.66,0,0,1-1.94.58,2.24,2.24,0,0,1-.89-.16,1.66,1.66,0,0,1-.6-.46,1.22,1.22,0,0,1-.28-.67A1.53,1.53,0,0,1,228.2,121.31Z"/><line class="cls-4" x1="233.17" y1="120.62" x2="233.17" y2="106.29"/><polyline points="204.84 105.29 233.32 105.29 233.32 107.29 204.84 107.29"/><path d="M242.37,123.31a2.47,2.47,0,0,1,.49-.8,3.68,3.68,0,0,1,.76-.65,3.57,3.57,0,0,1,.93-.43,3.41,3.41,0,0,1,1-.15,2.26,2.26,0,0,1,.9.16,1.59,1.59,0,0,1,.61.45,1.4,1.4,0,0,1,.28.66,1.68,1.68,0,0,1-.1.81,2.74,2.74,0,0,1-.5.8,4.07,4.07,0,0,1-.77.66,3.66,3.66,0,0,1-1.94.58,2.16,2.16,0,0,1-.88-.16,1.7,1.7,0,0,1-.61-.46,1.22,1.22,0,0,1-.28-.66A1.69,1.69,0,0,1,242.37,123.31Z"/><line class="cls-4" x1="247.34" y1="122.62" x2="247.34" y2="112.29"/><path d="M256.37,125.31a2.47,2.47,0,0,1,.49-.8,3.68,3.68,0,0,1,.76-.65,3.57,3.57,0,0,1,.93-.43,3.48,3.48,0,0,1,1-.15,2.29,2.29,0,0,1,.9.16,1.75,1.75,0,0,1,.6.45,1.3,1.3,0,0,1,.28.66,1.56,1.56,0,0,1-.1.81,2.54,2.54,0,0,1-.5.8,4,4,0,0,1-.76.66,3.66,3.66,0,0,1-1.94.58,2.21,2.21,0,0,1-.89-.16,1.79,1.79,0,0,1-.61-.46,1.3,1.3,0,0,1-.28-.66A1.82,1.82,0,0,1,256.37,125.31Z"/><line class="cls-4" x1="261.35" y1="124.63" x2="261.35" y2="112.79"/><path d="M270.55,127.31a2.44,2.44,0,0,1,.48-.8,4,4,0,0,1,.76-.65,3.57,3.57,0,0,1,.93-.43,3.48,3.48,0,0,1,1-.15,2.29,2.29,0,0,1,.9.16,1.8,1.8,0,0,1,.61.45,1.5,1.5,0,0,1,.28.66,1.69,1.69,0,0,1-.11.81,2.58,2.58,0,0,1-.5.81,4,4,0,0,1-.76.65,3.49,3.49,0,0,1-.94.43,3.54,3.54,0,0,1-1,.16,2.21,2.21,0,0,1-.89-.17,1.67,1.67,0,0,1-.61-.46,1.4,1.4,0,0,1-.28-.66A1.71,1.71,0,0,1,270.55,127.31Z"/><line class="cls-4" x1="275.52" y1="126.63" x2="275.52" y2="113.29"/><polyline points="247.19 111.29 275.67 112.29 275.67 114.29 247.19 113.29"/><text class="cls-9" transform="translate(197.27 141.3)">C</text><text class="cls-9" transform="translate(201.77 141.3)">h</text><text class="cls-9" transform="translate(205.52 141.3)">i</text><text class="cls-9" transform="translate(213.69 141.3)">l</text><text class="cls-9" transform="translate(215.94 141.3)">o</text><text class="cls-9" transform="translate(226.19 141.3)">s</text><text class="cls-9" transform="translate(229.19 141.3)">i</text><text class="cls-9" transform="translate(231.45 141.3)">n</text><text class="cls-9" transform="translate(238.87 141.3)">m</text><text class="cls-9" transform="translate(244.12 141.3)">á</text><text class="cls-9" transform="translate(247.87 141.3)">s</text><text class="cls-9" transform="translate(257.75 141.3)">i</text><text class="cls-9" transform="translate(270.04 141.3)">l</text><text class="cls-9" transform="translate(272.29 141.3)">u</text><path d="M200,166.65a2.7,2.7,0,0,1,.49-.8,3.63,3.63,0,0,1,.76-.64,4,4,0,0,1,.93-.44,3.48,3.48,0,0,1,1-.15,2.21,2.21,0,0,1,.89.17,1.5,1.5,0,0,1,.61.45,1.24,1.24,0,0,1,.28.65,1.56,1.56,0,0,1-.1.81,2.47,2.47,0,0,1-.5.81,3.71,3.71,0,0,1-1.7,1.09,3.52,3.52,0,0,1-1,.15,2.21,2.21,0,0,1-.89-.17,1.65,1.65,0,0,1-.61-.45,1.38,1.38,0,0,1-.28-.67A1.82,1.82,0,0,1,200,166.65Z"/><line class="cls-4" x1="200.05" y1="167.31" x2="200.05" y2="179.64"/><path d="M214.19,166.65a2.7,2.7,0,0,1,.49-.8,3.63,3.63,0,0,1,.76-.64,4,4,0,0,1,.93-.44,3.48,3.48,0,0,1,1-.15,2.29,2.29,0,0,1,.9.17,1.53,1.53,0,0,1,.6.45,1.24,1.24,0,0,1,.28.65,1.56,1.56,0,0,1-.1.81,2.47,2.47,0,0,1-.5.81,4,4,0,0,1-.76.66,3.82,3.82,0,0,1-.94.43,3.52,3.52,0,0,1-1,.15,2.21,2.21,0,0,1-.89-.17,1.65,1.65,0,0,1-.61-.45,1.38,1.38,0,0,1-.28-.67A1.82,1.82,0,0,1,214.19,166.65Z"/><line class="cls-4" x1="214.22" y1="167.31" x2="214.22" y2="179.64"/><path d="M228.2,160.65a2.58,2.58,0,0,1,.49-.8,4,4,0,0,1,.76-.65,3.6,3.6,0,0,1,.93-.43,3.41,3.41,0,0,1,1-.15,2.29,2.29,0,0,1,.9.17,1.5,1.5,0,0,1,.61.45,1.32,1.32,0,0,1,.28.65,1.58,1.58,0,0,1-.11.81,2.44,2.44,0,0,1-.49.81,3.69,3.69,0,0,1-.77.65,3.52,3.52,0,0,1-.94.44,3.46,3.46,0,0,1-1,.15,2.24,2.24,0,0,1-.89-.17,1.46,1.46,0,0,1-.6-.46,1.22,1.22,0,0,1-.28-.66A1.58,1.58,0,0,1,228.2,160.65Z"/><line class="cls-4" x1="228.22" y1="161.3" x2="228.22" y2="179.64"/><polyline points="199.9 178.64 228.37 178.64 228.37 180.64 199.9 180.64"/><path d="M242.37,160.65a2.58,2.58,0,0,1,.49-.8,4,4,0,0,1,.76-.65,3.93,3.93,0,0,1,.93-.43,3.41,3.41,0,0,1,1-.15,2.26,2.26,0,0,1,.9.17,1.5,1.5,0,0,1,.61.45,1.32,1.32,0,0,1,.28.65,1.68,1.68,0,0,1-.1.81,2.66,2.66,0,0,1-.5.81,3.69,3.69,0,0,1-.77.65,3.52,3.52,0,0,1-.94.44,3.46,3.46,0,0,1-1,.15,2.16,2.16,0,0,1-.88-.17,1.5,1.5,0,0,1-.61-.46,1.22,1.22,0,0,1-.28-.66A1.69,1.69,0,0,1,242.37,160.65Z"/><line class="cls-4" x1="242.39" y1="161.3" x2="242.39" y2="173.64"/><path d="M256.37,160.65a2.58,2.58,0,0,1,.49-.8,4,4,0,0,1,.76-.65,3.93,3.93,0,0,1,.93-.43,3.48,3.48,0,0,1,1-.15,2.29,2.29,0,0,1,.9.17,1.53,1.53,0,0,1,.6.45,1.24,1.24,0,0,1,.28.65,1.56,1.56,0,0,1-.1.81,2.47,2.47,0,0,1-.5.81,3.63,3.63,0,0,1-.76.65,3.56,3.56,0,0,1-1.94.59,2.21,2.21,0,0,1-.89-.17,1.57,1.57,0,0,1-.61-.46,1.3,1.3,0,0,1-.28-.66A1.82,1.82,0,0,1,256.37,160.65Z"/><line class="cls-4" x1="256.4" y1="161.3" x2="256.4" y2="174.14"/><path d="M270.55,162.65a2.55,2.55,0,0,1,.48-.8,4.34,4.34,0,0,1,.76-.65,3.93,3.93,0,0,1,.93-.43,3.48,3.48,0,0,1,1-.15,2.29,2.29,0,0,1,.9.17,1.57,1.57,0,0,1,.61.45,1.42,1.42,0,0,1,.28.65,1.69,1.69,0,0,1-.11.81,2.47,2.47,0,0,1-.5.81,4,4,0,0,1-.76.66,3.82,3.82,0,0,1-.94.43,3.52,3.52,0,0,1-1,.15,2.21,2.21,0,0,1-.89-.17,1.65,1.65,0,0,1-.61-.45,1.48,1.48,0,0,1-.28-.67A1.71,1.71,0,0,1,270.55,162.65Z"/><line class="cls-4" x1="270.57" y1="163.3" x2="270.57" y2="174.64"/><polyline points="242.24 172.64 270.72 173.64 270.72 175.64 242.24 174.64"/><text class="cls-9" transform="translate(197.27 194.65)">C</text><text class="cls-9" transform="translate(201.77 194.65)">h</text><text class="cls-9" transform="translate(205.52 194.65)">i</text><text class="cls-9" transform="translate(213.69 194.65)">l</text><text class="cls-9" transform="translate(215.94 194.65)">o</text><text class="cls-9" transform="translate(226.19 194.65)">s</text><text class="cls-9" transform="translate(229.19 194.65)">i</text><text class="cls-9" transform="translate(231.45 194.65)">n</text><text class="cls-9" transform="translate(238.87 194.65)">m</text><text class="cls-9" transform="translate(244.12 194.65)">á</text><text class="cls-9" transform="translate(247.87 194.65)">s</text><text class="cls-9" transform="translate(257.75 194.65)">i</text><text class="cls-9" transform="translate(270.04 194.65)">l</text><text class="cls-9" transform="translate(272.29 194.65)">u</text><path d="M200,224a2.47,2.47,0,0,1,.49-.8,3.4,3.4,0,0,1,.76-.65,3.57,3.57,0,0,1,.93-.43,3.18,3.18,0,0,1,1-.16,2.21,2.21,0,0,1,.89.17,1.5,1.5,0,0,1,.61.45,1.3,1.3,0,0,1,.28.66,1.52,1.52,0,0,1-.1.8,2.47,2.47,0,0,1-.5.81,3.71,3.71,0,0,1-1.7,1.09,3.52,3.52,0,0,1-1,.15,2.05,2.05,0,0,1-.89-.17,1.65,1.65,0,0,1-.61-.45,1.34,1.34,0,0,1-.28-.67A1.76,1.76,0,0,1,200,224Z"/><line class="cls-4" x1="204.99" y1="223.32" x2="204.99" y2="210.99"/><path d="M214.19,232a2.47,2.47,0,0,1,.49-.8,3.68,3.68,0,0,1,.76-.65,3.57,3.57,0,0,1,.93-.43,3.48,3.48,0,0,1,1-.15,2.29,2.29,0,0,1,.9.16,1.75,1.75,0,0,1,.6.45,1.3,1.3,0,0,1,.28.66,1.56,1.56,0,0,1-.1.81,2.54,2.54,0,0,1-.5.8,3.68,3.68,0,0,1-.76.66,3.66,3.66,0,0,1-1.94.58,2.21,2.21,0,0,1-.89-.16,1.79,1.79,0,0,1-.61-.46,1.3,1.3,0,0,1-.28-.66A1.82,1.82,0,0,1,214.19,232Z"/><line class="cls-4" x1="219.17" y1="231.33" x2="219.17" y2="211.99"/><path d="M228.2,232a2.47,2.47,0,0,1,.49-.8,3.68,3.68,0,0,1,.76-.65,3.29,3.29,0,0,1,.93-.43,3.41,3.41,0,0,1,1-.15,2.29,2.29,0,0,1,.9.16,1.7,1.7,0,0,1,.61.45,1.4,1.4,0,0,1,.28.66,1.58,1.58,0,0,1-.11.81,2.51,2.51,0,0,1-.49.8,3.74,3.74,0,0,1-.77.66,3.66,3.66,0,0,1-1.94.58,2.24,2.24,0,0,1-.89-.16,1.66,1.66,0,0,1-.6-.46,1.22,1.22,0,0,1-.28-.66A1.58,1.58,0,0,1,228.2,232Z"/><line class="cls-4" x1="233.17" y1="231.33" x2="233.17" y2="212.99"/><polyline points="204.84 209.99 233.32 211.99 233.32 213.99 204.84 211.99"/><path d="M242.37,220a2.7,2.7,0,0,1,.49-.8,3.63,3.63,0,0,1,.76-.64,4,4,0,0,1,.93-.44,3.41,3.41,0,0,1,1-.15,2.26,2.26,0,0,1,.9.17,1.5,1.5,0,0,1,.61.45,1.32,1.32,0,0,1,.28.65,1.66,1.66,0,0,1-.1.81,2.66,2.66,0,0,1-.5.81,4.07,4.07,0,0,1-.77.66,3.82,3.82,0,0,1-.94.43,3.46,3.46,0,0,1-1,.15,2,2,0,0,1-.88-.17,1.57,1.57,0,0,1-.61-.45,1.29,1.29,0,0,1-.28-.67A1.69,1.69,0,0,1,242.37,220Z"/><line class="cls-4" x1="242.39" y1="220.66" x2="242.39" y2="234.99"/><path d="M256.37,222a2.7,2.7,0,0,1,.49-.8,3.63,3.63,0,0,1,.76-.64,4,4,0,0,1,.93-.44,3.48,3.48,0,0,1,1-.15,2.29,2.29,0,0,1,.9.17,1.53,1.53,0,0,1,.6.45,1.27,1.27,0,0,1,.28.65,1.55,1.55,0,0,1-.1.81,2.47,2.47,0,0,1-.5.81,4,4,0,0,1-.76.66,3.82,3.82,0,0,1-.94.43,3.52,3.52,0,0,1-1,.15,2.05,2.05,0,0,1-.89-.17,1.65,1.65,0,0,1-.61-.45,1.34,1.34,0,0,1-.28-.67A1.82,1.82,0,0,1,256.37,222Z"/><line class="cls-4" x1="256.4" y1="222.66" x2="256.4" y2="235.99"/><path d="M270.55,224a2.44,2.44,0,0,1,.48-.8,3.63,3.63,0,0,1,.76-.65,3.57,3.57,0,0,1,.93-.43,3.18,3.18,0,0,1,1-.16,2.29,2.29,0,0,1,.9.17,1.57,1.57,0,0,1,.61.45,1.5,1.5,0,0,1,.28.66,1.64,1.64,0,0,1-.11.8,2.47,2.47,0,0,1-.5.81,4,4,0,0,1-.76.66,3.82,3.82,0,0,1-.94.43,3.52,3.52,0,0,1-1,.15,2.05,2.05,0,0,1-.89-.17,1.65,1.65,0,0,1-.61-.45,1.43,1.43,0,0,1-.28-.67A1.65,1.65,0,0,1,270.55,224Z"/><line class="cls-4" x1="270.57" y1="224.66" x2="270.57" y2="236.99"/><polyline points="242.24 233.99 270.72 235.99 270.72 237.99 242.24 235.99"/><text class="cls-9" transform="translate(197.27 248)">C</text><text class="cls-9" transform="translate(201.77 248)">h</text><text class="cls-9" transform="translate(205.52 248)">i</text><text class="cls-9" transform="translate(213.69 248)">l</text><text class="cls-9" transform="translate(215.94 248)">o</text><text class="cls-9" transform="translate(226.19 248)">s</text><text class="cls-9" transform="translate(229.19 248)">i</text><text class="cls-9" transform="translate(231.45 248)">n</text><text class="cls-9" transform="translate(238.87 248)">m</text><text class="cls-9" transform="translate(244.12 248)">á</text><text class="cls-9" transform="translate(247.87 248)">s</text><text class="cls-9" transform="translate(257.75 248)">i</text><text class="cls-9" transform="translate(270.04 248)">l</text><text class="cls-9" transform="translate(272.29 248)">u</text><line class="cls-4" x1="200.05" y1="278.01" x2="200.05" y2="302.68"/><path d="M200,277.36a2.47,2.47,0,0,1,.49-.8,3.4,3.4,0,0,1,.76-.65,3.57,3.57,0,0,1,.93-.43,3.18,3.18,0,0,1,1-.16,2.21,2.21,0,0,1,.89.17,1.5,1.5,0,0,1,.61.45,1.27,1.27,0,0,1,.28.66,1.52,1.52,0,0,1-.1.8,2.47,2.47,0,0,1-.5.81,3.71,3.71,0,0,1-1.7,1.09,3.52,3.52,0,0,1-1,.15,2.05,2.05,0,0,1-.89-.17,1.65,1.65,0,0,1-.61-.45,1.34,1.34,0,0,1-.28-.67A1.76,1.76,0,0,1,200,277.36Z"/><path d="M200,291.36a2.58,2.58,0,0,1,.49-.8,3.68,3.68,0,0,1,.76-.65,3.93,3.93,0,0,1,.93-.43,3.48,3.48,0,0,1,1-.15,2.05,2.05,0,0,1,.89.17,1.58,1.58,0,0,1,.61.44,1.3,1.3,0,0,1,.28.66,1.56,1.56,0,0,1-.1.81,2.47,2.47,0,0,1-.5.81,3.8,3.8,0,0,1-1.7,1.08,3.21,3.21,0,0,1-1,.16,2.21,2.21,0,0,1-.89-.17,1.67,1.67,0,0,1-.61-.46,1.3,1.3,0,0,1-.28-.66A1.82,1.82,0,0,1,200,291.36Z"/><path d="M229.22,283.93a1,1,0,0,1,.72.05,1.06,1.06,0,0,1,.44.45,1.65,1.65,0,0,1,.19.63,1.55,1.55,0,0,1,0,.59,2.85,2.85,0,0,0,.46-.1,1.08,1.08,0,0,0,.44-.29c.13-.14.25-.26.34-.38s.2-.25.33-.4l.22.13-1.77,6.7h-.65c.11-.35.22-.7.34-1s.19-.57.29-.87.18-.55.26-.73c.17-.47.31-.89.42-1.25s.2-.69.26-.94.14-.56.18-.79l-.39.28a4.86,4.86,0,0,1-.54.33,4.53,4.53,0,0,1-.59.28,1.87,1.87,0,0,1-.59.14,1.25,1.25,0,0,1-1-.34,1.41,1.41,0,0,1-.44-.85,1.42,1.42,0,0,1,1.13-1.6Z"/><path d="M246.35,290.82a4.23,4.23,0,0,0-.73-.25,2.54,2.54,0,0,0-.58-.07,1.31,1.31,0,0,0-.87.3,1.06,1.06,0,0,0-.36.86.86.86,0,0,0,.12.4,2.36,2.36,0,0,0,.28.42,4.32,4.32,0,0,0,.42.45l-.2.16a6.28,6.28,0,0,1-1-.71,5.93,5.93,0,0,1-.69-.72,1.76,1.76,0,0,1-.39-.86,1.1,1.1,0,0,1,0-.54,1.32,1.32,0,0,1,.24-.49,1.23,1.23,0,0,1,.43-.35,1.49,1.49,0,0,1,.6-.17H244a2,2,0,0,1,.34,0l.32,0,.25,0a21.29,21.29,0,0,1-1.74-1.86c-.39-.49-.55-.81-.49-1l.35-.44a6.09,6.09,0,0,0,.45-.7,5.54,5.54,0,0,0,.4-.85,2.31,2.31,0,0,0,.18-.88,1.81,1.81,0,0,0-.18-.68,8.17,8.17,0,0,0-.38-.79c-.17-.29-.36-.59-.56-.91l.22-.16,2.92,3.66a6.74,6.74,0,0,0-.69,1,6.42,6.42,0,0,0-.48.9,2.39,2.39,0,0,0-.21.93,1.9,1.9,0,0,0,.09.58,4.18,4.18,0,0,0,.21.53,5.16,5.16,0,0,0,.29.46l.29.38a2.5,2.5,0,0,0,.21.25c.09.1.19.2.27.3l.23.28a.6.6,0,0,1,.11.16l0,.26Z"/><text class="cls-5" transform="translate(248.08 285.68)">.</text><text class="cls-5" transform="translate(206.4 335.02)">.</text><line class="cls-4" x1="200.05" y1="335.36" x2="200.05" y2="348.7"/><path d="M200,334.71a2.47,2.47,0,0,1,.49-.8,3.4,3.4,0,0,1,.76-.65,3.57,3.57,0,0,1,.93-.43,3.18,3.18,0,0,1,1-.16,2.21,2.21,0,0,1,.89.17,1.5,1.5,0,0,1,.61.45,1.3,1.3,0,0,1,.28.66,1.52,1.52,0,0,1-.1.8,2.47,2.47,0,0,1-.5.81,3.78,3.78,0,0,1-.77.66,3.43,3.43,0,0,1-.93.43,3.52,3.52,0,0,1-1,.15,2.21,2.21,0,0,1-.89-.16,1.79,1.79,0,0,1-.61-.46,1.3,1.3,0,0,1-.28-.67A1.76,1.76,0,0,1,200,334.71Z"/><text class="cls-5" transform="translate(248.74 347.03)">.</text><line class="cls-4" x1="247.34" y1="348.03" x2="247.34" y2="334.69"/><path d="M242.37,348.71a2.58,2.58,0,0,1,.49-.8,4,4,0,0,1,.76-.65,3.93,3.93,0,0,1,.93-.43,3.41,3.41,0,0,1,1-.15,2.1,2.1,0,0,1,.9.17,1.58,1.58,0,0,1,.61.44,1.4,1.4,0,0,1,.28.66,1.68,1.68,0,0,1-.1.81,2.66,2.66,0,0,1-.5.81,3.69,3.69,0,0,1-.77.65,3.85,3.85,0,0,1-.94.44,3.46,3.46,0,0,1-1,.15,2.16,2.16,0,0,1-.88-.17,1.5,1.5,0,0,1-.61-.46,1.22,1.22,0,0,1-.28-.66A1.69,1.69,0,0,1,242.37,348.71Z"/><text class="cls-5" transform="translate(296.76 58.27)">.</text><line class="cls-4" x1="290.41" y1="58.6" x2="290.41" y2="71.94"/><path d="M295.38,56.51a1.25,1.25,0,0,1,.12.4,3.08,3.08,0,0,1,0,.43c0,.14,0,.28-.07.41s-.07.22-.1.3a3.07,3.07,0,0,1-.67,1.07,3,3,0,0,1-.82.64,3.4,3.4,0,0,1-1.87.31l-.38,0a2.26,2.26,0,0,1-.43-.11,4.11,4.11,0,0,1-.42-.21,1,1,0,0,1-.31-.32,1.16,1.16,0,0,1-.15-.43,1.41,1.41,0,0,1,0-.41,3.06,3.06,0,0,1,.07-.37c0-.11.07-.21.1-.3a2.57,2.57,0,0,1,.64-1,4.89,4.89,0,0,1,.78-.63,3.69,3.69,0,0,1,.91-.34,3.43,3.43,0,0,1,1.21,0l.32,0a2.16,2.16,0,0,1,.39.09,2,2,0,0,1,.38.2A.93.93,0,0,1,295.38,56.51Zm-.37.28a.63.63,0,0,0-.31-.26,1,1,0,0,0-.4-.05,1.4,1.4,0,0,0-.44.1,4.08,4.08,0,0,0-.42.17c-.18.09-.34.17-.49.26l-.45.26c-.31.17-.63.36-.95.57l-.36.26a1.57,1.57,0,0,0-.31.32,1,1,0,0,0-.17.37.63.63,0,0,0,.07.4.58.58,0,0,0,.31.25.93.93,0,0,0,.41,0,1.85,1.85,0,0,0,.44-.1,3.15,3.15,0,0,0,.41-.18l.51-.25.47-.26.46-.26c.14-.08.3-.18.47-.3l.34-.26a1.34,1.34,0,0,0,.31-.32.78.78,0,0,0,.17-.37A.53.53,0,0,0,295,56.79Z"/><text class="cls-9" transform="translate(290.26 87.95)">s</text><text class="cls-9" transform="translate(293.26 87.95)">i</text><text class="cls-9" transform="translate(295.51 87.95)">ó</text><text class="cls-9" transform="translate(299.26 87.95)">n</text><text class="cls-5" transform="translate(296.76 119.62)">.</text><line class="cls-4" x1="295.36" y1="120.62" x2="295.36" y2="107.29"/><path d="M295.38,119.87a1.12,1.12,0,0,1,.12.39,3.09,3.09,0,0,1,0,.43c0,.14,0,.28-.07.41s-.07.23-.1.3a3,3,0,0,1-.67,1.08,3.23,3.23,0,0,1-.82.64,3.49,3.49,0,0,1-1.87.3l-.38,0a2.26,2.26,0,0,1-.43-.11,2.06,2.06,0,0,1-.42-.21,1,1,0,0,1-.31-.32,1.18,1.18,0,0,1-.15-.42,1.48,1.48,0,0,1,0-.42,3.49,3.49,0,0,1,.07-.37c0-.11.07-.21.1-.29a2.61,2.61,0,0,1,.64-1,4.89,4.89,0,0,1,.78-.63,3.7,3.7,0,0,1,.91-.33,3.41,3.41,0,0,1,1.21-.05l.32,0a2.24,2.24,0,0,1,.39.1,1.5,1.5,0,0,1,.38.19A1,1,0,0,1,295.38,119.87Zm-.37.27a.69.69,0,0,0-.31-.26,1,1,0,0,0-.4,0,2.33,2.33,0,0,0-.44.1,2.65,2.65,0,0,0-.42.18c-.18.08-.34.17-.49.25l-.45.26c-.31.17-.63.36-.95.57l-.36.26a1.87,1.87,0,0,0-.31.32,1.08,1.08,0,0,0-.17.38.59.59,0,0,0,.38.65,1.1,1.1,0,0,0,.41,0,2.57,2.57,0,0,0,.44-.11,3.17,3.17,0,0,0,.41-.17l.51-.26.47-.26.46-.25.47-.31.34-.25a1.86,1.86,0,0,0,.31-.32.86.86,0,0,0,.17-.38A.55.55,0,0,0,295,120.14Z"/><text class="cls-9" transform="translate(290.26 141.3)">s</text><text class="cls-9" transform="translate(293.26 141.3)">i</text><text class="cls-9" transform="translate(295.51 141.3)">ó</text><text class="cls-9" transform="translate(299.26 141.3)">n</text><text class="cls-5" transform="translate(296.76 164.97)">.</text><line class="cls-4" x1="290.41" y1="165.3" x2="290.41" y2="178.64"/><path d="M295.38,163.21a1.25,1.25,0,0,1,.12.4,3.08,3.08,0,0,1,0,.43c0,.14,0,.28-.07.41s-.07.23-.1.3a3,3,0,0,1-.67,1.07,3,3,0,0,1-.82.64,3.4,3.4,0,0,1-1.87.31l-.38-.05a2.26,2.26,0,0,1-.43-.11,4.11,4.11,0,0,1-.42-.21,1,1,0,0,1-.31-.32,1.16,1.16,0,0,1-.15-.43,1.41,1.41,0,0,1,0-.41,3.06,3.06,0,0,1,.07-.37c0-.11.07-.21.1-.3a2.57,2.57,0,0,1,.64-1,4.89,4.89,0,0,1,.78-.63,3.33,3.33,0,0,1,.91-.33,3.19,3.19,0,0,1,1.21-.05l.32,0a2.16,2.16,0,0,1,.39.09,2,2,0,0,1,.38.2A.93.93,0,0,1,295.38,163.21Zm-.37.28a.63.63,0,0,0-.31-.26,1,1,0,0,0-.4,0,1.4,1.4,0,0,0-.44.1,4.08,4.08,0,0,0-.42.17c-.18.09-.34.17-.49.26l-.45.26c-.31.17-.63.36-.95.57l-.36.26a1.57,1.57,0,0,0-.31.32,1.12,1.12,0,0,0-.17.37.63.63,0,0,0,.07.4.58.58,0,0,0,.31.25.93.93,0,0,0,.41,0,1.85,1.85,0,0,0,.44-.1,3.15,3.15,0,0,0,.41-.18l.51-.25.47-.26.46-.26c.14-.08.3-.18.47-.3l.34-.26a1.34,1.34,0,0,0,.31-.32.78.78,0,0,0,.17-.37A.53.53,0,0,0,295,163.49Z"/><text class="cls-9" transform="translate(290.26 194.65)">s</text><text class="cls-9" transform="translate(293.26 194.65)">i</text><text class="cls-9" transform="translate(295.51 194.65)">ó</text><text class="cls-9" transform="translate(299.26 194.65)">n</text><text class="cls-5" transform="translate(296.76 218.32)">.</text><line class="cls-4" x1="290.41" y1="218.65" x2="290.41" y2="231.99"/><path d="M295.38,216.56a1.25,1.25,0,0,1,.12.4,3.08,3.08,0,0,1,0,.43c0,.14,0,.28-.07.41s-.07.22-.1.3a3.07,3.07,0,0,1-.67,1.07,3,3,0,0,1-.82.64,3.4,3.4,0,0,1-1.87.31l-.38-.05a2.26,2.26,0,0,1-.43-.11,4.11,4.11,0,0,1-.42-.21,1,1,0,0,1-.31-.32,1.16,1.16,0,0,1-.15-.43,1.41,1.41,0,0,1,0-.41,3.06,3.06,0,0,1,.07-.37c0-.11.07-.21.1-.3a2.57,2.57,0,0,1,.64-1,4.89,4.89,0,0,1,.78-.63,3.33,3.33,0,0,1,.91-.33,3.19,3.19,0,0,1,1.21-.05l.32,0a2.16,2.16,0,0,1,.39.09,2,2,0,0,1,.38.2A.93.93,0,0,1,295.38,216.56Zm-.37.28a.63.63,0,0,0-.31-.26,1,1,0,0,0-.4-.05,1.4,1.4,0,0,0-.44.1,4.08,4.08,0,0,0-.42.17c-.18.09-.34.17-.49.26l-.45.26c-.31.17-.63.36-.95.57l-.36.26a1.57,1.57,0,0,0-.31.32,1,1,0,0,0-.17.37.63.63,0,0,0,.07.4.58.58,0,0,0,.31.25.93.93,0,0,0,.41,0,1.85,1.85,0,0,0,.44-.1,3.15,3.15,0,0,0,.41-.18l.51-.25.47-.26.46-.26c.14-.08.3-.18.47-.3l.34-.26a1.34,1.34,0,0,0,.31-.32.78.78,0,0,0,.17-.37A.53.53,0,0,0,295,216.84Z"/><text class="cls-9" transform="translate(290.26 248)">s</text><text class="cls-9" transform="translate(293.26 248)">i</text><text class="cls-9" transform="translate(295.51 248)">ó</text><text class="cls-9" transform="translate(299.26 248)">n</text><path d="M294.37,290.82a4.3,4.3,0,0,0-.74-.25,2.46,2.46,0,0,0-.57-.07,1.31,1.31,0,0,0-.87.3,1.06,1.06,0,0,0-.36.86.86.86,0,0,0,.12.4,2.36,2.36,0,0,0,.28.42,3.34,3.34,0,0,0,.41.45l-.19.16a6.28,6.28,0,0,1-1-.71,5.32,5.32,0,0,1-.7-.72,1.76,1.76,0,0,1-.39-.86,1.4,1.4,0,0,1,0-.54,1.32,1.32,0,0,1,.24-.49,1.27,1.27,0,0,1,.44-.35,1.4,1.4,0,0,1,.6-.17h.3a2.07,2.07,0,0,1,.35,0l.32,0,.24,0a22.54,22.54,0,0,1-1.73-1.86c-.39-.49-.56-.81-.49-1l.34-.44a5,5,0,0,0,.46-.7,6.66,6.66,0,0,0,.4-.85,2.31,2.31,0,0,0,.18-.88,1.81,1.81,0,0,0-.18-.68c-.12-.27-.25-.53-.38-.79s-.36-.59-.57-.91l.23-.16,2.91,3.66a7.61,7.61,0,0,0-.69,1,6.42,6.42,0,0,0-.48.9,2.37,2.37,0,0,0-.2.93,1.89,1.89,0,0,0,.08.58,3.11,3.11,0,0,0,.22.53,2.74,2.74,0,0,0,.29.46,4.65,4.65,0,0,0,.29.38l.2.25.28.3.23.28a.46.46,0,0,1,.1.16l0,.26Z"/><text class="cls-5" transform="translate(296.09 285.68)">.</text><path d="M314.39,281.36a2.47,2.47,0,0,1,.49-.8,3.68,3.68,0,0,1,.76-.65,3.57,3.57,0,0,1,.93-.43,3.49,3.49,0,0,1,1-.16,2.21,2.21,0,0,1,.89.17,1.5,1.5,0,0,1,.61.45,1.4,1.4,0,0,1,.28.66,1.62,1.62,0,0,1-.1.8,2.47,2.47,0,0,1-.5.81,3.78,3.78,0,0,1-.77.66,3.43,3.43,0,0,1-.93.43,3.52,3.52,0,0,1-1,.15,2.21,2.21,0,0,1-.89-.16,1.7,1.7,0,0,1-.61-.46,1.3,1.3,0,0,1-.28-.67A1.76,1.76,0,0,1,314.39,281.36Z"/><line class="cls-4" x1="314.41" y1="282.01" x2="314.41" y2="296.35"/><text class="cls-5" transform="translate(315.43 277.17)">.</text><path d="M325.73,283.36a2.47,2.47,0,0,1,.49-.8,3.68,3.68,0,0,1,.76-.65,3.57,3.57,0,0,1,.93-.43,3.41,3.41,0,0,1,1-.15,2.26,2.26,0,0,1,.9.16,1.59,1.59,0,0,1,.61.45,1.4,1.4,0,0,1,.28.66,1.58,1.58,0,0,1-.11.81,2.51,2.51,0,0,1-.49.8,4.07,4.07,0,0,1-.77.66,3.66,3.66,0,0,1-1.94.58,2.16,2.16,0,0,1-.88-.16,1.61,1.61,0,0,1-.61-.46,1.22,1.22,0,0,1-.28-.66A1.69,1.69,0,0,1,325.73,283.36Z"/><line class="cls-4" x1="325.75" y1="284.01" x2="325.75" y2="297.35"/><text class="cls-5" transform="translate(326.77 278.01)">.</text><path d="M336.9,285.36a2.47,2.47,0,0,1,.49-.8,3.68,3.68,0,0,1,.76-.65,3.57,3.57,0,0,1,.93-.43,3.41,3.41,0,0,1,1-.15,2.26,2.26,0,0,1,.9.16,1.7,1.7,0,0,1,.61.45,1.4,1.4,0,0,1,.28.66,1.68,1.68,0,0,1-.1.81,2.74,2.74,0,0,1-.5.8,4.07,4.07,0,0,1-.77.66,3.66,3.66,0,0,1-1.94.58,2.16,2.16,0,0,1-.88-.16,1.7,1.7,0,0,1-.61-.46,1.22,1.22,0,0,1-.28-.66A1.69,1.69,0,0,1,336.9,285.36Z"/><line class="cls-4" x1="336.92" y1="286.01" x2="336.92" y2="298.35"/><text class="cls-5" transform="translate(337.94 282.01)">.</text><polyline points="314.26 295.35 337.07 297.35 337.07 299.35 314.26 297.35"/><rect x="313.78" y="336.68" width="5.09" height="2.3"/><line class="cls-4" x1="313.26" y1="336.69" x2="319.43" y2="336.69"/><text class="cls-10" transform="translate(338.44 344.69)">&amp;</text><text class="cls-5" transform="translate(360.45 58.27)">.</text><line class="cls-4" x1="354.09" y1="58.6" x2="354.09" y2="71.94"/><path d="M359.07,56.51a1.25,1.25,0,0,1,.12.4,3.08,3.08,0,0,1,0,.43,2.7,2.7,0,0,1-.08.41,2.82,2.82,0,0,1-.09.3,3.1,3.1,0,0,1-.68,1.07,3,3,0,0,1-.81.64,3.4,3.4,0,0,1-1.87.31l-.38,0a2.26,2.26,0,0,1-.43-.11,3.29,3.29,0,0,1-.42-.21,1,1,0,0,1-.31-.32A.89.89,0,0,1,354,59a1.41,1.41,0,0,1,0-.41,1.87,1.87,0,0,1,.07-.37,2.11,2.11,0,0,1,.1-.3,2.57,2.57,0,0,1,.64-1,4.14,4.14,0,0,1,.78-.63,3.76,3.76,0,0,1,.9-.34,3.44,3.44,0,0,1,1.21,0l.32,0a1.83,1.83,0,0,1,.39.09,1.79,1.79,0,0,1,.39.2A.93.93,0,0,1,359.07,56.51Zm-.37.28a.61.61,0,0,0-.32-.26,1,1,0,0,0-.4-.05,1.47,1.47,0,0,0-.44.1l-.41.17a5.46,5.46,0,0,0-.49.26l-.46.26c-.31.17-.62.36-.94.57a4.06,4.06,0,0,0-.36.26,1.34,1.34,0,0,0-.31.32.89.89,0,0,0-.17.37.57.57,0,0,0,.07.4.58.58,0,0,0,.31.25.88.88,0,0,0,.4,0,1.75,1.75,0,0,0,.44-.1,4.08,4.08,0,0,0,.42-.18l.5-.25.48-.26.45-.26a4.51,4.51,0,0,0,.47-.3c.11-.08.23-.16.35-.26a1.34,1.34,0,0,0,.31-.32.89.89,0,0,0,.17-.37A.53.53,0,0,0,358.7,56.79Z"/><text class="cls-5" transform="translate(360.45 119.62)">.</text><line class="cls-4" x1="359.04" y1="120.62" x2="359.04" y2="107.29"/><path d="M359.07,119.87a1.12,1.12,0,0,1,.12.39,3.09,3.09,0,0,1,0,.43,2.7,2.7,0,0,1-.08.41,1.86,1.86,0,0,1-.09.3,3,3,0,0,1-.68,1.08,3.2,3.2,0,0,1-.81.64,3.49,3.49,0,0,1-1.87.3l-.38,0a2.26,2.26,0,0,1-.43-.11,1.83,1.83,0,0,1-.42-.21.86.86,0,0,1-.31-.32.89.89,0,0,1-.15-.42,1.48,1.48,0,0,1,0-.42,2,2,0,0,1,.07-.37,1.63,1.63,0,0,1,.1-.29,2.61,2.61,0,0,1,.64-1,4.14,4.14,0,0,1,.78-.63,3.77,3.77,0,0,1,.9-.33,3.42,3.42,0,0,1,1.21-.05l.32,0a1.86,1.86,0,0,1,.39.1,1.41,1.41,0,0,1,.39.19A1,1,0,0,1,359.07,119.87Zm-.37.27a.66.66,0,0,0-.32-.26,1,1,0,0,0-.4,0,2.51,2.51,0,0,0-.44.1,3,3,0,0,0-.41.18c-.18.08-.35.17-.49.25s-.3.17-.46.26c-.31.17-.62.36-.94.57a4.06,4.06,0,0,0-.36.26,1.56,1.56,0,0,0-.31.32.93.93,0,0,0-.17.38.55.55,0,0,0,.07.39.6.6,0,0,0,.31.26,1,1,0,0,0,.4,0,2.36,2.36,0,0,0,.44-.11,4.08,4.08,0,0,0,.42-.17l.5-.26L357,122l.45-.25.47-.31.35-.25a1.86,1.86,0,0,0,.31-.32,1,1,0,0,0,.17-.38A.55.55,0,0,0,358.7,120.14Z"/><text class="cls-5" transform="translate(360.45 164.97)">.</text><line class="cls-4" x1="354.09" y1="165.3" x2="354.09" y2="178.64"/><path d="M359.07,163.21a1.25,1.25,0,0,1,.12.4,3.08,3.08,0,0,1,0,.43,2.7,2.7,0,0,1-.08.41,2.25,2.25,0,0,1-.09.3,3.44,3.44,0,0,1-1.49,1.71,3.4,3.4,0,0,1-1.87.31l-.38-.05a2.26,2.26,0,0,1-.43-.11,3.29,3.29,0,0,1-.42-.21,1,1,0,0,1-.31-.32.89.89,0,0,1-.15-.43,1.41,1.41,0,0,1,0-.41,1.87,1.87,0,0,1,.07-.37,2.11,2.11,0,0,1,.1-.3,2.57,2.57,0,0,1,.64-1,4.14,4.14,0,0,1,.78-.63,3.38,3.38,0,0,1,.9-.33,3.2,3.2,0,0,1,1.21-.05l.32,0a1.83,1.83,0,0,1,.39.09,1.79,1.79,0,0,1,.39.2A.93.93,0,0,1,359.07,163.21Zm-.37.28a.61.61,0,0,0-.32-.26,1,1,0,0,0-.4,0,1.47,1.47,0,0,0-.44.1l-.41.17a5.46,5.46,0,0,0-.49.26c-.14.09-.3.17-.46.26-.31.17-.62.36-.94.57a4.06,4.06,0,0,0-.36.26,1.34,1.34,0,0,0-.31.32,1,1,0,0,0-.17.37.57.57,0,0,0,.07.4.58.58,0,0,0,.31.25.88.88,0,0,0,.4,0,1.75,1.75,0,0,0,.44-.1,4.08,4.08,0,0,0,.42-.18l.5-.25.48-.26.45-.26a4.51,4.51,0,0,0,.47-.3,3.49,3.49,0,0,0,.35-.26,1.34,1.34,0,0,0,.31-.32.89.89,0,0,0,.17-.37A.53.53,0,0,0,358.7,163.49Z"/><text class="cls-5" transform="translate(360.45 218.32)">.</text><line class="cls-4" x1="354.09" y1="218.65" x2="354.09" y2="231.99"/><path d="M359.07,216.56a1.25,1.25,0,0,1,.12.4,3.08,3.08,0,0,1,0,.43,2.7,2.7,0,0,1-.08.41,2.82,2.82,0,0,1-.09.3,3.1,3.1,0,0,1-.68,1.07,3,3,0,0,1-.81.64,3.4,3.4,0,0,1-1.87.31l-.38-.05a2.26,2.26,0,0,1-.43-.11,3.29,3.29,0,0,1-.42-.21,1,1,0,0,1-.31-.32A.89.89,0,0,1,354,219a1.41,1.41,0,0,1,0-.41,1.87,1.87,0,0,1,.07-.37,2.11,2.11,0,0,1,.1-.3,2.57,2.57,0,0,1,.64-1,4.14,4.14,0,0,1,.78-.63,3.38,3.38,0,0,1,.9-.33,3.2,3.2,0,0,1,1.21-.05l.32,0a1.83,1.83,0,0,1,.39.09,1.79,1.79,0,0,1,.39.2A.93.93,0,0,1,359.07,216.56Zm-.37.28a.61.61,0,0,0-.32-.26,1,1,0,0,0-.4-.05,1.47,1.47,0,0,0-.44.1l-.41.17a5.46,5.46,0,0,0-.49.26l-.46.26c-.31.17-.62.36-.94.57a4.06,4.06,0,0,0-.36.26,1.34,1.34,0,0,0-.31.32.89.89,0,0,0-.17.37.57.57,0,0,0,.07.4.58.58,0,0,0,.31.25.88.88,0,0,0,.4,0,1.75,1.75,0,0,0,.44-.1,4.08,4.08,0,0,0,.42-.18l.5-.25.48-.26.45-.26a4.51,4.51,0,0,0,.47-.3c.11-.08.23-.16.35-.26a1.34,1.34,0,0,0,.31-.32.89.89,0,0,0,.17-.37A.53.53,0,0,0,358.7,216.84Z"/><path d="M358.06,290.82a4.61,4.61,0,0,0-.74-.25,2.47,2.47,0,0,0-.58-.07,1.31,1.31,0,0,0-.87.3,1.06,1.06,0,0,0-.36.86.86.86,0,0,0,.12.4,3.07,3.07,0,0,0,.28.42,4.32,4.32,0,0,0,.42.45l-.19.16a5.43,5.43,0,0,1-1-.71,5.32,5.32,0,0,1-.7-.72,1.76,1.76,0,0,1-.39-.86,1.23,1.23,0,0,1,0-.54,1.32,1.32,0,0,1,.24-.49,1.23,1.23,0,0,1,.43-.35,1.49,1.49,0,0,1,.6-.17h.31a1.87,1.87,0,0,1,.34,0l.32,0a1.31,1.31,0,0,1,.25,0,21.29,21.29,0,0,1-1.74-1.86q-.58-.74-.48-1l.34-.44a6.07,6.07,0,0,0,.46-.7,6.66,6.66,0,0,0,.4-.85,2.5,2.5,0,0,0,.17-.88,2,2,0,0,0-.17-.68c-.12-.27-.25-.53-.39-.79s-.36-.59-.56-.91l.23-.16,2.91,3.66a6.74,6.74,0,0,0-.69,1,6.42,6.42,0,0,0-.48.9,2.39,2.39,0,0,0-.21.93,1.9,1.9,0,0,0,.09.58,3.11,3.11,0,0,0,.22.53,3.52,3.52,0,0,0,.28.46l.29.38.21.25a3.65,3.65,0,0,1,.27.3,2.6,2.6,0,0,1,.23.28.6.6,0,0,1,.11.16l0,.26Z"/><text class="cls-5" transform="translate(359.78 285.68)">.</text><path d="M388.25,297.36a2.58,2.58,0,0,1,.49-.8,4,4,0,0,1,.76-.65,3.93,3.93,0,0,1,.93-.43,3.41,3.41,0,0,1,1-.15,2.26,2.26,0,0,1,.9.17,1.5,1.5,0,0,1,.61.45,1.32,1.32,0,0,1,.28.65,1.58,1.58,0,0,1-.11.81,2.44,2.44,0,0,1-.49.81,3.69,3.69,0,0,1-.77.65,3.85,3.85,0,0,1-.94.44,3.46,3.46,0,0,1-1,.15,2.16,2.16,0,0,1-.88-.17,1.43,1.43,0,0,1-.61-.46,1.22,1.22,0,0,1-.28-.66A1.69,1.69,0,0,1,388.25,297.36Z"/><line class="cls-4" x1="393.22" y1="296.68" x2="393.22" y2="286.34"/><text class="cls-5" transform="translate(389.29 302.51)">.</text><line class="cls-4" x1="398.46" y1="299.35" x2="405.63" y2="299.35"/><path d="M399.59,299.36a2.37,2.37,0,0,1,.48-.8,4.34,4.34,0,0,1,.76-.65,3.93,3.93,0,0,1,.93-.43,3.48,3.48,0,0,1,1-.15,2.29,2.29,0,0,1,.9.17,1.46,1.46,0,0,1,.6.45,1.24,1.24,0,0,1,.28.65,1.56,1.56,0,0,1-.1.81,2.47,2.47,0,0,1-.5.81,4,4,0,0,1-.76.66,3.82,3.82,0,0,1-.94.43,3.52,3.52,0,0,1-1,.15,2.21,2.21,0,0,1-.89-.17,1.65,1.65,0,0,1-.61-.45,1.48,1.48,0,0,1-.28-.67A1.71,1.71,0,0,1,399.59,299.36Z"/><line class="cls-4" x1="404.56" y1="298.68" x2="404.56" y2="286.84"/><text class="cls-5" transform="translate(400.63 304.52)">.</text><line class="cls-4" x1="409.96" y1="299.35" x2="417.13" y2="299.35"/><path d="M411.09,301.36a2.58,2.58,0,0,1,.49-.8,4,4,0,0,1,.76-.65,3.76,3.76,0,0,1,.93-.43,3.41,3.41,0,0,1,1-.15,2.26,2.26,0,0,1,.9.17,1.5,1.5,0,0,1,.61.45,1.32,1.32,0,0,1,.28.65,1.58,1.58,0,0,1-.11.81,2.44,2.44,0,0,1-.49.81,4.07,4.07,0,0,1-.77.66,3.82,3.82,0,0,1-.94.43,3.46,3.46,0,0,1-1,.15,2.16,2.16,0,0,1-.88-.17,1.5,1.5,0,0,1-.61-.45,1.29,1.29,0,0,1-.28-.67A1.58,1.58,0,0,1,411.09,301.36Z"/><line class="cls-4" x1="416.06" y1="300.68" x2="416.06" y2="287.34"/><text class="cls-5" transform="translate(412.13 306.52)">.</text><polyline points="393.07 285.34 416.21 286.34 416.21 288.34 393.07 287.34"/><path d="M354.07,342.71a2.47,2.47,0,0,1,.49-.8,3.68,3.68,0,0,1,.76-.65,3.57,3.57,0,0,1,.93-.43,3.48,3.48,0,0,1,1-.15,2.21,2.21,0,0,1,.89.16,1.7,1.7,0,0,1,.61.45,1.4,1.4,0,0,1,.28.66,1.68,1.68,0,0,1-.1.81,2.78,2.78,0,0,1-.5.81,3.74,3.74,0,0,1-.77.65,3.57,3.57,0,0,1-.93.43,3.54,3.54,0,0,1-1,.16,2.17,2.17,0,0,1-.89-.17,1.59,1.59,0,0,1-.61-.46,1.22,1.22,0,0,1-.28-.66A1.69,1.69,0,0,1,354.07,342.71Z"/><line class="cls-4" x1="359.04" y1="342.03" x2="359.04" y2="329.69"/><text class="cls-5" transform="translate(355.44 347.36)">.</text><path d="M365.41,344.71a2.58,2.58,0,0,1,.49-.8,3.68,3.68,0,0,1,.76-.65,3.76,3.76,0,0,1,.93-.43,3.41,3.41,0,0,1,1-.15,2.13,2.13,0,0,1,.9.17,1.58,1.58,0,0,1,.61.44,1.4,1.4,0,0,1,.28.66,1.58,1.58,0,0,1-.11.81,2.44,2.44,0,0,1-.49.81,3.69,3.69,0,0,1-.77.65,3.49,3.49,0,0,1-.94.43,3.17,3.17,0,0,1-1,.16,2.24,2.24,0,0,1-.89-.17,1.55,1.55,0,0,1-.6-.46,1.22,1.22,0,0,1-.28-.66A1.58,1.58,0,0,1,365.41,344.71Z"/><line class="cls-4" x1="370.38" y1="344.03" x2="370.38" y2="330.68"/><text class="cls-5" transform="translate(366.78 351.36)">.</text><path d="M376.91,346.71a2.58,2.58,0,0,1,.49-.8,3.68,3.68,0,0,1,.76-.65,3.93,3.93,0,0,1,.93-.43,3.48,3.48,0,0,1,1-.15,2.05,2.05,0,0,1,.89.17,1.58,1.58,0,0,1,.61.44,1.4,1.4,0,0,1,.28.66,1.68,1.68,0,0,1-.1.81,2.47,2.47,0,0,1-.5.81,3.8,3.8,0,0,1-1.7,1.08,3.21,3.21,0,0,1-1,.16,2.21,2.21,0,0,1-.89-.17,1.59,1.59,0,0,1-.61-.46,1.3,1.3,0,0,1-.28-.66A1.82,1.82,0,0,1,376.91,346.71Z"/><line class="cls-4" x1="381.88" y1="346.03" x2="381.88" y2="331.69"/><text class="cls-5" transform="translate(378.28 352.03)">.</text><polyline points="358.89 328.69 382.03 330.69 382.03 332.69 358.89 330.69"/><path d="M392.23,344.17a4.23,4.23,0,0,0-.73-.25,2.6,2.6,0,0,0-.58-.07,1.31,1.31,0,0,0-.87.3,1.06,1.06,0,0,0-.36.86.86.86,0,0,0,.12.4,2.36,2.36,0,0,0,.28.42,4.32,4.32,0,0,0,.42.45l-.2.16a7,7,0,0,1-1-.71,5.93,5.93,0,0,1-.69-.72,1.76,1.76,0,0,1-.39-.86,1.1,1.1,0,0,1,0-.54,1.32,1.32,0,0,1,.24-.49,1.23,1.23,0,0,1,.43-.35,1.49,1.49,0,0,1,.6-.17h.31a2,2,0,0,1,.34,0l.32.05.25,0a21.29,21.29,0,0,1-1.74-1.86c-.39-.49-.55-.81-.49-1l.35-.44a6.09,6.09,0,0,0,.45-.7,5.54,5.54,0,0,0,.4-.85,2.31,2.31,0,0,0,.18-.88,1.81,1.81,0,0,0-.18-.68,8.17,8.17,0,0,0-.38-.79c-.17-.29-.36-.59-.56-.91l.22-.16,2.92,3.66a6.74,6.74,0,0,0-.69,1,6.42,6.42,0,0,0-.48.9,2.38,2.38,0,0,0-.21.92,1.92,1.92,0,0,0,.09.59,4.18,4.18,0,0,0,.21.53,5.16,5.16,0,0,0,.29.46l.29.38a2.5,2.5,0,0,0,.21.25l.27.3.23.28a.47.47,0,0,1,.11.16l0,.26Z"/><text class="cls-5" transform="translate(393.96 339.03)">.</text><text class="cls-10" transform="translate(411.96 336.69)">?</text><text class="cls-5" transform="translate(434.63 58.27)">.</text><line class="cls-4" x1="428.28" y1="58.6" x2="428.28" y2="71.94"/><path d="M428.26,58a2.7,2.7,0,0,1,.49-.8,3.93,3.93,0,0,1,1.69-1.08,3.43,3.43,0,0,1,1-.15,2.21,2.21,0,0,1,.89.17,1.5,1.5,0,0,1,.61.45,1.32,1.32,0,0,1,.28.65,1.68,1.68,0,0,1-.1.81,2.66,2.66,0,0,1-.5.81,3.78,3.78,0,0,1-.77.66,3.93,3.93,0,0,1-.93.43,3.52,3.52,0,0,1-1,.15,2.17,2.17,0,0,1-.89-.17,1.57,1.57,0,0,1-.61-.45,1.29,1.29,0,0,1-.28-.67A1.69,1.69,0,0,1,428.26,58Z"/><path d="M465.92,67.41a5.3,5.3,0,0,0-.73-.25,3.36,3.36,0,0,0-.58-.07,1.27,1.27,0,0,0-.87.31,1.06,1.06,0,0,0-.36.86.86.86,0,0,0,.12.4,2.36,2.36,0,0,0,.28.42,4.18,4.18,0,0,0,.41.45l-.19.16a7,7,0,0,1-1-.71,4.82,4.82,0,0,1-.69-.73,1.79,1.79,0,0,1-.4-.85,1.28,1.28,0,0,1,0-.55,1.49,1.49,0,0,1,.24-.49,1.25,1.25,0,0,1,.43-.35,1.9,1.9,0,0,1,.6-.17h.3l.35,0,.32.05.25,0a20,20,0,0,1-1.74-1.85c-.39-.49-.55-.81-.49-1s.19-.25.35-.44A6.09,6.09,0,0,0,463,62a6,6,0,0,0,.4-.85,2.35,2.35,0,0,0,.18-.88,1.76,1.76,0,0,0-.18-.68,7.18,7.18,0,0,0-.38-.79c-.17-.29-.36-.59-.56-.91l.22-.16,2.92,3.66a6.74,6.74,0,0,0-.69,1,5.9,5.9,0,0,0-.48.9,2.34,2.34,0,0,0-.21.92,2,2,0,0,0,.09.59,4,4,0,0,0,.21.52,3.7,3.7,0,0,0,.29.47c.11.14.2.27.29.37a1.31,1.31,0,0,0,.21.25l.27.31.23.28a.47.47,0,0,1,.11.16l0,.25Z"/><text class="cls-5" transform="translate(467.65 62.27)">.</text><text class="cls-5" transform="translate(434.63 119.62)">.</text><line class="cls-4" x1="433.23" y1="120.62" x2="433.23" y2="107.29"/><path d="M428.26,121.31a2.47,2.47,0,0,1,.49-.8,3.68,3.68,0,0,1,.76-.65,3.57,3.57,0,0,1,.93-.43,3.44,3.44,0,0,1,1-.16,2.21,2.21,0,0,1,.89.17,1.5,1.5,0,0,1,.61.45,1.4,1.4,0,0,1,.28.66,1.62,1.62,0,0,1-.1.8,2.66,2.66,0,0,1-.5.81,3.78,3.78,0,0,1-.77.66,3.57,3.57,0,0,1-.93.43,3.52,3.52,0,0,1-1,.15,2.18,2.18,0,0,1-.89-.16,1.7,1.7,0,0,1-.61-.46,1.22,1.22,0,0,1-.28-.67A1.64,1.64,0,0,1,428.26,121.31Z"/><path d="M465.92,120.76a4.23,4.23,0,0,0-.73-.25,3.36,3.36,0,0,0-.58-.07,1.27,1.27,0,0,0-.87.31,1.06,1.06,0,0,0-.36.86.86.86,0,0,0,.12.4,2.36,2.36,0,0,0,.28.42,4.18,4.18,0,0,0,.41.45L464,123a7,7,0,0,1-1-.71,5.35,5.35,0,0,1-.69-.73,1.79,1.79,0,0,1-.4-.85,1.27,1.27,0,0,1,0-.55,1.49,1.49,0,0,1,.24-.49,1.25,1.25,0,0,1,.43-.35,1.9,1.9,0,0,1,.6-.17h.3l.35,0,.32,0,.25,0a20,20,0,0,1-1.74-1.85c-.39-.5-.55-.82-.49-1s.19-.25.35-.44a6.09,6.09,0,0,0,.45-.7,6,6,0,0,0,.4-.85,2.35,2.35,0,0,0,.18-.88,1.76,1.76,0,0,0-.18-.68,7.18,7.18,0,0,0-.38-.79c-.17-.29-.36-.59-.56-.91l.22-.16,2.92,3.66a6.74,6.74,0,0,0-.69,1,5.9,5.9,0,0,0-.48.9,2.34,2.34,0,0,0-.21.92,2,2,0,0,0,.09.59,4,4,0,0,0,.21.52,3.7,3.7,0,0,0,.29.47c.11.14.2.27.29.37a1.31,1.31,0,0,0,.21.25l.27.31.23.28c.07.08.11.13.11.16l0,.25Z"/><text class="cls-5" transform="translate(467.65 115.62)">.</text><text class="cls-5" transform="translate(434.63 164.97)">.</text><line class="cls-4" x1="428.28" y1="165.3" x2="428.28" y2="178.64"/><path d="M428.26,164.65a2.7,2.7,0,0,1,.49-.8,3.93,3.93,0,0,1,1.69-1.08,3.43,3.43,0,0,1,1-.15,2.21,2.21,0,0,1,.89.17,1.5,1.5,0,0,1,.61.45,1.32,1.32,0,0,1,.28.65,1.68,1.68,0,0,1-.1.81,2.66,2.66,0,0,1-.5.81,3.78,3.78,0,0,1-.77.66,3.93,3.93,0,0,1-.93.43,3.52,3.52,0,0,1-1,.15,2.17,2.17,0,0,1-.89-.17,1.57,1.57,0,0,1-.61-.45,1.29,1.29,0,0,1-.28-.67A1.69,1.69,0,0,1,428.26,164.65Z"/><path d="M465.92,174.11a4.23,4.23,0,0,0-.73-.25,3.36,3.36,0,0,0-.58-.07,1.27,1.27,0,0,0-.87.31,1.06,1.06,0,0,0-.36.86.86.86,0,0,0,.12.4,2.36,2.36,0,0,0,.28.42,3.35,3.35,0,0,0,.41.44l-.19.16a6.22,6.22,0,0,1-1-.7,5.35,5.35,0,0,1-.69-.73,1.84,1.84,0,0,1-.4-.85,1.27,1.27,0,0,1,0-.55,1.49,1.49,0,0,1,.24-.49,1.25,1.25,0,0,1,.43-.35,1.9,1.9,0,0,1,.6-.17h.3l.35,0,.32,0,.25,0a21.42,21.42,0,0,1-1.74-1.85c-.39-.5-.55-.82-.49-1l.35-.45a5.17,5.17,0,0,0,.45-.69,6,6,0,0,0,.4-.85,2.35,2.35,0,0,0,.18-.88,1.76,1.76,0,0,0-.18-.68,7.18,7.18,0,0,0-.38-.79c-.17-.29-.36-.59-.56-.91l.22-.16,2.92,3.66a6.74,6.74,0,0,0-.69,1,5.9,5.9,0,0,0-.48.9,2.34,2.34,0,0,0-.21.92,2,2,0,0,0,.09.59,4,4,0,0,0,.21.52,3.7,3.7,0,0,0,.29.47c.11.14.2.27.29.37a1.31,1.31,0,0,0,.21.25l.27.31.23.28c.07.08.11.13.11.16l0,.25Z"/><text class="cls-5" transform="translate(467.65 168.97)">.</text><text class="cls-5" transform="translate(434.63 218.32)">.</text><line class="cls-4" x1="428.28" y1="218.65" x2="428.28" y2="231.99"/><path d="M428.26,218a2.7,2.7,0,0,1,.49-.8,3.93,3.93,0,0,1,1.69-1.08,3.43,3.43,0,0,1,1-.15,2.21,2.21,0,0,1,.89.17,1.5,1.5,0,0,1,.61.45,1.32,1.32,0,0,1,.28.65,1.68,1.68,0,0,1-.1.81,2.66,2.66,0,0,1-.5.81,3.78,3.78,0,0,1-.77.66,3.93,3.93,0,0,1-.93.43,3.52,3.52,0,0,1-1,.15,2.17,2.17,0,0,1-.89-.17,1.57,1.57,0,0,1-.61-.45,1.29,1.29,0,0,1-.28-.67A1.69,1.69,0,0,1,428.26,218Z"/><path d="M465.92,227.46a5.3,5.3,0,0,0-.73-.25,3.36,3.36,0,0,0-.58-.07,1.27,1.27,0,0,0-.87.31,1.06,1.06,0,0,0-.36.86.86.86,0,0,0,.12.4,2.36,2.36,0,0,0,.28.42,4.18,4.18,0,0,0,.41.45l-.19.16a7,7,0,0,1-1-.71,4.82,4.82,0,0,1-.69-.73,1.79,1.79,0,0,1-.4-.85,1.28,1.28,0,0,1,0-.55,1.49,1.49,0,0,1,.24-.49,1.25,1.25,0,0,1,.43-.35,1.9,1.9,0,0,1,.6-.17h.3l.35,0,.32,0,.25,0a20,20,0,0,1-1.74-1.85c-.39-.49-.55-.81-.49-1s.19-.25.35-.44a6.09,6.09,0,0,0,.45-.7,6,6,0,0,0,.4-.85,2.35,2.35,0,0,0,.18-.88,1.76,1.76,0,0,0-.18-.68,7.18,7.18,0,0,0-.38-.79c-.17-.29-.36-.59-.56-.91l.22-.16,2.92,3.66a6.74,6.74,0,0,0-.69,1,5.9,5.9,0,0,0-.48.9,2.34,2.34,0,0,0-.21.92,2,2,0,0,0,.09.59,4,4,0,0,0,.21.52,3.7,3.7,0,0,0,.29.47c.11.14.2.27.29.37a1.31,1.31,0,0,0,.21.25l.27.31.23.28a.47.47,0,0,1,.11.16l0,.25Z"/><text class="cls-5" transform="translate(467.65 222.32)">.</text><rect x="456.32" y="283.33" width="5.09" height="2.3"/><line class="cls-4" x1="455.81" y1="283.34" x2="461.98" y2="283.34"/><path d="M428.26,336.71a2.47,2.47,0,0,1,.49-.8,3.68,3.68,0,0,1,.76-.65,3.57,3.57,0,0,1,.93-.43,3.44,3.44,0,0,1,1-.16,2.21,2.21,0,0,1,.89.17,1.59,1.59,0,0,1,.61.45,1.4,1.4,0,0,1,.28.66,1.68,1.68,0,0,1-.1.81,2.74,2.74,0,0,1-.5.8,3.78,3.78,0,0,1-.77.66,3.57,3.57,0,0,1-.93.43,3.52,3.52,0,0,1-1,.15,2.18,2.18,0,0,1-.89-.16,1.7,1.7,0,0,1-.61-.46,1.22,1.22,0,0,1-.28-.66A1.68,1.68,0,0,1,428.26,336.71Z"/><line class="cls-4" x1="428.28" y1="337.36" x2="428.28" y2="351.7"/><text class="cls-5" transform="translate(429.63 331.36)">.</text><path d="M439.43,338.71a2.47,2.47,0,0,1,.49-.8,3.68,3.68,0,0,1,.76-.65,3.57,3.57,0,0,1,.93-.43,3.43,3.43,0,0,1,1-.15,2.21,2.21,0,0,1,.89.16,1.59,1.59,0,0,1,.61.45,1.4,1.4,0,0,1,.28.66,1.68,1.68,0,0,1-.1.81,2.74,2.74,0,0,1-.5.8,3.78,3.78,0,0,1-.77.66,3.57,3.57,0,0,1-.93.43,3.52,3.52,0,0,1-1,.15,2.18,2.18,0,0,1-.89-.16,1.7,1.7,0,0,1-.61-.46,1.22,1.22,0,0,1-.28-.66A1.69,1.69,0,0,1,439.43,338.71Z"/><line class="cls-4" x1="439.45" y1="339.36" x2="439.45" y2="352.7"/><text class="cls-5" transform="translate(440.8 335.36)">.</text><path d="M450.6,340.71a2.47,2.47,0,0,1,.49-.8,3.68,3.68,0,0,1,.76-.65,3.57,3.57,0,0,1,.93-.43,3.48,3.48,0,0,1,1-.15,2.21,2.21,0,0,1,.89.16,1.7,1.7,0,0,1,.61.45,1.4,1.4,0,0,1,.28.66,1.68,1.68,0,0,1-.1.81,2.7,2.7,0,0,1-.5.81,3.74,3.74,0,0,1-.77.65,3.57,3.57,0,0,1-.93.43,3.54,3.54,0,0,1-1,.16,2.17,2.17,0,0,1-.89-.17,1.59,1.59,0,0,1-.61-.46,1.3,1.3,0,0,1-.28-.66A1.82,1.82,0,0,1,450.6,340.71Z"/><line class="cls-4" x1="450.62" y1="341.36" x2="450.62" y2="353.7"/><text class="cls-5" transform="translate(451.97 335.36)">.</text><polyline points="428.13 350.69 450.77 352.7 450.77 354.7 428.13 352.7"/><path d="M461.94,344.71a2.4,2.4,0,0,1,.49-.8,3.43,3.43,0,0,1,.76-.65,3.69,3.69,0,0,1,.92-.43,3.53,3.53,0,0,1,1-.15,2.13,2.13,0,0,1,.9.17,1.58,1.58,0,0,1,.61.44,1.4,1.4,0,0,1,.28.66,1.69,1.69,0,0,1-.11.81,2.44,2.44,0,0,1-.49.81,3.69,3.69,0,0,1-.77.65,3.49,3.49,0,0,1-.94.43,3.17,3.17,0,0,1-1,.16,2.24,2.24,0,0,1-.89-.17,1.55,1.55,0,0,1-.6-.46,1.22,1.22,0,0,1-.28-.66A1.58,1.58,0,0,1,461.94,344.71Z"/><line class="cls-4" x1="466.91" y1="344.03" x2="466.91" y2="331.69"/><text class="cls-5" transform="translate(463.31 351.36)">.</text><path d="M473.11,346.71a2.58,2.58,0,0,1,.49-.8,3.68,3.68,0,0,1,.76-.65,3.76,3.76,0,0,1,.93-.43,3.41,3.41,0,0,1,1-.15,2.13,2.13,0,0,1,.9.17,1.58,1.58,0,0,1,.61.44,1.4,1.4,0,0,1,.28.66,1.58,1.58,0,0,1-.11.81,2.44,2.44,0,0,1-.49.81,3.69,3.69,0,0,1-.77.65,3.49,3.49,0,0,1-.94.43,3.17,3.17,0,0,1-1,.16,2.24,2.24,0,0,1-.89-.17,1.55,1.55,0,0,1-.6-.46,1.22,1.22,0,0,1-.28-.66A1.58,1.58,0,0,1,473.11,346.71Z"/><line class="cls-4" x1="478.08" y1="346.03" x2="478.08" y2="332.19"/><text class="cls-5" transform="translate(474.48 352.03)">.</text><path d="M484.28,348.71a2.58,2.58,0,0,1,.49-.8,4,4,0,0,1,.76-.65,3.6,3.6,0,0,1,.93-.43,3.41,3.41,0,0,1,1-.15,2.13,2.13,0,0,1,.9.17,1.58,1.58,0,0,1,.61.44,1.4,1.4,0,0,1,.28.66,1.58,1.58,0,0,1-.11.81,2.44,2.44,0,0,1-.49.81,3.69,3.69,0,0,1-.77.65,3.85,3.85,0,0,1-.94.44,3.46,3.46,0,0,1-1,.15,2.24,2.24,0,0,1-.89-.17,1.46,1.46,0,0,1-.6-.46,1.22,1.22,0,0,1-.28-.66A1.58,1.58,0,0,1,484.28,348.71Z"/><line class="cls-4" x1="489.25" y1="348.03" x2="489.25" y2="332.69"/><text class="cls-5" transform="translate(485.65 354.03)">.</text><polyline points="466.76 330.69 489.4 331.69 489.4 333.69 466.76 332.69"/><path d="M506.27,67.41a5.38,5.38,0,0,0-.74-.25,3.15,3.15,0,0,0-.57-.07,1.32,1.32,0,0,0-.88.31,1.06,1.06,0,0,0-.36.86.86.86,0,0,0,.12.4,3.07,3.07,0,0,0,.28.42,4.32,4.32,0,0,0,.42.45l-.19.16a7,7,0,0,1-1-.71,4.87,4.87,0,0,1-.7-.73,1.69,1.69,0,0,1-.39-.85,1.46,1.46,0,0,1,0-.55,1.49,1.49,0,0,1,.24-.49A1.39,1.39,0,0,1,503,66a1.76,1.76,0,0,1,.6-.17h.3l.34,0,.33.05.24,0a19.7,19.7,0,0,1-1.73-1.85c-.39-.49-.56-.81-.49-1l.34-.44a5,5,0,0,0,.46-.7,7.38,7.38,0,0,0,.4-.85,2.33,2.33,0,0,0,.17-.88,1.72,1.72,0,0,0-.17-.68c-.12-.27-.25-.54-.39-.79s-.35-.59-.56-.91l.23-.16L506,61.41a7.61,7.61,0,0,0-.69,1,5.9,5.9,0,0,0-.48.9,2.32,2.32,0,0,0-.2.92,2,2,0,0,0,.08.59,3,3,0,0,0,.22.52,2.83,2.83,0,0,0,.29.47,4.37,4.37,0,0,0,.29.37,1.66,1.66,0,0,0,.2.25,4.12,4.12,0,0,1,.28.31l.23.28a.38.38,0,0,1,.1.16l0,.25Z"/><path d="M526.65,60.53a1,1,0,0,1,.72,0,1.06,1.06,0,0,1,.44.45,1.64,1.64,0,0,1,.18.63,1.34,1.34,0,0,1,0,.58,2.88,2.88,0,0,0,.46-.09,1.16,1.16,0,0,0,.43-.29c.14-.14.26-.27.35-.38s.2-.26.32-.4l.23.12L528,67.91h-.64c.11-.35.22-.7.34-1L528,66c.09-.31.18-.55.25-.73.17-.47.31-.89.43-1.26s.2-.68.26-.93.13-.56.18-.79l-.4.28c-.16.11-.34.22-.53.33a4.53,4.53,0,0,1-.59.28,1.93,1.93,0,0,1-.6.14,1.27,1.27,0,0,1-1-.34,1.49,1.49,0,0,1-.44-.86,1.54,1.54,0,0,1,.21-1A1.4,1.4,0,0,1,526.65,60.53Z"/><text class="cls-5" transform="translate(537 71.94)">J</text><line class="cls-4" x1="537.15" y1="62.61" x2="537.15" y2="75.94"/><path d="M537.13,62a2.7,2.7,0,0,1,.49-.8,3.63,3.63,0,0,1,.76-.64,3.78,3.78,0,0,1,.93-.44,3.41,3.41,0,0,1,1-.15,2.29,2.29,0,0,1,.9.17,1.5,1.5,0,0,1,.61.45,1.36,1.36,0,0,1,.28.65A1.56,1.56,0,0,1,542,62a2.44,2.44,0,0,1-.49.81,4.07,4.07,0,0,1-.77.66,3.82,3.82,0,0,1-.94.43,3.46,3.46,0,0,1-1,.15,2.08,2.08,0,0,1-.89-.17,1.53,1.53,0,0,1-.6-.45,1.26,1.26,0,0,1-.28-.67A1.58,1.58,0,0,1,537.13,62Z"/><text class="cls-9" transform="translate(535.12 87.95)">A</text><text class="cls-9" transform="translate(540.38 87.95)">y</text><path d="M506.27,120.76a4.3,4.3,0,0,0-.74-.25,3.15,3.15,0,0,0-.57-.07,1.32,1.32,0,0,0-.88.31,1.06,1.06,0,0,0-.36.86.86.86,0,0,0,.12.4,3.07,3.07,0,0,0,.28.42,4.32,4.32,0,0,0,.42.45l-.19.16a7,7,0,0,1-1-.71,5.41,5.41,0,0,1-.7-.73,1.69,1.69,0,0,1-.39-.85,1.45,1.45,0,0,1,0-.55,1.49,1.49,0,0,1,.24-.49,1.39,1.39,0,0,1,.44-.35,1.76,1.76,0,0,1,.6-.17h.3l.34,0,.33,0,.24,0a19.7,19.7,0,0,1-1.73-1.85c-.39-.5-.56-.82-.49-1l.34-.44a5,5,0,0,0,.46-.7,7.38,7.38,0,0,0,.4-.85,2.33,2.33,0,0,0,.17-.88,1.72,1.72,0,0,0-.17-.68c-.12-.27-.25-.54-.39-.79s-.35-.59-.56-.91l.23-.16,2.91,3.66a7.61,7.61,0,0,0-.69,1,5.9,5.9,0,0,0-.48.9,2.32,2.32,0,0,0-.2.92,2,2,0,0,0,.08.59,3,3,0,0,0,.22.52,2.83,2.83,0,0,0,.29.47,4.37,4.37,0,0,0,.29.37,1.66,1.66,0,0,0,.2.25,4.12,4.12,0,0,1,.28.31l.23.28c.07.08.1.13.1.16l0,.25Z"/><path d="M526.65,113.88a1,1,0,0,1,.72.05,1.06,1.06,0,0,1,.44.45,1.64,1.64,0,0,1,.18.63,1.34,1.34,0,0,1,0,.58,2.88,2.88,0,0,0,.46-.09,1.16,1.16,0,0,0,.43-.29,3.82,3.82,0,0,0,.35-.39l.32-.4.23.13L528,121.26h-.64c.11-.35.22-.7.34-1l.29-.87c.09-.31.18-.55.25-.73.17-.47.31-.89.43-1.26s.2-.68.26-.93.13-.56.18-.79l-.4.28c-.16.11-.34.22-.53.33a4.53,4.53,0,0,1-.59.28,2.26,2.26,0,0,1-.6.14,1.3,1.3,0,0,1-1-.34,1.49,1.49,0,0,1-.44-.86,1.54,1.54,0,0,1,.21-1A1.4,1.4,0,0,1,526.65,113.88Z"/><text class="cls-5" transform="translate(537 125.29)">J</text><line class="cls-4" x1="537.15" y1="115.96" x2="537.15" y2="129.29"/><path d="M537.13,115.31a2.47,2.47,0,0,1,.49-.8,3.4,3.4,0,0,1,.76-.65,3.78,3.78,0,0,1,.93-.44,3.41,3.41,0,0,1,1-.15,2.29,2.29,0,0,1,.9.17,1.5,1.5,0,0,1,.61.45,1.36,1.36,0,0,1,.28.66,1.53,1.53,0,0,1-.11.8,2.44,2.44,0,0,1-.49.81,4.07,4.07,0,0,1-.77.66,3.82,3.82,0,0,1-.94.43,3.46,3.46,0,0,1-1,.15,2.08,2.08,0,0,1-.89-.17,1.53,1.53,0,0,1-.6-.45,1.26,1.26,0,0,1-.28-.67A1.53,1.53,0,0,1,537.13,115.31Z"/><text class="cls-9" transform="translate(535.12 141.3)">A</text><text class="cls-9" transform="translate(540.38 141.3)">y</text><path d="M506.27,174.11a4.3,4.3,0,0,0-.74-.25,3.15,3.15,0,0,0-.57-.07,1.32,1.32,0,0,0-.88.31,1.06,1.06,0,0,0-.36.86.86.86,0,0,0,.12.4,3.07,3.07,0,0,0,.28.42,3.45,3.45,0,0,0,.42.44l-.19.16a6.22,6.22,0,0,1-1-.7,5.41,5.41,0,0,1-.7-.73,1.72,1.72,0,0,1-.39-.85,1.45,1.45,0,0,1,0-.55,1.49,1.49,0,0,1,.24-.49,1.39,1.39,0,0,1,.44-.35,1.76,1.76,0,0,1,.6-.17h.3l.34,0,.33,0,.24,0a21,21,0,0,1-1.73-1.85c-.39-.5-.56-.82-.49-1l.34-.45a4.35,4.35,0,0,0,.46-.69,7.38,7.38,0,0,0,.4-.85A2.33,2.33,0,0,0,504,167a1.72,1.72,0,0,0-.17-.68c-.12-.27-.25-.54-.39-.79s-.35-.59-.56-.91l.23-.16,2.91,3.66a7.61,7.61,0,0,0-.69,1,5.9,5.9,0,0,0-.48.9,2.32,2.32,0,0,0-.2.92,2,2,0,0,0,.08.59,3,3,0,0,0,.22.52,2.83,2.83,0,0,0,.29.47,4.37,4.37,0,0,0,.29.37,1.66,1.66,0,0,0,.2.25,4.12,4.12,0,0,1,.28.31l.23.28c.07.08.1.13.1.16l0,.25Z"/><path d="M526.65,167.23a1,1,0,0,1,.72.05,1.06,1.06,0,0,1,.44.45,1.64,1.64,0,0,1,.18.63,1.34,1.34,0,0,1,0,.58,2.88,2.88,0,0,0,.46-.09,1.16,1.16,0,0,0,.43-.29,3.82,3.82,0,0,0,.35-.39l.32-.4.23.13L528,174.61h-.64c.11-.35.22-.7.34-1l.29-.87c.09-.31.18-.55.25-.73.17-.47.31-.89.43-1.26s.2-.68.26-.93l.18-.79-.4.28c-.16.11-.34.22-.53.33a4.53,4.53,0,0,1-.59.28,2.26,2.26,0,0,1-.6.14,1.3,1.3,0,0,1-1-.34,1.49,1.49,0,0,1-.44-.86,1.54,1.54,0,0,1,.21-1A1.4,1.4,0,0,1,526.65,167.23Z"/><text class="cls-5" transform="translate(537 178.64)">J</text><line class="cls-4" x1="537.15" y1="169.31" x2="537.15" y2="182.64"/><path d="M537.13,168.66a2.62,2.62,0,0,1,.49-.81,3.63,3.63,0,0,1,.76-.64,3.78,3.78,0,0,1,.93-.44,3.41,3.41,0,0,1,1-.15,2.29,2.29,0,0,1,.9.17,1.5,1.5,0,0,1,.61.45,1.36,1.36,0,0,1,.28.65,1.56,1.56,0,0,1-.11.81,2.44,2.44,0,0,1-.49.81,4.07,4.07,0,0,1-.77.66,3.82,3.82,0,0,1-.94.43,3.46,3.46,0,0,1-1,.15,2.08,2.08,0,0,1-.89-.17,1.53,1.53,0,0,1-.6-.45,1.26,1.26,0,0,1-.28-.67A1.53,1.53,0,0,1,537.13,168.66Z"/><path d="M549.82,167.23a1,1,0,0,1,.72.05,1,1,0,0,1,.44.45,1.65,1.65,0,0,1,.19.63,1.5,1.5,0,0,1,0,.58,2.88,2.88,0,0,0,.46-.09,1.19,1.19,0,0,0,.44-.29c.13-.14.25-.27.34-.39l.33-.4.22.13-1.77,6.71h-.64c.1-.35.21-.7.33-1s.19-.57.29-.87.18-.55.26-.73q.25-.71.42-1.26c.11-.37.2-.68.26-.93s.14-.57.18-.79l-.39.28-.54.33a4.53,4.53,0,0,1-.59.28,2.19,2.19,0,0,1-.59.14,1.29,1.29,0,0,1-1-.34,1.43,1.43,0,0,1-.44-.86,1.4,1.4,0,0,1,1.13-1.59Z"/><path d="M561.49,167.23a1,1,0,0,1,.72.05,1,1,0,0,1,.44.45,1.65,1.65,0,0,1,.14,1.21,2.68,2.68,0,0,0,.46-.09,1.19,1.19,0,0,0,.44-.29c.13-.14.25-.27.34-.39l.33-.4.22.13-1.77,6.71h-.64c.1-.35.21-.7.33-1s.19-.57.29-.87.18-.55.26-.73q.26-.71.42-1.26c.11-.37.2-.68.26-.93s.14-.57.18-.79l-.39.28-.54.33a4.53,4.53,0,0,1-.59.28,2.19,2.19,0,0,1-.59.14,1.29,1.29,0,0,1-1-.34,1.43,1.43,0,0,1-.44-.86,1.42,1.42,0,0,1,1.13-1.59Z"/><text class="cls-9" transform="translate(535.12 194.65)">A</text><text class="cls-9" transform="translate(540.38 194.65)">y</text><path d="M506.27,227.46a5.38,5.38,0,0,0-.74-.25,3.15,3.15,0,0,0-.57-.07,1.32,1.32,0,0,0-.88.31,1.06,1.06,0,0,0-.36.86.86.86,0,0,0,.12.4,3.07,3.07,0,0,0,.28.42,4.32,4.32,0,0,0,.42.45l-.19.16a7,7,0,0,1-1-.71,4.87,4.87,0,0,1-.7-.73,1.69,1.69,0,0,1-.39-.85,1.46,1.46,0,0,1,0-.55,1.49,1.49,0,0,1,.24-.49,1.39,1.39,0,0,1,.44-.35,1.76,1.76,0,0,1,.6-.17h.3l.34,0,.33,0,.24,0a19.7,19.7,0,0,1-1.73-1.85c-.39-.49-.56-.81-.49-1l.34-.44a5,5,0,0,0,.46-.7,7.38,7.38,0,0,0,.4-.85,2.33,2.33,0,0,0,.17-.88,1.72,1.72,0,0,0-.17-.68c-.12-.27-.25-.54-.39-.79s-.35-.59-.56-.91l.23-.16,2.91,3.66a7.61,7.61,0,0,0-.69,1,5.9,5.9,0,0,0-.48.9,2.32,2.32,0,0,0-.2.92,2,2,0,0,0,.08.59,3,3,0,0,0,.22.52,2.83,2.83,0,0,0,.29.47,4.37,4.37,0,0,0,.29.37,1.66,1.66,0,0,0,.2.25c.1.1.19.21.28.31l.23.28a.38.38,0,0,1,.1.16l0,.25Z"/><path d="M526.65,220.58a1,1,0,0,1,.72,0,1.06,1.06,0,0,1,.44.45,1.64,1.64,0,0,1,.18.63,1.34,1.34,0,0,1,0,.58,2.88,2.88,0,0,0,.46-.09,1.16,1.16,0,0,0,.43-.29c.14-.14.26-.27.35-.38l.32-.41.23.13L528,228h-.64c.11-.35.22-.7.34-1l.29-.87c.09-.31.18-.55.25-.73.17-.47.31-.89.43-1.26s.2-.68.26-.93.13-.56.18-.79l-.4.28c-.16.11-.34.22-.53.33a4.53,4.53,0,0,1-.59.28,1.93,1.93,0,0,1-.6.14,1.27,1.27,0,0,1-1-.34,1.49,1.49,0,0,1-.44-.86,1.54,1.54,0,0,1,.21-1A1.4,1.4,0,0,1,526.65,220.58Z"/><text class="cls-5" transform="translate(537 221.99)">J</text><line class="cls-4" x1="537.15" y1="212.65" x2="537.15" y2="225.99"/><line class="cls-4" x1="536" y1="211.99" x2="543.17" y2="211.99"/><path d="M537.13,212a2.58,2.58,0,0,1,.49-.8,4,4,0,0,1,.76-.65,3.76,3.76,0,0,1,.93-.43,3.41,3.41,0,0,1,1-.15,2.29,2.29,0,0,1,.9.17,1.5,1.5,0,0,1,.61.45,1.32,1.32,0,0,1,.28.65,1.58,1.58,0,0,1-.11.81,2.44,2.44,0,0,1-.49.81,3.69,3.69,0,0,1-.77.65,3.52,3.52,0,0,1-.94.44,3.46,3.46,0,0,1-1,.15,2.24,2.24,0,0,1-.89-.17,1.46,1.46,0,0,1-.6-.46,1.22,1.22,0,0,1-.28-.66A1.58,1.58,0,0,1,537.13,212Z"/><text class="cls-9" transform="translate(535.12 248)">A</text><text class="cls-9" transform="translate(540.38 248)">y</text><rect x="531.18" y="283.33" width="5.09" height="2.3"/><line class="cls-4" x1="530.67" y1="283.34" x2="536.83" y2="283.34"/><text class="cls-5" transform="translate(507.26 344.69)">j</text><line class="cls-4" x1="507.26" y1="370.04" x2="507.26" y2="340.69"/><line class="cls-4" x1="501.16" y1="356.7" x2="508.33" y2="356.7"/><line class="cls-4" x1="501.16" y1="352.7" x2="508.33" y2="352.7"/><path d="M502.28,356.71a2.7,2.7,0,0,1,.49-.8,3.93,3.93,0,0,1,1.69-1.08,3.48,3.48,0,0,1,1-.15,2.29,2.29,0,0,1,.9.17,1.53,1.53,0,0,1,.6.45,1.24,1.24,0,0,1,.28.65,1.56,1.56,0,0,1-.1.81,2.47,2.47,0,0,1-.5.81,4,4,0,0,1-.76.66,3.82,3.82,0,0,1-.94.43,3.52,3.52,0,0,1-1,.15,2.21,2.21,0,0,1-.89-.17,1.65,1.65,0,0,1-.61-.45,1.38,1.38,0,0,1-.28-.67A1.82,1.82,0,0,1,502.28,356.71Z"/><line class="cls-4" x1="501.16" y1="368.7" x2="508.33" y2="368.7"/><line class="cls-4" x1="501.16" y1="364.7" x2="508.33" y2="364.7"/><line class="cls-4" x1="501.16" y1="360.7" x2="508.33" y2="360.7"/><line class="cls-4" x1="501.16" y1="356.7" x2="508.33" y2="356.7"/><line class="cls-4" x1="501.16" y1="352.7" x2="508.33" y2="352.7"/><path d="M502.28,370.72a2.47,2.47,0,0,1,.49-.8,3.68,3.68,0,0,1,.76-.65,3.57,3.57,0,0,1,.93-.43,3.48,3.48,0,0,1,1-.15,2.29,2.29,0,0,1,.9.16,1.64,1.64,0,0,1,.6.45,1.3,1.3,0,0,1,.28.66,1.56,1.56,0,0,1-.1.81,2.54,2.54,0,0,1-.5.8,4,4,0,0,1-.76.66,3.66,3.66,0,0,1-1.94.58,2.21,2.21,0,0,1-.89-.16,1.79,1.79,0,0,1-.61-.46,1.3,1.3,0,0,1-.28-.66A1.82,1.82,0,0,1,502.28,370.72Z"/><text class="cls-5" transform="translate(503.66 376.04)">.</text><path d="M515,337.28a1,1,0,0,1,.72.05,1.12,1.12,0,0,1,.44.45,1.64,1.64,0,0,1,.18.63,1.57,1.57,0,0,1,0,.59,2.85,2.85,0,0,0,.46-.1,1.05,1.05,0,0,0,.43-.29c.14-.14.25-.26.35-.38l.32-.4.23.13-1.78,6.7h-.64c.11-.35.22-.7.34-1l.29-.87c.09-.3.18-.55.25-.73.17-.47.31-.89.43-1.26s.2-.68.26-.93.13-.56.18-.79l-.4.28a4,4,0,0,1-.53.33,4.53,4.53,0,0,1-.59.28,2,2,0,0,1-.6.14,1.27,1.27,0,0,1-1-.34,1.41,1.41,0,0,1-.44-.85,1.51,1.51,0,0,1,.21-1A1.38,1.38,0,0,1,515,337.28Z"/><path d="M526.65,337.28a1,1,0,0,1,.72.05,1.12,1.12,0,0,1,.44.45,1.64,1.64,0,0,1,.18.63,1.39,1.39,0,0,1,0,.59,2.85,2.85,0,0,0,.46-.1,1.05,1.05,0,0,0,.43-.29,3.82,3.82,0,0,0,.35-.38l.32-.4.23.13-1.78,6.7h-.64c.11-.35.22-.7.34-1l.29-.87c.09-.3.18-.55.25-.73.17-.47.31-.89.43-1.26s.2-.68.26-.93.13-.56.18-.79l-.4.28a4,4,0,0,1-.53.33,4.53,4.53,0,0,1-.59.28,1.93,1.93,0,0,1-.6.14,1.27,1.27,0,0,1-1-.34,1.46,1.46,0,0,1-.44-.85,1.51,1.51,0,0,1,.21-1A1.38,1.38,0,0,1,526.65,337.28Z"/><path d="M541.11,344.17a4.23,4.23,0,0,0-.73-.25,2.6,2.6,0,0,0-.58-.07,1.31,1.31,0,0,0-.87.3,1.06,1.06,0,0,0-.36.86.86.86,0,0,0,.12.4,2.36,2.36,0,0,0,.28.42,4.32,4.32,0,0,0,.42.45l-.2.16a7,7,0,0,1-1-.71,5.93,5.93,0,0,1-.69-.72,1.87,1.87,0,0,1-.4-.86,1.24,1.24,0,0,1,0-.54,1.32,1.32,0,0,1,.24-.49,1.15,1.15,0,0,1,.43-.35,1.49,1.49,0,0,1,.6-.17h.31a2,2,0,0,1,.34,0l.32.05.25,0a21.29,21.29,0,0,1-1.74-1.86c-.39-.49-.55-.81-.49-1l.35-.44a6.09,6.09,0,0,0,.45-.7,5.54,5.54,0,0,0,.4-.85,2.31,2.31,0,0,0,.18-.88,1.81,1.81,0,0,0-.18-.68,8.17,8.17,0,0,0-.38-.79c-.17-.29-.36-.59-.56-.91l.22-.16,2.92,3.66a6.74,6.74,0,0,0-.69,1,6.42,6.42,0,0,0-.48.9,2.38,2.38,0,0,0-.21.92,1.92,1.92,0,0,0,.09.59,4.18,4.18,0,0,0,.21.53,3.58,3.58,0,0,0,.29.46l.29.38a2.5,2.5,0,0,0,.21.25l.27.3.23.28a.47.47,0,0,1,.11.16l0,.26Z"/><text class="cls-5" transform="translate(542.84 339.03)">.</text><path d="M294.09,54.77c12.17-6.67,48.85-6.67,61,0l-.08.15c-12.09-5.82-48.77-5.82-60.86,0l-.08-.15"/><path d="M294.09,124.29c12.17,6.67,48.85,6.67,61,0l-.08-.14c-12.09,5.81-48.77,5.81-60.86,0l-.08.14"/><path d="M294.09,161.47c12.17-6.67,48.85-6.67,61,0l-.08.15c-12.09-5.82-48.77-5.82-60.86,0l-.08-.15"/><path d="M294.09,214.82c12.17-6.67,48.85-6.67,61,0L355,215c-12.09-5.82-48.77-5.82-60.86,0l-.08-.15"/><path d="M357.78,54.77c14.34-7.17,57.35-7.17,71.69,0l-.08.15c-14.26-6.32-57.27-6.32-71.54,0l-.07-.15"/><path d="M357.78,124.29c14.34,7.17,57.35,7.17,71.69,0l-.08-.15c-14.26,6.32-57.27,6.32-71.54,0l-.07.15"/><path d="M357.78,161.47c14.34-7.17,57.35-7.17,71.69,0l-.08.15c-14.26-6.32-57.27-6.32-71.54,0l-.07-.15"/><path d="M357.78,214.82c14.34-7.17,57.35-7.17,71.69,0l-.08.15c-14.26-6.32-57.27-6.32-71.54,0l-.07-.15"/><text class="cls-9" transform="translate(134.17 87.95)">-</text><text class="cls-9" transform="translate(168.34 87.95)">-</text><text class="cls-9" transform="translate(209.61 87.95)">-</text><text class="cls-9" transform="translate(263.87 87.95)">-</text><line class="cls-4" x1="304.26" y1="87.78" x2="436.47" y2="87.78"/><text class="cls-9" transform="translate(281.96 87.95)">-</text><text class="cls-9" transform="translate(134.17 141.3)">-</text><text class="cls-9" transform="translate(168.34 141.3)">-</text><text class="cls-9" transform="translate(209.61 141.3)">-</text><text class="cls-9" transform="translate(263.87 141.3)">-</text><line class="cls-4" x1="304.26" y1="141.13" x2="436.47" y2="141.13"/><text class="cls-9" transform="translate(281.96 141.3)">-</text><text class="cls-9" transform="translate(134.17 194.65)">-</text><text class="cls-9" transform="translate(168.34 194.65)">-</text><text class="cls-9" transform="translate(209.61 194.65)">-</text><text class="cls-9" transform="translate(263.87 194.65)">-</text><line class="cls-4" x1="304.26" y1="194.48" x2="436.47" y2="194.48"/><text class="cls-9" transform="translate(281.96 194.65)">-</text><text class="cls-9" transform="translate(134.17 248)">-</text><text class="cls-9" transform="translate(168.34 248)">-</text><text class="cls-9" transform="translate(209.61 248)">-</text><text class="cls-9" transform="translate(263.87 248)">-</text><line class="cls-4" x1="304.26" y1="247.83" x2="436.47" y2="247.83"/><text class="cls-9" transform="translate(281.96 248)">-</text><text class="cls-11" transform="translate(72 36.5)">8</text><text class="cls-12" transform="translate(286 36.5)">E</text><text class="cls-12" transform="translate(293.5 36.5)">l</text><text class="cls-12" transform="translate(299.5 36.5)">B</text><text class="cls-12" transform="translate(307.75 36.5)">u</text><text class="cls-12" transform="translate(313.75 36.5)">r</text><text class="cls-12" transform="translate(317.5 36.5)">r</text><text class="cls-12" transform="translate(321.25 36.5)">o</text><text class="cls-12" transform="translate(327.25 36.5)">&apos;</text><text class="cls-12" transform="translate(329.5 36.5)">e</text><text class="cls-12" transform="translate(337.75 36.5)">C</text><text class="cls-12" transform="translate(346 36.5)">h</text><text class="cls-12" transform="translate(352 36.5)">i</text><text class="cls-12" transform="translate(355 36.5)">l</text><text class="cls-12" transform="translate(358 36.5)">o</text></g></svg>