<svg id="Layer_1" data-name="Layer 1" xmlns="http://www.w3.org/2000/svg" xmlns:xlink="http://www.w3.org/1999/xlink" viewBox="0 0 612 792"><defs><style>.cls-1,.cls-4{fill:none;}.cls-2{clip-path:url(#clip-path);}.cls-3{fill:#fff;}.cls-4{stroke:#000;stroke-miterlimit:10;stroke-width:0.38px;}.cls-5{font-size:20.5px;font-family:Maestro;}.cls-6{font-size:11.96px;}.cls-10,.cls-11,.cls-6,.cls-9{font-family:TimesNewRomanPSMT, Times New Roman;}.cls-7{font-size:10.25px;font-family:EngraverTextT;}.cls-8{font-size:8.54px;font-family:TimesNewRomanPS-ItalicMT, Times New Roman;font-style:italic;}.cls-9{font-size:24px;}.cls-10{font-size:12px;}.cls-11{font-size:10px;}</style><clipPath id="clip-path"><rect class="cls-1" width="612" height="792"/></clipPath></defs><title>Luna_1</title><g class="cls-2"><rect class="cls-3" width="612" height="792"/><line class="cls-4" x1="108.24" y1="126.6" x2="108.24" y2="331.6"/><text class="cls-5" transform="translate(113.6 141.98)">&amp;</text><text class="cls-5" transform="translate(113.6 203.48)">&amp;</text><text class="cls-5" transform="translate(113.6 264.98)">V</text><text class="cls-5" transform="translate(113.6 316.23)">?</text><text class="cls-5" transform="translate(133.68 126.6)">#</text><text class="cls-5" transform="translate(133.68 188.1)">#</text><text class="cls-5" transform="translate(133.68 249.6)">#</text><text class="cls-5" transform="translate(133.68 316.23)">#</text><text class="cls-5" transform="translate(146.7 136.85)">c</text><text class="cls-5" transform="translate(146.7 198.35)">c</text><text class="cls-5" transform="translate(146.7 259.85)">c</text><text class="cls-5" transform="translate(146.7 321.35)">c</text><line class="cls-4" x1="222.7" y1="126.6" x2="222.7" y2="147.1"/><line class="cls-4" x1="222.7" y1="188.1" x2="222.7" y2="208.6"/><line class="cls-4" x1="222.7" y1="249.6" x2="222.7" y2="270.1"/><line class="cls-4" x1="222.7" y1="311.1" x2="222.7" y2="331.6"/><line class="cls-4" x1="297.87" y1="126.6" x2="297.87" y2="147.1"/><line class="cls-4" x1="297.87" y1="188.1" x2="297.87" y2="208.6"/><line class="cls-4" x1="297.87" y1="249.6" x2="297.87" y2="270.1"/><line class="cls-4" x1="297.87" y1="311.1" x2="297.87" y2="331.6"/><line class="cls-4" x1="401.22" y1="126.6" x2="401.22" y2="147.1"/><line class="cls-4" x1="401.22" y1="188.1" x2="401.22" y2="208.6"/><line class="cls-4" x1="401.22" y1="249.6" x2="401.22" y2="270.1"/><line class="cls-4" x1="401.22" y1="311.1" x2="401.22" y2="331.6"/><line class="cls-4" x1="476.39" y1="126.6" x2="476.39" y2="147.1"/><line class="cls-4" x1="476.39" y1="188.1" x2="476.39" y2="208.6"/><line class="cls-4" x1="476.39" y1="249.6" x2="476.39" y2="270.1"/><line class="cls-4" x1="476.39" y1="311.1" x2="476.39" y2="331.6"/><line class="cls-4" x1="575.73" y1="126.6" x2="575.73" y2="147.1"/><line class="cls-4" x1="575.73" y1="188.1" x2="575.73" y2="208.6"/><line class="cls-4" x1="575.73" y1="249.6" x2="575.73" y2="270.1"/><line class="cls-4" x1="575.73" y1="311.1" x2="575.73" y2="331.6"/><line class="cls-4" x1="108.05" y1="126.6" x2="575.92" y2="126.6"/><line class="cls-4" x1="108.05" y1="131.73" x2="575.92" y2="131.73"/><line class="cls-4" x1="108.05" y1="136.85" x2="575.92" y2="136.85"/><line class="cls-4" x1="108.05" y1="141.98" x2="575.92" y2="141.98"/><line class="cls-4" x1="108.05" y1="147.1" x2="575.92" y2="147.1"/><text class="cls-6" transform="translate(52.96 140.7)">S</text><text class="cls-6" transform="translate(59.71 140.7)">o</text><text class="cls-6" transform="translate(65.71 140.7)">p</text><text class="cls-6" transform="translate(71.71 140.7)">r</text><text class="cls-6" transform="translate(75.46 140.7)">a</text><text class="cls-6" transform="translate(80.7 140.7)">n</text><text class="cls-6" transform="translate(86.7 140.7)">o</text><line class="cls-4" x1="108.05" y1="188.1" x2="575.92" y2="188.1"/><line class="cls-4" x1="108.05" y1="193.23" x2="575.92" y2="193.23"/><line class="cls-4" x1="108.05" y1="198.35" x2="575.92" y2="198.35"/><line class="cls-4" x1="108.05" y1="203.48" x2="575.92" y2="203.48"/><line class="cls-4" x1="108.05" y1="208.6" x2="575.92" y2="208.6"/><text class="cls-6" transform="translate(71.75 202.2)">A</text><text class="cls-6" transform="translate(80.75 202.2)">l</text><text class="cls-6" transform="translate(83.75 202.2)">t</text><text class="cls-6" transform="translate(86.75 202.2)">o</text><line class="cls-4" x1="108.05" y1="249.6" x2="575.92" y2="249.6"/><line class="cls-4" x1="108.05" y1="254.73" x2="575.92" y2="254.73"/><line class="cls-4" x1="108.05" y1="259.85" x2="575.92" y2="259.85"/><line class="cls-4" x1="108.05" y1="264.98" x2="575.92" y2="264.98"/><line class="cls-4" x1="108.05" y1="270.1" x2="575.92" y2="270.1"/><text class="cls-6" transform="translate(64.92 263.7)">T</text><text class="cls-6" transform="translate(71.67 263.7)">e</text><text class="cls-6" transform="translate(76.91 263.7)">n</text><text class="cls-6" transform="translate(82.91 263.7)">o</text><text class="cls-6" transform="translate(88.91 263.7)">r</text><line class="cls-4" x1="108.05" y1="311.1" x2="575.92" y2="311.1"/><line class="cls-4" x1="108.05" y1="316.23" x2="575.92" y2="316.23"/><line class="cls-4" x1="108.05" y1="321.35" x2="575.92" y2="321.35"/><line class="cls-4" x1="108.05" y1="326.48" x2="575.92" y2="326.48"/><line class="cls-4" x1="108.05" y1="331.6" x2="575.92" y2="331.6"/><text class="cls-6" transform="translate(70.25 325.2)">B</text><text class="cls-6" transform="translate(78.5 325.2)">a</text><text class="cls-6" transform="translate(83.75 325.2)">s</text><text class="cls-6" transform="translate(88.25 325.2)">s</text><path d="M104.85,124c6.4,0,7.69-.85,9.39-2.56-1.06,3-3.63,3.84-7.47,3.84V332.89c3.84,0,6.41.85,7.47,3.84-1.7-1.71-3-2.56-9.39-2.56"/><path d="M165.23,136.88a3.25,3.25,0,0,1,.63-1,4.88,4.88,0,0,1,1-.83,4.76,4.76,0,0,1,1.19-.55,4.34,4.34,0,0,1,1.29-.2,2.74,2.74,0,0,1,1.15.22,1.93,1.93,0,0,1,.78.57,1.77,1.77,0,0,1,.36.84,2.16,2.16,0,0,1-.14,1,3.18,3.18,0,0,1-.63,1,5,5,0,0,1-1,.84,4.55,4.55,0,0,1-1.2.56,4.36,4.36,0,0,1-1.28.19,2.81,2.81,0,0,1-1.13-.21,2,2,0,0,1-.78-.59,1.62,1.62,0,0,1-.36-.85A2.11,2.11,0,0,1,165.23,136.88Z"/><line class="cls-4" x1="165.26" y1="137.71" x2="165.26" y2="153.51"/><path d="M179.11,134.31a3.21,3.21,0,0,1,.63-1,4.58,4.58,0,0,1,1-.83,4.79,4.79,0,0,1,1.19-.56,4.33,4.33,0,0,1,1.29-.19,2.91,2.91,0,0,1,1.15.21,2,2,0,0,1,.78.58,1.77,1.77,0,0,1,.36.84,2.11,2.11,0,0,1-.14,1,3.06,3.06,0,0,1-.63,1,5,5,0,0,1-1,.84,4.77,4.77,0,0,1-2.48.75,2.65,2.65,0,0,1-1.13-.22,2,2,0,0,1-.78-.58,1.66,1.66,0,0,1-.36-.85A2.16,2.16,0,0,1,179.11,134.31Z"/><line class="cls-4" x1="179.14" y1="135.15" x2="179.14" y2="152.69"/><path d="M193,131.75a3.37,3.37,0,0,1,.63-1,4.88,4.88,0,0,1,1-.83,5.15,5.15,0,0,1,1.19-.55,4.33,4.33,0,0,1,1.29-.19,2.91,2.91,0,0,1,1.15.21,2,2,0,0,1,.78.58,1.73,1.73,0,0,1,.36.84,2.12,2.12,0,0,1-.14,1,3.06,3.06,0,0,1-.63,1,5,5,0,0,1-1,.84,4.7,4.7,0,0,1-2.48.75,2.81,2.81,0,0,1-1.13-.22,2,2,0,0,1-.78-.58,1.66,1.66,0,0,1-.36-.85A2.28,2.28,0,0,1,193,131.75Z"/><line class="cls-4" x1="193.02" y1="132.58" x2="193.02" y2="151.88"/><path d="M208.79,131.75a3.37,3.37,0,0,1,.63-1,4.88,4.88,0,0,1,1-.83,5.15,5.15,0,0,1,1.19-.55,4.43,4.43,0,0,1,1.29-.19,2.91,2.91,0,0,1,1.15.21,2,2,0,0,1,.78.58,1.73,1.73,0,0,1,.36.84,2.11,2.11,0,0,1-.13,1,3.26,3.26,0,0,1-.64,1,4.94,4.94,0,0,1-1,.84,4.67,4.67,0,0,1-1.2.55,4.43,4.43,0,0,1-1.28.2,2.83,2.83,0,0,1-1.14-.22,2.1,2.1,0,0,1-.78-.58,1.66,1.66,0,0,1-.36-.85A2.28,2.28,0,0,1,208.79,131.75Z"/><text class="cls-5" transform="translate(202.44 131.73)">#</text><line class="cls-4" x1="208.82" y1="132.58" x2="208.82" y2="150.95"/><polyline points="165.07 152.23 209.01 149.67 209.01 152.23 165.07 154.79"/><text class="cls-5" transform="translate(186.85 198.35)">”</text><line class="cls-4" x1="186.21" y1="198.35" x2="194.32" y2="198.35"/><text class="cls-5" transform="translate(186.85 259.85)">”</text><line class="cls-4" x1="186.21" y1="259.85" x2="194.32" y2="259.85"/><text class="cls-5" transform="translate(186.85 321.35)">”</text><line class="cls-4" x1="186.21" y1="321.35" x2="194.32" y2="321.35"/><text class="cls-7" transform="translate(146.7 106.1)">q</text><text class="cls-7" transform="translate(153.45 106.1)"> </text><text class="cls-7" transform="translate(155.7 106.1)">=</text><text class="cls-7" transform="translate(161.7 106.1)"> </text><text class="cls-7" transform="translate(163.95 106.1)">9</text><text class="cls-7" transform="translate(169.95 106.1)">6</text><line class="cls-4" x1="230.18" y1="130.02" x2="230.18" y2="147.1"/><path d="M236.54,127.34a1.22,1.22,0,0,1,.16.51,2.53,2.53,0,0,1,0,.55,4,4,0,0,1-.09.52,3.49,3.49,0,0,1-.13.39,4.32,4.32,0,0,1-1.9,2.19,4.22,4.22,0,0,1-2.4.39l-.48-.06a2.87,2.87,0,0,1-.56-.14,2.94,2.94,0,0,1-.53-.27,1.12,1.12,0,0,1-.4-.41,1.32,1.32,0,0,1-.2-.54,2.35,2.35,0,0,1,0-.53,3.39,3.39,0,0,1,.1-.48c0-.14.08-.27.12-.37a3.4,3.4,0,0,1,.82-1.3,6.47,6.47,0,0,1,1-.8,4.86,4.86,0,0,1,1.16-.43,4.38,4.38,0,0,1,1.55-.06l.41,0a2.46,2.46,0,0,1,.5.13,2.23,2.23,0,0,1,.49.24A1.18,1.18,0,0,1,236.54,127.34Zm-.47.35a.84.84,0,0,0-.4-.33,1.4,1.4,0,0,0-.51-.06,3,3,0,0,0-.56.12,5.48,5.48,0,0,0-.54.23,7,7,0,0,0-.62.33l-.59.33c-.39.22-.8.46-1.21.73l-.46.33a2.57,2.57,0,0,0-.4.41,1.14,1.14,0,0,0-.21.48.67.67,0,0,0,.09.51.71.71,0,0,0,.39.32,1.13,1.13,0,0,0,.52.06,2.49,2.49,0,0,0,.57-.14,5.29,5.29,0,0,0,.53-.22c.23-.11.45-.22.64-.33l.61-.33.58-.33c.19-.11.39-.24.61-.39s.28-.2.44-.32a2.21,2.21,0,0,0,.4-.41,1.18,1.18,0,0,0,.21-.49A.65.65,0,0,0,236.07,127.69Z"/><line class="cls-4" x1="264.13" y1="137.71" x2="264.13" y2="154.79"/><path d="M270.5,135a1.39,1.39,0,0,1,.15.5,2.62,2.62,0,0,1,0,.56,4.34,4.34,0,0,1-.09.52,3.11,3.11,0,0,1-.12.39,3.86,3.86,0,0,1-.87,1.37,3.8,3.8,0,0,1-1,.82,4.39,4.39,0,0,1-2.4.39l-.48-.06a3.41,3.41,0,0,1-.55-.14,2.73,2.73,0,0,1-.54-.27,1.33,1.33,0,0,1-.59-1,2.44,2.44,0,0,1,0-.54,3.26,3.26,0,0,1,.09-.47c0-.14.08-.27.12-.38a3.4,3.4,0,0,1,.82-1.29,6,6,0,0,1,1-.8,4.41,4.41,0,0,1,2.7-.49l.41.05a2.5,2.5,0,0,1,.51.12,3.23,3.23,0,0,1,.49.25A1.19,1.19,0,0,1,270.5,135Zm-.47.35a.83.83,0,0,0-.4-.33,1.46,1.46,0,0,0-.52-.06,1.94,1.94,0,0,0-.56.12,5.27,5.27,0,0,0-.53.23c-.24.11-.44.22-.63.33s-.38.21-.58.32c-.4.22-.8.47-1.21.74-.15.1-.31.21-.46.33a1.94,1.94,0,0,0-.4.41,1.3,1.3,0,0,0-.22.48.74.74,0,0,0,.09.5.69.69,0,0,0,.39.33,1.17,1.17,0,0,0,.53.05,2.38,2.38,0,0,0,.56-.13,3.68,3.68,0,0,0,.53-.23c.23-.11.45-.21.65-.32l.6-.33.59-.33.6-.39a3.88,3.88,0,0,0,.44-.33,1.94,1.94,0,0,0,.4-.41,1.3,1.3,0,0,0,.22-.48A.74.74,0,0,0,270,135.38Z"/><rect x="256.91" y="193.21" width="6.52" height="2.95"/><line class="cls-4" x1="256.25" y1="193.23" x2="264.36" y2="193.23"/><rect x="256.91" y="254.71" width="6.52" height="2.95"/><line class="cls-4" x1="256.25" y1="254.73" x2="264.36" y2="254.73"/><rect x="256.91" y="316.21" width="6.52" height="2.95"/><line class="cls-4" x1="256.25" y1="316.23" x2="264.36" y2="316.23"/><text class="cls-5" transform="translate(313.69 134.72)">.</text><line class="cls-4" x1="305.34" y1="137.71" x2="305.34" y2="154.79"/><path d="M305.31,136.88a3.25,3.25,0,0,1,.63-1,4.88,4.88,0,0,1,1-.83,4.76,4.76,0,0,1,1.19-.55,4.45,4.45,0,0,1,1.29-.2,2.74,2.74,0,0,1,1.15.22,1.93,1.93,0,0,1,.78.57,1.77,1.77,0,0,1,.36.84,2.15,2.15,0,0,1-.13,1,3.21,3.21,0,0,1-.64,1,4.94,4.94,0,0,1-1,.84,4.7,4.7,0,0,1-1.2.56,4.41,4.41,0,0,1-1.28.19,2.83,2.83,0,0,1-1.14-.21,2.12,2.12,0,0,1-.78-.59,1.62,1.62,0,0,1-.36-.85A2.23,2.23,0,0,1,305.31,136.88Z"/><path d="M335,132.49a1.18,1.18,0,0,1,.92.06,1.4,1.4,0,0,1,.56.57,2.24,2.24,0,0,1,.24.81,1.76,1.76,0,0,1-.06.75,4.08,4.08,0,0,0,.59-.12,1.54,1.54,0,0,0,.56-.37c.17-.18.32-.34.44-.49s.25-.32.42-.51l.28.16-2.27,8.59h-.82c.14-.45.28-.9.43-1.33s.25-.73.37-1.12a9.24,9.24,0,0,1,.33-.93c.21-.61.4-1.14.54-1.61s.26-.87.34-1.2.17-.72.22-1c-.12.1-.29.22-.5.36a5.75,5.75,0,0,1-.69.42,5.17,5.17,0,0,1-.75.36,2.79,2.79,0,0,1-.76.18,1.62,1.62,0,0,1-1.28-.44,1.79,1.79,0,0,1-.57-1.09,2,2,0,0,1,.27-1.23A1.79,1.79,0,0,1,335,132.49Z"/><path d="M348.24,139.44a3.15,3.15,0,0,1,.62-1,5,5,0,0,1,1-.83A4.54,4.54,0,0,1,351,137a4.46,4.46,0,0,1,1.3-.2,2.86,2.86,0,0,1,1.14.22,1.93,1.93,0,0,1,.78.57,1.77,1.77,0,0,1,.36.84,2,2,0,0,1-.13,1,3.21,3.21,0,0,1-.64,1,4.4,4.4,0,0,1-1,.84,4.7,4.7,0,0,1-1.2.56,4.41,4.41,0,0,1-1.28.19,2.83,2.83,0,0,1-1.14-.21,2.12,2.12,0,0,1-.78-.59,1.62,1.62,0,0,1-.36-.85A2.14,2.14,0,0,1,348.24,139.44Z"/><text class="cls-5" transform="translate(341.88 139.42)">#</text><line class="cls-4" x1="348.26" y1="140.27" x2="348.26" y2="156.07"/><path d="M361.48,136.88a3.05,3.05,0,0,1,.62-1,5,5,0,0,1,1-.83,4.54,4.54,0,0,1,1.18-.55,4.46,4.46,0,0,1,1.3-.2,2.7,2.7,0,0,1,1.14.22,1.93,1.93,0,0,1,.78.57,1.77,1.77,0,0,1,.36.84,2.15,2.15,0,0,1-.13,1,3.21,3.21,0,0,1-.64,1,4.82,4.82,0,0,1-2.18,1.4,4.41,4.41,0,0,1-1.28.19,2.83,2.83,0,0,1-1.14-.21,2.12,2.12,0,0,1-.78-.59,1.62,1.62,0,0,1-.36-.85A2.12,2.12,0,0,1,361.48,136.88Z"/><line class="cls-4" x1="361.5" y1="137.71" x2="361.5" y2="156.07"/><path d="M374.72,129.19a3.15,3.15,0,0,1,.62-1,5.18,5.18,0,0,1,1-.83,4.76,4.76,0,0,1,1.19-.55,4.45,4.45,0,0,1,1.29-.2,2.91,2.91,0,0,1,1.15.22,1.93,1.93,0,0,1,.78.57,1.77,1.77,0,0,1,.36.84,2.14,2.14,0,0,1-.13,1,3.21,3.21,0,0,1-.64,1,4.68,4.68,0,0,1-1,.85,5,5,0,0,1-1.2.55,4.41,4.41,0,0,1-1.28.19,2.83,2.83,0,0,1-1.14-.21,2.12,2.12,0,0,1-.78-.59,1.62,1.62,0,0,1-.36-.85A2.14,2.14,0,0,1,374.72,129.19Z"/><line class="cls-4" x1="374.74" y1="130.02" x2="374.74" y2="156.07"/><path d="M388,136.88a3.05,3.05,0,0,1,.62-1,5.18,5.18,0,0,1,1-.83,4.76,4.76,0,0,1,1.19-.55,4.45,4.45,0,0,1,1.29-.2,2.74,2.74,0,0,1,1.15.22,1.93,1.93,0,0,1,.78.57,1.77,1.77,0,0,1,.36.84,2.15,2.15,0,0,1-.13,1,3.21,3.21,0,0,1-.64,1,4.94,4.94,0,0,1-1,.84,4.7,4.7,0,0,1-1.2.56,4.41,4.41,0,0,1-1.28.19,2.83,2.83,0,0,1-1.14-.21,2.12,2.12,0,0,1-.78-.59,1.62,1.62,0,0,1-.36-.85A2.12,2.12,0,0,1,388,136.88Z"/><line class="cls-4" x1="387.98" y1="137.71" x2="387.98" y2="156.07"/><polyline points="348.07 154.79 388.18 154.79 388.18 157.35 348.07 157.35"/><rect x="346.17" y="193.21" width="6.52" height="2.95"/><line class="cls-4" x1="345.51" y1="193.23" x2="353.63" y2="193.23"/><rect x="346.17" y="254.71" width="6.52" height="2.95"/><line class="cls-4" x1="345.51" y1="254.73" x2="353.63" y2="254.73"/><rect x="346.17" y="316.21" width="6.52" height="2.95"/><line class="cls-4" x1="345.51" y1="316.23" x2="353.63" y2="316.23"/><line class="cls-4" x1="408.7" y1="137.71" x2="408.7" y2="154.79"/><path d="M415.06,135a1.23,1.23,0,0,1,.16.5,2.62,2.62,0,0,1,0,.56,4.34,4.34,0,0,1-.09.52,2.94,2.94,0,0,1-.13.39,4.32,4.32,0,0,1-1.9,2.19,4.39,4.39,0,0,1-2.4.39l-.48-.06a3.82,3.82,0,0,1-.56-.14,2.94,2.94,0,0,1-.53-.27,1.33,1.33,0,0,1-.59-1,1.63,1.63,0,0,1,0-.54,3.26,3.26,0,0,1,.09-.47c0-.14.08-.27.12-.38a3.4,3.4,0,0,1,.82-1.29,6,6,0,0,1,1-.8,4.37,4.37,0,0,1,2.7-.49l.41.05a2.27,2.27,0,0,1,.5.12,3.33,3.33,0,0,1,.5.25A1.08,1.08,0,0,1,415.06,135Zm-.47.35a.79.79,0,0,0-.4-.33,1.38,1.38,0,0,0-.51-.06,1.94,1.94,0,0,0-.56.12c-.19.07-.37.15-.54.23a7,7,0,0,0-.62.33l-.59.32c-.39.22-.79.47-1.2.74-.16.1-.31.21-.47.33a2.21,2.21,0,0,0-.4.41,1.14,1.14,0,0,0-.21.48.75.75,0,0,0,.48.83,1.13,1.13,0,0,0,.52.05,2.35,2.35,0,0,0,.57-.13,3.68,3.68,0,0,0,.53-.23c.23-.11.45-.21.65-.32l.6-.33.58-.33c.19-.11.39-.24.61-.39a5,5,0,0,0,.44-.33,1.94,1.94,0,0,0,.4-.41,1.3,1.3,0,0,0,.22-.48A.69.69,0,0,0,414.59,135.38Z"/><line class="cls-4" x1="449.02" y1="146.25" x2="449.02" y2="129.17"/><path d="M449,145.28a1.39,1.39,0,0,1,.15.5,2.62,2.62,0,0,1,0,.56,4.34,4.34,0,0,1-.09.52,3.11,3.11,0,0,1-.12.39,4.07,4.07,0,0,1-.86,1.37,4,4,0,0,1-1.05.82,4.39,4.39,0,0,1-2.4.39l-.48-.06a3.7,3.7,0,0,1-.55-.14,2.73,2.73,0,0,1-.54-.27,1.33,1.33,0,0,1-.59-1,2.44,2.44,0,0,1,0-.54,3.26,3.26,0,0,1,.09-.47c0-.14.08-.27.12-.38a3.53,3.53,0,0,1,.82-1.29,6,6,0,0,1,1-.8,4.41,4.41,0,0,1,2.7-.49l.41.05a2.36,2.36,0,0,1,.51.12,3.23,3.23,0,0,1,.49.25A1.11,1.11,0,0,1,449,145.28Zm-.47.35a.83.83,0,0,0-.4-.33,1.46,1.46,0,0,0-.52-.06,1.94,1.94,0,0,0-.56.12,5.27,5.27,0,0,0-.53.23c-.24.11-.44.22-.63.33l-.58.32c-.4.22-.8.47-1.21.74-.15.1-.31.21-.46.33a1.94,1.94,0,0,0-.4.41,1.3,1.3,0,0,0-.22.48.74.74,0,0,0,.09.5.69.69,0,0,0,.39.33,1.17,1.17,0,0,0,.53.05,2.38,2.38,0,0,0,.56-.13,3.68,3.68,0,0,0,.53-.23c.24-.11.45-.21.65-.32l.6-.33.59-.33.6-.39c.14-.1.29-.2.44-.33a1.94,1.94,0,0,0,.4-.41,1.3,1.3,0,0,0,.22-.48A.74.74,0,0,0,448.55,145.63Z"/><rect x="435.43" y="193.21" width="6.52" height="2.95"/><line class="cls-4" x1="434.77" y1="193.23" x2="442.88" y2="193.23"/><rect x="435.43" y="254.71" width="6.52" height="2.95"/><line class="cls-4" x1="434.77" y1="254.73" x2="442.88" y2="254.73"/><rect x="435.43" y="316.21" width="6.52" height="2.95"/><line class="cls-4" x1="434.77" y1="316.23" x2="442.88" y2="316.23"/><text class="cls-5" transform="translate(492 144.97)">.</text><line class="cls-4" x1="490.02" y1="146.25" x2="490.02" y2="129.17"/><path d="M483.62,147.12a3.32,3.32,0,0,1,.63-1,4.88,4.88,0,0,1,1-.83,4.76,4.76,0,0,1,1.19-.55,4.34,4.34,0,0,1,1.29-.2,2.74,2.74,0,0,1,1.15.22,1.93,1.93,0,0,1,.78.57,1.77,1.77,0,0,1,.36.84,2,2,0,0,1-.14,1,3,3,0,0,1-.63,1,5,5,0,0,1-1,.84,4.48,4.48,0,0,1-2.48.75,2.81,2.81,0,0,1-1.13-.21,2.12,2.12,0,0,1-.78-.59,1.66,1.66,0,0,1-.36-.85A2.29,2.29,0,0,1,483.62,147.12Z"/><path d="M512.48,132.49a1.18,1.18,0,0,1,.92.06,1.42,1.42,0,0,1,.57.57,2,2,0,0,1,.23.81,1.76,1.76,0,0,1-.06.75,4.54,4.54,0,0,0,.6-.12,1.52,1.52,0,0,0,.55-.37,5.85,5.85,0,0,0,.44-.49l.42-.51.29.16-2.28,8.59h-.82c.14-.45.28-.9.43-1.33s.25-.73.37-1.12a9.24,9.24,0,0,1,.33-.93c.22-.61.4-1.14.54-1.61s.26-.87.34-1.2.17-.72.23-1c-.13.1-.29.22-.51.36a6.5,6.5,0,0,1-.68.42,5.84,5.84,0,0,1-.76.36,2.7,2.7,0,0,1-.76.18,1.64,1.64,0,0,1-1.28-.44,1.78,1.78,0,0,1-.56-1.09,1.88,1.88,0,0,1,.26-1.23A1.79,1.79,0,0,1,512.48,132.49Z"/><path d="M524,147.12a3.32,3.32,0,0,1,.63-1,4.88,4.88,0,0,1,1-.83,4.76,4.76,0,0,1,1.19-.55,4.34,4.34,0,0,1,1.29-.2,2.74,2.74,0,0,1,1.15.22,1.93,1.93,0,0,1,.78.57,1.77,1.77,0,0,1,.36.84,2.16,2.16,0,0,1-.14,1,3.18,3.18,0,0,1-.63,1,5,5,0,0,1-1,.84,4.7,4.7,0,0,1-1.2.56,4.36,4.36,0,0,1-1.28.19,2.81,2.81,0,0,1-1.13-.21,2,2,0,0,1-.78-.59,1.66,1.66,0,0,1-.36-.85A2.16,2.16,0,0,1,524,147.12Z"/><line class="cls-4" x1="530.38" y1="146.25" x2="530.38" y2="125.32"/><path d="M537,144.56a3,3,0,0,1,.62-1,5,5,0,0,1,2.17-1.39,4.33,4.33,0,0,1,1.29-.19,2.86,2.86,0,0,1,1.14.21,2,2,0,0,1,.78.58,1.77,1.77,0,0,1,.36.84,2,2,0,0,1-.13,1,3.26,3.26,0,0,1-.64,1,4.7,4.7,0,0,1-2.18,1.39,4.43,4.43,0,0,1-1.28.2A2.67,2.67,0,0,1,538,147a2.1,2.1,0,0,1-.78-.58,1.66,1.66,0,0,1-.36-.85A2.18,2.18,0,0,1,537,144.56Z"/><line class="cls-4" x1="543.4" y1="143.69" x2="543.4" y2="125.32"/><path d="M549.82,142a3.21,3.21,0,0,1,.63-1,4.62,4.62,0,0,1,1-.84,5,5,0,0,1,1.19-.55,4.33,4.33,0,0,1,1.29-.19,2.91,2.91,0,0,1,1.15.21,2,2,0,0,1,.78.58,1.77,1.77,0,0,1,.36.84,2.12,2.12,0,0,1-.14,1,3.22,3.22,0,0,1-.63,1,5,5,0,0,1-1,.84,4.67,4.67,0,0,1-1.2.55,4.38,4.38,0,0,1-1.28.2,2.86,2.86,0,0,1-1.14-.22,2,2,0,0,1-.77-.58,1.66,1.66,0,0,1-.36-.85A2.15,2.15,0,0,1,549.82,142Z"/><line class="cls-4" x1="556.21" y1="141.13" x2="556.21" y2="125.32"/><path d="M562.85,147.12a3.11,3.11,0,0,1,.62-1,5,5,0,0,1,1-.83,4.54,4.54,0,0,1,1.18-.55,4.46,4.46,0,0,1,1.3-.2,2.7,2.7,0,0,1,1.14.22,1.93,1.93,0,0,1,.78.57,1.77,1.77,0,0,1,.36.84,2.15,2.15,0,0,1-.13,1,3.21,3.21,0,0,1-.64,1,4.82,4.82,0,0,1-2.18,1.4,4.41,4.41,0,0,1-1.28.19,2.83,2.83,0,0,1-1.14-.21,2.12,2.12,0,0,1-.78-.59,1.66,1.66,0,0,1-.36-.85A2.18,2.18,0,0,1,562.85,147.12Z"/><line class="cls-4" x1="569.24" y1="146.25" x2="569.24" y2="125.32"/><polyline points="530.18 124.04 569.43 124.04 569.43 126.61 530.18 126.61"/><rect x="522.56" y="193.21" width="6.52" height="2.95"/><line class="cls-4" x1="521.9" y1="193.23" x2="530.01" y2="193.23"/><rect x="522.56" y="254.71" width="6.52" height="2.95"/><line class="cls-4" x1="521.9" y1="254.73" x2="530.01" y2="254.73"/><rect x="522.56" y="316.21" width="6.52" height="2.95"/><line class="cls-4" x1="521.9" y1="316.23" x2="530.01" y2="316.23"/><line class="cls-4" x1="72.16" y1="389.69" x2="72.16" y2="594.69"/><text class="cls-5" transform="translate(77.52 405.06)">&amp;</text><text class="cls-5" transform="translate(77.52 466.56)">&amp;</text><text class="cls-5" transform="translate(77.52 528.06)">V</text><text class="cls-5" transform="translate(77.52 579.31)">?</text><text class="cls-5" transform="translate(97.59 389.69)">#</text><text class="cls-5" transform="translate(97.59 451.19)">#</text><text class="cls-5" transform="translate(97.59 512.69)">#</text><text class="cls-5" transform="translate(97.59 579.31)">#</text><line class="cls-4" x1="185.33" y1="389.69" x2="185.33" y2="410.19"/><line class="cls-4" x1="185.33" y1="451.19" x2="185.33" y2="471.69"/><line class="cls-4" x1="185.33" y1="512.69" x2="185.33" y2="533.19"/><line class="cls-4" x1="185.33" y1="574.19" x2="185.33" y2="594.69"/><line class="cls-4" x1="265.41" y1="389.69" x2="265.41" y2="410.19"/><line class="cls-4" x1="265.41" y1="451.19" x2="265.41" y2="471.69"/><line class="cls-4" x1="265.41" y1="512.69" x2="265.41" y2="533.19"/><line class="cls-4" x1="265.41" y1="574.19" x2="265.41" y2="594.69"/><text class="cls-5" transform="translate(270.77 389.69)">n</text><text class="cls-5" transform="translate(275.47 399.94)">b</text><text class="cls-5" transform="translate(280.81 392.25)">b</text><text class="cls-5" transform="translate(270.77 451.19)">n</text><text class="cls-5" transform="translate(275.47 461.44)">b</text><text class="cls-5" transform="translate(280.81 453.75)">b</text><text class="cls-5" transform="translate(270.77 512.69)">n</text><text class="cls-5" transform="translate(275.47 522.94)">b</text><text class="cls-5" transform="translate(280.81 515.25)">b</text><text class="cls-5" transform="translate(270.77 579.31)">n</text><text class="cls-5" transform="translate(275.47 589.56)">b</text><text class="cls-5" transform="translate(280.81 581.88)">b</text><line class="cls-4" x1="384.14" y1="389.69" x2="384.14" y2="410.19"/><line class="cls-4" x1="384.14" y1="451.19" x2="384.14" y2="471.69"/><line class="cls-4" x1="384.14" y1="512.69" x2="384.14" y2="533.19"/><line class="cls-4" x1="384.14" y1="574.19" x2="384.14" y2="594.69"/><line class="cls-4" x1="479.81" y1="389.69" x2="479.81" y2="410.19"/><line class="cls-4" x1="479.81" y1="451.19" x2="479.81" y2="471.69"/><line class="cls-4" x1="479.81" y1="512.69" x2="479.81" y2="533.19"/><line class="cls-4" x1="479.81" y1="574.19" x2="479.81" y2="594.69"/><line class="cls-4" x1="575.73" y1="389.69" x2="575.73" y2="410.19"/><line class="cls-4" x1="575.73" y1="451.19" x2="575.73" y2="471.69"/><line class="cls-4" x1="575.73" y1="512.69" x2="575.73" y2="533.19"/><line class="cls-4" x1="575.73" y1="574.19" x2="575.73" y2="594.69"/><line class="cls-4" x1="71.96" y1="389.69" x2="575.92" y2="389.69"/><line class="cls-4" x1="71.96" y1="394.81" x2="575.92" y2="394.81"/><line class="cls-4" x1="71.96" y1="399.94" x2="575.92" y2="399.94"/><line class="cls-4" x1="71.96" y1="405.06" x2="575.92" y2="405.06"/><line class="cls-4" x1="71.96" y1="410.19" x2="575.92" y2="410.19"/><text class="cls-6" transform="translate(49.75 403.78)">S</text><line class="cls-4" x1="71.96" y1="451.19" x2="575.92" y2="451.19"/><line class="cls-4" x1="71.96" y1="456.31" x2="575.92" y2="456.31"/><line class="cls-4" x1="71.96" y1="461.44" x2="575.92" y2="461.44"/><line class="cls-4" x1="71.96" y1="466.56" x2="575.92" y2="466.56"/><line class="cls-4" x1="71.96" y1="471.69" x2="575.92" y2="471.69"/><text class="cls-6" transform="translate(47.62 465.28)">A</text><line class="cls-4" x1="71.96" y1="512.69" x2="575.92" y2="512.69"/><line class="cls-4" x1="71.96" y1="517.81" x2="575.92" y2="517.81"/><line class="cls-4" x1="71.96" y1="522.94" x2="575.92" y2="522.94"/><line class="cls-4" x1="71.96" y1="528.06" x2="575.92" y2="528.06"/><line class="cls-4" x1="71.96" y1="533.19" x2="575.92" y2="533.19"/><text class="cls-6" transform="translate(49.12 526.78)">T</text><line class="cls-4" x1="71.96" y1="574.19" x2="575.92" y2="574.19"/><line class="cls-4" x1="71.96" y1="579.31" x2="575.92" y2="579.31"/><line class="cls-4" x1="71.96" y1="584.44" x2="575.92" y2="584.44"/><line class="cls-4" x1="71.96" y1="589.56" x2="575.92" y2="589.56"/><line class="cls-4" x1="71.96" y1="594.69" x2="575.92" y2="594.69"/><text class="cls-6" transform="translate(48.26 588.28)">B</text><path d="M68.76,387.13c6.41,0,7.69-.86,9.4-2.57-1.07,3-3.63,3.85-7.48,3.85V596c3.85,0,6.41.85,7.48,3.84-1.71-1.71-3-2.56-9.4-2.56"/><text class="cls-8" transform="translate(73.24 380.29)">5</text><line class="cls-4" x1="118.88" y1="404.21" x2="118.88" y2="387.13"/><path d="M118.88,403.24a1.4,1.4,0,0,1,.16.5,2.53,2.53,0,0,1,0,.55,4.15,4.15,0,0,1-.1.53,3.11,3.11,0,0,1-.12.39,3.92,3.92,0,0,1-.86,1.37,3.68,3.68,0,0,1-1,.82,4.37,4.37,0,0,1-2.39.39l-.49-.06a2.81,2.81,0,0,1-.55-.15,2.37,2.37,0,0,1-.53-.26,1.2,1.2,0,0,1-.4-.41,1.31,1.31,0,0,1-.2-.55,2.35,2.35,0,0,1,0-.53,2.17,2.17,0,0,1,.1-.47c0-.14.08-.27.12-.38a3.29,3.29,0,0,1,.82-1.29,5.92,5.92,0,0,1,1-.8,4.47,4.47,0,0,1,1.16-.43,4.37,4.37,0,0,1,1.55-.06l.41.05a2.42,2.42,0,0,1,.5.12,2.26,2.26,0,0,1,.49.25A1,1,0,0,1,118.88,403.24Zm-.47.35a.74.74,0,0,0-.4-.33,1.09,1.09,0,0,0-.51-.06,2,2,0,0,0-.57.12,4.23,4.23,0,0,0-.53.23c-.23.11-.44.21-.62.32l-.59.33c-.39.22-.8.47-1.21.74l-.46.33a1.94,1.94,0,0,0-.4.41,1.14,1.14,0,0,0-.21.48.64.64,0,0,0,.09.5.63.63,0,0,0,.39.33,1.28,1.28,0,0,0,.52.05,2.27,2.27,0,0,0,.56-.13,5.48,5.48,0,0,0,.54-.23c.23-.11.45-.22.64-.33l.61-.32.58-.33c.19-.11.39-.24.61-.39l.44-.33a2.21,2.21,0,0,0,.4-.41,1.14,1.14,0,0,0,.21-.48A.64.64,0,0,0,118.41,403.59Z"/><line class="cls-4" x1="151.55" y1="409.33" x2="151.55" y2="392.25"/><path d="M145.16,410.21a3.15,3.15,0,0,1,.62-1,5,5,0,0,1,1-.83,4.61,4.61,0,0,1,1.19-.55,4.34,4.34,0,0,1,1.29-.2,2.91,2.91,0,0,1,1.15.22,2.07,2.07,0,0,1,.77.57,1.59,1.59,0,0,1,.36.84,2,2,0,0,1-.13,1,3.37,3.37,0,0,1-.64,1,4.68,4.68,0,0,1-1,.84,5,5,0,0,1-1.2.55,4.41,4.41,0,0,1-1.28.19,2.83,2.83,0,0,1-1.14-.21,2,2,0,0,1-.78-.59,1.8,1.8,0,0,1-.36-.85A2.14,2.14,0,0,1,145.16,410.21Z"/><line class="cls-4" x1="171.63" y1="404.21" x2="171.63" y2="387.13"/><path d="M165.23,405.08a3.21,3.21,0,0,1,.63-1,4.58,4.58,0,0,1,1-.83,4.79,4.79,0,0,1,1.19-.56,4.68,4.68,0,0,1,1.29-.19,2.74,2.74,0,0,1,1.15.22,1.93,1.93,0,0,1,.78.57,1.77,1.77,0,0,1,.36.84,2.16,2.16,0,0,1-.14,1,3.29,3.29,0,0,1-.63,1,5,5,0,0,1-1,.84,4.52,4.52,0,0,1-1.2.55,4.38,4.38,0,0,1-1.28.2,2.65,2.65,0,0,1-1.13-.22,1.86,1.86,0,0,1-.78-.58,1.66,1.66,0,0,1-.36-.85A2.16,2.16,0,0,1,165.23,405.08Z"/><rect x="141.81" y="456.29" width="6.52" height="2.95"/><line class="cls-4" x1="141.15" y1="456.31" x2="149.26" y2="456.31"/><rect x="141.81" y="517.79" width="6.52" height="2.95"/><line class="cls-4" x1="141.15" y1="517.81" x2="149.26" y2="517.81"/><rect x="141.81" y="579.29" width="6.52" height="2.95"/><line class="cls-4" x1="141.15" y1="579.31" x2="149.26" y2="579.31"/><line class="cls-4" x1="198.96" y1="401.65" x2="198.96" y2="384.56"/><path d="M199,400.68a1.33,1.33,0,0,1,.15.5,2.53,2.53,0,0,1,0,.55,3.74,3.74,0,0,1-.09.52,2.32,2.32,0,0,1-.12.39A4,4,0,0,1,198,404a3.87,3.87,0,0,1-1,.82,4.39,4.39,0,0,1-2.4.39l-.48-.06a2.81,2.81,0,0,1-.55-.15,3.26,3.26,0,0,1-.53-.26,1.12,1.12,0,0,1-.4-.41,1.31,1.31,0,0,1-.2-.55,2.35,2.35,0,0,1,0-.53,3,3,0,0,1,.09-.47c0-.15.09-.27.13-.38a3.29,3.29,0,0,1,.82-1.29,5.92,5.92,0,0,1,1-.8,4.47,4.47,0,0,1,1.16-.43,4.37,4.37,0,0,1,1.55-.06l.41.05a2.42,2.42,0,0,1,.5.12,2.06,2.06,0,0,1,.49.25A1.11,1.11,0,0,1,199,400.68Zm-.47.34a.77.77,0,0,0-.4-.32,1.24,1.24,0,0,0-.51-.07,2.35,2.35,0,0,0-.57.13,5.29,5.29,0,0,0-.53.22q-.34.16-.63.33l-.58.33c-.4.22-.8.46-1.21.74a4,4,0,0,0-.46.33,1.73,1.73,0,0,0-.4.41,1.3,1.3,0,0,0-.22.48.69.69,0,0,0,.1.5.7.7,0,0,0,.39.33,1.27,1.27,0,0,0,.52.05,3,3,0,0,0,.56-.13c.19-.07.37-.15.54-.23l.64-.33.61-.33c.2-.11.4-.21.58-.32s.39-.24.61-.39l.44-.33a2.21,2.21,0,0,0,.4-.41,1.14,1.14,0,0,0,.21-.48A.72.72,0,0,0,198.49,401Z"/><line class="cls-4" x1="231.63" y1="404.21" x2="231.63" y2="387.13"/><path d="M225.24,405.08a3,3,0,0,1,.62-1,4.63,4.63,0,0,1,1-.83,4.57,4.57,0,0,1,1.18-.56,4.81,4.81,0,0,1,1.3-.19,2.7,2.7,0,0,1,1.14.22,1.93,1.93,0,0,1,.78.57,1.77,1.77,0,0,1,.36.84,2,2,0,0,1-.13,1,3.33,3.33,0,0,1-.64,1,4.7,4.7,0,0,1-2.18,1.39,4.43,4.43,0,0,1-1.28.2,2.67,2.67,0,0,1-1.14-.22,2,2,0,0,1-.78-.58,1.66,1.66,0,0,1-.36-.85A2.18,2.18,0,0,1,225.24,405.08Z"/><line class="cls-4" x1="251.7" y1="406.77" x2="251.7" y2="389.69"/><path d="M245.31,407.65a3.33,3.33,0,0,1,.62-1,5,5,0,0,1,1-.83,4.61,4.61,0,0,1,1.19-.55,4.34,4.34,0,0,1,1.29-.2,2.74,2.74,0,0,1,1.15.22,2,2,0,0,1,.78.57,1.66,1.66,0,0,1,.35.84,2,2,0,0,1-.13,1,3.37,3.37,0,0,1-.63,1,5,5,0,0,1-1,.84,4.7,4.7,0,0,1-1.2.56,4.36,4.36,0,0,1-1.28.19,2.83,2.83,0,0,1-1.14-.21,2.12,2.12,0,0,1-.78-.59,1.7,1.7,0,0,1-.35-.85A2.11,2.11,0,0,1,245.31,407.65Z"/><rect x="221.89" y="456.29" width="6.52" height="2.95"/><line class="cls-4" x1="221.23" y1="456.31" x2="229.34" y2="456.31"/><rect x="221.89" y="517.79" width="6.52" height="2.95"/><line class="cls-4" x1="221.23" y1="517.81" x2="229.34" y2="517.81"/><rect x="221.89" y="579.29" width="6.52" height="2.95"/><line class="cls-4" x1="221.23" y1="579.31" x2="229.34" y2="579.31"/><path d="M297,395.57a1.28,1.28,0,0,1,.92.06,1.36,1.36,0,0,1,.56.58,2.13,2.13,0,0,1,.24.81,1.73,1.73,0,0,1-.06.74,2.57,2.57,0,0,0,.59-.12,1.42,1.42,0,0,0,.56-.37,6.05,6.05,0,0,0,.44-.49q.17-.22.42-.51l.28.16L298.7,405h-.82c.13-.45.28-.89.43-1.33l.37-1.12a9.24,9.24,0,0,1,.33-.93c.21-.6.4-1.14.54-1.61s.26-.87.34-1.2.17-.72.22-1l-.5.35a7.43,7.43,0,0,1-.69.43,7.27,7.27,0,0,1-.75.35,2.46,2.46,0,0,1-.76.18,1.62,1.62,0,0,1-1.28-.43,1.84,1.84,0,0,1-.57-1.1,2,2,0,0,1,.27-1.23A1.79,1.79,0,0,1,297,395.57Z"/><line class="cls-4" x1="314.91" y1="411.9" x2="314.91" y2="394.81"/><path d="M308.52,412.77a3,3,0,0,1,.62-1,5,5,0,0,1,2.17-1.39,4.33,4.33,0,0,1,1.29-.19,2.86,2.86,0,0,1,1.14.21,2,2,0,0,1,.78.58,1.68,1.68,0,0,1,.36.84,2,2,0,0,1-.13,1,3.26,3.26,0,0,1-.64,1,4.7,4.7,0,0,1-2.18,1.39,4.43,4.43,0,0,1-1.28.2,2.83,2.83,0,0,1-1.14-.22,2.1,2.1,0,0,1-.78-.58,1.66,1.66,0,0,1-.36-.85A2.16,2.16,0,0,1,308.52,412.77Z"/><text class="cls-5" transform="translate(335.41 397.38)">j</text><line class="cls-4" x1="335.41" y1="409.33" x2="335.41" y2="392.25"/><path d="M329,410.21a3.15,3.15,0,0,1,.62-1,5,5,0,0,1,1-.83,4.61,4.61,0,0,1,1.19-.55,4.34,4.34,0,0,1,1.29-.2,3,3,0,0,1,1.15.22,2.07,2.07,0,0,1,.77.57,1.59,1.59,0,0,1,.36.84,2,2,0,0,1-.13,1,3.37,3.37,0,0,1-.64,1,4.68,4.68,0,0,1-1,.84,5,5,0,0,1-1.2.55,4.41,4.41,0,0,1-1.28.19,2.83,2.83,0,0,1-1.14-.21,2,2,0,0,1-.78-.59,1.71,1.71,0,0,1-.36-.85A2.14,2.14,0,0,1,329,410.21Z"/><line class="cls-4" x1="349.51" y1="411.9" x2="349.51" y2="394.81"/><path d="M343.11,412.77a3.21,3.21,0,0,1,.63-1,4.58,4.58,0,0,1,1-.83,4.79,4.79,0,0,1,1.19-.56,4.33,4.33,0,0,1,1.29-.19,2.91,2.91,0,0,1,1.15.21,2,2,0,0,1,.78.58,1.77,1.77,0,0,1,.36.84,2.12,2.12,0,0,1-.14,1,3.22,3.22,0,0,1-.63,1,5,5,0,0,1-1,.84,4.67,4.67,0,0,1-1.2.55,4.38,4.38,0,0,1-1.28.2,2.81,2.81,0,0,1-1.13-.22,2,2,0,0,1-.78-.58,1.66,1.66,0,0,1-.36-.85A2.15,2.15,0,0,1,343.11,412.77Z"/><path d="M368.72,404.39a5.58,5.58,0,0,0-1-.32A3.45,3.45,0,0,0,367,404a1.68,1.68,0,0,0-1.12.39,1.33,1.33,0,0,0-.46,1.1,1.12,1.12,0,0,0,.15.51,2.82,2.82,0,0,0,.36.54,5.52,5.52,0,0,0,.53.57l-.24.21a8.9,8.9,0,0,1-1.23-.91,6.63,6.63,0,0,1-.9-.93,2.29,2.29,0,0,1-.5-1.09,1.65,1.65,0,0,1,0-.7A1.85,1.85,0,0,1,364,403a1.75,1.75,0,0,1,.55-.45,2.14,2.14,0,0,1,.77-.21h.39a3.13,3.13,0,0,1,.44,0l.41.06.32.05a27.59,27.59,0,0,1-2.22-2.38q-.75-.95-.63-1.23l.44-.56a7.63,7.63,0,0,0,.59-.89,9.09,9.09,0,0,0,.51-1.09,3.07,3.07,0,0,0,.22-1.13,2.3,2.3,0,0,0-.22-.87c-.15-.35-.32-.68-.49-1s-.46-.76-.72-1.17l.29-.21,3.73,4.7a8.91,8.91,0,0,0-.88,1.25,6.73,6.73,0,0,0-.62,1.16,3,3,0,0,0-.27,1.18,2.25,2.25,0,0,0,.12.74,3.71,3.71,0,0,0,.27.68,6,6,0,0,0,.37.6l.37.48c.06.08.15.18.27.31l.35.39.29.36a.62.62,0,0,1,.14.21l0,.33Z"/><rect x="332.93" y="456.29" width="6.52" height="2.95"/><line class="cls-4" x1="332.27" y1="456.31" x2="340.39" y2="456.31"/><rect x="332.93" y="517.79" width="6.52" height="2.95"/><line class="cls-4" x1="332.27" y1="517.81" x2="340.39" y2="517.81"/><rect x="332.93" y="579.29" width="6.52" height="2.95"/><line class="cls-4" x1="332.27" y1="579.31" x2="340.39" y2="579.31"/><path d="M392.68,395.57a1.31,1.31,0,0,1,.93.06,1.42,1.42,0,0,1,.56.58,2.13,2.13,0,0,1,.24.81,1.88,1.88,0,0,1-.07.74,2.66,2.66,0,0,0,.6-.12,1.33,1.33,0,0,0,.55-.37,3.72,3.72,0,0,0,.44-.49l.42-.51.29.16L394.37,405h-.82c.13-.45.28-.89.43-1.33s.24-.73.36-1.12.24-.7.33-.93c.22-.6.4-1.14.55-1.61s.25-.87.33-1.2.17-.72.23-1l-.5.35a6.57,6.57,0,0,1-1.45.78,2.4,2.4,0,0,1-.76.18,1.63,1.63,0,0,1-1.28-.43,1.85,1.85,0,0,1-.29-2.33A1.77,1.77,0,0,1,392.68,395.57Z"/><line class="cls-4" x1="410.58" y1="411.9" x2="410.58" y2="394.81"/><path d="M404.18,412.77a3.21,3.21,0,0,1,.63-1,4.58,4.58,0,0,1,1-.83,4.79,4.79,0,0,1,1.19-.56,4.43,4.43,0,0,1,1.29-.19,2.91,2.91,0,0,1,1.15.21,2,2,0,0,1,.78.58,1.77,1.77,0,0,1,.36.84,2.11,2.11,0,0,1-.13,1,3.26,3.26,0,0,1-.64,1,4.94,4.94,0,0,1-1,.84,4.67,4.67,0,0,1-1.2.55,4.43,4.43,0,0,1-1.28.2,2.83,2.83,0,0,1-1.14-.22,2.1,2.1,0,0,1-.78-.58,1.66,1.66,0,0,1-.36-.85A2.28,2.28,0,0,1,404.18,412.77Z"/><text class="cls-5" transform="translate(431.08 397.38)">j</text><line class="cls-4" x1="431.08" y1="409.33" x2="431.08" y2="392.25"/><path d="M424.68,410.21a3.37,3.37,0,0,1,.63-1,4.88,4.88,0,0,1,1-.83,4.76,4.76,0,0,1,1.19-.55,4.45,4.45,0,0,1,1.29-.2,2.91,2.91,0,0,1,1.15.22,2,2,0,0,1,.78.57,1.77,1.77,0,0,1,.36.84,2.14,2.14,0,0,1-.13,1,3.37,3.37,0,0,1-.64,1,4.94,4.94,0,0,1-1,.84,5,5,0,0,1-1.2.55,4.41,4.41,0,0,1-1.28.19,2.83,2.83,0,0,1-1.14-.21,2,2,0,0,1-.78-.59,1.62,1.62,0,0,1-.36-.85A2.25,2.25,0,0,1,424.68,410.21Z"/><line class="cls-4" x1="445.17" y1="411.9" x2="445.17" y2="394.81"/><path d="M438.78,412.77a3,3,0,0,1,.62-1,5,5,0,0,1,2.17-1.39,4.33,4.33,0,0,1,1.29-.19,3,3,0,0,1,1.15.21,2.09,2.09,0,0,1,.77.58,1.59,1.59,0,0,1,.36.84,2,2,0,0,1-.13,1,3.26,3.26,0,0,1-.64,1,4.7,4.7,0,0,1-2.18,1.39,4.43,4.43,0,0,1-1.28.2,2.83,2.83,0,0,1-1.14-.22,2.1,2.1,0,0,1-.78-.58,1.85,1.85,0,0,1-.36-.85A2.16,2.16,0,0,1,438.78,412.77Z"/><path d="M464.38,404.39a5.51,5.51,0,0,0-.94-.32,3.46,3.46,0,0,0-.74-.09,1.68,1.68,0,0,0-1.12.39,1.36,1.36,0,0,0-.46,1.1,1,1,0,0,0,.16.51,2.82,2.82,0,0,0,.36.54,4.6,4.6,0,0,0,.53.57l-.25.21a8.9,8.9,0,0,1-1.23-.91,7.19,7.19,0,0,1-.89-.93,2.2,2.2,0,0,1-.5-1.09,1.65,1.65,0,0,1,0-.7,1.69,1.69,0,0,1,.31-.63,1.65,1.65,0,0,1,.55-.45,2.09,2.09,0,0,1,.77-.21h.39a3.13,3.13,0,0,1,.44,0l.41.06.32.05a26.43,26.43,0,0,1-2.23-2.38c-.5-.63-.7-1-.62-1.23l.44-.56a6.54,6.54,0,0,0,.58-.89,9.09,9.09,0,0,0,.51-1.09,2.89,2.89,0,0,0,.23-1.13,2.16,2.16,0,0,0-.23-.87c-.15-.35-.31-.68-.49-1l-.71-1.17.28-.21,3.73,4.7a9.83,9.83,0,0,0-.88,1.25,6.7,6.7,0,0,0-.61,1.16,3,3,0,0,0-.27,1.18,2.55,2.55,0,0,0,.11.74,4.45,4.45,0,0,0,.65,1.28l.37.48a2.48,2.48,0,0,0,.26.31c.13.13.24.26.35.39l.3.36a.53.53,0,0,1,.13.21l0,.33Z"/><rect x="428.6" y="456.29" width="6.52" height="2.95"/><line class="cls-4" x1="427.94" y1="456.31" x2="436.05" y2="456.31"/><rect x="428.6" y="517.79" width="6.52" height="2.95"/><line class="cls-4" x1="427.94" y1="517.81" x2="436.05" y2="517.81"/><rect x="428.6" y="579.29" width="6.52" height="2.95"/><line class="cls-4" x1="427.94" y1="579.31" x2="436.05" y2="579.31"/><path d="M488.35,395.57a1.28,1.28,0,0,1,.92.06,1.39,1.39,0,0,1,.57.58,2.12,2.12,0,0,1,.23.81,1.73,1.73,0,0,1-.06.74,2.66,2.66,0,0,0,.6-.12,1.4,1.4,0,0,0,.55-.37,4.61,4.61,0,0,0,.44-.49l.42-.51.29.16L490,405h-.82c.14-.45.28-.89.43-1.33s.25-.73.37-1.12a9.24,9.24,0,0,1,.33-.93c.22-.6.4-1.14.54-1.61s.26-.87.34-1.2.17-.72.23-1c-.13.09-.29.21-.51.35s-.44.29-.68.43a7.43,7.43,0,0,1-.76.35,2.4,2.4,0,0,1-.76.18,1.63,1.63,0,0,1-1.28-.43,1.9,1.9,0,0,1-.57-1.1,2,2,0,0,1,.27-1.23A1.79,1.79,0,0,1,488.35,395.57Z"/><line class="cls-4" x1="506.25" y1="411.9" x2="506.25" y2="394.81"/><path d="M499.85,412.77a3.21,3.21,0,0,1,.63-1,4.58,4.58,0,0,1,1-.83,4.79,4.79,0,0,1,1.19-.56,4.33,4.33,0,0,1,1.29-.19,2.91,2.91,0,0,1,1.15.21,2,2,0,0,1,.78.58,1.77,1.77,0,0,1,.36.84,2.12,2.12,0,0,1-.14,1,3.22,3.22,0,0,1-.63,1,5,5,0,0,1-1,.84,4.52,4.52,0,0,1-1.2.55,4.38,4.38,0,0,1-1.28.2,2.81,2.81,0,0,1-1.13-.22,2,2,0,0,1-.78-.58,1.66,1.66,0,0,1-.36-.85A2.15,2.15,0,0,1,499.85,412.77Z"/><text class="cls-5" transform="translate(526.75 397.38)">j</text><line class="cls-4" x1="526.75" y1="409.33" x2="526.75" y2="392.25"/><path d="M520.35,410.21a3.37,3.37,0,0,1,.63-1,4.88,4.88,0,0,1,1-.83,4.76,4.76,0,0,1,1.19-.55,4.34,4.34,0,0,1,1.29-.2,2.91,2.91,0,0,1,1.15.22,2,2,0,0,1,.78.57,1.77,1.77,0,0,1,.36.84,2.15,2.15,0,0,1-.14,1,3.33,3.33,0,0,1-.63,1,4.8,4.8,0,0,1-2.19,1.39,4.36,4.36,0,0,1-1.28.19,2.81,2.81,0,0,1-1.13-.21,1.88,1.88,0,0,1-.78-.59,1.62,1.62,0,0,1-.36-.85A2.12,2.12,0,0,1,520.35,410.21Z"/><line class="cls-4" x1="540.84" y1="411.9" x2="540.84" y2="394.81"/><path d="M534.45,412.77a3,3,0,0,1,.62-1,4.85,4.85,0,0,1,2.16-1.39,4.43,4.43,0,0,1,1.29-.19,2.91,2.91,0,0,1,1.15.21,2,2,0,0,1,.78.58,1.77,1.77,0,0,1,.36.84,2.11,2.11,0,0,1-.13,1,3.26,3.26,0,0,1-.64,1,4.94,4.94,0,0,1-1,.84,4.67,4.67,0,0,1-1.2.55,4.43,4.43,0,0,1-1.28.2,2.83,2.83,0,0,1-1.14-.22,2.1,2.1,0,0,1-.78-.58,1.66,1.66,0,0,1-.36-.85A2.16,2.16,0,0,1,534.45,412.77Z"/><path d="M560.05,404.39a5.82,5.82,0,0,0-.94-.32,3.53,3.53,0,0,0-.74-.09,1.68,1.68,0,0,0-1.12.39,1.33,1.33,0,0,0-.46,1.1,1.12,1.12,0,0,0,.15.51,4.22,4.22,0,0,0,.36.54,4.72,4.72,0,0,0,.54.57l-.25.21a8.9,8.9,0,0,1-1.23-.91,6.57,6.57,0,0,1-.89-.93,2.2,2.2,0,0,1-.5-1.09,1.38,1.38,0,0,1,0-.7,1.83,1.83,0,0,1,.3-.63,1.79,1.79,0,0,1,.56-.45,2,2,0,0,1,.77-.21H557a3.27,3.27,0,0,1,.44,0l.41.06.31.05a27.59,27.59,0,0,1-2.22-2.38q-.75-.95-.63-1.23l.45-.56a7.64,7.64,0,0,0,.58-.89,9.09,9.09,0,0,0,.51-1.09,3.08,3.08,0,0,0,.23-1.13,2.34,2.34,0,0,0-.23-.87c-.15-.35-.31-.68-.49-1s-.46-.76-.72-1.17L556,392l3.73,4.7a8.91,8.91,0,0,0-.88,1.25,7.49,7.49,0,0,0-.62,1.16,3.11,3.11,0,0,0-.26,1.18,2.25,2.25,0,0,0,.11.74,4.45,4.45,0,0,0,.65,1.28l.36.48c.06.08.15.18.27.31l.35.39.3.36a.53.53,0,0,1,.13.21l0,.33Z"/><rect x="524.27" y="456.29" width="6.52" height="2.95"/><line class="cls-4" x1="523.6" y1="456.31" x2="531.72" y2="456.31"/><rect x="524.27" y="517.79" width="6.52" height="2.95"/><line class="cls-4" x1="523.6" y1="517.81" x2="531.72" y2="517.81"/><rect x="524.27" y="579.29" width="6.52" height="2.95"/><line class="cls-4" x1="523.6" y1="579.31" x2="531.72" y2="579.31"/><text class="cls-9" transform="translate(250.25 57.5)">L</text><text class="cls-9" transform="translate(265.25 57.5)">u</text><text class="cls-9" transform="translate(277.25 57.5)">n</text><text class="cls-9" transform="translate(289.25 57.5)">a</text><text class="cls-9" transform="translate(305.75 57.5)">L</text><text class="cls-9" transform="translate(320.75 57.5)">i</text><text class="cls-9" transform="translate(327.5 57.5)">b</text><text class="cls-9" transform="translate(339.5 57.5)">e</text><text class="cls-9" transform="translate(350 57.5)">r</text><text class="cls-9" transform="translate(358.25 57.5)">i</text><text class="cls-9" transform="translate(365 57.5)">a</text><text class="cls-9" transform="translate(375.5 57.5)">n</text><text class="cls-9" transform="translate(387.5 57.5)">a</text><text class="cls-10" transform="translate(512.75 81.75)">J</text><text class="cls-10" transform="translate(517.25 81.75)">e</text><text class="cls-10" transform="translate(522.5 81.75)">s</text><text class="cls-10" transform="translate(527 81.75)">ú</text><text class="cls-10" transform="translate(533 81.75)">s</text><text class="cls-10" transform="translate(540.5 81.75)">B</text><text class="cls-10" transform="translate(548.75 81.75)">o</text><text class="cls-10" transform="translate(554.75 81.75)">n</text><text class="cls-10" transform="translate(560.75 81.75)">i</text><text class="cls-10" transform="translate(563.75 81.75)">l</text><text class="cls-10" transform="translate(566.75 81.75)">l</text><text class="cls-10" transform="translate(569.75 81.75)">a</text><text class="cls-11" transform="translate(320.25 762.5)">©</text><text class="cls-10" transform="translate(72 45.25)">S</text><text class="cls-10" transform="translate(78.75 45.25)">c</text><text class="cls-10" transform="translate(84 45.25)">o</text><text class="cls-10" transform="translate(90 45.25)">r</text><text class="cls-10" transform="translate(93.75 45.25)">e</text><text class="cls-10" transform="translate(484.25 99.75)">A</text><text class="cls-10" transform="translate(493.25 99.75)">r</text><text class="cls-10" transform="translate(497 99.75)">r</text><text class="cls-10" transform="translate(500 99.75)">.</text><text class="cls-10" transform="translate(506 99.75)">P</text><text class="cls-10" transform="translate(512.75 99.75)">a</text><text class="cls-10" transform="translate(518 99.75)">t</text><text class="cls-10" transform="translate(521 99.75)">r</text><text class="cls-10" transform="translate(524.75 99.75)">i</text><text class="cls-10" transform="translate(527.75 99.75)">c</text><text class="cls-10" transform="translate(533 99.75)">i</text><text class="cls-10" transform="translate(536 99.75)">o</text><text class="cls-10" transform="translate(545 99.75)">T</text><text class="cls-10" transform="translate(551.75 99.75)">o</text><text class="cls-10" transform="translate(557.75 99.75)">r</text><text class="cls-10" transform="translate(561.5 99.75)">r</text><text class="cls-10" transform="translate(565.25 99.75)">e</text><text class="cls-10" transform="translate(570.5 99.75)">s</text></g></svg>