<svg id="Layer_1" data-name="Layer 1" xmlns="http://www.w3.org/2000/svg" xmlns:xlink="http://www.w3.org/1999/xlink" viewBox="0 0 612 792"><defs><style>.cls-1,.cls-4{fill:none;}.cls-2{clip-path:url(#clip-path);}.cls-3{fill:#fff;}.cls-4{stroke:#000;stroke-miterlimit:10;stroke-width:0.38px;}.cls-5{font-size:20.5px;font-family:Maestro;}.cls-6{font-size:11.96px;}.cls-10,.cls-6{font-family:TimesNewRomanPSMT, Times New Roman;}.cls-7,.cls-9{font-size:8.54px;font-style:italic;}.cls-7{font-family:TimesNewRomanPS-ItalicMT, Times New Roman;}.cls-8{font-size:10.25px;font-family:FinaleLyrics;}.cls-9{font-family:TimesNewRomanPS-BoldItalicMT, Times New Roman;font-weight:700;}.cls-10{font-size:12px;}</style><clipPath id="clip-path"><rect class="cls-1" width="612" height="792"/></clipPath></defs><title>Luna_5</title><g class="cls-2"><rect class="cls-3" width="612" height="792"/><line class="cls-4" x1="72.16" y1="71.94" x2="72.16" y2="276.94"/><text class="cls-5" transform="translate(77.52 87.31)">&amp;</text><text class="cls-5" transform="translate(77.52 148.81)">&amp;</text><text class="cls-5" transform="translate(77.52 210.31)">V</text><text class="cls-5" transform="translate(77.52 261.56)">?</text><text class="cls-5" transform="translate(97.59 71.94)">#</text><text class="cls-5" transform="translate(97.59 133.44)">#</text><text class="cls-5" transform="translate(97.59 194.94)">#</text><text class="cls-5" transform="translate(97.59 261.56)">#</text><line class="cls-4" x1="222.92" y1="71.94" x2="222.92" y2="92.44"/><line class="cls-4" x1="225.48" y1="71.94" x2="225.48" y2="92.44"/><line class="cls-4" x1="222.92" y1="133.44" x2="222.92" y2="153.94"/><line class="cls-4" x1="225.48" y1="133.44" x2="225.48" y2="153.94"/><line class="cls-4" x1="222.92" y1="194.94" x2="222.92" y2="215.44"/><line class="cls-4" x1="225.48" y1="194.94" x2="225.48" y2="215.44"/><line class="cls-4" x1="222.92" y1="256.44" x2="222.92" y2="276.94"/><line class="cls-4" x1="225.48" y1="256.44" x2="225.48" y2="276.94"/><line class="cls-4" x1="372.18" y1="71.94" x2="372.18" y2="92.44"/><line class="cls-4" x1="372.18" y1="133.44" x2="372.18" y2="153.94"/><line class="cls-4" x1="372.18" y1="194.94" x2="372.18" y2="215.44"/><line class="cls-4" x1="372.18" y1="256.44" x2="372.18" y2="276.94"/><line class="cls-4" x1="492.83" y1="71.94" x2="492.83" y2="92.44"/><line class="cls-4" x1="492.83" y1="133.44" x2="492.83" y2="153.94"/><line class="cls-4" x1="492.83" y1="194.94" x2="492.83" y2="215.44"/><line class="cls-4" x1="492.83" y1="256.44" x2="492.83" y2="276.94"/><line class="cls-4" x1="575.73" y1="71.94" x2="575.73" y2="92.44"/><line class="cls-4" x1="575.73" y1="133.44" x2="575.73" y2="153.94"/><line class="cls-4" x1="575.73" y1="194.94" x2="575.73" y2="215.44"/><line class="cls-4" x1="575.73" y1="256.44" x2="575.73" y2="276.94"/><line class="cls-4" x1="71.96" y1="71.94" x2="575.92" y2="71.94"/><line class="cls-4" x1="71.96" y1="77.06" x2="575.92" y2="77.06"/><line class="cls-4" x1="71.96" y1="82.19" x2="575.92" y2="82.19"/><line class="cls-4" x1="71.96" y1="87.31" x2="575.92" y2="87.31"/><line class="cls-4" x1="71.96" y1="92.44" x2="575.92" y2="92.44"/><text class="cls-6" transform="translate(49.75 86.03)">S</text><line class="cls-4" x1="71.96" y1="133.44" x2="575.92" y2="133.44"/><line class="cls-4" x1="71.96" y1="138.56" x2="575.92" y2="138.56"/><line class="cls-4" x1="71.96" y1="143.69" x2="575.92" y2="143.69"/><line class="cls-4" x1="71.96" y1="148.81" x2="575.92" y2="148.81"/><line class="cls-4" x1="71.96" y1="153.94" x2="575.92" y2="153.94"/><text class="cls-6" transform="translate(47.62 147.53)">A</text><line class="cls-4" x1="71.96" y1="194.94" x2="575.92" y2="194.94"/><line class="cls-4" x1="71.96" y1="200.06" x2="575.92" y2="200.06"/><line class="cls-4" x1="71.96" y1="205.19" x2="575.92" y2="205.19"/><line class="cls-4" x1="71.96" y1="210.31" x2="575.92" y2="210.31"/><line class="cls-4" x1="71.96" y1="215.44" x2="575.92" y2="215.44"/><text class="cls-6" transform="translate(49.12 209.03)">T</text><line class="cls-4" x1="71.96" y1="256.44" x2="575.92" y2="256.44"/><line class="cls-4" x1="71.96" y1="261.56" x2="575.92" y2="261.56"/><line class="cls-4" x1="71.96" y1="266.69" x2="575.92" y2="266.69"/><line class="cls-4" x1="71.96" y1="271.81" x2="575.92" y2="271.81"/><line class="cls-4" x1="71.96" y1="276.94" x2="575.92" y2="276.94"/><text class="cls-6" transform="translate(48.26 270.53)">B</text><path d="M68.76,69.38c6.41,0,7.69-.86,9.4-2.57-1.07,3-3.63,3.85-7.48,3.85V278.22c3.85,0,6.41.85,7.48,3.84-1.71-1.71-3-2.56-9.4-2.56"/><text class="cls-7" transform="translate(73.24 62.54)">4</text><text class="cls-7" transform="translate(77.75 62.54)">3</text><line class="cls-4" x1="122.08" y1="86.46" x2="122.08" y2="69.38"/><path d="M115.69,87.33a3.18,3.18,0,0,1,.62-1,5,5,0,0,1,2.17-1.39,4.33,4.33,0,0,1,1.29-.19,2.74,2.74,0,0,1,1.15.22,2.08,2.08,0,0,1,.78.57,1.66,1.66,0,0,1,.35.84,2,2,0,0,1-.13,1,3.41,3.41,0,0,1-.63,1,5,5,0,0,1-1,.84,4.67,4.67,0,0,1-1.2.55,4.43,4.43,0,0,1-1.28.2,2.67,2.67,0,0,1-1.14-.22,2,2,0,0,1-.78-.58,1.73,1.73,0,0,1-.35-.85A2,2,0,0,1,115.69,87.33Z"/><path d="M143.22,86.64a5.58,5.58,0,0,0-.95-.32,3.46,3.46,0,0,0-.74-.09,1.67,1.67,0,0,0-1.11.39,1.34,1.34,0,0,0-.46,1.1,1.19,1.19,0,0,0,.15.52,3.1,3.1,0,0,0,.36.53,5.52,5.52,0,0,0,.53.57l-.24.21a8.49,8.49,0,0,1-1.23-.9,7.32,7.32,0,0,1-.9-.94,2.29,2.29,0,0,1-.5-1.09,1.65,1.65,0,0,1,0-.7,1.85,1.85,0,0,1,.31-.63,1.75,1.75,0,0,1,.55-.45,2.14,2.14,0,0,1,.77-.21h.39a3.13,3.13,0,0,1,.44,0l.41.06.32.05a26.06,26.06,0,0,1-2.22-2.38q-.75-.93-.63-1.23l.44-.56a7.63,7.63,0,0,0,.59-.89,9.09,9.09,0,0,0,.51-1.09,3.07,3.07,0,0,0,.22-1.13,2.3,2.3,0,0,0-.22-.87c-.15-.35-.32-.68-.49-1s-.46-.76-.72-1.17l.29-.21,3.73,4.7A8.91,8.91,0,0,0,142,80.2a7.12,7.12,0,0,0-.62,1.16,3,3,0,0,0-.27,1.18,2.25,2.25,0,0,0,.12.74,3.71,3.71,0,0,0,.27.68,6,6,0,0,0,.37.6l.37.48a2.69,2.69,0,0,0,.27.32c.12.12.24.25.35.38l.29.36a.62.62,0,0,1,.14.21l0,.33Z"/><line class="cls-4" x1="159.09" y1="97.56" x2="168.48" y2="97.56"/><path d="M160.53,100.15a3.37,3.37,0,0,1,.63-1,4.88,4.88,0,0,1,1-.83,4.76,4.76,0,0,1,1.19-.55,4.39,4.39,0,0,1,1.29-.2,2.74,2.74,0,0,1,1.15.22,1.93,1.93,0,0,1,.78.57,1.77,1.77,0,0,1,.36.84,2.15,2.15,0,0,1-.13,1,3.21,3.21,0,0,1-.64,1,5.24,5.24,0,0,1-1,.84,4.7,4.7,0,0,1-1.2.56,4.41,4.41,0,0,1-1.28.19,2.83,2.83,0,0,1-1.14-.21,2.12,2.12,0,0,1-.78-.59,1.62,1.62,0,0,1-.36-.85A2.23,2.23,0,0,1,160.53,100.15Z"/><line class="cls-4" x1="166.93" y1="99.27" x2="166.93" y2="83.47"/><line class="cls-4" x1="174.89" y1="97.56" x2="184.29" y2="97.56"/><path d="M176.34,97.58a3,3,0,0,1,.62-1A4.6,4.6,0,0,1,180.41,95a2.74,2.74,0,0,1,1.15.22,1.93,1.93,0,0,1,.78.57,1.77,1.77,0,0,1,.36.84,2.15,2.15,0,0,1-.13,1,3.33,3.33,0,0,1-.64,1,4.94,4.94,0,0,1-1,.84,4.67,4.67,0,0,1-1.2.55,4.43,4.43,0,0,1-1.28.2,2.67,2.67,0,0,1-1.14-.22,2,2,0,0,1-.78-.58,1.66,1.66,0,0,1-.36-.85A2.18,2.18,0,0,1,176.34,97.58Z"/><line class="cls-4" x1="182.73" y1="96.71" x2="182.73" y2="83.04"/><line class="cls-4" x1="192.19" y1="97.56" x2="201.58" y2="97.56"/><path d="M193.63,97.58a3.21,3.21,0,0,1,.63-1,4.58,4.58,0,0,1,1-.83,4.79,4.79,0,0,1,1.19-.56,4.68,4.68,0,0,1,1.29-.19,2.74,2.74,0,0,1,1.15.22,1.93,1.93,0,0,1,.78.57,1.77,1.77,0,0,1,.36.84,2,2,0,0,1-.14,1,3.11,3.11,0,0,1-.63,1,5,5,0,0,1-1,.84,4.7,4.7,0,0,1-2.48.75,2.65,2.65,0,0,1-1.13-.22,2,2,0,0,1-.78-.58,1.66,1.66,0,0,1-.36-.85A2.29,2.29,0,0,1,193.63,97.58Z"/><text class="cls-5" transform="translate(187.28 97.56)">#</text><line class="cls-4" x1="200.03" y1="96.71" x2="200.03" y2="82.58"/><path d="M208.15,95a3.21,3.21,0,0,1,.63-1,4.3,4.3,0,0,1,1-.83,4.79,4.79,0,0,1,1.19-.56,4.38,4.38,0,0,1,1.29-.19,2.91,2.91,0,0,1,1.15.21,2,2,0,0,1,.78.58,1.77,1.77,0,0,1,.36.84,2.11,2.11,0,0,1-.13,1,3.26,3.26,0,0,1-.64,1,5.24,5.24,0,0,1-1,.84,4.67,4.67,0,0,1-1.2.55,4.43,4.43,0,0,1-1.28.2,2.83,2.83,0,0,1-1.14-.22,2.1,2.1,0,0,1-.78-.58,1.66,1.66,0,0,1-.36-.85A2.28,2.28,0,0,1,208.15,95Z"/><line class="cls-4" x1="214.55" y1="94.15" x2="214.55" y2="82.19"/><polyline points="166.74 82.19 214.74 80.91 214.74 83.47 166.74 84.75"/><text class="cls-8" transform="translate(158.49 112.94)">L</text><text class="cls-8" transform="translate(163.74 112.94)">u</text><text class="cls-8" transform="translate(174.67 112.94)">n</text><text class="cls-8" transform="translate(179.92 112.94)">a</text><text class="cls-8" transform="translate(194.59 112.94)">l</text><text class="cls-8" transform="translate(196.84 112.94)">i</text><text class="cls-8" transform="translate(207.24 112.94)">b</text><text class="cls-8" transform="translate(211.74 112.94)">e</text><line class="cls-4" x1="122.08" y1="160.77" x2="122.08" y2="143.69"/><line class="cls-4" x1="114.24" y1="159.06" x2="123.64" y2="159.06"/><path d="M115.69,161.65a3.33,3.33,0,0,1,.62-1,5,5,0,0,1,1-.83,4.61,4.61,0,0,1,1.19-.55,4.34,4.34,0,0,1,1.29-.2,2.74,2.74,0,0,1,1.15.22,2.08,2.08,0,0,1,.78.57,1.66,1.66,0,0,1,.35.84,2,2,0,0,1-.13,1,3.37,3.37,0,0,1-.63,1,5,5,0,0,1-1,.84,4.7,4.7,0,0,1-1.2.56,4.41,4.41,0,0,1-1.28.19,2.83,2.83,0,0,1-1.14-.21,2.12,2.12,0,0,1-.78-.59,1.7,1.7,0,0,1-.35-.85A2,2,0,0,1,115.69,161.65Z"/><path d="M143.22,148.14a5.58,5.58,0,0,0-.95-.32,3.46,3.46,0,0,0-.74-.09,1.67,1.67,0,0,0-1.11.39,1.34,1.34,0,0,0-.46,1.1,1.19,1.19,0,0,0,.15.52,3.1,3.1,0,0,0,.36.53,5.52,5.52,0,0,0,.53.57l-.24.21a8.49,8.49,0,0,1-1.23-.9,7.32,7.32,0,0,1-.9-.94,2.29,2.29,0,0,1-.5-1.09,1.65,1.65,0,0,1,0-.7,1.85,1.85,0,0,1,.31-.63,1.75,1.75,0,0,1,.55-.45,2.14,2.14,0,0,1,.77-.21h.39a3.13,3.13,0,0,1,.44,0l.41.06.32,0a26.06,26.06,0,0,1-2.22-2.38q-.75-.93-.63-1.23l.44-.56a7.63,7.63,0,0,0,.59-.89,9.09,9.09,0,0,0,.51-1.09,3.07,3.07,0,0,0,.22-1.13,2.3,2.3,0,0,0-.22-.87c-.15-.35-.32-.68-.49-1s-.46-.76-.72-1.17l.29-.21,3.73,4.7a8.91,8.91,0,0,0-.88,1.25,7.12,7.12,0,0,0-.62,1.16,3,3,0,0,0-.27,1.18,2.25,2.25,0,0,0,.12.74,3.71,3.71,0,0,0,.27.68,6,6,0,0,0,.37.6l.37.48a2.69,2.69,0,0,0,.27.32c.12.12.24.25.35.38l.29.36a.62.62,0,0,1,.14.21l0,.33Z"/><text class="cls-5" transform="translate(160.37 143.69)">”</text><line class="cls-4" x1="159.73" y1="143.69" x2="167.84" y2="143.69"/><line class="cls-4" x1="122.08" y1="217.15" x2="122.08" y2="200.06"/><path d="M115.69,218a3.18,3.18,0,0,1,.62-1,4.36,4.36,0,0,1,1-.83,4.63,4.63,0,0,1,1.19-.56,4.33,4.33,0,0,1,1.29-.19,2.91,2.91,0,0,1,1.15.21,2.21,2.21,0,0,1,.78.58,1.66,1.66,0,0,1,.35.84,2,2,0,0,1-.13,1,3.41,3.41,0,0,1-.63,1,5,5,0,0,1-1,.84,4.67,4.67,0,0,1-1.2.55,4.43,4.43,0,0,1-1.28.2,2.83,2.83,0,0,1-1.14-.22,2.1,2.1,0,0,1-.78-.58,1.73,1.73,0,0,1-.35-.85A2,2,0,0,1,115.69,218Z"/><path d="M143.22,209.64a5.58,5.58,0,0,0-.95-.32,3.46,3.46,0,0,0-.74-.09,1.67,1.67,0,0,0-1.11.39,1.34,1.34,0,0,0-.46,1.1,1.19,1.19,0,0,0,.15.52,3.1,3.1,0,0,0,.36.53,5.52,5.52,0,0,0,.53.57l-.24.21a8.49,8.49,0,0,1-1.23-.9,7.32,7.32,0,0,1-.9-.94,2.29,2.29,0,0,1-.5-1.09,1.65,1.65,0,0,1,0-.7,1.85,1.85,0,0,1,.31-.63,1.75,1.75,0,0,1,.55-.45,2.14,2.14,0,0,1,.77-.21h.39a3.13,3.13,0,0,1,.44,0l.41.06.32,0a26.06,26.06,0,0,1-2.22-2.38q-.75-.93-.63-1.23l.44-.56a7.63,7.63,0,0,0,.59-.89,9.09,9.09,0,0,0,.51-1.09,3.07,3.07,0,0,0,.22-1.13,2.3,2.3,0,0,0-.22-.87c-.15-.35-.32-.68-.49-1s-.46-.76-.72-1.17l.29-.21,3.73,4.7a8.91,8.91,0,0,0-.88,1.25,7.12,7.12,0,0,0-.62,1.16,3,3,0,0,0-.27,1.18,2.25,2.25,0,0,0,.12.74,3.71,3.71,0,0,0,.27.68,6,6,0,0,0,.37.6l.37.48a2.69,2.69,0,0,0,.27.32c.12.12.24.25.35.38l.29.36a.62.62,0,0,1,.14.21l0,.33Z"/><text class="cls-5" transform="translate(160.37 205.19)">”</text><line class="cls-4" x1="159.73" y1="205.19" x2="167.84" y2="205.19"/><line class="cls-4" x1="122.08" y1="276.08" x2="122.08" y2="259"/><path d="M115.69,277a3.33,3.33,0,0,1,.62-1,5,5,0,0,1,1-.83,4.61,4.61,0,0,1,1.19-.55,4.34,4.34,0,0,1,1.29-.2,2.91,2.91,0,0,1,1.15.22,2.08,2.08,0,0,1,.78.57,1.66,1.66,0,0,1,.35.84,2,2,0,0,1-.13,1,3.37,3.37,0,0,1-.63,1,4.74,4.74,0,0,1-1,.85,5,5,0,0,1-1.2.55,4.41,4.41,0,0,1-1.28.19,2.83,2.83,0,0,1-1.14-.21,2.12,2.12,0,0,1-.78-.59,1.7,1.7,0,0,1-.35-.85A2,2,0,0,1,115.69,277Z"/><path d="M143.22,271.14a5.58,5.58,0,0,0-.95-.32,3.46,3.46,0,0,0-.74-.09,1.67,1.67,0,0,0-1.11.39,1.34,1.34,0,0,0-.46,1.1,1.19,1.19,0,0,0,.15.52,3.1,3.1,0,0,0,.36.53,5.52,5.52,0,0,0,.53.57l-.24.21a8.49,8.49,0,0,1-1.23-.9,7.32,7.32,0,0,1-.9-.94,2.29,2.29,0,0,1-.5-1.09,1.65,1.65,0,0,1,0-.7,1.85,1.85,0,0,1,.31-.63,1.75,1.75,0,0,1,.55-.45,2.14,2.14,0,0,1,.77-.21h.39a3.13,3.13,0,0,1,.44,0l.41.06.32.05a26.06,26.06,0,0,1-2.22-2.38q-.75-.93-.63-1.23l.44-.56a7.63,7.63,0,0,0,.59-.89,9.09,9.09,0,0,0,.51-1.09,3.07,3.07,0,0,0,.22-1.13,2.3,2.3,0,0,0-.22-.87c-.15-.35-.32-.68-.49-1s-.46-.76-.72-1.17l.29-.21,3.73,4.7a8.91,8.91,0,0,0-.88,1.25,7.12,7.12,0,0,0-.62,1.16,3,3,0,0,0-.27,1.18,2.25,2.25,0,0,0,.12.74,3.71,3.71,0,0,0,.27.68,6,6,0,0,0,.37.6l.37.48a2.69,2.69,0,0,0,.27.32c.12.12.24.25.35.38l.29.36a.62.62,0,0,1,.14.21l0,.33Z"/><text class="cls-5" transform="translate(160.37 266.69)">”</text><line class="cls-4" x1="159.73" y1="266.69" x2="167.84" y2="266.69"/><line class="cls-4" x1="240.6" y1="91.58" x2="240.6" y2="74.5"/><path d="M240.6,90.61a1.38,1.38,0,0,1,.15.51,1.69,1.69,0,0,1,0,.55,4,4,0,0,1-.09.52,2.32,2.32,0,0,1-.12.39,3.83,3.83,0,0,1-.86,1.37,3.68,3.68,0,0,1-1.05.82,4.22,4.22,0,0,1-2.4.39l-.48-.06a2.78,2.78,0,0,1-.55-.14,2.65,2.65,0,0,1-.53-.27,1.12,1.12,0,0,1-.4-.41,1.32,1.32,0,0,1-.2-.54,2.35,2.35,0,0,1,0-.53,3.41,3.41,0,0,1,.09-.48c.05-.14.09-.27.13-.37a3.4,3.4,0,0,1,.82-1.3,6.47,6.47,0,0,1,1-.8,4.86,4.86,0,0,1,1.16-.43,4.37,4.37,0,0,1,1.55-.06l.41,0a2.65,2.65,0,0,1,1,.37A1.18,1.18,0,0,1,240.6,90.61Zm-.47.35a.84.84,0,0,0-.4-.33,1.43,1.43,0,0,0-.51-.06,2.35,2.35,0,0,0-.57.13,3.67,3.67,0,0,0-.53.22,7,7,0,0,0-.62.33l-.59.33c-.4.22-.8.46-1.21.73l-.46.33a2.21,2.21,0,0,0-.4.41,1.14,1.14,0,0,0-.21.48.67.67,0,0,0,.09.51.65.65,0,0,0,.39.32,1.13,1.13,0,0,0,.52.06,2.42,2.42,0,0,0,.56-.14c.19-.07.37-.14.54-.22l.64-.33.61-.33.58-.33c.19-.11.39-.24.61-.39l.44-.32A2.57,2.57,0,0,0,240,92a1.18,1.18,0,0,0,.21-.49A.65.65,0,0,0,240.13,91Z"/><line class="cls-4" x1="309.57" y1="94.15" x2="309.57" y2="77.06"/><path d="M309.57,93.18a1.18,1.18,0,0,1,.16.5,2.53,2.53,0,0,1,0,.55,3.74,3.74,0,0,1-.09.52,2.19,2.19,0,0,1-.13.39,4.29,4.29,0,0,1-1.9,2.2,4.39,4.39,0,0,1-2.4.39l-.48-.06a2.91,2.91,0,0,1-.56-.15,3.71,3.71,0,0,1-.53-.26,1.32,1.32,0,0,1-.59-1,2.35,2.35,0,0,1,0-.53,3,3,0,0,1,.09-.47c0-.15.08-.27.12-.38a3.4,3.4,0,0,1,.82-1.29,6,6,0,0,1,1-.8,4.37,4.37,0,0,1,2.7-.49l.41,0a2.27,2.27,0,0,1,.5.12,2.13,2.13,0,0,1,.5.25A1.08,1.08,0,0,1,309.57,93.18Zm-.47.34a.77.77,0,0,0-.4-.32,1.19,1.19,0,0,0-.51-.07,2.38,2.38,0,0,0-.56.13c-.19.07-.37.14-.54.22a7,7,0,0,0-.62.33l-.59.33c-.39.22-.79.46-1.2.74a3.36,3.36,0,0,0-.47.33,1.94,1.94,0,0,0-.4.41,1.14,1.14,0,0,0-.21.48.69.69,0,0,0,.09.5.78.78,0,0,0,.39.33,1.28,1.28,0,0,0,.52,0,2.93,2.93,0,0,0,.57-.13,5.27,5.27,0,0,0,.53-.23l.65-.33L307,96l.59-.32.6-.39.44-.33a1.94,1.94,0,0,0,.4-.41,1.3,1.3,0,0,0,.22-.48A.73.73,0,0,0,309.1,93.52Z"/><text class="cls-8" transform="translate(232.17 112.94)">r</text><text class="cls-8" transform="translate(235.92 112.94)">i</text><text class="cls-8" transform="translate(238.17 112.94)">a</text><text class="cls-8" transform="translate(303.01 112.94)">n</text><text class="cls-8" transform="translate(308.26 112.94)">a</text><line class="cls-4" x1="232.76" y1="159.06" x2="242.16" y2="159.06"/><path d="M234.21,161.65a3.15,3.15,0,0,1,.62-1,5.18,5.18,0,0,1,1-.83,4.76,4.76,0,0,1,1.19-.55,4.45,4.45,0,0,1,1.29-.2,2.74,2.74,0,0,1,1.15.22,1.93,1.93,0,0,1,.78.57,1.77,1.77,0,0,1,.36.84,2.15,2.15,0,0,1-.13,1,3.21,3.21,0,0,1-.64,1,4.94,4.94,0,0,1-1,.84,4.7,4.7,0,0,1-1.2.56,4.41,4.41,0,0,1-1.28.19,2.83,2.83,0,0,1-1.14-.21,2.12,2.12,0,0,1-.78-.59,1.62,1.62,0,0,1-.36-.85A2.12,2.12,0,0,1,234.21,161.65Z"/><line class="cls-4" x1="240.6" y1="160.77" x2="240.6" y2="144.97"/><line class="cls-4" x1="250.06" y1="159.06" x2="259.45" y2="159.06"/><path d="M251.5,159.08a3.21,3.21,0,0,1,.63-1,4.58,4.58,0,0,1,1-.83,4.79,4.79,0,0,1,1.19-.56,4.68,4.68,0,0,1,1.29-.19,2.74,2.74,0,0,1,1.15.22,1.93,1.93,0,0,1,.78.57,1.77,1.77,0,0,1,.36.84,2,2,0,0,1-.14,1,3.11,3.11,0,0,1-.63,1,5,5,0,0,1-1,.84,4.7,4.7,0,0,1-2.48.75,2.65,2.65,0,0,1-1.13-.22,2,2,0,0,1-.78-.58,1.66,1.66,0,0,1-.36-.85A2.29,2.29,0,0,1,251.5,159.08Z"/><line class="cls-4" x1="257.9" y1="158.21" x2="257.9" y2="144.54"/><line class="cls-4" x1="267.35" y1="159.06" x2="276.75" y2="159.06"/><path d="M268.8,159.08a3.18,3.18,0,0,1,.62-1,5,5,0,0,1,2.17-1.39,4.68,4.68,0,0,1,1.29-.19,2.74,2.74,0,0,1,1.15.22,2.08,2.08,0,0,1,.78.57,1.66,1.66,0,0,1,.35.84,2,2,0,0,1-.13,1,3.49,3.49,0,0,1-.63,1,5,5,0,0,1-1,.84,4.67,4.67,0,0,1-1.2.55,4.43,4.43,0,0,1-1.28.2,2.67,2.67,0,0,1-1.14-.22A2,2,0,0,1,269,161a1.73,1.73,0,0,1-.35-.85A2,2,0,0,1,268.8,159.08Z"/><text class="cls-5" transform="translate(262.44 159.06)">#</text><line class="cls-4" x1="275.19" y1="158.21" x2="275.19" y2="144.11"/><path d="M285.88,156.52a3.21,3.21,0,0,1,.63-1,4.3,4.3,0,0,1,1-.83,4.79,4.79,0,0,1,1.19-.56,4.33,4.33,0,0,1,1.29-.19,2.91,2.91,0,0,1,1.15.21,2,2,0,0,1,.78.58,1.77,1.77,0,0,1,.36.84,2,2,0,0,1-.14,1,3.06,3.06,0,0,1-.63,1,5,5,0,0,1-1,.84,4.7,4.7,0,0,1-2.48.75,2.81,2.81,0,0,1-1.13-.22,2.1,2.1,0,0,1-.78-.58,1.66,1.66,0,0,1-.36-.85A2.28,2.28,0,0,1,285.88,156.52Z"/><line class="cls-4" x1="292.28" y1="155.65" x2="292.28" y2="143.69"/><polyline points="240.41 143.69 292.47 142.41 292.47 144.97 240.41 146.25"/><line class="cls-4" x1="309.57" y1="160.77" x2="309.57" y2="143.69"/><line class="cls-4" x1="301.73" y1="159.06" x2="311.13" y2="159.06"/><path d="M309.57,159.8a1.23,1.23,0,0,1,.16.5,2.62,2.62,0,0,1,0,.56,4,4,0,0,1-.09.52,2.94,2.94,0,0,1-.13.39,4.32,4.32,0,0,1-1.9,2.19,4.39,4.39,0,0,1-2.4.39l-.48-.06a3.82,3.82,0,0,1-.56-.14,2.94,2.94,0,0,1-.53-.27,1.33,1.33,0,0,1-.59-.95,2.44,2.44,0,0,1,0-.54,3.26,3.26,0,0,1,.09-.47c0-.14.08-.27.12-.38a3.4,3.4,0,0,1,.82-1.29,6,6,0,0,1,1-.8,4.37,4.37,0,0,1,2.7-.49l.41,0a2.27,2.27,0,0,1,.5.12,3.33,3.33,0,0,1,.5.25A1.08,1.08,0,0,1,309.57,159.8Zm-.47.35a.84.84,0,0,0-.4-.33,1.38,1.38,0,0,0-.51-.06,1.94,1.94,0,0,0-.56.12c-.19.07-.37.15-.54.23a7,7,0,0,0-.62.33l-.59.32c-.39.22-.79.47-1.2.74-.16.1-.31.21-.47.33a2.21,2.21,0,0,0-.4.41,1.14,1.14,0,0,0-.21.48.75.75,0,0,0,.48.83,1.13,1.13,0,0,0,.52,0,2.35,2.35,0,0,0,.57-.13,3.68,3.68,0,0,0,.53-.23c.23-.1.45-.21.65-.32l.6-.33.59-.33.6-.39a5,5,0,0,0,.44-.33,1.94,1.94,0,0,0,.4-.41,1.3,1.3,0,0,0,.22-.48A.69.69,0,0,0,309.1,160.15Z"/><text class="cls-8" transform="translate(232.17 174.44)">L</text><text class="cls-8" transform="translate(237.42 174.44)">u</text><text class="cls-8" transform="translate(249.84 174.44)">n</text><text class="cls-8" transform="translate(255.09 174.44)">a</text><text class="cls-8" transform="translate(269.76 174.44)">l</text><text class="cls-8" transform="translate(272.01 174.44)">i</text><text class="cls-8" transform="translate(284.97 174.44)">b</text><text class="cls-8" transform="translate(289.47 174.44)">e</text><text class="cls-8" transform="translate(301.14 174.44)">r</text><text class="cls-8" transform="translate(304.89 174.44)">i</text><text class="cls-8" transform="translate(307.14 174.44)">a</text><text class="cls-5" transform="translate(234.04 205.19)">”</text><line class="cls-4" x1="233.4" y1="205.19" x2="241.51" y2="205.19"/><path d="M303.18,218a3.18,3.18,0,0,1,.62-1,4.36,4.36,0,0,1,1-.83,4.63,4.63,0,0,1,1.19-.56,4.33,4.33,0,0,1,1.29-.19,2.91,2.91,0,0,1,1.15.21,2.21,2.21,0,0,1,.78.58,1.66,1.66,0,0,1,.35.84,2,2,0,0,1-.13,1,3.41,3.41,0,0,1-.63,1,5,5,0,0,1-1,.84,4.67,4.67,0,0,1-1.2.55,4.43,4.43,0,0,1-1.28.2,2.83,2.83,0,0,1-1.14-.22,2.1,2.1,0,0,1-.78-.58,1.73,1.73,0,0,1-.35-.85A2,2,0,0,1,303.18,218Z"/><line class="cls-4" x1="309.57" y1="217.15" x2="309.57" y2="196.22"/><path d="M320.26,215.46a3.37,3.37,0,0,1,.63-1,4.88,4.88,0,0,1,1-.83,4.76,4.76,0,0,1,1.19-.55,4.34,4.34,0,0,1,1.29-.2,2.91,2.91,0,0,1,1.15.22,1.93,1.93,0,0,1,.78.57,1.77,1.77,0,0,1,.36.84,2,2,0,0,1-.14,1,3,3,0,0,1-.63,1,4.74,4.74,0,0,1-1,.85,4.79,4.79,0,0,1-1.19.55,4.43,4.43,0,0,1-1.29.19,2.81,2.81,0,0,1-1.13-.21,2.12,2.12,0,0,1-.78-.59,1.62,1.62,0,0,1-.36-.85A2.25,2.25,0,0,1,320.26,215.46Z"/><line class="cls-4" x1="326.66" y1="214.58" x2="326.66" y2="195.37"/><path d="M337.56,212.9a3.33,3.33,0,0,1,.62-1,5,5,0,0,1,1-.83,4.61,4.61,0,0,1,1.19-.55,4.34,4.34,0,0,1,1.29-.2,2.74,2.74,0,0,1,1.15.22,2,2,0,0,1,.78.57,1.66,1.66,0,0,1,.35.84,2,2,0,0,1-.13,1,3.37,3.37,0,0,1-.63,1,5,5,0,0,1-1,.84,4.7,4.7,0,0,1-1.2.56,4.36,4.36,0,0,1-1.28.19,2.83,2.83,0,0,1-1.14-.21,2.12,2.12,0,0,1-.78-.59,1.7,1.7,0,0,1-.35-.85A2.12,2.12,0,0,1,337.56,212.9Z"/><line class="cls-4" x1="343.95" y1="212.02" x2="343.95" y2="194.51"/><path d="M354.86,210.33a3,3,0,0,1,.62-1,4.63,4.63,0,0,1,1-.83,4.57,4.57,0,0,1,1.18-.56,4.45,4.45,0,0,1,1.3-.19,2.7,2.7,0,0,1,1.14.22,1.93,1.93,0,0,1,.78.57,1.77,1.77,0,0,1,.36.84,2.1,2.1,0,0,1-.13,1,3.26,3.26,0,0,1-.64,1,4.7,4.7,0,0,1-2.18,1.39,4.43,4.43,0,0,1-1.28.2,2.67,2.67,0,0,1-1.14-.22,2,2,0,0,1-.78-.58,1.66,1.66,0,0,1-.36-.85A2.18,2.18,0,0,1,354.86,210.33Z"/><line class="cls-4" x1="361.25" y1="209.46" x2="361.25" y2="193.66"/><polyline points="309.38 194.94 361.44 192.38 361.44 194.94 309.38 197.5"/><text class="cls-8" transform="translate(302.64 235.94)">l</text><text class="cls-8" transform="translate(304.89 235.94)">u</text><text class="cls-8" transform="translate(318.6 235.94)">n</text><text class="cls-8" transform="translate(323.85 235.94)">a</text><text class="cls-8" transform="translate(336.27 235.94)">p</text><text class="cls-8" transform="translate(340.77 235.94)">a</text><text class="cls-8" transform="translate(350.19 235.94)">r</text><text class="cls-8" transform="translate(353.94 235.94)">a</text><text class="cls-8" transform="translate(358.44 235.94)">/</text><text class="cls-8" transform="translate(361.44 235.94)">a</text><line class="cls-4" x1="240.6" y1="276.08" x2="240.6" y2="259"/><path d="M240.6,275.11a1.38,1.38,0,0,1,.15.51,1.69,1.69,0,0,1,0,.55,4,4,0,0,1-.09.52,2.32,2.32,0,0,1-.12.39,3.83,3.83,0,0,1-.86,1.37,3.68,3.68,0,0,1-1.05.82,4.22,4.22,0,0,1-2.4.39l-.48-.06a2.78,2.78,0,0,1-.55-.14,2.65,2.65,0,0,1-.53-.27,1.12,1.12,0,0,1-.4-.41,1.32,1.32,0,0,1-.2-.54,2.35,2.35,0,0,1,0-.53,3.41,3.41,0,0,1,.09-.48c.05-.14.09-.27.13-.37a3.4,3.4,0,0,1,.82-1.3,6.47,6.47,0,0,1,1-.8,4.86,4.86,0,0,1,1.16-.43,4.37,4.37,0,0,1,1.55-.06l.41.05a2.65,2.65,0,0,1,1,.37A1.18,1.18,0,0,1,240.6,275.11Zm-.47.35a.84.84,0,0,0-.4-.33,1.43,1.43,0,0,0-.51-.06,2.35,2.35,0,0,0-.57.13,3.67,3.67,0,0,0-.53.22,7,7,0,0,0-.62.33l-.59.33c-.4.22-.8.46-1.21.73l-.46.33a2.21,2.21,0,0,0-.4.41,1.14,1.14,0,0,0-.21.48.67.67,0,0,0,.09.51.65.65,0,0,0,.39.32,1.13,1.13,0,0,0,.52.06,2.42,2.42,0,0,0,.56-.14c.19-.07.37-.14.54-.22l.64-.33.61-.33.58-.33c.19-.11.39-.24.61-.39l.44-.32a2.57,2.57,0,0,0,.4-.41,1.18,1.18,0,0,0,.21-.49A.65.65,0,0,0,240.13,275.46Z"/><line class="cls-4" x1="309.57" y1="276.08" x2="309.57" y2="259"/><path d="M309.57,275.11a1.22,1.22,0,0,1,.16.51,2.53,2.53,0,0,1,0,.55,4,4,0,0,1-.09.52,2.19,2.19,0,0,1-.13.39,4.32,4.32,0,0,1-1.9,2.19,4.22,4.22,0,0,1-2.4.39l-.48-.06a2.87,2.87,0,0,1-.56-.14,2.94,2.94,0,0,1-.53-.27,1.21,1.21,0,0,1-.4-.41,1.3,1.3,0,0,1-.19-.54,2.35,2.35,0,0,1,0-.53,3.41,3.41,0,0,1,.09-.48c0-.14.08-.27.12-.37a3.52,3.52,0,0,1,.82-1.3,6.5,6.5,0,0,1,1-.8,4.77,4.77,0,0,1,1.15-.43,4.38,4.38,0,0,1,1.55-.06l.41.05a2.3,2.3,0,0,1,.5.13,2.55,2.55,0,0,1,.5.24A1.25,1.25,0,0,1,309.57,275.11Zm-.47.35a.84.84,0,0,0-.4-.33,1.38,1.38,0,0,0-.51-.06,2.38,2.38,0,0,0-.56.13,4.35,4.35,0,0,0-.54.22,7,7,0,0,0-.62.33l-.59.33c-.39.22-.79.46-1.2.73-.16.1-.31.21-.47.33a2.57,2.57,0,0,0-.4.41,1.14,1.14,0,0,0-.21.48.74.74,0,0,0,.48.83,1.13,1.13,0,0,0,.52.06,2.37,2.37,0,0,0,.57-.14,5.29,5.29,0,0,0,.53-.22l.65-.33.6-.33.59-.33.6-.39c.14-.09.28-.2.44-.32a2.21,2.21,0,0,0,.4-.41,1.35,1.35,0,0,0,.22-.49A.7.7,0,0,0,309.1,275.46Z"/><text class="cls-8" transform="translate(232.17 297.44)">L</text><text class="cls-8" transform="translate(237.42 297.44)">u</text><text class="cls-8" transform="translate(303.01 297.44)">n</text><text class="cls-8" transform="translate(308.26 297.44)">a</text><line class="cls-4" x1="387.3" y1="94.15" x2="387.3" y2="77.06"/><path d="M380.91,95a3,3,0,0,1,.62-1,4.36,4.36,0,0,1,1-.83,4.63,4.63,0,0,1,1.19-.56,4.33,4.33,0,0,1,1.29-.19,3,3,0,0,1,1.15.21,2.09,2.09,0,0,1,.77.58,1.59,1.59,0,0,1,.36.84,2,2,0,0,1-.13,1,3.26,3.26,0,0,1-.64,1,4.7,4.7,0,0,1-2.18,1.39,4.43,4.43,0,0,1-1.28.2,2.83,2.83,0,0,1-1.14-.22,2.1,2.1,0,0,1-.78-.58,1.85,1.85,0,0,1-.36-.85A2.16,2.16,0,0,1,380.91,95Z"/><path d="M409.29,86.64a5.82,5.82,0,0,0-.94-.32,3.53,3.53,0,0,0-.74-.09,1.68,1.68,0,0,0-1.12.39,1.34,1.34,0,0,0-.46,1.1,1.19,1.19,0,0,0,.15.52,4.93,4.93,0,0,0,.36.53,5.52,5.52,0,0,0,.53.57l-.24.21a9.75,9.75,0,0,1-1.23-.9,7.25,7.25,0,0,1-.89-.94,2.31,2.31,0,0,1-.51-1.09,1.51,1.51,0,0,1,0-.7,1.83,1.83,0,0,1,.3-.63,1.79,1.79,0,0,1,.56-.45,2,2,0,0,1,.77-.21h.38a3.27,3.27,0,0,1,.45,0l.41.06.31.05a27.59,27.59,0,0,1-2.22-2.38q-.75-.93-.63-1.23l.44-.56a6.54,6.54,0,0,0,.59-.89,9.09,9.09,0,0,0,.51-1.09,3.08,3.08,0,0,0,.23-1.13,2.34,2.34,0,0,0-.23-.87c-.15-.35-.31-.68-.49-1s-.46-.76-.72-1.17l.29-.21,3.73,4.7A8.91,8.91,0,0,0,408,80.2a8,8,0,0,0-.62,1.16,3.11,3.11,0,0,0-.26,1.18,2.25,2.25,0,0,0,.11.74,3.73,3.73,0,0,0,.28.68,4.6,4.6,0,0,0,.37.6l.36.48c.06.08.15.19.27.32s.24.25.35.38l.3.36a.53.53,0,0,1,.13.21l0,.33Z"/><path d="M427.46,92.46a3.37,3.37,0,0,1,.63-1,4.88,4.88,0,0,1,1-.83,4.61,4.61,0,0,1,1.19-.55,4.34,4.34,0,0,1,1.29-.2,2.91,2.91,0,0,1,1.15.22,1.93,1.93,0,0,1,.78.57,1.77,1.77,0,0,1,.36.84,2.15,2.15,0,0,1-.14,1,3.18,3.18,0,0,1-.63,1,4.74,4.74,0,0,1-1,.85,5,5,0,0,1-1.2.55,4.36,4.36,0,0,1-1.28.19,2.9,2.9,0,0,1-1.14-.21,2,2,0,0,1-.77-.59,1.62,1.62,0,0,1-.36-.85A2.12,2.12,0,0,1,427.46,92.46Z"/><line class="cls-4" x1="433.85" y1="91.58" x2="433.85" y2="70.66"/><path d="M442.84,89.9a3.15,3.15,0,0,1,.62-1,5.18,5.18,0,0,1,1-.83,4.76,4.76,0,0,1,1.19-.55,4.46,4.46,0,0,1,1.3-.2,2.7,2.7,0,0,1,1.14.22,1.93,1.93,0,0,1,.78.57,1.77,1.77,0,0,1,.36.84,2.15,2.15,0,0,1-.13,1,3.21,3.21,0,0,1-.64,1,4.82,4.82,0,0,1-2.18,1.4,4.41,4.41,0,0,1-1.28.19,2.83,2.83,0,0,1-1.14-.21,2.12,2.12,0,0,1-.78-.59,1.62,1.62,0,0,1-.36-.85A2.14,2.14,0,0,1,442.84,89.9Z"/><line class="cls-4" x1="449.23" y1="89.02" x2="449.23" y2="70.66"/><path d="M458.85,87.33a3.21,3.21,0,0,1,.63-1,4.58,4.58,0,0,1,1-.83,4.79,4.79,0,0,1,1.19-.56,4.33,4.33,0,0,1,1.29-.19,2.74,2.74,0,0,1,1.15.22,1.93,1.93,0,0,1,.78.57,1.77,1.77,0,0,1,.36.84,2.11,2.11,0,0,1-.14,1,3.22,3.22,0,0,1-.63,1,5,5,0,0,1-1,.84,4.67,4.67,0,0,1-1.2.55A4.38,4.38,0,0,1,461,90a2.65,2.65,0,0,1-1.13-.22,1.86,1.86,0,0,1-.78-.58,1.66,1.66,0,0,1-.36-.85A2.16,2.16,0,0,1,458.85,87.33Z"/><line class="cls-4" x1="465.25" y1="86.46" x2="465.25" y2="70.66"/><path d="M476.15,92.46a3.15,3.15,0,0,1,.62-1,5,5,0,0,1,1-.83,4.61,4.61,0,0,1,1.19-.55,4.34,4.34,0,0,1,1.29-.2,3,3,0,0,1,1.15.22,2,2,0,0,1,.77.57,1.68,1.68,0,0,1,.36.84,2,2,0,0,1-.13,1,3.21,3.21,0,0,1-.64,1,4.44,4.44,0,0,1-1,.85,5,5,0,0,1-1.2.55,4.41,4.41,0,0,1-1.28.19,2.83,2.83,0,0,1-1.14-.21,2.12,2.12,0,0,1-.78-.59,1.71,1.71,0,0,1-.36-.85A2.14,2.14,0,0,1,476.15,92.46Z"/><line class="cls-4" x1="482.54" y1="91.58" x2="482.54" y2="70.66"/><polyline points="433.66 69.38 482.73 69.38 482.73 71.94 433.66 71.94"/><text class="cls-8" transform="translate(426.92 112.94)">l</text><text class="cls-8" transform="translate(429.17 112.94)">u</text><text class="cls-8" transform="translate(441.17 112.94)">n</text><text class="cls-8" transform="translate(446.42 112.94)">a</text><text class="cls-8" transform="translate(457.56 112.94)">p</text><text class="cls-8" transform="translate(462.06 112.94)">a</text><text class="cls-8" transform="translate(471.48 112.94)">r</text><text class="cls-8" transform="translate(475.23 112.94)">a</text><text class="cls-8" transform="translate(479.73 112.94)">/</text><text class="cls-8" transform="translate(482.73 112.94)">a</text><line class="cls-4" x1="387.3" y1="160.77" x2="387.3" y2="143.69"/><line class="cls-4" x1="379.46" y1="159.06" x2="388.86" y2="159.06"/><path d="M380.91,161.65a3.15,3.15,0,0,1,.62-1,5,5,0,0,1,1-.83,4.61,4.61,0,0,1,1.19-.55A4.34,4.34,0,0,1,385,159a2.78,2.78,0,0,1,1.15.22,2,2,0,0,1,.77.57,1.59,1.59,0,0,1,.36.84,2,2,0,0,1-.13,1,3.21,3.21,0,0,1-.64,1,4.82,4.82,0,0,1-2.18,1.4,4.41,4.41,0,0,1-1.28.19,2.83,2.83,0,0,1-1.14-.21,2.12,2.12,0,0,1-.78-.59,1.8,1.8,0,0,1-.36-.85A2.12,2.12,0,0,1,380.91,161.65Z"/><path d="M409.29,148.14a5.82,5.82,0,0,0-.94-.32,3.53,3.53,0,0,0-.74-.09,1.68,1.68,0,0,0-1.12.39,1.34,1.34,0,0,0-.46,1.1,1.19,1.19,0,0,0,.15.52,4.93,4.93,0,0,0,.36.53,5.52,5.52,0,0,0,.53.57l-.24.21a9.75,9.75,0,0,1-1.23-.9,7.25,7.25,0,0,1-.89-.94,2.31,2.31,0,0,1-.51-1.09,1.51,1.51,0,0,1,0-.7,1.83,1.83,0,0,1,.3-.63,1.79,1.79,0,0,1,.56-.45,2,2,0,0,1,.77-.21h.38a3.27,3.27,0,0,1,.45,0l.41.06.31,0a27.59,27.59,0,0,1-2.22-2.38q-.75-.93-.63-1.23l.44-.56a6.54,6.54,0,0,0,.59-.89,9.09,9.09,0,0,0,.51-1.09,3.08,3.08,0,0,0,.23-1.13,2.34,2.34,0,0,0-.23-.87c-.15-.35-.31-.68-.49-1s-.46-.76-.72-1.17l.29-.21,3.73,4.7a8.91,8.91,0,0,0-.88,1.25,8,8,0,0,0-.62,1.16,3.11,3.11,0,0,0-.26,1.18,2.25,2.25,0,0,0,.11.74,3.73,3.73,0,0,0,.28.68,4.6,4.6,0,0,0,.37.6l.36.48c.06.08.15.19.27.32s.24.25.35.38l.3.36a.53.53,0,0,1,.13.21l0,.33Z"/><line class="cls-4" x1="433.85" y1="155.65" x2="433.85" y2="138.56"/><path d="M427.46,156.52a3.21,3.21,0,0,1,.63-1,4.3,4.3,0,0,1,1-.83,4.63,4.63,0,0,1,1.19-.56,4.33,4.33,0,0,1,1.29-.19,2.91,2.91,0,0,1,1.15.21,2,2,0,0,1,.78.58,1.77,1.77,0,0,1,.36.84,2.12,2.12,0,0,1-.14,1,3.22,3.22,0,0,1-.63,1,5,5,0,0,1-1,.84,4.67,4.67,0,0,1-1.2.55,4.38,4.38,0,0,1-1.28.2,2.9,2.9,0,0,1-1.14-.22,2,2,0,0,1-.77-.58,1.66,1.66,0,0,1-.36-.85A2.15,2.15,0,0,1,427.46,156.52Z"/><line class="cls-4" x1="465.25" y1="158.21" x2="465.25" y2="141.13"/><line class="cls-4" x1="457.41" y1="159.06" x2="466.8" y2="159.06"/><path d="M458.85,159.08a3.21,3.21,0,0,1,.63-1,4.58,4.58,0,0,1,1-.83,4.79,4.79,0,0,1,1.19-.56,4.68,4.68,0,0,1,1.29-.19,2.74,2.74,0,0,1,1.15.22,1.93,1.93,0,0,1,.78.57,1.77,1.77,0,0,1,.36.84,2.16,2.16,0,0,1-.14,1,3.29,3.29,0,0,1-.63,1,5,5,0,0,1-1,.84,4.67,4.67,0,0,1-1.2.55,4.38,4.38,0,0,1-1.28.2,2.65,2.65,0,0,1-1.13-.22,1.86,1.86,0,0,1-.78-.58,1.66,1.66,0,0,1-.36-.85A2.16,2.16,0,0,1,458.85,159.08Z"/><text class="cls-5" transform="translate(452.49 159.06)">#</text><text class="cls-8" transform="translate(379.24 174.44)">n</text><text class="cls-8" transform="translate(384.49 174.44)">a</text><text class="cls-8" transform="translate(426.17 174.44)">p</text><text class="cls-8" transform="translate(430.67 174.44)">a</text><text class="cls-8" transform="translate(454.19 174.44)">r</text><text class="cls-8" transform="translate(457.94 174.44)">a</text><text class="cls-8" transform="translate(462.44 174.44)">/</text><text class="cls-8" transform="translate(465.44 174.44)">a</text><line class="cls-4" x1="387.3" y1="209.46" x2="387.3" y2="192.38"/><path d="M380.91,210.33a3,3,0,0,1,.62-1,5,5,0,0,1,2.17-1.39,4.33,4.33,0,0,1,1.29-.19,2.78,2.78,0,0,1,1.15.22,2,2,0,0,1,.77.57,1.59,1.59,0,0,1,.36.84,2,2,0,0,1-.13,1,3.26,3.26,0,0,1-.64,1,4.7,4.7,0,0,1-2.18,1.39,4.43,4.43,0,0,1-1.28.2,2.67,2.67,0,0,1-1.14-.22,2,2,0,0,1-.78-.58,1.85,1.85,0,0,1-.36-.85A2.18,2.18,0,0,1,380.91,210.33Z"/><path d="M409.29,209.64a5.82,5.82,0,0,0-.94-.32,3.53,3.53,0,0,0-.74-.09,1.68,1.68,0,0,0-1.12.39,1.34,1.34,0,0,0-.46,1.1,1.19,1.19,0,0,0,.15.52,4.93,4.93,0,0,0,.36.53,5.52,5.52,0,0,0,.53.57l-.24.21a9.75,9.75,0,0,1-1.23-.9,7.25,7.25,0,0,1-.89-.94,2.31,2.31,0,0,1-.51-1.09,1.51,1.51,0,0,1,0-.7,1.83,1.83,0,0,1,.3-.63,1.79,1.79,0,0,1,.56-.45,2,2,0,0,1,.77-.21h.38a3.27,3.27,0,0,1,.45,0l.41.06.31,0a27.59,27.59,0,0,1-2.22-2.38q-.75-.93-.63-1.23l.44-.56a6.54,6.54,0,0,0,.59-.89,9.09,9.09,0,0,0,.51-1.09,3.08,3.08,0,0,0,.23-1.13,2.34,2.34,0,0,0-.23-.87c-.15-.35-.31-.68-.49-1s-.46-.76-.72-1.17l.29-.21,3.73,4.7a8.91,8.91,0,0,0-.88,1.25,8,8,0,0,0-.62,1.16,3.11,3.11,0,0,0-.26,1.18,2.25,2.25,0,0,0,.11.74,3.73,3.73,0,0,0,.28.68,4.6,4.6,0,0,0,.37.6l.36.48c.06.08.15.19.27.32s.24.25.35.38l.3.36a.53.53,0,0,1,.13.21l0,.33Z"/><line class="cls-4" x1="433.85" y1="209.46" x2="433.85" y2="192.38"/><path d="M427.46,210.33a3.21,3.21,0,0,1,.63-1,4.58,4.58,0,0,1,1-.83,4.63,4.63,0,0,1,1.19-.56,4.33,4.33,0,0,1,1.29-.19,2.74,2.74,0,0,1,1.15.22,1.93,1.93,0,0,1,.78.57,1.77,1.77,0,0,1,.36.84,2.11,2.11,0,0,1-.14,1,3.22,3.22,0,0,1-.63,1,5,5,0,0,1-1,.84,4.67,4.67,0,0,1-1.2.55,4.38,4.38,0,0,1-1.28.2,2.73,2.73,0,0,1-1.14-.22,1.89,1.89,0,0,1-.77-.58,1.66,1.66,0,0,1-.36-.85A2.16,2.16,0,0,1,427.46,210.33Z"/><path d="M458.85,215.46a3.37,3.37,0,0,1,.63-1,4.88,4.88,0,0,1,1-.83,4.76,4.76,0,0,1,1.19-.55,4.34,4.34,0,0,1,1.29-.2,2.91,2.91,0,0,1,1.15.22,1.93,1.93,0,0,1,.78.57,1.77,1.77,0,0,1,.36.84,2.15,2.15,0,0,1-.14,1,3.18,3.18,0,0,1-.63,1,4.74,4.74,0,0,1-1,.85,5,5,0,0,1-1.2.55,4.36,4.36,0,0,1-1.28.19,2.81,2.81,0,0,1-1.13-.21,2,2,0,0,1-.78-.59,1.62,1.62,0,0,1-.36-.85A2.12,2.12,0,0,1,458.85,215.46Z"/><line class="cls-4" x1="465.25" y1="214.58" x2="465.25" y2="201.34"/><path d="M476.15,212.9a3.15,3.15,0,0,1,.62-1,5,5,0,0,1,1-.83,4.61,4.61,0,0,1,1.19-.55,4.34,4.34,0,0,1,1.29-.2,2.78,2.78,0,0,1,1.15.22,2,2,0,0,1,.77.57,1.68,1.68,0,0,1,.36.84,2,2,0,0,1-.13,1,3.21,3.21,0,0,1-.64,1,4.82,4.82,0,0,1-2.18,1.4,4.41,4.41,0,0,1-1.28.19,2.83,2.83,0,0,1-1.14-.21,2.12,2.12,0,0,1-.78-.59,1.71,1.71,0,0,1-.36-.85A2.14,2.14,0,0,1,476.15,212.9Z"/><line class="cls-4" x1="482.54" y1="212.02" x2="482.54" y2="200.06"/><polyline points="465.05 200.06 482.73 198.78 482.73 201.34 465.05 202.63"/><text class="cls-8" transform="translate(376.62 235.94)">m</text><text class="cls-8" transform="translate(383.37 235.94)">a</text><text class="cls-8" transform="translate(387.87 235.94)">r</text><text class="cls-8" transform="translate(426.17 235.94)">p</text><text class="cls-8" transform="translate(430.67 235.94)">a</text><text class="cls-8" transform="translate(456.54 235.94)">r</text><text class="cls-8" transform="translate(460.29 235.94)">a</text><text class="cls-8" transform="translate(464.79 235.94)">/</text><text class="cls-8" transform="translate(467.79 235.94)">a</text><line class="cls-4" x1="387.3" y1="276.08" x2="387.3" y2="259"/><path d="M380.91,277a3.15,3.15,0,0,1,.62-1,5,5,0,0,1,1-.83,4.61,4.61,0,0,1,1.19-.55,4.34,4.34,0,0,1,1.29-.2,3,3,0,0,1,1.15.22,2,2,0,0,1,.77.57,1.59,1.59,0,0,1,.36.84,2,2,0,0,1-.13,1,3.21,3.21,0,0,1-.64,1,4.44,4.44,0,0,1-1,.85,5,5,0,0,1-1.2.55,4.41,4.41,0,0,1-1.28.19,2.83,2.83,0,0,1-1.14-.21,2.12,2.12,0,0,1-.78-.59,1.8,1.8,0,0,1-.36-.85A2.14,2.14,0,0,1,380.91,277Z"/><path d="M409.29,271.14a5.82,5.82,0,0,0-.94-.32,3.53,3.53,0,0,0-.74-.09,1.68,1.68,0,0,0-1.12.39,1.34,1.34,0,0,0-.46,1.1,1.19,1.19,0,0,0,.15.52,4.93,4.93,0,0,0,.36.53,5.52,5.52,0,0,0,.53.57l-.24.21a9.75,9.75,0,0,1-1.23-.9,7.25,7.25,0,0,1-.89-.94,2.31,2.31,0,0,1-.51-1.09,1.51,1.51,0,0,1,0-.7,1.83,1.83,0,0,1,.3-.63,1.79,1.79,0,0,1,.56-.45,2,2,0,0,1,.77-.21h.38a3.27,3.27,0,0,1,.45,0l.41.06.31.05a27.59,27.59,0,0,1-2.22-2.38q-.75-.93-.63-1.23l.44-.56a6.54,6.54,0,0,0,.59-.89,9.09,9.09,0,0,0,.51-1.09,3.08,3.08,0,0,0,.23-1.13,2.34,2.34,0,0,0-.23-.87c-.15-.35-.31-.68-.49-1s-.46-.76-.72-1.17l.29-.21,3.73,4.7a8.91,8.91,0,0,0-.88,1.25,8,8,0,0,0-.62,1.16,3.11,3.11,0,0,0-.26,1.18,2.25,2.25,0,0,0,.11.74,3.73,3.73,0,0,0,.28.68,4.6,4.6,0,0,0,.37.6l.36.48c.06.08.15.19.27.32s.24.25.35.38l.3.36a.53.53,0,0,1,.13.21l0,.33Z"/><line class="cls-4" x1="433.85" y1="270.96" x2="433.85" y2="253.88"/><path d="M427.46,271.83a3.21,3.21,0,0,1,.63-1,4.58,4.58,0,0,1,1-.83,4.63,4.63,0,0,1,1.19-.56,4.33,4.33,0,0,1,1.29-.19,2.74,2.74,0,0,1,1.15.22,1.93,1.93,0,0,1,.78.57,1.77,1.77,0,0,1,.36.84,2.11,2.11,0,0,1-.14,1,3.22,3.22,0,0,1-.63,1,5,5,0,0,1-1,.84,4.67,4.67,0,0,1-1.2.55,4.38,4.38,0,0,1-1.28.2,2.73,2.73,0,0,1-1.14-.22,1.89,1.89,0,0,1-.77-.58,1.66,1.66,0,0,1-.36-.85A2.16,2.16,0,0,1,427.46,271.83Z"/><line class="cls-4" x1="465.25" y1="270.96" x2="465.25" y2="253.88"/><path d="M458.85,271.83a3.21,3.21,0,0,1,.63-1,4.58,4.58,0,0,1,1-.83,4.79,4.79,0,0,1,1.19-.56,4.33,4.33,0,0,1,1.29-.19,2.74,2.74,0,0,1,1.15.22,1.93,1.93,0,0,1,.78.57,1.77,1.77,0,0,1,.36.84,2.11,2.11,0,0,1-.14,1,3.22,3.22,0,0,1-.63,1,5,5,0,0,1-1,.84,4.67,4.67,0,0,1-1.2.55,4.38,4.38,0,0,1-1.28.2,2.65,2.65,0,0,1-1.13-.22,1.86,1.86,0,0,1-.78-.58,1.66,1.66,0,0,1-.36-.85A2.16,2.16,0,0,1,458.85,271.83Z"/><text class="cls-5" transform="translate(452.49 271.81)">b</text><text class="cls-8" transform="translate(426.17 297.44)">p</text><text class="cls-8" transform="translate(430.67 297.44)">a</text><text class="cls-8" transform="translate(454.19 297.44)">r</text><text class="cls-8" transform="translate(457.94 297.44)">a</text><text class="cls-8" transform="translate(462.44 297.44)">/</text><text class="cls-8" transform="translate(465.44 297.44)">a</text><text class="cls-5" transform="translate(499.9 79.63)">w</text><text class="cls-8" transform="translate(499.9 112.94)">m</text><text class="cls-8" transform="translate(506.65 112.94)">a</text><text class="cls-8" transform="translate(511.15 112.94)">r</text><text class="cls-5" transform="translate(499.9 153.94)">w</text><text class="cls-8" transform="translate(495.78 174.44)">m</text><text class="cls-8" transform="translate(502.53 174.44)">a</text><text class="cls-8" transform="translate(507.03 174.44)">r</text><text class="cls-5" transform="translate(499.9 210.31)">w</text><text class="cls-8" transform="translate(495.78 235.94)">m</text><text class="cls-8" transform="translate(502.53 235.94)">a</text><text class="cls-8" transform="translate(507.03 235.94)">r</text><line class="cls-4" x1="506.46" y1="273.52" x2="506.46" y2="256.44"/><path d="M506.46,272.55a1.39,1.39,0,0,1,.15.5,2.62,2.62,0,0,1,0,.56,4,4,0,0,1-.09.52,3.11,3.11,0,0,1-.12.39,3.83,3.83,0,0,1-.86,1.37,3.68,3.68,0,0,1-1.05.82,4.39,4.39,0,0,1-2.4.39l-.48-.06a2.78,2.78,0,0,1-.55-.14,2.65,2.65,0,0,1-.53-.27,1.12,1.12,0,0,1-.4-.41,1.32,1.32,0,0,1-.2-.54,2.44,2.44,0,0,1,0-.54,3.26,3.26,0,0,1,.09-.47c0-.14.09-.27.13-.38A3.29,3.29,0,0,1,501,273a5.92,5.92,0,0,1,1-.8,4.86,4.86,0,0,1,1.16-.43,4.37,4.37,0,0,1,1.55-.06l.41.05a2.42,2.42,0,0,1,.5.12,3.23,3.23,0,0,1,.49.25A1.11,1.11,0,0,1,506.46,272.55Zm-.47.35a.84.84,0,0,0-.4-.33,1.43,1.43,0,0,0-.51-.06,1.94,1.94,0,0,0-.57.12,5.27,5.27,0,0,0-.53.23q-.35.17-.63.33a6.29,6.29,0,0,1-.58.32c-.4.22-.8.47-1.21.74l-.46.33a1.94,1.94,0,0,0-.4.41,1.3,1.3,0,0,0-.22.48.69.69,0,0,0,.1.5.63.63,0,0,0,.39.33,1.12,1.12,0,0,0,.52.05,2.38,2.38,0,0,0,.56-.13,4.38,4.38,0,0,0,.54-.23c.23-.1.44-.21.64-.32l.61-.33.58-.33c.19-.11.39-.24.61-.39l.44-.33a2.21,2.21,0,0,0,.4-.41,1.14,1.14,0,0,0,.21-.48A.69.69,0,0,0,506,272.9Z"/><line class="cls-4" x1="533.83" y1="264.98" x2="533.83" y2="282.06"/><path d="M533.8,264.15a3.37,3.37,0,0,1,.63-1,4.88,4.88,0,0,1,1-.83,4.76,4.76,0,0,1,1.19-.55,4.45,4.45,0,0,1,1.29-.2,2.74,2.74,0,0,1,1.15.22,1.93,1.93,0,0,1,.78.57,1.77,1.77,0,0,1,.36.84,2.15,2.15,0,0,1-.13,1,3.21,3.21,0,0,1-.64,1,4.94,4.94,0,0,1-1,.84,4.7,4.7,0,0,1-1.2.56,4.41,4.41,0,0,1-1.28.19,2.83,2.83,0,0,1-1.14-.21A2.12,2.12,0,0,1,534,266a1.62,1.62,0,0,1-.36-.85A2.23,2.23,0,0,1,533.8,264.15Z"/><line class="cls-4" x1="561.13" y1="273.52" x2="561.13" y2="256.44"/><path d="M554.73,274.4a3.37,3.37,0,0,1,.63-1,4.88,4.88,0,0,1,1-.83,4.76,4.76,0,0,1,1.19-.55,4.34,4.34,0,0,1,1.29-.2A2.74,2.74,0,0,1,560,272a1.93,1.93,0,0,1,.78.57,1.77,1.77,0,0,1,.36.84,2.16,2.16,0,0,1-.14,1,3.18,3.18,0,0,1-.63,1,5,5,0,0,1-1,.84,4.7,4.7,0,0,1-1.2.56,4.36,4.36,0,0,1-1.28.19,2.81,2.81,0,0,1-1.13-.21,2,2,0,0,1-.78-.59,1.62,1.62,0,0,1-.36-.85A2.12,2.12,0,0,1,554.73,274.4Z"/><text class="cls-8" transform="translate(495.78 297.44)">m</text><text class="cls-8" transform="translate(502.53 297.44)">a</text><text class="cls-8" transform="translate(507.03 297.44)">r</text><text class="cls-8" transform="translate(532.51 297.44)">p</text><text class="cls-8" transform="translate(537.01 297.44)">a</text><text class="cls-8" transform="translate(550.07 297.44)">r</text><text class="cls-8" transform="translate(553.82 297.44)">a</text><text class="cls-8" transform="translate(558.32 297.44)">/</text><text class="cls-8" transform="translate(561.32 297.44)">a</text><path d="M105.49,91.37c2.35,4.27,9.18,4.27,11.53,0l-.19-.1c-2.16,3.09-9,3.09-11.15,0l-.19.1"/><path d="M105.49,165.47c2.35,3.84,9.18,3.84,11.53,0l-.18-.11c-2.17,2.67-9,2.67-11.17,0l-.18.11"/><path d="M105.49,221.84c2.35,3.85,9.18,3.85,11.53,0l-.18-.11c-2.17,2.68-9,2.68-11.17,0l-.18.11"/><path d="M105.49,280.78c2.35,3.84,9.18,3.84,11.53,0l-.18-.11c-2.17,2.67-9,2.67-11.17,0l-.18.11"/><path d="M307.93,99.06c14.73,8.33,59.57,8.33,74.31,0l-.11-.19c-14.63,7.23-59.47,7.23-74.1,0l-.1.19"/><path d="M307.93,165.47c14.73,8.33,59.57,8.33,74.31,0l-.11-.19c-14.63,7.24-59.47,7.24-74.1,0l-.1.19"/><path d="M307.93,280.78c14.73,8.33,59.57,8.33,74.31,0l-.11-.18c-14.63,7.23-59.47,7.23-74.1,0l-.1.18"/><path d="M505.88,75.57c13.88-8.12,55.73-8.12,69.61,0l-.1.18c-13.78-7-55.63-7-69.4,0l-.11-.18"/><line class="cls-4" x1="108.05" y1="112.72" x2="122.15" y2="112.72"/><line class="cls-4" x1="108.05" y1="174.22" x2="122.15" y2="174.22"/><line class="cls-4" x1="108.05" y1="235.72" x2="122.15" y2="235.72"/><line class="cls-4" x1="108.05" y1="297.22" x2="122.15" y2="297.22"/><text class="cls-8" transform="translate(170.29 112.94)">-</text><text class="cls-8" transform="translate(201.68 112.94)">-</text><text class="cls-8" transform="translate(222.4 112.94)">-</text><text class="cls-8" transform="translate(271.41 112.94)">-</text><line class="cls-4" x1="314.55" y1="112.72" x2="387.58" y2="112.72"/><text class="cls-8" transform="translate(436.37 112.94)">-</text><text class="cls-8" transform="translate(467.54 112.94)">-</text><text class="cls-8" transform="translate(492.1 112.94)">-</text><line class="cls-4" x1="516.77" y1="112.72" x2="572.93" y2="112.72"/><text class="cls-8" transform="translate(244.82 174.44)">-</text><text class="cls-8" transform="translate(278.13 174.44)">-</text><text class="cls-8" transform="translate(295.75 174.44)">-</text><text class="cls-8" transform="translate(344.01 174.44)">-</text><text class="cls-8" transform="translate(443.2 174.44)">-</text><text class="cls-8" transform="translate(481.42 174.44)">-</text><text class="cls-8" transform="translate(312.94 235.94)">-</text><text class="cls-8" transform="translate(346.25 235.94)">-</text><text class="cls-8" transform="translate(369.74 235.94)">-</text><text class="cls-8" transform="translate(444.38 235.94)">-</text><text class="cls-8" transform="translate(482.6 235.94)">-</text><line class="cls-4" x1="314.55" y1="297.22" x2="387.58" y2="297.22"/><text class="cls-8" transform="translate(271.41 297.44)">-</text><text class="cls-8" transform="translate(443.2 297.44)">-</text><text class="cls-8" transform="translate(481.42 297.44)">-</text><text class="cls-8" transform="translate(544.31 297.44)">-</text><text class="cls-8" transform="translate(569.08 297.44)">-</text><line class="cls-4" x1="72.16" y1="335.23" x2="72.16" y2="540.23"/><text class="cls-5" transform="translate(77.52 350.61)">&amp;</text><text class="cls-5" transform="translate(77.52 412.11)">&amp;</text><text class="cls-5" transform="translate(77.52 473.61)">V</text><text class="cls-5" transform="translate(77.52 524.86)">?</text><text class="cls-5" transform="translate(97.59 335.23)">#</text><text class="cls-5" transform="translate(97.59 396.73)">#</text><text class="cls-5" transform="translate(97.59 458.23)">#</text><text class="cls-5" transform="translate(97.59 524.86)">#</text><line class="cls-4" x1="233.81" y1="335.23" x2="233.81" y2="355.73"/><line class="cls-4" x1="233.81" y1="396.73" x2="233.81" y2="417.23"/><line class="cls-4" x1="233.81" y1="458.24" x2="233.81" y2="478.73"/><line class="cls-4" x1="233.81" y1="519.74" x2="233.81" y2="540.23"/><line class="cls-4" x1="336.31" y1="335.23" x2="336.31" y2="355.73"/><line class="cls-4" x1="336.31" y1="396.73" x2="336.31" y2="417.23"/><line class="cls-4" x1="336.31" y1="458.24" x2="336.31" y2="478.73"/><line class="cls-4" x1="336.31" y1="519.74" x2="336.31" y2="540.23"/><line class="cls-4" x1="478.74" y1="335.23" x2="478.74" y2="355.73"/><line class="cls-4" x1="478.74" y1="396.73" x2="478.74" y2="417.23"/><line class="cls-4" x1="478.74" y1="458.24" x2="478.74" y2="478.73"/><line class="cls-4" x1="478.74" y1="519.74" x2="478.74" y2="540.23"/><line class="cls-4" x1="575.73" y1="335.23" x2="575.73" y2="355.73"/><line class="cls-4" x1="575.73" y1="396.73" x2="575.73" y2="417.23"/><line class="cls-4" x1="575.73" y1="458.24" x2="575.73" y2="478.73"/><line class="cls-4" x1="575.73" y1="519.74" x2="575.73" y2="540.23"/><line class="cls-4" x1="71.96" y1="335.23" x2="575.92" y2="335.23"/><line class="cls-4" x1="71.96" y1="340.36" x2="575.92" y2="340.36"/><line class="cls-4" x1="71.96" y1="345.48" x2="575.92" y2="345.48"/><line class="cls-4" x1="71.96" y1="350.61" x2="575.92" y2="350.61"/><line class="cls-4" x1="71.96" y1="355.73" x2="575.92" y2="355.73"/><text class="cls-6" transform="translate(49.75 349.33)">S</text><line class="cls-4" x1="71.96" y1="396.73" x2="575.92" y2="396.73"/><line class="cls-4" x1="71.96" y1="401.86" x2="575.92" y2="401.86"/><line class="cls-4" x1="71.96" y1="406.98" x2="575.92" y2="406.98"/><line class="cls-4" x1="71.96" y1="412.11" x2="575.92" y2="412.11"/><line class="cls-4" x1="71.96" y1="417.23" x2="575.92" y2="417.23"/><text class="cls-6" transform="translate(47.62 410.83)">A</text><line class="cls-4" x1="71.96" y1="458.24" x2="575.92" y2="458.24"/><line class="cls-4" x1="71.96" y1="463.36" x2="575.92" y2="463.36"/><line class="cls-4" x1="71.96" y1="468.48" x2="575.92" y2="468.48"/><line class="cls-4" x1="71.96" y1="473.61" x2="575.92" y2="473.61"/><line class="cls-4" x1="71.96" y1="478.73" x2="575.92" y2="478.73"/><text class="cls-6" transform="translate(49.12 472.33)">T</text><line class="cls-4" x1="71.96" y1="519.74" x2="575.92" y2="519.74"/><line class="cls-4" x1="71.96" y1="524.86" x2="575.92" y2="524.86"/><line class="cls-4" x1="71.96" y1="529.98" x2="575.92" y2="529.98"/><line class="cls-4" x1="71.96" y1="535.11" x2="575.92" y2="535.11"/><line class="cls-4" x1="71.96" y1="540.23" x2="575.92" y2="540.23"/><text class="cls-6" transform="translate(48.26 533.83)">B</text><path d="M68.76,332.67c6.41,0,7.69-.85,9.4-2.56-1.07,3-3.63,3.84-7.48,3.84V541.52c3.85,0,6.41.85,7.48,3.84-1.71-1.71-3-2.56-9.4-2.56"/><text class="cls-7" transform="translate(73.24 325.84)">4</text><text class="cls-7" transform="translate(77.75 325.84)">7</text><line class="cls-4" x1="114.44" y1="343.78" x2="114.44" y2="360.86"/><path d="M114.41,342.94a3,3,0,0,1,.62-1,5,5,0,0,1,2.17-1.39,4.33,4.33,0,0,1,1.29-.19,2.91,2.91,0,0,1,1.15.21,2.09,2.09,0,0,1,.77.58,1.59,1.59,0,0,1,.36.84,2,2,0,0,1-.13,1,3.26,3.26,0,0,1-.64,1,4.7,4.7,0,0,1-2.18,1.39,4.43,4.43,0,0,1-1.28.2,2.67,2.67,0,0,1-1.14-.22,2,2,0,0,1-.78-.58,1.85,1.85,0,0,1-.36-.85A2.18,2.18,0,0,1,114.41,342.94Z"/><path d="M146.21,349.93a5.46,5.46,0,0,0-1-.31,3,3,0,0,0-.74-.1,1.65,1.65,0,0,0-1.11.39A1.36,1.36,0,0,0,143,351a1.12,1.12,0,0,0,.15.51,2.75,2.75,0,0,0,.36.53,4.72,4.72,0,0,0,.53.58l-.24.2a7.22,7.22,0,0,1-1.23-.9,6.63,6.63,0,0,1-.9-.93,2.32,2.32,0,0,1-.5-1.1,1.61,1.61,0,0,1,0-.69,1.69,1.69,0,0,1,.31-.63,1.75,1.75,0,0,1,.55-.45,2.09,2.09,0,0,1,.77-.22h.39a3.12,3.12,0,0,1,.44.05l.41.06.32,0a26.06,26.06,0,0,1-2.22-2.38q-.75-.94-.63-1.23l.44-.56a7.81,7.81,0,0,0,.59-.9,8.94,8.94,0,0,0,.51-1.08,3.07,3.07,0,0,0,.22-1.13,2.3,2.3,0,0,0-.22-.87c-.15-.35-.32-.69-.49-1l-.72-1.16.29-.21,3.73,4.7a8.45,8.45,0,0,0-.89,1.25,7.83,7.83,0,0,0-.61,1.15,3,3,0,0,0-.27,1.18,2.36,2.36,0,0,0,.12.75,3.71,3.71,0,0,0,.27.68,4.92,4.92,0,0,0,.37.59c.14.19.26.35.37.48a2.08,2.08,0,0,0,.27.32l.35.39.29.36a.62.62,0,0,1,.14.21l0,.32Z"/><path d="M167.79,353.19a3.21,3.21,0,0,1,.63-1,4.58,4.58,0,0,1,1-.83,4.79,4.79,0,0,1,1.19-.56,4.38,4.38,0,0,1,1.29-.19,2.91,2.91,0,0,1,1.15.21,2,2,0,0,1,.78.58,1.77,1.77,0,0,1,.36.84,2.1,2.1,0,0,1-.13,1,3.26,3.26,0,0,1-.64,1,5.24,5.24,0,0,1-1,.84,4.67,4.67,0,0,1-1.2.55,4.43,4.43,0,0,1-1.28.2,2.67,2.67,0,0,1-1.14-.22,2.1,2.1,0,0,1-.78-.58,1.66,1.66,0,0,1-.36-.85A2.29,2.29,0,0,1,167.79,353.19Z"/><line class="cls-4" x1="174.19" y1="352.32" x2="174.19" y2="333.95"/><path d="M184.24,350.63a3,3,0,0,1,.62-1,4.36,4.36,0,0,1,1-.83,4.57,4.57,0,0,1,1.18-.56,4.45,4.45,0,0,1,1.3-.19,2.86,2.86,0,0,1,1.14.21,2,2,0,0,1,.78.58,1.77,1.77,0,0,1,.36.84,2.11,2.11,0,0,1-.13,1,3.26,3.26,0,0,1-.64,1,4.7,4.7,0,0,1-2.18,1.39,4.43,4.43,0,0,1-1.28.2,2.83,2.83,0,0,1-1.14-.22,2.1,2.1,0,0,1-.78-.58,1.66,1.66,0,0,1-.36-.85A2.16,2.16,0,0,1,184.24,350.63Z"/><line class="cls-4" x1="190.63" y1="349.76" x2="190.63" y2="333.1"/><path d="M200.68,350.63a3.18,3.18,0,0,1,.62-1,4.36,4.36,0,0,1,1-.83,4.63,4.63,0,0,1,1.19-.56,4.33,4.33,0,0,1,1.29-.19,2.91,2.91,0,0,1,1.15.21,2.21,2.21,0,0,1,.78.58,1.66,1.66,0,0,1,.35.84,2,2,0,0,1-.13,1,3.41,3.41,0,0,1-.63,1,5,5,0,0,1-1,.84,4.67,4.67,0,0,1-1.2.55,4.43,4.43,0,0,1-1.28.2,2.83,2.83,0,0,1-1.14-.22,2.1,2.1,0,0,1-.78-.58,1.73,1.73,0,0,1-.35-.85A2,2,0,0,1,200.68,350.63Z"/><text class="cls-5" transform="translate(194.32 350.61)">#</text><line class="cls-4" x1="207.07" y1="349.76" x2="207.07" y2="332.25"/><path d="M217.34,348.07a3.15,3.15,0,0,1,.62-1,5.18,5.18,0,0,1,1-.83,4.76,4.76,0,0,1,1.19-.55,4.45,4.45,0,0,1,1.29-.2,2.91,2.91,0,0,1,1.15.22,1.93,1.93,0,0,1,.78.57,1.77,1.77,0,0,1,.36.84,2.14,2.14,0,0,1-.13,1,3.21,3.21,0,0,1-.64,1,4.68,4.68,0,0,1-1,.85,5,5,0,0,1-1.2.55,4.41,4.41,0,0,1-1.28.19,2.83,2.83,0,0,1-1.14-.21,2.12,2.12,0,0,1-.78-.59,1.62,1.62,0,0,1-.36-.85A2.14,2.14,0,0,1,217.34,348.07Z"/><line class="cls-4" x1="223.73" y1="347.19" x2="223.73" y2="331.39"/><polyline points="174 332.67 223.92 330.11 223.92 332.67 174 335.24"/><text class="cls-8" transform="translate(164.63 376.23)">m</text><text class="cls-8" transform="translate(171.38 376.23)">i</text><text class="cls-8" transform="translate(173.63 376.23)">s</text><text class="cls-8" transform="translate(184.29 376.23)">t</text><text class="cls-8" transform="translate(187.29 376.23)">e</text><text class="cls-8" transform="translate(198.64 376.23)">r</text><text class="cls-8" transform="translate(202.39 376.23)">i</text><text class="cls-8" transform="translate(204.64 376.23)">o</text><text class="cls-8" transform="translate(214.55 376.23)">s</text><text class="cls-8" transform="translate(218.3 376.23)">a</text><text class="cls-8" transform="translate(222.8 376.23)">s</text><path d="M119.51,411.43a5.38,5.38,0,0,0-.94-.31,3,3,0,0,0-.74-.1,1.68,1.68,0,0,0-1.12.39,1.4,1.4,0,0,0-.46,1.11,1,1,0,0,0,.16.51,2.75,2.75,0,0,0,.36.53,4,4,0,0,0,.53.58l-.25.2a8.11,8.11,0,0,1-1.23-.9,7.19,7.19,0,0,1-.89-.93,2.23,2.23,0,0,1-.5-1.1,1.61,1.61,0,0,1,0-.69,1.55,1.55,0,0,1,.31-.63,1.75,1.75,0,0,1,.55-.45,2.09,2.09,0,0,1,.77-.22h.39a3.12,3.12,0,0,1,.44.05l.41.06.32,0a26.43,26.43,0,0,1-2.23-2.38c-.5-.63-.7-1-.62-1.23l.44-.56a6.68,6.68,0,0,0,.58-.9,10.8,10.8,0,0,0,.52-1.08,3.07,3.07,0,0,0,.22-1.13,2.3,2.3,0,0,0-.22-.87c-.16-.35-.32-.69-.5-1s-.45-.75-.71-1.16l.28-.21,3.73,4.7a9.17,9.17,0,0,0-.88,1.25,7,7,0,0,0-.61,1.15,3,3,0,0,0-.27,1.18,2.67,2.67,0,0,0,.11.75,4.61,4.61,0,0,0,.28.68,3.92,3.92,0,0,0,.37.59c.14.19.26.35.37.48a1.92,1.92,0,0,0,.26.32c.13.13.24.26.35.39l.3.36a.61.61,0,0,1,.13.2l0,.33Z"/><path d="M146.21,411.43a5.46,5.46,0,0,0-1-.31,3,3,0,0,0-.74-.1,1.65,1.65,0,0,0-1.11.39,1.36,1.36,0,0,0-.46,1.11,1.12,1.12,0,0,0,.15.51,2.75,2.75,0,0,0,.36.53,4.72,4.72,0,0,0,.53.58l-.24.2a7.22,7.22,0,0,1-1.23-.9,6.63,6.63,0,0,1-.9-.93,2.32,2.32,0,0,1-.5-1.1,1.61,1.61,0,0,1,0-.69,1.69,1.69,0,0,1,.31-.63,1.75,1.75,0,0,1,.55-.45,2.09,2.09,0,0,1,.77-.22h.39a3.12,3.12,0,0,1,.44.05l.41.06.32,0a26.06,26.06,0,0,1-2.22-2.38q-.75-.94-.63-1.23l.44-.56a7.81,7.81,0,0,0,.59-.9,8.94,8.94,0,0,0,.51-1.08,3.07,3.07,0,0,0,.22-1.13,2.3,2.3,0,0,0-.22-.87c-.15-.35-.32-.69-.49-1l-.72-1.16.29-.21,3.73,4.7A8.45,8.45,0,0,0,145,405a7.83,7.83,0,0,0-.61,1.15,3,3,0,0,0-.27,1.18,2.36,2.36,0,0,0,.12.75,3.71,3.71,0,0,0,.27.68,4.92,4.92,0,0,0,.37.59c.14.19.26.35.37.48a2.08,2.08,0,0,0,.27.32l.35.39.29.36a.77.77,0,0,1,.14.2l0,.33Z"/><line class="cls-4" x1="166.35" y1="422.36" x2="175.74" y2="422.36"/><path d="M167.79,422.38a3.21,3.21,0,0,1,.63-1,4.62,4.62,0,0,1,1-.84,5.15,5.15,0,0,1,1.19-.55,4.38,4.38,0,0,1,1.29-.19A2.91,2.91,0,0,1,173,420a2,2,0,0,1,.78.58,1.77,1.77,0,0,1,.36.84,2.11,2.11,0,0,1-.13,1,3.26,3.26,0,0,1-.64,1,5.24,5.24,0,0,1-1,.84,4.67,4.67,0,0,1-1.2.55,4.43,4.43,0,0,1-1.28.2,2.83,2.83,0,0,1-1.14-.22,2.1,2.1,0,0,1-.78-.58,1.66,1.66,0,0,1-.36-.85A2.28,2.28,0,0,1,167.79,422.38Z"/><line class="cls-4" x1="174.19" y1="421.51" x2="174.19" y2="403.14"/><path d="M184.24,419.82a3.15,3.15,0,0,1,.62-1,5,5,0,0,1,1-.83,4.54,4.54,0,0,1,1.18-.55,4.46,4.46,0,0,1,1.3-.2,2.86,2.86,0,0,1,1.14.22,1.93,1.93,0,0,1,.78.57,1.77,1.77,0,0,1,.36.84,2.14,2.14,0,0,1-.13,1,3.21,3.21,0,0,1-.64,1,4.44,4.44,0,0,1-1,.85,5,5,0,0,1-1.2.55,4.41,4.41,0,0,1-1.28.19,2.83,2.83,0,0,1-1.14-.21,2.12,2.12,0,0,1-.78-.59,1.62,1.62,0,0,1-.36-.85A2.14,2.14,0,0,1,184.24,419.82Z"/><line class="cls-4" x1="190.63" y1="418.94" x2="190.63" y2="402.72"/><path d="M200.68,419.82a3.33,3.33,0,0,1,.62-1,5,5,0,0,1,1-.83,4.61,4.61,0,0,1,1.19-.55,4.34,4.34,0,0,1,1.29-.2,2.91,2.91,0,0,1,1.15.22,2.08,2.08,0,0,1,.78.57,1.66,1.66,0,0,1,.35.84,2,2,0,0,1-.13,1,3.37,3.37,0,0,1-.63,1,4.74,4.74,0,0,1-1,.85,5,5,0,0,1-1.2.55,4.41,4.41,0,0,1-1.28.19,2.83,2.83,0,0,1-1.14-.21,2.12,2.12,0,0,1-.78-.59,1.7,1.7,0,0,1-.35-.85A2,2,0,0,1,200.68,419.82Z"/><text class="cls-5" transform="translate(194.32 419.8)">#</text><line class="cls-4" x1="207.07" y1="418.94" x2="207.07" y2="402.29"/><path d="M217.34,417.26a3.05,3.05,0,0,1,.62-1,5.18,5.18,0,0,1,1-.83,4.76,4.76,0,0,1,1.19-.55,4.45,4.45,0,0,1,1.29-.2,2.74,2.74,0,0,1,1.15.22,1.93,1.93,0,0,1,.78.57,1.77,1.77,0,0,1,.36.84,2.15,2.15,0,0,1-.13,1,3.21,3.21,0,0,1-.64,1,4.94,4.94,0,0,1-1,.84,4.7,4.7,0,0,1-1.2.56,4.41,4.41,0,0,1-1.28.19,2.83,2.83,0,0,1-1.14-.21,2.12,2.12,0,0,1-.78-.59,1.62,1.62,0,0,1-.36-.85A2.12,2.12,0,0,1,217.34,417.26Z"/><line class="cls-4" x1="223.73" y1="416.38" x2="223.73" y2="401.86"/><polyline points="174 401.86 223.92 400.58 223.92 403.14 174 404.42"/><text class="cls-8" transform="translate(164.63 437.73)">m</text><text class="cls-8" transform="translate(171.38 437.73)">i</text><text class="cls-8" transform="translate(173.63 437.73)">s</text><text class="cls-8" transform="translate(184.29 437.73)">t</text><text class="cls-8" transform="translate(187.29 437.73)">e</text><text class="cls-8" transform="translate(198.64 437.73)">r</text><text class="cls-8" transform="translate(202.39 437.73)">i</text><text class="cls-8" transform="translate(204.64 437.73)">o</text><text class="cls-8" transform="translate(214.55 437.73)">s</text><text class="cls-8" transform="translate(218.3 437.73)">a</text><text class="cls-8" transform="translate(222.8 437.73)">s</text><path d="M119.51,472.93a5.38,5.38,0,0,0-.94-.31,3,3,0,0,0-.74-.1,1.68,1.68,0,0,0-1.12.39,1.4,1.4,0,0,0-.46,1.11,1,1,0,0,0,.16.51,2.75,2.75,0,0,0,.36.53,4,4,0,0,0,.53.58l-.25.2a8.11,8.11,0,0,1-1.23-.9,7.19,7.19,0,0,1-.89-.93,2.23,2.23,0,0,1-.5-1.1,1.61,1.61,0,0,1,0-.69,1.55,1.55,0,0,1,.31-.63,1.75,1.75,0,0,1,.55-.45,2.09,2.09,0,0,1,.77-.22h.39a3.12,3.12,0,0,1,.44.05l.41.06.32,0a26.43,26.43,0,0,1-2.23-2.38c-.5-.63-.7-1-.62-1.23l.44-.56a6.68,6.68,0,0,0,.58-.9,10.8,10.8,0,0,0,.52-1.08,3.07,3.07,0,0,0,.22-1.13,2.3,2.3,0,0,0-.22-.87c-.16-.35-.32-.69-.5-1s-.45-.75-.71-1.16l.28-.21,3.73,4.7a9.17,9.17,0,0,0-.88,1.25,7,7,0,0,0-.61,1.15,3,3,0,0,0-.27,1.18,2.67,2.67,0,0,0,.11.75,4.61,4.61,0,0,0,.28.68,3.92,3.92,0,0,0,.37.59c.14.19.26.35.37.48a1.92,1.92,0,0,0,.26.32c.13.13.24.26.35.39l.3.36a.61.61,0,0,1,.13.2l0,.33Z"/><path d="M146.21,472.93a5.46,5.46,0,0,0-1-.31,3,3,0,0,0-.74-.1,1.65,1.65,0,0,0-1.11.39A1.36,1.36,0,0,0,143,474a1.12,1.12,0,0,0,.15.51,2.75,2.75,0,0,0,.36.53,4.72,4.72,0,0,0,.53.58l-.24.2a7.22,7.22,0,0,1-1.23-.9,6.63,6.63,0,0,1-.9-.93,2.32,2.32,0,0,1-.5-1.1,1.61,1.61,0,0,1,0-.69,1.69,1.69,0,0,1,.31-.63,1.75,1.75,0,0,1,.55-.45,2.09,2.09,0,0,1,.77-.22h.39a3.12,3.12,0,0,1,.44.05l.41.06.32,0a26.06,26.06,0,0,1-2.22-2.38q-.75-.94-.63-1.23l.44-.56a7.81,7.81,0,0,0,.59-.9,8.94,8.94,0,0,0,.51-1.08,3.07,3.07,0,0,0,.22-1.13,2.3,2.3,0,0,0-.22-.87c-.15-.35-.32-.69-.49-1l-.72-1.16.29-.21,3.73,4.7a8.45,8.45,0,0,0-.89,1.25,7.83,7.83,0,0,0-.61,1.15,3,3,0,0,0-.27,1.18,2.36,2.36,0,0,0,.12.75,3.71,3.71,0,0,0,.27.68,4.92,4.92,0,0,0,.37.59c.14.19.26.35.37.48a2.08,2.08,0,0,0,.27.32l.35.39.29.36a.77.77,0,0,1,.14.2l0,.33Z"/><path d="M167.79,471.07a3.37,3.37,0,0,1,.63-1,4.88,4.88,0,0,1,1-.83,4.76,4.76,0,0,1,1.19-.55,4.39,4.39,0,0,1,1.29-.2,2.91,2.91,0,0,1,1.15.22,1.93,1.93,0,0,1,.78.57,1.77,1.77,0,0,1,.36.84,2.14,2.14,0,0,1-.13,1,3.21,3.21,0,0,1-.64,1,4.59,4.59,0,0,1-1,.84,4.7,4.7,0,0,1-1.2.56,4.41,4.41,0,0,1-1.28.19,2.83,2.83,0,0,1-1.14-.21A2.12,2.12,0,0,1,168,473a1.62,1.62,0,0,1-.36-.85A2.25,2.25,0,0,1,167.79,471.07Z"/><line class="cls-4" x1="167.82" y1="471.9" x2="167.82" y2="487.7"/><path d="M184.24,468.51a3.05,3.05,0,0,1,.62-1,5,5,0,0,1,1-.83,4.54,4.54,0,0,1,1.18-.55,4.46,4.46,0,0,1,1.3-.2,2.7,2.7,0,0,1,1.14.22,1.93,1.93,0,0,1,.78.57,1.77,1.77,0,0,1,.36.84,2.15,2.15,0,0,1-.13,1,3.21,3.21,0,0,1-.64,1,4.82,4.82,0,0,1-2.18,1.4,4.41,4.41,0,0,1-1.28.19,2.83,2.83,0,0,1-1.14-.21,2.12,2.12,0,0,1-.78-.59,1.66,1.66,0,0,1-.36-.85A2.12,2.12,0,0,1,184.24,468.51Z"/><text class="cls-5" transform="translate(177.88 468.48)">b</text><line class="cls-4" x1="184.26" y1="469.34" x2="184.26" y2="487.7"/><path d="M200.68,468.51a3.22,3.22,0,0,1,.62-1,5,5,0,0,1,1-.83,4.61,4.61,0,0,1,1.19-.55,4.34,4.34,0,0,1,1.29-.2,2.74,2.74,0,0,1,1.15.22,2.08,2.08,0,0,1,.78.57,1.66,1.66,0,0,1,.35.84,2,2,0,0,1-.13,1,3.37,3.37,0,0,1-.63,1,5,5,0,0,1-1,.84,4.7,4.7,0,0,1-1.2.56,4.41,4.41,0,0,1-1.28.19,2.83,2.83,0,0,1-1.14-.21,2.12,2.12,0,0,1-.78-.59,1.73,1.73,0,0,1-.35-.85A2,2,0,0,1,200.68,468.51Z"/><text class="cls-5" transform="translate(194.96 468.48)">n</text><line class="cls-4" x1="200.71" y1="469.34" x2="200.71" y2="487.7"/><path d="M217.34,465.94a3,3,0,0,1,.62-1,4.85,4.85,0,0,1,2.16-1.39,4.43,4.43,0,0,1,1.29-.19,2.91,2.91,0,0,1,1.15.21,2,2,0,0,1,.78.58,1.77,1.77,0,0,1,.36.84,2.1,2.1,0,0,1-.13,1,3.26,3.26,0,0,1-.64,1,4.94,4.94,0,0,1-1,.84,4.67,4.67,0,0,1-1.2.55,4.43,4.43,0,0,1-1.28.2,2.67,2.67,0,0,1-1.14-.22,2,2,0,0,1-.78-.58,1.66,1.66,0,0,1-.36-.85A2.18,2.18,0,0,1,217.34,465.94Z"/><line class="cls-4" x1="217.36" y1="466.78" x2="217.36" y2="487.7"/><polyline points="167.63 486.42 217.56 486.42 217.56 488.99 167.63 488.99"/><text class="cls-8" transform="translate(164.63 499.23)">m</text><text class="cls-8" transform="translate(171.38 499.23)">i</text><text class="cls-8" transform="translate(173.63 499.23)">s</text><text class="cls-8" transform="translate(184.07 499.23)">t</text><text class="cls-8" transform="translate(187.07 499.23)">e</text><text class="cls-8" transform="translate(198.64 499.23)">r</text><text class="cls-8" transform="translate(202.39 499.23)">i</text><text class="cls-8" transform="translate(204.64 499.23)">o</text><text class="cls-8" transform="translate(214.55 499.23)">s</text><text class="cls-8" transform="translate(218.3 499.23)">a</text><text class="cls-8" transform="translate(222.8 499.23)">s</text><line class="cls-4" x1="120.8" y1="536.82" x2="120.8" y2="519.74"/><path d="M114.41,537.69a3,3,0,0,1,.62-1,5,5,0,0,1,2.17-1.39,4.33,4.33,0,0,1,1.29-.19,2.91,2.91,0,0,1,1.15.21,2.09,2.09,0,0,1,.77.58,1.59,1.59,0,0,1,.36.84,2,2,0,0,1-.13,1,3.26,3.26,0,0,1-.64,1,4.7,4.7,0,0,1-2.18,1.39,4.43,4.43,0,0,1-1.28.2,2.67,2.67,0,0,1-1.14-.22,2.1,2.1,0,0,1-.78-.58,1.85,1.85,0,0,1-.36-.85A2.18,2.18,0,0,1,114.41,537.69Z"/><line class="cls-4" x1="141.13" y1="520.59" x2="141.13" y2="537.67"/><path d="M141.1,519.76a3.37,3.37,0,0,1,.63-1,4.88,4.88,0,0,1,1-.83,4.76,4.76,0,0,1,1.19-.55,4.34,4.34,0,0,1,1.29-.2,2.74,2.74,0,0,1,1.15.22,1.93,1.93,0,0,1,.78.57,1.77,1.77,0,0,1,.36.84,2.16,2.16,0,0,1-.14,1,3.18,3.18,0,0,1-.63,1,5,5,0,0,1-1,.84,4.7,4.7,0,0,1-1.2.56,4.36,4.36,0,0,1-1.28.19,2.81,2.81,0,0,1-1.13-.21,2,2,0,0,1-.78-.59,1.62,1.62,0,0,1-.36-.85A2.11,2.11,0,0,1,141.1,519.76Z"/><path d="M167.79,519.76a3.37,3.37,0,0,1,.63-1,4.88,4.88,0,0,1,1-.83,4.76,4.76,0,0,1,1.19-.55,4.39,4.39,0,0,1,1.29-.2,2.74,2.74,0,0,1,1.15.22,1.93,1.93,0,0,1,.78.57,1.77,1.77,0,0,1,.36.84,2.15,2.15,0,0,1-.13,1,3.21,3.21,0,0,1-.64,1,5.24,5.24,0,0,1-1,.84,4.7,4.7,0,0,1-1.2.56,4.41,4.41,0,0,1-1.28.19,2.83,2.83,0,0,1-1.14-.21,2.12,2.12,0,0,1-.78-.59,1.62,1.62,0,0,1-.36-.85A2.23,2.23,0,0,1,167.79,519.76Z"/><line class="cls-4" x1="167.82" y1="520.59" x2="167.82" y2="541.52"/><path d="M184.24,522.32a3.15,3.15,0,0,1,.62-1,5,5,0,0,1,1-.83,4.54,4.54,0,0,1,1.18-.55,4.46,4.46,0,0,1,1.3-.2,2.86,2.86,0,0,1,1.14.22,1.93,1.93,0,0,1,.78.57,1.77,1.77,0,0,1,.36.84,2.14,2.14,0,0,1-.13,1,3.21,3.21,0,0,1-.64,1,4.15,4.15,0,0,1-1,.84,4.7,4.7,0,0,1-1.2.56,4.41,4.41,0,0,1-1.28.19,2.83,2.83,0,0,1-1.14-.21,2.12,2.12,0,0,1-.78-.59,1.62,1.62,0,0,1-.36-.85A2.14,2.14,0,0,1,184.24,522.32Z"/><line class="cls-4" x1="184.26" y1="523.15" x2="184.26" y2="542.37"/><path d="M200.68,524.88a3.18,3.18,0,0,1,.62-1,4.36,4.36,0,0,1,1-.83,4.63,4.63,0,0,1,1.19-.56,4.33,4.33,0,0,1,1.29-.19,2.91,2.91,0,0,1,1.15.21,2.21,2.21,0,0,1,.78.58,1.66,1.66,0,0,1,.35.84,2,2,0,0,1-.13,1,3.41,3.41,0,0,1-.63,1,5,5,0,0,1-1,.84,4.67,4.67,0,0,1-1.2.55,4.43,4.43,0,0,1-1.28.2,2.83,2.83,0,0,1-1.14-.22,2.1,2.1,0,0,1-.78-.58,1.73,1.73,0,0,1-.35-.85A2,2,0,0,1,200.68,524.88Z"/><line class="cls-4" x1="200.71" y1="525.71" x2="200.71" y2="543.22"/><path d="M217.34,527.44a3,3,0,0,1,.62-1,4.85,4.85,0,0,1,2.16-1.39,4.43,4.43,0,0,1,1.29-.19,2.91,2.91,0,0,1,1.15.21,2,2,0,0,1,.78.58,1.77,1.77,0,0,1,.36.84,2.1,2.1,0,0,1-.13,1,3.26,3.26,0,0,1-.64,1,4.94,4.94,0,0,1-1,.84,4.67,4.67,0,0,1-1.2.55,4.43,4.43,0,0,1-1.28.2,2.67,2.67,0,0,1-1.14-.22,2,2,0,0,1-.78-.58,1.66,1.66,0,0,1-.36-.85A2.18,2.18,0,0,1,217.34,527.44Z"/><line class="cls-4" x1="217.36" y1="528.28" x2="217.36" y2="544.08"/><polyline points="167.63 540.24 217.56 542.8 217.56 545.36 167.63 542.8"/><text class="cls-8" transform="translate(110.12 560.73)">m</text><text class="cls-8" transform="translate(116.87 560.73)">a</text><text class="cls-8" transform="translate(121.37 560.73)">r</text><text class="cls-8" transform="translate(137.94 560.73)">m</text><text class="cls-8" transform="translate(144.69 560.73)">i</text><text class="cls-8" transform="translate(146.94 560.73)">s</text><text class="cls-8" transform="translate(184.07 560.73)">t</text><text class="cls-8" transform="translate(187.07 560.73)">e</text><text class="cls-8" transform="translate(198.64 560.73)">r</text><text class="cls-8" transform="translate(202.39 560.73)">i</text><text class="cls-8" transform="translate(204.64 560.73)">o</text><text class="cls-8" transform="translate(214.55 560.73)">s</text><text class="cls-8" transform="translate(218.3 560.73)">a</text><text class="cls-8" transform="translate(222.8 560.73)">s</text><line class="cls-4" x1="241.28" y1="346.34" x2="241.28" y2="363.42"/><path d="M247.65,343.66a1.39,1.39,0,0,1,.15.5,2.62,2.62,0,0,1,0,.56,4.34,4.34,0,0,1-.09.52,3.11,3.11,0,0,1-.12.39,3.92,3.92,0,0,1-.86,1.37,4,4,0,0,1-1,.82,4.39,4.39,0,0,1-2.4.39l-.48-.06a3.7,3.7,0,0,1-.55-.14,2.73,2.73,0,0,1-.54-.27,1.33,1.33,0,0,1-.59-.95,2.44,2.44,0,0,1,0-.54,3.26,3.26,0,0,1,.09-.47c0-.14.08-.27.12-.38a3.53,3.53,0,0,1,.82-1.29,6,6,0,0,1,1-.8,4.41,4.41,0,0,1,2.7-.49l.41.05a2.36,2.36,0,0,1,.51.12,3.23,3.23,0,0,1,.49.25A1.11,1.11,0,0,1,247.65,343.66Zm-.47.35a.83.83,0,0,0-.4-.33,1.46,1.46,0,0,0-.52-.06,1.94,1.94,0,0,0-.56.12,5.27,5.27,0,0,0-.53.23q-.34.16-.63.33c-.18.11-.38.21-.58.32-.4.22-.8.47-1.21.74-.15.1-.31.21-.46.33a1.94,1.94,0,0,0-.4.41,1.3,1.3,0,0,0-.22.48.74.74,0,0,0,.09.5.69.69,0,0,0,.39.33,1.17,1.17,0,0,0,.53,0,2.38,2.38,0,0,0,.56-.13,3.68,3.68,0,0,0,.53-.23c.24-.11.45-.21.65-.32l.6-.33.59-.33.6-.39c.14-.1.29-.2.44-.33a1.94,1.94,0,0,0,.4-.41,1.3,1.3,0,0,0,.22-.48A.74.74,0,0,0,247.18,344Z"/><line class="cls-4" x1="289.29" y1="347.19" x2="289.29" y2="330.11"/><path d="M289.29,346.22a1.38,1.38,0,0,1,.15.51,2.53,2.53,0,0,1,0,.55,4,4,0,0,1-.09.52,2.32,2.32,0,0,1-.12.39,4.27,4.27,0,0,1-1.91,2.19,4.22,4.22,0,0,1-2.4.39l-.48-.06a2.78,2.78,0,0,1-.55-.14,2.73,2.73,0,0,1-.54-.27,1.21,1.21,0,0,1-.4-.41,1.3,1.3,0,0,1-.19-.54,2.35,2.35,0,0,1,0-.53,3.16,3.16,0,0,1,.09-.48c0-.14.08-.27.12-.37a3.66,3.66,0,0,1,.82-1.3,6.5,6.5,0,0,1,1-.8,4.7,4.7,0,0,1,1.16-.43,4.37,4.37,0,0,1,1.55-.06l.41.05a2.65,2.65,0,0,1,1,.37A1.28,1.28,0,0,1,289.29,346.22Zm-.47.35a.89.89,0,0,0-.4-.33,1.43,1.43,0,0,0-.51-.06,2.9,2.9,0,0,0-.57.12,5.27,5.27,0,0,0-.53.23q-.35.17-.63.33l-.58.33c-.4.22-.8.46-1.21.73l-.46.33a2.21,2.21,0,0,0-.4.41,1.3,1.3,0,0,0-.22.48.73.73,0,0,0,.1.51.66.66,0,0,0,.38.32,1.18,1.18,0,0,0,.53.06,2.42,2.42,0,0,0,.56-.14,5.29,5.29,0,0,0,.53-.22c.24-.11.45-.22.65-.33l.6-.33.59-.33c.18-.11.39-.24.6-.39a5.36,5.36,0,0,0,.44-.32,2.21,2.21,0,0,0,.4-.41,1.2,1.2,0,0,0,.22-.49A.75.75,0,0,0,288.82,346.57Z"/><text class="cls-8" transform="translate(239.59 376.23)">n</text><text class="cls-8" transform="translate(244.84 376.23)">o</text><text class="cls-8" transform="translate(282.73 376.23)">c</text><text class="cls-8" transform="translate(287.23 376.23)">h</text><text class="cls-8" transform="translate(291.73 376.23)">e</text><text class="cls-8" transform="translate(295.48 376.23)">s</text><line class="cls-4" x1="247.65" y1="413.82" x2="247.65" y2="396.73"/><path d="M247.65,412.85a1.39,1.39,0,0,1,.15.5,2.53,2.53,0,0,1,0,.55,4.18,4.18,0,0,1-.09.53,3.11,3.11,0,0,1-.12.39,4,4,0,0,1-.86,1.37,4,4,0,0,1-1,.82,4.39,4.39,0,0,1-2.4.39l-.48-.06a2.81,2.81,0,0,1-.55-.15,2.69,2.69,0,0,1-.54-.26,1.32,1.32,0,0,1-.59-1,2.35,2.35,0,0,1,0-.53,3,3,0,0,1,.09-.47c0-.14.08-.27.12-.38a3.53,3.53,0,0,1,.82-1.29,6,6,0,0,1,1-.8,4.41,4.41,0,0,1,2.7-.49l.41.05a2.36,2.36,0,0,1,.51.12,2.06,2.06,0,0,1,.49.25A1.11,1.11,0,0,1,247.65,412.85Zm-.47.35a.78.78,0,0,0-.4-.33,1.12,1.12,0,0,0-.52-.06,1.94,1.94,0,0,0-.56.12,3.68,3.68,0,0,0-.53.23,6.16,6.16,0,0,0-.63.32l-.58.33c-.4.22-.8.47-1.21.74a3.29,3.29,0,0,0-.46.33,1.94,1.94,0,0,0-.4.41,1.3,1.3,0,0,0-.22.48.74.74,0,0,0,.09.5.78.78,0,0,0,.39.33,1.33,1.33,0,0,0,.53,0,2.38,2.38,0,0,0,.56-.13,5.27,5.27,0,0,0,.53-.23c.24-.11.45-.22.65-.33l.6-.32.59-.33.6-.39.44-.33a1.94,1.94,0,0,0,.4-.41,1.3,1.3,0,0,0,.22-.48A.74.74,0,0,0,247.18,413.2Z"/><line class="cls-4" x1="289.29" y1="413.82" x2="289.29" y2="396.73"/><path d="M289.29,412.85a1.39,1.39,0,0,1,.15.5,2.53,2.53,0,0,1,0,.55,4.18,4.18,0,0,1-.09.53,3.11,3.11,0,0,1-.12.39,4,4,0,0,1-.86,1.37,3.82,3.82,0,0,1-1.05.82,4.39,4.39,0,0,1-2.4.39l-.48-.06a2.81,2.81,0,0,1-.55-.15,2.69,2.69,0,0,1-.54-.26,1.32,1.32,0,0,1-.59-1,2.35,2.35,0,0,1,0-.53,3,3,0,0,1,.09-.47c0-.14.08-.27.12-.38a3.53,3.53,0,0,1,.82-1.29,6,6,0,0,1,1-.8,4.43,4.43,0,0,1,2.71-.49l.41.05a2.42,2.42,0,0,1,.5.12,2.06,2.06,0,0,1,.49.25A1.11,1.11,0,0,1,289.29,412.85Zm-.47.35a.78.78,0,0,0-.4-.33,1.09,1.09,0,0,0-.51-.06,1.94,1.94,0,0,0-.57.12,3.68,3.68,0,0,0-.53.23,6.16,6.16,0,0,0-.63.32l-.58.33c-.4.22-.8.47-1.21.74a4,4,0,0,0-.46.33,1.94,1.94,0,0,0-.4.41,1.3,1.3,0,0,0-.22.48.69.69,0,0,0,.1.5.72.72,0,0,0,.38.33,1.33,1.33,0,0,0,.53,0,2.38,2.38,0,0,0,.56-.13,5.27,5.27,0,0,0,.53-.23c.24-.11.45-.22.65-.33l.6-.32.59-.33c.18-.11.39-.24.6-.39l.44-.33a1.94,1.94,0,0,0,.4-.41,1.16,1.16,0,0,0,.22-.48A.74.74,0,0,0,288.82,413.2Z"/><text class="cls-8" transform="translate(239.59 437.73)">n</text><text class="cls-8" transform="translate(244.84 437.73)">o</text><text class="cls-8" transform="translate(282.73 437.73)">c</text><text class="cls-8" transform="translate(287.23 437.73)">h</text><text class="cls-8" transform="translate(291.73 437.73)">e</text><text class="cls-8" transform="translate(295.48 437.73)">s</text><line class="cls-4" x1="241.28" y1="464.21" x2="241.28" y2="481.3"/><path d="M247.65,461.54a1.33,1.33,0,0,1,.15.5,2.53,2.53,0,0,1,0,.55,3.74,3.74,0,0,1-.09.52,2.32,2.32,0,0,1-.12.39,4,4,0,0,1-.86,1.38,4.2,4.2,0,0,1-1,.82,4.39,4.39,0,0,1-2.4.39l-.48-.07a2.22,2.22,0,0,1-.55-.14,2.73,2.73,0,0,1-.54-.27,1.12,1.12,0,0,1-.4-.41,1.21,1.21,0,0,1-.19-.54,2.35,2.35,0,0,1,0-.53,3,3,0,0,1,.09-.47c0-.15.08-.27.12-.38a3.53,3.53,0,0,1,.82-1.29,5.49,5.49,0,0,1,1-.8,4.33,4.33,0,0,1,1.16-.43,4.54,4.54,0,0,1,1.54-.07l.41.06a2.36,2.36,0,0,1,.51.12,2.06,2.06,0,0,1,.49.25A1.11,1.11,0,0,1,247.65,461.54Zm-.47.34a.81.81,0,0,0-.4-.32,1.26,1.26,0,0,0-.52-.07,2.38,2.38,0,0,0-.56.13,5.29,5.29,0,0,0-.53.22q-.34.17-.63.33l-.58.33c-.4.22-.8.46-1.21.74a4.25,4.25,0,0,0-.46.32,2.21,2.21,0,0,0-.4.41,1.35,1.35,0,0,0-.22.49.75.75,0,0,0,.09.5.78.78,0,0,0,.39.33,1.33,1.33,0,0,0,.53,0,2.42,2.42,0,0,0,.56-.14,3.67,3.67,0,0,0,.53-.22c.24-.11.45-.22.65-.33l.6-.33.59-.32.6-.39.44-.33a2.21,2.21,0,0,0,.4-.41,1.3,1.3,0,0,0,.22-.48A.78.78,0,0,0,247.18,461.88Z"/><line class="cls-4" x1="282.92" y1="466.78" x2="282.92" y2="483.86"/><path d="M289.29,464.1a1.39,1.39,0,0,1,.15.5,2.53,2.53,0,0,1,0,.55,4.18,4.18,0,0,1-.09.53,3.11,3.11,0,0,1-.12.39,3.92,3.92,0,0,1-.86,1.37,3.82,3.82,0,0,1-1.05.82,4.39,4.39,0,0,1-2.4.39l-.48-.06a2.81,2.81,0,0,1-.55-.15,2.24,2.24,0,0,1-.54-.26,1.32,1.32,0,0,1-.59-1,2.35,2.35,0,0,1,0-.53,3,3,0,0,1,.09-.47c0-.14.08-.27.12-.38a3.53,3.53,0,0,1,.82-1.29,6,6,0,0,1,1-.8,4.43,4.43,0,0,1,2.71-.49l.41.05a2.42,2.42,0,0,1,.5.12,2.52,2.52,0,0,1,.49.25A1.11,1.11,0,0,1,289.29,464.1Zm-.47.35a.78.78,0,0,0-.4-.33,1.09,1.09,0,0,0-.51-.06,1.94,1.94,0,0,0-.57.12,3.68,3.68,0,0,0-.53.23c-.23.11-.44.21-.63.32l-.58.33c-.4.22-.8.47-1.21.74-.15.1-.3.2-.46.33a1.94,1.94,0,0,0-.4.41,1.3,1.3,0,0,0-.22.48.69.69,0,0,0,.1.5.68.68,0,0,0,.38.33,1.33,1.33,0,0,0,.53,0,2.38,2.38,0,0,0,.56-.13,5.27,5.27,0,0,0,.53-.23c.24-.11.45-.22.65-.33l.6-.32.59-.33c.18-.11.39-.24.6-.39l.44-.33a1.94,1.94,0,0,0,.4-.41,1.16,1.16,0,0,0,.22-.48A.74.74,0,0,0,288.82,464.45Z"/><text class="cls-8" transform="translate(239.59 499.23)">n</text><text class="cls-8" transform="translate(244.84 499.23)">o</text><text class="cls-8" transform="translate(282.73 499.23)">c</text><text class="cls-8" transform="translate(287.23 499.23)">h</text><text class="cls-8" transform="translate(291.73 499.23)">e</text><text class="cls-8" transform="translate(295.48 499.23)">s</text><line class="cls-4" x1="241.28" y1="530.84" x2="241.28" y2="547.92"/><path d="M247.65,528.16a1.39,1.39,0,0,1,.15.5,2.62,2.62,0,0,1,0,.56,4.34,4.34,0,0,1-.09.52,3.11,3.11,0,0,1-.12.39,3.92,3.92,0,0,1-.86,1.37,4,4,0,0,1-1,.82,4.39,4.39,0,0,1-2.4.39l-.48-.06a3.7,3.7,0,0,1-.55-.14,2.73,2.73,0,0,1-.54-.27,1.33,1.33,0,0,1-.59-1,2.44,2.44,0,0,1,0-.54,3.26,3.26,0,0,1,.09-.47c0-.14.08-.27.12-.38a3.53,3.53,0,0,1,.82-1.29,6,6,0,0,1,1-.8,4.41,4.41,0,0,1,2.7-.49l.41,0a2.36,2.36,0,0,1,.51.12,3.23,3.23,0,0,1,.49.25A1.11,1.11,0,0,1,247.65,528.16Zm-.47.35a.83.83,0,0,0-.4-.33,1.46,1.46,0,0,0-.52-.06,1.94,1.94,0,0,0-.56.12,5.27,5.27,0,0,0-.53.23q-.34.16-.63.33c-.18.11-.38.21-.58.32-.4.22-.8.47-1.21.74-.15.1-.31.21-.46.33a1.94,1.94,0,0,0-.4.41,1.3,1.3,0,0,0-.22.48.74.74,0,0,0,.09.5.69.69,0,0,0,.39.33,1.17,1.17,0,0,0,.53.05,2.38,2.38,0,0,0,.56-.13,3.68,3.68,0,0,0,.53-.23c.24-.11.45-.21.65-.32l.6-.33.59-.33.6-.39c.14-.1.29-.2.44-.33a1.94,1.94,0,0,0,.4-.41,1.3,1.3,0,0,0,.22-.48A.74.74,0,0,0,247.18,528.51Z"/><line class="cls-4" x1="289.29" y1="536.82" x2="289.29" y2="519.74"/><path d="M282.89,537.69a3.21,3.21,0,0,1,.63-1,4.58,4.58,0,0,1,1-.83,4.79,4.79,0,0,1,1.19-.56,4.33,4.33,0,0,1,1.29-.19,2.91,2.91,0,0,1,1.15.21,2,2,0,0,1,.78.58,1.77,1.77,0,0,1,.36.84,2,2,0,0,1-.14,1,3.06,3.06,0,0,1-.63,1,5.24,5.24,0,0,1-1,.84,4.67,4.67,0,0,1-1.2.55,4.45,4.45,0,0,1-1.29.2,2.65,2.65,0,0,1-1.13-.22,2.1,2.1,0,0,1-.78-.58,1.66,1.66,0,0,1-.36-.85A2.29,2.29,0,0,1,282.89,537.69Z"/><line class="cls-4" x1="310.04" y1="530.84" x2="310.04" y2="547.92"/><path d="M310,530a3.25,3.25,0,0,1,.63-1,4.88,4.88,0,0,1,1-.83,4.76,4.76,0,0,1,1.19-.55,4.34,4.34,0,0,1,1.29-.2,2.74,2.74,0,0,1,1.15.22,1.93,1.93,0,0,1,.78.57,1.77,1.77,0,0,1,.36.84,2,2,0,0,1-.14,1,3,3,0,0,1-.63,1,5,5,0,0,1-1,.84,4.48,4.48,0,0,1-2.48.75,2.81,2.81,0,0,1-1.13-.21,2.12,2.12,0,0,1-.78-.59,1.66,1.66,0,0,1-.36-.85A2.23,2.23,0,0,1,310,530Z"/><text class="cls-8" transform="translate(239.59 560.73)">n</text><text class="cls-8" transform="translate(244.84 560.73)">o</text><text class="cls-8" transform="translate(277.85 560.73)">c</text><text class="cls-8" transform="translate(282.35 560.73)">h</text><text class="cls-8" transform="translate(286.85 560.73)">e</text><text class="cls-8" transform="translate(290.6 560.73)">s</text><text class="cls-8" transform="translate(299.72 560.73)">q</text><text class="cls-8" transform="translate(304.22 560.73)">u</text><text class="cls-8" transform="translate(309.47 560.73)">e</text><text class="cls-8" transform="translate(313.22 560.73)">/</text><text class="cls-8" transform="translate(316.22 560.73)">e</text><text class="cls-8" transform="translate(319.97 560.73)">m</text><line class="cls-4" x1="350.15" y1="347.19" x2="350.15" y2="330.11"/><path d="M343.75,348.07a3.37,3.37,0,0,1,.63-1,4.88,4.88,0,0,1,1-.83,4.76,4.76,0,0,1,1.19-.55,4.34,4.34,0,0,1,1.29-.2,2.91,2.91,0,0,1,1.15.22,1.93,1.93,0,0,1,.78.57,1.77,1.77,0,0,1,.36.84,2,2,0,0,1-.14,1,3,3,0,0,1-.63,1,4.74,4.74,0,0,1-1,.85,4.79,4.79,0,0,1-1.19.55,4.43,4.43,0,0,1-1.29.19,2.81,2.81,0,0,1-1.13-.21A2.12,2.12,0,0,1,344,350a1.62,1.62,0,0,1-.36-.85A2.25,2.25,0,0,1,343.75,348.07Z"/><path d="M370.26,341.12a1.18,1.18,0,0,1,.92.06,1.42,1.42,0,0,1,.57.57,2,2,0,0,1,.23.81,1.76,1.76,0,0,1-.06.75,4.54,4.54,0,0,0,.6-.12,1.52,1.52,0,0,0,.55-.37,4.49,4.49,0,0,0,.44-.49l.42-.51.29.16-2.28,8.59h-.82c.14-.45.28-.9.43-1.33s.25-.73.37-1.12.23-.7.33-.93c.22-.61.4-1.14.54-1.61s.26-.87.34-1.2.17-.72.23-1c-.13.1-.29.22-.5.36a7.92,7.92,0,0,1-.69.42,5.84,5.84,0,0,1-.76.36,2.7,2.7,0,0,1-.76.18,1.64,1.64,0,0,1-1.28-.44,1.8,1.8,0,0,1-.56-1.09,1.88,1.88,0,0,1,.26-1.23A1.75,1.75,0,0,1,370.26,341.12Z"/><text class="cls-5" transform="translate(384.38 358.3)">J</text><line class="cls-4" x1="384.57" y1="346.34" x2="384.57" y2="363.42"/><path d="M384.54,345.51a3.22,3.22,0,0,1,.62-1,5,5,0,0,1,1-.83,4.61,4.61,0,0,1,1.19-.55,4.34,4.34,0,0,1,1.29-.2,2.74,2.74,0,0,1,1.15.22,2.08,2.08,0,0,1,.78.57,1.66,1.66,0,0,1,.35.84,2,2,0,0,1-.13,1,3.37,3.37,0,0,1-.63,1,5,5,0,0,1-1,.84,4.7,4.7,0,0,1-1.2.56,4.41,4.41,0,0,1-1.28.19,2.83,2.83,0,0,1-1.14-.21,2.12,2.12,0,0,1-.78-.59,1.7,1.7,0,0,1-.35-.85A2,2,0,0,1,384.54,345.51Z"/><line class="cls-4" x1="411.05" y1="341.21" x2="411.05" y2="358.3"/><path d="M411,340.38a3,3,0,0,1,.62-1,4.36,4.36,0,0,1,1-.83,4.63,4.63,0,0,1,1.19-.56,4.33,4.33,0,0,1,1.29-.19,3,3,0,0,1,1.15.21,2.09,2.09,0,0,1,.77.58,1.68,1.68,0,0,1,.36.84,2,2,0,0,1-.13,1,3.26,3.26,0,0,1-.64,1,4.7,4.7,0,0,1-2.18,1.39,4.43,4.43,0,0,1-1.28.2,2.83,2.83,0,0,1-1.14-.22,2.1,2.1,0,0,1-.78-.58,1.75,1.75,0,0,1-.36-.85A2.16,2.16,0,0,1,411,340.38Z"/><line class="cls-4" x1="440.69" y1="347.19" x2="440.69" y2="330.11"/><path d="M434.29,348.07a3.37,3.37,0,0,1,.63-1,4.88,4.88,0,0,1,1-.83,4.76,4.76,0,0,1,1.19-.55,4.45,4.45,0,0,1,1.29-.2,2.91,2.91,0,0,1,1.15.22,1.93,1.93,0,0,1,.78.57,1.77,1.77,0,0,1,.36.84,2.14,2.14,0,0,1-.13,1,3.21,3.21,0,0,1-.64,1,4.68,4.68,0,0,1-1,.85,5,5,0,0,1-1.2.55,4.41,4.41,0,0,1-1.28.19,2.83,2.83,0,0,1-1.14-.21,2.12,2.12,0,0,1-.78-.59,1.62,1.62,0,0,1-.36-.85A2.25,2.25,0,0,1,434.29,348.07Z"/><text class="cls-5" transform="translate(427.94 348.05)">#</text><line class="cls-4" x1="457.81" y1="336.09" x2="457.81" y2="353.17"/><path d="M457.78,335.26a3.37,3.37,0,0,1,.63-1,4.88,4.88,0,0,1,1-.83,4.76,4.76,0,0,1,1.19-.55,4.39,4.39,0,0,1,1.29-.2,2.74,2.74,0,0,1,1.15.22,1.93,1.93,0,0,1,.78.57,1.77,1.77,0,0,1,.36.84,2.15,2.15,0,0,1-.13,1,3.21,3.21,0,0,1-.64,1,5.24,5.24,0,0,1-1,.84,4.7,4.7,0,0,1-1.2.56,4.41,4.41,0,0,1-1.28.19,2.83,2.83,0,0,1-1.14-.21,2.12,2.12,0,0,1-.78-.59,1.62,1.62,0,0,1-.36-.85A2.23,2.23,0,0,1,457.78,335.26Z"/><text class="cls-9" transform="translate(435.41 364.49)">3</text><polyline class="cls-4" points="410.85 361.71 410.85 364.28 433.49 362.78"/><polyline class="cls-4" points="441.6 362.35 464.45 360.86 464.45 358.3"/><text class="cls-8" transform="translate(374.25 376.23)">q</text><text class="cls-8" transform="translate(378.75 376.23)">u</text><text class="cls-8" transform="translate(384 376.23)">e</text><text class="cls-8" transform="translate(387.75 376.23)">/</text><text class="cls-8" transform="translate(390.75 376.23)">e</text><text class="cls-8" transform="translate(394.5 376.23)">m</text><text class="cls-8" transform="translate(406.73 376.23)">b</text><text class="cls-8" transform="translate(411.23 376.23)">r</text><text class="cls-8" transform="translate(414.98 376.23)">i</text><text class="cls-8" transform="translate(417.23 376.23)">a</text><text class="cls-8" transform="translate(430.38 376.23)">g</text><text class="cls-8" transform="translate(434.88 376.23)">a</text><text class="cls-8" transform="translate(439.38 376.23)">n</text><text class="cls-8" transform="translate(453.12 376.23)">d</text><text class="cls-8" transform="translate(457.62 376.23)">e</text><text class="cls-8" transform="translate(461.37 376.23)">/</text><text class="cls-8" transform="translate(464.37 376.23)">a</text><line class="cls-4" x1="350.15" y1="413.82" x2="350.15" y2="396.73"/><path d="M343.75,414.69a3.21,3.21,0,0,1,.63-1,4.58,4.58,0,0,1,1-.83,4.79,4.79,0,0,1,1.19-.56,4.33,4.33,0,0,1,1.29-.19,2.91,2.91,0,0,1,1.15.21,2,2,0,0,1,.78.58,1.77,1.77,0,0,1,.36.84,2,2,0,0,1-.14,1,3.06,3.06,0,0,1-.63,1,5,5,0,0,1-1,.84,4.7,4.7,0,0,1-2.48.75,2.65,2.65,0,0,1-1.13-.22,2.1,2.1,0,0,1-.78-.58,1.66,1.66,0,0,1-.36-.85A2.29,2.29,0,0,1,343.75,414.69Z"/><path d="M370.26,402.62a1.18,1.18,0,0,1,.92.06,1.42,1.42,0,0,1,.57.57,2,2,0,0,1,.23.81,1.76,1.76,0,0,1-.06.75,4.54,4.54,0,0,0,.6-.12,1.52,1.52,0,0,0,.55-.37,4.49,4.49,0,0,0,.44-.49l.42-.51.29.16-2.28,8.59h-.82c.14-.45.28-.9.43-1.33s.25-.73.37-1.12.23-.7.33-.93c.22-.61.4-1.14.54-1.61s.26-.87.34-1.2.17-.72.23-1c-.13.1-.29.22-.5.36a7.92,7.92,0,0,1-.69.42,5.84,5.84,0,0,1-.76.36,2.7,2.7,0,0,1-.76.18,1.64,1.64,0,0,1-1.28-.44,1.8,1.8,0,0,1-.56-1.09,1.88,1.88,0,0,1,.26-1.23A1.75,1.75,0,0,1,370.26,402.62Z"/><text class="cls-5" transform="translate(390.93 399.3)">j</text><line class="cls-4" x1="390.93" y1="411.26" x2="390.93" y2="394.17"/><path d="M384.54,412.13a3.18,3.18,0,0,1,.62-1,4.36,4.36,0,0,1,1-.83,4.63,4.63,0,0,1,1.19-.56,4.33,4.33,0,0,1,1.29-.19,2.91,2.91,0,0,1,1.15.21,2.21,2.21,0,0,1,.78.58,1.66,1.66,0,0,1,.35.84,2,2,0,0,1-.13,1,3.41,3.41,0,0,1-.63,1,5,5,0,0,1-1,.84,4.67,4.67,0,0,1-1.2.55,4.43,4.43,0,0,1-1.28.2,2.83,2.83,0,0,1-1.14-.22,2.1,2.1,0,0,1-.78-.58,1.73,1.73,0,0,1-.35-.85A2,2,0,0,1,384.54,412.13Z"/><line class="cls-4" x1="417.41" y1="413.82" x2="417.41" y2="396.73"/><path d="M411,414.69a3,3,0,0,1,.62-1,5,5,0,0,1,2.17-1.39,4.33,4.33,0,0,1,1.29-.19,3,3,0,0,1,1.15.21,2.09,2.09,0,0,1,.77.58,1.68,1.68,0,0,1,.36.84,2,2,0,0,1-.13,1,3.26,3.26,0,0,1-.64,1,4.7,4.7,0,0,1-2.18,1.39,4.43,4.43,0,0,1-1.28.2,2.67,2.67,0,0,1-1.14-.22,2.1,2.1,0,0,1-.78-.58,1.75,1.75,0,0,1-.36-.85A2.18,2.18,0,0,1,411,414.69Z"/><line class="cls-4" x1="440.69" y1="413.82" x2="440.69" y2="396.73"/><path d="M434.29,414.69a3.21,3.21,0,0,1,.63-1,4.58,4.58,0,0,1,1-.83,4.79,4.79,0,0,1,1.19-.56,4.43,4.43,0,0,1,1.29-.19,2.91,2.91,0,0,1,1.15.21,2,2,0,0,1,.78.58,1.77,1.77,0,0,1,.36.84,2.1,2.1,0,0,1-.13,1,3.26,3.26,0,0,1-.64,1,4.94,4.94,0,0,1-1,.84,4.67,4.67,0,0,1-1.2.55,4.43,4.43,0,0,1-1.28.2,2.67,2.67,0,0,1-1.14-.22,2.1,2.1,0,0,1-.78-.58,1.66,1.66,0,0,1-.36-.85A2.29,2.29,0,0,1,434.29,414.69Z"/><line class="cls-4" x1="464.18" y1="408.69" x2="464.18" y2="391.61"/><path d="M457.78,409.57a3.37,3.37,0,0,1,.63-1,4.88,4.88,0,0,1,1-.83,4.76,4.76,0,0,1,1.19-.55,4.39,4.39,0,0,1,1.29-.2,2.91,2.91,0,0,1,1.15.22,1.93,1.93,0,0,1,.78.57,1.77,1.77,0,0,1,.36.84,2.14,2.14,0,0,1-.13,1,3.21,3.21,0,0,1-.64,1,4.59,4.59,0,0,1-1,.84,4.7,4.7,0,0,1-1.2.56,4.41,4.41,0,0,1-1.28.19,2.83,2.83,0,0,1-1.14-.21,2.12,2.12,0,0,1-.78-.59,1.62,1.62,0,0,1-.36-.85A2.25,2.25,0,0,1,457.78,409.57Z"/><text class="cls-5" transform="translate(451.43 409.55)">#</text><text class="cls-9" transform="translate(437.55 391.18)">3</text><polyline class="cls-4" points="410.85 393.75 410.85 391.18 435.63 388.62"/><polyline class="cls-4" points="443.74 387.77 464.45 385.63 464.45 388.19"/><text class="cls-8" transform="translate(374.25 437.73)">q</text><text class="cls-8" transform="translate(378.75 437.73)">u</text><text class="cls-8" transform="translate(384 437.73)">e</text><text class="cls-8" transform="translate(387.75 437.73)">/</text><text class="cls-8" transform="translate(390.75 437.73)">e</text><text class="cls-8" transform="translate(394.5 437.73)">m</text><text class="cls-8" transform="translate(406.73 437.73)">b</text><text class="cls-8" transform="translate(411.23 437.73)">r</text><text class="cls-8" transform="translate(414.98 437.73)">i</text><text class="cls-8" transform="translate(417.23 437.73)">a</text><text class="cls-8" transform="translate(430.38 437.73)">g</text><text class="cls-8" transform="translate(434.88 437.73)">a</text><text class="cls-8" transform="translate(439.38 437.73)">n</text><text class="cls-8" transform="translate(453.12 437.73)">d</text><text class="cls-8" transform="translate(457.62 437.73)">e</text><text class="cls-8" transform="translate(461.37 437.73)">/</text><text class="cls-8" transform="translate(464.37 437.73)">a</text><line class="cls-4" x1="343.78" y1="466.78" x2="343.78" y2="483.86"/><path d="M343.75,465.94a3.21,3.21,0,0,1,.63-1,4.58,4.58,0,0,1,1-.83,4.79,4.79,0,0,1,1.19-.56,4.33,4.33,0,0,1,1.29-.19,2.91,2.91,0,0,1,1.15.21,2,2,0,0,1,.78.58,1.77,1.77,0,0,1,.36.84,2,2,0,0,1-.14,1,3.06,3.06,0,0,1-.63,1,5,5,0,0,1-1,.84,4.7,4.7,0,0,1-2.48.75,2.65,2.65,0,0,1-1.13-.22,2,2,0,0,1-.78-.58,1.66,1.66,0,0,1-.36-.85A2.29,2.29,0,0,1,343.75,465.94Z"/><path d="M370.26,464.12a1.18,1.18,0,0,1,.92.06,1.42,1.42,0,0,1,.57.57,2,2,0,0,1,.23.81,1.76,1.76,0,0,1-.06.75,4.54,4.54,0,0,0,.6-.12,1.52,1.52,0,0,0,.55-.37,4.49,4.49,0,0,0,.44-.49l.42-.51.29.16-2.28,8.59h-.82c.14-.45.28-.9.43-1.33s.25-.73.37-1.12.23-.7.33-.93c.22-.61.4-1.14.54-1.61s.26-.87.34-1.2.17-.72.23-1c-.13.1-.29.22-.5.36a7.92,7.92,0,0,1-.69.42,5.84,5.84,0,0,1-.76.36,2.7,2.7,0,0,1-.76.18,1.64,1.64,0,0,1-1.28-.44,1.8,1.8,0,0,1-.56-1.09,1.88,1.88,0,0,1,.26-1.23A1.75,1.75,0,0,1,370.26,464.12Z"/><text class="cls-5" transform="translate(384.38 478.73)">J</text><line class="cls-4" x1="384.57" y1="466.78" x2="384.57" y2="483.86"/><path d="M384.54,465.94a3.18,3.18,0,0,1,.62-1,5,5,0,0,1,2.17-1.39,4.33,4.33,0,0,1,1.29-.19,2.91,2.91,0,0,1,1.15.21,2.21,2.21,0,0,1,.78.58,1.66,1.66,0,0,1,.35.84,2,2,0,0,1-.13,1,3.41,3.41,0,0,1-.63,1,5,5,0,0,1-1,.84,4.67,4.67,0,0,1-1.2.55,4.43,4.43,0,0,1-1.28.2,2.67,2.67,0,0,1-1.14-.22,2,2,0,0,1-.78-.58,1.73,1.73,0,0,1-.35-.85A2,2,0,0,1,384.54,465.94Z"/><line class="cls-4" x1="411.05" y1="466.78" x2="411.05" y2="483.86"/><path d="M411,465.94a3,3,0,0,1,.62-1,5,5,0,0,1,2.17-1.39,4.33,4.33,0,0,1,1.29-.19,3,3,0,0,1,1.15.21,2.09,2.09,0,0,1,.77.58,1.68,1.68,0,0,1,.36.84,2,2,0,0,1-.13,1,3.26,3.26,0,0,1-.64,1,4.7,4.7,0,0,1-2.18,1.39,4.43,4.43,0,0,1-1.28.2,2.67,2.67,0,0,1-1.14-.22,2,2,0,0,1-.78-.58,1.75,1.75,0,0,1-.36-.85A2.18,2.18,0,0,1,411,465.94Z"/><line class="cls-4" x1="434.32" y1="464.21" x2="434.32" y2="481.3"/><path d="M434.29,463.38a3.21,3.21,0,0,1,.63-1,4.3,4.3,0,0,1,1-.83,4.79,4.79,0,0,1,1.19-.56,4.43,4.43,0,0,1,1.29-.19,2.91,2.91,0,0,1,1.15.21,2,2,0,0,1,.78.58,1.77,1.77,0,0,1,.36.84,2.11,2.11,0,0,1-.13,1,3.26,3.26,0,0,1-.64,1,4.94,4.94,0,0,1-1,.84,4.67,4.67,0,0,1-1.2.55,4.43,4.43,0,0,1-1.28.2,2.83,2.83,0,0,1-1.14-.22,2.1,2.1,0,0,1-.78-.58,1.66,1.66,0,0,1-.36-.85A2.28,2.28,0,0,1,434.29,463.38Z"/><line class="cls-4" x1="457.81" y1="466.78" x2="457.81" y2="483.86"/><path d="M457.78,465.94a3.21,3.21,0,0,1,.63-1,4.58,4.58,0,0,1,1-.83,4.79,4.79,0,0,1,1.19-.56,4.38,4.38,0,0,1,1.29-.19,2.91,2.91,0,0,1,1.15.21,2,2,0,0,1,.78.58,1.77,1.77,0,0,1,.36.84,2.1,2.1,0,0,1-.13,1,3.26,3.26,0,0,1-.64,1,5.24,5.24,0,0,1-1,.84,4.67,4.67,0,0,1-1.2.55,4.43,4.43,0,0,1-1.28.2,2.67,2.67,0,0,1-1.14-.22,2,2,0,0,1-.78-.58,1.66,1.66,0,0,1-.36-.85A2.29,2.29,0,0,1,457.78,465.94Z"/><text class="cls-9" transform="translate(435.41 491.97)">3</text><polyline class="cls-4" points="410.85 486.64 410.85 489.2 433.49 489.2"/><polyline class="cls-4" points="441.6 489.2 464.45 489.2 464.45 486.64"/><text class="cls-8" transform="translate(374.25 499.23)">q</text><text class="cls-8" transform="translate(378.75 499.23)">u</text><text class="cls-8" transform="translate(384 499.23)">e</text><text class="cls-8" transform="translate(387.75 499.23)">/</text><text class="cls-8" transform="translate(390.75 499.23)">e</text><text class="cls-8" transform="translate(394.5 499.23)">m</text><text class="cls-8" transform="translate(406.73 499.23)">b</text><text class="cls-8" transform="translate(411.23 499.23)">r</text><text class="cls-8" transform="translate(414.98 499.23)">i</text><text class="cls-8" transform="translate(417.23 499.23)">a</text><text class="cls-8" transform="translate(430.38 499.23)">g</text><text class="cls-8" transform="translate(434.88 499.23)">a</text><text class="cls-8" transform="translate(439.38 499.23)">n</text><text class="cls-8" transform="translate(453.12 499.23)">d</text><text class="cls-8" transform="translate(457.62 499.23)">e</text><text class="cls-8" transform="translate(461.37 499.23)">/</text><text class="cls-8" transform="translate(464.37 499.23)">a</text><line class="cls-4" x1="343.78" y1="530.84" x2="343.78" y2="547.92"/><path d="M350.15,528.16a1.39,1.39,0,0,1,.15.5,2.62,2.62,0,0,1,0,.56,4.34,4.34,0,0,1-.09.52,3.11,3.11,0,0,1-.12.39,3.92,3.92,0,0,1-.86,1.37,4,4,0,0,1-1.05.82,4.39,4.39,0,0,1-2.4.39l-.48-.06a3.7,3.7,0,0,1-.55-.14,2.73,2.73,0,0,1-.54-.27,1.33,1.33,0,0,1-.59-1,2.44,2.44,0,0,1,0-.54,3.26,3.26,0,0,1,.09-.47c0-.14.08-.27.12-.38a3.53,3.53,0,0,1,.82-1.29,6,6,0,0,1,1-.8,4.41,4.41,0,0,1,2.7-.49l.41,0a2.36,2.36,0,0,1,.51.12,3.23,3.23,0,0,1,.49.25A1.11,1.11,0,0,1,350.15,528.16Zm-.47.35a.83.83,0,0,0-.4-.33,1.46,1.46,0,0,0-.52-.06,1.94,1.94,0,0,0-.56.12,5.27,5.27,0,0,0-.53.23q-.35.16-.63.33c-.18.11-.38.21-.58.32-.4.22-.8.47-1.21.74-.15.1-.31.21-.46.33a1.94,1.94,0,0,0-.4.41,1.3,1.3,0,0,0-.22.48.74.74,0,0,0,.09.5.69.69,0,0,0,.39.33,1.17,1.17,0,0,0,.53.05,2.38,2.38,0,0,0,.56-.13,3.68,3.68,0,0,0,.53-.23c.24-.11.45-.21.65-.32l.6-.33.59-.33.6-.39c.14-.1.29-.2.44-.33a1.94,1.94,0,0,0,.4-.41,1.3,1.3,0,0,0,.22-.48A.74.74,0,0,0,349.68,528.51Z"/><line class="cls-4" x1="417.41" y1="536.82" x2="417.41" y2="519.74"/><path d="M411,537.69a3,3,0,0,1,.62-1,5,5,0,0,1,2.17-1.39,4.33,4.33,0,0,1,1.29-.19,3,3,0,0,1,1.15.21,2.09,2.09,0,0,1,.77.58,1.68,1.68,0,0,1,.36.84,2,2,0,0,1-.13,1,3.26,3.26,0,0,1-.64,1,4.7,4.7,0,0,1-2.18,1.39,4.43,4.43,0,0,1-1.28.2,2.67,2.67,0,0,1-1.14-.22,2.1,2.1,0,0,1-.78-.58,1.75,1.75,0,0,1-.36-.85A2.18,2.18,0,0,1,411,537.69Z"/><line class="cls-4" x1="446.07" y1="530.84" x2="446.07" y2="547.92"/><path d="M446,530a3.22,3.22,0,0,1,.62-1,5,5,0,0,1,1-.83,4.61,4.61,0,0,1,1.19-.55,4.34,4.34,0,0,1,1.29-.2,2.74,2.74,0,0,1,1.15.22,2.08,2.08,0,0,1,.78.57,1.66,1.66,0,0,1,.35.84,2,2,0,0,1-.13,1,3.37,3.37,0,0,1-.63,1,5,5,0,0,1-1,.84,4.7,4.7,0,0,1-1.2.56,4.41,4.41,0,0,1-1.28.19,2.83,2.83,0,0,1-1.14-.21,2.12,2.12,0,0,1-.78-.59,1.73,1.73,0,0,1-.35-.85A2,2,0,0,1,446,530Z"/><text class="cls-8" transform="translate(339.46 560.73)">b</text><text class="cls-8" transform="translate(343.96 560.73)">r</text><text class="cls-8" transform="translate(347.71 560.73)">i</text><text class="cls-8" transform="translate(349.96 560.73)">a</text><text class="cls-8" transform="translate(407.1 560.73)">g</text><text class="cls-8" transform="translate(411.6 560.73)">a</text><text class="cls-8" transform="translate(416.1 560.73)">n</text><text class="cls-8" transform="translate(441.38 560.73)">d</text><text class="cls-8" transform="translate(445.88 560.73)">e</text><text class="cls-8" transform="translate(449.63 560.73)">/</text><text class="cls-8" transform="translate(452.63 560.73)">a</text><text class="cls-5" transform="translate(485.81 337.8)">w</text><text class="cls-8" transform="translate(485.81 376.23)">m</text><text class="cls-8" transform="translate(492.56 376.23)">o</text><text class="cls-8" transform="translate(497.06 376.23)">r</text><text class="cls-5" transform="translate(485.81 406.98)">w</text><text class="cls-8" transform="translate(485.81 437.73)">m</text><text class="cls-8" transform="translate(492.56 437.73)">o</text><text class="cls-8" transform="translate(497.06 437.73)">r</text><text class="cls-5" transform="translate(485.81 463.36)">w</text><text class="cls-8" transform="translate(485.81 499.23)">m</text><text class="cls-8" transform="translate(492.56 499.23)">o</text><text class="cls-8" transform="translate(497.06 499.23)">r</text><line class="cls-4" x1="492.37" y1="539.38" x2="492.37" y2="522.3"/><path d="M492.37,538.41a1.39,1.39,0,0,1,.15.5,2.62,2.62,0,0,1,0,.56,4.34,4.34,0,0,1-.09.52,3.11,3.11,0,0,1-.12.39,3.86,3.86,0,0,1-.87,1.37,3.8,3.8,0,0,1-1,.82,4.39,4.39,0,0,1-2.4.39l-.48-.06a3.41,3.41,0,0,1-.55-.14,2.73,2.73,0,0,1-.54-.27,1.33,1.33,0,0,1-.59-1,2.44,2.44,0,0,1,0-.54,3.26,3.26,0,0,1,.09-.47c0-.14.08-.27.12-.38a3.4,3.4,0,0,1,.82-1.29,6,6,0,0,1,1-.8,4.41,4.41,0,0,1,2.7-.49l.41,0a2.5,2.5,0,0,1,.51.12,3.23,3.23,0,0,1,.49.25A1.19,1.19,0,0,1,492.37,538.41Zm-.47.35a.83.83,0,0,0-.4-.33,1.46,1.46,0,0,0-.52-.06,1.94,1.94,0,0,0-.56.12,5.27,5.27,0,0,0-.53.23c-.24.11-.44.22-.63.33s-.38.21-.58.32c-.4.22-.8.47-1.21.74-.15.1-.31.21-.46.33a1.94,1.94,0,0,0-.4.41,1.3,1.3,0,0,0-.22.48.74.74,0,0,0,.09.5.69.69,0,0,0,.39.33,1.17,1.17,0,0,0,.53.05,2.38,2.38,0,0,0,.56-.13,3.68,3.68,0,0,0,.53-.23c.23-.11.45-.21.65-.32l.6-.33.59-.33.6-.39c.14-.1.29-.2.44-.33a1.94,1.94,0,0,0,.4-.41,1.3,1.3,0,0,0,.22-.48A.74.74,0,0,0,491.9,538.76Z"/><line class="cls-4" x1="525.08" y1="530.84" x2="525.08" y2="547.92"/><path d="M525.05,530a3.22,3.22,0,0,1,.62-1,5,5,0,0,1,1-.83,4.61,4.61,0,0,1,1.19-.55,4.34,4.34,0,0,1,1.29-.2,2.74,2.74,0,0,1,1.15.22,2.08,2.08,0,0,1,.78.57,1.66,1.66,0,0,1,.35.84,2,2,0,0,1-.13,1,3.37,3.37,0,0,1-.63,1,5,5,0,0,1-1,.84,4.7,4.7,0,0,1-1.2.56,4.41,4.41,0,0,1-1.28.19,2.83,2.83,0,0,1-1.14-.21,2.12,2.12,0,0,1-.78-.59,1.73,1.73,0,0,1-.35-.85A2,2,0,0,1,525.05,530Z"/><line class="cls-4" x1="551.56" y1="530.84" x2="551.56" y2="547.92"/><path d="M551.53,530a3.05,3.05,0,0,1,.62-1,5,5,0,0,1,1-.83,4.61,4.61,0,0,1,1.19-.55,4.34,4.34,0,0,1,1.29-.2,2.78,2.78,0,0,1,1.15.22,2,2,0,0,1,.77.57,1.59,1.59,0,0,1,.36.84,2,2,0,0,1-.13,1,3.21,3.21,0,0,1-.64,1,4.82,4.82,0,0,1-2.18,1.4,4.41,4.41,0,0,1-1.28.19,2.83,2.83,0,0,1-1.14-.21,2.12,2.12,0,0,1-.78-.59,1.75,1.75,0,0,1-.36-.85A2.12,2.12,0,0,1,551.53,530Z"/><text class="cls-8" transform="translate(481.68 560.73)">m</text><text class="cls-8" transform="translate(488.43 560.73)">o</text><text class="cls-8" transform="translate(492.93 560.73)">r</text><text class="cls-8" transform="translate(514.76 560.73)">q</text><text class="cls-8" transform="translate(519.26 560.73)">u</text><text class="cls-8" transform="translate(524.51 560.73)">e</text><text class="cls-8" transform="translate(528.26 560.73)">/</text><text class="cls-8" transform="translate(531.26 560.73)">e</text><text class="cls-8" transform="translate(535.01 560.73)">m</text><text class="cls-8" transform="translate(547.24 560.73)">b</text><text class="cls-8" transform="translate(551.74 560.73)">r</text><text class="cls-8" transform="translate(555.49 560.73)">i</text><text class="cls-8" transform="translate(557.74 560.73)">a</text><path d="M105.49,338.87c2.13-3.21,8.11-3.21,10.25,0l-.18.11c-2-2-7.94-2-9.89,0l-.18-.11"/><path d="M146.06,515.68c4.7-3.85,18.58-3.85,23.28,0l-.14.16c-4.56-2.73-18.44-2.73-23,0l-.14-.16"/><path d="M287.64,352.1c11.53,7.69,46.12,7.69,57.66,0l-.12-.17c-11.42,6.58-46,6.58-57.42,0l-.12.17"/><path d="M287.64,418.52c11.53,7,46.12,7,57.66,0l-.11-.19c-11.43,5.95-46,5.95-57.44,0l-.11.19"/><path d="M287.64,461.87c11.53-7.69,46.12-7.69,57.66,0l-.12.17c-11.42-6.58-46-6.58-57.42,0l-.12-.17"/><path d="M492,333.74c16.66-8.76,66.84-8.76,83.49,0l-.1.19c-16.55-7.66-66.73-7.66-83.29,0l-.1-.19"/><path d="M492,402.93c16.66-6.62,66.84-6.62,83.49,0l-.07.2c-16.58-5.54-66.76-5.54-83.34,0l-.08-.2"/><path d="M492,459.3c16.66-8.75,66.84-8.75,83.49,0l-.1.19c-16.55-7.66-66.73-7.66-83.29,0l-.1-.19"/><line class="cls-4" x1="108.05" y1="376.02" x2="121.08" y2="376.02"/><text class="cls-8" transform="translate(179.37 376.23)">-</text><text class="cls-8" transform="translate(193.36 376.23)">-</text><text class="cls-8" transform="translate(210.33 376.23)">-</text><text class="cls-8" transform="translate(264.47 376.23)">-</text><line class="cls-4" x1="300.88" y1="376.02" x2="350.42" y2="376.02"/><text class="cls-8" transform="translate(179.37 437.73)">-</text><text class="cls-8" transform="translate(193.36 437.73)">-</text><text class="cls-8" transform="translate(210.33 437.73)">-</text><line class="cls-4" x1="300.88" y1="437.52" x2="350.42" y2="437.52"/><text class="cls-8" transform="translate(264.47 437.73)">-</text><text class="cls-8" transform="translate(402.52 376.23)">-</text><text class="cls-8" transform="translate(424.62 376.23)">-</text><text class="cls-8" transform="translate(475.77 376.23)">-</text><line class="cls-4" x1="502.46" y1="376.02" x2="572.93" y2="376.02"/><text class="cls-8" transform="translate(402.52 437.73)">-</text><text class="cls-8" transform="translate(424.62 437.73)">-</text><line class="cls-4" x1="502.46" y1="437.52" x2="572.93" y2="437.52"/><text class="cls-8" transform="translate(475.77 437.73)">-</text><text class="cls-8" transform="translate(179.26 499.23)">-</text><text class="cls-8" transform="translate(193.25 499.23)">-</text><text class="cls-8" transform="translate(210.33 499.23)">-</text><line class="cls-4" x1="300.88" y1="499.02" x2="350.42" y2="499.02"/><text class="cls-8" transform="translate(264.47 499.23)">-</text><text class="cls-8" transform="translate(402.52 499.23)">-</text><text class="cls-8" transform="translate(424.62 499.23)">-</text><line class="cls-4" x1="502.46" y1="499.02" x2="572.93" y2="499.02"/><text class="cls-8" transform="translate(475.77 499.23)">-</text><text class="cls-8" transform="translate(165.92 560.73)">-</text><text class="cls-8" transform="translate(193.25 560.73)">-</text><text class="cls-8" transform="translate(210.33 560.73)">-</text><text class="cls-8" transform="translate(262.01 560.73)">-</text><text class="cls-8" transform="translate(331.63 560.73)">-</text><text class="cls-8" transform="translate(379.24 560.73)">-</text><text class="cls-8" transform="translate(467.97 560.73)">-</text><text class="cls-8" transform="translate(543.03 560.73)">-</text><text class="cls-8" transform="translate(567.38 560.73)">-</text><text class="cls-10" transform="translate(570 34.75)">5</text><text class="cls-10" transform="translate(287.75 34.75)">L</text><text class="cls-10" transform="translate(295.25 34.75)">u</text><text class="cls-10" transform="translate(301.25 34.75)">n</text><text class="cls-10" transform="translate(307.25 34.75)">a</text><text class="cls-10" transform="translate(315.5 34.75)">L</text><text class="cls-10" transform="translate(323 34.75)">i</text><text class="cls-10" transform="translate(326 34.75)">b</text><text class="cls-10" transform="translate(332 34.75)">e</text><text class="cls-10" transform="translate(337.25 34.75)">r</text><text class="cls-10" transform="translate(341 34.75)">i</text><text class="cls-10" transform="translate(344 34.75)">a</text><text class="cls-10" transform="translate(349.25 34.75)">n</text><text class="cls-10" transform="translate(355.25 34.75)">a</text></g></svg>