<svg id="Layer_1" data-name="Layer 1" xmlns="http://www.w3.org/2000/svg" xmlns:xlink="http://www.w3.org/1999/xlink" viewBox="0 0 612 792"><defs><style>.cls-1,.cls-4,.cls-6{fill:none;}.cls-2{clip-path:url(#clip-path);}.cls-3{fill:#fff;}.cls-4,.cls-6{stroke:#000;stroke-miterlimit:10;}.cls-4{stroke-width:0.38px;}.cls-5{font-size:20.5px;font-family:Maestro;}.cls-6{stroke-width:2.56px;}.cls-7{font-size:11.96px;}.cls-10,.cls-11,.cls-7{font-family:TimesNewRomanPSMT, Times New Roman;}.cls-10,.cls-8{font-size:8.54px;}.cls-8{font-family:TimesNewRomanPS-ItalicMT, Times New Roman;font-style:italic;}.cls-9{font-size:10.25px;font-family:FinaleLyrics;}.cls-11{font-size:12px;}</style><clipPath id="clip-path"><rect class="cls-1" width="612" height="792"/></clipPath></defs><title>Nayuribe_3</title><g class="cls-2"><rect class="cls-3" width="612" height="792"/><line class="cls-4" x1="72.16" y1="71.94" x2="72.16" y2="215.44"/><text class="cls-5" transform="translate(77.52 87.31)">&amp;</text><text class="cls-5" transform="translate(77.52 148.81)">&amp;</text><text class="cls-5" transform="translate(77.52 200.06)">?</text><text class="cls-5" transform="translate(97.59 71.94)">#</text><text class="cls-5" transform="translate(102.93 79.63)">#</text><text class="cls-5" transform="translate(108.27 69.38)">#</text><text class="cls-5" transform="translate(97.59 133.44)">#</text><text class="cls-5" transform="translate(102.93 141.13)">#</text><text class="cls-5" transform="translate(108.27 130.88)">#</text><text class="cls-5" transform="translate(97.59 200.06)">#</text><text class="cls-5" transform="translate(102.93 207.75)">#</text><text class="cls-5" transform="translate(108.27 197.5)">#</text><line class="cls-4" x1="226.97" y1="71.94" x2="226.97" y2="92.44"/><line class="cls-4" x1="226.97" y1="133.44" x2="226.97" y2="153.94"/><line class="cls-4" x1="226.97" y1="194.94" x2="226.97" y2="215.44"/><line class="cls-4" x1="311.32" y1="71.94" x2="311.32" y2="92.44"/><line class="cls-4" x1="311.32" y1="133.44" x2="311.32" y2="153.94"/><line class="cls-4" x1="311.32" y1="194.94" x2="311.32" y2="215.44"/><line class="cls-6" x1="397.61" y1="71.94" x2="397.61" y2="92.44"/><line class="cls-4" x1="393.58" y1="71.94" x2="393.58" y2="92.44"/><text class="cls-5" transform="translate(389.29 80.05)">.</text><text class="cls-5" transform="translate(389.29 85.18)">.</text><line class="cls-6" x1="397.61" y1="133.44" x2="397.61" y2="153.94"/><line class="cls-4" x1="393.58" y1="133.44" x2="393.58" y2="153.94"/><text class="cls-5" transform="translate(389.29 141.55)">.</text><text class="cls-5" transform="translate(389.29 146.68)">.</text><line class="cls-6" x1="397.61" y1="194.94" x2="397.61" y2="215.44"/><line class="cls-4" x1="393.58" y1="194.94" x2="393.58" y2="215.44"/><text class="cls-5" transform="translate(389.29 203.05)">.</text><text class="cls-5" transform="translate(389.29 208.18)">.</text><line class="cls-4" x1="476.82" y1="71.94" x2="476.82" y2="92.44"/><line class="cls-4" x1="476.82" y1="133.44" x2="476.82" y2="153.94"/><line class="cls-4" x1="476.82" y1="194.94" x2="476.82" y2="215.44"/><line class="cls-4" x1="549.42" y1="71.94" x2="549.42" y2="92.44"/><line class="cls-4" x1="551.98" y1="71.94" x2="551.98" y2="92.44"/><line class="cls-4" x1="549.42" y1="133.44" x2="549.42" y2="153.94"/><line class="cls-4" x1="551.98" y1="133.44" x2="551.98" y2="153.94"/><line class="cls-4" x1="549.42" y1="194.94" x2="549.42" y2="215.44"/><line class="cls-4" x1="551.98" y1="194.94" x2="551.98" y2="215.44"/><text class="cls-5" transform="translate(557.34 71.94)">n</text><text class="cls-5" transform="translate(562.04 79.63)">n</text><text class="cls-5" transform="translate(566.74 69.38)">n</text><text class="cls-5" transform="translate(557.34 133.44)">n</text><text class="cls-5" transform="translate(562.04 141.13)">n</text><text class="cls-5" transform="translate(566.74 130.88)">n</text><text class="cls-5" transform="translate(557.34 200.06)">n</text><text class="cls-5" transform="translate(562.04 207.75)">n</text><text class="cls-5" transform="translate(566.74 197.5)">n</text><line class="cls-4" x1="71.96" y1="71.94" x2="575.92" y2="71.94"/><line class="cls-4" x1="71.96" y1="77.06" x2="575.92" y2="77.06"/><line class="cls-4" x1="71.96" y1="82.19" x2="575.92" y2="82.19"/><line class="cls-4" x1="71.96" y1="87.31" x2="575.92" y2="87.31"/><line class="cls-4" x1="71.96" y1="92.44" x2="575.92" y2="92.44"/><text class="cls-7" transform="translate(49.75 86.03)">S</text><line class="cls-4" x1="71.96" y1="133.44" x2="575.92" y2="133.44"/><line class="cls-4" x1="71.96" y1="138.56" x2="575.92" y2="138.56"/><line class="cls-4" x1="71.96" y1="143.69" x2="575.92" y2="143.69"/><line class="cls-4" x1="71.96" y1="148.81" x2="575.92" y2="148.81"/><line class="cls-4" x1="71.96" y1="153.94" x2="575.92" y2="153.94"/><text class="cls-7" transform="translate(47.62 147.53)">A</text><line class="cls-4" x1="71.96" y1="194.94" x2="575.92" y2="194.94"/><line class="cls-4" x1="71.96" y1="200.06" x2="575.92" y2="200.06"/><line class="cls-4" x1="71.96" y1="205.19" x2="575.92" y2="205.19"/><line class="cls-4" x1="71.96" y1="210.31" x2="575.92" y2="210.31"/><line class="cls-4" x1="71.96" y1="215.44" x2="575.92" y2="215.44"/><text class="cls-7" transform="translate(48.26 209.03)">B</text><path d="M68.76,69.38c6.41,0,7.69-.86,9.4-2.57-1.07,3-3.63,3.85-7.48,3.85V216.72c3.85,0,6.41.85,7.48,3.84-1.71-1.71-3-2.56-9.4-2.56"/><text class="cls-8" transform="translate(73.24 62.54)">3</text><text class="cls-8" transform="translate(77.75 62.54)">4</text><path d="M123.16,89.9a3.37,3.37,0,0,1,.63-1,4.88,4.88,0,0,1,1-.83,4.76,4.76,0,0,1,1.19-.55,4.45,4.45,0,0,1,1.29-.2,2.74,2.74,0,0,1,1.15.22,1.93,1.93,0,0,1,.78.57,1.77,1.77,0,0,1,.36.84,2.15,2.15,0,0,1-.13,1,3.21,3.21,0,0,1-.64,1,4.94,4.94,0,0,1-1,.84,4.7,4.7,0,0,1-1.2.56,4.41,4.41,0,0,1-1.28.19,2.83,2.83,0,0,1-1.14-.21,2.12,2.12,0,0,1-.78-.59,1.62,1.62,0,0,1-.36-.85A2.25,2.25,0,0,1,123.16,89.9Z"/><line class="cls-4" x1="129.56" y1="89.02" x2="129.56" y2="73.22"/><path d="M140.46,89.9a3.37,3.37,0,0,1,.63-1,4.88,4.88,0,0,1,1-.83,4.61,4.61,0,0,1,1.19-.55,4.34,4.34,0,0,1,1.29-.2,2.74,2.74,0,0,1,1.15.22,1.93,1.93,0,0,1,.78.57,1.77,1.77,0,0,1,.36.84,2.16,2.16,0,0,1-.14,1,3.18,3.18,0,0,1-.63,1,5,5,0,0,1-1,.84,4.7,4.7,0,0,1-1.2.56,4.36,4.36,0,0,1-1.28.19,2.86,2.86,0,0,1-1.14-.21,2,2,0,0,1-.77-.59,1.62,1.62,0,0,1-.36-.85A2.12,2.12,0,0,1,140.46,89.9Z"/><line class="cls-4" x1="146.85" y1="89.02" x2="146.85" y2="73.22"/><path d="M158.18,92.46a3.37,3.37,0,0,1,.63-1,4.88,4.88,0,0,1,1-.83,4.76,4.76,0,0,1,1.19-.55,4.45,4.45,0,0,1,1.29-.2,2.91,2.91,0,0,1,1.15.22,1.93,1.93,0,0,1,.78.57,1.77,1.77,0,0,1,.36.84,2.14,2.14,0,0,1-.13,1,3.21,3.21,0,0,1-.64,1,4.68,4.68,0,0,1-1,.85,5,5,0,0,1-1.2.55,4.41,4.41,0,0,1-1.28.19,2.83,2.83,0,0,1-1.14-.21,2.12,2.12,0,0,1-.78-.59,1.62,1.62,0,0,1-.36-.85A2.25,2.25,0,0,1,158.18,92.46Z"/><line class="cls-4" x1="164.58" y1="91.58" x2="164.58" y2="73.22"/><polyline points="129.37 71.94 164.77 71.94 164.77 74.5 129.37 74.5"/><path d="M175.05,84.77a3.21,3.21,0,0,1,.63-1,4.3,4.3,0,0,1,1-.83,4.79,4.79,0,0,1,1.19-.56,4.43,4.43,0,0,1,1.29-.19,2.91,2.91,0,0,1,1.15.21,2,2,0,0,1,.78.58,1.77,1.77,0,0,1,.36.84,2.11,2.11,0,0,1-.13,1,3.26,3.26,0,0,1-.64,1,4.94,4.94,0,0,1-1,.84,4.67,4.67,0,0,1-1.2.55,4.43,4.43,0,0,1-1.28.2,2.83,2.83,0,0,1-1.14-.22,2.1,2.1,0,0,1-.78-.58,1.66,1.66,0,0,1-.36-.85A2.28,2.28,0,0,1,175.05,84.77Z"/><line class="cls-4" x1="181.45" y1="83.9" x2="181.45" y2="68.09"/><path d="M192.78,89.9a3.15,3.15,0,0,1,.62-1,5,5,0,0,1,1-.83,4.61,4.61,0,0,1,1.19-.55,4.34,4.34,0,0,1,1.29-.2,2.78,2.78,0,0,1,1.15.22,2,2,0,0,1,.77.57,1.59,1.59,0,0,1,.36.84,2,2,0,0,1-.13,1,3.21,3.21,0,0,1-.64,1,4.82,4.82,0,0,1-2.18,1.4,4.41,4.41,0,0,1-1.28.19,2.83,2.83,0,0,1-1.14-.21,2.12,2.12,0,0,1-.78-.59,1.8,1.8,0,0,1-.36-.85A2.14,2.14,0,0,1,192.78,89.9Z"/><line class="cls-4" x1="199.17" y1="89.02" x2="199.17" y2="69.38"/><path d="M210.29,89.9a3.15,3.15,0,0,1,.62-1,5,5,0,0,1,1-.83,4.61,4.61,0,0,1,1.19-.55,4.34,4.34,0,0,1,1.29-.2,2.74,2.74,0,0,1,1.15.22,2,2,0,0,1,.77.57,1.59,1.59,0,0,1,.36.84,2,2,0,0,1-.13,1,3.21,3.21,0,0,1-.64,1,4.82,4.82,0,0,1-2.18,1.4,4.41,4.41,0,0,1-1.28.19,2.83,2.83,0,0,1-1.14-.21,2.12,2.12,0,0,1-.78-.59,1.8,1.8,0,0,1-.36-.85A2.14,2.14,0,0,1,210.29,89.9Z"/><line class="cls-4" x1="216.68" y1="89.02" x2="216.68" y2="70.66"/><polyline points="181.26 66.81 216.87 69.38 216.87 71.94 181.26 69.38"/><text class="cls-9" transform="translate(124.13 112.94)">a</text><text class="cls-9" transform="translate(134.67 112.94)">g</text><text class="cls-9" transform="translate(139.17 112.94)">u</text><text class="cls-9" transform="translate(144.42 112.94)">a</text><text class="cls-9" transform="translate(148.92 112.94)">s</text><text class="cls-9" transform="translate(157.65 112.94)">s</text><text class="cls-9" transform="translate(161.4 112.94)">e</text><text class="cls-9" transform="translate(173.01 112.94)">m</text><text class="cls-9" transform="translate(179.76 112.94)">e</text><text class="cls-9" transform="translate(189.24 112.94)">c</text><text class="cls-9" transform="translate(193.74 112.94)">e</text><text class="cls-9" transform="translate(197.49 112.94)">n</text><text class="cls-9" transform="translate(208.25 112.94)">l</text><text class="cls-9" transform="translate(210.5 112.94)">a</text><text class="cls-9" transform="translate(215 112.94)">s</text><path d="M123.16,151.4a3.37,3.37,0,0,1,.63-1,4.88,4.88,0,0,1,1-.83A4.76,4.76,0,0,1,126,149a4.45,4.45,0,0,1,1.29-.2,2.74,2.74,0,0,1,1.15.22,1.93,1.93,0,0,1,.78.57,1.77,1.77,0,0,1,.36.84,2.15,2.15,0,0,1-.13,1,3.21,3.21,0,0,1-.64,1,4.94,4.94,0,0,1-1,.84,4.7,4.7,0,0,1-1.2.56,4.41,4.41,0,0,1-1.28.19,2.83,2.83,0,0,1-1.14-.21,2.12,2.12,0,0,1-.78-.59,1.62,1.62,0,0,1-.36-.85A2.25,2.25,0,0,1,123.16,151.4Z"/><line class="cls-4" x1="129.56" y1="150.52" x2="129.56" y2="134.72"/><path d="M140.46,151.4a3.37,3.37,0,0,1,.63-1,4.88,4.88,0,0,1,1-.83,4.61,4.61,0,0,1,1.19-.55,4.34,4.34,0,0,1,1.29-.2,2.74,2.74,0,0,1,1.15.22,1.93,1.93,0,0,1,.78.57,1.77,1.77,0,0,1,.36.84,2.16,2.16,0,0,1-.14,1,3.18,3.18,0,0,1-.63,1,5,5,0,0,1-1,.84,4.7,4.7,0,0,1-1.2.56,4.36,4.36,0,0,1-1.28.19,2.86,2.86,0,0,1-1.14-.21,2,2,0,0,1-.77-.59,1.62,1.62,0,0,1-.36-.85A2.12,2.12,0,0,1,140.46,151.4Z"/><line class="cls-4" x1="146.85" y1="150.52" x2="146.85" y2="134.72"/><path d="M158.18,156.52a3.21,3.21,0,0,1,.63-1,4.3,4.3,0,0,1,1-.83,4.79,4.79,0,0,1,1.19-.56,4.43,4.43,0,0,1,1.29-.19,2.91,2.91,0,0,1,1.15.21,2,2,0,0,1,.78.58,1.77,1.77,0,0,1,.36.84,2.11,2.11,0,0,1-.13,1,3.26,3.26,0,0,1-.64,1,4.94,4.94,0,0,1-1,.84,4.67,4.67,0,0,1-1.2.55,4.43,4.43,0,0,1-1.28.2,2.83,2.83,0,0,1-1.14-.22,2.1,2.1,0,0,1-.78-.58,1.66,1.66,0,0,1-.36-.85A2.28,2.28,0,0,1,158.18,156.52Z"/><line class="cls-4" x1="164.58" y1="155.65" x2="164.58" y2="134.72"/><polyline points="129.37 133.44 164.77 133.44 164.77 136 129.37 136"/><path d="M175.05,156.52a3.21,3.21,0,0,1,.63-1,4.3,4.3,0,0,1,1-.83,4.79,4.79,0,0,1,1.19-.56,4.43,4.43,0,0,1,1.29-.19,2.91,2.91,0,0,1,1.15.21,2,2,0,0,1,.78.58,1.77,1.77,0,0,1,.36.84,2.11,2.11,0,0,1-.13,1,3.26,3.26,0,0,1-.64,1,4.94,4.94,0,0,1-1,.84,4.67,4.67,0,0,1-1.2.55,4.43,4.43,0,0,1-1.28.2,2.83,2.83,0,0,1-1.14-.22,2.1,2.1,0,0,1-.78-.58,1.66,1.66,0,0,1-.36-.85A2.28,2.28,0,0,1,175.05,156.52Z"/><line class="cls-4" x1="181.45" y1="155.65" x2="181.45" y2="139.84"/><path d="M192.78,156.52a3,3,0,0,1,.62-1,4.36,4.36,0,0,1,1-.83,4.63,4.63,0,0,1,1.19-.56,4.33,4.33,0,0,1,1.29-.19,3,3,0,0,1,1.15.21,2.09,2.09,0,0,1,.77.58,1.59,1.59,0,0,1,.36.84,2,2,0,0,1-.13,1,3.26,3.26,0,0,1-.64,1,4.7,4.7,0,0,1-2.18,1.39,4.43,4.43,0,0,1-1.28.2,2.83,2.83,0,0,1-1.14-.22,2.1,2.1,0,0,1-.78-.58,1.85,1.85,0,0,1-.36-.85A2.16,2.16,0,0,1,192.78,156.52Z"/><line class="cls-4" x1="199.17" y1="155.65" x2="199.17" y2="139.84"/><path d="M210.29,156.52a3,3,0,0,1,.62-1,4.36,4.36,0,0,1,1-.83,4.63,4.63,0,0,1,1.19-.56,4.33,4.33,0,0,1,1.29-.19,2.91,2.91,0,0,1,1.15.21,2.09,2.09,0,0,1,.77.58,1.59,1.59,0,0,1,.36.84,2,2,0,0,1-.13,1,3.26,3.26,0,0,1-.64,1A4.7,4.7,0,0,1,213.7,159a4.43,4.43,0,0,1-1.28.2,2.83,2.83,0,0,1-1.14-.22,2.1,2.1,0,0,1-.78-.58,1.85,1.85,0,0,1-.36-.85A2.16,2.16,0,0,1,210.29,156.52Z"/><line class="cls-4" x1="216.68" y1="155.65" x2="216.68" y2="139.84"/><polyline points="181.26 138.56 216.87 138.56 216.87 141.13 181.26 141.13"/><text class="cls-9" transform="translate(124.13 174.44)">a</text><text class="cls-9" transform="translate(134.67 174.44)">g</text><text class="cls-9" transform="translate(139.17 174.44)">u</text><text class="cls-9" transform="translate(144.42 174.44)">a</text><text class="cls-9" transform="translate(148.92 174.44)">s</text><text class="cls-9" transform="translate(157.65 174.44)">s</text><text class="cls-9" transform="translate(161.4 174.44)">e</text><text class="cls-9" transform="translate(173.01 174.44)">m</text><text class="cls-9" transform="translate(179.76 174.44)">e</text><text class="cls-9" transform="translate(189.24 174.44)">c</text><text class="cls-9" transform="translate(193.74 174.44)">e</text><text class="cls-9" transform="translate(197.49 174.44)">n</text><text class="cls-9" transform="translate(208.25 174.44)">l</text><text class="cls-9" transform="translate(210.5 174.44)">a</text><text class="cls-9" transform="translate(215 174.44)">s</text><path d="M123.16,200.08a3.21,3.21,0,0,1,.63-1,4.58,4.58,0,0,1,1-.83,4.79,4.79,0,0,1,1.19-.56,4.43,4.43,0,0,1,1.29-.19,2.91,2.91,0,0,1,1.15.21,2,2,0,0,1,.78.58,1.77,1.77,0,0,1,.36.84,2.1,2.1,0,0,1-.13,1,3.26,3.26,0,0,1-.64,1,4.94,4.94,0,0,1-1,.84,4.67,4.67,0,0,1-1.2.55,4.43,4.43,0,0,1-1.28.2,2.67,2.67,0,0,1-1.14-.22,2,2,0,0,1-.78-.58,1.66,1.66,0,0,1-.36-.85A2.29,2.29,0,0,1,123.16,200.08Z"/><line class="cls-4" x1="123.19" y1="200.92" x2="123.19" y2="216.72"/><path d="M140.46,200.08a3.21,3.21,0,0,1,.63-1,4.58,4.58,0,0,1,1-.83,4.63,4.63,0,0,1,1.19-.56,4.33,4.33,0,0,1,1.29-.19,2.91,2.91,0,0,1,1.15.21,2,2,0,0,1,.78.58,1.77,1.77,0,0,1,.36.84,2.11,2.11,0,0,1-.14,1,3.22,3.22,0,0,1-.63,1,5,5,0,0,1-1,.84,4.67,4.67,0,0,1-1.2.55,4.38,4.38,0,0,1-1.28.2,2.7,2.7,0,0,1-1.14-.22,1.89,1.89,0,0,1-.77-.58,1.66,1.66,0,0,1-.36-.85A2.16,2.16,0,0,1,140.46,200.08Z"/><line class="cls-4" x1="140.49" y1="200.92" x2="140.49" y2="217.98"/><path d="M158.18,202.65a3.37,3.37,0,0,1,.63-1,4.88,4.88,0,0,1,1-.83,4.76,4.76,0,0,1,1.19-.55,4.45,4.45,0,0,1,1.29-.2,2.74,2.74,0,0,1,1.15.22,1.93,1.93,0,0,1,.78.57,1.77,1.77,0,0,1,.36.84,2.15,2.15,0,0,1-.13,1,3.21,3.21,0,0,1-.64,1,4.94,4.94,0,0,1-1,.84,4.7,4.7,0,0,1-1.2.56,4.41,4.41,0,0,1-1.28.19,2.83,2.83,0,0,1-1.14-.21,2.12,2.12,0,0,1-.78-.59,1.62,1.62,0,0,1-.36-.85A2.23,2.23,0,0,1,158.18,202.65Z"/><line class="cls-4" x1="158.21" y1="203.48" x2="158.21" y2="219.28"/><polyline points="123 215.44 158.4 218 158.4 220.56 123 218"/><path d="M175.05,195a3.37,3.37,0,0,1,.63-1,4.88,4.88,0,0,1,1-.83,4.76,4.76,0,0,1,1.19-.55,4.45,4.45,0,0,1,1.29-.2,2.91,2.91,0,0,1,1.15.22,2,2,0,0,1,.78.57,1.77,1.77,0,0,1,.36.84,2.14,2.14,0,0,1-.13,1,3.21,3.21,0,0,1-.64,1,4.68,4.68,0,0,1-1,.85,5,5,0,0,1-1.2.55,4.41,4.41,0,0,1-1.28.19,2.83,2.83,0,0,1-1.14-.21,2,2,0,0,1-.78-.59,1.62,1.62,0,0,1-.36-.85A2.25,2.25,0,0,1,175.05,195Z"/><line class="cls-4" x1="175.08" y1="195.79" x2="175.08" y2="216.72"/><path d="M192.78,200.08a3,3,0,0,1,.62-1,5,5,0,0,1,2.17-1.39,4.33,4.33,0,0,1,1.29-.19,3,3,0,0,1,1.15.21,2.09,2.09,0,0,1,.77.58,1.59,1.59,0,0,1,.36.84,2,2,0,0,1-.13,1,3.26,3.26,0,0,1-.64,1,4.7,4.7,0,0,1-2.18,1.39,4.43,4.43,0,0,1-1.28.2,2.67,2.67,0,0,1-1.14-.22A2,2,0,0,1,193,202a1.85,1.85,0,0,1-.36-.85A2.18,2.18,0,0,1,192.78,200.08Z"/><line class="cls-4" x1="192.81" y1="200.92" x2="192.81" y2="216.72"/><path d="M210.29,200.08a3,3,0,0,1,.62-1,5,5,0,0,1,2.17-1.39,4.33,4.33,0,0,1,1.29-.19,2.91,2.91,0,0,1,1.15.21,2.09,2.09,0,0,1,.77.58,1.59,1.59,0,0,1,.36.84,2,2,0,0,1-.13,1,3.26,3.26,0,0,1-.64,1,4.7,4.7,0,0,1-2.18,1.39,4.43,4.43,0,0,1-1.28.2,2.67,2.67,0,0,1-1.14-.22,2,2,0,0,1-.78-.58,1.85,1.85,0,0,1-.36-.85A2.18,2.18,0,0,1,210.29,200.08Z"/><line class="cls-4" x1="210.32" y1="200.92" x2="210.32" y2="216.72"/><polyline points="174.89 215.44 210.51 215.44 210.51 218 174.89 218"/><text class="cls-9" transform="translate(124.13 235.94)">a</text><text class="cls-9" transform="translate(134.67 235.94)">g</text><text class="cls-9" transform="translate(139.17 235.94)">u</text><text class="cls-9" transform="translate(144.42 235.94)">a</text><text class="cls-9" transform="translate(148.92 235.94)">s</text><text class="cls-9" transform="translate(157.65 235.94)">s</text><text class="cls-9" transform="translate(161.4 235.94)">e</text><text class="cls-9" transform="translate(173.01 235.94)">m</text><text class="cls-9" transform="translate(179.76 235.94)">e</text><text class="cls-9" transform="translate(189.24 235.94)">c</text><text class="cls-9" transform="translate(193.74 235.94)">e</text><text class="cls-9" transform="translate(197.49 235.94)">n</text><text class="cls-9" transform="translate(208.25 235.94)">l</text><text class="cls-9" transform="translate(210.5 235.94)">a</text><text class="cls-9" transform="translate(215 235.94)">s</text><line class="cls-4" x1="240.81" y1="86.46" x2="240.81" y2="69.38"/><path d="M234.42,87.33a3.18,3.18,0,0,1,.62-1,5,5,0,0,1,2.17-1.39,4.33,4.33,0,0,1,1.29-.19,2.74,2.74,0,0,1,1.15.22,2.08,2.08,0,0,1,.78.57,1.66,1.66,0,0,1,.35.84,2,2,0,0,1-.13,1,3.41,3.41,0,0,1-.63,1,5,5,0,0,1-1,.84,4.67,4.67,0,0,1-1.2.55,4.43,4.43,0,0,1-1.28.2,2.67,2.67,0,0,1-1.14-.22,2,2,0,0,1-.78-.58,1.73,1.73,0,0,1-.35-.85A2,2,0,0,1,234.42,87.33Z"/><text class="cls-5" transform="translate(261.53 79.63)">j</text><line class="cls-4" x1="261.53" y1="91.58" x2="261.53" y2="74.5"/><path d="M255.13,92.46a3.37,3.37,0,0,1,.63-1,4.88,4.88,0,0,1,1-.83,4.76,4.76,0,0,1,1.19-.55,4.34,4.34,0,0,1,1.29-.2,2.91,2.91,0,0,1,1.15.22,1.93,1.93,0,0,1,.78.57,1.77,1.77,0,0,1,.36.84,2,2,0,0,1-.14,1,3,3,0,0,1-.63,1,4.74,4.74,0,0,1-1,.85,4.79,4.79,0,0,1-1.19.55,4.43,4.43,0,0,1-1.29.19,2.81,2.81,0,0,1-1.13-.21,2.12,2.12,0,0,1-.78-.59,1.62,1.62,0,0,1-.36-.85A2.25,2.25,0,0,1,255.13,92.46Z"/><text class="cls-5" transform="translate(278.18 74.5)">j</text><line class="cls-4" x1="278.18" y1="86.46" x2="278.18" y2="69.38"/><path d="M271.79,87.33a3,3,0,0,1,.62-1,5,5,0,0,1,2.17-1.39,4.33,4.33,0,0,1,1.29-.19A2.74,2.74,0,0,1,277,85a2,2,0,0,1,.77.57,1.59,1.59,0,0,1,.36.84,2,2,0,0,1-.13,1,3.26,3.26,0,0,1-.64,1,4.7,4.7,0,0,1-2.18,1.39,4.43,4.43,0,0,1-1.28.2,2.67,2.67,0,0,1-1.14-.22,2,2,0,0,1-.78-.58,1.85,1.85,0,0,1-.36-.85A2.18,2.18,0,0,1,271.79,87.33Z"/><line class="cls-4" x1="290.61" y1="80.48" x2="290.61" y2="97.56"/><path d="M290.58,79.65a3.37,3.37,0,0,1,.63-1,4.88,4.88,0,0,1,1-.83,4.61,4.61,0,0,1,1.19-.55,4.34,4.34,0,0,1,1.29-.2,2.74,2.74,0,0,1,1.15.22,1.93,1.93,0,0,1,.78.57,1.77,1.77,0,0,1,.36.84,2.16,2.16,0,0,1-.14,1,3.18,3.18,0,0,1-.63,1,5,5,0,0,1-1,.84,4.7,4.7,0,0,1-1.2.56,4.36,4.36,0,0,1-1.28.19,2.86,2.86,0,0,1-1.14-.21,2,2,0,0,1-.77-.59,1.62,1.62,0,0,1-.36-.85A2.11,2.11,0,0,1,290.58,79.65Z"/><text class="cls-9" transform="translate(235.38 112.94)">a</text><text class="cls-9" transform="translate(249.34 112.94)">g</text><text class="cls-9" transform="translate(253.84 112.94)">u</text><text class="cls-9" transform="translate(259.09 112.94)">a</text><text class="cls-9" transform="translate(263.59 112.94)">s</text><text class="cls-9" transform="translate(272.75 112.94)">a</text><text class="cls-9" transform="translate(285.92 112.94)">q</text><text class="cls-9" transform="translate(290.42 112.94)">u</text><text class="cls-9" transform="translate(295.67 112.94)">e</text><text class="cls-9" transform="translate(299.42 112.94)">l</text><line class="cls-4" x1="240.81" y1="155.65" x2="240.81" y2="138.56"/><path d="M234.42,156.52a3.18,3.18,0,0,1,.62-1,4.36,4.36,0,0,1,1-.83,4.63,4.63,0,0,1,1.19-.56,4.33,4.33,0,0,1,1.29-.19,2.91,2.91,0,0,1,1.15.21,2.21,2.21,0,0,1,.78.58,1.66,1.66,0,0,1,.35.84,2,2,0,0,1-.13,1,3.41,3.41,0,0,1-.63,1,5,5,0,0,1-1,.84,4.67,4.67,0,0,1-1.2.55,4.43,4.43,0,0,1-1.28.2,2.83,2.83,0,0,1-1.14-.22,2.1,2.1,0,0,1-.78-.58,1.73,1.73,0,0,1-.35-.85A2,2,0,0,1,234.42,156.52Z"/><text class="cls-5" transform="translate(261.53 148.81)">j</text><line class="cls-4" x1="261.53" y1="160.77" x2="261.53" y2="143.69"/><line class="cls-4" x1="253.69" y1="159.06" x2="263.08" y2="159.06"/><path d="M255.13,161.65a3.37,3.37,0,0,1,.63-1,4.88,4.88,0,0,1,1-.83,4.76,4.76,0,0,1,1.19-.55,4.34,4.34,0,0,1,1.29-.2,2.74,2.74,0,0,1,1.15.22,1.93,1.93,0,0,1,.78.57,1.77,1.77,0,0,1,.36.84,2,2,0,0,1-.14,1,3,3,0,0,1-.63,1,5,5,0,0,1-1,.84,4.48,4.48,0,0,1-1.19.56,4.43,4.43,0,0,1-1.29.19,2.81,2.81,0,0,1-1.13-.21,2.12,2.12,0,0,1-.78-.59,1.62,1.62,0,0,1-.36-.85A2.23,2.23,0,0,1,255.13,161.65Z"/><text class="cls-5" transform="translate(278.18 141.13)">j</text><line class="cls-4" x1="278.18" y1="153.08" x2="278.18" y2="136"/><path d="M271.79,154a3.15,3.15,0,0,1,.62-1,5,5,0,0,1,1-.83,4.61,4.61,0,0,1,1.19-.55,4.34,4.34,0,0,1,1.29-.2,2.91,2.91,0,0,1,1.15.22,2,2,0,0,1,.77.57,1.59,1.59,0,0,1,.36.84,2,2,0,0,1-.13,1,3.21,3.21,0,0,1-.64,1,4.44,4.44,0,0,1-1,.85,5,5,0,0,1-1.2.55,4.41,4.41,0,0,1-1.28.19,2.83,2.83,0,0,1-1.14-.21,2.12,2.12,0,0,1-.78-.59,1.8,1.8,0,0,1-.36-.85A2.14,2.14,0,0,1,271.79,154Z"/><line class="cls-4" x1="296.97" y1="155.65" x2="296.97" y2="138.56"/><path d="M290.58,156.52a3.21,3.21,0,0,1,.63-1,4.3,4.3,0,0,1,1-.83,4.63,4.63,0,0,1,1.19-.56,4.33,4.33,0,0,1,1.29-.19,2.91,2.91,0,0,1,1.15.21,2,2,0,0,1,.78.58,1.77,1.77,0,0,1,.36.84,2.12,2.12,0,0,1-.14,1,3.22,3.22,0,0,1-.63,1,5,5,0,0,1-1,.84,4.67,4.67,0,0,1-1.2.55,4.38,4.38,0,0,1-1.28.2,2.86,2.86,0,0,1-1.14-.22,2,2,0,0,1-.77-.58,1.66,1.66,0,0,1-.36-.85A2.15,2.15,0,0,1,290.58,156.52Z"/><text class="cls-9" transform="translate(235.38 174.44)">a</text><text class="cls-9" transform="translate(249.34 174.44)">g</text><text class="cls-9" transform="translate(253.84 174.44)">u</text><text class="cls-9" transform="translate(259.09 174.44)">a</text><text class="cls-9" transform="translate(263.59 174.44)">s</text><text class="cls-9" transform="translate(272.75 174.44)">a</text><text class="cls-9" transform="translate(285.92 174.44)">q</text><text class="cls-9" transform="translate(290.42 174.44)">u</text><text class="cls-9" transform="translate(295.67 174.44)">e</text><text class="cls-9" transform="translate(299.42 174.44)">l</text><line class="cls-4" x1="234.45" y1="198.35" x2="234.45" y2="215.44"/><path d="M234.42,197.52a3.18,3.18,0,0,1,.62-1,5,5,0,0,1,2.17-1.39,4.33,4.33,0,0,1,1.29-.19,2.91,2.91,0,0,1,1.15.21,2.21,2.21,0,0,1,.78.58,1.66,1.66,0,0,1,.35.84,2,2,0,0,1-.13,1,3.41,3.41,0,0,1-.63,1,5,5,0,0,1-1,.84,4.67,4.67,0,0,1-1.2.55,4.43,4.43,0,0,1-1.28.2,2.83,2.83,0,0,1-1.14-.22,2.1,2.1,0,0,1-.78-.58,1.73,1.73,0,0,1-.35-.85A2,2,0,0,1,234.42,197.52Z"/><text class="cls-5" transform="translate(254.97 215.44)">J</text><line class="cls-4" x1="255.16" y1="203.48" x2="255.16" y2="220.56"/><path d="M255.13,202.65a3.37,3.37,0,0,1,.63-1,4.88,4.88,0,0,1,1-.83,4.76,4.76,0,0,1,1.19-.55,4.34,4.34,0,0,1,1.29-.2,2.74,2.74,0,0,1,1.15.22,1.93,1.93,0,0,1,.78.57,1.77,1.77,0,0,1,.36.84,2,2,0,0,1-.14,1,3,3,0,0,1-.63,1,5,5,0,0,1-1,.84,4.48,4.48,0,0,1-1.19.56,4.43,4.43,0,0,1-1.29.19,2.81,2.81,0,0,1-1.13-.21,2.12,2.12,0,0,1-.78-.59,1.62,1.62,0,0,1-.36-.85A2.23,2.23,0,0,1,255.13,202.65Z"/><text class="cls-5" transform="translate(271.63 210.31)">J</text><line class="cls-4" x1="271.82" y1="198.35" x2="271.82" y2="215.44"/><path d="M271.79,197.52a3,3,0,0,1,.62-1,5,5,0,0,1,2.17-1.39,4.33,4.33,0,0,1,1.29-.19,2.91,2.91,0,0,1,1.15.21,2.09,2.09,0,0,1,.77.58,1.59,1.59,0,0,1,.36.84,2,2,0,0,1-.13,1,3.26,3.26,0,0,1-.64,1A4.7,4.7,0,0,1,275.2,200a4.43,4.43,0,0,1-1.28.2,2.83,2.83,0,0,1-1.14-.22,2.1,2.1,0,0,1-.78-.58,1.85,1.85,0,0,1-.36-.85A2.18,2.18,0,0,1,271.79,197.52Z"/><line class="cls-4" x1="290.61" y1="190.67" x2="290.61" y2="207.75"/><line class="cls-4" x1="289.13" y1="189.81" x2="298.53" y2="189.81"/><path d="M290.58,189.83a3.21,3.21,0,0,1,.63-1,4.58,4.58,0,0,1,1-.83,4.63,4.63,0,0,1,1.19-.56,4.68,4.68,0,0,1,1.29-.19,2.74,2.74,0,0,1,1.15.22,1.93,1.93,0,0,1,.78.57,1.77,1.77,0,0,1,.36.84,2.16,2.16,0,0,1-.14,1,3.29,3.29,0,0,1-.63,1,5,5,0,0,1-1,.84,4.67,4.67,0,0,1-1.2.55,4.38,4.38,0,0,1-1.28.2,2.7,2.7,0,0,1-1.14-.22,1.89,1.89,0,0,1-.77-.58,1.66,1.66,0,0,1-.36-.85A2.16,2.16,0,0,1,290.58,189.83Z"/><text class="cls-9" transform="translate(235.38 235.94)">a</text><text class="cls-9" transform="translate(249.34 235.94)">g</text><text class="cls-9" transform="translate(253.84 235.94)">u</text><text class="cls-9" transform="translate(259.09 235.94)">a</text><text class="cls-9" transform="translate(263.59 235.94)">s</text><text class="cls-9" transform="translate(272.75 235.94)">a</text><text class="cls-9" transform="translate(285.92 235.94)">q</text><text class="cls-9" transform="translate(290.42 235.94)">u</text><text class="cls-9" transform="translate(295.67 235.94)">e</text><text class="cls-9" transform="translate(299.42 235.94)">l</text><polyline class="cls-4" points="311.56 66.81 311.56 51.44 398.9 51.44"/><text class="cls-10" transform="translate(319.88 61.69)">1</text><text class="cls-10" transform="translate(324.37 61.69)">.</text><polyline class="cls-4" points="398.9 66.81 398.9 51.44 311.56 51.44"/><line class="cls-4" x1="318.8" y1="83.04" x2="318.8" y2="100.13"/><path d="M318.77,82.21a3.15,3.15,0,0,1,.62-1,5,5,0,0,1,1-.83,4.61,4.61,0,0,1,1.19-.55,4.33,4.33,0,0,1,1.29-.19,3,3,0,0,1,1.15.21,2.07,2.07,0,0,1,.77.57,1.68,1.68,0,0,1,.36.84,2,2,0,0,1-.13,1,3.37,3.37,0,0,1-.64,1,4.68,4.68,0,0,1-1,.84,5,5,0,0,1-1.2.55,4.41,4.41,0,0,1-1.28.19,2.83,2.83,0,0,1-1.14-.21,2,2,0,0,1-.78-.59,1.71,1.71,0,0,1-.36-.85A2.14,2.14,0,0,1,318.77,82.21Z"/><text class="cls-5" transform="translate(345.66 71.94)">j</text><line class="cls-4" x1="345.66" y1="83.9" x2="345.66" y2="66.81"/><path d="M339.27,84.77a3,3,0,0,1,.62-1,4.36,4.36,0,0,1,1-.83,4.63,4.63,0,0,1,1.19-.56,4.33,4.33,0,0,1,1.29-.19,2.86,2.86,0,0,1,1.14.21,2,2,0,0,1,.78.58,1.68,1.68,0,0,1,.36.84,2,2,0,0,1-.13,1,3.26,3.26,0,0,1-.64,1,4.7,4.7,0,0,1-2.18,1.39,4.43,4.43,0,0,1-1.28.2,2.83,2.83,0,0,1-1.14-.22,2.1,2.1,0,0,1-.78-.58,1.66,1.66,0,0,1-.36-.85A2.16,2.16,0,0,1,339.27,84.77Z"/><text class="cls-5" transform="translate(370.92 85.18)">.</text><line class="cls-4" x1="368.94" y1="83.9" x2="368.94" y2="66.81"/><path d="M362.54,84.77a3.21,3.21,0,0,1,.63-1,4.3,4.3,0,0,1,1-.83,4.79,4.79,0,0,1,1.19-.56,4.43,4.43,0,0,1,1.29-.19,2.91,2.91,0,0,1,1.15.21,2,2,0,0,1,.78.58,1.77,1.77,0,0,1,.36.84,2.11,2.11,0,0,1-.13,1,3.26,3.26,0,0,1-.64,1,4.94,4.94,0,0,1-1,.84,4.67,4.67,0,0,1-1.2.55,4.43,4.43,0,0,1-1.28.2,2.83,2.83,0,0,1-1.14-.22,2.1,2.1,0,0,1-.78-.58,1.66,1.66,0,0,1-.36-.85A2.28,2.28,0,0,1,362.54,84.77Z"/><text class="cls-9" transform="translate(314.85 112.94)">b</text><text class="cls-9" transform="translate(319.35 112.94)">o</text><text class="cls-9" transform="translate(323.85 112.94)">n</text><text class="cls-9" transform="translate(339.1 112.94)">g</text><text class="cls-9" transform="translate(343.6 112.94)">o</text><line class="cls-4" x1="325.16" y1="155.65" x2="325.16" y2="138.56"/><path d="M318.77,156.52a3,3,0,0,1,.62-1,4.36,4.36,0,0,1,1-.83,4.63,4.63,0,0,1,1.19-.56,4.33,4.33,0,0,1,1.29-.19,3,3,0,0,1,1.15.21,2.09,2.09,0,0,1,.77.58,1.68,1.68,0,0,1,.36.84,2,2,0,0,1-.13,1,3.26,3.26,0,0,1-.64,1,4.7,4.7,0,0,1-2.18,1.39,4.43,4.43,0,0,1-1.28.2,2.83,2.83,0,0,1-1.14-.22,2.1,2.1,0,0,1-.78-.58,1.75,1.75,0,0,1-.36-.85A2.16,2.16,0,0,1,318.77,156.52Z"/><text class="cls-5" transform="translate(345.66 146.25)">j</text><line class="cls-4" x1="345.66" y1="158.21" x2="345.66" y2="141.13"/><line class="cls-4" x1="337.82" y1="159.06" x2="347.22" y2="159.06"/><path d="M339.27,159.08a3,3,0,0,1,.62-1,5,5,0,0,1,2.17-1.39,4.68,4.68,0,0,1,1.29-.19,2.7,2.7,0,0,1,1.14.22,1.93,1.93,0,0,1,.78.57,1.68,1.68,0,0,1,.36.84,2,2,0,0,1-.13,1,3.33,3.33,0,0,1-.64,1,4.7,4.7,0,0,1-2.18,1.39,4.43,4.43,0,0,1-1.28.2,2.67,2.67,0,0,1-1.14-.22,2,2,0,0,1-.78-.58,1.66,1.66,0,0,1-.36-.85A2.18,2.18,0,0,1,339.27,159.08Z"/><text class="cls-5" transform="translate(370.92 156.93)">.</text><line class="cls-4" x1="368.94" y1="158.21" x2="368.94" y2="141.13"/><line class="cls-4" x1="361.1" y1="159.06" x2="370.49" y2="159.06"/><path d="M362.54,159.08a3.21,3.21,0,0,1,.63-1,4.58,4.58,0,0,1,1-.83,4.48,4.48,0,0,1,2.48-.75,2.74,2.74,0,0,1,1.15.22,1.93,1.93,0,0,1,.78.57,1.77,1.77,0,0,1,.36.84,2.15,2.15,0,0,1-.13,1,3.33,3.33,0,0,1-.64,1,4.94,4.94,0,0,1-1,.84,4.67,4.67,0,0,1-1.2.55,4.43,4.43,0,0,1-1.28.2,2.67,2.67,0,0,1-1.14-.22,2,2,0,0,1-.78-.58,1.66,1.66,0,0,1-.36-.85A2.29,2.29,0,0,1,362.54,159.08Z"/><text class="cls-9" transform="translate(314.85 174.44)">b</text><text class="cls-9" transform="translate(319.35 174.44)">o</text><text class="cls-9" transform="translate(323.85 174.44)">n</text><text class="cls-9" transform="translate(339.1 174.44)">g</text><text class="cls-9" transform="translate(343.6 174.44)">o</text><line class="cls-4" x1="318.8" y1="193.23" x2="318.8" y2="210.31"/><path d="M318.77,192.4a3.15,3.15,0,0,1,.62-1,5,5,0,0,1,1-.83,4.61,4.61,0,0,1,1.19-.55,4.34,4.34,0,0,1,1.29-.2A2.78,2.78,0,0,1,324,190a2,2,0,0,1,.77.57,1.68,1.68,0,0,1,.36.84,2,2,0,0,1-.13,1,3.21,3.21,0,0,1-.64,1,4.82,4.82,0,0,1-2.18,1.4,4.41,4.41,0,0,1-1.28.19,2.83,2.83,0,0,1-1.14-.21,2.12,2.12,0,0,1-.78-.59,1.71,1.71,0,0,1-.36-.85A2.12,2.12,0,0,1,318.77,192.4Z"/><text class="cls-5" transform="translate(339.1 207.75)">J</text><line class="cls-4" x1="339.3" y1="195.79" x2="339.3" y2="212.88"/><path d="M339.27,195a3.15,3.15,0,0,1,.62-1,5,5,0,0,1,1-.83,4.61,4.61,0,0,1,1.19-.55,4.34,4.34,0,0,1,1.29-.2,2.86,2.86,0,0,1,1.14.22,2,2,0,0,1,.78.57,1.68,1.68,0,0,1,.36.84,2,2,0,0,1-.13,1,3.21,3.21,0,0,1-.64,1,4.44,4.44,0,0,1-1,.85,5,5,0,0,1-1.2.55,4.41,4.41,0,0,1-1.28.19,2.83,2.83,0,0,1-1.14-.21,2,2,0,0,1-.78-.59,1.62,1.62,0,0,1-.36-.85A2.14,2.14,0,0,1,339.27,195Z"/><text class="cls-5" transform="translate(370.92 192.8)">.</text><line class="cls-4" x1="362.57" y1="195.79" x2="362.57" y2="212.88"/><path d="M362.54,195a3.37,3.37,0,0,1,.63-1,4.88,4.88,0,0,1,1-.83,4.76,4.76,0,0,1,1.19-.55,4.45,4.45,0,0,1,1.29-.2,2.91,2.91,0,0,1,1.15.22,2,2,0,0,1,.78.57,1.77,1.77,0,0,1,.36.84,2.14,2.14,0,0,1-.13,1,3.21,3.21,0,0,1-.64,1,4.68,4.68,0,0,1-1,.85,5,5,0,0,1-1.2.55,4.41,4.41,0,0,1-1.28.19,2.83,2.83,0,0,1-1.14-.21,2,2,0,0,1-.78-.59,1.62,1.62,0,0,1-.36-.85A2.25,2.25,0,0,1,362.54,195Z"/><text class="cls-9" transform="translate(314.85 235.94)">b</text><text class="cls-9" transform="translate(319.35 235.94)">o</text><text class="cls-9" transform="translate(323.85 235.94)">n</text><text class="cls-9" transform="translate(339.1 235.94)">g</text><text class="cls-9" transform="translate(343.6 235.94)">o</text><polyline class="cls-4" points="398.9 66.81 398.9 51.44 476.63 51.44"/><text class="cls-10" transform="translate(407.22 61.69)">2</text><text class="cls-10" transform="translate(411.71 61.69)">.</text><line class="cls-4" x1="406.13" y1="83.04" x2="406.13" y2="100.13"/><path d="M406.11,82.21a3.15,3.15,0,0,1,.62-1,5.18,5.18,0,0,1,1-.83,4.76,4.76,0,0,1,1.19-.55,4.45,4.45,0,0,1,1.3-.19,2.86,2.86,0,0,1,1.14.21,2,2,0,0,1,.78.57,1.77,1.77,0,0,1,.36.84,2.14,2.14,0,0,1-.13,1,3.37,3.37,0,0,1-.64,1,4.68,4.68,0,0,1-1,.84,5,5,0,0,1-1.2.55,4.41,4.41,0,0,1-1.28.19,2.83,2.83,0,0,1-1.14-.21,2,2,0,0,1-.78-.59,1.62,1.62,0,0,1-.36-.85A2.14,2.14,0,0,1,406.11,82.21Z"/><text class="cls-5" transform="translate(433 71.94)">j</text><line class="cls-4" x1="433" y1="83.9" x2="433" y2="66.81"/><path d="M426.61,84.77a3,3,0,0,1,.62-1,4.36,4.36,0,0,1,1-.83,4.57,4.57,0,0,1,1.18-.56,4.45,4.45,0,0,1,1.3-.19,2.86,2.86,0,0,1,1.14.21,2,2,0,0,1,.78.58,1.77,1.77,0,0,1,.36.84,2.11,2.11,0,0,1-.13,1,3.26,3.26,0,0,1-.64,1A4.7,4.7,0,0,1,430,87.26a4.43,4.43,0,0,1-1.28.2,2.83,2.83,0,0,1-1.14-.22,2.1,2.1,0,0,1-.78-.58,1.66,1.66,0,0,1-.36-.85A2.16,2.16,0,0,1,426.61,84.77Z"/><text class="cls-5" transform="translate(458.26 85.18)">.</text><line class="cls-4" x1="456.28" y1="83.9" x2="456.28" y2="66.81"/><path d="M449.88,84.77a3.21,3.21,0,0,1,.63-1,4.3,4.3,0,0,1,1-.83,4.79,4.79,0,0,1,1.19-.56,4.33,4.33,0,0,1,1.29-.19,2.91,2.91,0,0,1,1.15.21,2,2,0,0,1,.78.58,1.77,1.77,0,0,1,.36.84,2,2,0,0,1-.14,1,3.06,3.06,0,0,1-.63,1,5.24,5.24,0,0,1-1,.84,4.67,4.67,0,0,1-1.2.55,4.45,4.45,0,0,1-1.29.2,2.81,2.81,0,0,1-1.13-.22,2.1,2.1,0,0,1-.78-.58,1.66,1.66,0,0,1-.36-.85A2.28,2.28,0,0,1,449.88,84.77Z"/><text class="cls-9" transform="translate(402.19 112.94)">b</text><text class="cls-9" transform="translate(406.69 112.94)">o</text><text class="cls-9" transform="translate(411.19 112.94)">n</text><text class="cls-9" transform="translate(426.44 112.94)">g</text><text class="cls-9" transform="translate(430.94 112.94)">o</text><line class="cls-4" x1="412.5" y1="155.65" x2="412.5" y2="138.56"/><path d="M406.11,156.52a3,3,0,0,1,.62-1,4.53,4.53,0,0,1,1-.83,4.79,4.79,0,0,1,1.19-.56,4.45,4.45,0,0,1,1.3-.19,2.86,2.86,0,0,1,1.14.21,2,2,0,0,1,.78.58,1.77,1.77,0,0,1,.36.84,2.11,2.11,0,0,1-.13,1,3.26,3.26,0,0,1-.64,1,4.7,4.7,0,0,1-2.18,1.39,4.43,4.43,0,0,1-1.28.2,2.83,2.83,0,0,1-1.14-.22,2.1,2.1,0,0,1-.78-.58,1.66,1.66,0,0,1-.36-.85A2.16,2.16,0,0,1,406.11,156.52Z"/><text class="cls-5" transform="translate(433 146.25)">j</text><line class="cls-4" x1="433" y1="158.21" x2="433" y2="141.13"/><line class="cls-4" x1="425.16" y1="159.06" x2="434.56" y2="159.06"/><path d="M426.61,159.08a3,3,0,0,1,.62-1,4.63,4.63,0,0,1,1-.83,4.57,4.57,0,0,1,1.18-.56,4.81,4.81,0,0,1,1.3-.19,2.7,2.7,0,0,1,1.14.22,1.93,1.93,0,0,1,.78.57,1.77,1.77,0,0,1,.36.84,2.15,2.15,0,0,1-.13,1,3.33,3.33,0,0,1-.64,1,4.7,4.7,0,0,1-2.18,1.39,4.43,4.43,0,0,1-1.28.2,2.67,2.67,0,0,1-1.14-.22,2,2,0,0,1-.78-.58,1.66,1.66,0,0,1-.36-.85A2.18,2.18,0,0,1,426.61,159.08Z"/><text class="cls-5" transform="translate(458.26 156.93)">.</text><line class="cls-4" x1="456.28" y1="158.21" x2="456.28" y2="141.13"/><line class="cls-4" x1="448.44" y1="159.06" x2="457.83" y2="159.06"/><path d="M449.88,159.08a3.21,3.21,0,0,1,.63-1,4.58,4.58,0,0,1,1-.83,4.79,4.79,0,0,1,1.19-.56,4.68,4.68,0,0,1,1.29-.19,2.74,2.74,0,0,1,1.15.22,1.93,1.93,0,0,1,.78.57,1.77,1.77,0,0,1,.36.84,2,2,0,0,1-.14,1,3.11,3.11,0,0,1-.63,1,5.24,5.24,0,0,1-1,.84,4.67,4.67,0,0,1-1.2.55,4.45,4.45,0,0,1-1.29.2,2.65,2.65,0,0,1-1.13-.22,2,2,0,0,1-.78-.58,1.66,1.66,0,0,1-.36-.85A2.29,2.29,0,0,1,449.88,159.08Z"/><text class="cls-9" transform="translate(402.19 174.44)">b</text><text class="cls-9" transform="translate(406.69 174.44)">o</text><text class="cls-9" transform="translate(411.19 174.44)">n</text><text class="cls-9" transform="translate(426.44 174.44)">g</text><text class="cls-9" transform="translate(430.94 174.44)">o</text><line class="cls-4" x1="406.13" y1="193.23" x2="406.13" y2="210.31"/><path d="M406.11,192.4a3.15,3.15,0,0,1,.62-1,5.18,5.18,0,0,1,1-.83,4.76,4.76,0,0,1,1.19-.55,4.46,4.46,0,0,1,1.3-.2,2.7,2.7,0,0,1,1.14.22,1.93,1.93,0,0,1,.78.57,1.77,1.77,0,0,1,.36.84,2.15,2.15,0,0,1-.13,1,3.21,3.21,0,0,1-.64,1,4.82,4.82,0,0,1-2.18,1.4,4.41,4.41,0,0,1-1.28.19,2.83,2.83,0,0,1-1.14-.21,2.12,2.12,0,0,1-.78-.59,1.62,1.62,0,0,1-.36-.85A2.12,2.12,0,0,1,406.11,192.4Z"/><text class="cls-5" transform="translate(426.44 207.75)">J</text><line class="cls-4" x1="426.63" y1="195.79" x2="426.63" y2="212.88"/><path d="M426.61,195a3.15,3.15,0,0,1,.62-1,5,5,0,0,1,1-.83,4.54,4.54,0,0,1,1.18-.55,4.46,4.46,0,0,1,1.3-.2,2.86,2.86,0,0,1,1.14.22,2,2,0,0,1,.78.57,1.77,1.77,0,0,1,.36.84,2.14,2.14,0,0,1-.13,1,3.21,3.21,0,0,1-.64,1,4.44,4.44,0,0,1-1,.85,5,5,0,0,1-1.2.55,4.41,4.41,0,0,1-1.28.19,2.83,2.83,0,0,1-1.14-.21,2,2,0,0,1-.78-.59,1.62,1.62,0,0,1-.36-.85A2.14,2.14,0,0,1,426.61,195Z"/><text class="cls-5" transform="translate(458.26 192.8)">.</text><line class="cls-4" x1="449.91" y1="195.79" x2="449.91" y2="212.88"/><path d="M449.88,195a3.37,3.37,0,0,1,.63-1,4.88,4.88,0,0,1,1-.83,4.76,4.76,0,0,1,1.19-.55,4.34,4.34,0,0,1,1.29-.2,2.91,2.91,0,0,1,1.15.22,2,2,0,0,1,.78.57,1.77,1.77,0,0,1,.36.84,2,2,0,0,1-.14,1,3,3,0,0,1-.63,1,5,5,0,0,1-1,.85,5,5,0,0,1-1.2.55,4.43,4.43,0,0,1-1.29.19,2.81,2.81,0,0,1-1.13-.21,2,2,0,0,1-.78-.59,1.62,1.62,0,0,1-.36-.85A2.25,2.25,0,0,1,449.88,195Z"/><text class="cls-9" transform="translate(402.19 235.94)">b</text><text class="cls-9" transform="translate(406.69 235.94)">o</text><text class="cls-9" transform="translate(411.19 235.94)">n</text><text class="cls-9" transform="translate(426.44 235.94)">g</text><text class="cls-9" transform="translate(430.94 235.94)">o</text><rect x="509.74" y="77.04" width="6.52" height="2.95"/><line class="cls-4" x1="509.08" y1="77.06" x2="517.2" y2="77.06"/><rect x="509.74" y="138.54" width="6.52" height="2.95"/><line class="cls-4" x1="509.08" y1="138.56" x2="517.2" y2="138.56"/><rect x="509.74" y="200.04" width="6.52" height="2.95"/><line class="cls-4" x1="509.08" y1="200.06" x2="517.2" y2="200.06"/><path d="M344.23,88.59c4.06,3.42,15.8,3.42,19.86,0l-.14-.16c-3.92,2.3-15.66,2.3-19.58,0l-.14.16"/><path d="M344.23,163.12c4.06,3.84,15.8,3.84,19.86,0l-.15-.15c-3.91,2.71-15.65,2.71-19.56,0l-.15.15"/><path d="M344.23,190.88c4.06-3.84,15.8-3.84,19.86,0l-.15.16c-3.91-2.72-15.65-2.72-19.56,0l-.15-.16"/><path d="M431.35,88.59c4.06,3.42,15.81,3.42,19.86,0l-.13-.16c-3.92,2.3-15.67,2.3-19.59,0l-.14.16"/><path d="M431.35,163.12c4.06,3.84,15.81,3.84,19.86,0l-.14-.15c-3.91,2.71-15.66,2.71-19.57,0l-.15.15"/><path d="M431.35,190.88c4.06-3.84,15.81-3.84,19.86,0l-.14.16c-3.91-2.72-15.66-2.72-19.57,0l-.15-.16"/><text class="cls-9" transform="translate(130.25 112.94)">-</text><text class="cls-9" transform="translate(184.81 112.94)">-</text><text class="cls-9" transform="translate(130.25 174.44)">-</text><text class="cls-9" transform="translate(184.81 174.44)">-</text><text class="cls-9" transform="translate(130.25 235.94)">-</text><text class="cls-9" transform="translate(184.81 235.94)">-</text><text class="cls-9" transform="translate(243.11 112.94)">-</text><text class="cls-9" transform="translate(280.05 112.94)">-</text><text class="cls-9" transform="translate(243.11 174.44)">-</text><text class="cls-9" transform="translate(280.05 174.44)">-</text><text class="cls-9" transform="translate(243.11 235.94)">-</text><text class="cls-9" transform="translate(280.05 235.94)">-</text><text class="cls-9" transform="translate(332.59 112.94)">-</text><line class="cls-4" x1="349.78" y1="112.72" x2="373.48" y2="112.72"/><text class="cls-9" transform="translate(332.59 174.44)">-</text><line class="cls-4" x1="349.78" y1="174.22" x2="373.48" y2="174.22"/><text class="cls-9" transform="translate(332.59 235.94)">-</text><line class="cls-4" x1="349.78" y1="235.72" x2="373.48" y2="235.72"/><text class="cls-9" transform="translate(419.92 112.94)">-</text><line class="cls-4" x1="437.12" y1="112.72" x2="461.04" y2="112.72"/><text class="cls-9" transform="translate(419.92 174.44)">-</text><line class="cls-4" x1="437.12" y1="174.22" x2="461.04" y2="174.22"/><text class="cls-9" transform="translate(419.92 235.94)">-</text><line class="cls-4" x1="437.12" y1="235.72" x2="461.04" y2="235.72"/><line class="cls-4" x1="72.16" y1="273.73" x2="72.16" y2="417.23"/><text class="cls-5" transform="translate(77.52 289.11)">&amp;</text><text class="cls-5" transform="translate(77.52 350.61)">&amp;</text><text class="cls-5" transform="translate(77.52 401.86)">?</text><line class="cls-4" x1="188.96" y1="273.73" x2="188.96" y2="294.23"/><line class="cls-4" x1="188.96" y1="335.23" x2="188.96" y2="355.73"/><line class="cls-4" x1="188.96" y1="396.73" x2="188.96" y2="417.23"/><line class="cls-4" x1="278.65" y1="273.73" x2="278.65" y2="294.23"/><line class="cls-4" x1="278.65" y1="335.23" x2="278.65" y2="355.73"/><line class="cls-4" x1="278.65" y1="396.73" x2="278.65" y2="417.23"/><line class="cls-4" x1="368.34" y1="273.73" x2="368.34" y2="294.23"/><line class="cls-4" x1="368.34" y1="335.23" x2="368.34" y2="355.73"/><line class="cls-4" x1="368.34" y1="396.73" x2="368.34" y2="417.23"/><text class="cls-5" transform="translate(373.7 273.73)">#</text><text class="cls-5" transform="translate(379.04 281.42)">#</text><text class="cls-5" transform="translate(384.38 271.17)">#</text><text class="cls-5" transform="translate(373.7 335.23)">#</text><text class="cls-5" transform="translate(379.04 342.92)">#</text><text class="cls-5" transform="translate(384.38 332.67)">#</text><text class="cls-5" transform="translate(373.7 401.86)">#</text><text class="cls-5" transform="translate(379.04 409.55)">#</text><text class="cls-5" transform="translate(384.38 399.3)">#</text><line class="cls-4" x1="463.58" y1="273.73" x2="463.58" y2="294.23"/><line class="cls-4" x1="466.14" y1="273.73" x2="466.14" y2="294.23"/><line class="cls-4" x1="463.58" y1="335.23" x2="463.58" y2="355.73"/><line class="cls-4" x1="466.14" y1="335.23" x2="466.14" y2="355.73"/><line class="cls-4" x1="463.58" y1="396.73" x2="463.58" y2="417.23"/><line class="cls-4" x1="466.14" y1="396.73" x2="466.14" y2="417.23"/><text class="cls-5" transform="translate(471.5 273.73)">n</text><text class="cls-5" transform="translate(476.2 281.42)">n</text><text class="cls-5" transform="translate(480.9 271.17)">n</text><text class="cls-5" transform="translate(471.5 335.23)">n</text><text class="cls-5" transform="translate(476.2 342.92)">n</text><text class="cls-5" transform="translate(480.9 332.67)">n</text><text class="cls-5" transform="translate(471.5 401.86)">n</text><text class="cls-5" transform="translate(476.2 409.55)">n</text><text class="cls-5" transform="translate(480.9 399.3)">n</text><line class="cls-4" x1="575.73" y1="273.73" x2="575.73" y2="294.23"/><line class="cls-4" x1="575.73" y1="335.23" x2="575.73" y2="355.73"/><line class="cls-4" x1="575.73" y1="396.73" x2="575.73" y2="417.23"/><line class="cls-4" x1="71.96" y1="273.73" x2="575.92" y2="273.73"/><line class="cls-4" x1="71.96" y1="278.86" x2="575.92" y2="278.86"/><line class="cls-4" x1="71.96" y1="283.98" x2="575.92" y2="283.98"/><line class="cls-4" x1="71.96" y1="289.11" x2="575.92" y2="289.11"/><line class="cls-4" x1="71.96" y1="294.23" x2="575.92" y2="294.23"/><text class="cls-7" transform="translate(49.75 287.83)">S</text><line class="cls-4" x1="71.96" y1="335.23" x2="575.92" y2="335.23"/><line class="cls-4" x1="71.96" y1="340.36" x2="575.92" y2="340.36"/><line class="cls-4" x1="71.96" y1="345.48" x2="575.92" y2="345.48"/><line class="cls-4" x1="71.96" y1="350.61" x2="575.92" y2="350.61"/><line class="cls-4" x1="71.96" y1="355.73" x2="575.92" y2="355.73"/><text class="cls-7" transform="translate(47.62 349.33)">A</text><line class="cls-4" x1="71.96" y1="396.73" x2="575.92" y2="396.73"/><line class="cls-4" x1="71.96" y1="401.86" x2="575.92" y2="401.86"/><line class="cls-4" x1="71.96" y1="406.98" x2="575.92" y2="406.98"/><line class="cls-4" x1="71.96" y1="412.11" x2="575.92" y2="412.11"/><line class="cls-4" x1="71.96" y1="417.23" x2="575.92" y2="417.23"/><text class="cls-7" transform="translate(48.26 410.83)">B</text><path d="M68.76,271.17c6.41,0,7.69-.85,9.4-2.56-1.07,3-3.63,3.84-7.48,3.84V418.52c3.85,0,6.41.85,7.48,3.84-1.71-1.71-3-2.56-9.4-2.56"/><text class="cls-8" transform="translate(73.24 264.34)">3</text><text class="cls-8" transform="translate(77.75 264.34)">9</text><rect x="137.11" y="278.84" width="6.52" height="2.95"/><line class="cls-4" x1="136.45" y1="278.86" x2="144.57" y2="278.86"/><rect x="137.11" y="340.34" width="6.52" height="2.95"/><line class="cls-4" x1="136.45" y1="340.36" x2="144.57" y2="340.36"/><rect x="137.11" y="401.84" width="6.52" height="2.95"/><line class="cls-4" x1="136.45" y1="401.86" x2="144.57" y2="401.86"/><rect x="230.43" y="278.84" width="6.52" height="2.95"/><line class="cls-4" x1="229.77" y1="278.86" x2="237.88" y2="278.86"/><rect x="230.43" y="340.34" width="6.52" height="2.95"/><line class="cls-4" x1="229.77" y1="340.36" x2="237.88" y2="340.36"/><rect x="230.43" y="401.84" width="6.52" height="2.95"/><line class="cls-4" x1="229.77" y1="401.86" x2="237.88" y2="401.86"/><rect x="320.12" y="278.84" width="6.52" height="2.95"/><line class="cls-4" x1="319.46" y1="278.86" x2="327.57" y2="278.86"/><rect x="320.12" y="340.34" width="6.52" height="2.95"/><line class="cls-4" x1="319.46" y1="340.36" x2="327.57" y2="340.36"/><rect x="320.12" y="401.84" width="6.52" height="2.95"/><line class="cls-4" x1="319.46" y1="401.86" x2="327.57" y2="401.86"/><path d="M404.38,288.43a5.46,5.46,0,0,0-.95-.31,3,3,0,0,0-.73-.1,1.68,1.68,0,0,0-1.12.39,1.36,1.36,0,0,0-.46,1.11,1.12,1.12,0,0,0,.15.51,2.75,2.75,0,0,0,.36.53,4.72,4.72,0,0,0,.53.58l-.24.2a8.11,8.11,0,0,1-1.23-.9,6.57,6.57,0,0,1-.89-.93,2.35,2.35,0,0,1-.51-1.1,1.61,1.61,0,0,1,0-.69,1.86,1.86,0,0,1,.31-.63,1.75,1.75,0,0,1,.55-.45,2.15,2.15,0,0,1,.77-.22h.39a3.12,3.12,0,0,1,.44.05l.41.06.32,0a27.59,27.59,0,0,1-2.22-2.38q-.75-.94-.63-1.23l.44-.56a6.68,6.68,0,0,0,.59-.9,8.94,8.94,0,0,0,.51-1.08,3.08,3.08,0,0,0,.23-1.13,2.34,2.34,0,0,0-.23-.87c-.15-.35-.31-.69-.49-1l-.72-1.16.29-.21,3.73,4.7a8.36,8.36,0,0,0-.88,1.25,7,7,0,0,0-.62,1.15,3,3,0,0,0-.26,1.18,2.35,2.35,0,0,0,.11.75,4.59,4.59,0,0,0,.27.68,4.92,4.92,0,0,0,.37.59c.14.19.26.35.37.48a2.87,2.87,0,0,0,.27.32l.35.39c.11.13.21.25.29.36a.62.62,0,0,1,.14.21l0,.32Z"/><text class="cls-5" transform="translate(406.8 281.85)">.</text><path d="M426.42,279.62a1.21,1.21,0,0,1,.93.06,1.46,1.46,0,0,1,.56.57,2.24,2.24,0,0,1,.24.81,1.92,1.92,0,0,1-.07.75,4.54,4.54,0,0,0,.6-.12,1.44,1.44,0,0,0,.55-.37,4.49,4.49,0,0,0,.44-.49l.42-.51.29.16-2.28,8.59h-.82c.14-.45.28-.9.44-1.33s.24-.73.36-1.12.24-.7.33-.93c.22-.61.4-1.14.55-1.61s.25-.87.33-1.2.17-.72.23-1c-.12.1-.29.22-.5.36a6.66,6.66,0,0,1-.69.42,5.84,5.84,0,0,1-.76.36,2.7,2.7,0,0,1-.76.18,1.64,1.64,0,0,1-1.28-.44,1.8,1.8,0,0,1-.56-1.09,1.88,1.88,0,0,1,.26-1.23A1.75,1.75,0,0,1,426.42,279.62Z"/><path d="M438.6,279.62a1.19,1.19,0,0,1,.92.06,1.46,1.46,0,0,1,.56.57,2.24,2.24,0,0,1,.24.81,2.15,2.15,0,0,1-.06.75,4.72,4.72,0,0,0,.59-.12,1.44,1.44,0,0,0,.55-.37,4.49,4.49,0,0,0,.44-.49l.42-.51.29.16-2.27,8.59h-.82c.13-.45.28-.9.43-1.33l.37-1.12c.12-.39.23-.7.32-.93.22-.61.4-1.14.55-1.61s.25-.87.34-1.2.17-.72.22-1c-.12.1-.29.22-.5.36a5.75,5.75,0,0,1-.69.42,5.28,5.28,0,0,1-.76.36,2.7,2.7,0,0,1-.76.18,1.64,1.64,0,0,1-1.28-.44,1.8,1.8,0,0,1-.56-1.09,1.89,1.89,0,0,1,.27-1.23A1.71,1.71,0,0,1,438.6,279.62Z"/><text class="cls-5" transform="translate(455.85 276.3)">j</text><line class="cls-4" x1="455.85" y1="288.26" x2="455.85" y2="271.17"/><path d="M449.46,289.13a3,3,0,0,1,.62-1,4.53,4.53,0,0,1,1-.83,4.79,4.79,0,0,1,1.19-.56,4.43,4.43,0,0,1,1.29-.19,2.91,2.91,0,0,1,1.15.21,2,2,0,0,1,.78.58,1.77,1.77,0,0,1,.36.84,2.11,2.11,0,0,1-.13,1,3.26,3.26,0,0,1-.64,1,4.94,4.94,0,0,1-1,.84,4.67,4.67,0,0,1-1.2.55,4.43,4.43,0,0,1-1.28.2,2.83,2.83,0,0,1-1.14-.22,2.1,2.1,0,0,1-.78-.58,1.66,1.66,0,0,1-.36-.85A2.16,2.16,0,0,1,449.46,289.13Z"/><text class="cls-9" transform="translate(447.79 314.73)">P</text><text class="cls-9" transform="translate(453.04 314.73)">a</text><path d="M404.38,349.93a5.46,5.46,0,0,0-.95-.31,3,3,0,0,0-.73-.1,1.68,1.68,0,0,0-1.12.39,1.36,1.36,0,0,0-.46,1.11,1.12,1.12,0,0,0,.15.51,2.75,2.75,0,0,0,.36.53,4.72,4.72,0,0,0,.53.58l-.24.2a8.11,8.11,0,0,1-1.23-.9,6.57,6.57,0,0,1-.89-.93,2.35,2.35,0,0,1-.51-1.1,1.61,1.61,0,0,1,0-.69,1.86,1.86,0,0,1,.31-.63,1.75,1.75,0,0,1,.55-.45,2.15,2.15,0,0,1,.77-.22h.39a3.12,3.12,0,0,1,.44.05l.41.06.32,0a27.59,27.59,0,0,1-2.22-2.38q-.75-.94-.63-1.23l.44-.56a6.68,6.68,0,0,0,.59-.9,8.94,8.94,0,0,0,.51-1.08,3.08,3.08,0,0,0,.23-1.13,2.34,2.34,0,0,0-.23-.87c-.15-.35-.31-.69-.49-1l-.72-1.16.29-.21,3.73,4.7a8.36,8.36,0,0,0-.88,1.25,7,7,0,0,0-.62,1.15,3,3,0,0,0-.26,1.18,2.35,2.35,0,0,0,.11.75,4.59,4.59,0,0,0,.27.68,4.92,4.92,0,0,0,.37.59c.14.19.26.35.37.48a2.87,2.87,0,0,0,.27.32l.35.39c.11.13.21.25.29.36a.62.62,0,0,1,.14.21l0,.32Z"/><text class="cls-5" transform="translate(406.8 343.35)">.</text><path d="M426.42,341.12a1.21,1.21,0,0,1,.93.06,1.46,1.46,0,0,1,.56.57,2.24,2.24,0,0,1,.24.81,1.92,1.92,0,0,1-.07.75,4.54,4.54,0,0,0,.6-.12,1.44,1.44,0,0,0,.55-.37,4.49,4.49,0,0,0,.44-.49l.42-.51.29.16-2.28,8.59h-.82c.14-.45.28-.9.44-1.33s.24-.73.36-1.12.24-.7.33-.93c.22-.61.4-1.14.55-1.61s.25-.87.33-1.2.17-.72.23-1c-.12.1-.29.22-.5.36a6.66,6.66,0,0,1-.69.42,5.84,5.84,0,0,1-.76.36,2.7,2.7,0,0,1-.76.18,1.64,1.64,0,0,1-1.28-.44,1.8,1.8,0,0,1-.56-1.09,1.88,1.88,0,0,1,.26-1.23A1.75,1.75,0,0,1,426.42,341.12Z"/><path d="M438.6,341.12a1.19,1.19,0,0,1,.92.06,1.46,1.46,0,0,1,.56.57,2.24,2.24,0,0,1,.24.81,2.15,2.15,0,0,1-.06.75,4.72,4.72,0,0,0,.59-.12,1.44,1.44,0,0,0,.55-.37,4.49,4.49,0,0,0,.44-.49l.42-.51.29.16-2.27,8.59h-.82c.13-.45.28-.9.43-1.33l.37-1.12c.12-.39.23-.7.32-.93.22-.61.4-1.14.55-1.61s.25-.87.34-1.2.17-.72.22-1c-.12.1-.29.22-.5.36a5.75,5.75,0,0,1-.69.42,5.28,5.28,0,0,1-.76.36,2.7,2.7,0,0,1-.76.18,1.64,1.64,0,0,1-1.28-.44,1.8,1.8,0,0,1-.56-1.09,1.89,1.89,0,0,1,.27-1.23A1.71,1.71,0,0,1,438.6,341.12Z"/><text class="cls-5" transform="translate(455.85 350.61)">j</text><line class="cls-4" x1="455.85" y1="367.69" x2="455.85" y2="345.48"/><line class="cls-4" x1="448.01" y1="365.98" x2="457.41" y2="365.98"/><line class="cls-4" x1="448.01" y1="360.86" x2="457.41" y2="360.86"/><path d="M449.46,368.57a3.15,3.15,0,0,1,.62-1,5.18,5.18,0,0,1,1-.83,4.76,4.76,0,0,1,1.19-.55,4.45,4.45,0,0,1,1.29-.2,2.91,2.91,0,0,1,1.15.22,1.93,1.93,0,0,1,.78.57,1.77,1.77,0,0,1,.36.84,2.14,2.14,0,0,1-.13,1,3.21,3.21,0,0,1-.64,1,4.36,4.36,0,0,1-1,.84,4.7,4.7,0,0,1-1.2.56,4.41,4.41,0,0,1-1.28.19,2.83,2.83,0,0,1-1.14-.21,2.12,2.12,0,0,1-.78-.59,1.62,1.62,0,0,1-.36-.85A2.14,2.14,0,0,1,449.46,368.57Z"/><text class="cls-9" transform="translate(447.79 376.23)">P</text><text class="cls-9" transform="translate(453.04 376.23)">a</text><rect x="424.33" y="401.84" width="6.52" height="2.95"/><line class="cls-4" x1="423.67" y1="401.86" x2="431.78" y2="401.86"/><path d="M495.15,278.88a3.21,3.21,0,0,1,.63-1,4.3,4.3,0,0,1,1-.83,4.79,4.79,0,0,1,1.19-.56,4.38,4.38,0,0,1,1.29-.19,2.91,2.91,0,0,1,1.15.21,2,2,0,0,1,.78.58,1.77,1.77,0,0,1,.36.84,2.11,2.11,0,0,1-.13,1,3.26,3.26,0,0,1-.64,1,5.24,5.24,0,0,1-1,.84,4.67,4.67,0,0,1-1.2.55,4.43,4.43,0,0,1-1.28.2,2.83,2.83,0,0,1-1.14-.22,2.1,2.1,0,0,1-.78-.58,1.66,1.66,0,0,1-.36-.85A2.28,2.28,0,0,1,495.15,278.88Z"/><line class="cls-4" x1="495.18" y1="279.71" x2="495.18" y2="295.52"/><path d="M508.82,278.88a3,3,0,0,1,.63-1,4.3,4.3,0,0,1,1-.83,4.63,4.63,0,0,1,1.19-.56,4.33,4.33,0,0,1,1.29-.19,2.91,2.91,0,0,1,1.15.21,2.13,2.13,0,0,1,.78.58,1.77,1.77,0,0,1,.36.84,2.12,2.12,0,0,1-.14,1,3.22,3.22,0,0,1-.63,1,5,5,0,0,1-1,.84,4.67,4.67,0,0,1-1.2.55,4.38,4.38,0,0,1-1.28.2,2.86,2.86,0,0,1-1.14-.22,2,2,0,0,1-.77-.58,1.66,1.66,0,0,1-.36-.85A2.15,2.15,0,0,1,508.82,278.88Z"/><line class="cls-4" x1="508.85" y1="279.71" x2="508.85" y2="295.52"/><polyline points="494.99 294.24 509.04 294.24 509.04 296.8 494.99 296.8"/><path d="M527,288.43a5.67,5.67,0,0,0-.94-.31,3,3,0,0,0-.74-.1,1.68,1.68,0,0,0-1.12.39,1.36,1.36,0,0,0-.46,1.11,1.12,1.12,0,0,0,.15.51,4.69,4.69,0,0,0,.9,1.11l-.25.2a8.11,8.11,0,0,1-1.23-.9,7.19,7.19,0,0,1-.89-.93,2.23,2.23,0,0,1-.5-1.1,1.61,1.61,0,0,1,0-.69,1.67,1.67,0,0,1,.3-.63,1.79,1.79,0,0,1,.56-.45,2,2,0,0,1,.77-.22h.39a3.29,3.29,0,0,1,.44.05l.41.06.31,0a27.59,27.59,0,0,1-2.22-2.38c-.5-.63-.71-1-.62-1.23l.44-.56a7.83,7.83,0,0,0,.58-.9,8.94,8.94,0,0,0,.51-1.08,3.08,3.08,0,0,0,.23-1.13,2.34,2.34,0,0,0-.23-.87c-.15-.35-.31-.69-.49-1l-.72-1.16.29-.21,3.73,4.7a9.17,9.17,0,0,0-.88,1.25,7.86,7.86,0,0,0-.62,1.15,3.16,3.16,0,0,0-.26,1.18,2.67,2.67,0,0,0,.11.75,4.61,4.61,0,0,0,.28.68,3.92,3.92,0,0,0,.37.59,5.86,5.86,0,0,0,.37.48,1.92,1.92,0,0,0,.26.32c.13.13.24.26.35.39l.3.36a.53.53,0,0,1,.13.21l0,.32Z"/><path d="M543,278.88a3,3,0,0,1,.62-1,4.36,4.36,0,0,1,1-.83,4.57,4.57,0,0,1,1.18-.56,4.45,4.45,0,0,1,1.3-.19,2.86,2.86,0,0,1,1.14.21,2,2,0,0,1,.78.58,1.77,1.77,0,0,1,.36.84,2.11,2.11,0,0,1-.13,1,3.26,3.26,0,0,1-.64,1,4.7,4.7,0,0,1-2.18,1.39,4.43,4.43,0,0,1-1.28.2,2.83,2.83,0,0,1-1.14-.22,2.1,2.1,0,0,1-.78-.58,1.66,1.66,0,0,1-.36-.85A2.16,2.16,0,0,1,543,278.88Z"/><line class="cls-4" x1="543.01" y1="279.71" x2="543.01" y2="295.52"/><path d="M559.86,276.32a3.15,3.15,0,0,1,.62-1,5.18,5.18,0,0,1,1-.83,4.76,4.76,0,0,1,1.19-.55,4.46,4.46,0,0,1,1.3-.2,2.86,2.86,0,0,1,1.14.22,1.93,1.93,0,0,1,.78.57,1.77,1.77,0,0,1,.36.84,2.14,2.14,0,0,1-.13,1,3.21,3.21,0,0,1-.64,1,4.15,4.15,0,0,1-1,.84,4.7,4.7,0,0,1-1.2.56A4.41,4.41,0,0,1,562,279a2.83,2.83,0,0,1-1.14-.21,2.12,2.12,0,0,1-.78-.59,1.62,1.62,0,0,1-.36-.85A2.14,2.14,0,0,1,559.86,276.32Z"/><line class="cls-4" x1="559.88" y1="277.15" x2="559.88" y2="292.95"/><polyline points="542.82 294.24 560.08 291.67 560.08 294.24 542.82 296.8"/><text class="cls-9" transform="translate(494.62 314.73)">r</text><text class="cls-9" transform="translate(498.37 314.73)">e</text><text class="cls-9" transform="translate(508.59 314.73)">c</text><text class="cls-9" transform="translate(513.09 314.73)">e</text><text class="cls-9" transform="translate(516.84 314.73)">s</text><text class="cls-9" transform="translate(540.95 314.73)">u</text><text class="cls-9" transform="translate(546.2 314.73)">n</text><text class="cls-9" transform="translate(555.94 314.73)">c</text><text class="cls-9" transform="translate(560.44 314.73)">h</text><text class="cls-9" transform="translate(564.94 314.73)">u</text><path d="M495.15,358.32a3.37,3.37,0,0,1,.63-1,4.88,4.88,0,0,1,1-.83,4.76,4.76,0,0,1,1.19-.55,4.39,4.39,0,0,1,1.29-.2,2.91,2.91,0,0,1,1.15.22,1.93,1.93,0,0,1,.78.57,1.77,1.77,0,0,1,.36.84,2.14,2.14,0,0,1-.13,1,3.21,3.21,0,0,1-.64,1,5,5,0,0,1-1,.85,5,5,0,0,1-1.2.55,4.41,4.41,0,0,1-1.28.19,2.83,2.83,0,0,1-1.14-.21,2.12,2.12,0,0,1-.78-.59,1.62,1.62,0,0,1-.36-.85A2.25,2.25,0,0,1,495.15,358.32Z"/><line class="cls-4" x1="501.55" y1="357.44" x2="501.55" y2="341.64"/><path d="M508.82,358.32a3.18,3.18,0,0,1,.63-1,4.88,4.88,0,0,1,1-.83,4.61,4.61,0,0,1,1.19-.55,4.34,4.34,0,0,1,1.29-.2,2.91,2.91,0,0,1,1.15.22,2,2,0,0,1,.78.57,1.77,1.77,0,0,1,.36.84,2.15,2.15,0,0,1-.14,1,3.18,3.18,0,0,1-.63,1,4.74,4.74,0,0,1-1,.85,5,5,0,0,1-1.2.55A4.36,4.36,0,0,1,511,361a2.86,2.86,0,0,1-1.14-.21,2,2,0,0,1-.77-.59,1.62,1.62,0,0,1-.36-.85A2.12,2.12,0,0,1,508.82,358.32Z"/><line class="cls-4" x1="515.21" y1="357.44" x2="515.21" y2="341.64"/><polyline points="501.36 340.36 515.41 340.36 515.41 342.92 501.36 342.92"/><path d="M527,349.93a5.67,5.67,0,0,0-.94-.31,3,3,0,0,0-.74-.1,1.68,1.68,0,0,0-1.12.39,1.36,1.36,0,0,0-.46,1.11,1.12,1.12,0,0,0,.15.51,4.69,4.69,0,0,0,.9,1.11l-.25.2a8.11,8.11,0,0,1-1.23-.9,7.19,7.19,0,0,1-.89-.93,2.23,2.23,0,0,1-.5-1.1,1.61,1.61,0,0,1,0-.69,1.67,1.67,0,0,1,.3-.63,1.79,1.79,0,0,1,.56-.45,2,2,0,0,1,.77-.22h.39a3.29,3.29,0,0,1,.44.05l.41.06.31,0a27.59,27.59,0,0,1-2.22-2.38c-.5-.63-.71-1-.62-1.23l.44-.56a7.83,7.83,0,0,0,.58-.9,8.94,8.94,0,0,0,.51-1.08,3.08,3.08,0,0,0,.23-1.13,2.34,2.34,0,0,0-.23-.87c-.15-.35-.31-.69-.49-1l-.72-1.16.29-.21,3.73,4.7a9.17,9.17,0,0,0-.88,1.25,7.86,7.86,0,0,0-.62,1.15,3.16,3.16,0,0,0-.26,1.18,2.67,2.67,0,0,0,.11.75,4.61,4.61,0,0,0,.28.68,3.92,3.92,0,0,0,.37.59,5.86,5.86,0,0,0,.37.48,1.92,1.92,0,0,0,.26.32c.13.13.24.26.35.39l.3.36a.53.53,0,0,1,.13.21l0,.32Z"/><path d="M543,358.32a3.15,3.15,0,0,1,.62-1,5,5,0,0,1,1-.83,4.54,4.54,0,0,1,1.18-.55,4.46,4.46,0,0,1,1.3-.2,2.86,2.86,0,0,1,1.14.22,1.93,1.93,0,0,1,.78.57,1.77,1.77,0,0,1,.36.84,2.14,2.14,0,0,1-.13,1,3.21,3.21,0,0,1-.64,1,4.44,4.44,0,0,1-1,.85,5,5,0,0,1-1.2.55,4.41,4.41,0,0,1-1.28.19,2.83,2.83,0,0,1-1.14-.21,2.12,2.12,0,0,1-.78-.59,1.62,1.62,0,0,1-.36-.85A2.14,2.14,0,0,1,543,358.32Z"/><line class="cls-4" x1="549.38" y1="357.44" x2="549.38" y2="341.64"/><path d="M559.86,355.76a3.05,3.05,0,0,1,.62-1,5.18,5.18,0,0,1,1-.83,4.76,4.76,0,0,1,1.19-.55,4.46,4.46,0,0,1,1.3-.2,2.7,2.7,0,0,1,1.14.22,1.93,1.93,0,0,1,.78.57,1.77,1.77,0,0,1,.36.84,2.15,2.15,0,0,1-.13,1,3.21,3.21,0,0,1-.64,1,4.82,4.82,0,0,1-2.18,1.4,4.41,4.41,0,0,1-1.28.19,2.83,2.83,0,0,1-1.14-.21,2.12,2.12,0,0,1-.78-.59,1.62,1.62,0,0,1-.36-.85A2.12,2.12,0,0,1,559.86,355.76Z"/><line class="cls-4" x1="566.25" y1="354.88" x2="566.25" y2="340.36"/><polyline points="549.19 340.36 566.44 339.08 566.44 341.64 549.19 342.92"/><text class="cls-9" transform="translate(494.62 376.23)">r</text><text class="cls-9" transform="translate(498.37 376.23)">e</text><text class="cls-9" transform="translate(508.59 376.23)">c</text><text class="cls-9" transform="translate(513.09 376.23)">e</text><text class="cls-9" transform="translate(516.84 376.23)">s</text><text class="cls-9" transform="translate(540.95 376.23)">u</text><text class="cls-9" transform="translate(546.2 376.23)">n</text><text class="cls-9" transform="translate(555.94 376.23)">c</text><text class="cls-9" transform="translate(560.44 376.23)">h</text><text class="cls-9" transform="translate(564.94 376.23)">u</text><rect x="528.32" y="401.84" width="6.52" height="2.95"/><line class="cls-4" x1="527.66" y1="401.86" x2="535.78" y2="401.86"/><text class="cls-9" transform="translate(474.48 314.73)">-</text><text class="cls-9" transform="translate(503.74 314.73)">-</text><text class="cls-9" transform="translate(571.33 314.73)">-</text><text class="cls-9" transform="translate(503.74 376.23)">-</text><text class="cls-9" transform="translate(571.33 376.23)">-</text><text class="cls-9" transform="translate(474.48 376.23)">-</text><line class="cls-4" x1="72.16" y1="475.53" x2="72.16" y2="619.03"/><text class="cls-5" transform="translate(77.52 490.91)">&amp;</text><text class="cls-5" transform="translate(77.52 552.41)">&amp;</text><text class="cls-5" transform="translate(77.52 603.66)">?</text><line class="cls-4" x1="171.45" y1="475.53" x2="171.45" y2="496.03"/><line class="cls-4" x1="171.45" y1="537.03" x2="171.45" y2="557.53"/><line class="cls-4" x1="171.45" y1="598.53" x2="171.45" y2="619.03"/><line class="cls-4" x1="261.35" y1="475.53" x2="261.35" y2="496.03"/><line class="cls-4" x1="261.35" y1="537.03" x2="261.35" y2="557.53"/><line class="cls-4" x1="261.35" y1="598.53" x2="261.35" y2="619.03"/><line class="cls-4" x1="349.55" y1="475.53" x2="349.55" y2="496.03"/><line class="cls-4" x1="349.55" y1="537.03" x2="349.55" y2="557.53"/><line class="cls-4" x1="349.55" y1="598.53" x2="349.55" y2="619.03"/><line class="cls-4" x1="413.82" y1="475.53" x2="413.82" y2="496.03"/><line class="cls-4" x1="413.82" y1="537.03" x2="413.82" y2="557.53"/><line class="cls-4" x1="413.82" y1="598.53" x2="413.82" y2="619.03"/><line class="cls-4" x1="511.41" y1="475.53" x2="511.41" y2="496.03"/><line class="cls-4" x1="511.41" y1="537.03" x2="511.41" y2="557.53"/><line class="cls-4" x1="511.41" y1="598.53" x2="511.41" y2="619.03"/><line class="cls-4" x1="575.73" y1="475.53" x2="575.73" y2="496.03"/><line class="cls-4" x1="575.73" y1="537.03" x2="575.73" y2="557.53"/><line class="cls-4" x1="575.73" y1="598.53" x2="575.73" y2="619.03"/><line class="cls-4" x1="71.96" y1="475.53" x2="575.92" y2="475.53"/><line class="cls-4" x1="71.96" y1="480.66" x2="575.92" y2="480.66"/><line class="cls-4" x1="71.96" y1="485.78" x2="575.92" y2="485.78"/><line class="cls-4" x1="71.96" y1="490.91" x2="575.92" y2="490.91"/><line class="cls-4" x1="71.96" y1="496.03" x2="575.92" y2="496.03"/><text class="cls-7" transform="translate(49.75 489.63)">S</text><line class="cls-4" x1="71.96" y1="537.03" x2="575.92" y2="537.03"/><line class="cls-4" x1="71.96" y1="542.16" x2="575.92" y2="542.16"/><line class="cls-4" x1="71.96" y1="547.28" x2="575.92" y2="547.28"/><line class="cls-4" x1="71.96" y1="552.41" x2="575.92" y2="552.41"/><line class="cls-4" x1="71.96" y1="557.53" x2="575.92" y2="557.53"/><text class="cls-7" transform="translate(47.62 551.13)">A</text><line class="cls-4" x1="71.96" y1="598.53" x2="575.92" y2="598.53"/><line class="cls-4" x1="71.96" y1="603.66" x2="575.92" y2="603.66"/><line class="cls-4" x1="71.96" y1="608.78" x2="575.92" y2="608.78"/><line class="cls-4" x1="71.96" y1="613.91" x2="575.92" y2="613.91"/><line class="cls-4" x1="71.96" y1="619.03" x2="575.92" y2="619.03"/><text class="cls-7" transform="translate(48.26 612.63)">B</text><path d="M68.76,473c6.41,0,7.69-.85,9.4-2.56-1.07,3-3.63,3.84-7.48,3.84V620.31c3.85,0,6.41.86,7.48,3.85-1.71-1.71-3-2.57-9.4-2.57"/><text class="cls-8" transform="translate(73.24 466.14)">4</text><text class="cls-8" transform="translate(77.75 466.14)">4</text><line class="cls-4" x1="99.7" y1="476.39" x2="99.7" y2="493.47"/><path d="M99.67,475.55a3.21,3.21,0,0,1,.63-1,4.58,4.58,0,0,1,1-.83,4.79,4.79,0,0,1,1.19-.56,4.43,4.43,0,0,1,1.29-.19,2.91,2.91,0,0,1,1.15.21,2,2,0,0,1,.78.58,1.77,1.77,0,0,1,.36.84,2.11,2.11,0,0,1-.13,1,3.26,3.26,0,0,1-.64,1,4.94,4.94,0,0,1-1,.84,4.67,4.67,0,0,1-1.2.55,4.43,4.43,0,0,1-1.28.2,2.67,2.67,0,0,1-1.14-.22,2.1,2.1,0,0,1-.78-.58,1.66,1.66,0,0,1-.36-.85A2.29,2.29,0,0,1,99.67,475.55Z"/><text class="cls-5" transform="translate(119.58 493.47)">J</text><line class="cls-4" x1="119.77" y1="481.51" x2="119.77" y2="498.59"/><path d="M119.75,480.68a3.15,3.15,0,0,1,.62-1,5,5,0,0,1,1-.83,4.54,4.54,0,0,1,1.18-.55,4.46,4.46,0,0,1,1.3-.2,2.86,2.86,0,0,1,1.14.22,1.93,1.93,0,0,1,.78.57,1.77,1.77,0,0,1,.36.84,2,2,0,0,1-.13,1,3.21,3.21,0,0,1-.64,1,4.82,4.82,0,0,1-2.18,1.4,4.41,4.41,0,0,1-1.28.19,2.83,2.83,0,0,1-1.14-.21,2.12,2.12,0,0,1-.78-.59,1.62,1.62,0,0,1-.36-.85A2.14,2.14,0,0,1,119.75,480.68Z"/><line class="cls-4" x1="143.01" y1="487.49" x2="143.01" y2="470.41"/><path d="M136.62,488.36a3.11,3.11,0,0,1,.62-1,5,5,0,0,1,1-.83,4.54,4.54,0,0,1,1.18-.55,4.46,4.46,0,0,1,1.3-.2,2.7,2.7,0,0,1,1.14.22,1.93,1.93,0,0,1,.78.57,1.77,1.77,0,0,1,.36.84,2,2,0,0,1-.13,1,3.33,3.33,0,0,1-.64,1,4.68,4.68,0,0,1-1,.84,5.06,5.06,0,0,1-1.2.56,4.78,4.78,0,0,1-1.28.19,2.67,2.67,0,0,1-1.14-.22,2,2,0,0,1-.78-.58,1.66,1.66,0,0,1-.36-.85A2.18,2.18,0,0,1,136.62,488.36Z"/><text class="cls-5" transform="translate(156.53 498.59)">J</text><line class="cls-4" x1="156.72" y1="486.64" x2="156.72" y2="503.72"/><path d="M156.69,485.8a3.18,3.18,0,0,1,.62-1,5,5,0,0,1,2.17-1.39,4.33,4.33,0,0,1,1.29-.19,2.91,2.91,0,0,1,1.15.21,2.13,2.13,0,0,1,.78.58,1.66,1.66,0,0,1,.35.84,2,2,0,0,1-.13,1,3.41,3.41,0,0,1-.63,1,5,5,0,0,1-1,.84,4.67,4.67,0,0,1-1.2.55,4.38,4.38,0,0,1-1.28.2,2.67,2.67,0,0,1-1.14-.22,2.1,2.1,0,0,1-.78-.58,1.73,1.73,0,0,1-.35-.85A2.16,2.16,0,0,1,156.69,485.8Z"/><text class="cls-9" transform="translate(99.13 516.53)">t</text><text class="cls-9" transform="translate(102.13 516.53)">i</text><text class="cls-9" transform="translate(104.38 516.53)">l</text><text class="cls-9" transform="translate(118.83 516.53)">d</text><text class="cls-9" transform="translate(123.33 516.53)">e</text><text class="cls-9" transform="translate(133.45 516.53)">c</text><text class="cls-9" transform="translate(137.95 516.53)">o</text><text class="cls-9" transform="translate(142.45 516.53)">r</text><text class="cls-9" transform="translate(156.15 516.53)">n</text><text class="cls-9" transform="translate(161.4 516.53)">i</text><line class="cls-4" x1="106.07" y1="554.12" x2="106.07" y2="537.03"/><path d="M99.67,555a3.37,3.37,0,0,1,.63-1,4.88,4.88,0,0,1,1-.83,5.15,5.15,0,0,1,1.19-.55,4.43,4.43,0,0,1,1.29-.19,2.91,2.91,0,0,1,1.15.21,2,2,0,0,1,.78.58,1.73,1.73,0,0,1,.36.84,2.11,2.11,0,0,1-.13,1,3.26,3.26,0,0,1-.64,1,4.94,4.94,0,0,1-1,.84,4.67,4.67,0,0,1-1.2.55,4.43,4.43,0,0,1-1.28.2,2.83,2.83,0,0,1-1.14-.22,2.1,2.1,0,0,1-.78-.58,1.66,1.66,0,0,1-.36-.85A2.28,2.28,0,0,1,99.67,555Z"/><text class="cls-5" transform="translate(126.14 547.28)">j</text><line class="cls-4" x1="126.14" y1="559.24" x2="126.14" y2="542.16"/><path d="M119.75,560.11a3.11,3.11,0,0,1,.62-1,5,5,0,0,1,1-.83,4.54,4.54,0,0,1,1.18-.55,4.46,4.46,0,0,1,1.3-.2,2.7,2.7,0,0,1,1.14.22,1.93,1.93,0,0,1,.78.57,1.77,1.77,0,0,1,.36.84,2,2,0,0,1-.13,1,3.33,3.33,0,0,1-.64,1,4.82,4.82,0,0,1-2.18,1.4,4.78,4.78,0,0,1-1.28.19,2.67,2.67,0,0,1-1.14-.22A2,2,0,0,1,120,562a1.66,1.66,0,0,1-.36-.85A2.18,2.18,0,0,1,119.75,560.11Z"/><line class="cls-4" x1="143.01" y1="566.93" x2="143.01" y2="547.28"/><line class="cls-4" x1="135.17" y1="567.78" x2="144.57" y2="567.78"/><line class="cls-4" x1="135.17" y1="562.66" x2="144.57" y2="562.66"/><path d="M136.62,567.8a3,3,0,0,1,.62-1,4.63,4.63,0,0,1,1-.83,4.57,4.57,0,0,1,1.18-.56,4.45,4.45,0,0,1,1.3-.19,2.86,2.86,0,0,1,1.14.21,2,2,0,0,1,.78.58,1.77,1.77,0,0,1,.36.84,2,2,0,0,1-.13,1,3.26,3.26,0,0,1-.64,1,4.7,4.7,0,0,1-2.18,1.39,4.43,4.43,0,0,1-1.28.2,2.67,2.67,0,0,1-1.14-.22,2.1,2.1,0,0,1-.78-.58,1.66,1.66,0,0,1-.36-.85A2.18,2.18,0,0,1,136.62,567.8Z"/><text class="cls-5" transform="translate(163.08 552.41)">j</text><line class="cls-4" x1="163.08" y1="564.37" x2="163.08" y2="547.28"/><line class="cls-4" x1="155.24" y1="562.66" x2="164.64" y2="562.66"/><path d="M156.69,565.24a3.33,3.33,0,0,1,.62-1,4.82,4.82,0,0,1,2.17-1.38,4.33,4.33,0,0,1,1.29-.19,2.91,2.91,0,0,1,1.15.21,2,2,0,0,1,.78.58,1.59,1.59,0,0,1,.35.84,2,2,0,0,1-.13,1,3.53,3.53,0,0,1-.63,1,5,5,0,0,1-1,.84,4.67,4.67,0,0,1-1.2.55,4.36,4.36,0,0,1-1.28.19,2.83,2.83,0,0,1-1.14-.21,2.1,2.1,0,0,1-.78-.58,1.73,1.73,0,0,1-.35-.86A2.12,2.12,0,0,1,156.69,565.24Z"/><text class="cls-9" transform="translate(99.13 578.03)">t</text><text class="cls-9" transform="translate(102.13 578.03)">i</text><text class="cls-9" transform="translate(104.38 578.03)">l</text><text class="cls-9" transform="translate(118.83 578.03)">d</text><text class="cls-9" transform="translate(123.33 578.03)">e</text><text class="cls-9" transform="translate(133.45 578.03)">c</text><text class="cls-9" transform="translate(137.95 578.03)">o</text><text class="cls-9" transform="translate(142.45 578.03)">r</text><text class="cls-9" transform="translate(156.15 578.03)">n</text><text class="cls-9" transform="translate(161.4 578.03)">i</text><rect x="128.36" y="603.64" width="6.52" height="2.95"/><line class="cls-4" x1="127.7" y1="603.66" x2="135.81" y2="603.66"/><line class="cls-4" x1="180.21" y1="484.07" x2="180.21" y2="501.16"/><path d="M180.18,483.24a3.33,3.33,0,0,1,.62-1,4.82,4.82,0,0,1,2.17-1.38,4.33,4.33,0,0,1,1.29-.19,2.91,2.91,0,0,1,1.15.21,2.1,2.1,0,0,1,.78.58,1.59,1.59,0,0,1,.35.84,2,2,0,0,1-.13,1,3.53,3.53,0,0,1-.63,1,5,5,0,0,1-1,.84,4.67,4.67,0,0,1-1.2.55,4.41,4.41,0,0,1-1.28.19,2.83,2.83,0,0,1-1.14-.21,2.1,2.1,0,0,1-.78-.58,1.73,1.73,0,0,1-.35-.86A2,2,0,0,1,180.18,483.24Z"/><line class="cls-4" x1="207.29" y1="490.05" x2="207.29" y2="472.97"/><path d="M200.89,490.93a3.37,3.37,0,0,1,.63-1,4.88,4.88,0,0,1,1-.83,4.76,4.76,0,0,1,1.19-.55,4.34,4.34,0,0,1,1.29-.2,2.91,2.91,0,0,1,1.15.22,1.93,1.93,0,0,1,.78.57,1.77,1.77,0,0,1,.36.84,2,2,0,0,1-.14,1,3,3,0,0,1-.63,1,5,5,0,0,1-1,.84,4.48,4.48,0,0,1-1.19.56,4.43,4.43,0,0,1-1.29.19,2.81,2.81,0,0,1-1.13-.21,2.12,2.12,0,0,1-.78-.59,1.62,1.62,0,0,1-.36-.85A2.25,2.25,0,0,1,200.89,490.93Z"/><line class="cls-4" x1="236.33" y1="490.05" x2="236.33" y2="472.97"/><path d="M229.93,490.93a3.37,3.37,0,0,1,.63-1,4.88,4.88,0,0,1,1-.83,4.76,4.76,0,0,1,1.19-.55,4.45,4.45,0,0,1,1.29-.2,2.91,2.91,0,0,1,1.15.22,1.93,1.93,0,0,1,.78.57,1.77,1.77,0,0,1,.36.84,2.15,2.15,0,0,1-.13,1,3.21,3.21,0,0,1-.64,1,4.94,4.94,0,0,1-1,.84,4.7,4.7,0,0,1-1.2.56,4.41,4.41,0,0,1-1.28.19,2.83,2.83,0,0,1-1.14-.21,2.12,2.12,0,0,1-.78-.59,1.62,1.62,0,0,1-.36-.85A2.25,2.25,0,0,1,229.93,490.93Z"/><text class="cls-9" transform="translate(177.01 516.53)">z</text><text class="cls-9" transform="translate(180.76 516.53)">u</text><text class="cls-9" transform="translate(186.01 516.53)">e</text><text class="cls-9" transform="translate(200.73 516.53)">l</text><text class="cls-9" transform="translate(202.98 516.53)">o</text><line class="cls-4" x1="186.57" y1="561.8" x2="186.57" y2="544.72"/><line class="cls-4" x1="178.73" y1="562.66" x2="188.13" y2="562.66"/><path d="M180.18,562.68a3.33,3.33,0,0,1,.62-1,5,5,0,0,1,1-.83,4.61,4.61,0,0,1,1.19-.55,4.34,4.34,0,0,1,1.29-.2,2.91,2.91,0,0,1,1.15.22,2.08,2.08,0,0,1,.78.57,1.66,1.66,0,0,1,.35.84,2,2,0,0,1-.13,1,3.37,3.37,0,0,1-.63,1,4.93,4.93,0,0,1-2.19,1.4,4.41,4.41,0,0,1-1.28.19,2.83,2.83,0,0,1-1.14-.21,2.12,2.12,0,0,1-.78-.59,1.7,1.7,0,0,1-.35-.85A2,2,0,0,1,180.18,562.68Z"/><line class="cls-4" x1="207.29" y1="566.93" x2="207.29" y2="547.28"/><line class="cls-4" x1="199.45" y1="567.78" x2="208.84" y2="567.78"/><line class="cls-4" x1="199.45" y1="562.66" x2="208.84" y2="562.66"/><path d="M200.89,567.8a3.21,3.21,0,0,1,.63-1,4.58,4.58,0,0,1,1-.83,4.79,4.79,0,0,1,1.19-.56,4.33,4.33,0,0,1,1.29-.19,2.91,2.91,0,0,1,1.15.21,2,2,0,0,1,.78.58,1.77,1.77,0,0,1,.36.84,2,2,0,0,1-.14,1,3.06,3.06,0,0,1-.63,1,5,5,0,0,1-1,.84,4.7,4.7,0,0,1-2.48.75,2.65,2.65,0,0,1-1.13-.22,2.1,2.1,0,0,1-.78-.58,1.66,1.66,0,0,1-.36-.85A2.29,2.29,0,0,1,200.89,567.8Z"/><line class="cls-4" x1="236.33" y1="566.93" x2="236.33" y2="547.28"/><line class="cls-4" x1="228.49" y1="567.78" x2="237.88" y2="567.78"/><line class="cls-4" x1="228.49" y1="562.66" x2="237.88" y2="562.66"/><path d="M229.93,567.8a3.21,3.21,0,0,1,.63-1,4.58,4.58,0,0,1,1-.83,4.79,4.79,0,0,1,1.19-.56,4.43,4.43,0,0,1,1.29-.19,2.91,2.91,0,0,1,1.15.21,2,2,0,0,1,.78.58,1.77,1.77,0,0,1,.36.84,2.11,2.11,0,0,1-.13,1,3.26,3.26,0,0,1-.64,1,4.94,4.94,0,0,1-1,.84,4.67,4.67,0,0,1-1.2.55,4.43,4.43,0,0,1-1.28.2,2.67,2.67,0,0,1-1.14-.22,2.1,2.1,0,0,1-.78-.58,1.66,1.66,0,0,1-.36-.85A2.29,2.29,0,0,1,229.93,567.8Z"/><text class="cls-9" transform="translate(177.01 578.03)">z</text><text class="cls-9" transform="translate(180.76 578.03)">u</text><text class="cls-9" transform="translate(186.01 578.03)">e</text><text class="cls-9" transform="translate(200.73 578.03)">l</text><text class="cls-9" transform="translate(202.98 578.03)">o</text><rect x="212.92" y="603.64" width="6.52" height="2.95"/><line class="cls-4" x1="212.26" y1="603.66" x2="220.37" y2="603.66"/><rect x="301.97" y="480.64" width="6.52" height="2.95"/><line class="cls-4" x1="301.31" y1="480.66" x2="309.42" y2="480.66"/><rect x="301.97" y="542.14" width="6.52" height="2.95"/><line class="cls-4" x1="301.31" y1="542.16" x2="309.42" y2="542.16"/><path d="M273.69,613.23a5.82,5.82,0,0,0-.94-.32,3.53,3.53,0,0,0-.74-.09,1.68,1.68,0,0,0-1.12.39,1.36,1.36,0,0,0-.46,1.11,1.12,1.12,0,0,0,.15.51,4.1,4.1,0,0,0,.36.53,5.64,5.64,0,0,0,.54.58l-.25.2a8.11,8.11,0,0,1-1.23-.9,7.89,7.89,0,0,1-.89-.93,2.23,2.23,0,0,1-.5-1.1,1.39,1.39,0,0,1,0-.7,1.7,1.7,0,0,1,.3-.62,1.55,1.55,0,0,1,.56-.45,2,2,0,0,1,.77-.22h.39l.44,0,.41.06.31.06A27.59,27.59,0,0,1,269.6,609q-.75-.94-.63-1.23l.45-.57a7.64,7.64,0,0,0,.58-.89,8.94,8.94,0,0,0,.51-1.08,3.12,3.12,0,0,0,.23-1.13,2.34,2.34,0,0,0-.23-.87c-.15-.35-.31-.69-.49-1s-.46-.76-.72-1.17l.29-.2,3.73,4.69a9.83,9.83,0,0,0-.88,1.25,8,8,0,0,0-.62,1.16,3.16,3.16,0,0,0-.26,1.18,2.67,2.67,0,0,0,.11.75,4.48,4.48,0,0,0,.28.67,4,4,0,0,0,.37.6c.13.18.26.34.37.48a2.43,2.43,0,0,0,.26.32l.35.39.3.36c.09.11.13.17.13.2l0,.33Z"/><text class="cls-5" transform="translate(289.13 613.91)">J</text><line class="cls-4" x1="289.33" y1="601.95" x2="289.33" y2="619.03"/><path d="M289.3,601.11a3.29,3.29,0,0,1,.62-1,5,5,0,0,1,1-.83,4.61,4.61,0,0,1,1.19-.55,4.34,4.34,0,0,1,1.29-.2,2.74,2.74,0,0,1,1.15.22,2.08,2.08,0,0,1,.78.57,1.66,1.66,0,0,1,.35.84,2,2,0,0,1-.13,1,3.37,3.37,0,0,1-.63,1,5,5,0,0,1-1,.84,4.7,4.7,0,0,1-1.2.56,4.41,4.41,0,0,1-1.28.19,2.67,2.67,0,0,1-1.14-.22,2,2,0,0,1-.78-.58,1.73,1.73,0,0,1-.35-.85A2,2,0,0,1,289.3,601.11Z"/><line class="cls-4" x1="306.62" y1="594.26" x2="306.62" y2="611.34"/><line class="cls-4" x1="305.15" y1="593.41" x2="314.55" y2="593.41"/><path d="M306.6,593.43a3.15,3.15,0,0,1,.62-1,5.18,5.18,0,0,1,1-.83,4.76,4.76,0,0,1,1.19-.55,4.46,4.46,0,0,1,1.3-.2,2.86,2.86,0,0,1,1.14.22,1.93,1.93,0,0,1,.78.57,1.77,1.77,0,0,1,.36.84,2.15,2.15,0,0,1-.13,1,3.21,3.21,0,0,1-.64,1,4.4,4.4,0,0,1-1,.84,4.7,4.7,0,0,1-1.2.56,4.41,4.41,0,0,1-1.28.19,2.83,2.83,0,0,1-1.14-.21,2.12,2.12,0,0,1-.78-.59,1.62,1.62,0,0,1-.36-.85A2.14,2.14,0,0,1,306.6,593.43Z"/><text class="cls-5" transform="translate(329.49 611.34)">J</text><line class="cls-4" x1="329.69" y1="599.39" x2="329.69" y2="616.47"/><path d="M329.66,598.55a3,3,0,0,1,.62-1,5,5,0,0,1,2.17-1.39,4.33,4.33,0,0,1,1.29-.19,2.91,2.91,0,0,1,1.15.21,2.09,2.09,0,0,1,.77.58,1.59,1.59,0,0,1,.36.84,2,2,0,0,1-.13,1,3.26,3.26,0,0,1-.64,1,4.7,4.7,0,0,1-2.18,1.39,4.43,4.43,0,0,1-1.28.2,2.67,2.67,0,0,1-1.14-.22,2.1,2.1,0,0,1-.78-.58,1.85,1.85,0,0,1-.36-.85A2.18,2.18,0,0,1,329.66,598.55Z"/><text class="cls-9" transform="translate(285.38 639.53)">d</text><text class="cls-9" transform="translate(289.88 639.53)">o</text><text class="cls-9" transform="translate(294.38 639.53)">n</text><text class="cls-9" transform="translate(305.68 639.53)">d</text><text class="cls-9" transform="translate(310.18 639.53)">e</text><text class="cls-9" transform="translate(321.62 639.53)">l</text><text class="cls-9" transform="translate(323.87 639.53)">a</text><text class="cls-9" transform="translate(328.37 639.53)">/</text><text class="cls-9" transform="translate(331.37 639.53)">h</text><text class="cls-9" transform="translate(335.87 639.53)">o</text><text class="cls-9" transform="translate(340.37 639.53)">r</text><rect x="378.2" y="480.64" width="6.52" height="2.95"/><line class="cls-4" x1="377.54" y1="480.66" x2="385.66" y2="480.66"/><rect x="378.2" y="542.14" width="6.52" height="2.95"/><line class="cls-4" x1="377.54" y1="542.16" x2="385.66" y2="542.16"/><line class="cls-4" x1="357.02" y1="596.82" x2="357.02" y2="613.91"/><path d="M357,596a3.37,3.37,0,0,1,.63-1,4.88,4.88,0,0,1,1-.83,5.15,5.15,0,0,1,1.19-.55,4.33,4.33,0,0,1,1.29-.19,2.91,2.91,0,0,1,1.15.21,2,2,0,0,1,.78.58,1.69,1.69,0,0,1,.36.84,2.12,2.12,0,0,1-.14,1,3.33,3.33,0,0,1-.63,1,5,5,0,0,1-1,.84,4.52,4.52,0,0,1-1.2.55,4.36,4.36,0,0,1-1.28.19,2.81,2.81,0,0,1-1.13-.21,2,2,0,0,1-.78-.58,1.66,1.66,0,0,1-.36-.86A2.12,2.12,0,0,1,357,596Z"/><text class="cls-5" transform="translate(384.59 601.52)">.</text><line class="cls-4" x1="376.24" y1="604.51" x2="376.24" y2="621.59"/><path d="M376.21,603.68a3.37,3.37,0,0,1,.63-1,4.88,4.88,0,0,1,1-.83,4.61,4.61,0,0,1,1.19-.55,4.34,4.34,0,0,1,1.29-.2,2.91,2.91,0,0,1,1.15.22,1.93,1.93,0,0,1,.78.57,1.77,1.77,0,0,1,.36.84,2.16,2.16,0,0,1-.14,1,3.18,3.18,0,0,1-.63,1,5,5,0,0,1-1,.84,4.7,4.7,0,0,1-1.2.56,4.36,4.36,0,0,1-1.28.19,2.86,2.86,0,0,1-1.14-.21,2,2,0,0,1-.77-.59,1.62,1.62,0,0,1-.36-.85A2.12,2.12,0,0,1,376.21,603.68Z"/><path d="M403.15,604.42a1.18,1.18,0,0,1,.92.06,1.29,1.29,0,0,1,.56.57,2.24,2.24,0,0,1,.24.81,1.79,1.79,0,0,1-.06.75,4.38,4.38,0,0,0,.59-.12,1.54,1.54,0,0,0,.56-.37,6.07,6.07,0,0,0,.44-.5q.17-.23.42-.51l.28.17-2.27,8.59H404c.13-.46.28-.9.43-1.34l.37-1.11c.12-.39.23-.7.33-.94.21-.6.4-1.13.54-1.61s.26-.87.34-1.2.17-.71.22-1c-.12.1-.29.22-.5.36s-.44.28-.69.42a5.72,5.72,0,0,1-.75.36,2.43,2.43,0,0,1-.76.17,1.58,1.58,0,0,1-1.28-.43,1.82,1.82,0,0,1-.57-1.09,2,2,0,0,1,.27-1.23A1.73,1.73,0,0,1,403.15,604.42Z"/><text class="cls-9" transform="translate(355.7 639.53)">m</text><text class="cls-9" transform="translate(362.45 639.53)">i</text><text class="cls-9" transform="translate(374.92 639.53)">g</text><text class="cls-9" transform="translate(379.42 639.53)">a</text><rect x="459.13" y="480.64" width="6.52" height="2.95"/><line class="cls-4" x1="458.47" y1="480.66" x2="466.59" y2="480.66"/><rect x="459.13" y="542.14" width="6.52" height="2.95"/><line class="cls-4" x1="458.47" y1="542.16" x2="466.59" y2="542.16"/><path d="M422.37,604.42a1.18,1.18,0,0,1,.92.06,1.34,1.34,0,0,1,.56.57,2.24,2.24,0,0,1,.24.81,2,2,0,0,1-.06.75,4.38,4.38,0,0,0,.59-.12,1.44,1.44,0,0,0,.55-.37,4.82,4.82,0,0,0,.45-.5q.17-.23.42-.51l.28.17-2.27,8.59h-.82c.13-.46.28-.9.43-1.34l.37-1.11c.12-.39.23-.7.32-.94.22-.6.4-1.13.55-1.61s.25-.87.34-1.2.17-.71.22-1c-.12.1-.29.22-.5.36s-.44.28-.69.42a5.28,5.28,0,0,1-.76.36,2.38,2.38,0,0,1-.75.17,1.62,1.62,0,0,1-1.29-.43,1.86,1.86,0,0,1-.56-1.09,1.89,1.89,0,0,1,.27-1.23A1.73,1.73,0,0,1,422.37,604.42Z"/><path d="M434.29,603.68a3.37,3.37,0,0,1,.63-1,4.88,4.88,0,0,1,1-.83,4.76,4.76,0,0,1,1.19-.55,4.45,4.45,0,0,1,1.29-.2,2.91,2.91,0,0,1,1.15.22,1.93,1.93,0,0,1,.78.57,1.77,1.77,0,0,1,.36.84,2.15,2.15,0,0,1-.13,1,3.21,3.21,0,0,1-.64,1,4.94,4.94,0,0,1-1,.84,4.7,4.7,0,0,1-1.2.56,4.41,4.41,0,0,1-1.28.19,2.83,2.83,0,0,1-1.14-.21,2.12,2.12,0,0,1-.78-.59,1.62,1.62,0,0,1-.36-.85A2.25,2.25,0,0,1,434.29,603.68Z"/><line class="cls-4" x1="434.32" y1="604.51" x2="434.32" y2="620.31"/><path d="M450.74,601.11a3.11,3.11,0,0,1,.62-1,5,5,0,0,1,1-.83,4.54,4.54,0,0,1,1.18-.55,4.46,4.46,0,0,1,1.3-.2,2.7,2.7,0,0,1,1.14.22,1.93,1.93,0,0,1,.78.57,1.77,1.77,0,0,1,.36.84,2.15,2.15,0,0,1-.13,1,3.21,3.21,0,0,1-.64,1,4.82,4.82,0,0,1-2.18,1.4,4.41,4.41,0,0,1-1.28.19,2.67,2.67,0,0,1-1.14-.22A2,2,0,0,1,451,603a1.66,1.66,0,0,1-.36-.85A2.18,2.18,0,0,1,450.74,601.11Z"/><line class="cls-4" x1="450.76" y1="601.95" x2="450.76" y2="617.75"/><polyline points="434.13 619.03 450.96 616.47 450.96 619.03 434.13 621.59"/><path d="M466.75,596a3.37,3.37,0,0,1,.63-1,4.88,4.88,0,0,1,1-.83,5.15,5.15,0,0,1,1.19-.55,4.33,4.33,0,0,1,1.29-.19,2.91,2.91,0,0,1,1.15.21,2,2,0,0,1,.78.58,1.69,1.69,0,0,1,.36.84,2,2,0,0,1-.14,1,3.15,3.15,0,0,1-.63,1,5,5,0,0,1-1,.84,4.58,4.58,0,0,1-2.48.74,2.81,2.81,0,0,1-1.13-.21,2.1,2.1,0,0,1-.78-.58,1.66,1.66,0,0,1-.36-.86A2.25,2.25,0,0,1,466.75,596Z"/><line class="cls-4" x1="466.78" y1="596.82" x2="466.78" y2="617.75"/><path d="M480.63,601.11a3.32,3.32,0,0,1,.63-1,4.88,4.88,0,0,1,1-.83,4.76,4.76,0,0,1,1.19-.55,4.34,4.34,0,0,1,1.29-.2,2.74,2.74,0,0,1,1.15.22,1.93,1.93,0,0,1,.78.57,1.77,1.77,0,0,1,.36.84,2,2,0,0,1-.14,1,3,3,0,0,1-.63,1,5.24,5.24,0,0,1-1,.84,4.7,4.7,0,0,1-1.2.56,4.43,4.43,0,0,1-1.29.19,2.65,2.65,0,0,1-1.13-.22,2,2,0,0,1-.78-.58,1.66,1.66,0,0,1-.36-.85A2.29,2.29,0,0,1,480.63,601.11Z"/><line class="cls-4" x1="480.66" y1="601.95" x2="480.66" y2="617.75"/><path d="M494.51,598.55a3.21,3.21,0,0,1,.63-1,4.58,4.58,0,0,1,1-.83,4.79,4.79,0,0,1,1.19-.56,4.33,4.33,0,0,1,1.29-.19,2.91,2.91,0,0,1,1.15.21,2,2,0,0,1,.78.58,1.77,1.77,0,0,1,.36.84,2,2,0,0,1-.14,1,3.06,3.06,0,0,1-.63,1,5,5,0,0,1-1,.84,4.7,4.7,0,0,1-2.48.75,2.65,2.65,0,0,1-1.13-.22,2.1,2.1,0,0,1-.78-.58,1.66,1.66,0,0,1-.36-.85A2.29,2.29,0,0,1,494.51,598.55Z"/><line class="cls-4" x1="494.54" y1="599.39" x2="494.54" y2="617.75"/><polyline points="466.59 616.47 494.73 616.47 494.73 619.03 466.59 619.03"/><text class="cls-9" transform="translate(433 639.53)">c</text><text class="cls-9" transform="translate(437.5 639.53)">a</text><text class="cls-9" transform="translate(446.82 639.53)">c</text><text class="cls-9" transform="translate(451.32 639.53)">h</text><text class="cls-9" transform="translate(455.82 639.53)">u</text><text class="cls-9" transform="translate(466.59 639.53)">d</text><text class="cls-9" transform="translate(471.09 639.53)">i</text><text class="cls-9" transform="translate(480.09 639.53)">t</text><text class="cls-9" transform="translate(483.09 639.53)">a</text><text class="cls-9" transform="translate(494.35 639.53)">v</text><text class="cls-9" transform="translate(498.85 639.53)">i</text><rect x="540.07" y="480.64" width="6.52" height="2.95"/><line class="cls-4" x1="539.41" y1="480.66" x2="547.52" y2="480.66"/><rect x="540.07" y="542.14" width="6.52" height="2.95"/><line class="cls-4" x1="539.41" y1="542.16" x2="547.52" y2="542.16"/><text class="cls-5" transform="translate(518.69 611.34)">J</text><line class="cls-4" x1="518.88" y1="599.39" x2="518.88" y2="616.47"/><path d="M518.86,598.55a3,3,0,0,1,.62-1,4.63,4.63,0,0,1,1-.83,4.57,4.57,0,0,1,1.18-.56,4.45,4.45,0,0,1,1.3-.19,2.86,2.86,0,0,1,1.14.21,2,2,0,0,1,.78.58,1.77,1.77,0,0,1,.36.84,2.11,2.11,0,0,1-.13,1,3.26,3.26,0,0,1-.64,1,4.7,4.7,0,0,1-2.18,1.39,4.43,4.43,0,0,1-1.28.2,2.67,2.67,0,0,1-1.14-.22,2.1,2.1,0,0,1-.78-.58,1.66,1.66,0,0,1-.36-.85A2.18,2.18,0,0,1,518.86,598.55Z"/><line class="cls-4" x1="530.84" y1="601.95" x2="530.84" y2="619.03"/><path d="M530.81,601.11a3.32,3.32,0,0,1,.63-1,4.88,4.88,0,0,1,1-.83,4.76,4.76,0,0,1,1.19-.55,4.45,4.45,0,0,1,1.29-.2,2.74,2.74,0,0,1,1.15.22,1.93,1.93,0,0,1,.78.57,1.77,1.77,0,0,1,.36.84,2.15,2.15,0,0,1-.13,1,3.21,3.21,0,0,1-.64,1,4.94,4.94,0,0,1-1,.84,4.7,4.7,0,0,1-1.2.56,4.41,4.41,0,0,1-1.28.19,2.67,2.67,0,0,1-1.14-.22A2,2,0,0,1,531,603a1.66,1.66,0,0,1-.36-.85A2.29,2.29,0,0,1,530.81,601.11Z"/><text class="cls-5" transform="translate(558.41 601.52)">.</text><line class="cls-4" x1="550.06" y1="601.95" x2="550.06" y2="619.03"/><path d="M550,601.11a3.32,3.32,0,0,1,.63-1,4.88,4.88,0,0,1,1-.83,4.76,4.76,0,0,1,1.19-.55,4.39,4.39,0,0,1,1.29-.2,2.74,2.74,0,0,1,1.15.22,1.93,1.93,0,0,1,.78.57,1.77,1.77,0,0,1,.36.84,2.15,2.15,0,0,1-.13,1,3.21,3.21,0,0,1-.64,1,5.24,5.24,0,0,1-1,.84,4.7,4.7,0,0,1-1.2.56,4.41,4.41,0,0,1-1.28.19,2.67,2.67,0,0,1-1.14-.22,2,2,0,0,1-.78-.58,1.66,1.66,0,0,1-.36-.85A2.29,2.29,0,0,1,550,601.11Z"/><text class="cls-9" transform="translate(530.65 639.53)">v</text><text class="cls-9" transform="translate(535.15 639.53)">e</text><path d="M205.64,494.75c5.12,4.7,20.5,4.7,25.63,0l-.15-.16c-5,3.58-20.36,3.58-25.34,0l-.14.16"/><path d="M205.64,571.84c5.12,3.84,20.5,3.84,25.63,0l-.13-.17c-5,2.73-20.38,2.73-25.37,0l-.13.17"/><path d="M499.47,594.47c4.06-3.84,16.66-3.84,20.72,0l-.15.16c-3.91-2.72-16.51-2.72-20.42,0l-.15-.16"/><path d="M535.78,597.25c3.2-3.84,12.59-3.84,15.8,0l-.17.14c-3-2.7-12.43-2.7-15.47,0l-.16-.14"/><text class="cls-9" transform="translate(149.79 516.53)">-</text><text class="cls-9" transform="translate(168.91 516.53)">-</text><text class="cls-9" transform="translate(193.78 516.53)">-</text><line class="cls-4" x1="209.27" y1="516.32" x2="236.6" y2="516.32"/><text class="cls-9" transform="translate(149.79 578.03)">-</text><text class="cls-9" transform="translate(168.91 578.03)">-</text><text class="cls-9" transform="translate(193.78 578.03)">-</text><line class="cls-4" x1="209.27" y1="577.82" x2="236.6" y2="577.82"/><text class="cls-9" transform="translate(368.35 639.53)">-</text><text class="cls-9" transform="translate(442.88 639.53)">-</text><text class="cls-9" transform="translate(462.31 639.53)">-</text><text class="cls-9" transform="translate(475.13 639.53)">-</text><text class="cls-9" transform="translate(514.31 639.53)">-</text><text class="cls-9" transform="translate(301.3 639.53)">-</text><text class="cls-9" transform="translate(348.39 639.53)">-</text><line class="cls-4" x1="540.69" y1="639.32" x2="560.97" y2="639.32"/><text class="cls-11" transform="translate(570 34.75)">3</text><text class="cls-11" transform="translate(302 34.75)">N</text><text class="cls-11" transform="translate(311 34.75)">a</text><text class="cls-11" transform="translate(316.25 34.75)">y</text><text class="cls-11" transform="translate(322.25 34.75)">u</text><text class="cls-11" transform="translate(328.25 34.75)">r</text><text class="cls-11" transform="translate(332 34.75)">i</text><text class="cls-11" transform="translate(335 34.75)">b</text><text class="cls-11" transform="translate(341 34.75)">e</text></g></svg>