<svg id="Layer_1" data-name="Layer 1" xmlns="http://www.w3.org/2000/svg" xmlns:xlink="http://www.w3.org/1999/xlink" viewBox="0 0 612 792"><defs><style>.cls-1,.cls-4{fill:none;}.cls-2{clip-path:url(#clip-path);}.cls-3{fill:#fff;}.cls-4{stroke:#000;stroke-miterlimit:10;stroke-width:0.38px;}.cls-5{font-size:20.5px;font-family:Maestro;}.cls-6{font-size:11.96px;}.cls-10,.cls-11,.cls-12,.cls-6,.cls-9{font-family:TimesNewRomanPSMT, Times New Roman;}.cls-7{font-size:8.54px;font-family:TimesNewRomanPS-ItalicMT, Times New Roman;font-style:italic;}.cls-8{font-size:10.25px;font-family:FinaleLyrics;}.cls-9{font-size:24px;}.cls-10{font-size:10px;}.cls-11{font-size:12px;}.cls-12{font-size:18px;}</style><clipPath id="clip-path"><rect class="cls-1" width="612" height="792"/></clipPath></defs><title>Nayuribe_1</title><g class="cls-2"><rect class="cls-3" width="612" height="792"/><line class="cls-4" x1="108.24" y1="126.6" x2="108.24" y2="270.1"/><text class="cls-5" transform="translate(113.6 141.98)">&amp;</text><text class="cls-5" transform="translate(113.6 203.48)">&amp;</text><text class="cls-5" transform="translate(113.6 254.73)">?</text><text class="cls-5" transform="translate(133.68 126.6)">#</text><text class="cls-5" transform="translate(139.02 134.29)">#</text><text class="cls-5" transform="translate(144.35 124.04)">#</text><text class="cls-5" transform="translate(133.68 188.1)">#</text><text class="cls-5" transform="translate(139.02 195.79)">#</text><text class="cls-5" transform="translate(144.35 185.54)">#</text><text class="cls-5" transform="translate(133.68 254.73)">#</text><text class="cls-5" transform="translate(139.02 262.42)">#</text><text class="cls-5" transform="translate(144.35 252.17)">#</text><text class="cls-5" transform="translate(157.38 141.98)">8</text><text class="cls-5" transform="translate(157.38 131.73)">6</text><text class="cls-5" transform="translate(157.38 203.48)">8</text><text class="cls-5" transform="translate(157.38 193.23)">6</text><text class="cls-5" transform="translate(157.38 264.98)">8</text><text class="cls-5" transform="translate(157.38 254.73)">6</text><line class="cls-4" x1="280.57" y1="126.6" x2="280.57" y2="147.1"/><line class="cls-4" x1="280.57" y1="188.1" x2="280.57" y2="208.6"/><line class="cls-4" x1="280.57" y1="249.6" x2="280.57" y2="270.1"/><line class="cls-4" x1="372.39" y1="126.6" x2="372.39" y2="147.1"/><line class="cls-4" x1="372.39" y1="188.1" x2="372.39" y2="208.6"/><line class="cls-4" x1="372.39" y1="249.6" x2="372.39" y2="270.1"/><line class="cls-4" x1="480.87" y1="126.6" x2="480.87" y2="147.1"/><line class="cls-4" x1="480.87" y1="188.1" x2="480.87" y2="208.6"/><line class="cls-4" x1="480.87" y1="249.6" x2="480.87" y2="270.1"/><line class="cls-4" x1="575.73" y1="126.6" x2="575.73" y2="147.1"/><line class="cls-4" x1="575.73" y1="188.1" x2="575.73" y2="208.6"/><line class="cls-4" x1="575.73" y1="249.6" x2="575.73" y2="270.1"/><line class="cls-4" x1="108.05" y1="126.6" x2="575.92" y2="126.6"/><line class="cls-4" x1="108.05" y1="131.73" x2="575.92" y2="131.73"/><line class="cls-4" x1="108.05" y1="136.85" x2="575.92" y2="136.85"/><line class="cls-4" x1="108.05" y1="141.98" x2="575.92" y2="141.98"/><line class="cls-4" x1="108.05" y1="147.1" x2="575.92" y2="147.1"/><text class="cls-6" transform="translate(52.96 140.7)">S</text><text class="cls-6" transform="translate(59.71 140.7)">o</text><text class="cls-6" transform="translate(65.71 140.7)">p</text><text class="cls-6" transform="translate(71.71 140.7)">r</text><text class="cls-6" transform="translate(75.46 140.7)">a</text><text class="cls-6" transform="translate(80.7 140.7)">n</text><text class="cls-6" transform="translate(86.7 140.7)">o</text><line class="cls-4" x1="108.05" y1="188.1" x2="575.92" y2="188.1"/><line class="cls-4" x1="108.05" y1="193.23" x2="575.92" y2="193.23"/><line class="cls-4" x1="108.05" y1="198.35" x2="575.92" y2="198.35"/><line class="cls-4" x1="108.05" y1="203.48" x2="575.92" y2="203.48"/><line class="cls-4" x1="108.05" y1="208.6" x2="575.92" y2="208.6"/><text class="cls-6" transform="translate(71.75 202.2)">A</text><text class="cls-6" transform="translate(80.75 202.2)">l</text><text class="cls-6" transform="translate(83.75 202.2)">t</text><text class="cls-6" transform="translate(86.75 202.2)">o</text><line class="cls-4" x1="108.05" y1="249.6" x2="575.92" y2="249.6"/><line class="cls-4" x1="108.05" y1="254.73" x2="575.92" y2="254.73"/><line class="cls-4" x1="108.05" y1="259.85" x2="575.92" y2="259.85"/><line class="cls-4" x1="108.05" y1="264.98" x2="575.92" y2="264.98"/><line class="cls-4" x1="108.05" y1="270.1" x2="575.92" y2="270.1"/><text class="cls-6" transform="translate(70.25 263.7)">B</text><text class="cls-6" transform="translate(78.5 263.7)">a</text><text class="cls-6" transform="translate(83.75 263.7)">s</text><text class="cls-6" transform="translate(88.25 263.7)">s</text><path d="M104.85,124c6.4,0,7.69-.85,9.39-2.56-1.06,3-3.63,3.84-7.47,3.84V271.39c3.84,0,6.41.85,7.47,3.84-1.7-1.71-3-2.56-9.39-2.56"/><rect x="220.4" y="131.71" width="6.52" height="2.95"/><line class="cls-4" x1="219.73" y1="131.73" x2="227.85" y2="131.73"/><rect x="220.4" y="193.21" width="6.52" height="2.95"/><line class="cls-4" x1="219.73" y1="193.23" x2="227.85" y2="193.23"/><rect x="220.4" y="254.71" width="6.52" height="2.95"/><line class="cls-4" x1="219.73" y1="254.73" x2="227.85" y2="254.73"/><rect x="323.11" y="131.71" width="6.52" height="2.95"/><line class="cls-4" x1="322.45" y1="131.73" x2="330.56" y2="131.73"/><rect x="323.11" y="193.21" width="6.52" height="2.95"/><line class="cls-4" x1="322.45" y1="193.23" x2="330.56" y2="193.23"/><rect x="323.11" y="254.71" width="6.52" height="2.95"/><line class="cls-4" x1="322.45" y1="254.73" x2="330.56" y2="254.73"/><rect x="423.26" y="131.71" width="6.52" height="2.95"/><line class="cls-4" x1="422.6" y1="131.73" x2="430.71" y2="131.73"/><rect x="423.26" y="193.21" width="6.52" height="2.95"/><line class="cls-4" x1="422.6" y1="193.23" x2="430.71" y2="193.23"/><rect x="423.26" y="254.71" width="6.52" height="2.95"/><line class="cls-4" x1="422.6" y1="254.73" x2="430.71" y2="254.73"/><rect x="524.91" y="131.71" width="6.52" height="2.95"/><line class="cls-4" x1="524.24" y1="131.73" x2="532.36" y2="131.73"/><rect x="524.91" y="193.21" width="6.52" height="2.95"/><line class="cls-4" x1="524.24" y1="193.23" x2="532.36" y2="193.23"/><rect x="524.91" y="254.71" width="6.52" height="2.95"/><line class="cls-4" x1="524.24" y1="254.73" x2="532.36" y2="254.73"/><line class="cls-4" x1="72.16" y1="328.19" x2="72.16" y2="471.69"/><text class="cls-5" transform="translate(77.52 343.56)">&amp;</text><text class="cls-5" transform="translate(77.52 405.06)">&amp;</text><text class="cls-5" transform="translate(77.52 456.31)">?</text><text class="cls-5" transform="translate(97.59 328.19)">#</text><text class="cls-5" transform="translate(102.93 335.88)">#</text><text class="cls-5" transform="translate(108.27 325.63)">#</text><text class="cls-5" transform="translate(97.59 389.69)">#</text><text class="cls-5" transform="translate(102.93 397.38)">#</text><text class="cls-5" transform="translate(108.27 387.13)">#</text><text class="cls-5" transform="translate(97.59 456.31)">#</text><text class="cls-5" transform="translate(102.93 464)">#</text><text class="cls-5" transform="translate(108.27 453.75)">#</text><line class="cls-4" x1="212.03" y1="328.19" x2="212.03" y2="348.69"/><line class="cls-4" x1="212.03" y1="389.69" x2="212.03" y2="410.19"/><line class="cls-4" x1="212.03" y1="451.19" x2="212.03" y2="471.69"/><line class="cls-4" x1="289.75" y1="328.19" x2="289.75" y2="348.69"/><line class="cls-4" x1="289.75" y1="389.69" x2="289.75" y2="410.19"/><line class="cls-4" x1="289.75" y1="451.19" x2="289.75" y2="471.69"/><line class="cls-4" x1="381.79" y1="328.19" x2="381.79" y2="348.69"/><line class="cls-4" x1="381.79" y1="389.69" x2="381.79" y2="410.19"/><line class="cls-4" x1="381.79" y1="451.19" x2="381.79" y2="471.69"/><line class="cls-4" x1="461.01" y1="328.19" x2="461.01" y2="348.69"/><line class="cls-4" x1="461.01" y1="389.69" x2="461.01" y2="410.19"/><line class="cls-4" x1="461.01" y1="451.19" x2="461.01" y2="471.69"/><line class="cls-4" x1="575.73" y1="328.19" x2="575.73" y2="348.69"/><line class="cls-4" x1="575.73" y1="389.69" x2="575.73" y2="410.19"/><line class="cls-4" x1="575.73" y1="451.19" x2="575.73" y2="471.69"/><line class="cls-4" x1="71.96" y1="328.19" x2="575.92" y2="328.19"/><line class="cls-4" x1="71.96" y1="333.31" x2="575.92" y2="333.31"/><line class="cls-4" x1="71.96" y1="338.44" x2="575.92" y2="338.44"/><line class="cls-4" x1="71.96" y1="343.56" x2="575.92" y2="343.56"/><line class="cls-4" x1="71.96" y1="348.69" x2="575.92" y2="348.69"/><text class="cls-6" transform="translate(49.75 342.28)">S</text><line class="cls-4" x1="71.96" y1="389.69" x2="575.92" y2="389.69"/><line class="cls-4" x1="71.96" y1="394.81" x2="575.92" y2="394.81"/><line class="cls-4" x1="71.96" y1="399.94" x2="575.92" y2="399.94"/><line class="cls-4" x1="71.96" y1="405.06" x2="575.92" y2="405.06"/><line class="cls-4" x1="71.96" y1="410.19" x2="575.92" y2="410.19"/><text class="cls-6" transform="translate(47.62 403.78)">A</text><line class="cls-4" x1="71.96" y1="451.19" x2="575.92" y2="451.19"/><line class="cls-4" x1="71.96" y1="456.31" x2="575.92" y2="456.31"/><line class="cls-4" x1="71.96" y1="461.44" x2="575.92" y2="461.44"/><line class="cls-4" x1="71.96" y1="466.56" x2="575.92" y2="466.56"/><line class="cls-4" x1="71.96" y1="471.69" x2="575.92" y2="471.69"/><text class="cls-6" transform="translate(48.26 465.28)">B</text><path d="M68.76,325.63c6.41,0,7.69-.86,9.4-2.57-1.07,3-3.63,3.85-7.48,3.85V473c3.85,0,6.41.85,7.48,3.84-1.71-1.71-3-2.56-9.4-2.56"/><text class="cls-7" transform="translate(73.24 318.79)">5</text><path d="M124.48,334.07a1.29,1.29,0,0,1,.92.06,1.42,1.42,0,0,1,.56.58,2.13,2.13,0,0,1,.24.81,1.9,1.9,0,0,1-.06.74,2.68,2.68,0,0,0,.59-.12,1.33,1.33,0,0,0,.55-.37,4.8,4.8,0,0,0,.45-.49q.17-.22.42-.51l.28.16-2.27,8.59h-.82c.13-.45.28-.89.43-1.33l.37-1.12c.12-.39.23-.7.32-.93.22-.6.4-1.14.55-1.61s.25-.87.34-1.2.17-.72.22-1l-.5.35a7.43,7.43,0,0,1-.69.43,6.56,6.56,0,0,1-.76.35,2.41,2.41,0,0,1-.75.18,1.65,1.65,0,0,1-1.29-.43,1.83,1.83,0,0,1-.56-1.1,1.89,1.89,0,0,1,.27-1.23A1.79,1.79,0,0,1,124.48,334.07Z"/><line class="cls-4" x1="135.38" y1="353.81" x2="144.78" y2="353.81"/><path d="M136.83,353.83a3.21,3.21,0,0,1,.63-1,4.58,4.58,0,0,1,1-.83,4.63,4.63,0,0,1,1.19-.56,4.33,4.33,0,0,1,1.29-.19,2.91,2.91,0,0,1,1.15.21,2,2,0,0,1,.78.58,1.77,1.77,0,0,1,.36.84,2.11,2.11,0,0,1-.14,1,3.22,3.22,0,0,1-.63,1,5,5,0,0,1-1,.84,4.67,4.67,0,0,1-1.2.55,4.38,4.38,0,0,1-1.28.2,2.7,2.7,0,0,1-1.14-.22,1.89,1.89,0,0,1-.77-.58,1.66,1.66,0,0,1-.36-.85A2.16,2.16,0,0,1,136.83,353.83Z"/><line class="cls-4" x1="143.22" y1="352.96" x2="143.22" y2="339.72"/><path d="M151.35,351.27a3.21,3.21,0,0,1,.63-1,4.58,4.58,0,0,1,1-.83,4.79,4.79,0,0,1,1.19-.56,4.33,4.33,0,0,1,1.29-.19,2.91,2.91,0,0,1,1.15.21,2,2,0,0,1,.78.58,1.77,1.77,0,0,1,.36.84,2.12,2.12,0,0,1-.14,1,3.22,3.22,0,0,1-.63,1,5,5,0,0,1-1,.84,4.67,4.67,0,0,1-1.2.55,4.38,4.38,0,0,1-1.28.2,2.81,2.81,0,0,1-1.13-.22,2,2,0,0,1-.78-.58,1.66,1.66,0,0,1-.36-.85A2.16,2.16,0,0,1,151.35,351.27Z"/><line class="cls-4" x1="157.75" y1="350.4" x2="157.75" y2="338.44"/><polyline points="143.03 338.44 157.94 337.16 157.94 339.72 143.03 341"/><path d="M165.23,348.71a3.37,3.37,0,0,1,.63-1,4.88,4.88,0,0,1,1-.83,4.76,4.76,0,0,1,1.19-.55,4.34,4.34,0,0,1,1.29-.2,2.91,2.91,0,0,1,1.15.22,2,2,0,0,1,.78.57,1.77,1.77,0,0,1,.36.84,2.15,2.15,0,0,1-.14,1,3.18,3.18,0,0,1-.63,1,4.74,4.74,0,0,1-1,.85,4.86,4.86,0,0,1-1.2.55,4.36,4.36,0,0,1-1.28.19,2.81,2.81,0,0,1-1.13-.21,1.88,1.88,0,0,1-.78-.59,1.62,1.62,0,0,1-.36-.85A2.12,2.12,0,0,1,165.23,348.71Z"/><line class="cls-4" x1="171.63" y1="347.83" x2="171.63" y2="334.59"/><path d="M181,351.27a3.21,3.21,0,0,1,.63-1,4.58,4.58,0,0,1,1-.83,4.79,4.79,0,0,1,1.19-.56,4.38,4.38,0,0,1,1.29-.19,2.91,2.91,0,0,1,1.15.21,2,2,0,0,1,.78.58,1.77,1.77,0,0,1,.36.84,2.11,2.11,0,0,1-.13,1,3.26,3.26,0,0,1-.64,1,5.24,5.24,0,0,1-1,.84,4.67,4.67,0,0,1-1.2.55,4.43,4.43,0,0,1-1.28.2,2.83,2.83,0,0,1-1.14-.22,2.1,2.1,0,0,1-.78-.58,1.66,1.66,0,0,1-.36-.85A2.29,2.29,0,0,1,181,351.27Z"/><text class="cls-5" transform="translate(174.68 351.25)">#</text><line class="cls-4" x1="187.43" y1="350.4" x2="187.43" y2="333.95"/><path d="M196.84,346.15a3.15,3.15,0,0,1,.62-1,5.18,5.18,0,0,1,1-.83,4.76,4.76,0,0,1,1.19-.55,4.46,4.46,0,0,1,1.3-.2,2.7,2.7,0,0,1,1.14.22,1.93,1.93,0,0,1,.78.57,1.77,1.77,0,0,1,.36.84,2.15,2.15,0,0,1-.13,1,3.21,3.21,0,0,1-.64,1,4.82,4.82,0,0,1-2.18,1.4,4.41,4.41,0,0,1-1.28.19,2.83,2.83,0,0,1-1.14-.21,2.12,2.12,0,0,1-.78-.59,1.62,1.62,0,0,1-.36-.85A2.12,2.12,0,0,1,196.84,346.15Z"/><line class="cls-4" x1="203.23" y1="345.27" x2="203.23" y2="333.31"/><polyline points="171.43 333.31 203.42 332.03 203.42 334.59 171.43 335.88"/><text class="cls-8" transform="translate(135.54 369.19)">Y</text><text class="cls-8" transform="translate(140.04 369.19)">a</text><text class="cls-8" transform="translate(151.19 369.19)">l</text><text class="cls-8" transform="translate(153.44 369.19)">a</text><text class="cls-8" transform="translate(165.12 369.19)">l</text><text class="cls-8" transform="translate(167.37 369.19)">u</text><text class="cls-8" transform="translate(179.37 369.19)">n</text><text class="cls-8" transform="translate(184.62 369.19)">a</text><text class="cls-8" transform="translate(194.05 369.19)">s</text><text class="cls-8" transform="translate(197.8 369.19)">e</text><text class="cls-8" transform="translate(201.55 369.19)">a</text><path d="M124.48,395.57a1.29,1.29,0,0,1,.92.06,1.42,1.42,0,0,1,.56.58,2.13,2.13,0,0,1,.24.81,1.9,1.9,0,0,1-.06.74,2.68,2.68,0,0,0,.59-.12,1.33,1.33,0,0,0,.55-.37,4.8,4.8,0,0,0,.45-.49q.17-.22.42-.51l.28.16L126.16,405h-.82c.13-.45.28-.89.43-1.33l.37-1.12c.12-.39.23-.7.32-.93.22-.6.4-1.14.55-1.61s.25-.87.34-1.2.17-.72.22-1l-.5.35a7.43,7.43,0,0,1-.69.43,6.56,6.56,0,0,1-.76.35,2.41,2.41,0,0,1-.75.18,1.65,1.65,0,0,1-1.29-.43,1.83,1.83,0,0,1-.56-1.1,1.89,1.89,0,0,1,.27-1.23A1.79,1.79,0,0,1,124.48,395.57Z"/><line class="cls-4" x1="135.38" y1="415.31" x2="144.78" y2="415.31"/><path d="M136.83,415.33a3.21,3.21,0,0,1,.63-1,4.58,4.58,0,0,1,1-.83,4.63,4.63,0,0,1,1.19-.56,4.33,4.33,0,0,1,1.29-.19,2.91,2.91,0,0,1,1.15.21,2,2,0,0,1,.78.58,1.77,1.77,0,0,1,.36.84,2.11,2.11,0,0,1-.14,1,3.22,3.22,0,0,1-.63,1,5,5,0,0,1-1,.84,4.67,4.67,0,0,1-1.2.55,4.38,4.38,0,0,1-1.28.2,2.7,2.7,0,0,1-1.14-.22,2,2,0,0,1-.77-.58,1.66,1.66,0,0,1-.36-.85A2.16,2.16,0,0,1,136.83,415.33Z"/><line class="cls-4" x1="143.22" y1="414.46" x2="143.22" y2="401.22"/><path d="M151.35,412.77a3.21,3.21,0,0,1,.63-1,4.58,4.58,0,0,1,1-.83,4.79,4.79,0,0,1,1.19-.56,4.33,4.33,0,0,1,1.29-.19,2.91,2.91,0,0,1,1.15.21,2,2,0,0,1,.78.58,1.77,1.77,0,0,1,.36.84,2.12,2.12,0,0,1-.14,1,3.22,3.22,0,0,1-.63,1,5,5,0,0,1-1,.84,4.67,4.67,0,0,1-1.2.55,4.38,4.38,0,0,1-1.28.2,2.81,2.81,0,0,1-1.13-.22,2,2,0,0,1-.78-.58,1.66,1.66,0,0,1-.36-.85A2.15,2.15,0,0,1,151.35,412.77Z"/><line class="cls-4" x1="157.75" y1="411.9" x2="157.75" y2="399.94"/><polyline points="143.03 399.94 157.94 398.66 157.94 401.22 143.03 402.5"/><path d="M165.23,410.21a3.37,3.37,0,0,1,.63-1,4.88,4.88,0,0,1,1-.83,4.76,4.76,0,0,1,1.19-.55,4.34,4.34,0,0,1,1.29-.2,2.91,2.91,0,0,1,1.15.22,2,2,0,0,1,.78.57,1.77,1.77,0,0,1,.36.84,2.15,2.15,0,0,1-.14,1,3.33,3.33,0,0,1-.63,1,5,5,0,0,1-1,.84,4.86,4.86,0,0,1-1.2.55,4.36,4.36,0,0,1-1.28.19,2.81,2.81,0,0,1-1.13-.21,1.88,1.88,0,0,1-.78-.59,1.62,1.62,0,0,1-.36-.85A2.12,2.12,0,0,1,165.23,410.21Z"/><line class="cls-4" x1="171.63" y1="409.33" x2="171.63" y2="396.09"/><path d="M181,412.77a3.21,3.21,0,0,1,.63-1,4.58,4.58,0,0,1,1-.83,4.79,4.79,0,0,1,1.19-.56,4.38,4.38,0,0,1,1.29-.19,2.91,2.91,0,0,1,1.15.21,2,2,0,0,1,.78.58,1.77,1.77,0,0,1,.36.84,2.11,2.11,0,0,1-.13,1,3.26,3.26,0,0,1-.64,1,5.24,5.24,0,0,1-1,.84,4.67,4.67,0,0,1-1.2.55,4.43,4.43,0,0,1-1.28.2,2.83,2.83,0,0,1-1.14-.22,2.1,2.1,0,0,1-.78-.58,1.66,1.66,0,0,1-.36-.85A2.28,2.28,0,0,1,181,412.77Z"/><text class="cls-5" transform="translate(174.68 412.75)">#</text><line class="cls-4" x1="187.43" y1="411.9" x2="187.43" y2="395.45"/><path d="M196.84,407.65a3.15,3.15,0,0,1,.62-1,5.18,5.18,0,0,1,1-.83,4.76,4.76,0,0,1,1.19-.55,4.46,4.46,0,0,1,1.3-.2,2.7,2.7,0,0,1,1.14.22,1.93,1.93,0,0,1,.78.57,1.77,1.77,0,0,1,.36.84,2.15,2.15,0,0,1-.13,1,3.21,3.21,0,0,1-.64,1,4.82,4.82,0,0,1-2.18,1.4,4.41,4.41,0,0,1-1.28.19,2.83,2.83,0,0,1-1.14-.21,2.12,2.12,0,0,1-.78-.59,1.62,1.62,0,0,1-.36-.85A2.12,2.12,0,0,1,196.84,407.65Z"/><line class="cls-4" x1="203.23" y1="406.77" x2="203.23" y2="394.81"/><polyline points="171.43 394.81 203.42 393.53 203.42 396.09 171.43 397.38"/><text class="cls-8" transform="translate(135.54 430.69)">Y</text><text class="cls-8" transform="translate(140.04 430.69)">a</text><text class="cls-8" transform="translate(151.19 430.69)">l</text><text class="cls-8" transform="translate(153.44 430.69)">a</text><text class="cls-8" transform="translate(165.12 430.69)">l</text><text class="cls-8" transform="translate(167.37 430.69)">u</text><text class="cls-8" transform="translate(179.37 430.69)">n</text><text class="cls-8" transform="translate(184.62 430.69)">a</text><text class="cls-8" transform="translate(194.05 430.69)">s</text><text class="cls-8" transform="translate(197.8 430.69)">e</text><text class="cls-8" transform="translate(201.55 430.69)">a</text><path d="M124.48,457.07a1.29,1.29,0,0,1,.92.06,1.42,1.42,0,0,1,.56.58,2.13,2.13,0,0,1,.24.81,1.9,1.9,0,0,1-.06.74,2.68,2.68,0,0,0,.59-.12,1.33,1.33,0,0,0,.55-.37,4.8,4.8,0,0,0,.45-.49q.17-.22.42-.51l.28.16-2.27,8.59h-.82c.13-.45.28-.89.43-1.33l.37-1.12c.12-.39.23-.7.32-.93.22-.6.4-1.14.55-1.61s.25-.87.34-1.2.17-.72.22-1l-.5.35a7.43,7.43,0,0,1-.69.43,6.56,6.56,0,0,1-.76.35,2.41,2.41,0,0,1-.75.18,1.65,1.65,0,0,1-1.29-.43,1.83,1.83,0,0,1-.56-1.1,1.89,1.89,0,0,1,.27-1.23A1.79,1.79,0,0,1,124.48,457.07Z"/><path d="M136.83,464a3.21,3.21,0,0,1,.63-1,4.3,4.3,0,0,1,1-.83,4.63,4.63,0,0,1,1.19-.56,4.33,4.33,0,0,1,1.29-.19,2.91,2.91,0,0,1,1.15.21,2,2,0,0,1,.78.58,1.77,1.77,0,0,1,.36.84,2.12,2.12,0,0,1-.14,1,3.22,3.22,0,0,1-.63,1,5,5,0,0,1-1,.84,4.67,4.67,0,0,1-1.2.55,4.38,4.38,0,0,1-1.28.2,2.86,2.86,0,0,1-1.14-.22,2,2,0,0,1-.77-.58,1.66,1.66,0,0,1-.36-.85A2.15,2.15,0,0,1,136.83,464Z"/><line class="cls-4" x1="143.22" y1="463.15" x2="143.22" y2="447.34"/><path d="M151.35,461.46a3.37,3.37,0,0,1,.63-1,4.88,4.88,0,0,1,1-.83,4.76,4.76,0,0,1,1.19-.55,4.34,4.34,0,0,1,1.29-.2,2.91,2.91,0,0,1,1.15.22,1.93,1.93,0,0,1,.78.57,1.77,1.77,0,0,1,.36.84,2.15,2.15,0,0,1-.14,1,3.18,3.18,0,0,1-.63,1,4.74,4.74,0,0,1-1,.85,5,5,0,0,1-1.2.55,4.36,4.36,0,0,1-1.28.19,2.81,2.81,0,0,1-1.13-.21,2,2,0,0,1-.78-.59,1.62,1.62,0,0,1-.36-.85A2.12,2.12,0,0,1,151.35,461.46Z"/><line class="cls-4" x1="157.75" y1="460.58" x2="157.75" y2="444.78"/><polyline points="143.03 446.06 157.94 443.5 157.94 446.06 143.03 448.63"/><path d="M165.23,458.9a3.37,3.37,0,0,1,.63-1,4.88,4.88,0,0,1,1-.83,4.76,4.76,0,0,1,1.19-.55,4.34,4.34,0,0,1,1.29-.2,2.74,2.74,0,0,1,1.15.22,1.93,1.93,0,0,1,.78.57,1.77,1.77,0,0,1,.36.84,2.16,2.16,0,0,1-.14,1,3.18,3.18,0,0,1-.63,1,5,5,0,0,1-1,.84,4.55,4.55,0,0,1-1.2.56,4.36,4.36,0,0,1-1.28.19,2.81,2.81,0,0,1-1.13-.21,2,2,0,0,1-.78-.59,1.62,1.62,0,0,1-.36-.85A2.12,2.12,0,0,1,165.23,458.9Z"/><line class="cls-4" x1="165.26" y1="459.73" x2="165.26" y2="478.09"/><path d="M181,461.46a3.37,3.37,0,0,1,.63-1,4.88,4.88,0,0,1,1-.83,4.76,4.76,0,0,1,1.19-.55,4.39,4.39,0,0,1,1.29-.2,2.91,2.91,0,0,1,1.15.22,1.93,1.93,0,0,1,.78.57,1.77,1.77,0,0,1,.36.84,2.14,2.14,0,0,1-.13,1,3.21,3.21,0,0,1-.64,1,5,5,0,0,1-1,.85,5,5,0,0,1-1.2.55,4.41,4.41,0,0,1-1.28.19,2.83,2.83,0,0,1-1.14-.21,2.12,2.12,0,0,1-.78-.59,1.62,1.62,0,0,1-.36-.85A2.25,2.25,0,0,1,181,461.46Z"/><text class="cls-5" transform="translate(174.68 461.44)">#</text><line class="cls-4" x1="181.06" y1="462.29" x2="181.06" y2="478.09"/><path d="M196.84,456.33a3,3,0,0,1,.62-1,4.85,4.85,0,0,1,2.16-1.39,4.45,4.45,0,0,1,1.3-.19,2.7,2.7,0,0,1,1.14.22,1.93,1.93,0,0,1,.78.57,1.77,1.77,0,0,1,.36.84,2.1,2.1,0,0,1-.13,1,3.26,3.26,0,0,1-.64,1,4.7,4.7,0,0,1-2.18,1.39,4.43,4.43,0,0,1-1.28.2,2.67,2.67,0,0,1-1.14-.22,2,2,0,0,1-.78-.58,1.66,1.66,0,0,1-.36-.85A2.18,2.18,0,0,1,196.84,456.33Z"/><line class="cls-4" x1="196.86" y1="457.17" x2="196.86" y2="478.09"/><polyline points="165.07 476.81 197.06 476.81 197.06 479.38 165.07 479.38"/><text class="cls-8" transform="translate(135.54 492.19)">Y</text><text class="cls-8" transform="translate(140.04 492.19)">a</text><text class="cls-8" transform="translate(151.19 492.19)">l</text><text class="cls-8" transform="translate(153.44 492.19)">a</text><text class="cls-8" transform="translate(165.12 492.19)">l</text><text class="cls-8" transform="translate(167.37 492.19)">u</text><text class="cls-8" transform="translate(179.37 492.19)">n</text><text class="cls-8" transform="translate(184.62 492.19)">a</text><text class="cls-8" transform="translate(194.05 492.19)">s</text><text class="cls-8" transform="translate(197.8 492.19)">e</text><text class="cls-8" transform="translate(201.55 492.19)">a</text><line class="cls-4" x1="225.86" y1="347.83" x2="225.86" y2="330.75"/><path d="M219.47,348.71a3.37,3.37,0,0,1,.63-1,4.88,4.88,0,0,1,1-.83,4.61,4.61,0,0,1,1.19-.55,4.34,4.34,0,0,1,1.29-.2,2.91,2.91,0,0,1,1.15.22,2,2,0,0,1,.78.57,1.77,1.77,0,0,1,.36.84,2.15,2.15,0,0,1-.14,1,3.18,3.18,0,0,1-.63,1,4.74,4.74,0,0,1-1,.85,5,5,0,0,1-1.2.55,4.36,4.36,0,0,1-1.28.19,2.9,2.9,0,0,1-1.14-.21,1.91,1.91,0,0,1-.77-.59,1.62,1.62,0,0,1-.36-.85A2.12,2.12,0,0,1,219.47,348.71Z"/><text class="cls-5" transform="translate(246.15 341)">j</text><line class="cls-4" x1="246.15" y1="352.96" x2="246.15" y2="335.88"/><line class="cls-4" x1="238.31" y1="353.81" x2="247.71" y2="353.81"/><path d="M239.76,353.83a3,3,0,0,1,.62-1,5,5,0,0,1,2.17-1.39,4.33,4.33,0,0,1,1.29-.19,2.86,2.86,0,0,1,1.14.21,2,2,0,0,1,.78.58,1.68,1.68,0,0,1,.36.84,2,2,0,0,1-.13,1,3.26,3.26,0,0,1-.64,1,4.7,4.7,0,0,1-2.18,1.39,4.43,4.43,0,0,1-1.28.2,2.67,2.67,0,0,1-1.14-.22,2,2,0,0,1-.78-.58,1.66,1.66,0,0,1-.36-.85A2.18,2.18,0,0,1,239.76,353.83Z"/><text class="cls-5" transform="translate(271.41 351.68)">.</text><line class="cls-4" x1="269.43" y1="352.96" x2="269.43" y2="335.88"/><line class="cls-4" x1="261.59" y1="353.81" x2="270.98" y2="353.81"/><path d="M263,353.83a3.21,3.21,0,0,1,.63-1,4.58,4.58,0,0,1,1-.83,4.79,4.79,0,0,1,1.19-.56,4.43,4.43,0,0,1,1.29-.19,2.91,2.91,0,0,1,1.15.21,2,2,0,0,1,.78.58,1.77,1.77,0,0,1,.36.84,2.1,2.1,0,0,1-.13,1,3.26,3.26,0,0,1-.64,1,4.94,4.94,0,0,1-1,.84,4.67,4.67,0,0,1-1.2.55,4.43,4.43,0,0,1-1.28.2,2.67,2.67,0,0,1-1.14-.22,2,2,0,0,1-.78-.58,1.66,1.66,0,0,1-.36-.85A2.29,2.29,0,0,1,263,353.83Z"/><text class="cls-8" transform="translate(214.06 369.19)">c</text><text class="cls-8" transform="translate(218.56 369.19)">u</text><text class="cls-8" transform="translate(223.81 369.19)">e</text><text class="cls-8" transform="translate(227.56 369.19)">s</text><text class="cls-8" transform="translate(239.59 369.19)">t</text><text class="cls-8" transform="translate(242.59 369.19)">a</text><line class="cls-4" x1="225.86" y1="409.33" x2="225.86" y2="392.25"/><path d="M219.47,410.21a3.37,3.37,0,0,1,.63-1,4.88,4.88,0,0,1,1-.83,4.61,4.61,0,0,1,1.19-.55,4.34,4.34,0,0,1,1.29-.2,2.91,2.91,0,0,1,1.15.22,2,2,0,0,1,.78.57,1.77,1.77,0,0,1,.36.84,2.15,2.15,0,0,1-.14,1,3.33,3.33,0,0,1-.63,1,4.8,4.8,0,0,1-2.19,1.39,4.36,4.36,0,0,1-1.28.19,2.9,2.9,0,0,1-1.14-.21,1.91,1.91,0,0,1-.77-.59,1.62,1.62,0,0,1-.36-.85A2.12,2.12,0,0,1,219.47,410.21Z"/><text class="cls-5" transform="translate(246.15 402.5)">j</text><line class="cls-4" x1="246.15" y1="414.46" x2="246.15" y2="397.38"/><line class="cls-4" x1="238.31" y1="415.31" x2="247.71" y2="415.31"/><path d="M239.76,415.33a3,3,0,0,1,.62-1,5,5,0,0,1,2.17-1.39,4.33,4.33,0,0,1,1.29-.19,2.86,2.86,0,0,1,1.14.21,2,2,0,0,1,.78.58,1.68,1.68,0,0,1,.36.84,2,2,0,0,1-.13,1,3.26,3.26,0,0,1-.64,1,4.7,4.7,0,0,1-2.18,1.39,4.43,4.43,0,0,1-1.28.2,2.67,2.67,0,0,1-1.14-.22,2.1,2.1,0,0,1-.78-.58,1.66,1.66,0,0,1-.36-.85A2.18,2.18,0,0,1,239.76,415.33Z"/><text class="cls-5" transform="translate(271.41 413.18)">.</text><line class="cls-4" x1="269.43" y1="414.46" x2="269.43" y2="397.38"/><line class="cls-4" x1="261.59" y1="415.31" x2="270.98" y2="415.31"/><path d="M263,415.33a3.21,3.21,0,0,1,.63-1,4.58,4.58,0,0,1,1-.83,4.79,4.79,0,0,1,1.19-.56,4.43,4.43,0,0,1,1.29-.19,2.91,2.91,0,0,1,1.15.21,2,2,0,0,1,.78.58,1.77,1.77,0,0,1,.36.84,2.1,2.1,0,0,1-.13,1,3.26,3.26,0,0,1-.64,1,4.94,4.94,0,0,1-1,.84,4.67,4.67,0,0,1-1.2.55,4.43,4.43,0,0,1-1.28.2,2.67,2.67,0,0,1-1.14-.22,2.1,2.1,0,0,1-.78-.58,1.66,1.66,0,0,1-.36-.85A2.29,2.29,0,0,1,263,415.33Z"/><text class="cls-8" transform="translate(214.06 430.69)">c</text><text class="cls-8" transform="translate(218.56 430.69)">u</text><text class="cls-8" transform="translate(223.81 430.69)">e</text><text class="cls-8" transform="translate(227.56 430.69)">s</text><text class="cls-8" transform="translate(239.59 430.69)">t</text><text class="cls-8" transform="translate(242.59 430.69)">a</text><line class="cls-4" x1="219.5" y1="459.73" x2="219.5" y2="476.81"/><path d="M219.47,458.9a3.37,3.37,0,0,1,.63-1,4.88,4.88,0,0,1,1-.83,4.61,4.61,0,0,1,1.19-.55,4.34,4.34,0,0,1,1.29-.2,2.74,2.74,0,0,1,1.15.22,1.93,1.93,0,0,1,.78.57,1.77,1.77,0,0,1,.36.84,2.16,2.16,0,0,1-.14,1,3.18,3.18,0,0,1-.63,1,5,5,0,0,1-1,.84,4.7,4.7,0,0,1-1.2.56,4.36,4.36,0,0,1-1.28.19,2.9,2.9,0,0,1-1.14-.21,2,2,0,0,1-.77-.59,1.62,1.62,0,0,1-.36-.85A2.12,2.12,0,0,1,219.47,458.9Z"/><text class="cls-5" transform="translate(246.15 451.19)">j</text><line class="cls-4" x1="246.15" y1="463.15" x2="246.15" y2="446.06"/><path d="M239.76,464a3,3,0,0,1,.62-1,4.36,4.36,0,0,1,1-.83,4.63,4.63,0,0,1,1.19-.56,4.33,4.33,0,0,1,1.29-.19,2.86,2.86,0,0,1,1.14.21,2,2,0,0,1,.78.58,1.68,1.68,0,0,1,.36.84,2,2,0,0,1-.13,1,3.26,3.26,0,0,1-.64,1,4.7,4.7,0,0,1-2.18,1.39,4.43,4.43,0,0,1-1.28.2,2.83,2.83,0,0,1-1.14-.22,2.1,2.1,0,0,1-.78-.58,1.66,1.66,0,0,1-.36-.85A2.16,2.16,0,0,1,239.76,464Z"/><text class="cls-5" transform="translate(271.41 464.43)">.</text><line class="cls-4" x1="269.43" y1="463.15" x2="269.43" y2="446.06"/><path d="M263,464a3.21,3.21,0,0,1,.63-1,4.3,4.3,0,0,1,1-.83,4.79,4.79,0,0,1,1.19-.56,4.43,4.43,0,0,1,1.29-.19,2.91,2.91,0,0,1,1.15.21,2,2,0,0,1,.78.58,1.77,1.77,0,0,1,.36.84,2.11,2.11,0,0,1-.13,1,3.26,3.26,0,0,1-.64,1,4.94,4.94,0,0,1-1,.84,4.67,4.67,0,0,1-1.2.55,4.43,4.43,0,0,1-1.28.2,2.83,2.83,0,0,1-1.14-.22,2.1,2.1,0,0,1-.78-.58,1.66,1.66,0,0,1-.36-.85A2.28,2.28,0,0,1,263,464Z"/><text class="cls-8" transform="translate(214.06 492.19)">c</text><text class="cls-8" transform="translate(218.56 492.19)">u</text><text class="cls-8" transform="translate(223.81 492.19)">e</text><text class="cls-8" transform="translate(227.56 492.19)">s</text><text class="cls-8" transform="translate(239.59 492.19)">t</text><text class="cls-8" transform="translate(242.59 492.19)">a</text><path d="M302.09,342.89a5.51,5.51,0,0,0-.94-.32,3.53,3.53,0,0,0-.74-.09,1.68,1.68,0,0,0-1.12.39,1.33,1.33,0,0,0-.46,1.1,1.12,1.12,0,0,0,.15.51,4.22,4.22,0,0,0,.36.54,4.72,4.72,0,0,0,.54.57l-.25.21a8.9,8.9,0,0,1-1.23-.91,7.19,7.19,0,0,1-.89-.93,2.2,2.2,0,0,1-.5-1.09,1.65,1.65,0,0,1,0-.7,1.83,1.83,0,0,1,.3-.63,1.79,1.79,0,0,1,.56-.45,2,2,0,0,1,.77-.21h.39a3.27,3.27,0,0,1,.44,0l.41.06.32.05a26.43,26.43,0,0,1-2.23-2.38c-.5-.63-.71-1-.62-1.23l.44-.56a7.64,7.64,0,0,0,.58-.89,9.09,9.09,0,0,0,.51-1.09,3.08,3.08,0,0,0,.23-1.13,2.34,2.34,0,0,0-.23-.87c-.15-.35-.31-.68-.49-1s-.46-.76-.72-1.17l.29-.21,3.73,4.7a9.83,9.83,0,0,0-.88,1.25,6.7,6.7,0,0,0-.61,1.16,3,3,0,0,0-.27,1.18,2.55,2.55,0,0,0,.11.74,4.45,4.45,0,0,0,.65,1.28c.13.18.26.34.37.48a2.48,2.48,0,0,0,.26.31c.13.13.24.26.35.39l.3.36a.53.53,0,0,1,.13.21l0,.33Z"/><text class="cls-5" transform="translate(328.79 328.19)">j</text><line class="cls-4" x1="328.79" y1="340.15" x2="328.79" y2="323.06"/><path d="M322.4,341a3,3,0,0,1,.62-1,4.36,4.36,0,0,1,1-.83,4.63,4.63,0,0,1,1.19-.56,4.33,4.33,0,0,1,1.29-.19,3,3,0,0,1,1.15.21,2.09,2.09,0,0,1,.77.58,1.68,1.68,0,0,1,.36.84,2,2,0,0,1-.13,1,3.26,3.26,0,0,1-.64,1,4.7,4.7,0,0,1-2.18,1.39,4.43,4.43,0,0,1-1.28.2,2.83,2.83,0,0,1-1.14-.22,2.1,2.1,0,0,1-.78-.58,1.75,1.75,0,0,1-.36-.85A2.16,2.16,0,0,1,322.4,341Z"/><line class="cls-4" x1="350.57" y1="340.15" x2="350.57" y2="323.06"/><path d="M344.18,341a3.18,3.18,0,0,1,.62-1,4.36,4.36,0,0,1,1-.83,4.63,4.63,0,0,1,1.19-.56,4.33,4.33,0,0,1,1.29-.19,2.91,2.91,0,0,1,1.15.21,2.21,2.21,0,0,1,.78.58,1.66,1.66,0,0,1,.35.84,2,2,0,0,1-.13,1,3.41,3.41,0,0,1-.63,1,5,5,0,0,1-1,.84,4.67,4.67,0,0,1-1.2.55,4.43,4.43,0,0,1-1.28.2,2.83,2.83,0,0,1-1.14-.22,2.1,2.1,0,0,1-.78-.58,1.73,1.73,0,0,1-.35-.85A2,2,0,0,1,344.18,341Z"/><text class="cls-5" transform="translate(364.3 351.25)">J</text><line class="cls-4" x1="364.49" y1="339.29" x2="364.49" y2="356.38"/><path d="M364.47,338.46a3.15,3.15,0,0,1,.62-1,5.18,5.18,0,0,1,1-.83,4.76,4.76,0,0,1,1.19-.55,4.46,4.46,0,0,1,1.3-.2,2.86,2.86,0,0,1,1.14.22,1.93,1.93,0,0,1,.78.57,1.77,1.77,0,0,1,.36.84,2.14,2.14,0,0,1-.13,1,3.21,3.21,0,0,1-.64,1,4.44,4.44,0,0,1-1,.85,5,5,0,0,1-1.2.55,4.41,4.41,0,0,1-1.28.19,2.83,2.83,0,0,1-1.14-.21,2.12,2.12,0,0,1-.78-.59,1.62,1.62,0,0,1-.36-.85A2.14,2.14,0,0,1,364.47,338.46Z"/><text class="cls-8" transform="translate(321.11 369.19)">b</text><text class="cls-8" transform="translate(325.61 369.19)">o</text><text class="cls-8" transform="translate(359.43 369.19)">c</text><text class="cls-8" transform="translate(363.93 369.19)">a</text><text class="cls-8" transform="translate(368.43 369.19)">/</text><text class="cls-8" transform="translate(371.43 369.19)">a</text><path d="M297,412.77a3,3,0,0,1,.62-1,4.63,4.63,0,0,1,1-.83,4.57,4.57,0,0,1,1.18-.56,4.45,4.45,0,0,1,1.3-.19,2.86,2.86,0,0,1,1.14.21,2,2,0,0,1,.78.58,1.77,1.77,0,0,1,.36.84,2.11,2.11,0,0,1-.13,1,3.26,3.26,0,0,1-.64,1,4.7,4.7,0,0,1-2.18,1.39,4.43,4.43,0,0,1-1.28.2,2.83,2.83,0,0,1-1.14-.22,2.1,2.1,0,0,1-.78-.58,1.66,1.66,0,0,1-.36-.85A2.16,2.16,0,0,1,297,412.77Z"/><line class="cls-4" x1="303.38" y1="411.9" x2="303.38" y2="396.09"/><line class="cls-4" x1="308.14" y1="415.31" x2="317.54" y2="415.31"/><path d="M309.59,415.33a3,3,0,0,1,.62-1,4.85,4.85,0,0,1,2.16-1.39,4.43,4.43,0,0,1,1.29-.19,2.91,2.91,0,0,1,1.15.21,2,2,0,0,1,.78.58,1.77,1.77,0,0,1,.36.84,2.1,2.1,0,0,1-.13,1,3.26,3.26,0,0,1-.64,1,4.94,4.94,0,0,1-1,.84,4.67,4.67,0,0,1-1.2.55,4.43,4.43,0,0,1-1.28.2,2.67,2.67,0,0,1-1.14-.22,2.1,2.1,0,0,1-.78-.58,1.66,1.66,0,0,1-.36-.85A2.18,2.18,0,0,1,309.59,415.33Z"/><line class="cls-4" x1="315.98" y1="414.46" x2="315.98" y2="396.09"/><path d="M322.4,412.77a3,3,0,0,1,.62-1,5,5,0,0,1,2.17-1.39,4.33,4.33,0,0,1,1.29-.19,3,3,0,0,1,1.15.21,2.09,2.09,0,0,1,.77.58,1.68,1.68,0,0,1,.36.84,2,2,0,0,1-.13,1,3.26,3.26,0,0,1-.64,1,4.7,4.7,0,0,1-2.18,1.39,4.43,4.43,0,0,1-1.28.2,2.83,2.83,0,0,1-1.14-.22,2.1,2.1,0,0,1-.78-.58,1.75,1.75,0,0,1-.36-.85A2.16,2.16,0,0,1,322.4,412.77Z"/><line class="cls-4" x1="328.79" y1="411.9" x2="328.79" y2="396.09"/><polyline points="303.19 394.81 328.98 394.81 328.98 397.38 303.19 397.38"/><text class="cls-5" transform="translate(352.56 413.18)">.</text><line class="cls-4" x1="350.57" y1="411.9" x2="350.57" y2="394.81"/><path d="M344.18,412.77a3.18,3.18,0,0,1,.62-1,5,5,0,0,1,2.17-1.39,4.33,4.33,0,0,1,1.29-.19,2.91,2.91,0,0,1,1.15.21,2.21,2.21,0,0,1,.78.58,1.66,1.66,0,0,1,.35.84,2,2,0,0,1-.13,1,3.41,3.41,0,0,1-.63,1,5,5,0,0,1-1,.84,4.67,4.67,0,0,1-1.2.55,4.43,4.43,0,0,1-1.28.2,2.83,2.83,0,0,1-1.14-.22,2.1,2.1,0,0,1-.78-.58,1.73,1.73,0,0,1-.35-.85A2,2,0,0,1,344.18,412.77Z"/><text class="cls-8" transform="translate(297.95 430.69)">a</text><path d="M302.09,465.89a5.51,5.51,0,0,0-.94-.32,3.53,3.53,0,0,0-.74-.09,1.68,1.68,0,0,0-1.12.39,1.33,1.33,0,0,0-.46,1.1,1.12,1.12,0,0,0,.15.51,4.22,4.22,0,0,0,.36.54,4.72,4.72,0,0,0,.54.57l-.25.21a8.9,8.9,0,0,1-1.23-.91,7.19,7.19,0,0,1-.89-.93,2.2,2.2,0,0,1-.5-1.09,1.65,1.65,0,0,1,0-.7,1.83,1.83,0,0,1,.3-.63,1.79,1.79,0,0,1,.56-.45,2,2,0,0,1,.77-.21h.39a3.27,3.27,0,0,1,.44,0l.41.06.32.05a26.43,26.43,0,0,1-2.23-2.38c-.5-.63-.71-1-.62-1.23l.44-.56a7.64,7.64,0,0,0,.58-.89,9.09,9.09,0,0,0,.51-1.09,3.08,3.08,0,0,0,.23-1.13,2.34,2.34,0,0,0-.23-.87c-.15-.35-.31-.68-.49-1s-.46-.76-.72-1.17l.29-.21,3.73,4.7a9.83,9.83,0,0,0-.88,1.25,6.7,6.7,0,0,0-.61,1.16,3,3,0,0,0-.27,1.18,2.6,2.6,0,0,0,.11.74,4.45,4.45,0,0,0,.65,1.28c.13.18.26.34.37.48a2.48,2.48,0,0,0,.26.31c.13.13.24.26.35.39l.3.36a.53.53,0,0,1,.13.21l0,.33Z"/><text class="cls-5" transform="translate(322.23 464)">J</text><line class="cls-4" x1="322.43" y1="452.04" x2="322.43" y2="469.13"/><path d="M322.4,451.21a3.15,3.15,0,0,1,.62-1,5,5,0,0,1,1-.83,4.61,4.61,0,0,1,1.19-.55,4.33,4.33,0,0,1,1.29-.19,3,3,0,0,1,1.15.21,2.07,2.07,0,0,1,.77.57,1.68,1.68,0,0,1,.36.84,2,2,0,0,1-.13,1,3.37,3.37,0,0,1-.64,1,4.68,4.68,0,0,1-1,.84,5,5,0,0,1-1.2.55,4.41,4.41,0,0,1-1.28.19,2.83,2.83,0,0,1-1.14-.21,2,2,0,0,1-.78-.59,1.71,1.71,0,0,1-.36-.85A2.14,2.14,0,0,1,322.4,451.21Z"/><line class="cls-4" x1="344.21" y1="452.04" x2="344.21" y2="469.13"/><path d="M344.18,451.21a3.33,3.33,0,0,1,.62-1,5,5,0,0,1,1-.83,4.61,4.61,0,0,1,1.19-.55,4.33,4.33,0,0,1,1.29-.19,2.91,2.91,0,0,1,1.15.21,2.19,2.19,0,0,1,.78.57,1.66,1.66,0,0,1,.35.84,2,2,0,0,1-.13,1,3.53,3.53,0,0,1-.63,1,4.8,4.8,0,0,1-2.19,1.39,4.41,4.41,0,0,1-1.28.19,2.83,2.83,0,0,1-1.14-.21,2,2,0,0,1-.78-.59,1.7,1.7,0,0,1-.35-.85A2,2,0,0,1,344.18,451.21Z"/><text class="cls-5" transform="translate(364.3 461.44)">J</text><line class="cls-4" x1="364.49" y1="449.48" x2="364.49" y2="466.56"/><path d="M364.47,448.65a3.15,3.15,0,0,1,.62-1,5.18,5.18,0,0,1,1-.83,4.76,4.76,0,0,1,1.19-.55,4.46,4.46,0,0,1,1.3-.2,2.7,2.7,0,0,1,1.14.22,1.93,1.93,0,0,1,.78.57,1.77,1.77,0,0,1,.36.84,2.15,2.15,0,0,1-.13,1,3.21,3.21,0,0,1-.64,1,4.82,4.82,0,0,1-2.18,1.4,4.41,4.41,0,0,1-1.28.19,2.83,2.83,0,0,1-1.14-.21,2.12,2.12,0,0,1-.78-.59,1.62,1.62,0,0,1-.36-.85A2.12,2.12,0,0,1,364.47,448.65Z"/><text class="cls-8" transform="translate(321.11 492.19)">b</text><text class="cls-8" transform="translate(325.61 492.19)">o</text><text class="cls-8" transform="translate(359.43 492.19)">c</text><text class="cls-8" transform="translate(363.93 492.19)">a</text><text class="cls-8" transform="translate(368.43 492.19)">/</text><text class="cls-8" transform="translate(371.43 492.19)">a</text><line class="cls-4" x1="390.55" y1="336.73" x2="390.55" y2="353.81"/><path d="M390.52,335.9a3.15,3.15,0,0,1,.62-1,5,5,0,0,1,1-.83,4.61,4.61,0,0,1,1.19-.55,4.34,4.34,0,0,1,1.29-.2,2.78,2.78,0,0,1,1.15.22,2,2,0,0,1,.77.57,1.59,1.59,0,0,1,.36.84,2,2,0,0,1-.13,1,3.21,3.21,0,0,1-.64,1,4.82,4.82,0,0,1-2.18,1.4,4.41,4.41,0,0,1-1.28.19,2.83,2.83,0,0,1-1.14-.21,2.12,2.12,0,0,1-.78-.59,1.71,1.71,0,0,1-.36-.85A2.14,2.14,0,0,1,390.52,335.9Z"/><text class="cls-5" transform="translate(417.2 335.88)">j</text><line class="cls-4" x1="417.2" y1="347.83" x2="417.2" y2="330.75"/><path d="M410.8,348.71a3.37,3.37,0,0,1,.63-1,4.88,4.88,0,0,1,1-.83,4.76,4.76,0,0,1,1.19-.55,4.45,4.45,0,0,1,1.29-.2,2.91,2.91,0,0,1,1.15.22,2,2,0,0,1,.78.57,1.77,1.77,0,0,1,.36.84,2.14,2.14,0,0,1-.13,1,3.21,3.21,0,0,1-.64,1,4.68,4.68,0,0,1-1,.85,5,5,0,0,1-1.2.55,4.41,4.41,0,0,1-1.28.19,2.83,2.83,0,0,1-1.14-.21,2,2,0,0,1-.78-.59,1.62,1.62,0,0,1-.36-.85A2.25,2.25,0,0,1,410.8,348.71Z"/><text class="cls-5" transform="translate(442.46 346.55)">.</text><line class="cls-4" x1="440.47" y1="347.83" x2="440.47" y2="330.75"/><path d="M434.08,348.71a3.37,3.37,0,0,1,.63-1,4.88,4.88,0,0,1,1-.83,4.61,4.61,0,0,1,1.19-.55,4.34,4.34,0,0,1,1.29-.2,2.91,2.91,0,0,1,1.15.22,2,2,0,0,1,.78.57,1.77,1.77,0,0,1,.36.84,2.15,2.15,0,0,1-.14,1,3.18,3.18,0,0,1-.63,1,4.74,4.74,0,0,1-1,.85,5,5,0,0,1-1.2.55,4.36,4.36,0,0,1-1.28.19,2.86,2.86,0,0,1-1.14-.21,1.91,1.91,0,0,1-.77-.59,1.62,1.62,0,0,1-.36-.85A2.12,2.12,0,0,1,434.08,348.71Z"/><text class="cls-8" transform="translate(388.85 369.19)">r</text><text class="cls-8" transform="translate(392.6 369.19)">r</text><text class="cls-8" transform="translate(396.35 369.19)">i</text><text class="cls-8" transform="translate(410.64 369.19)">b</text><text class="cls-8" transform="translate(415.14 369.19)">a</text><line class="cls-4" x1="396.91" y1="409.33" x2="396.91" y2="392.25"/><path d="M390.52,410.21a3.15,3.15,0,0,1,.62-1,5,5,0,0,1,1-.83,4.61,4.61,0,0,1,1.19-.55,4.34,4.34,0,0,1,1.29-.2,3,3,0,0,1,1.15.22,2.07,2.07,0,0,1,.77.57,1.59,1.59,0,0,1,.36.84,2,2,0,0,1-.13,1,3.37,3.37,0,0,1-.64,1,4.68,4.68,0,0,1-1,.84,5,5,0,0,1-1.2.55,4.41,4.41,0,0,1-1.28.19,2.83,2.83,0,0,1-1.14-.21,2,2,0,0,1-.78-.59,1.71,1.71,0,0,1-.36-.85A2.14,2.14,0,0,1,390.52,410.21Z"/><text class="cls-5" transform="translate(417.2 402.5)">j</text><line class="cls-4" x1="417.2" y1="414.46" x2="417.2" y2="397.38"/><line class="cls-4" x1="409.36" y1="415.31" x2="418.76" y2="415.31"/><path d="M410.8,415.33a3.21,3.21,0,0,1,.63-1,4.58,4.58,0,0,1,1-.83,4.79,4.79,0,0,1,1.19-.56,4.43,4.43,0,0,1,1.29-.19,2.91,2.91,0,0,1,1.15.21,2,2,0,0,1,.78.58,1.77,1.77,0,0,1,.36.84,2.1,2.1,0,0,1-.13,1,3.26,3.26,0,0,1-.64,1,4.94,4.94,0,0,1-1,.84,4.67,4.67,0,0,1-1.2.55,4.43,4.43,0,0,1-1.28.2,2.67,2.67,0,0,1-1.14-.22,2.1,2.1,0,0,1-.78-.58,1.66,1.66,0,0,1-.36-.85A2.29,2.29,0,0,1,410.8,415.33Z"/><text class="cls-5" transform="translate(442.46 413.18)">.</text><line class="cls-4" x1="440.47" y1="414.46" x2="440.47" y2="397.38"/><line class="cls-4" x1="432.64" y1="415.31" x2="442.03" y2="415.31"/><path d="M434.08,415.33a3.21,3.21,0,0,1,.63-1,4.58,4.58,0,0,1,1-.83,4.63,4.63,0,0,1,1.19-.56,4.33,4.33,0,0,1,1.29-.19,2.91,2.91,0,0,1,1.15.21,2,2,0,0,1,.78.58,1.77,1.77,0,0,1,.36.84,2.11,2.11,0,0,1-.14,1,3.22,3.22,0,0,1-.63,1,5,5,0,0,1-1,.84,4.67,4.67,0,0,1-1.2.55,4.38,4.38,0,0,1-1.28.2,2.7,2.7,0,0,1-1.14-.22,2,2,0,0,1-.77-.58,1.66,1.66,0,0,1-.36-.85A2.16,2.16,0,0,1,434.08,415.33Z"/><text class="cls-8" transform="translate(388.85 430.69)">r</text><text class="cls-8" transform="translate(392.6 430.69)">r</text><text class="cls-8" transform="translate(396.35 430.69)">i</text><text class="cls-8" transform="translate(410.64 430.69)">b</text><text class="cls-8" transform="translate(415.14 430.69)">a</text><line class="cls-4" x1="390.55" y1="446.92" x2="390.55" y2="464"/><line class="cls-4" x1="389.07" y1="446.06" x2="398.47" y2="446.06"/><path d="M390.52,446.08a3,3,0,0,1,.62-1,5,5,0,0,1,2.17-1.39,4.33,4.33,0,0,1,1.29-.19,3,3,0,0,1,1.15.21,2.09,2.09,0,0,1,.77.58,1.59,1.59,0,0,1,.36.84,2,2,0,0,1-.13,1,3.26,3.26,0,0,1-.64,1,4.7,4.7,0,0,1-2.18,1.39,4.43,4.43,0,0,1-1.28.2,2.67,2.67,0,0,1-1.14-.22,2.1,2.1,0,0,1-.78-.58,1.75,1.75,0,0,1-.36-.85A2.18,2.18,0,0,1,390.52,446.08Z"/><text class="cls-5" transform="translate(410.64 471.69)">J</text><line class="cls-4" x1="410.83" y1="459.73" x2="410.83" y2="476.81"/><path d="M410.8,458.9a3.37,3.37,0,0,1,.63-1,4.88,4.88,0,0,1,1-.83,4.76,4.76,0,0,1,1.19-.55,4.45,4.45,0,0,1,1.29-.2,2.74,2.74,0,0,1,1.15.22,1.93,1.93,0,0,1,.78.57,1.77,1.77,0,0,1,.36.84,2.15,2.15,0,0,1-.13,1,3.21,3.21,0,0,1-.64,1,4.94,4.94,0,0,1-1,.84,4.7,4.7,0,0,1-1.2.56,4.41,4.41,0,0,1-1.28.19,2.83,2.83,0,0,1-1.14-.21,2.12,2.12,0,0,1-.78-.59,1.62,1.62,0,0,1-.36-.85A2.25,2.25,0,0,1,410.8,458.9Z"/><text class="cls-5" transform="translate(442.46 459.3)">.</text><line class="cls-4" x1="434.11" y1="459.73" x2="434.11" y2="476.81"/><path d="M434.08,458.9a3.37,3.37,0,0,1,.63-1,4.88,4.88,0,0,1,1-.83,4.61,4.61,0,0,1,1.19-.55,4.34,4.34,0,0,1,1.29-.2,2.74,2.74,0,0,1,1.15.22,1.93,1.93,0,0,1,.78.57,1.77,1.77,0,0,1,.36.84,2.16,2.16,0,0,1-.14,1,3.18,3.18,0,0,1-.63,1,5,5,0,0,1-1,.84,4.7,4.7,0,0,1-1.2.56,4.36,4.36,0,0,1-1.28.19,2.86,2.86,0,0,1-1.14-.21,2,2,0,0,1-.77-.59,1.62,1.62,0,0,1-.36-.85A2.12,2.12,0,0,1,434.08,458.9Z"/><text class="cls-8" transform="translate(388.85 492.19)">r</text><text class="cls-8" transform="translate(392.6 492.19)">r</text><text class="cls-8" transform="translate(396.35 492.19)">i</text><text class="cls-8" transform="translate(410.64 492.19)">b</text><text class="cls-8" transform="translate(415.14 492.19)">a</text><rect x="514.87" y="333.29" width="6.52" height="2.95"/><line class="cls-4" x1="514.21" y1="333.31" x2="522.32" y2="333.31"/><path d="M469.56,395.57a1.28,1.28,0,0,1,.92.06,1.39,1.39,0,0,1,.57.58,2.12,2.12,0,0,1,.23.81,1.73,1.73,0,0,1-.06.74,2.46,2.46,0,0,0,.59-.12,1.36,1.36,0,0,0,.56-.37,4.61,4.61,0,0,0,.44-.49q.17-.22.42-.51l.29.16L471.24,405h-.82c.14-.45.28-.89.43-1.33s.25-.73.37-1.12a9.24,9.24,0,0,1,.33-.93c.22-.6.4-1.14.54-1.61s.26-.87.34-1.2.17-.72.22-1l-.5.35c-.21.15-.44.29-.68.43a7.43,7.43,0,0,1-.76.35,2.46,2.46,0,0,1-.76.18,1.63,1.63,0,0,1-1.28-.43,1.9,1.9,0,0,1-.57-1.1,2,2,0,0,1,.27-1.23A1.79,1.79,0,0,1,469.56,395.57Z"/><line class="cls-4" x1="481.75" y1="415.31" x2="491.15" y2="415.31"/><path d="M483.19,415.33a3.21,3.21,0,0,1,.63-1,4.58,4.58,0,0,1,1-.83,4.79,4.79,0,0,1,1.19-.56,4.43,4.43,0,0,1,1.29-.19,2.91,2.91,0,0,1,1.15.21,2,2,0,0,1,.78.58,1.77,1.77,0,0,1,.36.84,2.1,2.1,0,0,1-.13,1,3.26,3.26,0,0,1-.64,1,4.94,4.94,0,0,1-1,.84,4.67,4.67,0,0,1-1.2.55,4.43,4.43,0,0,1-1.28.2,2.67,2.67,0,0,1-1.14-.22,2.1,2.1,0,0,1-.78-.58,1.66,1.66,0,0,1-.36-.85A2.29,2.29,0,0,1,483.19,415.33Z"/><line class="cls-4" x1="489.59" y1="414.46" x2="489.59" y2="401.22"/><path d="M500.06,412.77a3.21,3.21,0,0,1,.63-1,4.58,4.58,0,0,1,1-.83,4.79,4.79,0,0,1,1.19-.56,4.43,4.43,0,0,1,1.29-.19,2.91,2.91,0,0,1,1.15.21,2,2,0,0,1,.78.58,1.77,1.77,0,0,1,.36.84,2.11,2.11,0,0,1-.13,1,3.26,3.26,0,0,1-.64,1,4.94,4.94,0,0,1-1,.84,4.67,4.67,0,0,1-1.2.55,4.43,4.43,0,0,1-1.28.2,2.83,2.83,0,0,1-1.14-.22,2.1,2.1,0,0,1-.78-.58,1.66,1.66,0,0,1-.36-.85A2.28,2.28,0,0,1,500.06,412.77Z"/><line class="cls-4" x1="506.46" y1="411.9" x2="506.46" y2="399.94"/><polyline points="489.4 399.94 506.65 398.66 506.65 401.22 489.4 402.5"/><path d="M518.86,410.21a3.15,3.15,0,0,1,.62-1,5,5,0,0,1,1-.83,4.54,4.54,0,0,1,1.18-.55,4.46,4.46,0,0,1,1.3-.2,2.86,2.86,0,0,1,1.14.22,2,2,0,0,1,.78.57,1.77,1.77,0,0,1,.36.84,2.14,2.14,0,0,1-.13,1,3.37,3.37,0,0,1-.64,1,4.68,4.68,0,0,1-1,.84,5,5,0,0,1-1.2.55,4.41,4.41,0,0,1-1.28.19,2.83,2.83,0,0,1-1.14-.21,2,2,0,0,1-.78-.59,1.62,1.62,0,0,1-.36-.85A2.14,2.14,0,0,1,518.86,410.21Z"/><line class="cls-4" x1="525.25" y1="409.33" x2="525.25" y2="396.09"/><path d="M538.72,412.77a3,3,0,0,1,.62-1,4.85,4.85,0,0,1,2.16-1.39,4.45,4.45,0,0,1,1.3-.19,2.86,2.86,0,0,1,1.14.21,2,2,0,0,1,.78.58,1.77,1.77,0,0,1,.36.84,2.11,2.11,0,0,1-.13,1,3.26,3.26,0,0,1-.64,1,4.7,4.7,0,0,1-2.18,1.39,4.43,4.43,0,0,1-1.28.2,2.83,2.83,0,0,1-1.14-.22,2.1,2.1,0,0,1-.78-.58,1.66,1.66,0,0,1-.36-.85A2.16,2.16,0,0,1,538.72,412.77Z"/><text class="cls-5" transform="translate(532.36 412.75)">#</text><line class="cls-4" x1="545.11" y1="411.9" x2="545.11" y2="395.45"/><path d="M558.57,407.65a3.37,3.37,0,0,1,.63-1,4.88,4.88,0,0,1,1-.83,4.76,4.76,0,0,1,1.19-.55,4.45,4.45,0,0,1,1.29-.2,2.74,2.74,0,0,1,1.15.22,1.93,1.93,0,0,1,.78.57,1.77,1.77,0,0,1,.36.84,2.15,2.15,0,0,1-.13,1,3.21,3.21,0,0,1-.64,1,4.94,4.94,0,0,1-1,.84,4.7,4.7,0,0,1-1.2.56,4.41,4.41,0,0,1-1.28.19,2.83,2.83,0,0,1-1.14-.21,2.12,2.12,0,0,1-.78-.59,1.62,1.62,0,0,1-.36-.85A2.23,2.23,0,0,1,558.57,407.65Z"/><line class="cls-4" x1="564.97" y1="406.77" x2="564.97" y2="394.81"/><polyline points="525.06 394.81 565.16 393.53 565.16 396.09 525.06 397.38"/><text class="cls-8" transform="translate(484.16 430.69)">y</text><text class="cls-8" transform="translate(496.15 430.69)">c</text><text class="cls-8" transform="translate(500.65 430.69)">o</text><text class="cls-8" transform="translate(505.15 430.69)">n</text><text class="cls-8" transform="translate(515.69 430.69)">s</text><text class="cls-8" transform="translate(519.44 430.69)">u</text><text class="cls-8" transform="translate(524.69 430.69)">s</text><text class="cls-8" transform="translate(533.3 430.69)">c</text><text class="cls-8" transform="translate(537.8 430.69)">u</text><text class="cls-8" transform="translate(543.05 430.69)">e</text><text class="cls-8" transform="translate(546.8 430.69)">r</text><text class="cls-8" transform="translate(555.04 430.69)">n</text><text class="cls-8" transform="translate(560.29 430.69)">o</text><text class="cls-8" transform="translate(564.79 430.69)">s</text><rect x="514.87" y="456.29" width="6.52" height="2.95"/><line class="cls-4" x1="514.21" y1="456.31" x2="522.32" y2="456.31"/><path d="M244.72,357.87c4.06,3.84,15.8,3.84,19.86,0l-.15-.15c-3.91,2.71-15.65,2.71-19.56,0l-.15.15"/><path d="M244.72,419.37c4.06,3.84,15.8,3.84,19.86,0l-.15-.15c-3.91,2.71-15.65,2.71-19.56,0l-.15.15"/><path d="M244.72,467.84c4.06,3.42,15.8,3.42,19.86,0l-.14-.16c-3.92,2.3-15.66,2.3-19.58,0l-.14.16"/><path d="M327.15,344.84c3.63,3.42,14.73,3.42,18.36,0l-.15-.15c-3.48,2.29-14.58,2.29-18.07,0l-.14.15"/><path d="M327.15,416.59c3.63,3.85,14.73,3.85,18.36,0l-.16-.14c-3.47,2.71-14.57,2.71-18.05,0l-.15.14"/><path d="M327.15,447.13c3.63-3.84,14.73-3.84,18.36,0l-.16.15c-3.47-2.71-14.57-2.71-18.05,0l-.15-.15"/><path d="M415.77,352.53c4.05,3.85,15.8,3.85,19.85,0l-.14-.15c-3.91,2.71-15.66,2.71-19.57,0l-.14.15"/><path d="M415.77,419.37c4.05,3.84,15.8,3.84,19.85,0l-.14-.15c-3.91,2.71-15.66,2.71-19.57,0l-.14.15"/><path d="M415.77,455c4.05-3.42,15.8-3.42,19.85,0l-.13.17c-3.92-2.3-15.67-2.3-19.59,0l-.13-.17"/><text class="cls-8" transform="translate(174.35 369.19)">-</text><text class="cls-8" transform="translate(174.35 430.69)">-</text><text class="cls-8" transform="translate(174.35 492.19)">-</text><line class="cls-4" x1="248.78" y1="368.97" x2="273.97" y2="368.97"/><line class="cls-4" x1="248.78" y1="430.47" x2="273.97" y2="430.47"/><line class="cls-4" x1="248.78" y1="491.97" x2="273.97" y2="491.97"/><text class="cls-8" transform="translate(343.26 369.19)">-</text><text class="cls-8" transform="translate(343.26 492.19)">-</text><text class="cls-8" transform="translate(403.16 369.19)">-</text><line class="cls-4" x1="421.53" y1="368.97" x2="445.02" y2="368.97"/><text class="cls-8" transform="translate(344.12 430.69)">-</text><text class="cls-8" transform="translate(403.16 430.69)">-</text><line class="cls-4" x1="421.53" y1="430.47" x2="445.02" y2="430.47"/><text class="cls-8" transform="translate(403.16 492.19)">-</text><line class="cls-4" x1="421.53" y1="491.97" x2="445.02" y2="491.97"/><text class="cls-8" transform="translate(551.25 430.69)">-</text><line class="cls-4" x1="72.16" y1="529.98" x2="72.16" y2="673.49"/><text class="cls-5" transform="translate(77.52 545.36)">&amp;</text><text class="cls-5" transform="translate(77.52 606.86)">&amp;</text><text class="cls-5" transform="translate(77.52 658.11)">?</text><text class="cls-5" transform="translate(97.59 529.98)">#</text><text class="cls-5" transform="translate(102.93 537.67)">#</text><text class="cls-5" transform="translate(108.27 527.42)">#</text><text class="cls-5" transform="translate(97.59 591.48)">#</text><text class="cls-5" transform="translate(102.93 599.17)">#</text><text class="cls-5" transform="translate(108.27 588.92)">#</text><text class="cls-5" transform="translate(97.59 658.11)">#</text><text class="cls-5" transform="translate(102.93 665.8)">#</text><text class="cls-5" transform="translate(108.27 655.55)">#</text><line class="cls-4" x1="163.76" y1="529.98" x2="163.76" y2="550.49"/><line class="cls-4" x1="163.76" y1="591.48" x2="163.76" y2="611.99"/><line class="cls-4" x1="163.76" y1="652.98" x2="163.76" y2="673.49"/><line class="cls-4" x1="245.76" y1="529.98" x2="245.76" y2="550.49"/><line class="cls-4" x1="245.76" y1="591.48" x2="245.76" y2="611.99"/><line class="cls-4" x1="245.76" y1="652.98" x2="245.76" y2="673.49"/><line class="cls-4" x1="319.86" y1="529.98" x2="319.86" y2="550.49"/><line class="cls-4" x1="319.86" y1="591.48" x2="319.86" y2="611.99"/><line class="cls-4" x1="319.86" y1="652.98" x2="319.86" y2="673.49"/><line class="cls-4" x1="411.9" y1="529.98" x2="411.9" y2="550.49"/><line class="cls-4" x1="411.9" y1="591.48" x2="411.9" y2="611.99"/><line class="cls-4" x1="411.9" y1="652.98" x2="411.9" y2="673.49"/><line class="cls-4" x1="491.76" y1="529.98" x2="491.76" y2="550.49"/><line class="cls-4" x1="491.76" y1="591.48" x2="491.76" y2="611.99"/><line class="cls-4" x1="491.76" y1="652.98" x2="491.76" y2="673.49"/><line class="cls-4" x1="575.73" y1="529.98" x2="575.73" y2="550.49"/><line class="cls-4" x1="575.73" y1="591.48" x2="575.73" y2="611.99"/><line class="cls-4" x1="575.73" y1="652.98" x2="575.73" y2="673.49"/><line class="cls-4" x1="71.96" y1="529.98" x2="575.92" y2="529.98"/><line class="cls-4" x1="71.96" y1="535.11" x2="575.92" y2="535.11"/><line class="cls-4" x1="71.96" y1="540.23" x2="575.92" y2="540.23"/><line class="cls-4" x1="71.96" y1="545.36" x2="575.92" y2="545.36"/><line class="cls-4" x1="71.96" y1="550.49" x2="575.92" y2="550.49"/><text class="cls-6" transform="translate(49.75 544.08)">S</text><line class="cls-4" x1="71.96" y1="591.48" x2="575.92" y2="591.48"/><line class="cls-4" x1="71.96" y1="596.61" x2="575.92" y2="596.61"/><line class="cls-4" x1="71.96" y1="601.73" x2="575.92" y2="601.73"/><line class="cls-4" x1="71.96" y1="606.86" x2="575.92" y2="606.86"/><line class="cls-4" x1="71.96" y1="611.99" x2="575.92" y2="611.99"/><text class="cls-6" transform="translate(47.62 605.58)">A</text><line class="cls-4" x1="71.96" y1="652.98" x2="575.92" y2="652.98"/><line class="cls-4" x1="71.96" y1="658.11" x2="575.92" y2="658.11"/><line class="cls-4" x1="71.96" y1="663.23" x2="575.92" y2="663.23"/><line class="cls-4" x1="71.96" y1="668.36" x2="575.92" y2="668.36"/><line class="cls-4" x1="71.96" y1="673.49" x2="575.92" y2="673.49"/><text class="cls-6" transform="translate(48.26 667.08)">B</text><path d="M68.76,527.42c6.41,0,7.69-.85,9.4-2.56-1.07,3-3.63,3.84-7.48,3.84V674.77c3.85,0,6.41.85,7.48,3.84-1.71-1.71-3-2.56-9.4-2.56"/><text class="cls-7" transform="translate(73.24 520.59)">1</text><text class="cls-7" transform="translate(77.75 520.59)">0</text><rect x="136.47" y="535.09" width="6.52" height="2.95"/><line class="cls-4" x1="135.81" y1="535.11" x2="143.93" y2="535.11"/><text class="cls-5" transform="translate(131.54 609.85)">.</text><line class="cls-4" x1="129.56" y1="611.13" x2="129.56" y2="594.05"/><path d="M129.56,610.16a1.39,1.39,0,0,1,.15.5,2.62,2.62,0,0,1,0,.56,4,4,0,0,1-.09.52,3.11,3.11,0,0,1-.12.39,4.27,4.27,0,0,1-1.91,2.19,4.39,4.39,0,0,1-2.4.39l-.48-.06a3.7,3.7,0,0,1-.55-.14,2.65,2.65,0,0,1-.53-.27,1.12,1.12,0,0,1-.4-.41,1.32,1.32,0,0,1-.2-.54,2.44,2.44,0,0,1,0-.54,3.26,3.26,0,0,1,.09-.47,2.8,2.8,0,0,1,.13-.38,3.29,3.29,0,0,1,.82-1.29,5.92,5.92,0,0,1,1-.8,4.43,4.43,0,0,1,2.71-.49l.41,0a2.42,2.42,0,0,1,.5.12,3.23,3.23,0,0,1,.49.25A1.11,1.11,0,0,1,129.56,610.16Zm-.47.35a.84.84,0,0,0-.4-.33,1.43,1.43,0,0,0-.51-.06,1.94,1.94,0,0,0-.57.12,5.27,5.27,0,0,0-.53.23q-.35.16-.63.33c-.18.11-.38.21-.58.32-.4.22-.8.47-1.21.74l-.46.33a1.94,1.94,0,0,0-.4.41,1.3,1.3,0,0,0-.22.48.69.69,0,0,0,.1.5.63.63,0,0,0,.39.33,1.12,1.12,0,0,0,.52.05,2.38,2.38,0,0,0,.56-.13,4.38,4.38,0,0,0,.54-.23l.64-.32.61-.33.58-.33c.18-.11.39-.24.6-.39a5.07,5.07,0,0,0,.45-.33,2.21,2.21,0,0,0,.4-.41,1.28,1.28,0,0,0,.21-.48A.74.74,0,0,0,129.09,610.51Z"/><text class="cls-8" transform="translate(121.88 632.49)">m</text><text class="cls-8" transform="translate(128.63 632.49)">i</text><rect x="136.47" y="658.09" width="6.52" height="2.95"/><line class="cls-4" x1="135.81" y1="658.11" x2="143.93" y2="658.11"/><path d="M172.31,535.87a1.18,1.18,0,0,1,.92.06,1.4,1.4,0,0,1,.56.57,2.24,2.24,0,0,1,.24.81,1.76,1.76,0,0,1-.06.75,4.08,4.08,0,0,0,.59-.12,1.47,1.47,0,0,0,.56-.37c.17-.18.32-.34.44-.49s.25-.32.42-.51l.29.16L174,545.32h-.82c.14-.45.28-.9.43-1.33s.25-.73.37-1.12a9.24,9.24,0,0,1,.33-.93c.22-.61.4-1.14.54-1.61s.26-.87.34-1.2.17-.72.22-1c-.12.1-.29.22-.5.36a6.5,6.5,0,0,1-.68.42,5.84,5.84,0,0,1-.76.36,2.79,2.79,0,0,1-.76.18,1.64,1.64,0,0,1-1.28-.44,1.84,1.84,0,0,1-.57-1.09,2,2,0,0,1,.27-1.23A1.79,1.79,0,0,1,172.31,535.87Z"/><line class="cls-4" x1="189.35" y1="541.94" x2="189.35" y2="524.86"/><path d="M183,542.82a3.15,3.15,0,0,1,.62-1,5.18,5.18,0,0,1,1-.83,4.76,4.76,0,0,1,1.19-.55,4.45,4.45,0,0,1,1.29-.2,2.91,2.91,0,0,1,1.15.22,1.93,1.93,0,0,1,.78.57,1.77,1.77,0,0,1,.36.84,2.14,2.14,0,0,1-.13,1,3.21,3.21,0,0,1-.64,1,4.68,4.68,0,0,1-1,.85,5,5,0,0,1-1.2.55,4.41,4.41,0,0,1-1.28.19,2.83,2.83,0,0,1-1.14-.21,2.12,2.12,0,0,1-.78-.59,1.62,1.62,0,0,1-.36-.85A2.14,2.14,0,0,1,183,542.82Z"/><line class="cls-4" x1="213.27" y1="541.94" x2="213.27" y2="524.86"/><path d="M206.87,542.82a3.37,3.37,0,0,1,.63-1,4.88,4.88,0,0,1,1-.83,4.76,4.76,0,0,1,1.19-.55,4.34,4.34,0,0,1,1.29-.2,2.91,2.91,0,0,1,1.15.22,1.93,1.93,0,0,1,.78.57,1.77,1.77,0,0,1,.36.84,2,2,0,0,1-.14,1,3,3,0,0,1-.63,1,4.74,4.74,0,0,1-1,.85,4.79,4.79,0,0,1-1.19.55,4.48,4.48,0,0,1-1.29.19,2.81,2.81,0,0,1-1.13-.21,2.12,2.12,0,0,1-.78-.59,1.62,1.62,0,0,1-.36-.85A2.25,2.25,0,0,1,206.87,542.82Z"/><text class="cls-5" transform="translate(227.42 553.05)">J</text><line class="cls-4" x1="227.61" y1="541.09" x2="227.61" y2="558.17"/><path d="M227.59,540.26a3.05,3.05,0,0,1,.62-1,5.18,5.18,0,0,1,1-.83,4.76,4.76,0,0,1,1.19-.55,4.46,4.46,0,0,1,1.3-.2,2.7,2.7,0,0,1,1.14.22,1.93,1.93,0,0,1,.78.57,1.77,1.77,0,0,1,.36.84,2.15,2.15,0,0,1-.13,1,3.21,3.21,0,0,1-.64,1,4.82,4.82,0,0,1-2.18,1.4,4.41,4.41,0,0,1-1.28.19,2.83,2.83,0,0,1-1.14-.21,2.12,2.12,0,0,1-.78-.59,1.62,1.62,0,0,1-.36-.85A2.12,2.12,0,0,1,227.59,540.26Z"/><text class="cls-8" transform="translate(182.42 570.98)">t</text><text class="cls-8" transform="translate(185.42 570.98)">o</text><text class="cls-8" transform="translate(205.21 570.98)">n</text><text class="cls-8" transform="translate(210.46 570.98)">a</text><text class="cls-8" transform="translate(221.05 570.98)">d</text><text class="cls-8" transform="translate(225.55 570.98)">a</text><text class="cls-8" transform="translate(230.05 570.98)">/</text><text class="cls-8" transform="translate(233.05 570.98)">e</text><text class="cls-8" transform="translate(236.8 570.98)">s</text><path d="M172.31,597.37a1.18,1.18,0,0,1,.92.06,1.4,1.4,0,0,1,.56.57,2.24,2.24,0,0,1,.24.81,1.76,1.76,0,0,1-.06.75,4.08,4.08,0,0,0,.59-.12,1.47,1.47,0,0,0,.56-.37c.17-.18.32-.34.44-.49s.25-.32.42-.51l.29.16L174,606.82h-.82c.14-.45.28-.9.43-1.33s.25-.73.37-1.12a9.24,9.24,0,0,1,.33-.93c.22-.61.4-1.14.54-1.61s.26-.87.34-1.2.17-.72.22-1c-.12.1-.29.22-.5.36a6.5,6.5,0,0,1-.68.42,5.84,5.84,0,0,1-.76.36,2.79,2.79,0,0,1-.76.18,1.64,1.64,0,0,1-1.28-.44,1.84,1.84,0,0,1-.57-1.09,2,2,0,0,1,.27-1.23A1.79,1.79,0,0,1,172.31,597.37Z"/><path d="M183,604.32a3.15,3.15,0,0,1,.62-1,5.18,5.18,0,0,1,1-.83,4.76,4.76,0,0,1,1.19-.55,4.45,4.45,0,0,1,1.29-.2,2.91,2.91,0,0,1,1.15.22,1.93,1.93,0,0,1,.78.57,1.77,1.77,0,0,1,.36.84,2.14,2.14,0,0,1-.13,1,3.21,3.21,0,0,1-.64,1,4.68,4.68,0,0,1-1,.85,5,5,0,0,1-1.2.55,4.41,4.41,0,0,1-1.28.19,2.83,2.83,0,0,1-1.14-.21,2.12,2.12,0,0,1-.78-.59,1.62,1.62,0,0,1-.36-.85A2.14,2.14,0,0,1,183,604.32Z"/><line class="cls-4" x1="189.35" y1="603.44" x2="189.35" y2="587.64"/><path d="M194.91,606.88a3.21,3.21,0,0,1,.63-1,4.62,4.62,0,0,1,1-.84,5.15,5.15,0,0,1,1.19-.55,4.38,4.38,0,0,1,1.29-.19,2.91,2.91,0,0,1,1.15.21,2,2,0,0,1,.78.58,1.77,1.77,0,0,1,.36.84,2.11,2.11,0,0,1-.13,1,3.26,3.26,0,0,1-.64,1,5.24,5.24,0,0,1-1,.84,4.67,4.67,0,0,1-1.2.55,4.43,4.43,0,0,1-1.28.2,2.83,2.83,0,0,1-1.14-.22,2.1,2.1,0,0,1-.78-.58,1.66,1.66,0,0,1-.36-.85A2.28,2.28,0,0,1,194.91,606.88Z"/><line class="cls-4" x1="201.31" y1="606.01" x2="201.31" y2="590.2"/><polyline points="189.16 586.36 201.5 588.92 201.5 591.48 189.16 588.92"/><line class="cls-4" x1="213.27" y1="608.57" x2="213.27" y2="591.48"/><path d="M206.87,609.44a3.21,3.21,0,0,1,.63-1,4.58,4.58,0,0,1,1-.83,4.79,4.79,0,0,1,1.19-.56,4.33,4.33,0,0,1,1.29-.19,2.91,2.91,0,0,1,1.15.21,2,2,0,0,1,.78.58,1.77,1.77,0,0,1,.36.84,2,2,0,0,1-.14,1,3.06,3.06,0,0,1-.63,1,5,5,0,0,1-1,.84,4.7,4.7,0,0,1-2.48.75,2.65,2.65,0,0,1-1.13-.22,2.1,2.1,0,0,1-.78-.58,1.66,1.66,0,0,1-.36-.85A2.29,2.29,0,0,1,206.87,609.44Z"/><text class="cls-5" transform="translate(233.98 599.17)">j</text><line class="cls-4" x1="233.98" y1="611.13" x2="233.98" y2="594.05"/><path d="M227.59,612a3.15,3.15,0,0,1,.62-1,5.18,5.18,0,0,1,1-.83,4.76,4.76,0,0,1,1.19-.55,4.46,4.46,0,0,1,1.3-.2,2.7,2.7,0,0,1,1.14.22,1.93,1.93,0,0,1,.78.57,1.77,1.77,0,0,1,.36.84,2.15,2.15,0,0,1-.13,1,3.21,3.21,0,0,1-.64,1,4.82,4.82,0,0,1-2.18,1.4,4.41,4.41,0,0,1-1.28.19,2.83,2.83,0,0,1-1.14-.21,2.12,2.12,0,0,1-.78-.59,1.62,1.62,0,0,1-.36-.85A2.12,2.12,0,0,1,227.59,612Z"/><text class="cls-8" transform="translate(182.42 632.49)">t</text><text class="cls-8" transform="translate(185.42 632.49)">o</text><text class="cls-8" transform="translate(205.21 632.49)">n</text><text class="cls-8" transform="translate(210.46 632.49)">a</text><text class="cls-8" transform="translate(221.05 632.49)">d</text><text class="cls-8" transform="translate(225.55 632.49)">a</text><text class="cls-8" transform="translate(230.05 632.49)">/</text><text class="cls-8" transform="translate(233.05 632.49)">e</text><text class="cls-8" transform="translate(236.8 632.49)">s</text><path d="M172.31,658.87a1.18,1.18,0,0,1,.92.06,1.4,1.4,0,0,1,.56.57,2.24,2.24,0,0,1,.24.81,1.76,1.76,0,0,1-.06.75,4.08,4.08,0,0,0,.59-.12,1.47,1.47,0,0,0,.56-.37c.17-.18.32-.34.44-.49s.25-.32.42-.51l.29.16L174,668.32h-.82c.14-.45.28-.9.43-1.33s.25-.73.37-1.12a9.24,9.24,0,0,1,.33-.93c.22-.61.4-1.14.54-1.61s.26-.87.34-1.2.17-.72.22-1c-.12.1-.29.22-.5.36a6.5,6.5,0,0,1-.68.42,5.84,5.84,0,0,1-.76.36,2.79,2.79,0,0,1-.76.18,1.64,1.64,0,0,1-1.28-.44,1.84,1.84,0,0,1-.57-1.09,2,2,0,0,1,.27-1.23A1.79,1.79,0,0,1,172.31,658.87Z"/><line class="cls-4" x1="182.98" y1="653.84" x2="182.98" y2="670.92"/><path d="M183,653a3.05,3.05,0,0,1,.62-1,5.18,5.18,0,0,1,1-.83,4.76,4.76,0,0,1,1.19-.55,4.45,4.45,0,0,1,1.29-.2,2.74,2.74,0,0,1,1.15.22,1.93,1.93,0,0,1,.78.57,1.77,1.77,0,0,1,.36.84,2.15,2.15,0,0,1-.13,1,3.21,3.21,0,0,1-.64,1,4.94,4.94,0,0,1-1,.84,4.7,4.7,0,0,1-1.2.56,4.41,4.41,0,0,1-1.28.19,2.83,2.83,0,0,1-1.14-.21,2.12,2.12,0,0,1-.78-.59,1.66,1.66,0,0,1-.36-.85A2.12,2.12,0,0,1,183,653Z"/><line class="cls-4" x1="206.9" y1="653.84" x2="206.9" y2="670.92"/><path d="M206.87,653a3.25,3.25,0,0,1,.63-1,4.88,4.88,0,0,1,1-.83,4.76,4.76,0,0,1,1.19-.55,4.34,4.34,0,0,1,1.29-.2,2.74,2.74,0,0,1,1.15.22,1.93,1.93,0,0,1,.78.57,1.77,1.77,0,0,1,.36.84,2,2,0,0,1-.14,1,3,3,0,0,1-.63,1,5,5,0,0,1-1,.84,4.48,4.48,0,0,1-2.48.75,2.81,2.81,0,0,1-1.13-.21,2.12,2.12,0,0,1-.78-.59,1.66,1.66,0,0,1-.36-.85A2.23,2.23,0,0,1,206.87,653Z"/><text class="cls-5" transform="translate(227.42 663.24)">J</text><line class="cls-4" x1="227.61" y1="651.28" x2="227.61" y2="668.36"/><path d="M227.59,650.44a3,3,0,0,1,.62-1,4.85,4.85,0,0,1,2.16-1.39,4.45,4.45,0,0,1,1.3-.19,2.86,2.86,0,0,1,1.14.21,2,2,0,0,1,.78.58,1.77,1.77,0,0,1,.36.84,2.1,2.1,0,0,1-.13,1,3.26,3.26,0,0,1-.64,1,4.7,4.7,0,0,1-2.18,1.39,4.43,4.43,0,0,1-1.28.2,2.67,2.67,0,0,1-1.14-.22,2.1,2.1,0,0,1-.78-.58,1.66,1.66,0,0,1-.36-.85A2.18,2.18,0,0,1,227.59,650.44Z"/><text class="cls-8" transform="translate(182.42 693.99)">t</text><text class="cls-8" transform="translate(185.42 693.99)">o</text><text class="cls-8" transform="translate(205.21 693.99)">n</text><text class="cls-8" transform="translate(210.46 693.99)">a</text><text class="cls-8" transform="translate(221.05 693.99)">d</text><text class="cls-8" transform="translate(225.55 693.99)">a</text><text class="cls-8" transform="translate(230.05 693.99)">/</text><text class="cls-8" transform="translate(233.05 693.99)">e</text><text class="cls-8" transform="translate(236.8 693.99)">s</text><line class="cls-4" x1="259.6" y1="541.94" x2="259.6" y2="524.86"/><path d="M253.21,542.82a3.37,3.37,0,0,1,.63-1,4.88,4.88,0,0,1,1-.83,4.61,4.61,0,0,1,1.19-.55,4.34,4.34,0,0,1,1.29-.2,2.91,2.91,0,0,1,1.15.22,1.93,1.93,0,0,1,.78.57,1.77,1.77,0,0,1,.36.84,2.15,2.15,0,0,1-.14,1,3.18,3.18,0,0,1-.63,1,4.74,4.74,0,0,1-1,.85,5,5,0,0,1-1.2.55,4.36,4.36,0,0,1-1.28.19,2.86,2.86,0,0,1-1.14-.21,2,2,0,0,1-.77-.59,1.62,1.62,0,0,1-.36-.85A2.12,2.12,0,0,1,253.21,542.82Z"/><text class="cls-5" transform="translate(278.82 532.55)">j</text><line class="cls-4" x1="278.82" y1="544.51" x2="278.82" y2="527.42"/><path d="M272.43,545.38a3.18,3.18,0,0,1,.62-1,4.68,4.68,0,0,1,1-.84,5,5,0,0,1,1.19-.55,4.33,4.33,0,0,1,1.29-.19,2.91,2.91,0,0,1,1.15.21,2.21,2.21,0,0,1,.78.58,1.66,1.66,0,0,1,.35.84,2,2,0,0,1-.13,1,3.41,3.41,0,0,1-.63,1,5,5,0,0,1-1,.84,4.67,4.67,0,0,1-1.2.55,4.43,4.43,0,0,1-1.28.2,2.83,2.83,0,0,1-1.14-.22,2.1,2.1,0,0,1-.78-.58,1.73,1.73,0,0,1-.35-.85A2,2,0,0,1,272.43,545.38Z"/><text class="cls-5" transform="translate(302.59 543.22)">.</text><line class="cls-4" x1="300.6" y1="544.51" x2="300.6" y2="527.42"/><path d="M294.21,545.38a3.21,3.21,0,0,1,.63-1,4.62,4.62,0,0,1,1-.84A5,5,0,0,1,297,543a4.33,4.33,0,0,1,1.29-.19,2.91,2.91,0,0,1,1.15.21,2,2,0,0,1,.78.58,1.77,1.77,0,0,1,.36.84,2.12,2.12,0,0,1-.14,1,3.22,3.22,0,0,1-.63,1,5,5,0,0,1-1,.84,4.67,4.67,0,0,1-1.2.55,4.38,4.38,0,0,1-1.28.2,2.86,2.86,0,0,1-1.14-.22,2,2,0,0,1-.77-.58,1.66,1.66,0,0,1-.36-.85A2.15,2.15,0,0,1,294.21,545.38Z"/><text class="cls-8" transform="translate(251.17 570.98)">c</text><text class="cls-8" transform="translate(255.67 570.98)">r</text><text class="cls-8" transform="translate(259.42 570.98)">i</text><text class="cls-8" transform="translate(272.26 570.98)">b</text><text class="cls-8" transform="translate(276.76 570.98)">e</text><line class="cls-4" x1="259.6" y1="611.13" x2="259.6" y2="594.05"/><path d="M253.21,612a3.37,3.37,0,0,1,.63-1,4.88,4.88,0,0,1,1-.83,4.61,4.61,0,0,1,1.19-.55,4.34,4.34,0,0,1,1.29-.2,2.74,2.74,0,0,1,1.15.22,1.93,1.93,0,0,1,.78.57,1.77,1.77,0,0,1,.36.84,2.16,2.16,0,0,1-.14,1,3.18,3.18,0,0,1-.63,1,5,5,0,0,1-1,.84,4.7,4.7,0,0,1-1.2.56,4.36,4.36,0,0,1-1.28.19,2.86,2.86,0,0,1-1.14-.21,2,2,0,0,1-.77-.59,1.62,1.62,0,0,1-.36-.85A2.11,2.11,0,0,1,253.21,612Z"/><text class="cls-5" transform="translate(278.82 599.17)">j</text><line class="cls-4" x1="278.82" y1="611.13" x2="278.82" y2="594.05"/><path d="M272.43,612a3.33,3.33,0,0,1,.62-1,5,5,0,0,1,1-.83,4.61,4.61,0,0,1,1.19-.55,4.34,4.34,0,0,1,1.29-.2,2.74,2.74,0,0,1,1.15.22,2.08,2.08,0,0,1,.78.57,1.66,1.66,0,0,1,.35.84,2,2,0,0,1-.13,1,3.37,3.37,0,0,1-.63,1,5,5,0,0,1-1,.84,4.7,4.7,0,0,1-1.2.56,4.41,4.41,0,0,1-1.28.19,2.83,2.83,0,0,1-1.14-.21,2.12,2.12,0,0,1-.78-.59,1.7,1.7,0,0,1-.35-.85A2,2,0,0,1,272.43,612Z"/><text class="cls-5" transform="translate(302.59 609.85)">.</text><line class="cls-4" x1="300.6" y1="611.13" x2="300.6" y2="594.05"/><path d="M294.21,612a3.37,3.37,0,0,1,.63-1,4.88,4.88,0,0,1,1-.83,4.61,4.61,0,0,1,1.19-.55,4.34,4.34,0,0,1,1.29-.2,2.74,2.74,0,0,1,1.15.22,1.93,1.93,0,0,1,.78.57,1.77,1.77,0,0,1,.36.84,2.16,2.16,0,0,1-.14,1,3.18,3.18,0,0,1-.63,1,5,5,0,0,1-1,.84,4.7,4.7,0,0,1-1.2.56,4.36,4.36,0,0,1-1.28.19,2.86,2.86,0,0,1-1.14-.21,2,2,0,0,1-.77-.59,1.62,1.62,0,0,1-.36-.85A2.11,2.11,0,0,1,294.21,612Z"/><text class="cls-8" transform="translate(251.17 632.49)">c</text><text class="cls-8" transform="translate(255.67 632.49)">r</text><text class="cls-8" transform="translate(259.42 632.49)">i</text><text class="cls-8" transform="translate(272.26 632.49)">b</text><text class="cls-8" transform="translate(276.76 632.49)">e</text><line class="cls-4" x1="253.24" y1="653.84" x2="253.24" y2="670.92"/><path d="M253.21,653a3.25,3.25,0,0,1,.63-1,4.88,4.88,0,0,1,1-.83,4.61,4.61,0,0,1,1.19-.55,4.34,4.34,0,0,1,1.29-.2,2.74,2.74,0,0,1,1.15.22,1.93,1.93,0,0,1,.78.57,1.77,1.77,0,0,1,.36.84,2.16,2.16,0,0,1-.14,1,3.18,3.18,0,0,1-.63,1,5,5,0,0,1-1,.84,4.7,4.7,0,0,1-1.2.56,4.36,4.36,0,0,1-1.28.19,2.86,2.86,0,0,1-1.14-.21,2,2,0,0,1-.77-.59,1.66,1.66,0,0,1-.36-.85A2.11,2.11,0,0,1,253.21,653Z"/><text class="cls-5" transform="translate(272.26 668.36)">J</text><line class="cls-4" x1="272.46" y1="656.4" x2="272.46" y2="673.49"/><path d="M272.43,655.57a3.33,3.33,0,0,1,.62-1,5,5,0,0,1,1-.83,4.61,4.61,0,0,1,1.19-.55,4.34,4.34,0,0,1,1.29-.2,2.91,2.91,0,0,1,1.15.22,2.08,2.08,0,0,1,.78.57,1.66,1.66,0,0,1,.35.84,2,2,0,0,1-.13,1,3.37,3.37,0,0,1-.63,1,4.41,4.41,0,0,1-1,.84,4.7,4.7,0,0,1-1.2.56,4.41,4.41,0,0,1-1.28.19,2.83,2.83,0,0,1-1.14-.21,2.12,2.12,0,0,1-.78-.59,1.7,1.7,0,0,1-.35-.85A2,2,0,0,1,272.43,655.57Z"/><text class="cls-5" transform="translate(302.59 655.97)">.</text><line class="cls-4" x1="294.24" y1="656.4" x2="294.24" y2="673.49"/><path d="M294.21,655.57a3.37,3.37,0,0,1,.63-1,4.88,4.88,0,0,1,1-.83,4.61,4.61,0,0,1,1.19-.55,4.34,4.34,0,0,1,1.29-.2,2.91,2.91,0,0,1,1.15.22,1.93,1.93,0,0,1,.78.57,1.77,1.77,0,0,1,.36.84,2.15,2.15,0,0,1-.14,1,3.18,3.18,0,0,1-.63,1,4.41,4.41,0,0,1-1,.84,4.7,4.7,0,0,1-1.2.56,4.36,4.36,0,0,1-1.28.19,2.86,2.86,0,0,1-1.14-.21,2,2,0,0,1-.77-.59,1.62,1.62,0,0,1-.36-.85A2.12,2.12,0,0,1,294.21,655.57Z"/><text class="cls-8" transform="translate(251.17 693.99)">c</text><text class="cls-8" transform="translate(255.67 693.99)">r</text><text class="cls-8" transform="translate(259.42 693.99)">i</text><text class="cls-8" transform="translate(272.26 693.99)">b</text><text class="cls-8" transform="translate(276.76 693.99)">e</text><path d="M328.41,535.87a1.18,1.18,0,0,1,.92.06,1.4,1.4,0,0,1,.56.57,2.24,2.24,0,0,1,.24.81,1.76,1.76,0,0,1-.06.75,4.38,4.38,0,0,0,.59-.12,1.54,1.54,0,0,0,.56-.37c.17-.18.32-.34.44-.49s.25-.32.42-.51l.28.16-2.27,8.59h-.82c.14-.45.28-.9.43-1.33s.25-.73.37-1.12a9.24,9.24,0,0,1,.33-.93c.21-.61.4-1.14.54-1.61s.26-.87.34-1.2.17-.72.22-1c-.12.1-.29.22-.5.36a5.75,5.75,0,0,1-.69.42,5.17,5.17,0,0,1-.75.36,2.79,2.79,0,0,1-.76.18,1.62,1.62,0,0,1-1.28-.44,1.79,1.79,0,0,1-.57-1.09,2,2,0,0,1,.27-1.23A1.79,1.79,0,0,1,328.41,535.87Z"/><path d="M339.91,547.94a3.18,3.18,0,0,1,.62-1,5,5,0,0,1,2.17-1.39,4.33,4.33,0,0,1,1.29-.19,2.91,2.91,0,0,1,1.15.21,2.21,2.21,0,0,1,.78.58,1.66,1.66,0,0,1,.35.84,2,2,0,0,1-.13,1,3.41,3.41,0,0,1-.63,1,5,5,0,0,1-1,.84,4.67,4.67,0,0,1-1.2.55,4.43,4.43,0,0,1-1.28.2,2.67,2.67,0,0,1-1.14-.22,2.1,2.1,0,0,1-.78-.58,1.73,1.73,0,0,1-.35-.85A2,2,0,0,1,339.91,547.94Z"/><line class="cls-4" x1="346.3" y1="547.07" x2="346.3" y2="533.83"/><path d="M354.64,550.51a3.37,3.37,0,0,1,.63-1,4.88,4.88,0,0,1,1-.83,4.76,4.76,0,0,1,1.19-.55,4.34,4.34,0,0,1,1.29-.2,2.74,2.74,0,0,1,1.15.22,1.93,1.93,0,0,1,.78.57,1.77,1.77,0,0,1,.36.84,2,2,0,0,1-.14,1,3,3,0,0,1-.63,1,5,5,0,0,1-1,.84,4.48,4.48,0,0,1-1.19.56,4.43,4.43,0,0,1-1.29.19,2.81,2.81,0,0,1-1.13-.21,2.12,2.12,0,0,1-.78-.59,1.62,1.62,0,0,1-.36-.85A2.23,2.23,0,0,1,354.64,550.51Z"/><line class="cls-4" x1="361.04" y1="549.63" x2="361.04" y2="535.11"/><polyline points="346.11 532.55 361.23 533.83 361.23 536.39 346.11 535.11"/><path d="M368.31,547.94a3.18,3.18,0,0,1,.62-1,5,5,0,0,1,2.17-1.39,4.33,4.33,0,0,1,1.29-.19,2.91,2.91,0,0,1,1.15.21,2.13,2.13,0,0,1,.78.58,1.66,1.66,0,0,1,.35.84,2,2,0,0,1-.13,1,3.41,3.41,0,0,1-.63,1,5,5,0,0,1-1,.84,4.67,4.67,0,0,1-1.2.55,4.38,4.38,0,0,1-1.28.2,2.67,2.67,0,0,1-1.14-.22,2.1,2.1,0,0,1-.78-.58,1.73,1.73,0,0,1-.35-.85A2.16,2.16,0,0,1,368.31,547.94Z"/><line class="cls-4" x1="374.7" y1="547.07" x2="374.7" y2="531.27"/><path d="M381.76,547.94a3.21,3.21,0,0,1,.63-1,4.58,4.58,0,0,1,1-.83,4.79,4.79,0,0,1,1.19-.56,4.33,4.33,0,0,1,1.29-.19,2.91,2.91,0,0,1,1.15.21,2,2,0,0,1,.78.58,1.77,1.77,0,0,1,.36.84,2,2,0,0,1-.14,1,3.06,3.06,0,0,1-.63,1,5,5,0,0,1-1,.84,4.7,4.7,0,0,1-2.48.75,2.65,2.65,0,0,1-1.13-.22,2.1,2.1,0,0,1-.78-.58,1.66,1.66,0,0,1-.36-.85A2.29,2.29,0,0,1,381.76,547.94Z"/><line class="cls-4" x1="388.16" y1="547.07" x2="388.16" y2="531.27"/><path d="M396.92,550.51a3.37,3.37,0,0,1,.63-1,4.88,4.88,0,0,1,1-.83,4.76,4.76,0,0,1,1.19-.55,4.45,4.45,0,0,1,1.29-.2,2.74,2.74,0,0,1,1.15.22,1.93,1.93,0,0,1,.78.57,1.77,1.77,0,0,1,.36.84,2.15,2.15,0,0,1-.13,1,3.21,3.21,0,0,1-.64,1,4.94,4.94,0,0,1-1,.84,4.7,4.7,0,0,1-1.2.56,4.41,4.41,0,0,1-1.28.19,2.83,2.83,0,0,1-1.14-.21,2.12,2.12,0,0,1-.78-.59,1.62,1.62,0,0,1-.36-.85A2.23,2.23,0,0,1,396.92,550.51Z"/><line class="cls-4" x1="403.32" y1="549.63" x2="403.32" y2="531.27"/><polyline points="374.51 529.98 403.51 529.98 403.51 532.55 374.51 532.55"/><text class="cls-8" transform="translate(337.5 570.98)">m</text><text class="cls-8" transform="translate(344.25 570.98)">o</text><text class="cls-8" transform="translate(354.1 570.98)">r</text><text class="cls-8" transform="translate(357.85 570.98)">e</text><text class="cls-8" transform="translate(367.77 570.98)">n</text><text class="cls-8" transform="translate(373.02 570.98)">i</text><text class="cls-8" transform="translate(381.22 570.98)">t</text><text class="cls-8" transform="translate(384.22 570.98)">a</text><text class="cls-8" transform="translate(393.76 570.98)">d</text><text class="cls-8" transform="translate(398.26 570.98)">o</text><text class="cls-8" transform="translate(402.76 570.98)">r</text><path d="M328.41,597.37a1.18,1.18,0,0,1,.92.06,1.4,1.4,0,0,1,.56.57,2.24,2.24,0,0,1,.24.81,1.76,1.76,0,0,1-.06.75,4.38,4.38,0,0,0,.59-.12,1.54,1.54,0,0,0,.56-.37c.17-.18.32-.34.44-.49s.25-.32.42-.51l.28.16-2.27,8.59h-.82c.14-.45.28-.9.43-1.33s.25-.73.37-1.12a9.24,9.24,0,0,1,.33-.93c.21-.61.4-1.14.54-1.61s.26-.87.34-1.2.17-.72.22-1c-.12.1-.29.22-.5.36a5.75,5.75,0,0,1-.69.42,5.17,5.17,0,0,1-.75.36,2.79,2.79,0,0,1-.76.18,1.62,1.62,0,0,1-1.28-.44,1.79,1.79,0,0,1-.57-1.09,2,2,0,0,1,.27-1.23A1.79,1.79,0,0,1,328.41,597.37Z"/><path d="M339.91,609.44a3.18,3.18,0,0,1,.62-1A5,5,0,0,1,342.7,607a4.33,4.33,0,0,1,1.29-.19,2.91,2.91,0,0,1,1.15.21,2.21,2.21,0,0,1,.78.58,1.66,1.66,0,0,1,.35.84,2,2,0,0,1-.13,1,3.41,3.41,0,0,1-.63,1,5,5,0,0,1-1,.84,4.67,4.67,0,0,1-1.2.55,4.43,4.43,0,0,1-1.28.2,2.67,2.67,0,0,1-1.14-.22,2.1,2.1,0,0,1-.78-.58,1.73,1.73,0,0,1-.35-.85A2,2,0,0,1,339.91,609.44Z"/><line class="cls-4" x1="346.3" y1="608.57" x2="346.3" y2="595.33"/><path d="M354.64,612a3.37,3.37,0,0,1,.63-1,4.88,4.88,0,0,1,1-.83,4.76,4.76,0,0,1,1.19-.55,4.34,4.34,0,0,1,1.29-.2,2.74,2.74,0,0,1,1.15.22,1.93,1.93,0,0,1,.78.57,1.77,1.77,0,0,1,.36.84,2,2,0,0,1-.14,1,3,3,0,0,1-.63,1,5,5,0,0,1-1,.84,4.48,4.48,0,0,1-1.19.56,4.43,4.43,0,0,1-1.29.19,2.81,2.81,0,0,1-1.13-.21,2.12,2.12,0,0,1-.78-.59,1.62,1.62,0,0,1-.36-.85A2.23,2.23,0,0,1,354.64,612Z"/><line class="cls-4" x1="361.04" y1="611.13" x2="361.04" y2="596.61"/><polyline points="346.11 594.05 361.23 595.33 361.23 597.89 346.11 596.61"/><path d="M368.31,612a3.33,3.33,0,0,1,.62-1,5,5,0,0,1,1-.83,4.61,4.61,0,0,1,1.19-.55,4.34,4.34,0,0,1,1.29-.2,2.74,2.74,0,0,1,1.15.22,2,2,0,0,1,.78.57,1.66,1.66,0,0,1,.35.84,2,2,0,0,1-.13,1,3.37,3.37,0,0,1-.63,1,5,5,0,0,1-1,.84,4.7,4.7,0,0,1-1.2.56,4.36,4.36,0,0,1-1.28.19,2.83,2.83,0,0,1-1.14-.21,2.12,2.12,0,0,1-.78-.59,1.7,1.7,0,0,1-.35-.85A2.11,2.11,0,0,1,368.31,612Z"/><line class="cls-4" x1="374.7" y1="611.13" x2="374.7" y2="595.33"/><path d="M381.76,614.57a3.37,3.37,0,0,1,.63-1,4.88,4.88,0,0,1,1-.83,4.76,4.76,0,0,1,1.19-.55,4.34,4.34,0,0,1,1.29-.2,2.91,2.91,0,0,1,1.15.22,1.93,1.93,0,0,1,.78.57,1.77,1.77,0,0,1,.36.84,2,2,0,0,1-.14,1,3,3,0,0,1-.63,1,4.41,4.41,0,0,1-1,.84,4.48,4.48,0,0,1-1.19.56,4.43,4.43,0,0,1-1.29.19,2.81,2.81,0,0,1-1.13-.21,2.12,2.12,0,0,1-.78-.59,1.62,1.62,0,0,1-.36-.85A2.25,2.25,0,0,1,381.76,614.57Z"/><line class="cls-4" x1="388.16" y1="613.69" x2="388.16" y2="595.93"/><line class="cls-4" x1="395.48" y1="617.11" x2="404.87" y2="617.11"/><path d="M396.92,617.13a3.21,3.21,0,0,1,.63-1,4.3,4.3,0,0,1,1-.83,4.79,4.79,0,0,1,1.19-.56,4.43,4.43,0,0,1,1.29-.19,2.91,2.91,0,0,1,1.15.21,2,2,0,0,1,.78.58,1.77,1.77,0,0,1,.36.84,2.11,2.11,0,0,1-.13,1,3.26,3.26,0,0,1-.64,1,4.94,4.94,0,0,1-1,.84,4.67,4.67,0,0,1-1.2.55,4.43,4.43,0,0,1-1.28.2,2.83,2.83,0,0,1-1.14-.22,2.1,2.1,0,0,1-.78-.58,1.66,1.66,0,0,1-.36-.85A2.28,2.28,0,0,1,396.92,617.13Z"/><line class="cls-4" x1="403.32" y1="616.26" x2="403.32" y2="596.61"/><polyline points="374.51 594.05 403.51 595.33 403.51 597.89 374.51 596.61"/><text class="cls-8" transform="translate(337.5 632.49)">m</text><text class="cls-8" transform="translate(344.25 632.49)">o</text><text class="cls-8" transform="translate(354.1 632.49)">r</text><text class="cls-8" transform="translate(357.85 632.49)">e</text><text class="cls-8" transform="translate(367.77 632.49)">n</text><text class="cls-8" transform="translate(373.02 632.49)">i</text><text class="cls-8" transform="translate(381.22 632.49)">t</text><text class="cls-8" transform="translate(384.22 632.49)">a</text><text class="cls-8" transform="translate(393.76 632.49)">d</text><text class="cls-8" transform="translate(398.26 632.49)">o</text><text class="cls-8" transform="translate(402.76 632.49)">r</text><path d="M328.41,658.87a1.18,1.18,0,0,1,.92.06,1.4,1.4,0,0,1,.56.57,2.24,2.24,0,0,1,.24.81,1.76,1.76,0,0,1-.06.75,4.38,4.38,0,0,0,.59-.12,1.54,1.54,0,0,0,.56-.37c.17-.18.32-.34.44-.49s.25-.32.42-.51l.28.16-2.27,8.59h-.82c.14-.45.28-.9.43-1.33s.25-.73.37-1.12a9.24,9.24,0,0,1,.33-.93c.21-.61.4-1.14.54-1.61s.26-.87.34-1.2.17-.72.22-1c-.12.1-.29.22-.5.36a5.75,5.75,0,0,1-.69.42,5.17,5.17,0,0,1-.75.36,2.79,2.79,0,0,1-.76.18,1.62,1.62,0,0,1-1.28-.44,1.79,1.79,0,0,1-.57-1.09,2,2,0,0,1,.27-1.23A1.79,1.79,0,0,1,328.41,658.87Z"/><path d="M339.91,658.13a3.18,3.18,0,0,1,.62-1,4.36,4.36,0,0,1,1-.83,4.63,4.63,0,0,1,1.19-.56,4.33,4.33,0,0,1,1.29-.19,2.91,2.91,0,0,1,1.15.21,2.21,2.21,0,0,1,.78.58,1.66,1.66,0,0,1,.35.84,2,2,0,0,1-.13,1,3.41,3.41,0,0,1-.63,1,5,5,0,0,1-1,.84,4.67,4.67,0,0,1-1.2.55,4.43,4.43,0,0,1-1.28.2,2.83,2.83,0,0,1-1.14-.22,2.1,2.1,0,0,1-.78-.58,1.73,1.73,0,0,1-.35-.85A2,2,0,0,1,339.91,658.13Z"/><line class="cls-4" x1="339.94" y1="658.96" x2="339.94" y2="674.77"/><path d="M354.64,660.69a3.21,3.21,0,0,1,.63-1,4.58,4.58,0,0,1,1-.83,4.79,4.79,0,0,1,1.19-.56,4.33,4.33,0,0,1,1.29-.19,2.91,2.91,0,0,1,1.15.21,2,2,0,0,1,.78.58,1.77,1.77,0,0,1,.36.84,2,2,0,0,1-.14,1,3.06,3.06,0,0,1-.63,1,5,5,0,0,1-1,.84,4.7,4.7,0,0,1-2.48.75,2.65,2.65,0,0,1-1.13-.22,2.1,2.1,0,0,1-.78-.58,1.66,1.66,0,0,1-.36-.85A2.29,2.29,0,0,1,354.64,660.69Z"/><line class="cls-4" x1="354.67" y1="661.53" x2="354.67" y2="677.33"/><polyline points="339.75 673.49 354.86 676.05 354.86 678.61 339.75 676.05"/><path d="M368.31,658.13a3.18,3.18,0,0,1,.62-1,4.36,4.36,0,0,1,1-.83,4.63,4.63,0,0,1,1.19-.56,4.33,4.33,0,0,1,1.29-.19,2.91,2.91,0,0,1,1.15.21,2.13,2.13,0,0,1,.78.58,1.66,1.66,0,0,1,.35.84,2,2,0,0,1-.13,1,3.41,3.41,0,0,1-.63,1,5,5,0,0,1-1,.84,4.67,4.67,0,0,1-1.2.55,4.38,4.38,0,0,1-1.28.2,2.83,2.83,0,0,1-1.14-.22,2.1,2.1,0,0,1-.78-.58,1.73,1.73,0,0,1-.35-.85A2.15,2.15,0,0,1,368.31,658.13Z"/><line class="cls-4" x1="368.34" y1="658.96" x2="368.34" y2="674.77"/><path d="M381.76,658.13a3.21,3.21,0,0,1,.63-1,4.3,4.3,0,0,1,1-.83,4.79,4.79,0,0,1,1.19-.56,4.33,4.33,0,0,1,1.29-.19,2.91,2.91,0,0,1,1.15.21,2,2,0,0,1,.78.58,1.77,1.77,0,0,1,.36.84,2,2,0,0,1-.14,1,3.06,3.06,0,0,1-.63,1,5,5,0,0,1-1,.84,4.7,4.7,0,0,1-2.48.75,2.81,2.81,0,0,1-1.13-.22A2.1,2.1,0,0,1,382,660a1.66,1.66,0,0,1-.36-.85A2.28,2.28,0,0,1,381.76,658.13Z"/><line class="cls-4" x1="381.79" y1="658.96" x2="381.79" y2="675.97"/><path d="M396.92,660.69a3.21,3.21,0,0,1,.63-1,4.58,4.58,0,0,1,1-.83,4.79,4.79,0,0,1,1.19-.56,4.43,4.43,0,0,1,1.29-.19,2.91,2.91,0,0,1,1.15.21,2,2,0,0,1,.78.58,1.77,1.77,0,0,1,.36.84,2.1,2.1,0,0,1-.13,1,3.26,3.26,0,0,1-.64,1,4.94,4.94,0,0,1-1,.84,4.67,4.67,0,0,1-1.2.55,4.43,4.43,0,0,1-1.28.2,2.67,2.67,0,0,1-1.14-.22,2.1,2.1,0,0,1-.78-.58,1.66,1.66,0,0,1-.36-.85A2.29,2.29,0,0,1,396.92,660.69Z"/><line class="cls-4" x1="396.95" y1="661.53" x2="396.95" y2="677.33"/><polyline points="368.15 673.49 397.14 676.05 397.14 678.61 368.15 676.05"/><text class="cls-8" transform="translate(337.5 693.99)">m</text><text class="cls-8" transform="translate(344.25 693.99)">o</text><text class="cls-8" transform="translate(354.1 693.99)">r</text><text class="cls-8" transform="translate(357.85 693.99)">e</text><text class="cls-8" transform="translate(367.77 693.99)">n</text><text class="cls-8" transform="translate(373.02 693.99)">i</text><text class="cls-8" transform="translate(381.22 693.99)">t</text><text class="cls-8" transform="translate(384.22 693.99)">a</text><text class="cls-8" transform="translate(393.76 693.99)">d</text><text class="cls-8" transform="translate(398.26 693.99)">o</text><text class="cls-8" transform="translate(402.76 693.99)">r</text><line class="cls-4" x1="425.74" y1="547.07" x2="425.74" y2="529.98"/><path d="M419.35,547.94a3,3,0,0,1,.62-1,4.85,4.85,0,0,1,2.16-1.39,4.45,4.45,0,0,1,1.3-.19,2.86,2.86,0,0,1,1.14.21,2,2,0,0,1,.78.58,1.77,1.77,0,0,1,.36.84,2.1,2.1,0,0,1-.13,1,3.26,3.26,0,0,1-.64,1,4.7,4.7,0,0,1-2.18,1.39,4.43,4.43,0,0,1-1.28.2,2.67,2.67,0,0,1-1.14-.22,2.1,2.1,0,0,1-.78-.58,1.66,1.66,0,0,1-.36-.85A2.18,2.18,0,0,1,419.35,547.94Z"/><text class="cls-5" transform="translate(444.96 535.11)">j</text><line class="cls-4" x1="444.96" y1="547.07" x2="444.96" y2="529.98"/><path d="M438.56,547.94a3.21,3.21,0,0,1,.63-1,4.58,4.58,0,0,1,1-.83,4.79,4.79,0,0,1,1.19-.56,4.43,4.43,0,0,1,1.29-.19,2.91,2.91,0,0,1,1.15.21,2,2,0,0,1,.78.58,1.77,1.77,0,0,1,.36.84,2.1,2.1,0,0,1-.13,1,3.26,3.26,0,0,1-.64,1,4.94,4.94,0,0,1-1,.84,4.67,4.67,0,0,1-1.2.55,4.43,4.43,0,0,1-1.28.2,2.67,2.67,0,0,1-1.14-.22,2.1,2.1,0,0,1-.78-.58,1.66,1.66,0,0,1-.36-.85A2.29,2.29,0,0,1,438.56,547.94Z"/><line class="cls-4" x1="466.74" y1="547.07" x2="466.74" y2="529.98"/><path d="M460.35,547.94a3,3,0,0,1,.62-1,4.85,4.85,0,0,1,2.16-1.39,4.45,4.45,0,0,1,1.3-.19,2.86,2.86,0,0,1,1.14.21,2,2,0,0,1,.78.58,1.77,1.77,0,0,1,.36.84,2.1,2.1,0,0,1-.13,1,3.26,3.26,0,0,1-.64,1,4.7,4.7,0,0,1-2.18,1.39,4.43,4.43,0,0,1-1.28.2,2.67,2.67,0,0,1-1.14-.22,2.1,2.1,0,0,1-.78-.58,1.66,1.66,0,0,1-.36-.85A2.18,2.18,0,0,1,460.35,547.94Z"/><path d="M481.09,535.87a1.18,1.18,0,0,1,.92.06,1.42,1.42,0,0,1,.57.57,2.23,2.23,0,0,1,.23.81,1.76,1.76,0,0,1-.06.75,4.54,4.54,0,0,0,.6-.12,1.52,1.52,0,0,0,.55-.37,5.85,5.85,0,0,0,.44-.49l.42-.51.29.16-2.28,8.59H482c.14-.45.28-.9.43-1.33s.25-.73.37-1.12a9.24,9.24,0,0,1,.33-.93c.22-.61.4-1.14.54-1.61s.26-.87.34-1.2.17-.72.23-1c-.13.1-.29.22-.51.36a6.5,6.5,0,0,1-.68.42,5.84,5.84,0,0,1-.76.36,2.7,2.7,0,0,1-.76.18,1.64,1.64,0,0,1-1.28-.44,1.84,1.84,0,0,1-.57-1.09,2,2,0,0,1,.27-1.23A1.79,1.79,0,0,1,481.09,535.87Z"/><text class="cls-8" transform="translate(418.06 570.98)">m</text><text class="cls-8" transform="translate(424.81 570.98)">i</text><text class="cls-8" transform="translate(438.4 570.98)">t</text><text class="cls-8" transform="translate(441.4 570.98)">e</text><line class="cls-4" x1="425.74" y1="613.69" x2="425.74" y2="596.61"/><path d="M419.35,614.57a3.15,3.15,0,0,1,.62-1,5.18,5.18,0,0,1,1-.83,4.76,4.76,0,0,1,1.19-.55,4.46,4.46,0,0,1,1.3-.2,2.86,2.86,0,0,1,1.14.22,1.93,1.93,0,0,1,.78.57,1.77,1.77,0,0,1,.36.84,2.14,2.14,0,0,1-.13,1,3.21,3.21,0,0,1-.64,1,4.15,4.15,0,0,1-1,.84,4.7,4.7,0,0,1-1.2.56,4.41,4.41,0,0,1-1.28.19,2.83,2.83,0,0,1-1.14-.21,2.12,2.12,0,0,1-.78-.59,1.62,1.62,0,0,1-.36-.85A2.14,2.14,0,0,1,419.35,614.57Z"/><text class="cls-5" transform="translate(444.96 601.74)">j</text><line class="cls-4" x1="444.96" y1="613.69" x2="444.96" y2="596.61"/><path d="M438.56,614.57a3.37,3.37,0,0,1,.63-1,4.88,4.88,0,0,1,1-.83,4.76,4.76,0,0,1,1.19-.55,4.45,4.45,0,0,1,1.29-.2,2.91,2.91,0,0,1,1.15.22,1.93,1.93,0,0,1,.78.57,1.77,1.77,0,0,1,.36.84,2.14,2.14,0,0,1-.13,1,3.21,3.21,0,0,1-.64,1,4.36,4.36,0,0,1-1,.84,4.7,4.7,0,0,1-1.2.56,4.41,4.41,0,0,1-1.28.19,2.83,2.83,0,0,1-1.14-.21,2.12,2.12,0,0,1-.78-.59,1.62,1.62,0,0,1-.36-.85A2.25,2.25,0,0,1,438.56,614.57Z"/><line class="cls-4" x1="466.74" y1="613.69" x2="466.74" y2="596.61"/><path d="M460.35,614.57a3.15,3.15,0,0,1,.62-1,5.18,5.18,0,0,1,1-.83,4.76,4.76,0,0,1,1.19-.55,4.46,4.46,0,0,1,1.3-.2,2.86,2.86,0,0,1,1.14.22,1.93,1.93,0,0,1,.78.57,1.77,1.77,0,0,1,.36.84,2.14,2.14,0,0,1-.13,1,3.21,3.21,0,0,1-.64,1,4.15,4.15,0,0,1-1,.84,4.7,4.7,0,0,1-1.2.56,4.41,4.41,0,0,1-1.28.19,2.83,2.83,0,0,1-1.14-.21,2.12,2.12,0,0,1-.78-.59,1.62,1.62,0,0,1-.36-.85A2.14,2.14,0,0,1,460.35,614.57Z"/><path d="M481.09,597.37a1.18,1.18,0,0,1,.92.06,1.42,1.42,0,0,1,.57.57,2.23,2.23,0,0,1,.23.81,1.76,1.76,0,0,1-.06.75,4.54,4.54,0,0,0,.6-.12,1.52,1.52,0,0,0,.55-.37,5.85,5.85,0,0,0,.44-.49l.42-.51.29.16-2.28,8.59H482c.14-.45.28-.9.43-1.33s.25-.73.37-1.12a9.24,9.24,0,0,1,.33-.93c.22-.61.4-1.14.54-1.61s.26-.87.34-1.2.17-.72.23-1c-.13.1-.29.22-.51.36a6.5,6.5,0,0,1-.68.42,5.84,5.84,0,0,1-.76.36,2.7,2.7,0,0,1-.76.18,1.64,1.64,0,0,1-1.28-.44,1.84,1.84,0,0,1-.57-1.09,2,2,0,0,1,.27-1.23A1.79,1.79,0,0,1,481.09,597.37Z"/><text class="cls-8" transform="translate(418.06 632.49)">m</text><text class="cls-8" transform="translate(424.81 632.49)">i</text><text class="cls-8" transform="translate(438.4 632.49)">t</text><text class="cls-8" transform="translate(441.4 632.49)">e</text><line class="cls-4" x1="419.37" y1="658.96" x2="419.37" y2="676.05"/><path d="M419.35,658.13a3,3,0,0,1,.62-1,4.53,4.53,0,0,1,1-.83,4.79,4.79,0,0,1,1.19-.56,4.45,4.45,0,0,1,1.3-.19,2.86,2.86,0,0,1,1.14.21,2,2,0,0,1,.78.58,1.77,1.77,0,0,1,.36.84,2.11,2.11,0,0,1-.13,1,3.26,3.26,0,0,1-.64,1,4.7,4.7,0,0,1-2.18,1.39,4.43,4.43,0,0,1-1.28.2,2.83,2.83,0,0,1-1.14-.22,2.1,2.1,0,0,1-.78-.58,1.66,1.66,0,0,1-.36-.85A2.16,2.16,0,0,1,419.35,658.13Z"/><text class="cls-5" transform="translate(438.4 670.92)">J</text><line class="cls-4" x1="438.59" y1="658.96" x2="438.59" y2="676.05"/><path d="M438.56,658.13a3.21,3.21,0,0,1,.63-1,4.3,4.3,0,0,1,1-.83,4.79,4.79,0,0,1,1.19-.56,4.43,4.43,0,0,1,1.29-.19,2.91,2.91,0,0,1,1.15.21,2,2,0,0,1,.78.58,1.77,1.77,0,0,1,.36.84,2.11,2.11,0,0,1-.13,1,3.26,3.26,0,0,1-.64,1,4.94,4.94,0,0,1-1,.84,4.67,4.67,0,0,1-1.2.55,4.43,4.43,0,0,1-1.28.2,2.83,2.83,0,0,1-1.14-.22,2.1,2.1,0,0,1-.78-.58,1.66,1.66,0,0,1-.36-.85A2.28,2.28,0,0,1,438.56,658.13Z"/><line class="cls-4" x1="460.37" y1="658.96" x2="460.37" y2="676.05"/><path d="M460.35,658.13a3,3,0,0,1,.62-1,4.53,4.53,0,0,1,1-.83,4.79,4.79,0,0,1,1.19-.56,4.45,4.45,0,0,1,1.3-.19,2.86,2.86,0,0,1,1.14.21,2,2,0,0,1,.78.58,1.77,1.77,0,0,1,.36.84,2.11,2.11,0,0,1-.13,1,3.26,3.26,0,0,1-.64,1,4.7,4.7,0,0,1-2.18,1.39,4.43,4.43,0,0,1-1.28.2,2.83,2.83,0,0,1-1.14-.22,2.1,2.1,0,0,1-.78-.58,1.66,1.66,0,0,1-.36-.85A2.16,2.16,0,0,1,460.35,658.13Z"/><path d="M481.09,658.87a1.18,1.18,0,0,1,.92.06,1.42,1.42,0,0,1,.57.57,2.23,2.23,0,0,1,.23.81,1.76,1.76,0,0,1-.06.75,4.54,4.54,0,0,0,.6-.12,1.52,1.52,0,0,0,.55-.37,5.85,5.85,0,0,0,.44-.49l.42-.51.29.16-2.28,8.59H482c.14-.45.28-.9.43-1.33s.25-.73.37-1.12a9.24,9.24,0,0,1,.33-.93c.22-.61.4-1.14.54-1.61s.26-.87.34-1.2.17-.72.23-1c-.13.1-.29.22-.51.36a6.5,6.5,0,0,1-.68.42,5.84,5.84,0,0,1-.76.36,2.7,2.7,0,0,1-.76.18,1.64,1.64,0,0,1-1.28-.44,1.84,1.84,0,0,1-.57-1.09,2,2,0,0,1,.27-1.23A1.79,1.79,0,0,1,481.09,658.87Z"/><text class="cls-8" transform="translate(418.06 693.99)">m</text><text class="cls-8" transform="translate(424.81 693.99)">i</text><text class="cls-8" transform="translate(438.4 693.99)">t</text><text class="cls-8" transform="translate(441.4 693.99)">e</text><path d="M504.1,544.68a5.38,5.38,0,0,0-.94-.31,3,3,0,0,0-.74-.1,1.68,1.68,0,0,0-1.12.39,1.4,1.4,0,0,0-.46,1.11,1,1,0,0,0,.16.51,3.84,3.84,0,0,0,.35.54,4.72,4.72,0,0,0,.54.57l-.25.2a8.11,8.11,0,0,1-1.23-.9,7.19,7.19,0,0,1-.89-.93,2.19,2.19,0,0,1-.5-1.1,1.61,1.61,0,0,1,0-.69,1.55,1.55,0,0,1,.31-.63,1.65,1.65,0,0,1,.55-.45,2,2,0,0,1,.77-.22h.39a3.29,3.29,0,0,1,.44.05l.41.06.32.05a26.43,26.43,0,0,1-2.23-2.38c-.5-.63-.71-1-.62-1.23l.44-.56a6.68,6.68,0,0,0,.58-.9,8.94,8.94,0,0,0,.51-1.08,3.08,3.08,0,0,0,.23-1.13,2.34,2.34,0,0,0-.23-.87c-.15-.35-.31-.69-.49-1l-.72-1.16.29-.21,3.73,4.7a9.17,9.17,0,0,0-.88,1.25,7,7,0,0,0-.61,1.15,3,3,0,0,0-.27,1.18,2.67,2.67,0,0,0,.11.75,4.61,4.61,0,0,0,.28.68,3.92,3.92,0,0,0,.37.59,5.86,5.86,0,0,0,.37.48,1.92,1.92,0,0,0,.26.32c.13.13.24.26.35.39l.3.36a.53.53,0,0,1,.13.21l0,.32Z"/><text class="cls-5" transform="translate(525.25 535.11)">j</text><line class="cls-4" x1="525.25" y1="547.07" x2="525.25" y2="529.98"/><path d="M518.86,547.94a3,3,0,0,1,.62-1,4.63,4.63,0,0,1,1-.83,4.57,4.57,0,0,1,1.18-.56,4.45,4.45,0,0,1,1.3-.19,2.86,2.86,0,0,1,1.14.21,2,2,0,0,1,.78.58,1.77,1.77,0,0,1,.36.84,2.1,2.1,0,0,1-.13,1,3.26,3.26,0,0,1-.64,1,4.7,4.7,0,0,1-2.18,1.39,4.43,4.43,0,0,1-1.28.2,2.67,2.67,0,0,1-1.14-.22,2.1,2.1,0,0,1-.78-.58,1.66,1.66,0,0,1-.36-.85A2.18,2.18,0,0,1,518.86,547.94Z"/><line class="cls-4" x1="547.03" y1="547.07" x2="547.03" y2="529.98"/><path d="M540.64,547.94a3,3,0,0,1,.62-1,5,5,0,0,1,2.17-1.39,4.33,4.33,0,0,1,1.29-.19,2.86,2.86,0,0,1,1.14.21,2,2,0,0,1,.78.58,1.77,1.77,0,0,1,.36.84,2,2,0,0,1-.13,1,3.26,3.26,0,0,1-.64,1,4.7,4.7,0,0,1-2.18,1.39,4.43,4.43,0,0,1-1.28.2,2.67,2.67,0,0,1-1.14-.22,2.1,2.1,0,0,1-.78-.58,1.66,1.66,0,0,1-.36-.85A2.18,2.18,0,0,1,540.64,547.94Z"/><text class="cls-5" transform="translate(567.1 537.67)">j</text><line class="cls-4" x1="567.1" y1="549.63" x2="567.1" y2="532.55"/><path d="M560.71,550.51a3.37,3.37,0,0,1,.63-1,4.88,4.88,0,0,1,1-.83,4.61,4.61,0,0,1,1.19-.55,4.34,4.34,0,0,1,1.29-.2,2.74,2.74,0,0,1,1.15.22,1.93,1.93,0,0,1,.78.57,1.77,1.77,0,0,1,.36.84,2.16,2.16,0,0,1-.14,1,3.18,3.18,0,0,1-.63,1,5,5,0,0,1-1,.84,4.7,4.7,0,0,1-1.2.56,4.36,4.36,0,0,1-1.28.19,2.86,2.86,0,0,1-1.14-.21,2,2,0,0,1-.77-.59,1.62,1.62,0,0,1-.36-.85A2.11,2.11,0,0,1,560.71,550.51Z"/><text class="cls-8" transform="translate(518.69 570.98)">c</text><text class="cls-8" transform="translate(523.19 570.98)">o</text><text class="cls-8" transform="translate(527.69 570.98)">n</text><text class="cls-8" transform="translate(560.55 570.98)">l</text><text class="cls-8" transform="translate(562.8 570.98)">a</text><path d="M504.1,606.18a5.38,5.38,0,0,0-.94-.31,3,3,0,0,0-.74-.1,1.68,1.68,0,0,0-1.12.39,1.4,1.4,0,0,0-.46,1.11,1,1,0,0,0,.16.51,3.84,3.84,0,0,0,.35.54,4.72,4.72,0,0,0,.54.57l-.25.2a8.11,8.11,0,0,1-1.23-.9,7.19,7.19,0,0,1-.89-.93,2.19,2.19,0,0,1-.5-1.1,1.61,1.61,0,0,1,0-.69,1.55,1.55,0,0,1,.31-.63,1.65,1.65,0,0,1,.55-.45,2,2,0,0,1,.77-.22h.39a3.29,3.29,0,0,1,.44.05l.41.06.32.05A26.43,26.43,0,0,1,500,602c-.5-.63-.71-1-.62-1.23l.44-.56a6.68,6.68,0,0,0,.58-.9,8.94,8.94,0,0,0,.51-1.08,3.08,3.08,0,0,0,.23-1.13,2.34,2.34,0,0,0-.23-.87c-.15-.35-.31-.69-.49-1l-.72-1.16.29-.21,3.73,4.7a9.17,9.17,0,0,0-.88,1.25,7,7,0,0,0-.61,1.15,3,3,0,0,0-.27,1.18,2.67,2.67,0,0,0,.11.75,4.61,4.61,0,0,0,.28.68,3.92,3.92,0,0,0,.37.59,5.86,5.86,0,0,0,.37.48,1.92,1.92,0,0,0,.26.32c.13.13.24.26.35.39l.3.36a.53.53,0,0,1,.13.21l0,.32Z"/><text class="cls-5" transform="translate(525.25 601.74)">j</text><line class="cls-4" x1="525.25" y1="613.69" x2="525.25" y2="596.61"/><path d="M518.86,614.57a3.15,3.15,0,0,1,.62-1,5,5,0,0,1,1-.83,4.54,4.54,0,0,1,1.18-.55,4.46,4.46,0,0,1,1.3-.2,2.86,2.86,0,0,1,1.14.22,1.93,1.93,0,0,1,.78.57,1.77,1.77,0,0,1,.36.84,2.14,2.14,0,0,1-.13,1,3.21,3.21,0,0,1-.64,1,4.15,4.15,0,0,1-1,.84,4.7,4.7,0,0,1-1.2.56,4.41,4.41,0,0,1-1.28.19,2.83,2.83,0,0,1-1.14-.21,2.12,2.12,0,0,1-.78-.59,1.62,1.62,0,0,1-.36-.85A2.14,2.14,0,0,1,518.86,614.57Z"/><line class="cls-4" x1="547.03" y1="613.69" x2="547.03" y2="596.61"/><path d="M540.64,614.57a3.15,3.15,0,0,1,.62-1,5,5,0,0,1,1-.83,4.61,4.61,0,0,1,1.19-.55,4.34,4.34,0,0,1,1.29-.2,2.86,2.86,0,0,1,1.14.22,1.93,1.93,0,0,1,.78.57,1.77,1.77,0,0,1,.36.84,2,2,0,0,1-.13,1,3.21,3.21,0,0,1-.64,1,4.15,4.15,0,0,1-1,.84,4.7,4.7,0,0,1-1.2.56,4.41,4.41,0,0,1-1.28.19,2.83,2.83,0,0,1-1.14-.21,2.12,2.12,0,0,1-.78-.59,1.62,1.62,0,0,1-.36-.85A2.14,2.14,0,0,1,540.64,614.57Z"/><text class="cls-5" transform="translate(567.1 604.3)">j</text><line class="cls-4" x1="567.1" y1="616.26" x2="567.1" y2="599.17"/><line class="cls-4" x1="559.27" y1="617.11" x2="568.66" y2="617.11"/><path d="M560.71,617.13a3.21,3.21,0,0,1,.63-1,4.3,4.3,0,0,1,1-.83,4.63,4.63,0,0,1,1.19-.56,4.33,4.33,0,0,1,1.29-.19,2.91,2.91,0,0,1,1.15.21,2,2,0,0,1,.78.58,1.77,1.77,0,0,1,.36.84,2.12,2.12,0,0,1-.14,1,3.22,3.22,0,0,1-.63,1,5,5,0,0,1-1,.84,4.67,4.67,0,0,1-1.2.55,4.38,4.38,0,0,1-1.28.2,2.86,2.86,0,0,1-1.14-.22,2,2,0,0,1-.77-.58,1.66,1.66,0,0,1-.36-.85A2.15,2.15,0,0,1,560.71,617.13Z"/><text class="cls-8" transform="translate(518.69 632.49)">c</text><text class="cls-8" transform="translate(523.19 632.49)">o</text><text class="cls-8" transform="translate(527.69 632.49)">n</text><text class="cls-8" transform="translate(560.55 632.49)">l</text><text class="cls-8" transform="translate(562.8 632.49)">a</text><path d="M504.1,667.68a5.38,5.38,0,0,0-.94-.31,3,3,0,0,0-.74-.1,1.68,1.68,0,0,0-1.12.39,1.4,1.4,0,0,0-.46,1.11,1,1,0,0,0,.16.51,3.84,3.84,0,0,0,.35.54,4.72,4.72,0,0,0,.54.57l-.25.2a8.11,8.11,0,0,1-1.23-.9,7.19,7.19,0,0,1-.89-.93,2.19,2.19,0,0,1-.5-1.1,1.61,1.61,0,0,1,0-.69,1.55,1.55,0,0,1,.31-.63,1.65,1.65,0,0,1,.55-.45,2,2,0,0,1,.77-.22h.39a3.29,3.29,0,0,1,.44.05l.41.06.32.05a26.43,26.43,0,0,1-2.23-2.38c-.5-.63-.71-1-.62-1.23l.44-.56a6.68,6.68,0,0,0,.58-.9,8.94,8.94,0,0,0,.51-1.08,3.08,3.08,0,0,0,.23-1.13,2.34,2.34,0,0,0-.23-.87c-.15-.35-.31-.69-.49-1l-.72-1.16.29-.21,3.73,4.7a9.17,9.17,0,0,0-.88,1.25,7,7,0,0,0-.61,1.15,3,3,0,0,0-.27,1.18,2.67,2.67,0,0,0,.11.75,4.61,4.61,0,0,0,.28.68,3.92,3.92,0,0,0,.37.59,5.86,5.86,0,0,0,.37.48,1.92,1.92,0,0,0,.26.32c.13.13.24.26.35.39l.3.36a.53.53,0,0,1,.13.21l0,.32Z"/><text class="cls-5" transform="translate(518.69 670.92)">J</text><line class="cls-4" x1="518.88" y1="658.96" x2="518.88" y2="676.05"/><path d="M518.86,658.13a3,3,0,0,1,.62-1,4.36,4.36,0,0,1,1-.83,4.57,4.57,0,0,1,1.18-.56,4.45,4.45,0,0,1,1.3-.19,2.86,2.86,0,0,1,1.14.21,2,2,0,0,1,.78.58,1.77,1.77,0,0,1,.36.84,2.11,2.11,0,0,1-.13,1,3.26,3.26,0,0,1-.64,1,4.7,4.7,0,0,1-2.18,1.39,4.43,4.43,0,0,1-1.28.2,2.83,2.83,0,0,1-1.14-.22,2.1,2.1,0,0,1-.78-.58,1.66,1.66,0,0,1-.36-.85A2.16,2.16,0,0,1,518.86,658.13Z"/><line class="cls-4" x1="540.67" y1="658.96" x2="540.67" y2="676.05"/><path d="M540.64,658.13a3,3,0,0,1,.62-1,4.36,4.36,0,0,1,1-.83,4.63,4.63,0,0,1,1.19-.56,4.33,4.33,0,0,1,1.29-.19,2.86,2.86,0,0,1,1.14.21,2,2,0,0,1,.78.58,1.77,1.77,0,0,1,.36.84,2,2,0,0,1-.13,1,3.26,3.26,0,0,1-.64,1,4.7,4.7,0,0,1-2.18,1.39,4.43,4.43,0,0,1-1.28.2,2.83,2.83,0,0,1-1.14-.22,2.1,2.1,0,0,1-.78-.58,1.66,1.66,0,0,1-.36-.85A2.16,2.16,0,0,1,540.64,658.13Z"/><text class="cls-5" transform="translate(560.55 673.49)">J</text><line class="cls-4" x1="560.74" y1="661.53" x2="560.74" y2="678.61"/><path d="M560.71,660.69a3.21,3.21,0,0,1,.63-1,4.58,4.58,0,0,1,1-.83,4.63,4.63,0,0,1,1.19-.56,4.33,4.33,0,0,1,1.29-.19,2.91,2.91,0,0,1,1.15.21,2,2,0,0,1,.78.58,1.77,1.77,0,0,1,.36.84,2.11,2.11,0,0,1-.14,1,3.22,3.22,0,0,1-.63,1,5,5,0,0,1-1,.84,4.67,4.67,0,0,1-1.2.55,4.38,4.38,0,0,1-1.28.2,2.7,2.7,0,0,1-1.14-.22,2,2,0,0,1-.77-.58,1.66,1.66,0,0,1-.36-.85A2.16,2.16,0,0,1,560.71,660.69Z"/><text class="cls-8" transform="translate(518.69 693.99)">c</text><text class="cls-8" transform="translate(523.19 693.99)">o</text><text class="cls-8" transform="translate(527.69 693.99)">n</text><text class="cls-8" transform="translate(560.55 693.99)">l</text><text class="cls-8" transform="translate(562.8 693.99)">a</text><path d="M277.18,549.2c3.63,4.7,14.73,4.7,18.36,0l-.17-.13c-3.46,3.55-14.56,3.55-18,0l-.17.13"/><path d="M277.18,615.83c3.63,3.84,14.73,3.84,18.36,0l-.15-.15c-3.48,2.71-14.58,2.71-18.06,0l-.15.15"/><path d="M277.18,651.49c3.63-3.84,14.73-3.84,18.36,0l-.15.15c-3.48-2.71-14.58-2.71-18.06,0l-.15-.15"/><path d="M443.53,551.77c3.63,3.84,14.73,3.84,18.36,0l-.15-.15c-3.48,2.71-14.58,2.71-18.06,0l-.15.15"/><path d="M443.53,618.6c3.63,3.85,14.73,3.85,18.36,0l-.15-.14c-3.48,2.71-14.58,2.71-18.06,0l-.15.14"/><path d="M443.53,654.27c3.63-4.7,14.73-4.7,18.36,0l-.17.13c-3.46-3.55-14.56-3.55-18,0l-.16-.13"/><path d="M523.6,551.77c3.63,3.84,14.74,3.84,18.37,0l-.16-.15c-3.47,2.71-14.58,2.71-18,0l-.16.15"/><path d="M523.6,618.6c3.63,3.85,14.74,3.85,18.37,0l-.16-.14c-3.47,2.71-14.58,2.71-18,0l-.16.14"/><path d="M523.6,654.27c3.63-4.7,14.74-4.7,18.37,0l-.17.13c-3.46-3.55-14.57-3.55-18,0l-.17-.13"/><text class="cls-8" transform="translate(196.13 570.98)">-</text><text class="cls-8" transform="translate(216.53 570.98)">-</text><text class="cls-8" transform="translate(196.13 632.49)">-</text><text class="cls-8" transform="translate(216.53 632.49)">-</text><text class="cls-8" transform="translate(196.13 693.99)">-</text><text class="cls-8" transform="translate(216.53 693.99)">-</text><text class="cls-8" transform="translate(244.39 570.98)">-</text><text class="cls-8" transform="translate(265.53 570.98)">-</text><line class="cls-4" x1="282.3" y1="570.77" x2="305.15" y2="570.77"/><text class="cls-8" transform="translate(244.39 632.49)">-</text><text class="cls-8" transform="translate(265.53 632.49)">-</text><line class="cls-4" x1="282.3" y1="632.27" x2="305.15" y2="632.27"/><text class="cls-8" transform="translate(244.39 693.99)">-</text><text class="cls-8" transform="translate(265.53 693.99)">-</text><line class="cls-4" x1="282.3" y1="693.77" x2="305.15" y2="693.77"/><text class="cls-8" transform="translate(349.88 570.98)">-</text><text class="cls-8" transform="translate(363.12 570.98)">-</text><text class="cls-8" transform="translate(376.68 570.98)">-</text><text class="cls-8" transform="translate(349.88 632.49)">-</text><text class="cls-8" transform="translate(363.12 632.49)">-</text><text class="cls-8" transform="translate(376.68 632.49)">-</text><text class="cls-8" transform="translate(349.88 693.99)">-</text><text class="cls-8" transform="translate(363.12 693.99)">-</text><text class="cls-8" transform="translate(376.68 693.99)">-</text><text class="cls-8" transform="translate(410.74 570.98)">-</text><text class="cls-8" transform="translate(431.24 570.98)">-</text><line class="cls-4" x1="446.94" y1="570.77" x2="467.02" y2="570.77"/><text class="cls-8" transform="translate(410.74 632.49)">-</text><text class="cls-8" transform="translate(431.24 632.49)">-</text><line class="cls-4" x1="446.94" y1="632.27" x2="467.02" y2="632.27"/><text class="cls-8" transform="translate(410.74 693.99)">-</text><text class="cls-8" transform="translate(431.24 693.99)">-</text><line class="cls-4" x1="446.94" y1="693.77" x2="467.02" y2="693.77"/><line class="cls-4" x1="534.71" y1="570.77" x2="547.31" y2="570.77"/><line class="cls-4" x1="534.71" y1="632.27" x2="547.31" y2="632.27"/><line class="cls-4" x1="534.71" y1="693.77" x2="547.31" y2="693.77"/><text class="cls-9" transform="translate(279.5 57.5)">N</text><text class="cls-9" transform="translate(296.75 57.5)">a</text><text class="cls-9" transform="translate(307.25 57.5)">y</text><text class="cls-9" transform="translate(319.25 57.5)">u</text><text class="cls-9" transform="translate(331.25 57.5)">r</text><text class="cls-9" transform="translate(339.5 57.5)">i</text><text class="cls-9" transform="translate(346.25 57.5)">b</text><text class="cls-9" transform="translate(358.25 57.5)">e</text><text class="cls-10" transform="translate(320.25 762.5)">©</text><text class="cls-11" transform="translate(72 45.25)">S</text><text class="cls-11" transform="translate(78.75 45.25)">c</text><text class="cls-11" transform="translate(84 45.25)">o</text><text class="cls-11" transform="translate(90 45.25)">r</text><text class="cls-11" transform="translate(93.75 45.25)">e</text><text class="cls-11" transform="translate(468.5 84.75)">A</text><text class="cls-11" transform="translate(477.5 84.75)">r</text><text class="cls-11" transform="translate(481.25 84.75)">r</text><text class="cls-11" transform="translate(485 84.75)">e</text><text class="cls-11" transform="translate(490.25 84.75)">g</text><text class="cls-11" transform="translate(496.25 84.75)">l</text><text class="cls-11" transform="translate(499.25 84.75)">o</text><text class="cls-11" transform="translate(505.25 84.75)">:</text><text class="cls-11" transform="translate(511.25 84.75)">F</text><text class="cls-11" transform="translate(518 84.75)">i</text><text class="cls-11" transform="translate(521 84.75)">d</text><text class="cls-11" transform="translate(527 84.75)">e</text><text class="cls-11" transform="translate(532.25 84.75)">l</text><text class="cls-11" transform="translate(538.25 84.75)">G</text><text class="cls-11" transform="translate(547.25 84.75)">a</text><text class="cls-11" transform="translate(552.5 84.75)">m</text><text class="cls-11" transform="translate(561.5 84.75)">b</text><text class="cls-11" transform="translate(567.5 84.75)">o</text><text class="cls-11" transform="translate(573.5 84.75)">a</text><text class="cls-11" transform="translate(414.5 98.5)">A</text><text class="cls-11" transform="translate(423.5 98.5)">d</text><text class="cls-11" transform="translate(429.5 98.5)">a</text><text class="cls-11" transform="translate(434.75 98.5)">p</text><text class="cls-11" transform="translate(440.75 98.5)">t</text><text class="cls-11" transform="translate(443.75 98.5)">a</text><text class="cls-11" transform="translate(449 98.5)">c</text><text class="cls-11" transform="translate(454.25 98.5)">i</text><text class="cls-11" transform="translate(457.25 98.5)">ó</text><text class="cls-11" transform="translate(463.25 98.5)">n</text><text class="cls-11" transform="translate(469.25 98.5)">:</text><text class="cls-11" transform="translate(475.25 98.5)">C</text><text class="cls-11" transform="translate(483.5 98.5)">o</text><text class="cls-11" transform="translate(489.5 98.5)">r</text><text class="cls-11" transform="translate(493.25 98.5)">o</text><text class="cls-11" transform="translate(502.25 98.5)">d</text><text class="cls-11" transform="translate(508.25 98.5)">e</text><text class="cls-11" transform="translate(516.5 98.5)">l</text><text class="cls-11" transform="translate(519.5 98.5)">a</text><text class="cls-11" transform="translate(527.75 98.5)">E</text><text class="cls-11" transform="translate(535.25 98.5)">s</text><text class="cls-11" transform="translate(539.75 98.5)">c</text><text class="cls-11" transform="translate(545 98.5)">u</text><text class="cls-11" transform="translate(551 98.5)">e</text><text class="cls-11" transform="translate(556.25 98.5)">l</text><text class="cls-11" transform="translate(559.25 98.5)">a</text><text class="cls-11" transform="translate(567.5 98.5)">d</text><text class="cls-11" transform="translate(573.5 98.5)">e</text><text class="cls-11" transform="translate(415.25 112.25)">C</text><text class="cls-11" transform="translate(423.5 112.25)">i</text><text class="cls-11" transform="translate(426.5 112.25)">e</text><text class="cls-11" transform="translate(431.75 112.25)">n</text><text class="cls-11" transform="translate(437.75 112.25)">c</text><text class="cls-11" transform="translate(443 112.25)">i</text><text class="cls-11" transform="translate(446 112.25)">a</text><text class="cls-11" transform="translate(451.25 112.25)">s</text><text class="cls-11" transform="translate(458.75 112.25)">d</text><text class="cls-11" transform="translate(464.75 112.25)">e</text><text class="cls-11" transform="translate(473 112.25)">l</text><text class="cls-11" transform="translate(476 112.25)">a</text><text class="cls-11" transform="translate(484.25 112.25)">E</text><text class="cls-11" transform="translate(491.75 112.25)">d</text><text class="cls-11" transform="translate(497.75 112.25)">u</text><text class="cls-11" transform="translate(503.75 112.25)">c</text><text class="cls-11" transform="translate(509 112.25)">a</text><text class="cls-11" transform="translate(514.25 112.25)">c</text><text class="cls-11" transform="translate(519.5 112.25)">i</text><text class="cls-11" transform="translate(522.5 112.25)">ó</text><text class="cls-11" transform="translate(528.5 112.25)">n</text><text class="cls-11" transform="translate(537.5 112.25)">-</text><text class="cls-11" transform="translate(544.25 112.25)">U</text><text class="cls-11" transform="translate(553.25 112.25)">N</text><text class="cls-11" transform="translate(562.25 112.25)">E</text><text class="cls-11" transform="translate(569.75 112.25)">D</text><text class="cls-12" transform="translate(287.75 85)">(</text><text class="cls-12" transform="translate(293.75 85)">T</text><text class="cls-12" transform="translate(303.5 85)">a</text><text class="cls-12" transform="translate(311.75 85)">m</text><text class="cls-12" transform="translate(326 85)">b</text><text class="cls-12" transform="translate(335 85)">i</text><text class="cls-12" transform="translate(340.25 85)">t</text><text class="cls-12" transform="translate(345.5 85)">o</text><text class="cls-12" transform="translate(354.5 85)">)</text></g></svg>