<svg id="para_exportar" data-name="para exportar" xmlns="http://www.w3.org/2000/svg" viewBox="0 0 190 190"><defs><style>.cls-1{fill:#fff;}</style></defs><path class="cls-1" d="M123.92,129.13a1.33,1.33,0,0,1,.19-.14,8.07,8.07,0,0,1,1.18-1.23l.2-.14a12.15,12.15,0,0,0-.47-1.27c-.21-.49-.49-.95-.73-1.42s-.48-1-.7-1.52a12.9,12.9,0,0,0-.74-1.43c-.23-.37-.46-.73-.66-1.11s-.43-.85-.64-1.28-.38-.75-.58-1.12a10.05,10.05,0,0,0-.78-1.25l-.87-1.2a14.55,14.55,0,0,0-1.13-1.34,4,4,0,0,0-.53-.48,8.9,8.9,0,0,0-.94-.67,6.19,6.19,0,0,0-.57-.3,8.53,8.53,0,0,0-1-.4,5.88,5.88,0,0,0-.7-.16,8.39,8.39,0,0,0-1-.13c-.43,0-.85,0-1.27,0a22.62,22.62,0,0,1-2.47,0,6.25,6.25,0,0,1-.74-.21,4.93,4.93,0,0,1-.73-.45q-.35-.27-.66-.57c-.21-.19-.42-.39-.61-.6l0,0a2.17,2.17,0,0,1-.07-.24,5,5,0,0,1,0-.67,4,4,0,0,1,.17-.68c.11-.21.26-.4.38-.61a3.47,3.47,0,0,0,.35-.85,2.45,2.45,0,0,0,0-1.26,2.05,2.05,0,0,0-.47-.87c-.08-.11-.15-.23-.22-.35s0-.06,0-.09v-.07l0-.13h0l0,0,.07,0h.17l.38.09a1.47,1.47,0,0,0,.75,0,1.11,1.11,0,0,0,.79-.78,1.39,1.39,0,0,0-.09-.9,3.9,3.9,0,0,0-.36-.74,6.36,6.36,0,0,0-.83-1c-.14-.14-.26-.29-.39-.43l-.1-.1a2,2,0,0,0,.11-.2c.07-.14.17-.27.25-.4s.19-.3.3-.44l.18-.24a7.31,7.31,0,0,0,1-1.66,1.44,1.44,0,0,0,0-1,1.23,1.23,0,0,0-.82-.81l-.19-.06c-.29-.13-.58-.27-.88-.37l-.52-.2-.28-.1.21-.18a8.27,8.27,0,0,1,.75-.45c.28-.15.52-.35.82-.48l-.08,0a8.69,8.69,0,0,0,.86-.44c.28-.16.53-.36.79-.54.62-.43,1.3-.78,1.91-1.22a4.26,4.26,0,0,0,.58-.47,7.23,7.23,0,0,0,.55-.69,6.14,6.14,0,0,0,.84-1.47,4.63,4.63,0,0,0-.05-3.2,5.27,5.27,0,0,1-.19-.56c0-.12.09-.24.14-.37a10.36,10.36,0,0,1,.52-.92c.21-.35.43-.69.65-1s.45-.72.7-1.07l.65-.91c.55-.69,1.16-1.33,1.73-2,.28-.33.59-.63.88-.94a10.41,10.41,0,0,1,.9-.86,4.64,4.64,0,0,1,.7-.45,7.55,7.55,0,0,1,.9-.25,1,1,0,0,0,.67-1.17,1,1,0,0,0-.94-.7.85.85,0,0,0-.23,0,7,7,0,0,0-1,.29,5,5,0,0,0-.93.45,8.94,8.94,0,0,0-1.67,1.39c-.21.22-.44.43-.66.65s-.47.52-.7.77c-.51.55-1,1.13-1.44,1.72-.27.36-.54.72-.78,1.09s-.48.8-.73,1.19-.42.72-.63,1.09A7.34,7.34,0,0,0,112,85a1.5,1.5,0,0,0-.21.68,2.46,2.46,0,0,0,.12.71c.07.22.16.44.25.66a3.66,3.66,0,0,1,.17.65,5,5,0,0,1,0,1,3.07,3.07,0,0,1-.14.52,7.38,7.38,0,0,1-.67,1.07,2.82,2.82,0,0,1-.33.36c-.56.4-1.19.68-1.76,1.06-.27.18-.53.37-.8.54a5,5,0,0,1-.69.36l-.28.11a4.3,4.3,0,0,0-.57.28c-.23.13-.46.27-.7.39a3.45,3.45,0,0,0-.84.62,3.28,3.28,0,0,0-.59.71,2.06,2.06,0,0,0-.21.48,1.88,1.88,0,0,0,0,.85,2,2,0,0,0,.93,1.15,2.88,2.88,0,0,0,.62.28l.52.2.49.19a13.57,13.57,0,0,1-.75,1.16c-.16.23-.29.48-.45.71s-.19.33-.3.49a2.56,2.56,0,0,0-.2.26,1.25,1.25,0,0,0-.12,1,2.17,2.17,0,0,0,.26.53,5.45,5.45,0,0,0,.38.46c.15.14.28.29.43.43l-.2.12a2.68,2.68,0,0,0-.66.64,2.23,2.23,0,0,0-.31,1.88,2.73,2.73,0,0,0,.33.69,5.71,5.71,0,0,0,.38.48l0,0s0,0,0,.07a1.33,1.33,0,0,1,0,.2,2.68,2.68,0,0,1-.07.27c-.11.21-.22.41-.35.61a4.5,4.5,0,0,0-.31.45,5.63,5.63,0,0,0-.58,1.63,3.5,3.5,0,0,0-.06,1,3.05,3.05,0,0,0,.13.67,4,4,0,0,0,.27.55,8.23,8.23,0,0,0,.57.75,6.41,6.41,0,0,0,2.51,2c.21.08.41.16.62.22a8.64,8.64,0,0,0,1,.15c.51.06,1,.06,1.53.07.69,0,1.38,0,2.07.07a5.87,5.87,0,0,1,1,.26,9.28,9.28,0,0,1,1.29.76,9.64,9.64,0,0,1,1.17,1.22,17.08,17.08,0,0,1,1.23,1.82c.18.32.34.66.5,1l.4.84c.29.68.59,1.36.94,2l.5.94c.16.31.3.64.44,1,.23.55.46,1.08.72,1.61s.48.82.69,1.24.25.67.35,1,.2.65.29,1l.1-.07a1.05,1.05,0,0,1,.41-.37A1,1,0,0,1,123.92,129.13Z"/><path class="cls-1" d="M126.05,138.19a23.18,23.18,0,0,0-3.63,5c-.1.3-.21.61-.33.91-.28.64-.6,1.27-.86,1.93s-.47,1.33-.7,2-.43,1.34-.6,2a2.68,2.68,0,0,0-.07.27,1,1,0,0,1,0,.23c-.07.26-.13.52-.2.78,0,.1,0,.2,0,.3s0,.29,0,.43v0a.59.59,0,0,0,.41.73.62.62,0,0,0,.46-.06.69.69,0,0,0,.27-.36,11.16,11.16,0,0,0,.37-1.25c.12-.49.23-1,.38-1.45.26-.83.57-1.65.9-2.46A9.07,9.07,0,0,1,123,146c.28-.45.57-.9.81-1.38s.48-1.11.7-1.67.43-1,.62-1.52a21,21,0,0,0,.95-3.13,2.07,2.07,0,0,1,0-.22Z"/><path class="cls-1" d="M122.4,147.17l0,.05,0-.05Z"/><path class="cls-1" d="M141.14,91.67a3.85,3.85,0,0,0-.85,1,.53.53,0,0,0,.6.79.59.59,0,0,0,.33-.25l.25-.35a2.44,2.44,0,0,1,.27-.29l.11-.06a1.89,1.89,0,0,1,.34-.09h.39a2.52,2.52,0,0,1,.47.13l.45.22a4.76,4.76,0,0,1,.47.31,3.5,3.5,0,0,1,.39.38,4.7,4.7,0,0,1,.39.69,6.41,6.41,0,0,1,.35,1.37,10.08,10.08,0,0,1,0,2,5.07,5.07,0,0,1-.29,1.08,5.27,5.27,0,0,1-.48.83,2.76,2.76,0,0,1-.29.3,3.3,3.3,0,0,1-.41.23,6.79,6.79,0,0,1-1.09.31,2.49,2.49,0,0,0-1.34.49.91.91,0,0,0-.14,1.08.89.89,0,0,0,1,.41,2.78,2.78,0,0,0,.4-.16l.19-.1c.27-.11.55-.21.83-.3a7,7,0,0,0,1.13-.46,3,3,0,0,0,.5-.35,4.14,4.14,0,0,0,.56-.63,4.48,4.48,0,0,0,.52-.9,4.78,4.78,0,0,0,.35-1.11,5.92,5.92,0,0,0,.11-1.19,6.9,6.9,0,0,0-.07-1,8.86,8.86,0,0,0-.23-1.25,5.57,5.57,0,0,0-.73-1.7,1.94,1.94,0,0,0-.21-.29,3.09,3.09,0,0,0-.33-.39,4.62,4.62,0,0,0-.73-.52,4.47,4.47,0,0,0-.84-.37,3.3,3.3,0,0,0-.92-.2h-.14a2.37,2.37,0,0,0-1.35.39Z"/><path class="cls-1" d="M121.55,76.48a.49.49,0,0,0,.33.58,18.62,18.62,0,0,1,2,.66,8.7,8.7,0,0,1,1.44.78,3.5,3.5,0,0,1,.38.39,2.78,2.78,0,0,1,.3.53c.23.6.41,1.23.59,1.85a15.13,15.13,0,0,0,.75,2,6.45,6.45,0,0,0,.49.89,6.94,6.94,0,0,0,.68.86,6.22,6.22,0,0,0,.75.7,7.19,7.19,0,0,0,.94.61l1,.52c.37.19.74.36,1.12.52s.71.34,1.06.53a7.69,7.69,0,0,1,.81.5,4.45,4.45,0,0,1,.48.49c.09.14.19.27.27.41s.24.43.37.64l.33.5a4.23,4.23,0,0,1,.25.47,9,9,0,0,1,.33,1.29c.09.4.18.8.24,1.21s.06.79.1,1.19.08.82.11,1.24c0,.22,0,.45,0,.68s0,.4,0,.6,0,.39,0,.58a2.26,2.26,0,0,1,0,.26,1.6,1.6,0,0,0,.05.49.94.94,0,0,0,.41.53.9.9,0,0,0,.68.09.83.83,0,0,0,.54-.41,3.09,3.09,0,0,0,.14-.32l-.05.11c.12-.28.22-.56.34-.84a17.34,17.34,0,0,1,.76-1.64c.15-.25.3-.5.46-.75s.3-.47.46-.7a3,3,0,0,1,.3-.32.87.87,0,0,0-.38-1.44.83.83,0,0,0-.67.09,2.3,2.3,0,0,0-.42.35,3.57,3.57,0,0,0-.3.38c-.13.18-.23.37-.35.56l-.17.28,0-.3a11.92,11.92,0,0,0-.36-2.23,7.27,7.27,0,0,0-.82-2,8,8,0,0,0-.62-.79l-.3-.44q-.21-.3-.45-.6a4.14,4.14,0,0,0-1-.88,9.51,9.51,0,0,0-1.14-.6c-.41-.2-.83-.35-1.25-.53s-.84-.4-1.26-.6c-.22-.11-.44-.21-.66-.33a4.65,4.65,0,0,1-.64-.41,7.22,7.22,0,0,1-1.09-1.12,8,8,0,0,1-.84-1.52c-.25-.6-.46-1.22-.69-1.83a7.91,7.91,0,0,0-.82-1.8,3.25,3.25,0,0,0-.74-.74,7,7,0,0,0-.87-.53,11.36,11.36,0,0,0-1.94-.81l-.76-.23H122a.48.48,0,0,0-.46.34Zm4.43,3v0Z"/><path class="cls-1" d="M141.9,100.54a.69.69,0,0,0-.68.67c0,.38,0,.76-.08,1.14-.07.55-.15,1.1-.19,1.65s-.06,1.12-.12,1.68a11.3,11.3,0,0,1-.22,1.16,10.5,10.5,0,0,1-.44,1.34,13.14,13.14,0,0,1-.73,1.51,14.77,14.77,0,0,1-1.05,1.53c-.57.73-1.16,1.43-1.76,2.13l-1.94,2.28-.94,1.07c-.33.38-.65.77-1,1.16A29.58,29.58,0,0,1,130.7,120c-.34.32-.7.61-1.06.92s-.74.66-1.11,1c-.72.69-1.48,1.33-2.24,2s-1.52,1.25-2.25,1.9-1.52,1.4-2.26,2.12-1.39,1.38-2,2.13a29.44,29.44,0,0,0-2,2.6c-.57.85-1.09,1.74-1.58,2.63s-.88,1.78-1.28,2.69c-.13.31-.27.61-.38.93s-.2.55-.29.83c-.16.44-.3.89-.44,1.34-.3,1-.53,1.93-.77,2.91a41.75,41.75,0,0,0-.94,6.08c0,.47-.09.93-.14,1.4l-.06.7a3.58,3.58,0,0,0,.08.92,1.16,1.16,0,0,0,2.24,0,3.88,3.88,0,0,0,.13-.83c0-.2,0-.4,0-.61,0-.43.06-.87.09-1.3.06-.92.13-1.85.23-2.77.09-.64.18-1.27.31-1.9s.32-1.4.49-2.1a32.42,32.42,0,0,1,1.31-4.2,34.46,34.46,0,0,1,1.73-3.5c.37-.61.73-1.21,1.12-1.8s.67-1,1-1.43.61-.75.92-1.11.63-.69,1-1l.28-.28A1,1,0,0,1,123,130l.08-.08a1,1,0,0,1,.21-.21l.25-.25a1.21,1.21,0,0,1,.19-.2l1-.93.08-.08.36-.34c1.29-1.2,2.65-2.32,3.93-3.53.73-.68,1.43-1.39,2.17-2.06.37-.34.74-.67,1.09-1s.72-.75,1.07-1.13c.65-.71,1.25-1.46,1.85-2.21l1.81-2.28c.3-.37.59-.74.88-1.12.61-.78,1.2-1.57,1.76-2.38.29-.41.59-.83.84-1.27a11.37,11.37,0,0,0,.68-1.46,11.77,11.77,0,0,0,.82-2.71c.08-.51.16-1,.19-1.54s.05-1,.08-1.47c0-.25,0-.51.07-.76.08-.57.13-1.14.16-1.71A.68.68,0,0,0,141.9,100.54Z"/><path class="cls-1" d="M138.36,111.26l-.05.06.05-.06Z"/><path class="cls-1" d="M165.41,97c0-.64,0-1.28-.11-1.92s-.17-1.44-.27-2.16c-.16-1.14-.35-2.28-.58-3.41s-.54-2.44-.87-3.64a28.19,28.19,0,0,0-1.27-3.69c-.24-.54-.46-1.09-.71-1.63s-.57-1.16-.88-1.73a35.07,35.07,0,0,0-1.8-3.09,26.59,26.59,0,0,0-2.29-3,25.24,25.24,0,0,0-2.54-2.42c-.51-.43-1-.84-1.57-1.23a16.29,16.29,0,0,0-1.5-1,28.23,28.23,0,0,0-3.46-1.67l-1.63-.64-1.6-.61a16.5,16.5,0,0,0-3.55-.75,14.84,14.84,0,0,0-1.63-.09c-.54,0-1.08,0-1.63,0a19.93,19.93,0,0,0-2.78.35c-.75.14-1.5.35-2.24.55s-1.48.44-2.21.68c-.39.13-.78.27-1.17.43s-.71.33-1.07.49-.86.31-1.27.5a10.14,10.14,0,0,0-1.3.7,14.49,14.49,0,0,0-1.28.94,11.11,11.11,0,0,0-1.09,1,13.68,13.68,0,0,0-1.89,2.4l-.39.64a5.67,5.67,0,0,0-.33.75,6.41,6.41,0,0,0-.35,1.56.67.67,0,0,0,.2.48.68.68,0,0,0,.94,0,.77.77,0,0,0,.2-.48h0a5.81,5.81,0,0,1,.33-1.24,8.73,8.73,0,0,1,.9-1.42,14.13,14.13,0,0,1,1-1.17,10.66,10.66,0,0,1,1.17-1.06c.35-.27.7-.52,1.07-.76a10.88,10.88,0,0,1,1.21-.66c.61-.23,1.25-.4,1.86-.63.34-.13.67-.25,1-.35s.8-.2,1.2-.29c1.41-.33,2.82-.63,4.25-.85a22.47,22.47,0,0,1,4.78,0,21.08,21.08,0,0,1,2.07.42,17.77,17.77,0,0,1,2,.7l1.8.77-.33-.13c.95.41,1.89.85,2.8,1.34.44.23.87.48,1.28.74s.8.54,1.19.83a25.09,25.09,0,0,1,2.13,1.86,29.06,29.06,0,0,1,2,2.19A36.52,36.52,0,0,1,159,82.19c.06.15.12.3.19.45.3.72.6,1.45.83,2.19s.49,1.61.68,2.42.41,1.71.56,2.57.26,1.5.38,2.25c.11.93.24,1.87.3,2.8a31.4,31.4,0,0,1,.07,3.22c0,1.08-.13,2.14-.25,3.22-.1.93-.2,1.87-.31,2.8s-.26,1.61-.44,2.4-.44,1.78-.71,2.66-.53,1.62-.82,2.42-.58,1.65-.9,2.46a29,29,0,0,1-1.33,2.68c-.28.49-.56,1-.87,1.44s-.66,1-1,1.43a23.52,23.52,0,0,1-1.57,1.87,26,26,0,0,1-2.13,2c-.94.7-1.88,1.39-2.86,2a21.57,21.57,0,0,1-2.82,1.47c-.57.22-1.13.46-1.67.72s-.85.44-1.28.66l-1.25.68c-.43.23-.88.43-1.32.62l.2-.09c-.81.35-1.6.7-2.39,1.07l-2,.92a23.76,23.76,0,0,0-3.2,1.48,34.65,34.65,0,0,0-3,2.05c-1.08.79-2.13,1.61-3.13,2.48a16,16,0,0,0-1.8,1.88,1.59,1.59,0,0,0-.25.33c-.17.21-.32.42-.48.64a18.6,18.6,0,0,0-1.79,3.05c-.29.63-.52,1.28-.75,1.93s-.37,1-.55,1.54c-.37,1.11-.75,2.21-1.17,3.31-.28.75-.56,1.51-.85,2.27-.1.3-.2.6-.32.89a1,1,0,0,1-.1.37h0a1.73,1.73,0,0,1-.29.93,1.76,1.76,0,0,0,.86,1.53h0c.31-.63.64-1.25,1-1.88s.44-1,.68-1.49.49-.94.74-1.41c.44-.86.93-1.68,1.31-2.55l.08-.17a17.05,17.05,0,0,1,1-2.17l1-1.7a26.22,26.22,0,0,1,2.46-3.71l0,.06a14.78,14.78,0,0,1,3.29-3.22c.38-.27.75-.56,1.14-.81s.81-.51,1.23-.75a12,12,0,0,1,1.12-.6c.38-.16.7-.42,1.07-.59.9-.4,1.85-.7,2.76-1.06.34-.13.69-.25,1-.39l.91-.31.44-.19a8.51,8.51,0,0,1,.83-.34l.23-.08c.49-.22,1-.47,1.44-.74a8.6,8.6,0,0,1,1.36-.59,6.61,6.61,0,0,1,1-.22l.14,0,1.1-.55c.55-.22,1.1-.45,1.64-.69s1-.5,1.56-.78a27.12,27.12,0,0,0,3-2c.62-.46,1.23-.94,1.82-1.44s.87-.79,1.28-1.21a16.71,16.71,0,0,0,1.4-1.63l1.07-1.42a29.23,29.23,0,0,0,3.61-6.72c.44-1.13.82-2.28,1.2-3.43.18-.53.32-1.06.47-1.59s.32-1.15.45-1.73c.27-1.28.49-2.57.66-3.86s.28-2.45.41-3.67A27.72,27.72,0,0,0,165.41,97Z"/><path class="cls-1" d="M150.33,127.85a1,1,0,0,0-.36,1.39c.31.53.63,1.06,1,1.58a15.06,15.06,0,0,0,1.22,1.66c.41.49.86,1,1.29,1.44s.78.87,1.15,1.31a19.11,19.11,0,0,1,1.25,2c.39.7.7,1.45,1,2.18s.68,1.49,1,2.23.65,1.36,1,2.05a17.93,17.93,0,0,1,.83,2.67c.21.94.41,1.88.56,2.82,0,.29.07.59.1.88s.19,9.39.31,9.79a1,1,0,0,0,2-.27c0-.24-.13-9-.14-9.26a7,7,0,0,0-.05-.79c-.07-.62-.15-1.24-.28-1.85-.23-1-.43-2.08-.75-3.09-.18-.53-.37-1.06-.59-1.59s-.49-1.09-.75-1.64c-.46-1-.92-1.95-1.39-2.92-.35-.72-.69-1.45-1.06-2.17a14.43,14.43,0,0,0-1.35-2.1c-.52-.68-1.1-1.29-1.67-1.92s-1-1.08-1.45-1.65c-.53-.75-1-1.55-1.47-2.35a1,1,0,0,0-1.39-.36Z"/><path class="cls-1" d="M160.16,146.75a2.12,2.12,0,0,0-.71.34c-.17.11-.35.21-.53.31s-.67.32-1,.48c-.6.28-1.18.59-1.79.86l-1.14.46-1.23.42c-.43.14-.86.28-1.28.45s-.9.38-1.35.57c-.6.24-1.2.48-1.82.66s-1.25.35-1.88.52-1.33.37-2,.52-1.31.27-2,.37c-1.81.24-3.64.38-5.47.45-1,.05-2,0-3,0l-1.36,0-1.44,0c-.55,0-1.09-.05-1.64-.11-.78-.12-1.55-.3-2.33-.44s-1.58-.25-2.36-.4-1.59-.34-2.38-.52a10.58,10.58,0,0,0-1.23-.22,9.51,9.51,0,0,0-1.31,0,.61.61,0,0,0-.61.61.63.63,0,0,0,.61.61,10.11,10.11,0,0,1,1.1,0,9.18,9.18,0,0,1,1.15.28l1.3.38c.85.25,1.71.43,2.58.6s1.8.39,2.7.58a20.26,20.26,0,0,0,3,.34c.94.06,1.87.14,2.8.18s2,.06,3,0,1.85-.07,2.78-.14,2.06-.17,3.09-.31,1.83-.31,2.74-.53,1.69-.38,2.52-.61a27.41,27.41,0,0,0,2.68-.94c.8-.31,1.61-.56,2.41-.83a30.65,30.65,0,0,0,3-1.25c.33-.13.65-.26,1-.41l.89-.4c.26-.11.52-.21.77-.33l.34-.18.19-.09a1.69,1.69,0,0,0,.38-.28,1.18,1.18,0,0,0,.18-1.44,1.06,1.06,0,0,0-.42-.42,1.14,1.14,0,0,0-.59-.16,2.11,2.11,0,0,0-.33,0Z"/><path class="cls-1" d="M111.7,153.22a92.12,92.12,0,0,1-8.49,27.24c-.59,1.2,1.21,2.26,1.81,1a94.47,94.47,0,0,0,8.7-27.73c.19-1.32-1.82-1.89-2-.56Z"/><path class="cls-1" d="M89.64,76c-.33.6-.68,1.18-1,1.79a7.6,7.6,0,0,1-.46.78,3.4,3.4,0,0,0-.44.79l-.13.33a2.47,2.47,0,0,0-.1.53c0,.21,0,.43,0,.64a4.13,4.13,0,0,0,.17,1.1c.08.29.17.58.27.86s.26.66.4,1,.33.6.47.91v0c0,.09.07.17.11.26.11.3.18.6.29.89s.13.42.2.63.18.43.25.66l.22.6c.07.19.11.38.17.57a5.36,5.36,0,0,1,.17.57c0,.19.07.37.1.56v-.07a3,3,0,0,1,0,.6,2.5,2.5,0,0,1-.07.26.56.56,0,0,1-.09.17l-.1.1-.11.08.09-.07a.72.72,0,0,1-.19.11h0l-.15.06.1,0a.83.83,0,0,1-.21.06,5.77,5.77,0,0,1-.72,0l-.71,0a1.55,1.55,0,0,1-.31-.07l-.31-.16c-.12-.06-.24-.1-.36-.15l-.33-.15a1.56,1.56,0,0,0-.42-.08.81.81,0,0,0-.65.33,1,1,0,0,0-.23.4L85.5,91a3.2,3.2,0,0,0-.09.62,4.47,4.47,0,0,0,0,.52,4.55,4.55,0,0,0,.09.73c0,.17.08.33.11.49a4.19,4.19,0,0,1,0,.5,3.85,3.85,0,0,1,0,.48l0,.14a.57.57,0,0,1-.08.13h0l-.26-.08a2.85,2.85,0,0,0-.64-.22,1.75,1.75,0,0,0-.51,0,1.33,1.33,0,0,0-.67.19,1.22,1.22,0,0,0-.43.47,1.29,1.29,0,0,0-.11.82,2.06,2.06,0,0,0,.51.85l.1.17a.86.86,0,0,1,.06.23s0,.06,0,.08l0,.08,0,0-.18,0a5.28,5.28,0,0,1-.56,0,7.71,7.71,0,0,0-.84.07l-.59.11a1.15,1.15,0,0,0-.87.84,4.56,4.56,0,0,0,0,1.38,8.25,8.25,0,0,1,0,1.22,1.82,1.82,0,0,1-.11.4,2.48,2.48,0,0,1-.27.47l-.18.19-.2.11a2,2,0,0,1-.35.09,5.35,5.35,0,0,1-1.13,0l-.94-.14-1-.07c-.63,0-1.25,0-1.87-.1-.3,0-.6-.09-.89-.15s-.69-.17-1-.26c-.65-.15-1.3-.33-2-.49a8.46,8.46,0,0,0-1-.22,6.36,6.36,0,0,0-.75-.08,2,2,0,0,0-1,.24,2.31,2.31,0,0,0-1,1A6.39,6.39,0,0,0,66.4,103c-.12.41-.21.83-.34,1.24s-.27.87-.44,1.3l-.36.83v0c-.09.21-.18.42-.29.63A.8.8,0,0,0,66.07,108a2.57,2.57,0,0,0,.4-.34c.1-.11.18-.24.27-.36a5.6,5.6,0,0,0,.27-.55c.23-.49.43-1,.62-1.5s.29-.82.42-1.24.21-.68.35-1a1.51,1.51,0,0,1,.15-.28l0,0,.09-.06h0a4.36,4.36,0,0,1,.51,0c.61.1,1.21.26,1.82.4l1.07.23c.35.08.69.18,1,.23s.79.1,1.19.13a9.2,9.2,0,0,0,1,0c.67,0,1.35,0,2,0a8.35,8.35,0,0,0,1,0c.36,0,.7-.11,1-.17a2.84,2.84,0,0,0,.89-.3,2.64,2.64,0,0,0,.92-.9,3.77,3.77,0,0,0,.4-.92,3.45,3.45,0,0,0,.1-1c0-.31,0-.63,0-.94a5.75,5.75,0,0,1,0-.83,4.86,4.86,0,0,1,1-.24,7.68,7.68,0,0,0,.82-.11,1.5,1.5,0,0,0,1-.75,1.31,1.31,0,0,0,.13-.78,1.86,1.86,0,0,0-.11-.52,2.77,2.77,0,0,0-.22-.46l-.14-.21h.15c.17,0,.32.08.48.12a1.8,1.8,0,0,0,.8,0,1,1,0,0,0,.54-.3,1.77,1.77,0,0,0,.28-.43,1.66,1.66,0,0,0,.18-.53,3.87,3.87,0,0,0,0-.68,6.08,6.08,0,0,0,0-.61c0-.22-.08-.43-.12-.64a5.35,5.35,0,0,1,0-1,1.57,1.57,0,0,1,.08-.29l.11,0c.12,0,.25.08.37.12l.37.16a2.91,2.91,0,0,0,.58.09,8.44,8.44,0,0,0,.87,0,6.71,6.71,0,0,0,.9-.12,1.75,1.75,0,0,0,.66-.35,2,2,0,0,0,.39-.37,1.06,1.06,0,0,0,.11-.21,3,3,0,0,0,.17-.37,2.93,2.93,0,0,0,.13-.83,3.87,3.87,0,0,0,0-.76c0-.25-.09-.48-.14-.73s-.1-.41-.16-.61-.14-.44-.22-.66-.17-.44-.24-.67a3,3,0,0,1-.1-.32c0-.1-.07-.2-.09-.29s-.09-.36-.14-.53l-.17-.53a6.78,6.78,0,0,0-.33-.85v0l-.08-.19a9,9,0,0,1-.33-1,9.64,9.64,0,0,1-.26-1.06,4.83,4.83,0,0,1,0-.85,4.27,4.27,0,0,1,.18-.61c.09-.17.18-.34.28-.51a6.15,6.15,0,0,0,.41-.81c.28-.59.6-1.16.92-1.73a.71.71,0,0,0-.26-1,.62.62,0,0,0-.35-.1.68.68,0,0,0-.61.35Zm-2.9,15.15,0,0,0,0Zm-2.56,4.3v0Zm-.13.17,0,0,0,0Zm-2.33,3.07v0Zm-7.47,3.1h0Zm4,.34.08,0-.08,0Zm-12.91,4,0,.08,0-.08Z"/><path class="cls-1" d="M16.33,145.44c-.06-1.09.24,1.43.23.34s0-2,0-3a48.6,48.6,0,0,1,.28-5.25q.43-2.87,1.05-5.7a30.67,30.67,0,0,1,.77-3l.48-1.47c.15-.46.33-.91.5-1.36.3-.79.61-1.57.92-2.36s.65-1.44,1-2.15l.56-1.09c.19-.37.37-.76.57-1.13.42-.77.88-1.52,1.33-2.27a23.21,23.21,0,0,1,1.38-2l.83-1.08,1.08-1.43,1.11-1.4c.49-.61.95-1.24,1.43-1.87L30,109c.31-.4.64-.81.92-1.24s.45-.77.66-1.17a11.07,11.07,0,0,0,.94-2.64,14.6,14.6,0,0,0,.45-2.8c0-.41,0-.83.09-1.24s.08-.72.13-1.08a16.11,16.11,0,0,1,.32-1.71c.11-.46.23-.92.38-1.36h0c.25,0,.51,0,.77,0a10.61,10.61,0,0,1,1.69.06,8.27,8.27,0,0,1,1.83.5c.36.15.72.3,1.08.43s.76.23,1.13.35c.59.18,1.2.33,1.79.52s1.14.42,1.7.65,1.33.68,2,1l0,0,.33.14,0,0c.38.17.75.36,1.15.52l1.12.4c.56.21,1.13.39,1.68.61.34.15.68.31,1,.48s.72.33,1.06.52c.8.43,1.61.81,2.39,1.26l1,.55.51.32a4.89,4.89,0,0,0,.73.35,9.21,9.21,0,0,0,1,.31c.32.1.64.22,1,.35a6.71,6.71,0,0,1,.92.48c.28.17.57.35.87.5s.51.3.77.45a6.79,6.79,0,0,1,.67.42h0a5.67,5.67,0,0,0,.87.57c.31.15.59.35.9.51l.45.22c.17.08.32.19.49.29s.64.35.93.56a7.22,7.22,0,0,1,.79.87.29.29,0,0,0,.4,0,.28.28,0,0,0,0-.4,7.5,7.5,0,0,0-.85-.93c-.33-.28-.73-.48-1.08-.73s-.65-.4-1-.61l-.47-.34-.46-.31c-.19-.15-.37-.32-.55-.49s-.41-.32-.62-.48c-.45-.32-.92-.62-1.38-.94a10.76,10.76,0,0,0-1.67-.9c-.48-.22-1-.38-1.49-.57a2.55,2.55,0,0,1-.46-.25l-.5-.35c-.32-.22-.66-.39-1-.59-.72-.45-1.47-.85-2.21-1.27s-1.38-.74-2.09-1.08-1.33-.53-2-.8l-.88-.38c-.34-.15-.68-.34-1-.51s-.71-.34-1.06-.53-.57-.32-.86-.46-.85-.38-1.28-.54-.64-.26-1-.35l-1.09-.29q-.55-.14-1.11-.3c-.4-.12-.8-.22-1.2-.37s-1-.44-1.46-.64a8,8,0,0,0-1.3-.34A10,10,0,0,0,35.42,94l-.71,0a3.85,3.85,0,0,1-.48,0,4.88,4.88,0,0,0-.84-.13,1.33,1.33,0,0,0-.28,0h0c-.59.14-.94.74-1.18,1.24s-.38.91-.57,1.37a10,10,0,0,0-.42,1.2c-.47,1.7-.58,3.48-1.17,5.15-.16.46-.34.92-.53,1.37a9.1,9.1,0,0,1-.49,1c-.25.41-.48.83-.76,1.22s-.5.69-.76,1-.57.8-.85,1.19c-.56.78-1.14,1.53-1.7,2.3s-1.1,1.54-1.65,2.31a23.16,23.16,0,0,0-1.57,2.45c-.49.87-1,1.74-1.42,2.66s-.86,1.78-1.27,2.68-.85,2-1.23,3a49.78,49.78,0,0,0-1.87,5.73c-.23,1-.43,2-.61,3s-.37,2-.53,3-.28,2.17-.37,3.27-.11,2-.11,2.94M34,95.5Zm15.13,3.39.07,0-.07,0Zm-2.84.53.09,0-.09,0Zm11.07,3.81.08,0-.08,0ZM58.72,105l.05,0-.05,0Z"/><path class="cls-1" d="M65.67,108.94c.25.15.49.3.72.47A4.07,4.07,0,0,1,67,110l.09.16.06.2a.81.81,0,0,1,0,.16c0,.27-.14.53-.2.79s-.08.56-.11.84A4.66,4.66,0,0,0,66.9,114c0,.13.1.25.15.37s.1.21.16.31a6.72,6.72,0,0,0,.5.69c.36.44.78.83,1.13,1.28.21.3.42.6.6.91s.36.7.52,1.06c.24.61.43,1.25.62,1.88s.41,1.48.56,2.24c.06.35.13.71.2,1.06s.13.65.2,1,.15.68.22,1,.16.79.23,1.18c.13.73.24,1.46.37,2.19s.28,1.62.43,2.42c.28,1.54.62,3.07,1,4.6.18.77.37,1.54.56,2.31s.36,1.56.53,2.34c.08.35.16.71.25,1.06s.22.83.34,1.24.24.76.35,1.15l.33,1.09c.48,1.56.94,3.13,1.45,4.68.25.76.55,1.51.85,2.26s.57,1.4.83,2.11.58,1.55.86,2.33.5,1.49.76,2.24.5,1.44.72,2.17.51,1.64.76,2.47c.46,1.53.88,3.07,1.33,4.6.1.34.21.68.31,1l.33,1.16.33,1.23c.11.41.2.82.3,1.23.35,1.53.6,3.08,1,4.61.19.77.4,1.54.66,2.29.06.17.11.35.18.51s.17.47.28.7.35.73.54,1.1.49.92.75,1.37a.6.6,0,0,0,1-.59c-.23-.42-.44-.85-.66-1.27-.09-.19-.2-.38-.29-.58s-.17-.39-.26-.58-.12-.34-.19-.51-.13-.41-.2-.61-.2-.67-.29-1-.23-.86-.33-1.29-.17-.75-.25-1.13c-.16-.76-.29-1.52-.45-2.27s-.34-1.64-.55-2.45-.42-1.54-.63-2.3c-.1-.35-.21-.69-.31-1s-.23-.8-.34-1.2c-.22-.79-.45-1.58-.67-2.37s-.45-1.53-.67-2.29-.45-1.52-.7-2.26-.54-1.6-.8-2.4-.5-1.43-.76-2.14-.56-1.5-.85-2.24l-.43-1.08c-.17-.42-.33-.84-.49-1.27-.29-.74-.52-1.49-.76-2.25s-.47-1.5-.7-2.25-.47-1.52-.7-2.29c-.11-.35-.23-.71-.33-1.07s-.13-.43-.19-.64-.12-.43-.17-.65c-.2-.78-.36-1.57-.54-2.35s-.37-1.54-.56-2.3-.35-1.44-.52-2.16c-.37-1.55-.7-3.11-1-4.68l-.42-2.23c-.13-.77-.28-1.53-.45-2.29s-.34-1.34-.5-2c-.08-.36-.14-.72-.22-1.08s-.17-.73-.26-1.09-.22-.75-.35-1.12-.2-.64-.32-1a10.9,10.9,0,0,0-.92-2,10.06,10.06,0,0,0-.59-.86,5.54,5.54,0,0,0-.37-.45c-.12-.12-.24-.25-.37-.37a14,14,0,0,1-1.26-1.29,3.38,3.38,0,0,1-.24-.41,3.16,3.16,0,0,1-.13-.53c0-.36,0-.71,0-1.06a8.44,8.44,0,0,1,0-.87c0-.17.06-.35.08-.52a1.27,1.27,0,0,0,0-.28,1.15,1.15,0,0,0-.07-.36,1.29,1.29,0,0,0-.17-.33,2.33,2.33,0,0,0-.26-.28c-.17-.15-.33-.3-.51-.43s-.42-.28-.64-.41a.16.16,0,0,0-.09,0,.19.19,0,0,0-.1.34Zm1.81,1.79v0Z"/><path class="cls-1" d="M38.71,63.52a8.24,8.24,0,0,0-.38,1.19c-.06.45-.1.89-.12,1.34s-.08.81-.12,1.22-.09.91-.12,1.37c0,.83-.09,1.66-.17,2.49s-.19,1.64-.25,2.46a16.84,16.84,0,0,0,0,2.46A18.23,18.23,0,0,0,38,78.58c.08.38.15.75.25,1.13s.21.73.31,1.1c.19.69.45,1.36.69,2,.11.32.22.63.35.94s.28.54.43.81.29.49.46.73A8.22,8.22,0,0,0,41,86l.26.34a2,2,0,0,1,.12.21,1.09,1.09,0,0,1,0,.17,2.16,2.16,0,0,1,0,.44,15.9,15.9,0,0,1-.84,2.94c-.18.5-.39,1-.57,1.47a5,5,0,0,0-.24.78,5.76,5.76,0,0,0-.12,1.44,1,1,0,0,0,2,0c0-.08,0-.16,0-.24a4.73,4.73,0,0,1,.21-.76c.08-.24.17-.47.26-.7l.42-1v0l.07-.15,0,.08a16.42,16.42,0,0,0,.72-1.92,12.41,12.41,0,0,0,.44-2,3.2,3.2,0,0,0,0-.44,2,2,0,0,0-.11-.64,3.21,3.21,0,0,0-.59-1c-.31-.39-.68-.72-1-1.1a7.3,7.3,0,0,1-.82-1.3l-.4-1,0,.09,0-.13,0-.1,0,.08c-.05-.13-.11-.27-.17-.4-.16-.41-.3-.83-.45-1.24s-.35-.92-.49-1.39-.28-.93-.43-1.39A10.87,10.87,0,0,1,39,75.75a16.81,16.81,0,0,1-.11-2.35c0-.82.1-1.64.15-2.46s0-1.66.06-2.5.12-1.7.14-2.55c0-.32,0-.65.07-1a6.66,6.66,0,0,1,.36-1.15.48.48,0,0,0-.33-.58l-.13,0a.5.5,0,0,0-.46.35Zm2.62,19.19,0,.06,0-.06Zm1.26,8.34v0l0,.09a1.08,1.08,0,0,0,.08-.19l0,.07Zm-1.73-9.47,0,0,0-.06v0Z"/><path class="cls-1" d="M61.61,29.49a9.23,9.23,0,0,0-1.4.15,10.14,10.14,0,0,0-2.46.87,11,11,0,0,0-1.69,1,12.9,12.9,0,0,0-1.56,1.4c-.41.44-.81.9-1.19,1.37-.23.28-.46.57-.67.87s-.36.53-.55.79l-.67.81c-.31.38-.61.78-.9,1.18s-.43.65-.64,1-.45.62-.65.94a5.24,5.24,0,0,0-.3.51c-.1.19-.18.39-.28.59a6.76,6.76,0,0,0-.42,1A5.87,5.87,0,0,0,48,43.22c0,.37-.07.73-.11,1.09s0,.45,0,.67A1,1,0,0,0,47,45a2,2,0,0,1-.29.15l-.59.26a5.79,5.79,0,0,0-.54.31c-.29.17-.6.36-.91.51a8.82,8.82,0,0,1-1.12.3c-.45.1-.91.19-1.37.26-.75.09-1.5.18-2.24.25l-1.27.13-1.28.12a44,44,0,0,0-5.34,1,11.53,11.53,0,0,0-2.56.93,7.41,7.41,0,0,0-1.18.8,4.84,4.84,0,0,0-1.14,1.4,4.57,4.57,0,0,0-.55,1.35,3.63,3.63,0,0,0,.06,2,3.22,3.22,0,0,0,.23.5,2.4,2.4,0,0,0,.28.37l.15.18c.14.14.29.27.44.4.37.31.76.6,1.15.88,1.4,1,2.85,1.9,4.28,2.84a21.57,21.57,0,0,0,2.24,1.28c.79.38,1.57.75,2.37,1.11a25.66,25.66,0,0,0,2.54,1.06c.82.27,1.66.49,2.49.72l1.33.38c.43.12.86.28,1.28.42.85.29,1.68.6,2.53.87s1.66.47,2.5.69,1.65.49,2.48.71c1.74.46,3.5.82,5.26,1.2.84.18,1.67.37,2.51.57s1.85.48,2.77.72,1.63.37,2.44.54,1.76.4,2.63.63l2.67.71,2.5.61c.91.23,1.83.45,2.74.7l2.49.64c.87.22,1.76.38,2.64.59l2.58.61c1.6.38,3.23.59,4.84.92a14.83,14.83,0,0,0,2.65.37c.82,0,1.65,0,2.48-.06l1.26-.07c.45,0,.91,0,1.36-.06.83-.06,1.67-.16,2.49-.26a26.67,26.67,0,0,0,5.08-1.06,12.28,12.28,0,0,0,1.3-.54c.35-.17.7-.34,1-.54a4.37,4.37,0,0,0,1.88-1.83,4.93,4.93,0,0,0,.31-.75,2.69,2.69,0,0,0,0-1.38,3.83,3.83,0,0,0-.63-1.28,3.36,3.36,0,0,0-.39-.52,3.65,3.65,0,0,0-.54-.41c-.17-.11-.35-.22-.54-.32s-.41-.18-.61-.26c-.56-.25-1.07-.57-1.61-.86-.28-.15-.57-.27-.86-.39a5.91,5.91,0,0,1-.9-.47,9.28,9.28,0,0,1-.83-.56c-.27-.2-.54-.41-.82-.6-.56-.38-1.15-.71-1.7-1.1s-.82-.66-1.24-1-.83-.6-1.25-.9-.8-.66-1.19-1a15.08,15.08,0,0,1-1.22-1.18c-.35-.41-.7-.82-1.06-1.22s-.69-.7-1-1.08a5.06,5.06,0,0,1-.4-.68,10,10,0,0,1-.33-1.06,11.6,11.6,0,0,1-.19-1.18c-.1-.81-.22-1.62-.28-2.44s0-1.66-.1-2.48S91.1,46.83,91,46s-.14-1.65-.2-2.47c0-.5-.1-1-.17-1.47l0,.25a12.21,12.21,0,0,0-.53-2.61,4.82,4.82,0,0,0-.54-1.12,7.39,7.39,0,0,0-.62-.85,9.7,9.7,0,0,0-.81-1c-.28-.28-.57-.53-.87-.79a7.81,7.81,0,0,0-1.18-.87,6.54,6.54,0,0,0-1.27-.56,15.45,15.45,0,0,0-2.24-.62,15.8,15.8,0,0,0-2.75-.14H77.59a23,23,0,0,1-2.35-.11l-.59-.08h0c-.6-.09-1.2-.17-1.8-.21s-1-.07-1.5-.13a13.51,13.51,0,0,1-1.87-.39A13.91,13.91,0,0,1,68,32.25a5.78,5.78,0,0,1-1.11-.7c-.25-.2-.5-.4-.76-.58s-.62-.41-.91-.63a4.84,4.84,0,0,0-.92-.6,3.35,3.35,0,0,0-1.43-.28h-.09q-.57,0-1.14,0Zm.45,1.56a8,8,0,0,1,1.2,0,1.87,1.87,0,0,1,.32.08,2.73,2.73,0,0,1,.43.26l.59.47c.19.15.39.28.58.42a13.45,13.45,0,0,0,1.62,1.31c.29.17.59.31.88.47s.72.35,1.09.51a8.39,8.39,0,0,0,1.08.33c.35.09.7.18,1.06.24s.87.17,1.31.22l1,.11c.75.12,1.5.26,2.25.35s1.5.11,2.25.12L80,36h.61a12,12,0,0,1,1.47,0c.44.07.87.16,1.3.27a11.24,11.24,0,0,1,1.4.41c.16.07.3.15.45.23a4.14,4.14,0,0,1,.48.34c.39.31.78.62,1.14,1a9.47,9.47,0,0,1,.88,1,5.09,5.09,0,0,1,.57.95,11.48,11.48,0,0,1,.56,2.6c.1.81.12,1.63.19,2.45s.15,1.68.22,2.53.12,1.65.14,2.48a22.7,22.7,0,0,0,.22,2.46c.21,1.61.38,3.39,1.4,4.72a4.51,4.51,0,0,0,.45.53c.14.15.29.28.44.42s.57.6.86.91.5.57.77.84.61.59.93.88.81.72,1.23,1.06.91.71,1.37,1.06,1.13,1,1.73,1.41c.29.22.61.41.91.61s.56.39.83.59a15.3,15.3,0,0,0,1.32,1,9.56,9.56,0,0,0,1.48.71c.39.18.76.4,1.14.61s.8.41,1.21.59l0,0a5.15,5.15,0,0,1,.89.49l0,0,.16.23a1.85,1.85,0,0,1,.24.4,3,3,0,0,1,.12.4v.17a3,3,0,0,1-.1.32,4.07,4.07,0,0,1-.31.53,4.31,4.31,0,0,1-.37.37,11.07,11.07,0,0,1-1.93,1.08,13.18,13.18,0,0,1-1.65.52c-.62.15-1.26.26-1.9.36l-.85.11.25,0-.79.11-2,.22c-.75.09-1.5.1-2.26.15s-1.4.08-2.11.09a16.69,16.69,0,0,1-2,0c-.77-.12-1.54-.3-2.31-.44l-2.35-.47c-.82-.18-1.65-.36-2.47-.57s-1.77-.44-2.66-.63-1.73-.39-2.59-.61l-2.55-.65c-1.74-.41-3.48-.82-5.21-1.28-.88-.23-1.76-.47-2.64-.69s-1.73-.38-2.59-.56-1.7-.39-2.54-.62-1.76-.46-2.65-.68c-1.71-.41-3.45-.75-5.16-1.16-.88-.21-1.76-.45-2.63-.7l-1.31-.39c-.43-.13-.86-.24-1.28-.35-.8-.22-1.6-.46-2.38-.75s-1.59-.58-2.4-.84-1.67-.52-2.51-.76c-.41-.12-.83-.23-1.24-.36s-.75-.26-1.12-.41c-.74-.32-1.47-.67-2.19-1S36.72,59.37,36,59s-1.46-.92-2.16-1.41l-1.12-.73-1.07-.74c-.56-.39-1.13-.78-1.68-1.2a6.94,6.94,0,0,1-.9-.82L29,54l-.06-.19c0-.15,0-.3,0-.45a5,5,0,0,1,.18-.63,5.77,5.77,0,0,1,.44-.76,4.89,4.89,0,0,1,.46-.45,7.88,7.88,0,0,1,1.38-.8,18.63,18.63,0,0,1,3-.8q1.6-.35,3.24-.6c1.46-.16,2.91-.32,4.37-.51l-.26,0c.73-.09,1.45-.21,2.18-.35.27-.05.54-.1.81-.17a8.45,8.45,0,0,0,1.1-.39l-.24.1.7-.28c.17-.08.31-.18.47-.27s.43-.29.64-.45h0a.43.43,0,0,0,.12.11.43.43,0,0,0,.59-.15,5.19,5.19,0,0,0,.49-1,5.71,5.71,0,0,0,.16-.92c.07-.51.19-1,.3-1.5a7.8,7.8,0,0,1,.37-1.36,8.19,8.19,0,0,1,.5-.92,8.09,8.09,0,0,1,.68-1l-.11.14c.51-.65,1-1.34,1.47-2,.32-.39.66-.77,1-1.16s.65-.84,1-1.26.84-1,1.27-1.48a14.83,14.83,0,0,1,1.6-1.57,12,12,0,0,1,2.22-1.23,8.29,8.29,0,0,1,.83-.31,5.71,5.71,0,0,1,.93-.21q.62-.08,1.23-.09Zm1.8.23.13.1-.13-.1ZM52.14,38.22l-.1.14.1-.14Zm-3.31,6.72v0ZM97.14,63.15l.1.07-.1-.07Zm3.26,2.44.12.1-.12-.1Zm4.14,6.91-.1,0,.1,0Z"/><path class="cls-1" d="M59.38,73.84,59,73.59l-.41-.28a2.23,2.23,0,0,0-.47-.22,1.58,1.58,0,0,0-.65,0l-.29.08L57,73.2a2.07,2.07,0,0,0-.53.28l-.08,0a2.73,2.73,0,0,0-.34.34h0a2.22,2.22,0,0,0-.29.46,4,4,0,0,0-.19.48,4.58,4.58,0,0,0-.15.49,5.18,5.18,0,0,0-.14.53c0,.17-.06.33-.08.5a9.75,9.75,0,0,0,0,2.16,6.85,6.85,0,0,0,.24,1.09,5.84,5.84,0,0,0,.38,1,8,8,0,0,0,.58,1,5.2,5.2,0,0,0,.38.44,1.89,1.89,0,0,0,.31.25,1.51,1.51,0,0,0,.28.15,1.64,1.64,0,0,0,1,.15,2,2,0,0,0,.41-.13l.28-.13s.56-.29.41-.44a.46.46,0,0,0-.22-.14.36.36,0,0,0-.18,0l-.14,0-.21.08a2.83,2.83,0,0,1-.4.17.83.83,0,0,1-.22,0,1,1,0,0,1-.24,0,2.14,2.14,0,0,1-.39-.16,1.64,1.64,0,0,1-.26-.2,2.79,2.79,0,0,1-.35-.42c-.11-.16-.21-.32-.31-.48s-.23-.43-.33-.66-.16-.45-.23-.68a6,6,0,0,1-.19-1c0-.33,0-.66,0-1v-.31c0-.13,0-.26,0-.38a6.85,6.85,0,0,1,.13-.79c.06-.24.13-.47.21-.7s.1-.24.15-.37a3.73,3.73,0,0,1,.16-.35,2,2,0,0,1,.22-.29l.14-.12.19-.13a3.32,3.32,0,0,1,.59-.24,1.08,1.08,0,0,1,.19,0,1.07,1.07,0,0,1,.25,0,3.48,3.48,0,0,1,.69.29c.12.07.25.15.38.21a.75.75,0,0,0,.32.1s.33-.11.25-.35a.27.27,0,0,0-.13-.07Zm-3,.66v0Zm3.41-1.66h0Zm-.31,1h0ZM55.76,77.4v0Zm2.6,4.53h0Zm.65.25h0Zm0,0h0Zm0,0Zm.05,0Z"/><path class="cls-1" d="M188.63,95a96.75,96.75,0,0,1-6.93,35.91,94.38,94.38,0,0,1-20,30.76A92.2,92.2,0,0,1,95,189.54a93.72,93.72,0,0,1-52.23-16.37,95,95,0,0,1-14.19-11.75A95.43,95.43,0,0,1,.81,95,93.6,93.6,0,0,1,28.05,28.05,95.18,95.18,0,0,1,58.71,7.4a93.37,93.37,0,0,1,103,20.9A95.49,95.49,0,0,1,188.63,95Zm-.26,0a91.36,91.36,0,0,0-27.84-65.53,94.54,94.54,0,0,0-30.2-19.76A97.24,97.24,0,0,0,113,4.54,93,93,0,0,0,2.19,95a91.32,91.32,0,0,0,27,65.81A93.61,93.61,0,0,0,113,185.63a98.15,98.15,0,0,0,17.34-5.24,95.2,95.2,0,0,0,30.19-19.83,93.06,93.06,0,0,0,20.53-29.9A90.76,90.76,0,0,0,188.37,95Z"/></svg>