<?xml version="1.0" encoding="utf-8"?>
<!-- Generator: Adobe Illustrator 25.4.1, SVG Export Plug-In . SVG Version: 6.00 Build 0)  -->
<svg version="1.1" id="para_exportar" xmlns="http://www.w3.org/2000/svg" xmlns:xlink="http://www.w3.org/1999/xlink" x="0px"
	 y="0px" viewBox="0 0 190 190" style="enable-background:new 0 0 190 190;" xml:space="preserve">
<style type="text/css">
	.st0{fill:#FFFFFF;}
	.st1{fill:none;}
</style>
<path class="st0" d="M109.7,109.4C109.7,109.4,109.7,109.4,109.7,109.4c0-0.2,0.1-0.2,0.1-0.3c0.1-0.1,0.1-0.2,0.1-0.4
	c0,0,0-0.1,0-0.1l0.3-0.3c0.2-0.1,0.4-0.4,0.4-0.6c0-0.3-0.2-0.5-0.4-0.7c-0.1-0.1-0.2-0.2-0.3-0.3l0.1-0.1c0.1-0.1,0.2-0.3,0.4-0.4
	c0.3-0.2,0.6-0.6,0.5-1c0,0,0-0.1,0-0.1h0.2h0.2c0.1,0,0.2-0.1,0.2-0.1c0,0,0.1-0.1,0.1-0.2c0.1-0.2,0.1-0.4,0-0.6
	c0-0.2-0.1-0.3-0.1-0.5c-0.2-0.7-0.5-1.3-0.8-1.9h0.2l0.3-0.1c0.2-0.1,0.3-0.1,0.5-0.2c0.1-0.1,0.3-0.2,0.3-0.3
	c0.1-0.1,0.1-0.3,0.1-0.5c0-0.1-0.1-0.3-0.2-0.4c-0.1-0.1-0.2-0.3-0.4-0.3c-0.1-0.1-0.3-0.1-0.4-0.2l-0.4-0.1l-0.3-0.1h-0.1l0,0l0,0
	c0,0,0-0.1,0-0.1c0-0.1,0-0.2,0-0.2c0-0.2,0.1-0.3,0.1-0.4l0.1-0.5c0-0.2,0.1-0.3,0.1-0.5c0-0.1,0-0.3,0-0.4c0-0.1,0-0.3,0-0.4
	c0-0.1-0.1-0.2-0.1-0.3l0,0l-0.1-0.1c0-0.1-0.1-0.1-0.2-0.1l0,0c-0.1,0-0.3,0-0.4,0c-0.1,0-0.1,0.1-0.2,0.2c0,0-0.1,0.1-0.1,0.2
	s-0.2,0.2-0.2,0.4c-0.2,0.3-0.3,0.6-0.5,0.9c-0.2,0.4-0.4,0.8-0.7,1.2c-0.1,0.1-0.2,0.2-0.3,0.3c-0.2,0.1-0.3,0.3-0.4,0.4
	c-0.1,0.2-0.2,0.3-0.2,0.5c0,0.2,0,0.3-0.1,0.5l0,0c-0.1,0.1-0.3,0.2-0.4,0.3c-0.2,0.1-0.4,0.3-0.5,0.4c-0.1,0.1-0.1,0.2-0.2,0.3
	c0,0.1,0,0.2,0,0.4c0.1,0.2,0.3,0.4,0.5,0.4c0.1,0,0.2,0.1,0.3,0.1h0.1c-0.1,0.1-0.2,0.2-0.3,0.2c-0.1,0.1-0.3,0.3-0.4,0.4l-0.2,0.2
	c-0.1,0.1-0.3,0.3-0.3,0.5c0,0.1-0.1,0.2-0.1,0.4c-0.2,0.1-0.4,0.2-0.6,0.4c-0.1,0.1-0.2,0.2-0.3,0.3c-0.1,0.1-0.1,0.3-0.1,0.4
	c0,0.1,0,0.1,0,0.2c0,0.1,0,0.1,0,0.2c0,0.1,0.1,0.3,0.2,0.4c0.1,0.1,0.1,0.2,0.2,0.3l0.2,0.2h-0.1c-0.2,0.2-0.4,0.4-0.4,0.7l0,0
	l-0.2-0.2l-0.1-0.1c-0.1-0.1-0.2-0.1-0.3-0.1c-0.1,0-0.2,0-0.3,0c-0.1,0-0.2,0.1-0.3,0.2c-0.1,0.2-0.1,0.4-0.1,0.6
	c0,0.3,0.1,0.7,0.2,1c0.1,0.3,0.2,0.6,0.3,1c0.3,0.6,0.5,1.2,0.6,1.8c0,0,0,0.1,0,0.1l0,0c-0.1-0.1-0.2-0.2-0.3-0.3
	c-0.1-0.1-0.1-0.1-0.2-0.2l-0.2-0.1c-0.1,0-0.1-0.1-0.2-0.1c-0.1,0-0.1,0-0.2,0c-0.1,0-0.2,0.1-0.2,0.2v0.1c0,0,0,0.1,0,0.1v0.1
	c0,0,0,0.1,0,0.1c0,0.1,0,0.2,0,0.3c0,0.2,0,0.3,0.1,0.4c0.1,0.3,0.2,0.6,0.4,0.9c0.1,0.3,0.3,0.5,0.4,0.8c0.1,0.1,0.1,0.3,0.1,0.4
	c0,0,0,0.1,0,0.1c0,0,0,0.1,0,0.1h-0.1c-0.1,0-0.2-0.1-0.4-0.1c-0.1,0-0.3-0.1-0.4-0.1c-0.1,0-0.2,0-0.3,0c-0.2,0-0.4,0-0.5,0.1
	c-0.2,0.1-0.4,0.2-0.4,0.4c0,0.1-0.1,0.2-0.1,0.3c0,0.1,0,0.2,0,0.3c0,0.2,0.1,0.4,0.2,0.5c0.1,0.1,0.1,0.2,0.2,0.3
	c0.1,0.1,0.2,0.2,0.3,0.4s0.2,0.2,0.3,0.3c0.1,0.1,0.3,0.2,0.4,0.4l0.1,0.1h-0.1h-0.2c-0.1-0.1-0.3-0.2-0.4-0.2
	c-0.3-0.2-0.5-0.4-0.8-0.6l-0.2-0.1c-0.1,0-0.2-0.1-0.2-0.1c-0.1-0.1-0.3-0.1-0.4-0.1c-0.1,0-0.2,0-0.3,0c-0.1,0-0.1,0-0.2,0.1
	c-0.1,0-0.1,0.1-0.2,0.2c-0.1,0.2-0.1,0.4-0.1,0.6c0,0.3,0.1,0.5,0.3,0.7c0.1,0.1,0.2,0.3,0.3,0.4c0.2,0.3,0.4,0.6,0.7,0.8
	c0.2,0.2,0.5,0.5,0.7,0.7l1.1,0.8l0.4-0.4c-0.3-0.2-0.5-0.4-0.8-0.6l-0.1-0.1c-0.2-0.2-0.5-0.4-0.7-0.6l-0.3-0.4l-0.3-0.3l-0.3-0.4
	c-0.1-0.2-0.2-0.3-0.3-0.5c0-0.1-0.1-0.2-0.1-0.3c0,0,0-0.1,0-0.1l0,0c0.1,0,0.1,0,0.2,0.1c0.3,0.1,0.5,0.3,0.7,0.4
	c0.2,0.2,0.4,0.3,0.6,0.5c0.2,0.1,0.4,0.2,0.6,0.2c0.1,0,0.3,0,0.4,0h0.2c0.1,0,0.1-0.1,0.2-0.1c0,0,0.1-0.1,0.1-0.1
	c0,0,0-0.1,0-0.1c0-0.1,0-0.1,0-0.2c0-0.1,0-0.1-0.1-0.2c-0.1-0.2-0.2-0.3-0.3-0.4c-0.1-0.1-0.1-0.1-0.2-0.2l-0.1-0.1
	c-0.2-0.2-0.4-0.4-0.6-0.6c-0.1-0.1-0.2-0.2-0.2-0.3c0-0.1-0.1-0.2-0.1-0.2c0-0.1,0-0.1,0-0.2c0,0,0,0,0-0.1l0,0l0,0h0.1h0.3
	c0.1,0,0.2,0,0.3,0.1l0.4,0.1h0.2h0.3c0.1,0,0.1,0,0.2-0.1h0.1l0.1-0.1c0.1-0.1,0.1-0.2,0.1-0.2c0-0.1,0-0.2,0-0.3
	c0-0.1,0-0.2,0-0.3c-0.1-0.2-0.1-0.4-0.2-0.5l-0.2-0.4c-0.1-0.2-0.2-0.4-0.3-0.7c-0.1-0.1-0.1-0.3-0.2-0.4c0-0.1-0.1-0.3-0.1-0.4
	l0,0l0.1,0.1l0.4,0.3l0.2,0.1c0.1,0.1,0.3,0.1,0.5,0.1c0.1,0,0.1,0,0.1-0.1h0.1c0,0,0.1-0.1,0.1-0.1c0,0,0,0,0-0.1c0,0,0-0.1,0-0.1
	c0-0.1,0-0.1,0-0.2c0-0.2,0-0.4-0.1-0.6c0-0.2-0.1-0.3-0.1-0.5c-0.1-0.3-0.2-0.7-0.4-1s-0.2-0.6-0.3-1s-0.2-0.6-0.2-0.9
	c0-0.1,0-0.2,0-0.3l0.4,0.3l0.4,0.3c0.1,0.1,0.2,0.2,0.4,0.2c0,0,0.1,0,0.1,0c0.1,0,0.2,0,0.2-0.1c0.1-0.1,0.1-0.3,0.1-0.4
	c-0.1-0.2-0.2-0.4-0.3-0.6c0,0,0,0,0-0.1c0,0,0,0,0-0.1c0,0,0,0,0-0.1v-0.1c0,0,0.1-0.1,0.1-0.1c0.1,0,0.1-0.1,0.2-0.1l0.2-0.1
	c0.2,0.1,0.4,0.1,0.5-0.1c0.1-0.2,0.1-0.4-0.1-0.5l0,0l-0.1-0.1c0,0-0.1-0.1-0.1-0.1c-0.1-0.1-0.2-0.2-0.3-0.4l-0.2-0.2
	c0,0,0,0,0-0.1V106c0-0.1,0-0.1,0-0.2l0.1-0.1c0.1-0.1,0.2-0.2,0.2-0.2c0.1-0.1,0.1-0.1,0.2-0.1c0.1,0,0.2-0.1,0.2-0.1h0.1
	c0.1,0,0.1,0,0.2,0c0.2-0.1,0.3-0.2,0.2-0.4c0,0,0,0,0-0.1c-0.1-0.1-0.2-0.2-0.3-0.2c0,0,0-0.1,0.1-0.1c0.3-0.3,0.6-0.6,0.9-0.9
	c0.1-0.1,0.2-0.1,0.2-0.2c0.1-0.1,0.2-0.2,0.2-0.3c0-0.1,0-0.2,0-0.3c0-0.1-0.1-0.1-0.2-0.2c-0.2-0.1-0.3-0.1-0.5-0.2
	c-0.1,0-0.2,0-0.3-0.1l0,0l0.2-0.2c0.2-0.2,0.4-0.3,0.7-0.5l0.1-0.1c0.1-0.1,0.2-0.2,0.2-0.3c0-0.1,0-0.2,0.1-0.2c0-0.1,0-0.2,0-0.2
	c0,0,0-0.1,0-0.1c0-0.1,0.1-0.2,0.2-0.3c0.1-0.1,0.2-0.2,0.3-0.3c0.1-0.1,0.2-0.2,0.3-0.3c0.2-0.3,0.4-0.6,0.6-0.9
	c0.3-0.6,0.6-1.1,0.9-1.6v0.2c-0.1,0.5-0.2,1-0.4,1.5c-0.1,0.3-0.1,0.6,0,0.8c0.1,0.2,0.1,0.3,0.3,0.4c0.1,0.1,0.3,0.2,0.4,0.2
	c0.2,0.1,0.5,0.1,0.7,0.2l0.2,0.1l0,0l0,0l0,0l0,0c0,0,0,0,0,0.1l-0.1,0.1c-0.1,0-0.1,0.1-0.2,0.1c-0.2,0.1-0.4,0.1-0.6,0.2l0,0
	c-0.1,0-0.2,0-0.3,0.1c-0.1,0-0.2,0.1-0.2,0.2c-0.1,0.1-0.1,0.2-0.1,0.4c0,0.2,0.1,0.5,0.3,0.7c0.1,0.2,0.3,0.5,0.4,0.7
	c0.2,0.4,0.3,0.7,0.4,1.1c-0.1-0.1-0.2-0.1-0.2-0.2l-0.2-0.2c-0.1-0.1-0.3-0.2-0.5-0.2c-0.1,0-0.3,0.1-0.3,0.2c0,0,0,0.1-0.1,0.1
	c0,0.1,0,0.1,0,0.2c0,0.1,0,0.1,0,0.2l0.1,0.2c0.1,0.1,0.1,0.2,0.2,0.3c0,0.1,0.1,0.2,0.2,0.3c0.1,0.1,0.1,0.2,0.2,0.3l0,0v0.1
	c-0.1,0.1-0.3,0.3-0.4,0.4c-0.1,0.1-0.3,0.3-0.4,0.4c-0.1,0.1-0.1,0.2-0.1,0.3c0,0.1,0,0.3,0.1,0.4c0.1,0.1,0.2,0.2,0.3,0.3
	c0.1,0.1,0.2,0.2,0.3,0.3c-0.1,0.1-0.2,0.2-0.3,0.3l-0.1,0.1c-0.1,0.1-0.1,0.1-0.2,0.2c-0.1,0.1-0.1,0.2-0.1,0.3c0,0,0,0.1,0,0.1
	l0,0l-0.1,0.2c0,0,0,0.1-0.1,0.1c0,0.1-0.1,0.1-0.1,0.2c0,0.1,0,0.2,0,0.2c0,0.1,0,0.2,0.1,0.4c0,0.1,0.1,0.2,0.2,0.2
	c0.1,0.1,0.2,0.2,0.3,0.2c0.1,0.1,0.2,0.1,0.4,0.2c0.2,0.1,0.3,0.1,0.5,0.1c0.2,0,0.3,0,0.5,0l0,0c0,0,0,0.1,0,0.1l-0.1,0.2
	c-0.1,0.1-0.1,0.1-0.2,0.2c-0.1,0.1-0.3,0.2-0.4,0.2l-0.4,0.2c-0.3,0.2-0.6,0.3-0.8,0.5l-0.2,0.2c-0.2,0.2-0.3,0.4-0.2,0.6
	c0,0.1,0.1,0.2,0.3,0.3c0.1,0,0.2,0.1,0.3,0.1c0.1,0,0.2,0,0.3,0c0.3,0,0.6-0.1,0.9,0h0.1l0,0l0,0c-0.1,0.1-0.2,0.2-0.3,0.3
	c-0.1,0.1-0.3,0.2-0.4,0.2c-0.3,0.1-0.6,0.3-0.9,0.4l-0.1,0.1l-0.1,0.1c-0.1,0.1-0.1,0.1-0.1,0.2c0,0.1,0,0.1,0,0.2
	c0,0.1,0.1,0.1,0.1,0.2c0.1,0.1,0.2,0.1,0.2,0.2c0.2,0.1,0.4,0.1,0.7,0.2c0.2,0,0.5,0,0.7,0h0.3c0.1,0,0.2,0,0.3,0h0.1l0,0l0,0l0,0
	c0,0,0,0.1,0,0.2c0,0.1-0.1,0.2-0.1,0.2l-0.2,0.2l-0.2,0.1l-0.1,0.1l-0.1,0.1c-0.1,0-0.1,0.1-0.2,0.2c-0.1,0.1-0.1,0.3,0.1,0.4
	l1-0.4c0,0,0.1-0.1,0.1-0.1c0.1-0.1,0.3-0.3,0.3-0.5c0.1-0.3,0.1-0.6,0-0.8c-0.1-0.1-0.3-0.2-0.4-0.3c-0.1,0-0.2,0-0.4,0h-0.4
	c-0.3,0-0.5,0-0.8,0h-0.1l0.2-0.1c0.3-0.1,0.5-0.2,0.7-0.3c0.1-0.1,0.3-0.2,0.4-0.3c0.1-0.1,0.2-0.2,0.3-0.3
	c0.1-0.2,0.2-0.4,0.1-0.6c0-0.1-0.1-0.1-0.1-0.2c-0.1-0.1-0.1-0.1-0.2-0.2c-0.1,0-0.2-0.1-0.2-0.1c-0.1,0-0.2,0-0.3-0.1h-0.4h-0.4
	h-0.2c0.2-0.2,0.5-0.3,0.8-0.5l0.4-0.2c0.1-0.1,0.3-0.2,0.4-0.3c0.2-0.1,0.3-0.3,0.4-0.5c0-0.1,0.1-0.1,0.1-0.2
	c0.1-0.1,0.1-0.3,0.1-0.5c0-0.2-0.2-0.4-0.4-0.5c-0.2-0.1-0.4-0.1-0.7-0.1h-0.4l-0.2-0.1C110,109.7,109.9,109.6,109.7,109.4
	L109.7,109.4L109.7,109.4 M106.7,102.5L106.7,102.5z M107.1,102.9L107.1,102.9z M110.4,105.6L110.4,105.6z M110.4,105.6L110.4,105.6
	z M110.1,107.9L110.1,107.9z M110.1,108.7L110.1,108.7L110.1,108.7L110.1,108.7z M110.1,108.7L110.1,108.7z M104.2,108.1
	L104.2,108.1z M110.9,113.3L110.9,113.3z M110.9,113.4L110.9,113.4L110.9,113.4z M110.9,113.4L110.9,113.4z M110.9,113.4
	L110.9,113.4z M103.6,112L103.6,112z M103.8,112.1L103.8,112.1z M104.2,115L104.2,115z M102.6,115.4L102.6,115.4z M103.6,117.8
	L103.6,117.8L103.6,117.8L103.6,117.8z M101,117.3L101,117.3L101,117.3z M101.8,118.6L101.8,118.6L101.8,118.6z M103,120L103,120z
	 M109.7,115.6L109.7,115.6z M109.7,115.6L109.7,115.6z"/>
<path class="st0" d="M146.5,72L146.5,72h-0.2l-0.1,0.1l-0.2,0.1c0,0-0.1,0.1-0.1,0.1v0.1c0,0,0,0.1,0,0.1c0,0,0,0.1,0,0.2
	c0,0.2-0.1,0.3-0.1,0.5s-0.1,0.4-0.1,0.6s-0.1,0.3-0.1,0.5s-0.1,0.2-0.1,0.3s-0.1,0.2-0.2,0.3L145,75l-0.1-0.1
	c-0.1-0.1-0.1-0.1-0.2-0.1c-0.1,0-0.2,0-0.2,0l0,0c-0.1,0-0.1,0.1-0.2,0.1c-0.1,0.1-0.1,0.1-0.1,0.2c0,0,0,0.1-0.1,0.1
	c-0.1,0.3-0.2,0.5-0.3,0.8c-0.1,0.2-0.1,0.5-0.1,0.7c0,0.2,0,0.5-0.1,0.8v0.2c0,0.1,0,0.3-0.1,0.4v0.1l-0.1-0.1
	c-0.1-0.1-0.2-0.1-0.2-0.1c-0.1,0-0.2,0-0.2,0c-0.1,0-0.2,0.1-0.2,0.2c-0.1,0.2-0.1,0.4,0,0.6c0,0.1,0.1,0.2,0.1,0.4
	c0.1,0.4,0.2,0.7,0.3,1.1c-0.1-0.1-0.2-0.2-0.3-0.4l-0.5-0.5c-0.2-0.2-0.4-0.4-0.6-0.5c-0.1-0.1-0.3-0.1-0.4-0.1
	c-0.1,0-0.1,0-0.2,0.1c-0.1,0-0.1,0.1-0.2,0.2l-0.1,0.1v0.1c0,0,0,0.1,0,0.2c0,0.1,0,0.1,0,0.2c0,0.1,0,0.2,0,0.2
	c0,0.1,0.1,0.2,0.1,0.3s0.1,0.4,0.2,0.6s0.1,0.2,0.2,0.3s0.1,0.2,0.2,0.3l0.4,0.6c0.1,0.2,0.2,0.3,0.3,0.4c0.1,0.1,0.2,0.3,0.3,0.4
	h-0.1l-0.3-0.2l-0.2-0.1c0,0-0.1-0.1-0.1-0.1c-0.1-0.1-0.1-0.1-0.2-0.1c-0.1,0-0.1,0-0.2,0c-0.1,0-0.1,0.1-0.1,0.2c0,0,0,0.1,0,0.1
	c0,0.1,0,0.1,0.1,0.2c0,0.1,0,0.1,0.1,0.2c0.1,0.1,0.1,0.2,0.2,0.4s0.2,0.4,0.4,0.7c0.1,0.1,0.1,0.3,0.2,0.4
	c-0.1-0.1-0.2-0.1-0.2-0.2c-0.2-0.3-0.5-0.6-0.7-0.9l-0.3-0.5l-0.2-0.3c0-0.1-0.1-0.1-0.2-0.2c-0.1-0.1-0.1-0.1-0.2-0.2
	c0,0-0.1,0-0.1,0c-0.1,0-0.1,0.1-0.1,0.1c0,0.1,0,0.1,0,0.2v0.2c0,0.1,0,0.1,0,0.2c0,0.1,0,0.2,0,0.4c0,0.1,0,0.1,0,0.2
	c0,0.1,0,0.1-0.1,0.2c0,0.1-0.1,0.2-0.2,0.3l-0.1,0.1c0,0,0,0-0.1,0l0,0l0,0c0-0.1-0.1-0.1-0.1-0.2c-0.2-0.4-0.3-0.8-0.4-1.1
	l-0.1-0.3c0-0.1-0.1-0.2-0.2-0.3c-0.1-0.1-0.2-0.1-0.4-0.1c-0.1,0.1-0.2,0.2-0.3,0.3l-0.1,0.3c-0.1,0.2-0.1,0.4-0.2,0.7
	c-0.1,0.2-0.1,0.4-0.1,0.6c-0.1,0.4-0.1,0.9-0.1,1.3l-0.1,0.9c0,0.2,0,0.3-0.1,0.5l0,0l-0.1-0.2l-0.1-0.1c0-0.1-0.1-0.1-0.1-0.2
	c0-0.1-0.1-0.1-0.2-0.2c-0.1-0.1-0.3,0-0.4,0.1c-0.1,0.1-0.1,0.2-0.1,0.2l-0.1,0.3c0,0.2-0.1,0.5-0.1,0.7s0,0.5,0,0.7s0,0.4,0,0.7
	c0,0.5,0,0.9,0.1,1.3c0,0.3,0.1,0.6,0.1,0.9c0,0.3,0.1,0.6,0.1,0.9c0.1,0.3,0.1,0.7,0.2,1c0,0.4,0,0.7,0,1.1c0,0.1,0,0.2-0.1,0.4
	c0,0.1,0,0.2-0.1,0.3v-0.1c-0.1-0.3-0.2-0.6-0.4-0.8s-0.1-0.3-0.2-0.4s-0.2-0.2-0.2-0.4c-0.1-0.1-0.3-0.3-0.4-0.3
	c-0.1,0-0.2,0-0.2,0h-0.1c-0.1,0.1-0.2,0.1-0.2,0.2c0,0-0.1,0.1-0.1,0.1c0,0.1-0.1,0.2-0.1,0.2c0,0.2-0.1,0.3-0.1,0.5
	c0,0.3,0,0.7-0.1,1c0,0.2-0.1,0.5-0.1,0.7c-0.1-0.1-0.1-0.3-0.2-0.4c-0.2-0.4-0.4-0.8-0.6-1.2c-0.1-0.1-0.1-0.2-0.2-0.3
	c-0.1-0.1-0.1-0.2-0.2-0.3c-0.1,0-0.1-0.1-0.2-0.1c0,0-0.1,0-0.1,0c0,0-0.1,0-0.1,0c-0.1,0.1-0.2,0.3-0.2,0.5c0,0.1-0.1,0.2-0.1,0.4
	c0,0.5,0,0.9,0.1,1.4c0.1,0.4,0.1,0.9,0.3,1.3c0,0.1,0,0.1,0.1,0.2h-0.1c-0.1,0-0.1,0-0.2,0l-0.1,0.1c0,0-0.1,0.1-0.1,0.2
	c0,0.1,0,0.1,0,0.2c0,0.2,0,0.4,0,0.6s0,0.4,0.1,0.6s0,0.4,0.1,0.6c0,0.2,0.1,0.5,0.1,0.7c0,0.2,0.1,0.3,0.1,0.4
	c0.1,0.1,0.1,0.3,0.2,0.4c0.1,0.3,0.2,0.6,0.4,0.9c0.1,0.3,0.2,0.6,0.3,0.9c0.1,0.3,0.2,0.6,0.2,0.9c-0.1-0.1-0.2-0.1-0.2-0.1
	c-0.1,0-0.2,0-0.2,0c0,0-0.1,0-0.1,0.1c0,0,0,0,0,0.1v0.1c0,0.1,0,0.3,0,0.4c0,0.1,0,0.2,0.1,0.3c0.1,0.4,0.3,0.8,0.4,1.2
	c0.3,0.8,0.6,1.7,0.9,2.5l0.1,0.3c0,0.1,0.1,0.1,0.2,0.1c0,0,0,0,0,0c0.1,0,0.1-0.1,0.1-0.2c0,0,0,0,0,0c-0.3-0.7-0.6-1.5-0.8-2.2
	c-0.1-0.4-0.2-0.7-0.4-1.1c-0.1-0.3-0.2-0.7-0.3-1c0-0.1,0-0.2,0-0.3l0,0h0.1l0,0c0.1,0.1,0.2,0.2,0.3,0.2c0.1,0,0.1,0,0.2-0.1
	c0-0.1,0-0.2,0-0.2c0-0.1,0-0.2,0-0.3c0-0.1,0-0.2-0.1-0.3s-0.1-0.4-0.2-0.6c0-0.2-0.1-0.4-0.2-0.6c-0.1-0.4-0.3-0.7-0.5-1.1
	c-0.1-0.2-0.1-0.4-0.2-0.5l-0.1-0.3c0-0.1,0-0.2-0.1-0.3c-0.1-0.4-0.1-0.7-0.1-1.1c0-0.2,0-0.3,0-0.5l0.4,0.9
	c0.1,0.2,0.1,0.3,0.2,0.5l0.1,0.2c0.1,0.1,0.1,0.3,0.3,0.3c0.1,0,0.1,0,0.2,0c0.1,0,0.1-0.1,0.1-0.2c0-0.1,0-0.2,0-0.4
	c0-0.1-0.1-0.2-0.1-0.4l-0.1-0.4c-0.1-0.3-0.2-0.5-0.3-0.8c-0.1-0.2-0.2-0.5-0.2-0.7c-0.1-0.3-0.1-0.5-0.2-0.8s-0.1-0.7-0.2-1
	c0-0.3-0.1-0.6-0.1-0.9c0-0.1,0-0.3,0.1-0.4c0.1,0.2,0.2,0.3,0.3,0.5c0.1,0.2,0.2,0.4,0.3,0.5l0,0c0.1,0.2,0.2,0.5,0.4,0.7
	c0.1,0.1,0.1,0.2,0.2,0.4c0,0.1,0.1,0.1,0.1,0.2c0,0,0.1,0,0.1,0c0,0,0.1,0,0.1,0c0.1,0,0.2,0,0.2-0.1c0,0,0.1-0.1,0.1-0.2
	c0.1-0.2,0.2-0.4,0.2-0.6c0-0.1,0-0.3,0.1-0.4c0-0.3,0-0.6,0.1-0.9c0-0.3,0.1-0.5,0.1-0.8c0,0,0-0.1,0.1-0.1l0,0l0,0
	c0.1,0.1,0.1,0.1,0.2,0.2c0.2,0.2,0.3,0.4,0.4,0.7l0.2,0.6c0,0.1,0.1,0.2,0.1,0.3c0.1,0.1,0.1,0.2,0.2,0.3c0.1,0.1,0.1,0.1,0.2,0.1
	c0.1,0,0.1,0,0.2,0c0.1,0,0.1,0,0.1-0.1c0-0.1,0.1-0.1,0.1-0.2c0,0,0-0.1,0-0.1c0-0.1,0.1-0.2,0.1-0.2c0.1-0.2,0.1-0.4,0.1-0.7
	c0-0.2,0-0.5,0-0.7c0-0.2,0-0.4-0.1-0.6c0-0.2-0.1-0.4-0.1-0.7s-0.1-0.4-0.1-0.6c0-0.2-0.1-0.3-0.1-0.5c0-0.2,0-0.3,0-0.5
	c0-0.3-0.1-0.7-0.1-1.1s0-0.7,0-1.1s0-0.6,0-0.9c0,0,0,0.1,0,0.1l0.1,0.1l0.1,0.1c0,0,0.1,0.1,0.1,0.1c0.1,0.1,0.2,0.1,0.3,0.1
	c0,0,0.1,0,0.1-0.1c0,0,0.1-0.1,0.1-0.1c0-0.1,0.1-0.1,0.1-0.2c0-0.1,0-0.1,0-0.2c0-0.1,0-0.3,0.1-0.4s0-0.5,0.1-0.8s0-0.5,0.1-0.7
	s0-0.4,0-0.7s0-0.3,0-0.4c0-0.2,0.1-0.3,0.1-0.5c0.1-0.3,0.2-0.6,0.3-0.9c0-0.1,0-0.1,0.1-0.2c0.1,0.3,0.2,0.6,0.3,0.8
	c0,0.2,0.1,0.3,0.2,0.5c0,0.1,0.1,0.2,0.2,0.3l0.1,0.1l0.1,0.1h0.1h0.1c0.1,0,0.2-0.1,0.4-0.1c0.1-0.1,0.2-0.2,0.3-0.3
	c0.1-0.2,0.2-0.3,0.2-0.5c0-0.2,0.1-0.3,0.1-0.5c0.1,0.2,0.3,0.4,0.4,0.6s0.2,0.3,0.3,0.5l0.2,0.2c0.1,0.1,0.1,0.2,0.2,0.2l0.2,0.2
	c0.2,0.1,0.4,0.3,0.6,0.1c0.1-0.1,0.2-0.1,0.2-0.2c0-0.1,0-0.2,0-0.4c0-0.2-0.1-0.4-0.2-0.5c-0.1-0.2-0.2-0.3-0.2-0.5l0,0
	c0.1,0,0.1,0.1,0.2,0.1c0.1,0.1,0.2,0.1,0.3,0.1h0.1h0.1h0.1c0,0,0.1-0.1,0.1-0.1l0,0c0,0,0-0.1,0-0.1c0-0.1,0-0.2,0-0.3
	c0-0.1-0.1-0.2-0.1-0.3c0-0.1-0.1-0.1-0.1-0.2c-0.2-0.3-0.4-0.6-0.6-0.9s-0.4-0.6-0.5-0.9c-0.1-0.3-0.3-0.7-0.3-1
	c0.1,0,0.1,0.1,0.2,0.1c0.2,0.2,0.4,0.4,0.6,0.7c0.1,0.1,0.2,0.3,0.3,0.4c0.1,0.1,0.2,0.3,0.3,0.4c0,0.1,0.1,0.1,0.1,0.2
	c0.1,0.1,0.2,0.2,0.3,0.2c0,0,0.1,0,0.1,0c0.1,0,0.1,0,0.2-0.1l0.1-0.1c0-0.1,0.1-0.1,0.1-0.2c0-0.1,0-0.2,0-0.3
	c0-0.2,0-0.4-0.1-0.6c-0.1-0.3-0.2-0.7-0.3-1l-0.1-0.5h0.1h0.1c0.2-0.1,0.3-0.2,0.4-0.4c0-0.1,0.1-0.2,0.1-0.3
	c0-0.1,0.1-0.2,0.1-0.3c0-0.1,0-0.3,0-0.4c0-0.5,0.1-1.1,0.3-1.6v-0.1l0.1,0.1c0.1,0,0.1,0.1,0.2,0.1h0.1l0.2-0.1l0.1-0.1h0.1
	l0.1-0.1c0.1-0.1,0.1-0.2,0.2-0.2l0.1-0.2c0.1-0.1,0.1-0.3,0.2-0.4c0.1-0.2,0.1-0.3,0.2-0.5c0.1-0.2,0.1-0.3,0.1-0.5l0.1-0.4
	c0-0.2,0-0.3,0.1-0.5l0,0l0.1,0.1c0.1,0.1,0.1,0.1,0.1,0.2c0,0.1,0.1,0.2,0.1,0.2c0,0.1,0,0.2,0,0.3c0,0.1,0,0.2-0.1,0.3
	c0,0.1,0,0.2-0.1,0.3c0,0,0,0.1,0,0.1c0,0,0,0.1,0,0.1c0,0,0,0.1,0,0.1c0,0.1,0,0.1,0.1,0.2v0.1l0.1,0.1l0.1,0.2c0,0,0,0.1,0,0.2
	c0,0.1,0,0.3,0,0.4c0,0.3-0.1,0.7-0.1,1c0,0.2-0.1,0.4-0.1,0.6c0,0.2,0,0.3,0.1,0.5c0,0.1,0.1,0.2,0.1,0.2v0.1c0,0,0,0.1,0,0.1
	c0,0.1,0,0.1,0,0.1c-0.2,0.4-0.4,0.7-0.6,1.1c-0.1,0.1-0.1,0.2-0.1,0.3c-0.1,0.2-0.1,0.4,0,0.6c0.1,0.2,0.3,0.2,0.5,0.2h0.4
	c-0.1,0.3-0.3,0.6-0.4,1c-0.1,0.2-0.2,0.4-0.2,0.6c-0.1,0.2-0.1,0.4,0,0.6c0,0.1,0.1,0.2,0.2,0.2c0.1,0,0.1,0,0.2,0
	c0.1,0,0.1,0,0.2-0.1l0.2-0.1L147,83c-0.1,0.1-0.2,0.3-0.3,0.4c0,0.1-0.1,0.1-0.1,0.2c0,0,0,0.1,0,0.1c0,0.1,0,0.1,0,0.2
	c0,0,0,0.1,0.1,0.1c0,0.1,0.1,0.1,0.1,0.1h0.1c0.1,0,0.1,0,0.2,0c0.1,0,0.2-0.1,0.4-0.2c0.1,0,0.2-0.1,0.2-0.1l0.2-0.1
	c0,0.2-0.1,0.3-0.1,0.5l-0.1,0.3c0,0.2-0.1,0.3-0.1,0.5c0,0.1,0,0.1,0,0.2c0,0.1,0.1,0.2,0.2,0.2l0,0h0.1h0.2h0.1
	c0.2-0.1,0.3-0.2,0.5-0.3c0.2-0.1,0.3-0.3,0.5-0.4c-0.3,0.8-0.8,1.6-1.1,2.4c-0.2,0.4-0.3,0.9-0.4,1.3c0,0.1-0.1,0.3-0.1,0.4
	c0,0.1,0,0.1,0,0.2c0,0.1,0.1,0.1,0.1,0.1c0.1,0,0.1,0.1,0.2,0.1c0.1,0,0.1,0,0.2-0.1c0.1-0.1,0.1-0.1,0.2-0.2l0.1-0.1l0.2-0.3
	c0.2-0.2,0.4-0.5,0.6-0.7c0.2-0.2,0.4-0.5,0.7-0.7l0.1-0.1c0,0.1,0,0.1,0,0.2c0,0.3-0.1,0.6-0.2,0.8c-0.1,0.2-0.2,0.4-0.3,0.6
	c-0.1,0.2-0.2,0.4-0.3,0.6c-0.2,0.4-0.4,0.8-0.6,1.2c-0.1,0.2-0.2,0.4-0.3,0.6s-0.2,0.4-0.3,0.6s-0.2,0.4-0.2,0.7
	c0,0.1-0.1,0.2-0.1,0.3c0,0.1,0,0.2,0,0.3c0,0.1,0,0.3,0.1,0.4l0.1,0.1l0.1,0.1h0.1c0,0,0.1,0,0.1,0c0.2-0.1,0.4-0.2,0.6-0.4
	c0.2-0.2,0.4-0.4,0.5-0.6s0.3-0.4,0.5-0.7s0.2-0.4,0.4-0.6h0.1c0.2,0,0.4-0.1,0.5-0.3l0.3-0.4l0,0l0,0l0,0l0,0l0,0l0,0l0,0l0,0
	c0.1-0.2,0.3-0.4,0.4-0.5c0.2-0.2,0.3-0.4,0.5-0.6l0.1-0.1h0.1l0,0l0,0c0,0.1,0.1,0.2,0.1,0.2c0,0.1,0,0.1,0,0.2
	c0,0.1,0,0.2-0.1,0.3c0,0.1-0.1,0.2-0.2,0.3l-0.2,0.3l-0.3,0.4l-0.2,0.3l-0.1,0.1c0,0.1-0.1,0.2-0.1,0.2c0,0.1,0,0.1,0,0.2
	c0,0.1,0.1,0.1,0.1,0.2c0.2,0.1,0.4,0.2,0.6,0.1h0.2l0,0l-0.4,0.5l-0.1,0.1c-0.1,0.1-0.1,0.2-0.1,0.3c0,0,0,0.1,0,0.2
	c0,0.1,0,0.1,0,0.2c0,0,0.1,0.1,0.1,0.1l-0.1,0.2l-0.1,0.2l-0.4,0.6l-0.4,0.6c-0.1,0.2-0.3,0.4-0.4,0.6s-0.2,0.4-0.4,0.6l-0.3,0.6
	c-0.1,0.2-0.2,0.4-0.3,0.6c-0.2,0.4-0.4,0.8-0.5,1.2c-0.1,0.2-0.2,0.4-0.2,0.6c0,0.1-0.1,0.2-0.1,0.3c0,0.1,0,0.1,0,0.2v0.1
	c0,0.1,0,0.1,0.1,0.2c0,0,0.1,0.1,0.1,0.1c0.1,0,0.1,0,0.2,0c0.1,0,0.2-0.1,0.2-0.2l0.1-0.2l0.1-0.2l0.4-0.5
	c0.1-0.2,0.3-0.3,0.4-0.5c0.1-0.2,0.3-0.3,0.4-0.5c0.3-0.3,0.6-0.7,0.9-1c0.1-0.2,0.3-0.3,0.4-0.4c0.2-0.2,0.3-0.3,0.5-0.5
	c0.1-0.2,0.3-0.3,0.4-0.5s0.2-0.2,0.3-0.4c0,0.2-0.1,0.4-0.1,0.6c-0.1,0.2-0.1,0.4-0.2,0.6s-0.2,0.4-0.3,0.5
	c-0.2,0.4-0.5,0.8-0.7,1.2l-0.7,1.2c-0.2,0.4-0.4,0.8-0.6,1.2c-0.1,0.2-0.2,0.4-0.3,0.6c0,0.1,0,0.2-0.1,0.2v0.1c0,0.1,0,0.2,0,0.2
	c0,0.1,0,0.1,0,0.2c0,0.1,0.1,0.1,0.1,0.2l0.2,0.1h0.1v0.1c0,0.1-0.1,0.3-0.2,0.4c-0.1,0.1-0.1,0.2-0.2,0.3c-0.2,0.3-0.5,0.7-0.8,1
	l-0.4,0.5c-0.1,0.2-0.3,0.3-0.4,0.5s-0.3,0.4-0.4,0.6s-0.1,0.1-0.1,0.2c0,0.1,0,0.1,0,0.2c0,0,0,0.1,0,0.2c0,0.1,0.1,0.1,0.1,0.1
	c0.1,0,0.1,0.1,0.2,0.1c0.1,0,0.2,0,0.4,0l0.6-0.2l0,0L149,106l-0.3,0.4c-0.2,0.3-0.4,0.6-0.6,0.8l-0.1,0.2
	c-0.1,0.1-0.1,0.2-0.1,0.3c0,0,0,0.1,0,0.1c0,0.1,0,0.1,0,0.2c0,0.1,0.1,0.2,0.2,0.2c0.2,0.1,0.4,0.1,0.6,0c0.1,0,0.3-0.1,0.4-0.2
	l0.2-0.1c-0.1,0.2-0.2,0.4-0.3,0.6c-0.1,0.1-0.1,0.2-0.1,0.3c0,0.1,0,0.1-0.1,0.2c0,0.1,0,0.1,0,0.2c0,0.1,0,0.1,0,0.2l0,0l0,0
	l-0.2,0.2l-0.3,0.2c-0.1,0.2,0.5,0.4,0.6,0.3c0,0,0.1-0.1,0.1-0.1l0.2-0.2c0.1,0,0.1-0.1,0.1-0.2c0,0,0-0.1,0-0.1c0-0.1,0-0.1,0-0.2
	c0-0.1,0-0.2,0-0.3c0,0,0-0.1,0-0.1l0,0l0.2-0.6c0.1-0.2,0.2-0.4,0.2-0.6v-0.2c0-0.1,0-0.1,0-0.2c0-0.1,0-0.2-0.1-0.2
	c0-0.1-0.1-0.1-0.1-0.1c-0.1,0-0.1,0-0.2,0c-0.1,0-0.2,0-0.2,0.1l-0.4,0.2l-0.2,0.1h-0.1c0.1-0.2,0.2-0.3,0.3-0.4s0.3-0.4,0.5-0.7
	c0.2-0.2,0.4-0.5,0.5-0.7c0.1-0.1,0.1-0.3,0-0.5c0-0.1-0.1-0.1-0.2-0.1c-0.1,0-0.2,0-0.2,0c0,0-0.1,0-0.1,0h-0.1l-0.2,0.1l-0.6,0.2
	c0.1-0.2,0.2-0.3,0.3-0.5s0.4-0.5,0.5-0.7l0.6-0.7c0.2-0.2,0.4-0.5,0.6-0.8c0.1-0.1,0.1-0.2,0.2-0.3c0.1-0.1,0.1-0.2,0.2-0.4
	c0-0.1,0-0.2,0-0.3c0-0.1,0-0.1-0.1-0.2c0-0.1-0.1-0.1-0.1-0.2h-0.1l-0.1-0.1l0,0l0,0c0-0.1,0-0.2,0.1-0.3s0.1-0.4,0.2-0.5
	s0.2-0.4,0.3-0.6c0.2-0.4,0.4-0.8,0.6-1.2s0.4-0.8,0.7-1.2s0.5-0.8,0.7-1.1c0.2-0.4,0.4-0.8,0.5-1.3c0-0.1,0-0.2,0-0.3
	c0-0.1,0-0.1,0-0.2v-0.1l-0.1-0.1v-0.1c0,0-0.1-0.1-0.1-0.1c-0.1,0-0.1,0-0.2,0c-0.1,0-0.3,0.1-0.4,0.2c-0.2,0.1-0.3,0.3-0.5,0.5
	c-0.3,0.3-0.6,0.7-0.9,1l-0.2,0.2l-0.2,0.2c-0.1,0.1-0.3,0.3-0.4,0.4l-0.5,0.6l-0.5,0.6c-0.2,0.2-0.3,0.4-0.5,0.7l-0.1,0.1
	c0.1-0.3,0.3-0.7,0.4-1s0.2-0.4,0.3-0.6s0.2-0.4,0.3-0.6c0.2-0.4,0.4-0.7,0.6-1.1l0.4-0.6c0.1-0.2,0.2-0.3,0.3-0.5s0.3-0.4,0.5-0.7
	s0.2-0.3,0.3-0.4c0.1-0.1,0.1-0.2,0.1-0.3c0-0.1,0-0.1-0.1-0.2l0,0c0.2-0.2,0.4-0.5,0.6-0.7c0.1-0.1,0.2-0.3,0.2-0.4
	c0,0,0-0.1,0-0.1c0-0.1-0.1-0.1-0.1-0.1c-0.1-0.1-0.2-0.1-0.3-0.1c0,0-0.1,0-0.1,0h-0.2l0.3-0.4c0.1-0.2,0.2-0.3,0.3-0.5
	s0.1-0.2,0.2-0.3c0.1-0.1,0.1-0.2,0.1-0.4c0.1-0.3,0.1-0.6,0-0.8c0-0.2-0.1-0.3-0.2-0.4c-0.1-0.1-0.2-0.1-0.2-0.2
	c-0.1,0-0.1,0-0.2,0c-0.1,0-0.1,0-0.2,0c-0.1,0-0.2,0.1-0.3,0.1l-0.1,0.1l-0.2,0.2c-0.3,0.3-0.5,0.6-0.7,0.9l0,0l0,0c0,0,0,0,0,0.1
	l0,0l-0.1,0.2c-0.1,0.1-0.1,0.2-0.2,0.3l0,0c-0.1-0.1-0.3-0.1-0.4,0c-0.1,0.1-0.2,0.2-0.2,0.2l-0.1,0.2c-0.2,0.2-0.3,0.5-0.5,0.8
	l-0.4,0.5c-0.2,0.2-0.3,0.3-0.5,0.5l0,0c0-0.3,0.1-0.5,0.2-0.8c0.2-0.4,0.3-0.8,0.5-1.1c0.2-0.4,0.4-0.8,0.6-1.2
	c0.2-0.4,0.4-0.8,0.6-1.2c0.1-0.2,0.2-0.5,0.2-0.7c0-0.1,0-0.2,0.1-0.3c0-0.2,0-0.4,0-0.7c0,0,0-0.1,0-0.2c0-0.1-0.1-0.2-0.1-0.2
	l-0.1-0.1c0,0-0.1,0-0.1,0c-0.1,0-0.2,0-0.2,0c-0.1,0-0.1,0.1-0.2,0.1c0,0-0.1,0-0.1,0.1l-0.2,0.2c-0.2,0.2-0.4,0.4-0.6,0.6
	c-0.2,0.2-0.3,0.4-0.5,0.6l0.1-0.4l0.2-0.5l0.3-0.6c0.2-0.4,0.4-0.8,0.6-1.1c0.1-0.2,0.2-0.4,0.3-0.7c0-0.1,0-0.2,0-0.2
	c0-0.1,0-0.1,0-0.2c0-0.1,0-0.1-0.1-0.2c0-0.1-0.1-0.1-0.1-0.1c-0.1,0-0.1,0-0.2,0c-0.1,0-0.2,0-0.2,0c-0.2,0.1-0.4,0.2-0.6,0.4
	l-0.4,0.3l-0.1,0.1c0-0.2,0.1-0.4,0.1-0.5c0.1-0.3,0.1-0.5,0.2-0.8c0-0.1,0-0.3-0.1-0.4l-0.1-0.1c0,0-0.1-0.1-0.1-0.1
	c0,0-0.1,0-0.1,0c0,0-0.1,0-0.1,0c-0.1,0.1-0.3,0.1-0.4,0.2l-0.2,0.2l0.1-0.1c0.1-0.2,0.2-0.3,0.3-0.5c0.2-0.3,0.4-0.7,0.6-1
	c0.1-0.2,0.2-0.4,0.2-0.6c0.1-0.2,0.1-0.3,0.1-0.5c0,0,0-0.1-0.1-0.1c0,0-0.1-0.1-0.1-0.1c-0.1,0-0.1,0-0.2,0l-0.1,0.1
	c-0.1,0.1-0.2,0.2-0.3,0.3l-0.1,0.2l-0.3,0.5c-0.2,0.3-0.4,0.5-0.6,0.7c0-0.1,0-0.1,0.1-0.2c0.1-0.2,0.1-0.3,0.2-0.5
	c0.1-0.2,0.2-0.4,0.3-0.5c0.1-0.2,0.2-0.4,0.2-0.6c0,0,0-0.1,0-0.1l0,0c0,0,0-0.1,0-0.1c0-0.1-0.1-0.1-0.1-0.1c0,0-0.1-0.1-0.1-0.1
	c-0.1,0-0.2,0-0.3,0H147c0-0.1,0.1-0.2,0.2-0.3l0.3-0.5c0.1-0.2,0.2-0.4,0.3-0.6c0,0,0-0.1,0-0.1c0-0.1,0-0.1,0-0.2
	c0-0.1,0-0.1,0-0.2c0-0.1,0-0.1,0-0.2c0-0.1-0.1-0.2-0.1-0.3c0,0,0-0.1,0-0.1c0-0.1,0-0.2,0-0.2l0.1-0.6c0-0.2,0.1-0.4,0.1-0.7
	c0-0.1,0-0.2,0-0.3c0-0.2,0-0.4,0-0.6c0-0.2-0.1-0.3-0.2-0.5l-0.1-0.2v-0.1v-0.1c0.1-0.3,0.1-0.7,0.1-1.1c0-0.2-0.1-0.5-0.2-0.7
	c0-0.1-0.1-0.1-0.1-0.2l-0.1-0.2c-0.1-0.1-0.2-0.2-0.4-0.2l0,0L146.5,72L146.5,72z M146.6,72.6L146.6,72.6L146.6,72.6z M146.5,72.6
	L146.5,72.6z M146.5,72.6L146.5,72.6z M146.5,72.6L146.5,72.6L146.5,72.6z M145.1,75.1L145.1,75.1z M144.6,75.7L144.6,75.7z
	 M149.1,84.4L149.1,84.4L149.1,84.4z M148,85L148,85z M148.1,85.1L148.1,85.1z M139.5,84L139.5,84z M139.5,84L139.5,84z M139.5,84
	L139.5,84z M137.3,85.2L137.3,85.2z M152.1,89.3L152.1,89.3z M152.1,89.3L152.1,89.3z M152.1,89.3L152.1,89.3z M152.1,89.3
	L152.1,89.3z M152.1,89.3L152.1,89.3z M152.1,89.3L152.1,89.3L152.1,89.3z M150.4,90.3L150.4,90.3L150.4,90.3z M148,93L148,93z
	 M151.1,94.6L151.1,94.6L151.1,94.6z M135.1,92.8L135.1,92.8L135.1,92.8z M135.1,92.8L135.1,92.8z M135.1,92.8L135.1,92.8z
	 M135,92.8L135,92.8L135,92.8L135,92.8z M132.7,94L132.7,94z M150.4,101.2L150.4,101.2z M150.3,101.4L150.3,101.4
	C150.3,101.5,150.3,101.5,150.3,101.4z M150.3,101.5L150.3,101.5L150.3,101.5z M150.3,101.5L150.3,101.5z M150.3,102L150.3,102z
	 M150.3,102L150.3,102z M150.3,102L150.3,102z M133.7,98.9L133.7,98.9L133.7,98.9L133.7,98.9z M150,102.9L150,102.9z M132.8,99.3
	L132.8,99.3z M133.5,103.4L133.5,103.4z M133.5,103.4L133.5,103.4z M133.5,103.4L133.5,103.4z M133.4,103.4L133.4,103.4z
	 M133.6,103.4L133.6,103.4z M133.4,103.4L133.4,103.4L133.4,103.4z M148.9,107.2L148.9,107.2L148.9,107.2z M148.8,109.6L148.8,109.6
	z M147.2,113.1L147.2,113.1z M150.6,90.2L150.6,90.2z"/>
<path class="st0" d="M118.1,80.7c-0.1,0.1-0.2,0.2-0.3,0.3c0,0.1-0.1,0.2-0.1,0.3c0,0.2-0.1,0.4-0.1,0.6c0,0.3-0.1,0.6-0.1,0.9
	c0,0.3,0,0.7,0,1l0.1,0.9c0,0.3,0,0.6,0,0.9h-0.2c-0.2,0-0.4,0-0.5,0.1c0,0.1-0.1,0.1-0.1,0.2c0,0.1,0,0.1,0,0.2c0,0,0,0.1,0,0.1
	c0,0.1,0.1,0.2,0.1,0.2l0.1,0.2c0.1,0.2,0.2,0.3,0.2,0.5c0.1,0.2,0.1,0.4,0.2,0.6h-0.2c-0.2,0-0.3,0-0.5,0h-0.2
	c-0.1,0-0.3,0.1-0.4,0.2c-0.2,0.2-0.2,0.4-0.1,0.6c0.1,0.1,0.1,0.3,0.2,0.4s0.2,0.2,0.2,0.3c0.1,0.1,0.2,0.2,0.3,0.3
	c0.1,0.1,0.2,0.2,0.3,0.3l0.2,0.2h-0.4c-0.1,0-0.3,0-0.4,0c-0.1,0-0.2,0.1-0.2,0.1l-0.1,0.1c0,0-0.1,0.1-0.1,0.1
	c0,0.1-0.1,0.1-0.1,0.2c0,0.1,0,0.1,0,0.2c0,0.1,0.1,0.1,0.1,0.2L116,91c0.1,0.2,0.3,0.3,0.4,0.5c0.2,0.2,0.4,0.3,0.5,0.5
	s0.2,0.2,0.3,0.4l-0.2-0.1c-0.1-0.1-0.3-0.1-0.5-0.1c-0.1,0-0.3,0.1-0.4,0.2c-0.1,0.1-0.1,0.3,0,0.4c0,0.1,0.1,0.1,0.2,0.2l0.2,0.2
	c0.1,0.1,0.2,0.2,0.3,0.4c0.2,0.2,0.4,0.4,0.6,0.6l-0.2-0.1L117,94h-0.2h-0.2h-0.1c-0.1,0-0.1,0-0.1,0.1l0,0c0,0-0.1,0.1-0.1,0.1
	c0,0.1,0,0.1,0,0.2c0,0.1,0,0.1,0,0.2c0,0.1,0.1,0.2,0.1,0.2l0.2,0.2c0.1,0.1,0.2,0.3,0.3,0.4c0.1,0.1,0.3,0.3,0.4,0.4l0.4,0.3
	l0.6,0.5c-0.2-0.1-0.5-0.1-0.7-0.2c-0.3-0.1-0.5,0-0.7,0.1c-0.1,0.1-0.2,0.2-0.2,0.3c0,0.1,0,0.2,0,0.3c0.1,0.1,0.2,0.3,0.3,0.3
	l0.2,0.2l0.7,0.7l0.2,0.2l0.3,0.3h-0.1c0.2,0.2,0.3,0.3,0.5,0.5l-0.5-0.4c-0.3-0.2-0.6-0.4-1-0.6c-0.2-0.1-0.4-0.2-0.6-0.3
	c-0.2-0.1-0.5-0.1-0.7,0c-0.1,0-0.1,0.1-0.2,0.1c0,0.1-0.1,0.1-0.1,0.2c0,0.1,0,0.1,0,0.2c0,0,0,0.1,0.1,0.1
	c0.1,0.1,0.2,0.2,0.3,0.4s0.2,0.2,0.3,0.4s0.4,0.5,0.6,0.7c0.4,0.5,0.9,1,1.3,1.5s0.8,0.9,1.2,1.3c0.3,0.4,0.6,0.8,0.9,1.2l-0.4-0.3
	l-0.9-0.6c-0.3-0.2-0.7-0.4-1-0.6c-0.1-0.1-0.3-0.1-0.4-0.2h-0.2h-0.1H117c-0.1,0-0.1,0.1-0.2,0.1c-0.1,0.1-0.1,0.1-0.1,0.2
	c0,0.1,0,0.2,0.1,0.3c0,0.1,0.1,0.2,0.1,0.3c0.1,0.3,0.3,0.5,0.5,0.8c0.2,0.3,0.4,0.5,0.6,0.8s0.4,0.6,0.7,0.8l0.7,0.8l-0.2-0.1
	h-0.1c-0.1,0-0.2-0.1-0.3-0.1c-0.1,0-0.2,0-0.3,0h-0.2c-0.1,0-0.1,0-0.2,0.1c-0.1,0.1-0.2,0.3-0.1,0.5c0,0.1,0.1,0.2,0.1,0.3
	l0.1,0.2c0.1,0.3,0.3,0.6,0.5,0.9c0.2,0.2,0.4,0.5,0.7,0.7s0.4,0.5,0.7,0.7l0.6,0.7c0.2,0.2,0.4,0.5,0.6,0.7l0.3,0.3l0.3,0.4
	c0.1,0.1,0.2,0.1,0.3,0c0.1,0,0.1-0.1,0.1-0.2c0,0,0,0,0,0c-0.1-0.2-0.2-0.3-0.3-0.4s-0.2-0.2-0.3-0.4s-0.4-0.5-0.6-0.8
	s-0.2-0.3-0.3-0.4s-0.2-0.2-0.3-0.3c-0.2-0.3-0.5-0.5-0.7-0.8c-0.2-0.2-0.3-0.3-0.5-0.5c-0.2-0.2-0.3-0.4-0.4-0.6l-0.2-0.3
	c-0.1-0.1-0.1-0.3-0.2-0.4l0,0l0,0h0.2l0.3,0.1l0.4,0.2l0.2,0.2c0.1,0.1,0.2,0.1,0.3,0.1c0.1,0,0.2-0.1,0.3-0.2
	c0.1-0.2,0-0.4-0.1-0.5l-0.2-0.2c-0.1-0.1-0.2-0.3-0.3-0.4l-0.6-0.7c-0.2-0.2-0.4-0.5-0.6-0.8l-0.4-0.6c-0.1-0.2-0.3-0.4-0.4-0.6
	l-0.1-0.2l0.2,0.1c0.2,0.1,0.3,0.2,0.5,0.3l0.4,0.3l0.9,0.6c0.3,0.2,0.6,0.4,1,0.6c0.1,0,0.2,0,0.4,0c0.1,0,0.1-0.1,0.2-0.1
	c0,0,0.1-0.1,0.1-0.2c0-0.1,0-0.2,0-0.3c0-0.1,0-0.2-0.1-0.2c-0.1-0.2-0.2-0.3-0.2-0.5c-0.4-0.6-0.8-1.1-1.2-1.6l-0.6-0.7l-0.6-0.8
	c-0.2-0.2-0.3-0.4-0.5-0.6s-0.4-0.4-0.5-0.6s-0.3-0.3-0.4-0.5l0.6,0.4c0.3,0.2,0.6,0.4,0.8,0.6s0.5,0.4,0.8,0.6
	c0.1,0.1,0.2,0.1,0.3,0.1c0.1,0,0.1,0,0.2,0c0.1,0,0.2-0.1,0.2-0.2l0,0c0,0,0-0.1,0-0.2c0,0,0-0.1,0-0.1c0-0.1,0-0.2-0.1-0.3
	c-0.1-0.2-0.2-0.3-0.2-0.5c-0.1-0.2-0.3-0.4-0.4-0.6l-0.5-0.5l-1-0.9l-0.2-0.2c-0.1-0.1-0.1-0.1-0.2-0.2h0.2l0.5,0.2l0.5,0.2
	l0.5,0.2l0.2,0.1h0.2c0.1,0,0.1,0,0.2,0c0.1,0,0.2,0,0.2-0.1c0.1,0,0.2-0.1,0.2-0.2c0.1-0.2-0.1-0.4-0.3-0.6l-0.2-0.2l-0.4-0.3
	c-0.3-0.2-0.6-0.4-0.8-0.6s-0.4-0.3-0.6-0.5c-0.2-0.2-0.4-0.4-0.6-0.7c0.2,0.1,0.4,0.2,0.7,0.3h-0.1l0.7,0.3h-0.1
	c0.1,0,0.1,0.1,0.2,0.1c0,0,0.1,0,0.1,0.1h0.1h0.2c0.1,0,0.3-0.1,0.4-0.2c0-0.1,0-0.2,0-0.3c0-0.1-0.1-0.2-0.1-0.2
	c0,0-0.1-0.1-0.1-0.1l-0.2-0.2l-0.3-0.3l-0.3-0.3c-0.2-0.2-0.4-0.4-0.6-0.6c0.1,0,0.2,0,0.2,0c0.1,0,0.2-0.1,0.3-0.2
	c0.1-0.1,0.1-0.1,0.2-0.2v-0.1c0,0,0-0.1,0-0.1c0-0.1-0.1-0.2-0.1-0.3c-0.1-0.1-0.1-0.2-0.2-0.2l-0.1-0.1l-0.2-0.3
	c-0.2-0.2-0.3-0.3-0.5-0.5c-0.2-0.2-0.3-0.3-0.4-0.5h0.5c0.1,0,0.3,0,0.4,0c0.1,0,0.2,0,0.3,0c0.1,0,0.2,0,0.3-0.1
	c0.1-0.1,0.2-0.2,0.2-0.3c0-0.1,0-0.3-0.1-0.4c-0.1-0.1-0.1-0.2-0.2-0.3l-0.2-0.3c-0.2-0.2-0.3-0.3-0.5-0.5s-0.2-0.3-0.3-0.4
	l0.4,0.1h0.3c0.1,0,0.2,0,0.3-0.1c0.1-0.1,0.2-0.1,0.2-0.2c0-0.1,0.1-0.1,0.1-0.2c0-0.1,0-0.2,0-0.3c0-0.1,0-0.2-0.1-0.3
	c-0.1-0.2-0.2-0.4-0.3-0.7l-0.1-0.2h0.2l0,0l0.1-0.1c0,0,0.1-0.1,0.1-0.1c0,0,0.1-0.1,0.1-0.1c0-0.1,0.1-0.1,0.1-0.2v-0.2
	c0-0.1,0-0.1,0-0.2c0-0.1,0-0.2,0-0.3c0-0.2,0-0.3,0-0.5s0-0.3,0-0.5c0-0.3,0-0.7,0-1c0-0.3,0-0.7,0-1c0-0.1,0-0.1,0-0.2
	c0,0,0,0.1,0,0.1c0,0.2,0.1,0.4,0.1,0.6s0,0.6,0.1,0.8c0,0.3,0.1,0.6,0.1,0.9c0,0.1,0.1,0.3,0.1,0.4c0,0.1,0.1,0.3,0.1,0.4
	c0.1,0.1,0.1,0.3,0.2,0.4c0.1,0.1,0.3,0.2,0.5,0.2c0.2,0,0.3,0,0.5-0.1l0.2-0.1h0.2h0.1h0.1l0,0l0,0c0,0.1,0.1,0.2,0.1,0.3
	c0,0.5,0,1-0.1,1.5c0,0.1,0,0.2-0.1,0.4s-0.1,0.5,0.2,0.6c0,0,0.1,0.1,0.2,0.1c0.1,0,0.1,0,0.2,0c0.1,0,0.2,0,0.3-0.1l0.2-0.1
	l0.2-0.1l0.2-0.1c0,0,0,0,0,0.1c0,0.2,0,0.4-0.1,0.6c-0.1,0.4-0.2,0.8-0.3,1.2s-0.2,0.8-0.3,1.2v-0.1l-0.1,0.3v0.2v0.1
	c0,0,0,0.1,0,0.1c0,0.1,0,0.1,0.1,0.2l0.1,0.1c0,0,0.1,0,0.2,0h0.1h0.1c0.1,0,0.1,0,0.2-0.1l0.1-0.1l0.1-0.1
	c0.1-0.1,0.2-0.2,0.3-0.3l0,0c0,0.3,0,0.6,0,0.8c0,0.2-0.1,0.4-0.1,0.7v0.1c0,0.1,0,0.2,0,0.3c0,0,0,0.1,0.1,0.1
	c0,0,0.1,0.1,0.1,0.1c0.1,0,0.1,0,0.2,0c0.2,0,0.3-0.1,0.4-0.2c0.1-0.1,0.2-0.2,0.2-0.3c0.1-0.1,0.1-0.1,0.2-0.2l0,0l0,0
	c0,0.1,0,0.1,0.1,0.2c0,0.4,0,0.7,0,1.1c0,0.1,0,0.2,0,0.3c0,0,0,0.1,0,0.1c0,0.1,0.1,0.3,0.2,0.3c0,0,0.1,0.1,0.2,0.1
	c0.1,0,0.2,0,0.2,0h0.2l0.2-0.1h0.1c0.2-0.1,0.4-0.2,0.6-0.3l0,0c0,0,0.1,0.1,0.1,0.1c0,0.1,0.1,0.2,0.1,0.3c0,0.2,0,0.5,0,0.7
	c0,0.3,0,0.6,0,0.8c0,0.1,0,0.2,0,0.4v0.2c0,0.1,0,0.2,0.1,0.2c0.1,0.1,0.2,0.1,0.3,0.1c0.1,0,0.1,0,0.2,0c0.1,0,0.1-0.1,0.1-0.1
	c0-0.1,0.1-0.1,0.1-0.2c0-0.1,0.1-0.1,0.1-0.2c0.1-0.1,0.1-0.2,0.1-0.3c0,0.1,0.1,0.2,0.1,0.3v0.2c0,0.1,0,0.2,0,0.3
	c0.1,0.5,0.1,1,0.2,1.5c0,0.2,0,0.3,0.1,0.4c0,0.1,0.1,0.1,0.2,0.2c0,0,0.1,0,0.1,0.1c0.1,0,0.1,0,0.2,0c0.1,0,0.2,0,0.3-0.1
	c0,0,0.1-0.1,0.1-0.1c0,0,0.1-0.1,0.1-0.1c0.1-0.2,0.2-0.4,0.3-0.7l0.1,0.1c0.1,0.1,0.1,0.2,0.1,0.2c0.1,0.3,0.3,0.6,0.4,0.9
	s0.1,0.3,0.2,0.5l0.1,0.2c0,0.1,0.1,0.2,0.1,0.3c0.1,0.1,0.1,0.1,0.2,0.1c0.1,0,0.2,0,0.3,0c0.1,0,0.1-0.1,0.2-0.2v-0.1
	c0,0,0-0.1,0-0.1c-0.2-0.5-0.5-1-0.7-1.5c-0.1-0.2-0.1-0.3-0.2-0.5s-0.1-0.2-0.2-0.2c-0.1-0.1-0.2-0.2-0.2-0.3l-0.1-0.1h-0.1
	c-0.1,0-0.1,0-0.2,0l-0.2,0.1c-0.1,0.1-0.3,0.2-0.3,0.4c0,0.1,0,0.1-0.1,0.2v0.1v-0.2v0.1c-0.1-0.5-0.1-1-0.2-1.5
	c0-0.2-0.1-0.3-0.1-0.5c0-0.1-0.1-0.3-0.2-0.4c-0.1-0.1-0.1-0.1-0.2-0.2c0,0-0.1,0-0.2,0c-0.1,0-0.1,0-0.2,0c-0.1,0-0.1,0-0.2,0.1
	l0,0h-0.1c0-0.3,0-0.5,0-0.8c0-0.1,0-0.3,0-0.4c0-0.1,0-0.2-0.1-0.3c-0.1-0.2-0.1-0.3-0.3-0.4c-0.1-0.1-0.1-0.1-0.2-0.1h-0.1h-0.1
	c0,0-0.1,0-0.1,0h-0.2l-0.2,0.1l-0.2,0.1c-0.1,0.1-0.2,0.1-0.4,0.2l0,0c0-0.2,0-0.4,0-0.6c0-0.2,0-0.5,0-0.7c0-0.1,0-0.1,0-0.2
	c0-0.1-0.1-0.1-0.1-0.2c0,0-0.1-0.1-0.1-0.1c-0.1,0-0.1-0.1-0.2-0.1c-0.1,0-0.1,0-0.2,0h-0.2h-0.2c-0.1,0-0.2,0.1-0.2,0.1l-0.1,0.1
	c0-0.2,0.1-0.4,0.1-0.7c0-0.2,0-0.3,0-0.5c0-0.1,0-0.1,0-0.2c0-0.1-0.1-0.1-0.1-0.2c-0.1-0.1-0.2-0.2-0.3-0.2c-0.1,0-0.2,0-0.3,0
	c-0.1,0-0.1,0-0.2,0.1c-0.1,0-0.1,0.1-0.2,0.1l-0.2,0.1l0,0c0-0.1,0-0.3,0.1-0.4l0.2-0.9c0.1-0.3,0.2-0.6,0.2-0.8s0.1-0.3,0.1-0.5
	c0-0.1,0-0.2,0-0.3c0-0.1,0-0.2,0-0.3c0-0.1,0-0.2-0.1-0.3c0-0.1-0.1-0.1-0.2-0.2h-0.2h-0.1c-0.1,0-0.1,0-0.2,0
	c-0.1,0-0.2,0.1-0.3,0.1l-0.3,0.1l0,0c0-0.1,0-0.2,0-0.2l0.1-0.4c0.1-0.3,0.1-0.5,0.1-0.8c0-0.1,0-0.2,0-0.4c0-0.1,0-0.3,0-0.4
	c0-0.1,0-0.1-0.1-0.2c0,0,0-0.1,0-0.1l0,0l-0.1-0.1c-0.2-0.1-0.3-0.2-0.5-0.2c-0.3,0-0.5,0-0.8,0.1h-0.2h-0.1l0,0c0,0,0-0.1-0.1-0.1
	c-0.1-0.2-0.1-0.4-0.2-0.6c0-0.2-0.1-0.4-0.1-0.6c0-0.3-0.1-0.7-0.1-1s-0.1-0.7-0.1-1c0-0.2-0.1-0.3-0.2-0.4l-0.1-0.2l-0.1-0.2
	c-0.1-0.1-0.2-0.2-0.3-0.3c-0.1,0-0.2,0-0.2,0h-0.1h-0.1L118.1,80.7z M117.8,85.6L117.8,85.6z M120.8,85.7L120.8,85.7z M122,88.1
	L122,88.1z M117,91.8L117,91.8L117,91.8z M117.6,92.6L117.6,92.6z M122.6,91.6L122.6,91.6z M123.6,93.1L123.6,93.1z M125.4,94.6
	L125.4,94.6z M125.4,94.6L125.4,94.6z M125.4,94.6L125.4,94.6z M125.5,94.6L125.5,94.6z M116.3,98.1L116.3,98.1z M128.4,98.4
	L128.4,98.4z M118.6,106.7L118.6,106.7z"/>
<path class="st0" d="M129.3,100.6c0,0.1,0,0.2,0.1,0.3c0,0,0,0,0.1,0l0.8,0.1l0.6,0.1h0.1l0,0v0.1c0,0.1,0,0.2,0,0.3
	c0,0.2-0.1,0.4-0.2,0.6c-0.1,0.2-0.1,0.3-0.2,0.5c-0.2,0.3-0.4,0.7-0.6,1s-0.4,0.7-0.6,1.1s-0.3,0.7-0.5,1c-0.1,0.1-0.1,0.2-0.1,0.3
	c0,0.1,0,0.2,0.1,0.3c0.1,0.1,0.3,0.1,0.4,0.1c0.2-0.1,0.4-0.1,0.6-0.2l0.3-0.2l0.7-0.4c0.2-0.1,0.5-0.3,0.7-0.4
	c0.2-0.1,0.3-0.1,0.5-0.2c0.1,0,0.2,0,0.2,0h0.1l0,0c-0.1,0.1-0.2,0.3-0.3,0.4c-0.1,0.1-0.2,0.3-0.3,0.4c-0.1,0.1-0.2,0.3-0.3,0.5
	c-0.1,0.2-0.1,0.4,0,0.5c0,0.1,0.1,0.1,0.1,0.1h0.1l0.1,0.1h0.1v0.1c-0.2,0.3-0.4,0.7-0.5,1c-0.1,0.3-0.2,0.7-0.3,1.1
	c-0.1,0.3,0.7,0.6,0.8,0.3s0-0.4,0.1-0.6c0-0.2,0.1-0.4,0.2-0.6c0.1-0.2,0.2-0.4,0.2-0.6s0.2-0.4,0.3-0.6l0.1-0.1
	c0-0.1,0.1-0.2,0.1-0.3c0-0.1,0-0.1-0.1-0.2c0-0.1-0.1-0.1-0.2-0.1l-0.2-0.1h-0.1c0-0.1,0.1-0.2,0.1-0.2c0.1-0.1,0.2-0.3,0.3-0.4
	c0.1-0.1,0.2-0.3,0.3-0.4c0.1-0.1,0.1-0.2,0.2-0.3c0.1-0.1,0.1-0.3,0-0.4c0-0.1-0.1-0.1-0.1-0.2l-0.1-0.1c-0.1,0-0.2-0.1-0.3-0.1
	c-0.1,0-0.3,0-0.4,0c-0.1,0-0.3,0-0.4,0.1c-0.1,0-0.2,0-0.3,0.1l-0.6,0.3l-0.5,0.3l-0.5,0.3l-0.3,0.2v-0.1l0.2-0.4
	c0.1-0.3,0.3-0.6,0.4-0.9s0.4-0.7,0.6-1c0.1-0.2,0.2-0.4,0.3-0.6l0.1-0.3c0.1-0.1,0.1-0.2,0.1-0.3c0.1-0.2,0.1-0.4,0.2-0.6
	c0-0.1,0.1-0.2,0.1-0.3c0-0.1,0-0.2,0-0.3c0-0.1-0.1-0.2-0.1-0.2c-0.1-0.1-0.2-0.1-0.3-0.1c-0.2,0-0.4-0.1-0.6-0.1l-0.6-0.1h-0.3
	c-0.1,0-0.1,0-0.2,0C129.4,100.4,129.3,100.4,129.3,100.6L129.3,100.6z M130.9,101.1L130.9,101.1z M132.5,104.9L132.5,104.9
	L132.5,104.9z M132.5,105L132.5,105z M132.5,105L132.5,105L132.5,105z M132.3,106.4L132.3,106.4L132.3,106.4L132.3,106.4z
	 M132.3,106.5L132.3,106.5z"/>
<path class="st1" d="M20.5,122.8c0,0,5.6-14.8,18.4-20.2s9.8,3,11.4,1.6c2.5-2.2,9.4-4.9,10.2-4.7c4.8,1.7,12.7-3.7,13.9-2.2
	c0.8,1.1,1.5,2.2,2,3.4c0,0,7.7-0.6,10.9,2.6c2.4,2.4,1.5,13.3,0.7,13.9s8.8,7.9,8.8,7.9s22.6-14.9,30.3-15.3s24.4-1.3,28.8,2.2
	s12.9,13.6,13.1,20.9s-5.1,19-7.9,21.1s-9.8,7-19.4,3.4s-39-6.2-41.8-5.4s-17,10.4-24.1,11.9s-25.9,1.7-33.1-3.4
	S16.3,146.3,20.5,122.8z"/>
<path class="st0" d="M48.1,101.3c-0.2,0.2-0.2,0.5,0,0.7c0.2,0.2,0.5,0.5,0.7,0.8c0.1,0.2,0.2,0.4,0.3,0.6c0.1,0.2,0.1,0.4,0.2,0.6
	c0,0.6,0.1,1.1,0.1,1.7c0,0.6,0,1.1-0.1,1.7c-0.1,0.5-0.2,0.9-0.3,1.3c-0.2,0.5-0.5,1-0.8,1.4c-0.2,0.2-0.3,0.4-0.5,0.7
	c-0.2,0.3-0.3,0.7-0.5,1c-0.3,0.7-0.4,1.4-0.5,2.1c0,0.4,0,0.7,0.1,1.1c0.1,0.3,0.3,0.7,0.4,1c0.2,0.3,0.4,0.6,0.6,0.9
	c0.1,0.2,0.3,0.3,0.4,0.5s0.2,0.2,0.4,0.4c0.4,0.3,0.8,0.7,1.2,1s0.8,0.8,1.2,1.1c0.4,0.3,0.8,0.7,1.2,1.1c0.2,0.2,0.3,0.5,0.5,0.8
	c0.2,0.3,0.4,0.7,0.6,1.1l0,0.1c0.2,0.6,0.4,1.2,0.5,1.8c0.1,0.7,0.3,1.3,0.5,1.9c0.1,0.3,0.2,0.7,0.3,1s0.3,0.8,0.5,1.1
	c0.1,0.3,0.3,0.6,0.5,0.9c0.2,0.3,0.5,0.7,0.7,1c0.2,0.2,0.4,0.5,0.7,0.7c0.2,0.2,0.5,0.4,0.7,0.7c0.3,0.3,0.6,0.5,1,0.7
	c0.4,0.2,0.7,0.4,1.1,0.5c0.3,0.1,0.7,0.2,1,0.3c0.4,0.1,0.8,0.1,1.2,0.1c0.7,0.1,1.4,0.1,2.2,0.1h1.8c0.6,0,1.1,0,1.7,0
	c0.3,0.1,0.6,0.1,0.8,0.2c0.2,0.1,0.4,0.2,0.6,0.3c0.1,0.1,0.3,0.2,0.4,0.4c0,0.1,0.1,0.1,0.1,0.2c0.2,0.4,0.8,0.6,1.2,0.3
	c0.1-0.1,0.2-0.2,0.3-0.3c0.1-0.2,0.2-0.5,0.1-0.7c0-0.2-0.1-0.3-0.2-0.5c-0.1-0.1-0.2-0.3-0.3-0.4l-0.3-0.3c-0.3-0.3-0.6-0.5-1-0.7
	c-0.2-0.1-0.4-0.2-0.7-0.2c-0.2,0-0.3-0.1-0.5-0.1c-0.4-0.1-0.8-0.1-1.2-0.1h-2.1c-0.7,0-1.5,0-2.2-0.1c-0.4,0-0.9-0.1-1.3-0.1
	c-0.2,0-0.4-0.1-0.6-0.1c-0.2-0.1-0.4-0.1-0.6-0.2c-0.4-0.2-0.9-0.4-1.3-0.7l-0.9-0.8c-0.1-0.1-0.3-0.3-0.4-0.4
	c-0.1-0.1-0.2-0.2-0.3-0.4c-0.4-0.6-0.8-1.3-1.1-1.9c-0.2-0.6-0.4-1.3-0.6-1.9c-0.2-0.6-0.3-1.3-0.5-1.9c-0.2-0.7-0.5-1.4-0.9-2.1
	c-0.2-0.3-0.4-0.6-0.6-0.9c-0.2-0.3-0.5-0.6-0.7-0.9c-0.4-0.4-0.8-0.8-1.2-1.2l-0.6-0.6c-0.2-0.2-0.5-0.4-0.7-0.6s-0.6-0.5-0.8-0.7
	s-0.3-0.2-0.4-0.3s-0.2-0.2-0.3-0.4c-0.3-0.4-0.6-0.8-0.8-1.2c-0.1-0.2-0.1-0.3-0.1-0.5c0-0.3,0-0.7,0-1c0-0.2,0.1-0.5,0.2-0.7
	c0.1-0.2,0.1-0.4,0.2-0.6c0.3-0.5,0.6-1,1-1.5c0.4-0.6,0.6-1.2,0.8-1.9c0.1-0.7,0.2-1.4,0.2-2.2c0-0.7,0-1.4-0.1-2.1
	c0-0.3-0.1-0.6-0.2-0.8c-0.1-0.3-0.2-0.5-0.3-0.8c-0.1-0.2-0.3-0.5-0.5-0.7c-0.2-0.2-0.4-0.4-0.7-0.7
	C48.5,101.1,48.3,101.1,48.1,101.3C48.1,101.2,48.1,101.2,48.1,101.3L48.1,101.3z"/>
<path class="st0" d="M48.1,101.3c-0.1,0.1-0.2,0.2-0.1,0.4c0,0.1,0.1,0.3,0.2,0.3l0.6,0.6l0,0l0.4,0.6l0,0c0,0.2,0.1,0.4,0.2,0.7
	v0.7c0,0.5,0,0.9,0,1.4c0,0.5-0.1,0.9-0.1,1.4c-0.1,0.5-0.2,0.9-0.4,1.3c-0.2,0.4-0.4,0.8-0.7,1.2l-0.4,0.6
	c-0.1,0.2-0.3,0.4-0.3,0.6c-0.4,0.8-0.7,1.7-0.7,2.6c0,0.9,0.3,1.8,0.8,2.5c0.2,0.4,0.5,0.7,0.8,1.1c0.3,0.3,0.7,0.6,1,0.9
	s0.7,0.6,1,0.9s0.7,0.6,1,1c0.7,0.6,1.2,1.4,1.7,2.2c0.6,1.7,1.2,3.5,1.6,5.3c0.4,0.9,0.9,1.7,1.4,2.4l0.4,0.6l0.5,0.5
	c0.3,0.3,0.7,0.6,1,0.9c0.7,0.5,1.5,1,2.4,1.2c0.4,0.1,0.9,0.2,1.3,0.2c0.5,0.1,0.9,0.1,1.4,0.1c0.9,0.1,1.8,0.1,2.8,0.1
	c0.9,0,1.9,0,2.8,0.3l0,0l0.6,0.3l0,0l0.4,0.4l0,0c0.1,0.4,0.5,0.6,0.9,0.5c0.2-0.1,0.4-0.2,0.5-0.4c0-0.1,0-0.3,0-0.4l-0.2-0.5
	c-0.2-0.3-0.4-0.5-0.7-0.8c-0.3-0.2-0.6-0.4-0.9-0.5l-0.5-0.2c-0.2,0-0.3-0.1-0.5-0.1l-1-0.1h-1.1c-0.7,0-1.5,0-2.3,0
	s-1.5-0.1-2.3-0.2c-0.4-0.1-0.8-0.2-1.2-0.3c-0.3-0.2-0.7-0.4-1-0.6c-0.3-0.2-0.6-0.4-0.9-0.7c-0.3-0.2-0.6-0.5-0.8-0.8
	c-0.5-0.6-0.9-1.3-1.2-2c-0.3-0.7-0.5-1.4-0.7-2.2l-0.6-2.2c-0.2-0.7-0.5-1.4-0.9-2c-0.4-0.6-0.8-1.2-1.3-1.8c-0.5-0.5-1-1-1.6-1.6
	s-1.2-0.9-1.7-1.4c-0.6-0.6-1-1.2-1.4-1.9l0,0l-0.2-0.5l0,0l0,0v-1c0-0.3,0.1-0.6,0.2-0.9c0.2-0.6,0.5-1.2,0.9-1.7
	c0.7-1,1.2-2.1,1.3-3.3c0.1-0.6,0.1-1.2,0-1.8c0-0.6,0-1.2-0.1-1.8c-0.1-0.6-0.3-1.2-0.7-1.6c-0.2-0.2-0.4-0.5-0.6-0.7
	C48.6,101.2,48.3,101.2,48.1,101.3z M48.1,101.3c0.2-0.2,0.6-0.2,0.8,0.1c0,0,0,0,0,0.1c0.2,0.2,0.4,0.4,0.6,0.7
	c0.4,0.5,0.7,1.1,0.8,1.7c0.1,0.6,0.2,1.2,0.2,1.8c0.1,0.6,0.1,1.2,0,1.8c-0.1,1.3-0.5,2.5-1.2,3.5c-0.4,0.5-0.6,1-0.8,1.6
	c-0.1,0.3-0.1,0.6-0.2,0.9v0.9l0,0l0.1,0.5l0,0c0.3,0.6,0.8,1.2,1.3,1.7c0.6,0.5,1.1,0.9,1.7,1.4s1.1,1,1.7,1.6
	c0.5,0.6,1,1.2,1.4,1.8c0.4,0.7,0.7,1.4,0.9,2.1l0.6,2.2c0.2,0.7,0.4,1.4,0.7,2.1c0.3,0.7,0.7,1.3,1.2,1.8c1,1.1,2.2,1.9,3.6,2.2
	c0.7,0.1,1.5,0.2,2.2,0.2s1.5,0.1,2.2,0.1c0.4,0,0.8,0,1.1,0l1.2,0.1l0.6,0.1l0.6,0.2c0.4,0.2,0.7,0.4,1,0.6
	c0.3,0.3,0.6,0.6,0.8,0.9l0.2,0.6c0.1,0.2,0,0.5-0.1,0.7c-0.2,0.4-0.6,0.7-1.1,0.7c-0.2,0-0.4-0.1-0.6-0.2c-0.1-0.1-0.2-0.2-0.2-0.3
	l-0.1-0.2l0,0l-0.4-0.3l0,0l-0.6-0.3l0,0c-0.9-0.2-1.8-0.3-2.7-0.2c-0.9,0-1.8,0-2.8-0.1c-0.5,0-0.9-0.1-1.4-0.1
	c-0.5,0-0.9-0.1-1.4-0.3c-0.9-0.3-1.8-0.7-2.5-1.3c-0.4-0.3-0.7-0.6-1-0.9l-0.5-0.5l-0.4-0.6c-0.5-0.8-1-1.6-1.3-2.5
	c-0.4-1.8-0.9-3.6-1.5-5.3c-0.4-0.8-0.9-1.6-1.6-2.2c-0.3-0.4-0.6-0.7-1-1c-0.3-0.3-0.7-0.6-1-0.9s-0.7-0.6-1-0.9
	c-0.3-0.3-0.6-0.7-0.8-1.1c-0.6-0.8-0.9-1.7-0.8-2.6c0.1-0.9,0.3-1.8,0.8-2.7c0.1-0.2,0.2-0.4,0.4-0.6l0.4-0.6
	c0.3-0.4,0.5-0.8,0.7-1.2c0.2-0.4,0.3-0.9,0.4-1.3c0-0.5,0.1-0.9,0.1-1.4c0-0.5,0-0.9,0-1.4V104c0-0.2-0.1-0.4-0.2-0.7l0,0l-0.3-0.6
	l0,0l-0.6-0.6c-0.1-0.1-0.2-0.2-0.2-0.4C48,101.5,48,101.4,48.1,101.3L48.1,101.3z"/>
<path class="st0" d="M48.1,110L48.1,110L48.1,110z"/>
<path class="st0" d="M48.1,110C48.1,110,48.1,110,48.1,110c0.1,0.1,0.1,0.1,0.1,0.2l-0.3,1.5V110c0,0,0-0.2,0.2-0.2
	S48.2,109.9,48.1,110z M48.1,110c-0.1,0.1-0.1,0.2,0,0.3c0,0,0.1,0,0.1,0c0,0,0-0.1,0-0.1l-0.3-0.2c0,0,0,0.1,0.1,0.1
	C48,110.1,48.1,110.1,48.1,110L48.1,110z"/>
<path class="st0" d="M95.9,126.3L95.9,126.3c-0.2,0.1-0.4,0.2-0.6,0.3l-0.3,0.2l-0.6,0.4c-0.4,0.3-0.8,0.6-1.2,1
	c-0.3,0.3-0.7,0.6-1,1l-0.4,0.4c-0.2,0.2-0.3,0.4-0.4,0.5l-0.1,0.1l0,0l0,0c-0.4,0.4-0.9,0.8-1.3,1.1s-0.8,0.8-1.2,1.2
	s-0.8,0.9-1.2,1.3s-0.7,0.9-1.1,1.3c-0.3,0.4-0.6,0.7-1,1c-0.2,0.1-0.4,0.3-0.7,0.4c-0.2,0.1-0.3,0.1-0.5,0.1c-0.2,0-0.4,0-0.7,0
	h-0.2c-0.4,0-0.7,0-1.1,0c-0.2,0-0.5,0.1-0.7,0.1c-0.2,0.1-0.3,0.1-0.5,0.3c-0.2,0.2-0.3,0.6-0.2,0.9c0,0.1,0.1,0.2,0.2,0.3l0.1,0.2
	c0.1,0.1,0.2,0.3,0.2,0.4c0.1,0.2,0.1,0.4,0.2,0.6c0,0.1,0,0.2,0,0.3c0,0.2-0.1,0.4-0.2,0.5c-0.1,0.2-0.2,0.3-0.2,0.4
	c-0.2,0.2-0.3,0.3-0.5,0.5c-0.5,0.3-1,0.6-1.5,0.8c-0.3,0.1-0.5,0.2-0.8,0.3l-1,0.3l-0.9,0.3c-0.3,0.1-0.6,0.1-0.9,0.2
	c-0.9,0.1-1.7,0.1-2.6,0c-0.4-0.1-0.8-0.1-1.1-0.2c-0.3-0.1-0.7-0.2-1-0.3c-0.3-0.2-0.7-0.3-1-0.5c-0.3-0.2-0.6-0.4-0.9-0.6
	c-0.1-0.1-0.3-0.2-0.4-0.4c-0.1-0.1-0.2-0.2-0.2-0.4c-0.1-0.3-0.2-0.6-0.2-0.9c0-0.2,0-0.5,0-0.7c0-0.3,0.1-0.6,0.2-0.9
	c0.1-0.2,0.2-0.4,0.4-0.6c0.2-0.3,0.5-0.5,0.7-0.7c0.2-0.1,0.3-0.2,0.5-0.3l0.7-0.3c0.2-0.1,0.3-0.4,0.1-0.5c0,0,0,0,0,0
	c-0.1-0.1-0.1-0.2-0.2-0.2c-0.1,0-0.2,0-0.3,0.1c-0.3,0.1-0.6,0.3-0.9,0.4c-0.3,0.2-0.5,0.4-0.7,0.6c-0.2,0.2-0.4,0.4-0.6,0.6
	l-0.3,0.4c-0.1,0.1-0.2,0.3-0.2,0.4c-0.3,0.6-0.4,1.2-0.4,1.8c0,0.3,0.1,0.6,0.2,0.9c0.1,0.3,0.2,0.6,0.4,0.9c0.4,0.6,0.9,1,1.5,1.4
	c0.5,0.4,1,0.7,1.6,0.9l0.8,0.3c0.3,0.1,0.6,0.2,0.9,0.2s0.7,0.1,1,0.1c0.3,0,0.6,0,0.8,0c0.7,0,1.3-0.1,2-0.2
	c0.3-0.1,0.5-0.1,0.8-0.2L78,144c0.3-0.1,0.6-0.2,0.9-0.3s0.6-0.2,0.9-0.4c0.5-0.2,1-0.5,1.4-0.8c0.2-0.1,0.4-0.3,0.6-0.5
	c0.2-0.2,0.4-0.3,0.5-0.5c0.1-0.2,0.2-0.4,0.3-0.6c0.1-0.2,0.2-0.4,0.2-0.7c0.1-0.3,0.1-0.6,0.1-0.9c0-0.3-0.1-0.5-0.1-0.8
	c0-0.1-0.1-0.3-0.1-0.4c0.3,0,0.6,0,0.9,0c0.3,0,0.6,0,0.9-0.1c0.3-0.1,0.6-0.1,0.9-0.3c0.5-0.2,1-0.6,1.3-1
	c0.4-0.4,0.8-0.8,1.1-1.2c0.4-0.4,0.7-0.9,1.1-1.3s0.8-0.9,1.1-1.2c0.2-0.2,0.4-0.4,0.6-0.7l0.6-0.6l0.6-0.6
	c0.1-0.1,0.3-0.2,0.3-0.4l0.1-0.2l0,0c0.3-0.4,0.6-0.7,1-1c0.3-0.4,0.7-0.7,1.1-1s0.8-0.6,1.2-0.9l-0.1,0.1l0.3-0.2l0.2-0.1
	c0.1-0.1,0.2-0.1,0.3-0.2c0.3-0.2,0.4-0.5,0.2-0.8c-0.1-0.1-0.2-0.2-0.4-0.3h-0.2C96.1,126.3,96,126.3,95.9,126.3L95.9,126.3z
	 M91.5,130.1L91.5,130.1L91.5,130.1L91.5,130.1L91.5,130.1z M91.5,130.1L91.5,130.1z M92.7,130.5L92.7,130.5L92.7,130.5z M69,141.2
	L69,141.2L69,141.2z"/>
<path class="st0" d="M73.4,137.6c0,0.3,0,0.6,0,0.9c0,0.1,0,0.2,0,0.4c0,0.2,0.1,0.3,0.1,0.4c0,0,0,0.1,0.1,0.1
	c0.1,0.1,0.2,0.2,0.2,0.2c0.1,0.1,0.2,0.1,0.4,0.2c0.2,0,0.4,0,0.6,0c0.2,0,0.4,0,0.5-0.1c0.2-0.1,0.4-0.2,0.6-0.3
	c0.1-0.1,0.2-0.1,0.3-0.2c0.1-0.1,0.2-0.2,0.2-0.3c0-0.1,0.1-0.1,0.1-0.2c0-0.1,0-0.2-0.1-0.3c-0.1-0.1-0.4-0.2-0.5-0.1
	c-0.1,0.1-0.2,0.1-0.3,0.2l-0.2,0.1c-0.1,0-0.3,0.1-0.4,0.1h-0.3h-0.1l0,0l0,0l0,0c0-0.1,0-0.1,0-0.2c0-0.3,0-0.7,0-1
	c0-0.3-0.2-0.5-0.5-0.5S73.4,137.4,73.4,137.6L73.4,137.6z"/>
<path class="st0" d="M137.2,107.6c-1.3,0-2.6,0.1-3.9,0.3c-0.7,0.1-1.4,0.2-2.1,0.3l-2,0.4c-0.6,0.1-1.3,0.3-1.9,0.4
	s-1.2,0.3-1.8,0.5s-1.2,0.4-1.7,0.6l-1.7,0.6c-1.2,0.4-2.5,0.9-3.7,1.4c-0.6,0.3-1.2,0.5-1.8,0.8s-1.2,0.6-1.9,0.9
	c-1.1,0.5-2.1,1.1-3.2,1.7c-2.2,1.2-4.3,2.5-6.4,4c-1,0.7-2.1,1.5-3.1,2.3c-0.5,0.4-1,0.8-1.4,1.3c-0.4,0.4-0.9,0.9-1.3,1.4
	c-0.3,0.4-0.6,0.8-0.8,1.3c-0.1,0.2-0.2,0.4-0.3,0.6c-0.1,0.3-0.1,0.6-0.2,0.9l0,0c0.1-0.3,0.2-0.6,0.3-0.8c0.2-0.4,0.4-0.8,0.7-1.1
	l0,0c0.4-0.5,0.8-0.9,1.3-1.4c0.5-0.4,1-0.8,1.5-1.2s1.1-0.8,1.6-1.1s1-0.6,1.4-0.9l1.8-1.1c0.6-0.3,1.1-0.6,1.7-0.9
	c2.2-1.2,4.5-2.3,6.8-3.4c0.5-0.2,1-0.4,1.5-0.7l1.3-0.6c1.1-0.4,2.3-0.9,3.4-1.2s2.5-0.8,3.7-1.2c0.6-0.2,1.3-0.4,1.9-0.5
	s1.3-0.3,2-0.4c1.2-0.2,2.4-0.4,3.6-0.6l1.5-0.2h0.7l0.9-0.1c0.6,0,1.1,0,1.7,0h1.7c1.1,0,2.2,0.1,3.2,0.1c0.5,0,1.1,0.1,1.6,0.1
	s1,0.1,1.5,0.2c0.7,0.1,1.3,0.2,2,0.3c0.3,0.1,0.7,0.1,1,0.2l1.3,0.4c0.4,0.1,0.8,0.2,1.1,0.4l0.9,0.3c0.7,0.2,1.3,0.5,2,0.8
	l1.2,0.6c0.4,0.2,0.8,0.4,1.2,0.6s0.8,0.5,1.1,0.7s0.7,0.5,1,0.7c0.6,0.5,1.2,1,1.8,1.5c0.6,0.6,1.1,1.2,1.6,1.8
	c0.3,0.4,0.6,0.7,0.8,1.1s0.6,1,0.9,1.5s0.5,1,0.8,1.5c0.2,0.3,0.3,0.7,0.5,1.1l0.4,1.1c0.1,0.2,0.1,0.4,0.2,0.6s0.1,0.4,0.2,0.6
	c0.1,0.4,0.2,0.8,0.3,1.2s0.1,0.8,0.2,1.2c0.1,0.4,0.1,0.8,0.1,1.1s0.1,0.9,0.1,1.3c0.1,0.8,0.1,1.6,0.1,2.4s0,1.6,0,2.4
	c0,0.4,0,0.9-0.1,1.3l-0.1,1.4c-0.1,1.1-0.3,2.2-0.6,3.4c-0.1,0.6-0.3,1.2-0.5,1.8s-0.4,1.2-0.6,1.9c-0.8,2.4-1.7,4.8-2.6,7.2
	l-0.3,0.7l0,0c0.6-1.1,1.1-2.2,1.7-3.2c0.3-0.6,0.6-1.1,0.9-1.6s0.6-1.2,0.9-1.8s0.5-1.1,0.8-1.6s0.6-1.2,0.8-1.8s0.5-1.2,0.6-1.8
	c0.1-0.4,0.2-0.7,0.4-1.1s0.1-0.5,0.2-0.8s0.1-0.6,0.2-0.8l0.2-1.1c0.1-0.7,0.2-1.4,0.3-2.1c0.1-1.3,0.2-2.6,0.2-3.9
	c0-1.3,0-2.6-0.2-3.9l-0.1-1.1c-0.1-0.3-0.1-0.7-0.2-1c-0.1-0.5-0.3-1.1-0.4-1.6c-0.1-0.4-0.3-0.8-0.4-1.2s-0.3-0.7-0.4-1
	s-0.2-0.5-0.4-0.7s-0.3-0.5-0.4-0.8l-0.5-0.9c-0.2-0.3-0.4-0.6-0.6-0.9s-0.3-0.4-0.5-0.6s-0.4-0.6-0.7-0.9l-0.8-0.9
	c-0.5-0.6-1.1-1.2-1.8-1.7c-0.4-0.3-0.7-0.6-1.1-0.8s-0.5-0.3-0.7-0.5s-0.5-0.4-0.8-0.5l-1-0.6c-0.2-0.1-0.4-0.2-0.6-0.3
	c-0.4-0.2-0.7-0.3-1.1-0.5c-0.6-0.2-1.2-0.5-1.8-0.7s-1.3-0.5-2-0.7s-1.2-0.4-1.8-0.6l-0.8-0.2c-0.3-0.1-0.6-0.2-0.8-0.2
	c-0.7-0.1-1.4-0.3-2.1-0.3s-1.3-0.2-2-0.2l-2-0.1c-0.6,0-1.2,0-1.8,0h-1.6c-0.6,0-1.3,0-1.9,0L137.2,107.6z M132.6,109.8
	L132.6,109.8z M116.5,114.5L116.5,114.5L116.5,114.5z M99.1,125.1L99.1,125.1z"/>
<path class="st0" d="M96.3,127.5l-0.2,0.1c-0.4-0.3-0.7-0.6-1-0.9c-0.4-0.4-0.7-0.8-1-1.2s-0.7-0.8-1.1-1.3c-0.4-0.4-0.7-0.8-1-1.3
	c-0.2-0.4-0.5-0.7-0.7-1.1s-0.6-0.7-0.9-1.1s-0.5-0.7-0.8-1c-0.3-0.4-0.6-0.8-0.8-1.2l-0.8-1.3c-0.3-0.5-0.5-1-0.8-1.6
	c-0.1-0.2-0.2-0.4-0.2-0.7c-0.1-0.4-0.2-0.7-0.2-1.1c0-0.2,0-0.4,0-0.7c0-0.4,0-0.7,0-1.1c0-0.2,0.1-0.5,0.1-0.7
	c0.1-0.3,0.2-0.6,0.3-1s0.3-0.8,0.5-1.2c0.3-0.7,0.7-1.5,1-2.3c0.1-0.3,0.1-0.5,0.1-0.8c0-0.3,0-0.6-0.1-0.8
	c-0.1-0.3-0.2-0.6-0.2-0.8c-0.1-0.3-0.2-0.5-0.3-0.8l0,0l-0.2-0.2c-0.2-0.1-0.4-0.2-0.6-0.3c-0.2-0.1-0.5-0.1-0.7-0.1
	c-0.2,0-0.5,0.1-0.7,0.1c-0.3,0-0.6,0-0.9,0c-0.4-0.1-0.8-0.3-1.2-0.5c-0.3-0.2-0.5-0.5-0.6-0.8c-0.1-0.1-0.1-0.2-0.2-0.3l-0.1-0.1
	h-0.1h-0.1l0,0h-0.1h-0.1l-0.1,0.2c0,0.1,0,0.3-0.1,0.4c0,0.3-0.1,0.5-0.3,0.7c-0.2,0.3-0.6,0.5-1,0.4c-0.3-0.1-0.6-0.2-0.8-0.4
	c-0.2-0.2-0.4-0.4-0.5-0.6c-0.2-0.4-0.4-0.7-0.6-1.2c-0.1-0.2-0.2-0.3-0.2-0.5s0-0.1,0-0.1h-0.2c-0.2,0-0.3,0-0.5,0.1
	c-0.2,0-0.3,0-0.5,0.1l-0.3,0.1c-0.6,0.2-1.3,0.3-1.9,0.2c-0.3,0-0.7-0.1-0.9-0.4c-0.3-0.3-0.5-0.7-0.4-1.1c0-0.1,0-0.1,0-0.2
	c0-0.3,0-0.6,0-1s0-0.4,0-0.6v-0.3l-0.2,0.1c-0.3,0.2-0.5,0.3-0.7,0.5c-0.2,0.2-0.5,0.3-0.8,0.5h0.1c-0.2,0.2-0.5,0.4-0.8,0.6
	c-0.2,0.2-0.5,0.3-0.8,0.5c-0.7,0.4-1.2,0.9-1.9,1.2c-0.2,0.1-0.4,0.2-0.7,0.3c-0.3,0.1-0.6,0.2-0.9,0.2c-0.6,0.1-1.1,0.2-1.7,0.2
	c-1.1-0.1-2.1-0.6-2.9-1.3c-0.1-0.1-0.3-0.3-0.4-0.4h-0.4c-0.3,0-0.7,0.1-1.1,0.1l-1.2,0.2c-0.4,0.1-0.8,0.1-1.3,0.2l-1.1,0.2
	c-0.8,0.2-1.7,0.5-2.5,0.8c-0.4,0.1-0.8,0.3-1.2,0.4c-0.4,0.1-0.8,0.3-1.2,0.5c-0.2,0.1-0.5,0.3-0.7,0.5c-0.2,0.2-0.4,0.5-0.6,0.7
	c-0.3,0.4-0.9,0.4-1.3,0.1c-0.3-0.3-0.4-0.7-0.3-1.1c0-0.1,0.1-0.1,0.1-0.2c0.2-0.3,0.4-0.6,0.7-0.8c0.2-0.2,0.5-0.5,0.8-0.7
	c0.6-0.4,1.3-0.7,1.9-0.9l0.9-0.3c0.3-0.1,0.7-0.2,1-0.3c0.7-0.2,1.4-0.4,2.2-0.6c0.4-0.1,0.9-0.2,1.3-0.3l1.4-0.2
	c0.4-0.1,0.8-0.1,1.3-0.1c0.4,0,0.9,0,1.3,0c0.2,0,0.5,0,0.7,0.1c0.2,0.1,0.4,0.2,0.6,0.4c0.2,0.2,0.3,0.3,0.5,0.5
	c0.2,0.2,0.3,0.3,0.5,0.4c0.3,0.2,0.6,0.3,0.8,0.4c0.2,0,0.4,0.1,0.5,0.1c0.4,0,0.8-0.1,1.2-0.2c0.2,0,0.3-0.1,0.5-0.2
	c0.6-0.3,1.1-0.8,1.7-1.2c0.3-0.2,0.6-0.3,0.8-0.5c0.2-0.1,0.4-0.3,0.6-0.5c0.1-0.1,0.1-0.1,0.2-0.2c0.2-0.1,0.3-0.3,0.5-0.4
	l0.6-0.5c0.3-0.2,0.6-0.4,0.9-0.5c0.3-0.1,0.6-0.2,0.9-0.2c0.2,0,0.3,0,0.5,0c0.3,0.1,0.6,0.2,0.8,0.3c0.4,0.3,0.6,0.8,0.7,1.3
	c0,0.2,0,0.5,0,0.7v0.6c0,0.2,0,0.4,0,0.5c0.5,0,0.9-0.1,1.4-0.2c0.3-0.1,0.6-0.1,0.8-0.1l0.6-0.1l0.3-0.1c0.4,0,0.7,0.1,1,0.3
	c0.1,0.1,0.3,0.3,0.4,0.4c0.1,0.2,0.2,0.3,0.3,0.5l0.2,0.6l0.2-0.1c0.3-0.2,0.6-0.3,0.9-0.3c0.7-0.1,1.3,0.1,1.8,0.5
	c0.2,0.2,0.4,0.4,0.5,0.6c0.1,0.2,0.2,0.4,0.3,0.5l0,0h0.1l0.2,0.1c0.1,0,0.2,0,0.3,0c0.2,0,0.5,0,0.7-0.1c0.2,0,0.4-0.1,0.5-0.1
	c0.3,0,0.7,0,1,0c0.2,0,0.5,0.1,0.7,0.1c0.3,0.1,0.6,0.2,0.9,0.3c0.2,0.1,0.4,0.2,0.6,0.4c0.1,0.1,0.3,0.3,0.4,0.5
	c0.2,0.3,0.3,0.5,0.4,0.8c0.5,1,0.8,2,0.8,3.1c0,0.2,0,0.4-0.1,0.7c-0.1,0.3-0.2,0.7-0.3,1c-0.2,0.5-0.4,1-0.6,1.4
	c-0.3,0.6-0.6,1.3-0.8,1.9c-0.1,0.3-0.1,0.7-0.2,1c0,0.5,0.1,1,0.2,1.5c0.2,0.5,0.4,1.1,0.6,1.6c0.3,0.6,0.7,1.3,1.2,1.9
	c0.2,0.3,0.5,0.6,0.7,0.8s0.4,0.5,0.6,0.7c0.5,0.5,1,1.1,1.4,1.7c0.2,0.3,0.4,0.6,0.7,0.8s0.5,0.6,0.7,0.8c0.4,0.4,0.7,0.8,1,1.2
	c0.3,0.4,0.6,0.9,0.9,1.2s0.6,0.5,0.5,1C97.7,126.5,97,127,96.3,127.5z"/>
<path class="st0" d="M117.3,26.1c-2.3,0.1-4.6,0.3-6.9,0.8c-1.1,0.2-2.2,0.5-3.4,0.9s-2.2,0.8-3.3,1.2c-6.4,2.8-11.9,7.3-15.8,13.1
	c-1.3,1.9-2.4,3.8-3.3,5.9c-1.8,4.2-2.9,8.7-3.1,13.2c0,1.1,0,2.1,0,3.2c0,0.5,0.1,1,0.1,1.6s0.1,1.1,0.2,1.7
	c0.3,2.3,0.9,4.6,1.6,6.8c0.6,1.8,1.4,3.6,2.3,5.3c0.9,1.8,2,3.5,3.2,5.1c1.1,1.5,2.3,2.9,3.7,4.2c1.3,1.3,2.7,2.5,4.2,3.6
	c0.1,0,0.1,0,0.2,0c0-0.1,0-0.1,0-0.2l-0.9-0.6l0,0c-1.2-1-2.4-2-3.5-3.1c-1.1-1.1-2.2-2.3-3.1-3.5l0,0c-0.9-1.2-1.8-2.5-2.6-3.9
	c-0.8-1.3-1.5-2.7-2.1-4.1l0,0c-0.3-0.7-0.6-1.4-0.8-2.2s-0.5-1.6-0.8-2.4c-0.4-1.5-0.8-3.1-1-4.7l0,0c-0.1-0.8-0.2-1.6-0.2-2.4
	S82,64,82,63.2s0-1.5,0.1-2.3s0.1-1.8,0.3-2.7v0.1c0.2-1.6,0.5-3.2,0.9-4.7c0.4-1.6,1-3.1,1.6-4.6c0.6-1.4,1.3-2.7,2-4
	c0.8-1.4,1.7-2.7,2.7-4c1-1.3,2-2.4,3.1-3.6c1.1-1.1,2.3-2.1,3.5-3.1l0,0c2.5-1.9,5.2-3.5,8.1-4.8h-0.1c1.5-0.6,3.1-1.1,4.7-1.5
	c1.5-0.4,3.1-0.7,4.7-1c1.6-0.2,3.2-0.3,4.9-0.3c1.6,0,3.2,0.1,4.8,0.3c1.5,0.2,3,0.5,4.5,0.9c1.5,0.4,3.1,0.9,4.6,1.5l0,0
	c0.7,0.3,1.4,0.6,2.1,0.9s1.4,0.7,2.1,1.1c1.4,0.8,2.7,1.7,3.9,2.6l0,0h0.1l0,0c1.2,0.9,2.4,2,3.5,3.1c1.2,1.1,2.2,2.3,3.2,3.6l0,0
	c0.9,1.2,1.8,2.5,2.5,3.8c0.8,1.4,1.5,2.8,2.1,4.2v-0.1c0.6,1.5,1.1,3,1.6,4.5c0.4,1.6,0.8,3.1,1,4.7V58c0.2,1.7,0.3,3.3,0.3,5
	c0,1.7-0.1,3.4-0.3,5.1V68c-0.2,1.4-0.5,2.9-0.8,4.3c0,0.2,0.1,0.3,0.3,0.3c0.1,0,0.2-0.1,0.3-0.2c0.6-2.2,1-4.4,1.1-6.7
	c0.2-2.3,0.1-4.6-0.1-6.8c-0.5-4.6-1.9-9-4-13c-1.1-2-2.3-3.9-3.7-5.6c-1.4-1.8-3-3.5-4.7-5c-1.7-1.5-3.6-2.8-5.5-4
	c-5.7-3.3-12.2-5-18.8-5L117.3,26.1z M84.9,77.3L84.9,77.3L84.9,77.3z M82.3,68L82.3,68z M96.2,34.3L96.2,34.3L96.2,34.3z
	 M140.4,34.2L140.4,34.2L140.4,34.2L140.4,34.2z"/>
<path class="st0" d="M188.6,95c0,12.3-2.4,24.5-6.9,35.9c-4.6,11.5-11.4,21.9-20,30.8c-17.5,18-41.6,28-66.7,27.9
	c-18.7-0.1-36.8-5.8-52.2-16.4c-5.1-3.4-9.9-7.4-14.2-11.8C11,143.8,1,119.9,0.8,95C0.6,69.9,10.4,45.8,28,28
	c8.8-8.8,19.2-15.8,30.7-20.6c35.4-14.9,76.2-6.6,103,20.9C179,46.2,188.7,70.1,188.6,95z M188.4,95c0-24.7-10.1-48.4-27.8-65.5
	c-8.7-8.5-19-15.2-30.2-19.8c-5.6-2.3-11.4-4-17.3-5.2C62.6-5.3,13.7,27.6,3.9,78c-1.1,5.6-1.7,11.3-1.7,17
	c-0.3,24.7,9.5,48.4,27,65.8c22.1,21.6,53.5,30.9,83.8,24.8c5.9-1.2,11.7-3,17.3-5.2c11.2-4.6,21.5-11.4,30.2-19.8
	c8.7-8.5,15.7-18.7,20.5-29.9C185.9,119.4,188.4,107.3,188.4,95L188.4,95z"/>
<path class="st0" d="M43,100.1c-0.9,0.1-1.8,0.4-2.7,0.8c-0.5,0.2-0.9,0.4-1.4,0.7s-0.6,0.3-0.9,0.5l-0.9,0.6
	c-1.3,0.8-2.6,1.7-3.9,2.5c-0.7,0.4-1.3,0.9-1.9,1.4c-0.1,0.1-0.2,0.1-0.3,0.2l-0.6,0.5c-0.3,0.2-0.5,0.4-0.8,0.7s-0.6,0.5-0.8,0.7
	s-0.7,0.7-1.1,1.1s-0.4,0.5-0.6,0.7s-0.6,0.6-0.9,1l-0.9,1.1c-0.2,0.3-0.5,0.6-0.7,0.9c-0.6,0.8-1.1,1.6-1.6,2.4
	c-0.5,0.9-0.9,1.8-1.3,2.8c-0.2,0.6-0.4,1.2-0.6,1.8c-0.1,0.3-0.2,0.6-0.3,0.9c-0.1,0.5-0.2,1-0.4,1.6c-0.1,0.4-0.1,0.7-0.2,1.1
	s-0.2,0.8-0.2,1.2l-0.2,1.4c0,0.3-0.1,0.7-0.1,1c0,0.5-0.1,1.1-0.1,1.6c-0.1,0.9-0.1,1.9,0,2.8c0,1.1,0.1,2.2,0.3,3.3
	c0.1,0.5,0.2,1,0.3,1.5c0.1,0.3,0.1,0.7,0.2,1c0.1,0.5,0.3,1,0.4,1.5c0.1,0.3,0.2,0.6,0.3,1s0.2,0.7,0.4,1c0.3,0.8,0.6,1.5,0.9,2.2
	s0.7,1.5,1.1,2.3l0.6,1.2c0.2,0.4,0.4,0.8,0.6,1.2l0.6,1c0.1,0.1,0.1,0.2,0.2,0.3l0.5,0.8c0.2,0.2,0.3,0.5,0.5,0.8l0.9,1.2
	c1,1.4,2.1,2.6,3.4,3.7c0.9,0.8,1.9,1.5,2.9,2.2c0.2,0.1,0.4,0.3,0.6,0.4l1.3,0.8c0.7,0.4,1.4,0.8,2.1,1.2s1.3,0.7,1.9,1.1
	c0.3,0.2,0.6,0.3,1,0.5l1.1,0.5c0.3,0.2,0.7,0.3,1,0.4l1.1,0.5c0.3,0.1,0.7,0.3,1,0.4l1.2,0.5c0.3,0.1,0.6,0.2,0.8,0.3l1.4,0.4
	c0.3,0.1,0.6,0.2,0.9,0.2c0.5,0.1,1,0.2,1.5,0.4c1.1,0.2,2.2,0.4,3.3,0.4c1.2,0.1,2.3,0,3.5,0c0.8,0,1.6-0.1,2.4-0.1s1.3-0.2,2-0.2
	l1-0.1c0.4,0,0.8-0.1,1.2-0.2l1.1-0.2l1-0.2c1.5-0.3,2.9-0.6,4.4-1L72,164c0.3-0.1,0.6-0.2,0.9-0.3c0.6-0.2,1.2-0.4,1.7-0.7
	s0.9-0.4,1.4-0.6s0.6-0.3,0.9-0.5l1.2-0.7l1-0.6l0.2-0.1l0.7-0.4c0.7-0.4,1.4-0.9,2-1.4s1.3-0.9,1.9-1.4s1.3-1,1.9-1.5l7.5-6.1
	c0.6-0.5,1.2-1,1.7-1.5l0.9-0.8c0.3-0.2,0.5-0.5,0.8-0.7l1-1c0.2-0.2,0.5-0.4,0.7-0.7c0.6-0.6,1.1-1.1,1.6-1.7
	c1.1-1.2,2.1-2.4,3.2-3.6c0.6-0.6,1.1-1.2,1.7-1.9s1.2-1.2,1.8-1.9c1-1.1,2.1-2,3.2-3.1l1.7-1.7l1.7-1.7l1.8-1.8
	c0.6-0.6,1.3-1.2,1.9-1.8s1.3-1.1,1.9-1.7c0.2-0.2,0.5-0.4,0.7-0.6l1-0.7c1.1-0.8,2.2-1.5,3.4-2.2s2.6-1.6,3.8-2.3
	c1.3-0.7,2.5-1.4,3.8-2.1c0.6-0.3,1.3-0.7,2-1l1.4-0.6c0.6-0.2,1.1-0.4,1.7-0.7s1-0.3,1.5-0.4c0.6-0.2,1.2-0.3,1.8-0.4
	c0.5-0.1,1-0.1,1.6-0.2c0.7-0.1,1.4-0.1,2.2-0.2h1.6c0.3,0,0.5,0,0.8,0h0.8c0.6,0,1.1,0.1,1.7,0.2l1,0.1c0.5,0.1,0.9,0.2,1.4,0.3
	c0.5,0.1,0.9,0.3,1.4,0.5c0.9,0.4,1.7,0.8,2.4,1.4c0.4,0.3,0.8,0.7,1.1,1.1c0.6,0.7,1.2,1.4,1.6,2.3c0.4,0.8,0.8,1.7,1,2.6
	c0.1,0.4,0.2,0.8,0.2,1.2c0.1,0.5,0.1,1,0.1,1.5c0,0.4,0,0.8,0,1.2c0,0.5-0.1,1-0.2,1.5c-0.2,0.8-0.5,1.7-0.9,2.4
	c-0.4,0.8-1,1.6-1.6,2.3c-0.2,0.2-0.4,0.4-0.6,0.7c-0.3,0.3-0.6,0.6-1,0.8c-0.3,0.2-0.7,0.4-1.1,0.6c-0.4,0.2-0.9,0.4-1.4,0.6
	c-1,0.3-2,0.5-3,0.6c-0.5,0-0.9,0-1.4-0.1c-0.3-0.1-0.6-0.2-0.8-0.3l-0.3-0.2c-0.1-0.1-0.2-0.2-0.4-0.4l0.1,0.1
	c-0.4-0.4-0.7-1-0.8-1.6c-0.1-0.3-0.1-0.7-0.1-1c0-0.4,0.1-0.8,0.1-1.2c0.1-0.4,0.3-0.8,0.4-1.2c0.2-0.3,0.4-0.6,0.6-0.9
	c0.1-0.1,0.3-0.3,0.4-0.4c0.2-0.1,0.4-0.2,0.6-0.3c0.1,0,0.2-0.1,0.4-0.1h-0.1c0.2,0,0.3,0,0.5,0c0.3,0.1,0.5,0.2,0.8,0.3H149
	c0.1,0,0.2,0.1,0.2,0.2l0.1,0.1v0.1c0,0.2,0.1,0.5,0.1,0.7c0,0.6-0.1,1.2-0.2,1.8c0,0.2,0.1,0.4,0.3,0.4c0.2,0,0.4-0.1,0.4-0.4
	c0.1-0.5,0.1-1,0.2-1.6c0-0.4,0-0.9-0.1-1.3c-0.1-0.4-0.3-0.7-0.6-0.8c-0.1-0.1-0.3-0.2-0.4-0.2c-0.2-0.1-0.4-0.1-0.6-0.2
	c-0.2,0-0.4,0-0.6,0c-0.2,0-0.4,0.1-0.5,0.1c-0.2,0.1-0.3,0.1-0.5,0.2c-0.1,0.1-0.3,0.2-0.4,0.3c-0.2,0.1-0.3,0.3-0.5,0.5
	c-0.2,0.2-0.4,0.5-0.5,0.7c-0.5,0.8-0.8,1.7-0.9,2.7c-0.1,0.9,0.1,1.8,0.4,2.6c0.3,0.8,0.9,1.4,1.6,1.8c0.2,0.1,0.4,0.2,0.7,0.3
	c0.2,0.1,0.4,0.1,0.6,0.1c0.5,0.1,1.1,0.1,1.7,0.1c0.5,0,1.1-0.1,1.6-0.2c0.8-0.2,1.6-0.4,2.4-0.7c0.9-0.4,1.8-0.9,2.6-1.6
	c0.8-0.7,1.4-1.5,2-2.3c0.5-0.8,0.9-1.6,1.3-2.5c0.4-1,0.6-2.1,0.7-3.2c0-0.5,0-1,0-1.5c0-0.5-0.1-1.1-0.1-1.6
	c-0.2-1.1-0.5-2.2-0.9-3.2c-0.4-0.9-0.9-1.8-1.6-2.6c-0.3-0.4-0.7-0.8-1-1.1c-0.4-0.4-0.8-0.8-1.2-1.1c-0.8-0.6-1.6-1.1-2.5-1.5
	c-0.5-0.2-1-0.4-1.5-0.5c-0.4-0.1-0.8-0.2-1.1-0.3l-1.3-0.2c-0.4,0-0.7-0.1-1.1-0.1c-0.7-0.1-1.4-0.1-2.2-0.2c-0.4,0-0.8,0-1.2,0
	s-0.7,0-1,0l-1.3,0.1c-0.4,0-0.7,0.1-1.1,0.1c-0.6,0-1.1,0.1-1.7,0.2c-1.1,0.2-2.2,0.4-3.2,0.8c-0.6,0.2-1.1,0.4-1.7,0.6l-1.4,0.6
	c-0.2,0.1-0.4,0.2-0.7,0.3l-1.4,0.7c-0.7,0.3-1.3,0.7-2,1s-1.3,0.7-2,1.1s-1.3,0.7-1.9,1.1c-1.3,0.8-2.6,1.5-3.9,2.4l-1.2,0.8
	c-0.3,0.2-0.6,0.4-1,0.7l-0.9,0.7c-0.1,0.1-0.2,0.2-0.3,0.2l-0.7,0.6c-1.3,1-2.4,2.2-3.6,3.3s-2.2,2.1-3.3,3.2s-2.2,2.1-3.3,3.1
	l-0.9,0.8c-0.3,0.3-0.6,0.6-1,1c-0.6,0.6-1.1,1.1-1.7,1.7s-1,1-1.4,1.6l-1.6,1.7c-0.5,0.6-1.1,1.2-1.6,1.7s-1.1,1.1-1.7,1.7
	s-1.1,1.1-1.7,1.6s-1.2,1.1-1.8,1.6s-1.2,1-1.8,1.5l-1.9,1.5l-5,4l-2.2,1.8c-0.3,0.3-0.7,0.5-1,0.7l-1.2,0.9l-1.4,0.9L78,158
	c-0.2,0.1-0.4,0.2-0.6,0.3l-1.7,1c-0.2,0.1-0.4,0.2-0.7,0.4s-0.8,0.4-1.1,0.6c-0.7,0.3-1.4,0.6-2.2,0.9s-1.3,0.4-2,0.6
	s-1.1,0.3-1.6,0.4s-1,0.2-1.6,0.4l-1.2,0.3l-0.6,0.1l-2,0.3c-0.5,0.1-1.1,0.1-1.6,0.2c-1.2,0.1-2.4,0.2-3.5,0.3l-2,0.1
	c-0.5,0-1,0-1.6,0s-1.2-0.1-1.8-0.1c-1.1-0.1-2.2-0.4-3.3-0.6l-1.7-0.5l-0.6-0.2c-0.2-0.1-0.5-0.2-0.7-0.3l-1.1-0.4l-0.5-0.2
	l-1.9-0.8c-0.5-0.2-0.9-0.4-1.4-0.7s-0.9-0.4-1.3-0.7l-1.5-0.8l-1.6-0.9c-0.7-0.4-1.4-0.8-2-1.3l-1.3-0.9c-0.5-0.4-1-0.8-1.6-1.2
	s-1-0.9-1.4-1.3c-0.4-0.4-0.8-0.9-1.2-1.4c-0.2-0.3-0.4-0.5-0.6-0.8l-0.6-0.8c-0.1-0.2-0.2-0.4-0.4-0.6c-0.3-0.5-0.6-1-0.9-1.5
	s-0.6-1.1-0.9-1.6s-0.7-1.3-1-2s-0.8-1.5-1.1-2.3c-0.2-0.4-0.4-0.9-0.6-1.4s-0.3-0.8-0.4-1.2s-0.2-0.6-0.3-0.9l-0.4-1.3l-0.4-1.6
	c-0.1-0.6-0.2-1.3-0.3-1.9c-0.1-0.8-0.1-1.6-0.1-2.4c0-0.6,0-1.1,0-1.7s0-1,0.1-1.5c0-0.7,0.1-1.5,0.2-2.2s0.2-1.4,0.3-2.1
	c0-0.3,0.1-0.6,0.2-0.8l0.2-1c0.1-0.5,0.3-1,0.4-1.5c0.4-1.1,1-2.1,1.6-3.1c0.2-0.4,0.4-0.8,0.6-1.1s0.4-0.7,0.6-1s0.6-0.9,0.9-1.4
	c0.1-0.2,0.3-0.4,0.5-0.6l0.5-0.7c0.2-0.2,0.4-0.4,0.6-0.7l0.5-0.6l1-1.1c0.3-0.3,0.6-0.6,1-0.9c0.6-0.6,1.3-1.2,2-1.7
	c0.7-0.5,1.4-1.1,2.2-1.6s1.5-1,2.3-1.6l1.1-0.7c0.3-0.2,0.7-0.4,1-0.6s0.7-0.4,1-0.6c0.6-0.3,1.3-0.6,2-0.9
	c0.3-0.1,0.5-0.2,0.8-0.2c0.4-0.1,0.7-0.1,1.1-0.2c0.9,0,1.8,0.1,2.7,0.3c0.3,0.1,0.5,0.2,0.8,0.3s0.5,0.2,0.8,0.4
	c0.2,0.1,0.3,0,0.4-0.2c0,0,0,0,0,0c0.1-0.2,0-0.3-0.2-0.4c-0.3-0.2-0.6-0.3-0.9-0.4c-0.3-0.1-0.7-0.3-1.1-0.4
	c-0.3-0.1-0.6-0.2-1-0.2c-0.3-0.1-0.6-0.1-0.9-0.2l0,0C44,100,43.5,100,43,100.1L43,100.1z M155.9,116.6L155.9,116.6L155.9,116.6z
	 M147,127.6L147,127.6L147,127.6z M146.9,134.4L146.9,134.4L146.9,134.4z M71.8,161.2L71.8,161.2L71.8,161.2z"/>
<path class="st0" d="M16,82.1c-0.1,0-0.2,0-0.3,0c-0.1,0-0.2,0-0.3,0.1c-0.2,0.1-0.4,0.3-0.5,0.5c0,0.1-0.1,0.2-0.1,0.3
	c0,0.2,0,0.3,0.1,0.4c0,0.1,0.1,0.2,0.1,0.3c0.1,0.3,0.3,0.5,0.4,0.8c0.1,0.2,0.2,0.3,0.3,0.5c0.3,0.6,0.6,1.1,0.8,1.7
	c0.1,0.3,0.2,0.6,0.4,0.8s0.2,0.6,0.3,1s0.2,0.6,0.3,1s0.2,0.7,0.4,1c0.3,0.6,0.6,1.2,0.9,1.8s0.7,1.3,1.1,1.9
	c0.2,0.3,0.4,0.6,0.6,0.9s0.4,0.5,0.6,0.7c0.5,0.6,1,1.1,1.6,1.6l0.8,0.6c0.3,0.2,0.6,0.4,1,0.6c0.5,0.3,0.9,0.5,1.5,0.8
	c0.3,0.1,0.6,0.2,0.9,0.3c0.3,0.1,0.5,0.1,0.8,0.1c0,0.1,0.1,0.3,0.1,0.4c0,0.1,0.1,0.2,0.1,0.3c0.1,0.1,0.1,0.2,0.2,0.3
	c0.1,0.2,0.2,0.3,0.4,0.4c0.2,0.3,0.5,0.5,0.8,0.8c0.1,0.1,0.2,0.1,0.3,0.1c0.1,0,0.2-0.1,0.3-0.2c0.1-0.1,0.1-0.2,0.1-0.3
	c0-0.1-0.1-0.2-0.2-0.3c-0.1-0.1-0.2-0.2-0.3-0.3c-0.3-0.3-0.6-0.6-0.8-0.9c-0.1-0.1-0.1-0.3-0.2-0.4c0-0.2-0.1-0.4-0.1-0.5
	c0,0,0-0.1,0-0.1c0-0.1,0-0.2,0-0.3c0-0.6,0.1-1.1,0.1-1.7c0-0.3,0.1-0.6,0.1-0.9c0-0.4,0-0.7,0-1.1c0-0.7-0.1-1.3-0.1-1.9
	c0-0.3-0.1-0.7-0.1-1c-0.1-0.4-0.2-0.8-0.4-1.2c-0.3-0.6-0.7-1.3-1.1-1.9c-0.4-0.6-0.8-1.1-1.4-1.6c-0.5-0.4-1-0.8-1.6-1.2l-0.8-0.6
	c-0.3-0.2-0.6-0.4-1-0.6c-0.6-0.3-1.2-0.6-1.8-0.9s-1.2-0.6-1.8-0.9c-0.3-0.1-0.6-0.3-0.9-0.4s-0.6-0.3-0.9-0.5l-0.1-0.1
	c-0.3-0.1-0.7-0.2-1-0.3L16,82.1z M16.1,83L16.1,83z M19.8,90.8c-0.3-0.6-0.6-1.2-0.8-1.9c-0.2-0.6-0.4-1.2-0.7-1.9
	c-0.2-0.6-0.5-1.1-0.8-1.7c-0.2-0.4-0.4-0.8-0.6-1.2l-0.4-0.6c0.4,0.2,0.7,0.4,1.1,0.6s1,0.5,1.5,0.8s1,0.5,1.5,0.8s0.9,0.5,1.4,0.7
	s1.1,0.8,1.6,1.2s1.1,0.9,1.6,1.3c0.3,0.3,0.5,0.7,0.8,1c0.2,0.3,0.4,0.7,0.6,1c0.2,0.4,0.5,0.9,0.6,1.3c0.1,0.6,0.2,1.1,0.2,1.7
	c0.1,0.6,0.1,1.2,0.1,1.8c0,0.2,0,0.3,0,0.5l-0.1,0.6c0,0.4-0.1,0.8-0.1,1.3v0.2c-0.4-0.1-0.8-0.3-1.1-0.4c-0.5-0.2-0.9-0.4-1.3-0.7
	l0.2,0.1c-0.2-0.2-0.5-0.3-0.7-0.5s-0.5-0.4-0.7-0.6c-0.4-0.4-0.8-0.8-1.2-1.2c-0.4-0.4-0.7-0.7-1-1.2c-0.3-0.5-0.6-0.9-0.9-1.4
	S20,91.4,19.8,90.8L19.8,90.8z M15.9,83.4L15.9,83.4z M27.1,92.2L27.1,92.2C27.1,92.2,27.1,92.2,27.1,92.2L27.1,92.2L27.1,92.2z
	 M27.1,92.3L27.1,92.3L27.1,92.3L27.1,92.3L27.1,92.3z M27.1,92.4L27.1,92.4L27.1,92.4z"/>
<path class="st0" d="M21.1,89.1C21,89.2,21,89.3,21,89.4c0,0.1,0.1,0.2,0.1,0.2l0.6,0.5l0.4,0.4l0,0c0.2,0.3,0.5,0.6,0.7,0.8
	s0.5,0.6,0.7,0.9s0.2,0.3,0.3,0.4l0.4,0.6c0.2,0.3,0.4,0.6,0.5,0.9c0.6,1.1,1.1,2.2,1.7,3.3c0,0.1,0.1,0.2,0.2,0.2
	c0.1,0,0.2,0,0.3,0c0.2-0.1,0.3-0.3,0.2-0.5c0,0,0,0,0,0c-0.2-0.5-0.5-0.9-0.7-1.4s-0.3-0.7-0.5-1s-0.2-0.4-0.3-0.7
	s-0.2-0.3-0.2-0.5s-0.3-0.5-0.4-0.7l-0.3-0.4c-0.1-0.1-0.2-0.3-0.3-0.4s-0.2-0.3-0.4-0.5s-0.2-0.3-0.3-0.4l-0.4-0.4
	c-0.3-0.3-0.5-0.6-0.8-0.9l-0.4-0.4l-0.6-0.5L21.6,89C21.4,88.9,21.2,89,21.1,89.1L21.1,89.1z"/>
<path class="st0" d="M19.6,92.9c-0.2,0-0.5-0.1-0.7-0.1c-0.4,0-0.9,0-1.3,0c-0.6,0-1.3,0.1-1.9,0.3c-0.6,0.2-1.3,0.3-1.9,0.6
	c-0.6,0.2-1.1,0.4-1.7,0.7s-1.1,0.5-1.7,0.8S9.2,95.7,8.6,96l-0.8,0.5c-0.2,0.2-0.5,0.3-0.7,0.5c-0.3,0.2-0.5,0.5-0.7,0.7
	C6.2,97.9,6.1,98,6,98.1c-0.1,0.2-0.2,0.3-0.2,0.5c-0.1,0.3,0,0.5,0.2,0.8c0.3,0.3,0.6,0.5,1,0.6c0.3,0.1,0.6,0.1,0.9,0.2
	c0.4,0,0.7,0,1.1,0c0.7,0,1.4,0,2.1,0s1.2,0,1.7,0s1.2,0.1,1.8,0.2c1.2,0.2,2.4,0.4,3.6,0.7l1.8,0.4c0.6,0.1,1.2,0.3,1.8,0.4
	l0.9,0.1c0.2,0,0.3,0,0.5,0h0.2c0.2,0,0.4-0.1,0.5-0.2c0.1,0,0.1-0.1,0.2-0.2c0.1-0.1,0.1-0.1,0.1-0.2c0.1-0.1,0.1-0.2,0.1-0.4l0,0
	c0.4,0.6,0.8,1.1,1.1,1.7c0.1,0.2,0.4,0.3,0.7,0.2c0.2-0.1,0.3-0.4,0.2-0.7c0,0,0-0.1-0.1-0.1c-0.2-0.3-0.5-0.7-0.7-1
	s-0.4-0.6-0.6-1c-0.3-0.5-0.5-1-0.7-1.5c-0.1-0.3-0.2-0.6-0.3-0.8l-0.4-0.8c-0.3-0.6-0.6-1.2-1-1.7c-0.1-0.2-0.2-0.3-0.4-0.5
	c-0.2-0.3-0.5-0.5-0.7-0.7l-0.4-0.3c-0.2-0.1-0.4-0.2-0.6-0.3c-0.1-0.1-0.2-0.1-0.3-0.1C20.1,93,19.8,93,19.6,92.9L19.6,92.9z
	 M20.2,94.6c0.4,0.2,0.8,0.5,1.1,0.9c0.4,0.5,0.8,1,1.1,1.5c0.2,0.4,0.5,0.9,0.7,1.4c0.1,0.2,0.2,0.5,0.3,0.7l0.4,0.7l0.1,0.2
	c-0.2-0.2-0.4-0.4-0.6-0.5c-0.6-0.4-1.2-0.8-1.8-1.1l-0.8-0.4c-0.3-0.1-0.6-0.2-0.9-0.3c-0.6-0.2-1.3-0.4-2-0.6
	c-0.3-0.1-0.6-0.1-1-0.1c-0.3,0-0.6,0-1,0L14.7,97c-0.6,0-1.2,0.1-1.8,0.2c-0.3,0-0.6,0.3-0.5,0.7c0,0,0,0,0,0
	c0,0.3,0.3,0.6,0.7,0.5c0.6,0,1.2-0.1,1.8-0.1s1,0,1.6,0h0.5c0.2,0,0.4,0.1,0.5,0.1l0.4,0.1c0.7,0.2,1.3,0.4,2,0.7
	c0.3,0.1,0.6,0.2,0.9,0.4c0.3,0.2,0.7,0.3,1,0.5s0.4,0.3,0.7,0.4c0.1,0.1,0.3,0.2,0.4,0.3c-0.5,0-1-0.1-1.5-0.2l-0.9-0.2l-0.9-0.2
	c-0.6-0.1-1.2-0.2-1.8-0.4l-1.8-0.4c-0.5-0.1-1.1-0.2-1.6-0.3S13.2,99,12.6,99s-1.2,0-1.8,0H9.2c-0.2,0-0.5,0-0.7,0H7.9
	c-0.2,0-0.5-0.1-0.7-0.1l-0.2-0.1c0.1-0.1,0.3-0.3,0.4-0.4c0.3-0.3,0.6-0.5,1-0.7c0.4-0.2,0.7-0.5,1.1-0.7s0.9-0.5,1.4-0.7
	s1-0.5,1.5-0.7c1-0.4,2-0.8,3.1-1.1c0.4-0.1,0.7-0.2,1-0.2s0.9-0.1,1.3-0.1c0.2,0,0.5,0,0.7,0c0.3,0,0.7,0.1,1,0.2
	C19.8,94.4,20,94.5,20.2,94.6L20.2,94.6z M16.4,98.2L16.4,98.2z M9.6,96.9L9.6,96.9L9.6,96.9z"/>
<path class="st0" d="M37,76.7c-0.3,0.2-0.5,0.4-0.8,0.7L35.6,78c-0.2,0.2-0.5,0.4-0.7,0.7c-0.4,0.5-0.8,1-1.2,1.6
	c-0.4,0.7-0.8,1.5-1.1,2.3l-0.2,0.5c-0.1,0.2-0.1,0.3-0.2,0.5c0,0.1-0.1,0.3-0.1,0.4s-0.1,0.3-0.1,0.5c-0.1,0.3-0.1,0.7-0.2,1
	s-0.1,0.6-0.1,0.8c-0.1,0.5-0.1,1-0.2,1.5c0,0.6,0,1.2,0.1,1.8c0,0.2,0.1,0.3,0.2,0.4c-0.2,0.2-0.3,0.6-0.3,0.9
	c0,0.3,0.2,0.5,0.5,0.6c0.3,0.1,0.6-0.1,0.7-0.4c0.2-0.2,0.4-0.5,0.6-0.7c0.4-0.4,0.9-0.8,1.4-1.1l1.6-1.1c0.5-0.3,1-0.7,1.5-1.1
	s1.1-0.8,1.6-1.2s1-0.8,1.5-1.2s1-0.9,1.5-1.4c0.2-0.2,0.4-0.4,0.6-0.7l0.6-0.7c0.4-0.5,0.8-0.9,1.2-1.4l0.6-0.7
	c0.2-0.2,0.4-0.5,0.5-0.7c0.1-0.2,0.2-0.3,0.3-0.5c0.1-0.1,0.1-0.3,0.2-0.4c0.1-0.2,0.1-0.4,0.2-0.6c0-0.2,0-0.4-0.1-0.7
	c-0.1-0.2-0.2-0.4-0.4-0.5c-0.2-0.2-0.5-0.4-0.8-0.5c-0.3-0.1-0.7-0.2-1-0.3c-0.6-0.2-1.2-0.3-1.8-0.3c-0.6-0.1-1.2-0.1-1.9-0.1
	c-0.6,0.1-1.3,0.2-1.8,0.5c-0.5,0.2-1,0.4-1.4,0.7L37,76.7L37,76.7z M38.3,77.1c0.5-0.2,1.1-0.4,1.7-0.6c0.4-0.1,0.8-0.1,1.2-0.1
	c0.5,0,1,0.1,1.4,0.1c0.5,0.1,0.9,0.1,1.3,0.3c0.3,0.1,0.7,0.3,1,0.4c0.1,0.1,0.2,0.2,0.3,0.2l0,0v0.1c0,0.1,0,0.1,0,0.2
	c-0.1,0.2-0.2,0.5-0.3,0.7c-0.3,0.4-0.6,0.8-1,1.2c-0.4,0.4-0.7,0.8-1.1,1.2L41.7,82c-0.2,0.2-0.4,0.4-0.5,0.6s-0.4,0.4-0.6,0.6
	c-0.9,0.8-1.8,1.6-2.8,2.3l-1.5,1.1c-0.5,0.4-1,0.7-1.5,1c-0.3,0.2-0.6,0.3-0.8,0.5s-0.6,0.4-0.9,0.6s-0.3,0.3-0.5,0.4
	c0-0.2,0-0.5,0-0.7s0-0.5,0-0.7c0.1-0.6,0.2-1.3,0.2-1.9c0-0.3,0.1-0.6,0.2-0.9s0.2-0.6,0.2-0.9l0.2-0.6c0.1-0.2,0.2-0.5,0.3-0.7
	s0.2-0.4,0.3-0.6c0.2-0.3,0.3-0.7,0.5-1c0.4-0.6,0.8-1.2,1.3-1.7c0.2-0.2,0.5-0.5,0.7-0.7l0.6-0.6C37.4,77.7,37.8,77.4,38.3,77.1
	L38.3,77.1z M41.1,76.4L41.1,76.4z M43.9,76.8L43.9,76.8z M45.3,77.5C45.3,77.5,45.3,77.5,45.3,77.5L45.3,77.5z"/>
<path class="st0" d="M40.3,80.1c-0.3,0.3-0.5,0.6-0.8,0.8l-0.8,0.7l-0.8,0.7l-1.8,1.4c-0.2,0.1-0.3,0.2-0.5,0.4l-0.3,0.3l-0.5,0.5
	c-0.2,0.2-0.3,0.3-0.5,0.5s-0.2,0.3-0.4,0.4l-0.3,0.4c-0.2,0.3-0.5,0.6-0.7,0.9s-0.2,0.3-0.3,0.5c-0.1,0.2-0.2,0.4-0.3,0.6
	c-0.1,0.2-0.2,0.4-0.2,0.6c-0.2,0.5-0.3,1-0.4,1.5c0,0.2,0.1,0.3,0.3,0.4c0.2,0,0.3-0.1,0.4-0.3c0.1-0.2,0.1-0.5,0.2-0.7
	s0-0.2,0.1-0.3s0-0.2,0.1-0.3c0.1-0.4,0.3-0.8,0.5-1.1c0.2-0.3,0.3-0.5,0.5-0.8s0.3-0.4,0.5-0.6l0.6-0.6c0.2-0.2,0.3-0.3,0.5-0.5
	s0.5-0.4,0.7-0.7s0.6-0.5,1-0.8c0.6-0.4,1.1-0.9,1.7-1.3l0.5-0.5c0.2-0.2,0.3-0.3,0.5-0.5l0.5-0.5l0.6-0.7c0.1-0.1,0.1-0.4,0-0.5
	c-0.1-0.1-0.2-0.1-0.2-0.1c-0.1,0-0.1,0-0.2,0.1L40.3,80.1L40.3,80.1z"/>
<path class="st0" d="M39.2,87.4c-0.5,0.5-1,1-1.6,1.5s-0.9,0.9-1.4,1.4s-1,1-1.4,1.5c-0.6,0.6-1,1.4-1.3,2.2
	c-0.1,0.2-0.1,0.5-0.2,0.7c-0.1,0.5,0,0.9,0.1,1.3c0.2,0.5,0.6,0.9,1.1,1c0.3,0.1,0.6,0.1,0.9,0l1.9-0.3l1.9-0.3
	c0.7-0.1,1.5-0.2,2.2-0.4c0.7-0.1,1.4-0.3,2.1-0.5c0.3-0.1,0.6-0.2,0.9-0.3c0.3-0.1,0.6-0.2,0.9-0.4c0.7-0.3,1.4-0.7,2-1.1
	c0.6-0.3,1.1-0.7,1.6-1.2c0.3-0.3,0.6-0.5,0.9-0.8s0.5-0.5,0.7-0.8s0.2-0.3,0.4-0.4l0.3-0.4c0.4-0.6,0.8-1.1,1.2-1.7
	c0.4-0.6,0.7-1.2,1-1.8c0.1-0.3,0.3-0.6,0.4-0.9c0.1-0.3,0.2-0.7,0.3-1c0-0.1,0-0.3,0-0.4c0-0.1,0-0.2-0.1-0.3
	c-0.1-0.1-0.2-0.2-0.3-0.2c-0.2-0.1-0.4-0.1-0.6,0H53c-0.1-0.1-0.2-0.1-0.3-0.2c-0.7-0.1-1.4-0.2-2.1-0.3s-1.4-0.1-2.1-0.1h-0.5
	c-0.4,0-0.7,0.1-1.1,0.2l-1,0.2c-0.3,0.1-0.7,0.2-1,0.3c-0.1,0-0.3,0.1-0.4,0.2L44,84.3c-0.3,0.1-0.6,0.3-0.9,0.4l-1.2,0.6
	c-0.4,0.2-0.7,0.4-1.1,0.7C40.3,86.5,39.8,86.9,39.2,87.4L39.2,87.4z M41.7,86.9c0.6-0.4,1.2-0.8,1.8-1.1l0.7-0.4l0.4-0.2
	c0.1-0.1,0.2-0.1,0.3-0.2c0.3-0.1,0.5-0.2,0.8-0.3c0.1-0.1,0.3-0.1,0.4-0.1l0.4-0.1c0.2,0,0.5-0.1,0.7-0.1c0.4-0.1,0.8-0.1,1.2-0.1
	c0.4,0,0.8,0,1.3,0h-0.1c0.5,0,0.9,0,1.4,0.1l0.7,0.1c-0.6,0.3-1.2,0.6-1.8,0.9l-1.7,0.8l-0.8,0.3l-0.7,0.3L43.2,88
	c-0.3,0.1-0.4,0.4-0.3,0.7s0.4,0.4,0.7,0.3l3.9-1.4l1.1-0.4l0.9-0.4l2-0.9l0.9-0.4l0.2-0.1c-0.1,0.2-0.2,0.5-0.3,0.7
	c-0.3,0.6-0.6,1.1-0.9,1.7s-0.8,1.2-1.2,1.8c-0.2,0.3-0.5,0.6-0.8,0.9s-0.4,0.5-0.7,0.7l-0.5,0.4c-0.4,0.4-0.8,0.7-1.3,1
	c-0.4,0.2-0.8,0.5-1.2,0.7l-0.9,0.4c-0.3,0.1-0.6,0.2-0.9,0.4s-0.6,0.2-0.9,0.3s-0.7,0.2-1,0.2c-1.2,0.2-2.4,0.4-3.6,0.6
	c-0.6,0.1-1.1,0.2-1.7,0.3l-0.9,0.2c-0.3,0.1-0.6,0.1-0.9,0.1h-0.1l0,0c0-0.1-0.1-0.1-0.1-0.2c0-0.1,0-0.2,0-0.3
	c0-0.2,0.1-0.5,0.1-0.7c0.1-0.4,0.3-0.8,0.5-1.2c0.4-0.5,0.8-1.1,1.3-1.5c0.4-0.4,0.8-0.8,1.2-1.3c0.8-0.8,1.6-1.7,2.4-2.5
	c0.5-0.4,0.9-0.8,1.4-1.1L41.7,86.9z M43.5,85.9L43.5,85.9L43.5,85.9z M34.8,95.6L34.8,95.6C34.9,95.6,34.9,95.6,34.8,95.6z
	 M35,95.7L35,95.7L35,95.7z"/>
<path class="st0" d="M172.3,84.3c-0.5,0-1.1,0.2-1.5,0.4c-0.2,0.1-0.4,0.2-0.5,0.3c-0.4,0.2-0.8,0.5-1.2,0.8c-0.1,0-0.1,0.1-0.2,0.1
	l-0.6,0.1l-1.3,0.3c-0.8,0.1-1.5,0.3-2.3,0.6l-1.2,0.5c-0.4,0.2-0.8,0.4-1.2,0.6c-0.7,0.4-1.4,0.8-2.1,1.3c-0.4,0.3-0.7,0.6-1.1,0.9
	s-0.6,0.5-0.9,0.8s-0.6,0.5-0.9,0.8s-0.3,0.3-0.4,0.5c-0.2,0.2-0.3,0.4-0.5,0.6c-0.2,0.3-0.3,0.6-0.4,0.9c-0.2,0.5-0.3,1-0.4,1.6
	c-0.1,0.3-0.1,0.7-0.1,1c0,0.4,0,0.8,0,1.2c0,0.8,0.1,1.6,0.2,2.4c0.1,0.9,0.2,1.8,0.5,2.6c0,0.2,0.1,0.3,0.2,0.5
	c0.1,0.2,0.2,0.4,0.3,0.6c0.1,0.1,0.2,0.3,0.3,0.4c0.4,0.5,1.1,0.6,1.6,0.3c0.2-0.2,0.5-0.3,0.6-0.6c0.5-0.6,1-1.2,1.6-1.8
	c0.2-0.2,0.4-0.4,0.6-0.6l0.5-0.4c0.6-0.4,1.3-0.8,1.9-1.2c0.8-0.4,1.6-0.8,2.3-1.2s1.4-0.9,2.1-1.3c0.8-0.5,1.5-1,2.1-1.6
	c0.5-0.4,0.9-0.8,1.3-1.3c0.4-0.4,0.7-0.9,1-1.4c0.2-0.3,0.4-0.7,0.6-1c0.2-0.4,0.4-0.9,0.6-1.3s0.3-0.8,0.5-1.2
	c0.1-0.4,0.2-0.7,0.3-1.1c0-0.3,0.1-0.6,0.1-0.8c0-0.4,0-0.9-0.1-1.3c-0.1-0.2-0.2-0.5-0.3-0.7c-0.1-0.2-0.3-0.4-0.4-0.6
	c-0.1-0.1-0.2-0.2-0.4-0.3c-0.1-0.1-0.3-0.1-0.4-0.2c-0.1,0-0.2,0-0.3-0.1c-0.2,0-0.4,0-0.6,0L172.3,84.3z M172.4,86.6
	c0,0.1,0.1,0.2,0.1,0.3c0,0.2,0,0.5,0,0.7c-0.2,0.8-0.4,1.6-0.7,2.3c-0.2,0.5-0.4,1-0.7,1.4c-0.1,0.3-0.3,0.5-0.5,0.8
	c-0.1,0.2-0.3,0.4-0.5,0.7c-0.6,0.7-1.2,1.3-1.9,1.8c-0.6,0.5-1.3,0.9-1.9,1.3s-1.4,0.9-2.2,1.3s-1.5,0.8-2.2,1.2
	c-0.8,0.5-1.5,1-2.1,1.6c-0.2,0.2-0.5,0.4-0.7,0.7s-0.4,0.4-0.6,0.6l-0.4,0.5c-0.2-0.8-0.4-1.6-0.5-2.4c-0.1-0.5-0.1-1.1-0.2-1.6
	c0-0.2,0-0.5,0-0.7c-0.1-1.1,0.1-2.2,0.5-3.3c0.2-0.4,0.4-0.7,0.6-1c0.9-1,1.9-1.9,2.9-2.8c0.6-0.4,1.2-0.9,1.9-1.3
	c0.6-0.4,1.3-0.7,2-0.9c0.4-0.2,0.9-0.3,1.4-0.4l0.9-0.2l-0.3,0.3c-0.6,0.5-1.3,1.1-1.8,1.7c-0.3,0.3-0.6,0.6-0.9,0.9
	s-0.6,0.6-0.8,0.9c-0.6,0.8-1.2,1.5-1.8,2.3l0.2-0.2c-0.3,0.4-0.6,0.8-0.8,1.2c-0.2,0.4-0.4,0.9-0.5,1.4c-0.2,0.6,0.2,1.1,0.7,1.3
	c0.3,0.1,0.6,0,0.8-0.1l0.2-0.2c0.1-0.1,0.2-0.3,0.3-0.5c0.1-0.2,0.1-0.3,0.2-0.5c0.1-0.4,0.3-0.7,0.6-1l1.6-1.9l0.6-0.7
	c0.3-0.3,0.5-0.6,0.8-0.9s0.5-0.6,0.8-0.8l0.9-0.8c0.5-0.5,1-0.9,1.6-1.3c0.7-0.6,1.5-1.1,2.4-1.6l0.2-0.1H172.4z M157.5,99.2
	L157.5,99.2z"/>
<path class="st0" d="M171.7,100.7c-0.9,0.1-1.8,0.3-2.7,0.5c-0.6,0.2-1.2,0.4-1.7,0.6s-1.2,0.4-1.8,0.6c-0.5,0.2-0.9,0.5-1.4,0.8
	l-0.8,0.6c-0.3,0.2-0.5,0.5-0.6,0.9c-0.1,0.2-0.1,0.4-0.1,0.6c0,0.3,0.1,0.6,0.2,0.9c0.2,0.4,0.5,0.8,0.9,1.1
	c0.4,0.4,0.8,0.7,1.2,0.9c1.1,0.7,2.2,1.2,3.4,1.5c0.6,0.2,1.2,0.3,1.7,0.4s1.2,0.3,1.8,0.4c0.8,0.2,1.7,0.3,2.6,0.4
	c0.4,0.1,0.8,0.1,1.2,0.1c0.4,0,0.8,0,1.2,0c0.6-0.1,1.2-0.2,1.8-0.4c0.6-0.2,1.3-0.5,1.9-0.8c0.4-0.2,0.6-0.7,0.5-1.1
	c-0.2-0.5-0.7-0.8-1.2-0.7c-0.8,0.3-1.6,0.5-2.5,0.6c-0.3,0-0.6,0.1-0.9,0.1c-0.3,0-0.6,0-0.9-0.1c-1.4-0.2-2.8-0.5-4.1-0.8
	c-0.7-0.2-1.4-0.3-2.2-0.5c-0.6-0.2-1.2-0.4-1.8-0.6c-0.7-0.3-1.3-0.7-1.9-1.1c-0.1-0.1-0.3-0.2-0.4-0.4l0.1-0.1
	c0.4-0.3,0.9-0.6,1.3-0.8c0.7-0.3,1.4-0.5,2.1-0.7c0.9-0.4,1.9-0.6,2.9-0.8c0.8-0.1,1.7-0.1,2.5,0c0.7,0.1,1.3,0.2,2,0.4
	c0.4,0.1,0.7,0.2,1.1,0.3c0.3,0.1,0.6,0.2,0.9,0.3c0.3,0.1,0.6,0.3,0.9,0.5c0.6,0.5,1.1,1.1,1.6,1.7l0.4,0.5
	c0.1,0.2,0.4,0.4,0.6,0.5c0.3,0.1,0.6,0,0.8-0.1c0.2-0.1,0.4-0.4,0.5-0.6c0.1-0.3,0-0.6-0.1-0.8c-0.9-1.4-2.1-2.5-3.4-3.4
	c-1.2-0.5-2.4-0.9-3.7-1.2c-0.6-0.1-1.3-0.2-1.9-0.3h-0.8L171.7,100.7L171.7,100.7z M164.8,105.4l-0.1,0.1
	C164.7,105.5,164.7,105.5,164.8,105.4L164.8,105.4z M176.9,111h-0.2h0.3H176.9z"/>
<path class="st0" d="M174.5,104.9c-0.1,0-0.1,0.1-0.1,0.2c0,0.1,0,0.2,0,0.3c0,0.1,0.1,0.1,0.2,0.2l1.5,0.2l0.6,0.1
	c0.2,0,0.4,0,0.6,0.1l1.1,0.1c0.4,0,0.8,0.1,1.1,0.1h-0.1c0.4,0.1,0.9,0.2,1.3,0.3l0.7,0.2c0.3,0.1,0.7,0.2,1,0.3
	c0.2,0,0.3-0.1,0.4-0.2c0-0.2-0.1-0.3-0.2-0.4c-0.5-0.2-1-0.3-1.6-0.4s-0.9-0.2-1.4-0.3c-0.2,0-0.5-0.1-0.7-0.1l-0.7-0.1l-1.3-0.2
	c-0.7-0.1-1.4-0.2-2.1-0.3h-0.1C174.6,104.9,174.5,104.9,174.5,104.9L174.5,104.9z"/>
<path class="st0" d="M67.8,106.4c0.5,1.1,0.4,2.4-0.2,3.5c-0.1,0.2,0,0.5,0.2,0.6c0.2,0.1,0.5,0,0.6-0.2c0.7-1.3,0.9-2.9,0.3-4.2
	c-0.1-0.2-0.3-0.4-0.6-0.3C67.9,105.9,67.8,106.1,67.8,106.4z"/>
</svg>
