<svg id="para_exportar" data-name="para exportar" xmlns="http://www.w3.org/2000/svg" viewBox="0 0 190 190"><defs><style>.cls-1{fill:#fff;}</style></defs><path class="cls-1" d="M188.63,95a96.75,96.75,0,0,1-6.93,35.91,94.38,94.38,0,0,1-20,30.76A92.2,92.2,0,0,1,95,189.54a93.72,93.72,0,0,1-52.23-16.37,95,95,0,0,1-14.19-11.75A95.43,95.43,0,0,1,.81,95,93.6,93.6,0,0,1,28.05,28.05,95.18,95.18,0,0,1,58.71,7.4a93.37,93.37,0,0,1,103,20.9A95.49,95.49,0,0,1,188.63,95Zm-.26,0a91.36,91.36,0,0,0-27.84-65.53,94.54,94.54,0,0,0-30.2-19.76A97.24,97.24,0,0,0,113,4.54,93,93,0,0,0,2.19,95a91.32,91.32,0,0,0,27,65.81A93.61,93.61,0,0,0,113,185.63a98.15,98.15,0,0,0,17.34-5.24,95.2,95.2,0,0,0,30.19-19.83,93.06,93.06,0,0,0,20.53-29.9A90.76,90.76,0,0,0,188.37,95Z"/><path class="cls-1" d="M119,35.05a27.25,27.25,0,0,0-4.52,2.18c-.73.44-1.44.92-2.13,1.43s-1.32,1-1.95,1.59A28.57,28.57,0,0,0,107,43.88,27.34,27.34,0,0,0,104.33,48a24.67,24.67,0,0,0-1.93,4.81c-.12.4-.23.81-.33,1.21s-.2.87-.28,1.31c-.16.82-.28,1.64-.36,2.47s-.11,1.58-.12,2.38c0,.4,0,.81,0,1.22s0,.86.07,1.29.08.79.13,1.18.12.8.19,1.19.14.76.22,1.14.17.74.27,1.11a28.28,28.28,0,0,0,1.85,5.1.12.12,0,0,0,.15.07.12.12,0,0,0,.07-.15,26.71,26.71,0,0,1-1.06-2.54,22.54,22.54,0,0,1-.79-2.66h0c0-.13-.05-.25-.08-.38v0c-.12-.58-.23-1.17-.32-1.75s-.16-1.2-.2-1.81a28.56,28.56,0,0,1,0-3.7h0A27,27,0,0,1,103,53a30.33,30.33,0,0,1,1.37-3.41,27,27,0,0,1,1.74-3.1,27.76,27.76,0,0,1,4.39-5.16,28.67,28.67,0,0,1,2.68-2.12,26.42,26.42,0,0,1,3-1.79l-.11,0A27.83,27.83,0,0,1,122.81,35a30.81,30.81,0,0,1,3.43-.5,27.88,27.88,0,0,1,3.54,0h0a27.39,27.39,0,0,1,6.94,1.32,26.22,26.22,0,0,1,11.17,7.31l0,0,0,0,.08.08-.06-.06a27.26,27.26,0,0,1,2.16,2.73,25.29,25.29,0,0,1,1.76,2.91,26.43,26.43,0,0,1,2.29,6.34,27,27,0,0,1,.57,7,27.9,27.9,0,0,1-1.31,7v0l0,.06,0,.07v0a27.16,27.16,0,0,1-2.88,6h0A27,27,0,0,1,146,80.42l.1-.08a26.51,26.51,0,0,1-12.23,6.29l.09,0a27.1,27.1,0,0,1-3.69.53,29.31,29.31,0,0,1-3.63,0h.11a27.07,27.07,0,0,1-4.57-.66.4.4,0,0,0-.16.79,26.39,26.39,0,0,0,5,.75,28,28,0,0,0,5.09-.2,26.67,26.67,0,0,0,5-1.15,27.43,27.43,0,0,0,4.67-2.07A26.74,26.74,0,0,0,146,81.76a27.67,27.67,0,0,0,3.65-3.69,27.52,27.52,0,0,0,4.91-9,26.88,26.88,0,0,0,1.23-10,27.88,27.88,0,0,0-2.48-9.79,28.32,28.32,0,0,0-2.52-4.37,27.53,27.53,0,0,0-7.36-7.07,28.33,28.33,0,0,0-4.52-2.4,27.5,27.5,0,0,0-4.95-1.52,28.52,28.52,0,0,0-5-.54c-.89,0-1.78,0-2.67.08A27.42,27.42,0,0,0,119,35.05Zm3.75,0h0Zm-12.16,6.2,0,0,0,0Zm32.24-2.49.07,0-.07,0ZM103,53v0Zm51.15,2.18,0,.1s0-.07,0-.1ZM101.79,59.5v0Zm52.94,2.72v0ZM133.87,86.63h0Zm19.52-17.41,0,0v0l0,.06ZM148,43.12l0,0h0l0,0Zm-18.13-8.65h0Z"/><path class="cls-1" d="M44.24,115.58a.4.4,0,0,0,0,.56,5.88,5.88,0,0,0,1.06.73,7.11,7.11,0,0,0,.75.33,6.26,6.26,0,0,0,1.43.37c.5.08,1,.12,1.51.15s1,.08,1.55.14l.65.11.85.13c.48.06,1,.1,1.44.15a13.08,13.08,0,0,1,1.36.27c.48.11,1,.21,1.44.34s.94.29,1.41.43.92.25,1.39.36l.71.17.73.2c.23.06.46.12.7.16s.6.09.9.13c1,.12,2,.11,3,.21l1.5.14,1.52.06c.5,0,1,0,1.51.08s1,.09,1.47.14l.24,0a6,6,0,0,1,1,.26c.33.15.63.34,1,.49a6.68,6.68,0,0,1,1,.51l.24.21c.16.14.33.26.5.39s.44.31.66.47a3.78,3.78,0,0,1,.48.5c.23.31.44.63.67.93l.36.52a4,4,0,0,1,.23.46c.11.26.22.53.32.79s.26.64.35,1,.14.63.22.95c0,.14.08.27.11.41s.05.26.07.38a6.57,6.57,0,0,1,0,1.33,11.79,11.79,0,0,1-.56,1.9.25.25,0,0,0,.18.32.27.27,0,0,0,.33-.18c.16-.49.35-1,.49-1.48a8.57,8.57,0,0,0,.26-1.43,5.34,5.34,0,0,0,.05-.69c0-.21,0-.42,0-.64s0-.46,0-.69,0-.55-.08-.82a8.27,8.27,0,0,0-.37-1.38,5.2,5.2,0,0,0-.32-.77,4.12,4.12,0,0,0-.39-.63c-.31-.42-.6-.87-.93-1.27a3.31,3.31,0,0,0-.49-.5,8.12,8.12,0,0,0-.67-.48l-.24-.18c-.19-.15-.38-.32-.58-.47a2.83,2.83,0,0,0-.28-.2,2.49,2.49,0,0,0-.33-.16l-.63-.29-.59-.29a3.3,3.3,0,0,0-.72-.32q-.37-.11-.75-.18c-.54-.09-1.09-.12-1.64-.17-1-.1-2-.12-3-.13s-2-.15-3-.19l-1.22,0c-.42,0-.83-.05-1.25-.1a12.65,12.65,0,0,1-1.36-.29c-.47-.12-.95-.21-1.42-.31s-.92-.22-1.38-.35-.94-.26-1.42-.36c-.75-.15-1.49-.33-2.25-.44-.4-.07-.81-.09-1.22-.12s-.68-.06-1-.11a19.93,19.93,0,0,0-2-.25l-1,0c-.31,0-.62-.06-.92-.09a9.37,9.37,0,0,1-.92-.19c-.32-.09-.64-.21-1-.33a5.51,5.51,0,0,1-.88-.5l-.14-.11a.4.4,0,0,0-.28-.12.39.39,0,0,0-.28.12Zm31.44,6,0,0,0,0Zm.09.06,0,0,0,0Z"/><path class="cls-1" d="M53.29,106.37a.39.39,0,0,0-.12.31c0,.49.1,1,.17,1.46a3.14,3.14,0,0,0,.55,1.44,6.57,6.57,0,0,0,.48.57,7,7,0,0,0,.77.66c.31.24.61.49.94.71s.61.38.93.55.63.32,1,.47l.55.23.51.2a8.17,8.17,0,0,0,1,.32l1,.29c.34.1.68.17,1,.24a12.89,12.89,0,0,1,2.1.52l.23.09a10.12,10.12,0,0,1,.93.47l.89.53.43.24.49.27c.3.16.6.34.89.51l1,.58a9.1,9.1,0,0,1,.93.59,1.39,1.39,0,0,1,.21.21,1.74,1.74,0,0,1,.11.18.61.61,0,0,1,0,.13.24.24,0,0,1,0,.12.44.44,0,0,1,0,.1l0,.08,0,0-.13.08a2,2,0,0,1-.33.08l-.22,0-.29,0-.47-.09-.53-.09c-.34,0-.68-.11-1-.14a13.79,13.79,0,0,0-2.13.07c-.27,0-.55,0-.82,0s-.53,0-.79-.06l-1.06-.14c-.35,0-.71,0-1.07,0H60.27c-.34,0-.68,0-1,.07s-.65.09-1,.15a.17.17,0,0,0-.12.22.17.17,0,0,0,.21.12l.7-.12a16.26,16.26,0,0,1,1.85-.08c.32,0,.65,0,1,0l.92.08c.34,0,.69.11,1,.14a8.47,8.47,0,0,0,1,0c.36,0,.71,0,1.07-.06a7,7,0,0,1,1,0l.29,0h0l.43.07.54.1.48.1a5.72,5.72,0,0,0,.57.11,2.06,2.06,0,0,0,1.2-.18.94.94,0,0,0,.37-.44,1,1,0,0,0,0-.73,1.68,1.68,0,0,0-.63-.74c-.58-.41-1.22-.74-1.83-1.11s-1.21-.71-1.81-1.07l-.87-.55c-.31-.19-.63-.36-1-.52l-.22-.09-.31-.13c-.17-.06-.33-.12-.51-.17-.34-.1-.69-.18-1-.26l-.88-.22a8.89,8.89,0,0,1-.88-.26L60,112.4c-.28-.09-.55-.19-.83-.3l-.69-.31c-.27-.12-.53-.26-.79-.39s-.52-.28-.76-.44-.46-.31-.69-.48A10.06,10.06,0,0,1,54.7,109a2.64,2.64,0,0,1-.27-.46,6,6,0,0,1-.27-1.2c0-.27-.09-.54-.13-.82a.45.45,0,0,0-.11-.19.42.42,0,0,0-.31-.13.44.44,0,0,0-.32.13Z"/><path class="cls-1" d="M119.59,113.78l-.81.15c-.21,0-.43.08-.64.12l-1,.09-1.09.11c-.37,0-.74.1-1.11.17l-1,.21c-.67.13-1.36.22-2,.32-.36,0-.71.1-1.05.17l-1.06.25a8.46,8.46,0,0,0-1,.29c-.17.07-.35.14-.52.23l-.45.23-.46.28-.4.24-.85.61-.72.51-.71.5-.76.49a6.1,6.1,0,0,1-.72.37l-.28.11-.38.1c-.2,0-.4.08-.59.11a4.21,4.21,0,0,1-.5,0l-.51,0c-.35,0-.69-.06-1-.07-.7,0-1.4,0-2.09-.06l-.91,0-.92,0a17.73,17.73,0,0,1-1.78-.12h.08a16.58,16.58,0,0,0-2.11-.22H91.17a8.41,8.41,0,0,0-1.12.17,4.79,4.79,0,0,0-1.93.92,4.43,4.43,0,0,0-.78.78,4.36,4.36,0,0,0-.58,1.11c-.07.15-.13.31-.19.46a.23.23,0,0,0,.16.28.22.22,0,0,0,.28-.16l.21-.51a4.75,4.75,0,0,1,.47-.89,4.5,4.5,0,0,1,.65-.66,5.18,5.18,0,0,1,1-.59,3.58,3.58,0,0,1,.55-.19c.23-.06.46-.1.69-.14l.62,0a4.28,4.28,0,0,1,.62,0,11.2,11.2,0,0,1,1.3.09l1,.16c.36.07.73.1,1.09.14.7.07,1.4.07,2.09.13s1.4.1,2.1.13c.34,0,.68,0,1,.05s.69.07,1,.08a6,6,0,0,0,1.12-.12,4.15,4.15,0,0,0,.48-.11,4.79,4.79,0,0,0,.57-.21,5.91,5.91,0,0,0,.93-.5l.84-.56c.28-.21.57-.4.84-.61l.85-.63c.27-.2.55-.37.83-.54l.48-.27a4.37,4.37,0,0,1,.43-.22l.07,0,.44-.16.49-.14,1.06-.24c.34-.08.68-.13,1-.18l1.06-.15c.49-.07,1-.14,1.48-.24l.73-.15.68-.1c.3,0,.61-.06.92-.09l.91-.1a8.59,8.59,0,0,0,1-.14l1.09-.27A.36.36,0,0,0,120,114a.36.36,0,0,0-.17-.21.26.26,0,0,0-.17,0Z"/><path class="cls-1" d="M87.76,120.41a1.69,1.69,0,0,0-.36.3,5.54,5.54,0,0,0-.37.45,3.16,3.16,0,0,0-.26.52,4.6,4.6,0,0,0-.19.52,4.28,4.28,0,0,0-.12.54,10.56,10.56,0,0,0-.13,1.13c0,.76-.09,1.51-.12,2.27,0,.39,0,.77,0,1.16a6.58,6.58,0,0,0,.08,1.17c0,.19.07.37.11.55s.09.34.14.51c.1.36.21.71.31,1.06s.2.71.3,1.07a8.67,8.67,0,0,1,.22,1.13v0l.09.73h0c0,.25.07.49.12.73a.45.45,0,0,0,.57.32.47.47,0,0,0,.27-.21l.05-.11a.53.53,0,0,0,0-.25v0c0-.37,0-.75-.07-1.12a7.29,7.29,0,0,0-.2-1.24c-.09-.36-.21-.72-.32-1.07s-.21-.7-.32-1.05-.17-.53-.24-.8a7.13,7.13,0,0,1-.18-.8q0-.51-.06-1l0-1.14c0-.77,0-1.54,0-2.31,0-.3,0-.61,0-.91s.06-.32.1-.47a4.72,4.72,0,0,1,.16-.45,2,2,0,0,1,.13-.25c0-.07.09-.13.13-.19h0a2.69,2.69,0,0,1,.33-.35C88,120.74,87.89,120.33,87.76,120.41Zm-.45,1.14v0Zm.12,12v0Z"/><path class="cls-1" d="M81.56,65.43a1.06,1.06,0,0,0-.23,0,1.4,1.4,0,0,0-.34.13l-.23.11-.45.28a9.21,9.21,0,0,1-.93.51l-.22.1a4.62,4.62,0,0,1-.9.25,2.29,2.29,0,0,1-.37,0,3.64,3.64,0,0,1-.47-.14,2.69,2.69,0,0,1-.29-.16l-.4-.25a2.16,2.16,0,0,0-.71-.26,2.22,2.22,0,0,0-1.37.21,3.13,3.13,0,0,0-.45.22,8.12,8.12,0,0,0-.74.45l-.72.51q-.37.28-.75.6c-.45.38-.86.81-1.33,1.18-.18.13-.37.25-.57.38s-.23.17-.35.24l-.3.16c-.23.09-.47.16-.7.23l-.78.26a7.19,7.19,0,0,1-.79.24l-.79.14a9.44,9.44,0,0,1-1.84-.06,5.58,5.58,0,0,1-.69-.13c-.22-.05-.43-.13-.65-.19a3.65,3.65,0,0,0-1.35-.19,2.38,2.38,0,0,0-.7.16,7.35,7.35,0,0,0-.76.34c-.37.19-.74.4-1.13.57a5.52,5.52,0,0,1-1.25.34l-.33,0c-.14,0-.27,0-.41,0l-.82,0a7.68,7.68,0,0,0-.83,0,4,4,0,0,0-.84.14,12.43,12.43,0,0,0-1.44.53c-.5.2-1,.43-1.47.65l-.64.23c-.25.07-.5.12-.76.17s-.63.05-.95.06h-1a4.32,4.32,0,0,0-1.13.14,5.11,5.11,0,0,0-1.07.47,11.85,11.85,0,0,0-1.77,1.14c-.29.23-.58.45-.84.7a6.7,6.7,0,0,0-.77.83,3.61,3.61,0,0,0-.47.77,1.13,1.13,0,0,0,.19,1.37.73.73,0,0,0,.26.14,1.52,1.52,0,0,0,.47.06,1.61,1.61,0,0,0,.31,0,5,5,0,0,1,.67,0l.06,0h0l0,.05v0l0,0-.1.11-.19.1c-.19.07-.39.1-.59.16l-.37.14a.57.57,0,0,0-.37.47,1.17,1.17,0,0,0,.39.77c.17.18.35.35.51.53l.07.13v.09a.24.24,0,0,1,0,.08l-.09.15a.86.86,0,0,1-.14.13,2.12,2.12,0,0,1-.36.21,3.56,3.56,0,0,1-.39.13c-.16,0-.33.06-.5.11a1.85,1.85,0,0,0-.45.21,2.81,2.81,0,0,0-.44.33l-.38.27-.4.22a3.74,3.74,0,0,1-.48.12l-.33,0-.38,0-.4-.06-.22,0-.28,0a1,1,0,0,0-.24,0l-.06,0a.8.8,0,0,0-.16.08,1.07,1.07,0,0,0-.19.18c-.06.07-.12.16-.18.24s-.17.23-.25.34a11.88,11.88,0,0,1-2,2c-.38.29-.78.55-1.18.81s-.78.55-1.14.85a4,4,0,0,0-.55.54,2.33,2.33,0,0,0-.38.67,2.18,2.18,0,0,0-.1.52,2,2,0,0,0,.08.64,2.86,2.86,0,0,0,.2.48l.17.31.31.56a3.68,3.68,0,0,1,.16.54,2.44,2.44,0,0,1,0,.47c0,.2-.09.4-.14.6l-.09.34-.07.19v0l0,0,0,.1,0-.06-.15.36c0,.12-.09.25-.14.38s-.12.25-.17.38l.06-.14c-.1.23-.21.47-.3.71a2.82,2.82,0,0,0-.13.87,2.73,2.73,0,0,0,.06.49c0,.11.05.22.07.33s.09.43.12.64v0c0,.13-.09.26-.13.39a1.7,1.7,0,0,1,0,.22,1.83,1.83,0,0,1-.08.25,3.56,3.56,0,0,1-.38.65,7.8,7.8,0,0,1-1,1,4.27,4.27,0,0,1-.44.3l-.47.23c-.65.27-1.33.45-2,.74a5.69,5.69,0,0,0-.83.47,9.38,9.38,0,0,0-.8.61,3.71,3.71,0,0,1-.41.28,4.31,4.31,0,0,1-.47.26l-.43.22-.47.29c-.28.18-.57.36-.87.53a10.37,10.37,0,0,0-.91.54,4.22,4.22,0,0,0-.8.78,9.08,9.08,0,0,0-.57.81l-.5.79c-.18.28-.37.54-.56.81s-.22.32-.32.48a5.12,5.12,0,0,0-.34.71,2.74,2.74,0,0,0-.17.74,2.06,2.06,0,0,0,0,.43,2,2,0,0,0,.07.35,2.6,2.6,0,0,0,.36.75,4.08,4.08,0,0,0,.5.6,2,2,0,0,0,.35.25,1.23,1.23,0,0,0,.25.14l.27.14a1.46,1.46,0,0,0,.71.12c.23,0,.45-.09.68-.13a3.78,3.78,0,0,1,.75,0l.07,0h0a4.14,4.14,0,0,1,0,.61c0,.24,0,.47,0,.7a6.5,6.5,0,0,0,.12.75,1.73,1.73,0,0,0,.26.61,1,1,0,0,0,.13.16l-.26.13a5.14,5.14,0,0,0-.49.32,3.25,3.25,0,0,0-.5.4,1.29,1.29,0,0,0-.37.6,1,1,0,0,0,.11.67,2.84,2.84,0,0,0,.7.88c.28.24.59.45.89.66a3.84,3.84,0,0,1,.46.44,2.54,2.54,0,0,1,.16.28,9,9,0,0,1,.24.89c.07.3.1.61.16.91s.13.66.2,1,.13.66.18,1a.22.22,0,0,1,0-.08c0,.33.07.66.13,1a2.52,2.52,0,0,0,.18.65,1,1,0,0,0,.85.57,1.63,1.63,0,0,0,1.12-.39,1.74,1.74,0,0,0,.36-.46,1.56,1.56,0,0,0,.16-.7,2.35,2.35,0,0,0-.05-.37,2.56,2.56,0,0,0-.05-.27c0-.16-.07-.32-.1-.48s0-.15,0-.22a2.45,2.45,0,0,1,0-.27c0-.12,0-.23.07-.35s.09-.28.14-.42l.15-.31c.07-.12.15-.24.22-.37s.27-.39.41-.58.2-.23.31-.34c.21.19.39.41.59.6a1.79,1.79,0,0,0,.38.3.65.65,0,0,0,.27.08,1.13,1.13,0,0,0,.41,0,2.81,2.81,0,0,0,.78-.28,3.64,3.64,0,0,0,.8-.6c.25-.22.51-.43.77-.64l.58-.44h0a10.06,10.06,0,0,1,.86-.59c.26-.16.55-.29.82-.44a6,6,0,0,0,.87-.63l.81-.66a12.07,12.07,0,0,0,1.43-1.43c.2-.23.41-.45.62-.67a8.47,8.47,0,0,1,.67-.67l.23-.19.42-.3a4.29,4.29,0,0,1,.55-.31,5.72,5.72,0,0,1,1.34-.39,3.69,3.69,0,0,1,.47,0,2.91,2.91,0,0,1,.39.12l.15.08,0,.06a1.72,1.72,0,0,1-.27.27c-.24.18-.49.35-.74.51s-.55.34-.82.53a6.25,6.25,0,0,0-.85.69c-.23.24-.42.51-.64.77s-.37.45-.58.67-.46.45-.69.68a4,4,0,0,0-.72.81,2.58,2.58,0,0,0-.37,1,3,3,0,0,0,0,.79,7.15,7.15,0,0,0,.14.91,2.88,2.88,0,0,0,.33.84,2.72,2.72,0,0,0,.58.64,1.76,1.76,0,0,0,.68.35l.23,0h.25a1.51,1.51,0,0,0,.36-.06l.3-.09a1.78,1.78,0,0,0,.85-.63.86.86,0,0,0,.13-.2l.09-.2a1.88,1.88,0,0,0,.06-.58,2.73,2.73,0,0,0-.05-.4c0-.24-.1-.48-.14-.72a2,2,0,0,1,0-.42,3.57,3.57,0,0,1,.1-.35,1.23,1.23,0,0,1,.14-.25,3.41,3.41,0,0,1,.39-.37,5.42,5.42,0,0,1,.86-.54L43,118a1.13,1.13,0,0,1,.26,0l.18,0,.16.09a3.43,3.43,0,0,1,.33.33c.08.13.16.26.23.39a2.09,2.09,0,0,0,.53.75,1.15,1.15,0,0,0,.61.26,2.19,2.19,0,0,0,.36,0c.22,0,.43,0,.64,0l.09,0,0,0,0,0,.06.1c.07.18.12.36.18.54a2,2,0,0,0,.41.79l.15.11.17.06a.58.58,0,0,0,.19,0h.19a2,2,0,0,0,.42-.09l.2-.08a3,3,0,0,0,.62-.38,7.69,7.69,0,0,0,.95-.85,5.11,5.11,0,0,1,.45-.48,3.09,3.09,0,0,1,.39-.33,3.14,3.14,0,0,1,.64-.37,4.84,4.84,0,0,1,.83-.22,5.13,5.13,0,0,1,1,0c.3,0,.6,0,.9.09a3.42,3.42,0,0,1,.65.15c.22.07.43.16.65.25h0l.28.12a.28.28,0,0,0,.2,0,.24.24,0,0,0,.15-.11A.26.26,0,0,0,56,119a12,12,0,0,0-1.3-.5,9,9,0,0,0-1.27-.19h.08a6.4,6.4,0,0,0-1.38-.08,3.37,3.37,0,0,0-1.45.45,5,5,0,0,0-1.06.88,6.75,6.75,0,0,1-.53.54c-.15.14-.31.28-.48.41a4.08,4.08,0,0,1-.5.29l-.26.07H47.6a1.27,1.27,0,0,1-.12-.23,5,5,0,0,1-.17-.55c0-.08-.05-.16-.08-.25a1,1,0,0,0-.37-.53,2.71,2.71,0,0,0-1.39-.23l-.2,0-.08,0a.23.23,0,0,1-.07-.07,7.29,7.29,0,0,1-.42-.78,2.51,2.51,0,0,0-.32-.41,2.63,2.63,0,0,0-.39-.35,1.44,1.44,0,0,0-.33-.16,1.22,1.22,0,0,0-.26-.06,2.07,2.07,0,0,0-.61,0,2.51,2.51,0,0,0-1,.48,8.43,8.43,0,0,0-.74.6,2.15,2.15,0,0,0-.53.94,1.82,1.82,0,0,0-.06.46,4.21,4.21,0,0,0,0,.51c0,.17.07.33.1.5s0,.23.07.35,0,.22,0,.34l0,.11a1.18,1.18,0,0,1-.11.19l-.18.17-.22.12a3,3,0,0,1-.4.11h-.29l-.19,0-.2-.12a3.83,3.83,0,0,1-.28-.29,2.12,2.12,0,0,1-.21-.36,3.6,3.6,0,0,1-.21-.86c0-.15,0-.3,0-.46a1.7,1.7,0,0,1,0-.39,3.45,3.45,0,0,1,.12-.46,3.26,3.26,0,0,1,.24-.4,10.31,10.31,0,0,1,.73-.75c.24-.23.48-.47.7-.72s.43-.5.63-.76a5.32,5.32,0,0,1,.38-.45,3.8,3.8,0,0,1,.37-.33c.25-.19.51-.36.77-.53s.56-.35.82-.54l.44-.35a1,1,0,0,0,.17-.18,1.35,1.35,0,0,0,.16-.19,1.81,1.81,0,0,0,.18-.37.8.8,0,0,0,0-.27.57.57,0,0,0-.08-.28,1.24,1.24,0,0,0-.18-.21.73.73,0,0,0-.26-.17,2.16,2.16,0,0,0-.66-.23,3,3,0,0,0-1.4.11,6.59,6.59,0,0,0-1,.38,4.31,4.31,0,0,0-.89.56,6.14,6.14,0,0,0-.82.71c-.54.55-1,1.15-1.55,1.71a8.84,8.84,0,0,1-.89.84l-.91.76a4.67,4.67,0,0,1-.6.38c-.22.12-.44.22-.65.34a4.3,4.3,0,0,0-.67.44c-.23.16-.46.34-.68.51l-.77.61-.63.54a3.78,3.78,0,0,1-.43.26,2.75,2.75,0,0,1-.49.14h-.13l0,0c-.19-.17-.35-.37-.53-.56a2.39,2.39,0,0,0-.23-.22.83.83,0,0,0-.33-.22.72.72,0,0,0-.41,0l-.18.07-.17.13c-.07.07-.14.13-.21.21s-.2.24-.3.37-.29.42-.42.64a4.79,4.79,0,0,0-.4.78,3.3,3.3,0,0,0-.13.37,4.14,4.14,0,0,0-.09.46,2.48,2.48,0,0,0,0,.86c.05.28.13.55.18.84a1.22,1.22,0,0,1,0,.27.5.5,0,0,1,0,.13,1.19,1.19,0,0,1-.09.15l-.1.11-.22.13-.23.06h-.14l-.07,0,0,0,0,0,0,0a5.5,5.5,0,0,1-.2-1c0-.3-.1-.61-.15-.91-.12-.59-.27-1.17-.35-1.77a8,8,0,0,0-.17-.85,3.69,3.69,0,0,0-.11-.45,2.85,2.85,0,0,0-.17-.46,2.35,2.35,0,0,0-.66-.78c-.2-.17-.42-.31-.64-.47a3.91,3.91,0,0,1-.59-.56,1.69,1.69,0,0,1-.24-.41l0-.08v-.07l0,0a2.58,2.58,0,0,1,.34-.32c.3-.21.61-.4.93-.58a1.89,1.89,0,0,0,.27-.2.56.56,0,0,0,.16-.42,1,1,0,0,0-.35-.62l-.09-.17a3.89,3.89,0,0,1-.12-.49,6.09,6.09,0,0,1,0-.85c0-.15,0-.3,0-.45a1.3,1.3,0,0,0-.07-.59.71.71,0,0,0-.28-.36,1.24,1.24,0,0,0-.53-.18,2.6,2.6,0,0,0-.68,0l-.43.07-.44.1h-.14l-.18,0a3.2,3.2,0,0,1-.51-.29,1.7,1.7,0,0,1-.19-.19.53.53,0,0,1-.12-.14,2.83,2.83,0,0,1-.2-.28c-.06-.1-.11-.2-.16-.3a2.25,2.25,0,0,1-.09-.35,1.76,1.76,0,0,1,0-.4,2.48,2.48,0,0,1,.17-.59,5,5,0,0,1,.51-.86c.19-.27.38-.54.56-.82.34-.53.66-1.09,1-1.6a3.24,3.24,0,0,1,.59-.58c.31-.22.65-.4,1-.6s.65-.42,1-.62.67-.36,1-.55a8.41,8.41,0,0,0,1-.71,6,6,0,0,1,.66-.46,7.69,7.69,0,0,1,.76-.38c.61-.24,1.23-.44,1.82-.72a6.39,6.39,0,0,0,1.66-1.26,5.22,5.22,0,0,0,.67-.82c.16-.24.27-.5.41-.74l.18-.27a1.09,1.09,0,0,0,.17-.34,1.65,1.65,0,0,0,0-.31.31.31,0,0,0,0-.1,5.39,5.39,0,0,0-.1-.89,3.11,3.11,0,0,1,0-.53,2.86,2.86,0,0,1,.07-.28c0-.1.07-.19.1-.29s.11-.24.16-.37.19-.43.27-.65l.18-.51a4.34,4.34,0,0,0,.16-.62,7,7,0,0,0,.13-.78,2.48,2.48,0,0,0-.05-.77,3.77,3.77,0,0,0-.23-.72c-.09-.19-.2-.37-.3-.55a4.82,4.82,0,0,1-.27-.5,1.7,1.7,0,0,1-.1-.32V89.8a1.87,1.87,0,0,1,.07-.22,1,1,0,0,1,.13-.22,4.51,4.51,0,0,1,.71-.67c.36-.27.73-.53,1.1-.78a13.46,13.46,0,0,0,1.4-1.09,12.27,12.27,0,0,0,1.12-1.16c.19-.22.36-.44.53-.66l.41-.63a3.41,3.41,0,0,1,.46,0l.51,0a1.79,1.79,0,0,0,.4,0,2.9,2.9,0,0,0,.59-.09,3.24,3.24,0,0,0,.84-.4c.26-.18.49-.38.73-.58a1.92,1.92,0,0,1,.31-.18c.25-.09.52-.15.77-.23a3.16,3.16,0,0,0,.77-.41,1.26,1.26,0,0,0,.46-.67.91.91,0,0,0-.19-.78c-.19-.25-.43-.47-.63-.71l-.06-.1h0a1.86,1.86,0,0,1,.31-.1c.14,0,.27-.06.4-.11l.22-.09a1.45,1.45,0,0,0,.29-.19.92.92,0,0,0,.23-.25,1.11,1.11,0,0,0,.09-.19,1.33,1.33,0,0,0,0-.21.65.65,0,0,0-.06-.3.67.67,0,0,0-.19-.28,1,1,0,0,0-.72-.19c-.31,0-.62,0-.94,0h.09a.78.78,0,0,1-.21,0l-.08,0h0l0,0,0,0s0,0,0,0v-.17a2,2,0,0,1,.07-.26,3.7,3.7,0,0,1,.29-.51l.3-.36a3.51,3.51,0,0,1,.33-.34q.4-.37.84-.72a12.78,12.78,0,0,1,2.43-1.47,3.59,3.59,0,0,1,.39-.12A2,2,0,0,1,48,74.2c.43,0,.86,0,1.28,0a10,10,0,0,0,1.34-.08,6.28,6.28,0,0,0,.7-.15,5.17,5.17,0,0,0,.63-.21c.22-.08.43-.18.65-.28l.54-.24,1.12-.43a6.75,6.75,0,0,1,1.17-.32,4.56,4.56,0,0,1,.64,0l.77.06.73,0a1.89,1.89,0,0,0,.41,0l.41,0a6.13,6.13,0,0,0,1.5-.49c.43-.21.85-.45,1.29-.64a4,4,0,0,1,.65-.19,2.46,2.46,0,0,1,.47,0,7,7,0,0,1,.9.23,5.83,5.83,0,0,0,1.08.25,8.05,8.05,0,0,0,1.09.11,6,6,0,0,0,1.12,0,10.41,10.41,0,0,0,1.09-.2c.33-.08.65-.21,1-.32l.94-.31.49-.22a4.57,4.57,0,0,0,.47-.29c.2-.12.41-.25.6-.39s.46-.37.68-.56l.59-.53.56-.47.46-.34.56-.37a9.45,9.45,0,0,1,1.12-.63,3.33,3.33,0,0,1,.45-.13c.11,0,.21,0,.32,0l.29.08a5.39,5.39,0,0,1,.52.3,2.63,2.63,0,0,0,.56.27,2.79,2.79,0,0,0,1,.17,3.39,3.39,0,0,0,.77-.15l.3-.1a7.69,7.69,0,0,0,1.2-.56c.32-.18.63-.39,1-.56l.22-.07h.19a6.36,6.36,0,0,1,1.08.39,9.88,9.88,0,0,0,1,.34l1.2.32a10.11,10.11,0,0,1,1.06.35l.15.07h0c.47.2.92.42,1.39.61l.29.13.39.22.32.17.42.25a.44.44,0,0,0,.54-.07.46.46,0,0,0,.13-.32.4.4,0,0,0-.13-.31,5.12,5.12,0,0,0-.52-.4l-.43-.23a8.22,8.22,0,0,0-1-.45L87,67l-.11,0h0l-.23-.1-.25-.1-.51-.17c-.66-.2-1.35-.33-2-.54-.31-.1-.61-.21-.92-.33l-.49-.19-.24-.07a2.23,2.23,0,0,0-.36,0h-.22Zm0,.91h0Zm-5.42.71h0Zm-5.53,2.18,0,0,0,0Zm-4.32,1.64h0ZM43,78.14s0,.06,0,.08a.19.19,0,0,1,0-.08Zm0,.15.05,0h0l-.05,0Zm1.47.81,0,0,0,0Zm0,0h0Zm0,0Zm0,0h0l0,0,0,0v0h0v0h0v0Zm0,0Zm-.66,2.55a.17.17,0,0,1,0,.07.17.17,0,0,0,0-.07Zm0,0a.22.22,0,0,1,0,.08.22.22,0,0,0,0-.08Zm0,.09,0,0,0,0Zm-5.12,2.5,0,0,0,0Zm0,0h0ZM33.16,95.92l0,0,0,0Zm-13,13.57,0,.06,0-.06Zm.56,2.35,0,0,0,0Zm2.36.86a.14.14,0,0,1,0,.06.14.14,0,0,0,0-.06Zm0,.06h0Zm0,0Zm20,.47.06,0-.06,0Zm.12.07Zm0,0h0Zm-20.41,3.86v0Zm0,.07h0Zm0,0h0v0Zm0,.07v0Zm0,.08v0Zm31.34,1.51h0Zm-2.73.13,0,0,0,0Zm-18.63,0-.06,0,.06,0Zm22.57.24,0,0,0,0Zm-8.93.7.05.06-.05-.06Zm.06.12v0Zm-17.4.24h0Zm-.12,0Zm1.29.18.06,0-.06,0Zm17.25.27.08,0h0a.19.19,0,0,1-.08,0Zm-6.83.41a.13.13,0,0,1,0,.06v-.06ZM27,124.73v0Zm-.94.32,0,0,0,0Zm.06,0v0Zm.08,0h0Zm.07,0h0ZM32.66,94l0,0v0l0,.06Zm11.83-14.9Zm0,0Z"/><path class="cls-1" d="M96.41,68.33a7.9,7.9,0,0,0-.85.07l-.87.1-.81.08-.82.11a14.93,14.93,0,0,1-2.41,0l-.58,0c-.22,0-.43,0-.64,0-.46,0-.91.1-1.36.17-.13,0-.19.17-.16.28a.24.24,0,0,0,.28.17l.35-.05h-.06a8.17,8.17,0,0,1,1.78-.07c.57.06,1.13.1,1.7.13a8.81,8.81,0,0,0,.89,0l.89-.08c.28,0,.56,0,.85,0l.86-.06a8.49,8.49,0,0,1,.88,0,6.81,6.81,0,0,1,.78,0,4.53,4.53,0,0,1,.94.26c.25.12.49.26.74.39s.54.27.79.44a.93.93,0,0,1,.14.14c.19.27.31.57.48.84a2.39,2.39,0,0,0,.8.75,9.26,9.26,0,0,0,1.69.7,2.43,2.43,0,0,1,.35.2,1.07,1.07,0,0,1,.19.18l.09.15c0,.1.06.2.08.3,0,.53,0,1.06,0,1.59a4.7,4.7,0,0,0,.18,1,3.49,3.49,0,0,0,.22.53,3.09,3.09,0,0,0,.41.56,4.78,4.78,0,0,0,.78.63,4.71,4.71,0,0,0,.76.42,6.35,6.35,0,0,0,1.85.5c.55.08,1.09.11,1.63.16s.93.08,1.39.14a7.32,7.32,0,0,1,1.47.35c.26.11.5.23.75.36s.64.31,1,.46.6.28.89.44.53.29.77.46a1.85,1.85,0,0,1,.14.14c.13.2.24.43.36.64a5.63,5.63,0,0,0,.57.81,5.71,5.71,0,0,0,.55.55,5.79,5.79,0,0,1,.48.51c.18.25.36.49.55.73s.35.41.54.61a8.14,8.14,0,0,0,1.38,1.17,7.89,7.89,0,0,0,1.35.78,5.14,5.14,0,0,0,.55.2,4,4,0,0,0,.48.09l1,.13.43.06-.22,0,.63.08,1.52.26a7.1,7.1,0,0,1,1.42.38,4.94,4.94,0,0,1,.68.36c.25.16.5.33.76.48a6.5,6.5,0,0,0,1,.49c.27.11.55.17.83.27a3.09,3.09,0,0,1,.42.25,7.76,7.76,0,0,1,.93,1,.61.61,0,0,0-.07-.1c.15.19.29.38.44.56s.41.56.61.84.29.4.45.59a3.33,3.33,0,0,0,.36.39c.29.27.61.51.91.77a3.89,3.89,0,0,1,.41.4c.12.14.22.28.33.42l.75.92a9.49,9.49,0,0,0,.73.82,12.65,12.65,0,0,0,1,.8,3.74,3.74,0,0,0,.42.27l.21.11a2.21,2.21,0,0,1,.34.18l.15.15a2.82,2.82,0,0,1,.25.49c.13.3.25.61.37.91a5.77,5.77,0,0,1,.32.91,3.23,3.23,0,0,1,0,.44.29.29,0,0,1,0,.09l-.16.09-.23.06a1.4,1.4,0,0,1-.29,0,2.77,2.77,0,0,1-.41-.12,6.11,6.11,0,0,1-1.07-.65c-.18-.15-.35-.29-.51-.45s-.33-.35-.5-.51a1.19,1.19,0,0,0-.41-.26.92.92,0,0,0-.52,0l-.21.09a.82.82,0,0,0-.25.2.92.92,0,0,0-.19.25l-.07.09a4.59,4.59,0,0,0-.34.79,4,4,0,0,0-.16.82,5.65,5.65,0,0,0-.05.71,2.55,2.55,0,0,0,.29,1.15c.09.21.2.41.3.61a11.24,11.24,0,0,1,.3,1.14,4.23,4.23,0,0,0,.27.78,3.29,3.29,0,0,0,.44.68,3.57,3.57,0,0,0,.48.47c.14.13.3.25.45.38.33.28.69.51,1,.77s.47.4.73.59a3.88,3.88,0,0,0,1,.5,6.83,6.83,0,0,0,1,.25,5.86,5.86,0,0,1,.94.23l.24.15a1.21,1.21,0,0,1,.16.16,2.07,2.07,0,0,1,.19.32c0,.13.07.25.1.38v.28a1.21,1.21,0,0,1-.05.18c-.07.08-.15.15-.23.23a2.13,2.13,0,0,0-.31.43,1.8,1.8,0,0,0-.18.75,1.69,1.69,0,0,0,.17.71,1.77,1.77,0,0,0,.26.39,2.38,2.38,0,0,0,.35.36c.42.36.86.68,1.31,1,.07.07.14.13.21.21l.08.13c0,.1.05.19.07.29A9.14,9.14,0,0,1,144,117a3.53,3.53,0,0,0,0,.65c0,.13,0,.27.07.41l.06.28v0h0a4.08,4.08,0,0,1-.28.44,4.91,4.91,0,0,0-.28.5,2.19,2.19,0,0,0-.19.58c0,.12,0,.24,0,.36a2.33,2.33,0,0,0,0,.38c0,.12,0,.24.06.36l-.25,0a13.73,13.73,0,0,1-2.4,0c-.4,0-.8-.08-1.2-.12s-.78,0-1.18-.1a4,4,0,0,1-.5-.11,3.28,3.28,0,0,1-.5-.17c-.41-.19-.81-.4-1.24-.58l-.85-.35a7.41,7.41,0,0,0-.71-.25,2.92,2.92,0,0,0-.66-.09,2.21,2.21,0,0,0-.88.19,1.83,1.83,0,0,0-.3.18,2.55,2.55,0,0,0-.46.41,5.72,5.72,0,0,0-.37.46,4.74,4.74,0,0,0-.39.6c-.14.22-.26.46-.4.68l-.05,0-.1.06a3.43,3.43,0,0,1-.46.11,5.76,5.76,0,0,1-1.1,0A2.37,2.37,0,0,1,129,122l-.08,0a.52.52,0,0,1-.1-.11,1.4,1.4,0,0,1-.1-.16,4.27,4.27,0,0,1-.19-.86c0-.2,0-.41-.09-.61a1.57,1.57,0,0,0-.18-.42,2.1,2.1,0,0,0-.22-.3l-.18-.18-.38-.35c-.1-.1-.2-.21-.29-.32a2.39,2.39,0,0,1-.21-.34.24.24,0,0,1,0-.08V118a2.4,2.4,0,0,1,.12-.44c.22-.46.55-.85.79-1.3a3.52,3.52,0,0,0,.36-.93,3.77,3.77,0,0,0,.11-.94,3.4,3.4,0,0,0-.08-.64,2,2,0,0,0-.19-.48,1.91,1.91,0,0,0-.28-.4,1.58,1.58,0,0,0-1.47-.67,1.74,1.74,0,0,0-.86.52,2.36,2.36,0,0,0-.41.66,5,5,0,0,0-.3.92c-.06.31-.1.63-.18,1a5.65,5.65,0,0,1-.24.8,3.37,3.37,0,0,1-.19.32l-.08.09-.06,0-.1,0h-.16l-.29-.08a2.51,2.51,0,0,1-.45-.26,4.16,4.16,0,0,1-.46-.48,2,2,0,0,1-.23-.36,1.5,1.5,0,0,0-.25-.4,1.22,1.22,0,0,0-.15-.17,1.25,1.25,0,0,0-.39-.24l.14.06a2.18,2.18,0,0,0-.23-.09.85.85,0,0,0-.66.08,1.74,1.74,0,0,0-.48.53h0l-.94.08a5.46,5.46,0,0,1-.7,0,2.71,2.71,0,0,1-.41-.09,3.53,3.53,0,0,1-.46-.15l-.45-.14a3.94,3.94,0,0,0-.6-.09,5.81,5.81,0,0,0-1,0c-.38,0-.75.1-1.13.16l-1.76.22a13.8,13.8,0,0,0-1.7.33c-.57.16-1.13.36-1.68.56a6.91,6.91,0,0,0-1.68.77c-.39.27-.76.57-1.12.87-.16.13-.32.26-.46.39a2.55,2.55,0,0,0-.38.43l-.12.12a3.85,3.85,0,0,0-.57.5,5.19,5.19,0,0,0-.56.68,6.29,6.29,0,0,0-.41.64c-.08.16-.15.32-.22.48a2.77,2.77,0,0,0-.1.26,1.48,1.48,0,0,0,0,.35,2.83,2.83,0,0,0,0,.41,1.58,1.58,0,0,0,.79,1.11c.11.07.24.13.36.19a7.34,7.34,0,0,0,.89.33c.46.14.93.29,1.38.47s.85.39,1.29.57l.68.26a7,7,0,0,0,.76.19,6,6,0,0,0,1.64.11,2.73,2.73,0,0,0,.88-.23,1.92,1.92,0,0,0,.35-.23,1.28,1.28,0,0,0,.2-.26,1.06,1.06,0,0,0,.13-.46c0-.25,0-.51,0-.77q.41.08.81.18a8.39,8.39,0,0,0,1.13.24,3.31,3.31,0,0,0,.55,0,5,5,0,0,0,.66-.09,1.51,1.51,0,0,0,.61-.26,3.52,3.52,0,0,0,.35-.31,3.83,3.83,0,0,1,.29-.28,4.85,4.85,0,0,1,.49-.29,1.05,1.05,0,0,1,.24-.06h.17l.12,0,.14.08a4.67,4.67,0,0,1,.44.45c.09.1.17.2.26.29a3.28,3.28,0,0,0,.48.43,2.28,2.28,0,0,0,.58.3,1.88,1.88,0,0,0,.42.14,5.71,5.71,0,0,0,1,.14c.3,0,.6,0,.9,0a5.59,5.59,0,0,0,.59-.08A3.46,3.46,0,0,0,124,124a1.48,1.48,0,0,0,.57-.54l0-.09a1.15,1.15,0,0,0,.11-.29,1.22,1.22,0,0,0,0-.17,3.57,3.57,0,0,0,0-.46,4.2,4.2,0,0,0-.08-.62,4.25,4.25,0,0,0-.38-1,4,4,0,0,0-.81-1c-.29-.28-.58-.55-.89-.81a9.94,9.94,0,0,1-.89-.83,11.15,11.15,0,0,1-.79-.89l-.15-.22v-.08l0,0c.09-.11.19-.22.27-.33s.18-.23.26-.35c.07.1.15.19.22.28a4.12,4.12,0,0,0,.57.61,2.38,2.38,0,0,0,2.46.49,1.94,1.94,0,0,0,.88-1.09,5.66,5.66,0,0,0,.27-.79c.08-.29.14-.59.2-.9a3.8,3.8,0,0,1,.21-.82l0,0a2.06,2.06,0,0,1,.17-.33l.12-.11a.67.67,0,0,1,.14-.09h0l.14.08a2.5,2.5,0,0,1,.23.23,2.39,2.39,0,0,1,.13.21c0,.1.06.2.08.29s0,.42,0,.63a3.45,3.45,0,0,1-.17.65,11.1,11.1,0,0,1-.61,1,4.5,4.5,0,0,0-.57,1.29,2.73,2.73,0,0,0,0,.5l0,.25a.84.84,0,0,0,0,.17l.12.26a4,4,0,0,0,.45.63c.22.26.51.47.74.73l.06.1s0,0,0,.06c0,.23,0,.47,0,.71a5.81,5.81,0,0,0,.09.58,2.67,2.67,0,0,0,.21.62,1.56,1.56,0,0,0,.27.4,1.67,1.67,0,0,0,.34.31,2.07,2.07,0,0,0,.67.28,3.82,3.82,0,0,0,.59.09h.42a7.46,7.46,0,0,0,1-.1l.42-.08a1.94,1.94,0,0,0,.89-.48,3,3,0,0,0,.38-.55c.08-.13.15-.27.22-.4a4.93,4.93,0,0,1,.4-.61,3,3,0,0,1,.38-.41l.14-.09.15,0a1.13,1.13,0,0,1,.26,0,5.36,5.36,0,0,1,.78.23l.71.27.66.31a8.47,8.47,0,0,0,.94.39,5.63,5.63,0,0,0,1,.21c.29,0,.58,0,.88.06.57,0,1.13.12,1.7.15a10.83,10.83,0,0,0,1.71,0c.39,0,.77-.08,1.16-.14a1.16,1.16,0,0,0,1-.71,1.24,1.24,0,0,0,0-.67l0-.15a2.79,2.79,0,0,1,0-.5,2,2,0,0,1,.07-.26,3.9,3.9,0,0,1,.19-.35c.08-.14.18-.27.26-.41a1.58,1.58,0,0,0,.22-.54,1.46,1.46,0,0,0,0-.51,1,1,0,0,0,0-.17c0-.11-.05-.22-.08-.33a6.62,6.62,0,0,1,0-.77c0-.31.05-.62,0-.93a3.51,3.51,0,0,0-.09-.65,2.05,2.05,0,0,0-.5-.9,2.22,2.22,0,0,0-.33-.28l-.4-.32a5.51,5.51,0,0,1-.87-.8.42.42,0,0,1-.09-.14.25.25,0,0,1,0-.07v-.1a.24.24,0,0,1,0-.08l.07-.12.12-.14.11-.13a.8.8,0,0,0,.15-.21,1.13,1.13,0,0,0,.13-.32,2.57,2.57,0,0,0,.07-.4c0-.07,0-.15,0-.23a3.05,3.05,0,0,0-.05-.52,2.29,2.29,0,0,0-.35-.92,3.17,3.17,0,0,0-.36-.46,2.73,2.73,0,0,0-.42-.32,2.57,2.57,0,0,0-.85-.32l-.63-.12c-.22,0-.44-.08-.66-.14a4.11,4.11,0,0,1-.46-.15,4.37,4.37,0,0,1-.55-.32c-.24-.2-.48-.4-.73-.59s-.44-.31-.66-.47a7.82,7.82,0,0,1-1-.91,2.94,2.94,0,0,1-.3-.52c-.14-.39-.24-.8-.35-1.21a7.31,7.31,0,0,0-.53-1.26c0-.12-.08-.24-.11-.36a4.05,4.05,0,0,1,0-.7,4.77,4.77,0,0,1,.23-.92,1.63,1.63,0,0,1,.11-.23l.38.36c.23.21.48.4.73.59a5.91,5.91,0,0,0,.76.46,3,3,0,0,0,1,.38,2.84,2.84,0,0,0,.58,0,2.09,2.09,0,0,0,.73-.2,1.51,1.51,0,0,0,.47-.32,1.21,1.21,0,0,0,.24-.48,2.23,2.23,0,0,0,0-.73,3.76,3.76,0,0,0-.19-.87c-.09-.27-.19-.54-.29-.8s-.22-.58-.35-.86a2.91,2.91,0,0,0-.27-.49,2.17,2.17,0,0,0-.24-.29,2.85,2.85,0,0,0-.38-.31c-.14-.1-.31-.16-.45-.26l-.41-.26,0,0-.15-.12,0,0a6.76,6.76,0,0,1-1-1c-.28-.33-.56-.67-.83-1l-.45-.6a5.23,5.23,0,0,0-.65-.68c-.21-.18-.42-.36-.62-.55a4.43,4.43,0,0,1-.51-.55c-.25-.33-.47-.68-.71-1-.13-.17-.25-.34-.38-.5s-.31-.43-.48-.64-.28-.35-.43-.52a4,4,0,0,0-.61-.55,5.06,5.06,0,0,0-1.23-.56,10.85,10.85,0,0,1-1.39-.83,6.07,6.07,0,0,0-.68-.44,6.92,6.92,0,0,0-.88-.39,9.77,9.77,0,0,0-1.61-.42c-.56-.11-1.12-.21-1.69-.29l-.84-.12.22,0-.65-.08a5.17,5.17,0,0,1-.68-.16,8,8,0,0,1-1.39-.85A8.18,8.18,0,0,1,120,84c-.15-.15-.3-.3-.44-.46a3.79,3.79,0,0,1-.31-.37c-.15-.19-.29-.38-.44-.56a4.37,4.37,0,0,0-.42-.44,8,8,0,0,1-.78-.76c-.13-.18-.25-.37-.37-.56a2.87,2.87,0,0,0-.65-.82,5.37,5.37,0,0,0-.81-.53l-.72-.35c-.51-.24-1-.45-1.53-.7a7.37,7.37,0,0,0-1.63-.64,15.1,15.1,0,0,0-2.23-.28l-1-.05c-.31,0-.62,0-.93-.08s-.45-.07-.67-.12a5.2,5.2,0,0,1-.67-.21l-.45-.22-.48-.31a3.06,3.06,0,0,1-.36-.36c-.06-.09-.11-.19-.16-.28a3.76,3.76,0,0,1-.17-.66c0-.33,0-.66-.06-1,0-.19,0-.38,0-.58a2.53,2.53,0,0,0-.35-1.13c-.54-.86-1.57-1-2.44-1.33a1.77,1.77,0,0,1-.75-.53c-.16-.23-.3-.48-.47-.7a1.89,1.89,0,0,0-.62-.55c-.12-.07-.25-.13-.38-.19a13.32,13.32,0,0,0-1.55-.69,5.44,5.44,0,0,0-1.55-.19Zm-3.32.36h0Zm0,0h0Zm11.85,7.06v0Zm5.83,3.33h0Zm12,6.64h0Zm1.67,1.9.16,0-.16,0Zm9.89,4.48,0,0,0,0Zm3.93,4.23.07,0-.07,0Zm.25.19.09.07-.09-.07Zm-2.26,3.83h0Zm3.72.69,0,0,0,0Zm-.08.08,0,0,0,0Zm2.53,10,0,.06,0-.06Zm-15.89,2.27h0Zm.05,0h0ZM117,115.84a4.91,4.91,0,0,1,.66.17,3.64,3.64,0,0,0,.86.17,5.46,5.46,0,0,0,1,0,1.59,1.59,0,0,0-.16.32,1.57,1.57,0,0,0-.06.61,1,1,0,0,0,0,.29c0,.11.09.22.13.33a1.19,1.19,0,0,0,.16.23c.17.24.36.46.56.69s.33.38.51.56a12.54,12.54,0,0,0,1.07,1c.19.16.36.32.53.49s.32.32.46.49a1.9,1.9,0,0,1,.23.39,4.44,4.44,0,0,1,.19.62c0,.11,0,.22,0,.33v0l-.21,0a8.19,8.19,0,0,1-1.31,0,5.13,5.13,0,0,1-.65-.16l-.22-.13c-.22-.19-.42-.42-.63-.63a4.16,4.16,0,0,0-.51-.41,3.2,3.2,0,0,0-.52-.27,2.41,2.41,0,0,0-.65-.12,2,2,0,0,0-.59.07,3.09,3.09,0,0,0-.51.18,3.3,3.3,0,0,0-.45.26,5.52,5.52,0,0,0-.53.43c-.13.11-.23.24-.35.35l-.17,0a2.94,2.94,0,0,1-.42,0c-.58-.1-1.14-.26-1.71-.38a4.58,4.58,0,0,0-.63-.1,1.18,1.18,0,0,0-.74.12,1.78,1.78,0,0,0-.27.21,1.15,1.15,0,0,0-.2.29,2.2,2.2,0,0,0-.2,1.07c0,.11,0,.23,0,.34l-.14,0a5.06,5.06,0,0,1-.87,0,8.56,8.56,0,0,1-1-.24,8.43,8.43,0,0,1-.83-.33,16.59,16.59,0,0,0-1.64-.67c-.52-.17-1-.32-1.56-.53a3.72,3.72,0,0,1-.39-.21l0,0h0a.24.24,0,0,1,0-.08.27.27,0,0,1,0-.09,1.06,1.06,0,0,1,.06-.19,5.81,5.81,0,0,1,.6-1c.14-.18.3-.34.46-.51l.25-.24a1.76,1.76,0,0,0,.24-.3,5.49,5.49,0,0,1,.72-.64c.27-.24.55-.47.84-.7.12-.08.23-.17.36-.24l.4-.2c.53-.22,1.08-.4,1.62-.59.27-.09.53-.19.8-.26s.61-.15.92-.21c.56-.12,1.14-.21,1.71-.29s1.17-.19,1.75-.28l.24,0a3.31,3.31,0,0,1,.77,0Zm4,1.46,0,0,0,0Zm23.12,1v0Zm0,0a.17.17,0,0,1,0,.07v-.07Zm-15.53,2.59s0,.06,0,.09l0-.09Zm-23.28.91.06.08-.06-.08Zm.06,0,0,0,0,0Zm17.92.64,0,.06h0l0-.06Zm-.12.13h0l0,0,0,0Z"/><path class="cls-1" d="M81.77,73a5.93,5.93,0,0,0-.59.07c-.31,0-.62.12-.93.19s-.59.14-.88.23l-.84.23a8.64,8.64,0,0,1-.85.19,2.54,2.54,0,0,1-.39,0l-.21,0h.08c-.13,0-.25-.05-.37-.09s-.31-.1-.46-.15a5.23,5.23,0,0,0-1-.22,7.47,7.47,0,0,0-1.16-.11,5.56,5.56,0,0,0-.81.08l-.46.07a14.38,14.38,0,0,0-1.82.49l-1.74.55c-.23.07-.46.14-.7.19l-.73.13a7.16,7.16,0,0,1-.8,0,3.08,3.08,0,0,1-.43,0c-.17,0-.34,0-.51,0-.59,0-1.17-.08-1.75-.16s-1.2-.18-1.8-.25l-.92-.08c-.3,0-.6,0-.9,0a8,8,0,0,0-1,.11c-.3,0-.59.09-.88.16-.58.13-1.15.31-1.72.44s-1,.23-1.53.33-1,.19-1.49.32a6.81,6.81,0,0,0-.76.26,3.68,3.68,0,0,0-.44.23l-.25.18-.35.27a3.41,3.41,0,0,0-.46.47,2.39,2.39,0,0,0-.39.86,2.11,2.11,0,0,0-.06.66c0,.13,0,.25,0,.38a1.51,1.51,0,0,1,0,.3v0a2.64,2.64,0,0,1-.29.15c-.57.21-1.15.35-1.73.52a9.84,9.84,0,0,0-1.83.69l-.78.44-.78.47-.76.46c-.25.15-.5.31-.73.48a5.48,5.48,0,0,0-.58.48c-.18.17-.35.36-.52.54s-.33.36-.5.53a3.79,3.79,0,0,1-.42.38,11.81,11.81,0,0,1-1.37.82c-.25.13-.5.26-.74.41a9,9,0,0,0-.74.52A12.21,12.21,0,0,0,37.15,89a3.79,3.79,0,0,0-.64,1.79,2.32,2.32,0,0,0,.06.87,1,1,0,0,0,.11.24,1.63,1.63,0,0,0,.17.2,1.12,1.12,0,0,0,.21.17,2,2,0,0,0,.32.18,4.67,4.67,0,0,0,1,.33,22.83,22.83,0,0,0,3.79.23H43c.26,0,.51,0,.77.06l.16,0a3.31,3.31,0,0,1,.42.12,6.2,6.2,0,0,1,1.14.67,6.75,6.75,0,0,1,1,1.08,8,8,0,0,1,.69,1.21,3.38,3.38,0,0,1,.17.54,2.79,2.79,0,0,1,0,.5,1.55,1.55,0,0,1-.07.23,2.54,2.54,0,0,1-.16.28,4.39,4.39,0,0,1-.72.71l-.34.24-.43.25q-.44.22-.9.42c-.15.07-.31.13-.48.19a6.21,6.21,0,0,1-.62.14h.05l-.19,0h0c-.3,0-.6.06-.89.07l-.89.05a14,14,0,0,0-1.94.22,2.34,2.34,0,0,0-.38.09,2.68,2.68,0,0,0-.49.21,2.86,2.86,0,0,0-.68.57,3.63,3.63,0,0,0-.54.8c-.06.15-.13.3-.18.45s-.08.25-.13.37l0,.12a3.3,3.3,0,0,1-.26.45,6.41,6.41,0,0,1-.78.69L36,104l-.37.33a14.82,14.82,0,0,0-1.27,1.36q-.32.39-.6.78a6.58,6.58,0,0,0-.49.76,6.35,6.35,0,0,0-.38.84,3.81,3.81,0,0,0-.15.44c0,.15-.07.3-.1.46a5.23,5.23,0,0,0-.09,1,4.45,4.45,0,0,0,.14,1,2.86,2.86,0,0,0,.42.88c.1.14.2.27.31.4a4.59,4.59,0,0,0,.41.36,3.28,3.28,0,0,0,.62.37c.15,0,.29.11.45.15a4.16,4.16,0,0,0,1,.15,2.65,2.65,0,0,0,1.69-.83c.24-.19.46-.4.69-.59a2.75,2.75,0,0,1,.26-.22c.18-.12.36-.24.56-.35l.59-.29.82-.29a4.41,4.41,0,0,1,.8-.18,5.36,5.36,0,0,1,.7,0,3.6,3.6,0,0,1,.65,0,5,5,0,0,1,1,.25c.31.11.61.24.92.37a4.58,4.58,0,0,0,.9.32,6.33,6.33,0,0,0,1,.16l.94.07c.29,0,.59,0,.88,0a5.55,5.55,0,0,0,1-.09,3.16,3.16,0,0,0,.89-.32,2.66,2.66,0,0,0,.51-.37,2.14,2.14,0,0,0,.51-.84c.1-.29.17-.59.24-.88a11.92,11.92,0,0,1,.38-1.33l.17-.31a1.43,1.43,0,0,1,.14-.2l.18-.2.22-.12.2,0h.18l.17,0,.07,0,.13.14a3.68,3.68,0,0,1,.35.65c.06.13.11.26.17.4a3,3,0,0,0,.51.72.58.58,0,0,0,.8,0,.6.6,0,0,0,.15-.31h0l.68.14c.22,0,.43.09.65.15q.69.18,1.38.39c.44.13.87.28,1.3.45l.29.12.18.07,0,0,.09,0c.57.25,1.11.53,1.68.77.28.12.56.23.84.32s.61.19.92.27a10.15,10.15,0,0,0,1.89.28c.61,0,1.22,0,1.83.13h0a3.9,3.9,0,0,1,.57.13l.38.16-.07,0c.27.13.52.28.78.43l.72.44a10.88,10.88,0,0,0,1.34.74l.37.16.25.09a2.44,2.44,0,0,0,.39.07,1.91,1.91,0,0,0,.75-.08l.41-.17a3.53,3.53,0,0,0,.75-.38c.24-.18.46-.39.68-.58a3.91,3.91,0,0,1,.44-.26,2.72,2.72,0,0,1,.49-.13,7.67,7.67,0,0,1,1.27,0c.44,0,.89.09,1.33.15s.93.14,1.4.22c.3,0,.6.09.91.12a2.38,2.38,0,0,0,.88-.09c.21-.07.42-.17.63-.26a6.69,6.69,0,0,0,1.21-.77c.18-.13.35-.28.51-.42l.43-.4.23-.13a1.11,1.11,0,0,1,.26-.07c.28,0,.55,0,.82-.05a3.48,3.48,0,0,0,1-.19,4.48,4.48,0,0,0,1.64-1,1.93,1.93,0,0,0,.41-.53,2.25,2.25,0,0,0,.25-.91,3.61,3.61,0,0,0,0-.93,4.7,4.7,0,0,0-.21-.82c-.11-.31-.25-.61-.38-.91l-.19-.43a8.23,8.23,0,0,1-.36-1.29c-.09-.43-.16-.86-.26-1.28s-.22-.87-.35-1.3a10.86,10.86,0,0,1-.4-1.22v-.13l.07-.11.18-.16a3.42,3.42,0,0,1,.59-.33l.2-.09a.72.72,0,0,0,.24-.25,1.59,1.59,0,0,0,.12-.62c0-.13,0-.26,0-.39s0-.19,0-.29l0-.14a2.52,2.52,0,0,1,.13-.47,3.6,3.6,0,0,1,.2-.39l.29-.42c.17-.22.35-.44.52-.67A2,2,0,0,0,89,95a3.05,3.05,0,0,0,.13-.32,1.56,1.56,0,0,0,.05-.68,3.36,3.36,0,0,0-.35-1c-.11-.24-.23-.48-.35-.72a3.89,3.89,0,0,1-.12-.49V91.7a.25.25,0,0,1,0-.07,3.74,3.74,0,0,1,.27-.42c.23-.28.48-.54.72-.81a9.66,9.66,0,0,1,.86-.83,2.43,2.43,0,0,1,.35-.2c.21-.09.43-.15.64-.22a3.43,3.43,0,0,0,.44-.19,1.15,1.15,0,0,0,.63-.88.43.43,0,0,0,0-.16,1,1,0,0,0-.05-.25,1.69,1.69,0,0,0-.15-.37,3.71,3.71,0,0,0-.23-.32.93.93,0,0,0-.16-.18,2.65,2.65,0,0,0-.72-.52,8.22,8.22,0,0,0-1.58-.55,11.89,11.89,0,0,1-1.47-.44,4.25,4.25,0,0,1-.79-.42L87,84.73l0,0s0,0,0-.05v0l0-.07a3.71,3.71,0,0,1,.57-.55,10.79,10.79,0,0,1,1.8-1c.27-.13.54-.26.8-.4a9,9,0,0,0,.79-.46c.27-.17.53-.34.79-.54s.24-.19.35-.3.19-.21.28-.32l.13-.2c.06-.11.1-.22.15-.33a2.11,2.11,0,0,0,.1-.5,1.94,1.94,0,0,0,0-.48,1.8,1.8,0,0,0-.41-.87,4.18,4.18,0,0,0-.78-.68,6.59,6.59,0,0,0-1.07-.61L89.74,77c-.17-.07-.34-.13-.51-.21l-.7-.31a7.17,7.17,0,0,0-.8-.35c-.48-.16-1-.29-1.45-.48a3,3,0,0,1-.36-.19,3,3,0,0,1-.37-.25,2.87,2.87,0,0,1-.31-.29,3.11,3.11,0,0,1-.23-.28L84.49,74a2.16,2.16,0,0,0-.41-.39,2.69,2.69,0,0,0-.82-.39c-.16,0-.33-.08-.49-.12a5,5,0,0,0-.54-.08h-.46Zm.37.82h0Zm-.24,0h.34a4.56,4.56,0,0,1,1,.25,3.9,3.9,0,0,1,.35.19,3.71,3.71,0,0,1,.49.56,7.48,7.48,0,0,0,.62.75,4.22,4.22,0,0,0,.46.38,3,3,0,0,0,.43.29,15.58,15.58,0,0,0,2,.77l.5.25.55.26c.39.18.8.34,1.21.51a6.43,6.43,0,0,1,1.29.76,4.17,4.17,0,0,1,.43.41,2.39,2.39,0,0,1,.13.21c0,.09,0,.18.07.26V80a2.17,2.17,0,0,1-.07.24,2.26,2.26,0,0,1-.16.26,3.06,3.06,0,0,1-.36.36,11.16,11.16,0,0,1-1.5,1c-.26.14-.53.27-.8.4l-.83.41c-.29.15-.57.31-.85.49a4.43,4.43,0,0,0-.87.75,1.45,1.45,0,0,0-.3.47,1.18,1.18,0,0,0,0,.59,1,1,0,0,0,.23.41,1.58,1.58,0,0,0,.3.28,2.92,2.92,0,0,0,.48.29,5.92,5.92,0,0,0,.9.38c.19.07.39.12.59.18l.58.17c.41.11.81.24,1.21.39a2.43,2.43,0,0,1,.54.31,2.47,2.47,0,0,1,.28.28,2,2,0,0,1,.17.27l0,.15,0,0,0,0,0,0a1.71,1.71,0,0,1-.23.13c-.27.1-.54.17-.8.28a2.76,2.76,0,0,0-.39.18,3.37,3.37,0,0,0-.38.28c-.2.18-.4.38-.58.57s-.38.41-.56.62a5.53,5.53,0,0,0-.58.7,1.77,1.77,0,0,0-.31.65,1.52,1.52,0,0,0,.08.76,5,5,0,0,0,.38.86c.09.19.19.39.28.59a2.72,2.72,0,0,1,.11.38v.15a2.5,2.5,0,0,1-.07.26,2.12,2.12,0,0,1-.11.21c0,.09-.12.18-.18.27A6.26,6.26,0,0,0,87,96.25a3.77,3.77,0,0,0-.27.8c0,.16-.06.32-.08.48s0,.48,0,.71h0l-.13.06,0,0-.09,0h0l-.36.16a3.47,3.47,0,0,0-.44.31,1.12,1.12,0,0,0-.18.2.91.91,0,0,0-.17.28,1,1,0,0,0-.09.34,1.22,1.22,0,0,0,0,.33,2.07,2.07,0,0,0,.12.49c.09.28.2.55.29.83s.17.59.25.88a8.71,8.71,0,0,1,.2.85c.06.3.11.6.18.89a6.74,6.74,0,0,0,.24.88c.1.31.24.61.37.91l.33.71a5.42,5.42,0,0,1,.28,1.05,2.83,2.83,0,0,1,0,.65,2.62,2.62,0,0,1-.09.38,2.39,2.39,0,0,1-.13.21,3.05,3.05,0,0,1-.45.43l-.35.23a2.93,2.93,0,0,1-.39.21,4.19,4.19,0,0,1-.46.16l-.45.08c-.22,0-.45,0-.68,0a3,3,0,0,0-.59.08,1.86,1.86,0,0,0-.58.29,5.07,5.07,0,0,0-.55.49c-.17.16-.35.3-.53.45a7,7,0,0,1-1.27.73,2.29,2.29,0,0,1-.51.15,4.08,4.08,0,0,1-.78,0,31.83,31.83,0,0,0-3.35-.39,8.24,8.24,0,0,0-.86,0,3.64,3.64,0,0,0-.86.17,2.42,2.42,0,0,0-.74.44l-.28.25c-.1.1-.21.19-.32.28a1.77,1.77,0,0,1-.4.24l-.42.2a2,2,0,0,1-.42.12,2.29,2.29,0,0,1-.37,0,2.41,2.41,0,0,1-.54-.16l-.74-.35c-.25-.13-.49-.28-.73-.42l-.75-.44a8.69,8.69,0,0,0-.86-.44,5.16,5.16,0,0,0-.66-.23,5.77,5.77,0,0,0-.58-.08c-.3,0-.61,0-.92,0A16.59,16.59,0,0,1,64,111a9.41,9.41,0,0,1-1.3-.29l-.59-.19-.61-.23c-.5-.22-1-.46-1.49-.67s-1-.41-1.48-.57-1.06-.32-1.59-.47-1.06-.26-1.59-.37a.21.21,0,0,0-.19,0l-.09-.13a.27.27,0,0,1-.07-.08,2.6,2.6,0,0,1-.21-.36,3.85,3.85,0,0,0-.83-1.44,1.58,1.58,0,0,0-.52-.33,2,2,0,0,0-.59-.13,1.33,1.33,0,0,0-.4,0,2.07,2.07,0,0,0-1.08.59,4,4,0,0,0-.35.46,1.86,1.86,0,0,0-.19.34,3.52,3.52,0,0,0-.18.45c-.08.23-.14.46-.2.7a13.12,13.12,0,0,1-.38,1.4L50,110l-.22.21a2.12,2.12,0,0,1-.36.21c-.1,0-.2.07-.3.09l-.32.07c-.41,0-.83,0-1.25,0s-.91,0-1.37-.08a5.06,5.06,0,0,1-.77-.18,3.2,3.2,0,0,1-.43-.17l-.44-.18c-.26-.1-.51-.21-.78-.29l-.44-.12-.56-.09a5.3,5.3,0,0,0-.89,0,3.57,3.57,0,0,0-.47,0,4.34,4.34,0,0,0-.52.08,6.25,6.25,0,0,0-.87.26,10.2,10.2,0,0,0-1,.4,5.77,5.77,0,0,0-1.19.77l-1.05.91a2.93,2.93,0,0,1-.53.33l-.21,0a2.27,2.27,0,0,1-.52,0l-.42-.1a2.06,2.06,0,0,1-.35-.12,2.6,2.6,0,0,1-.45-.28l-.2-.18c-.06-.06-.11-.13-.17-.2s-.11-.15-.17-.23l-.15-.29c0-.11-.08-.21-.11-.32s0-.25-.07-.38,0-.26,0-.4a2.68,2.68,0,0,1,0-.4,6.47,6.47,0,0,1,.15-.74,5.69,5.69,0,0,1,.25-.69c.11-.21.22-.42.34-.62a7.24,7.24,0,0,1,.42-.61c.29-.36.58-.71.89-1,.15-.17.32-.34.49-.5a6.89,6.89,0,0,1,.56-.52c.18-.16.37-.31.56-.46l.28-.24a2.71,2.71,0,0,0,.41-.42,3,3,0,0,0,.38-.68c.08-.2.15-.4.22-.6a5,5,0,0,1,.36-.64,4.89,4.89,0,0,1,.39-.4,2.39,2.39,0,0,1,.34-.21,4.72,4.72,0,0,1,1-.23c.58-.06,1.16-.1,1.75-.13a11.52,11.52,0,0,0,1.85-.21,4.36,4.36,0,0,0,.92-.32l.77-.35a6.37,6.37,0,0,0,.72-.41,4.4,4.4,0,0,0,.72-.57,3.34,3.34,0,0,0,.32-.33,3.58,3.58,0,0,0,.3-.36,2.09,2.09,0,0,0,.29-.6,1.92,1.92,0,0,0,.06-.53,3.8,3.8,0,0,0-.06-.59,3.51,3.51,0,0,0-.24-.64,7.36,7.36,0,0,0-.94-1.52,7.41,7.41,0,0,0-.86-.91,5.83,5.83,0,0,0-1-.65l-.43-.19a2.4,2.4,0,0,0-.52-.16l-.3,0a6.77,6.77,0,0,0-.89-.06L41,92.2c-.61,0-1.23,0-1.84-.12a4.17,4.17,0,0,1-.6-.1,5.53,5.53,0,0,1-.79-.24,1.82,1.82,0,0,1-.27-.15l-.11-.11a.56.56,0,0,1,0-.08l0-.13a3.37,3.37,0,0,1,0-.55,2.09,2.09,0,0,1,.08-.36c0-.16.09-.3.14-.45a4.79,4.79,0,0,1,.25-.45c.08-.14.18-.27.27-.4s.3-.37.46-.55.37-.39.56-.58c.36-.35.75-.66,1.14-1,.18-.14.37-.28.56-.4s.47-.28.71-.41c.44-.24.88-.48,1.3-.76a5.84,5.84,0,0,0,.64-.47,6.13,6.13,0,0,0,.51-.51c.19-.2.38-.41.58-.61a4,4,0,0,1,.52-.49,9.06,9.06,0,0,1,.79-.53l.89-.53c.3-.19.6-.36.9-.53l.48-.27a3.55,3.55,0,0,1,.44-.21c.35-.14.7-.27,1.06-.38s.8-.21,1.2-.33a5.58,5.58,0,0,0,.58-.18l.29-.11.14-.06.15-.08a1,1,0,0,0,.2-.14.87.87,0,0,0,.13-.15.46.46,0,0,0,.1-.18.35.35,0,0,0,.05-.18,1.49,1.49,0,0,0,0-.21,1.11,1.11,0,0,0,0-.26,3.41,3.41,0,0,1,0-.64,2.47,2.47,0,0,1,.11-.36,2.28,2.28,0,0,1,.17-.3,3.79,3.79,0,0,1,.51-.47,5,5,0,0,1,.62-.39A22.9,22.9,0,0,1,57.1,76c.57-.13,1.13-.29,1.7-.44a15,15,0,0,1,1.62-.32c.21,0,.41,0,.62,0s.45,0,.68,0c.44,0,.88.06,1.31.11.6.08,1.19.18,1.79.24s1.21.11,1.82.14a8.37,8.37,0,0,0,1.87-.13c.32-.06.64-.13.95-.22s.59-.19.89-.27c.52-.16,1-.33,1.56-.48.24-.07.48-.15.72-.2a8.72,8.72,0,0,1,.89-.16h0l.28,0a4,4,0,0,1,.77,0l.67.08h-.11a6.55,6.55,0,0,1,.77.15c.25.07.49.18.75.24a1.86,1.86,0,0,0,.41.08l.17,0a2.27,2.27,0,0,0,.52,0,5,5,0,0,0,.87-.18l.69-.2.83-.24a12.19,12.19,0,0,1,1.46-.3Zm-8.43.44h0ZM85,74.59l.06.08L85,74.59ZM53.8,76.84l0,0,0,0Zm-2.18,2.39a.36.36,0,0,1,0,.1s0-.07,0-.1Zm0,.14a.05.05,0,0,1,0,0l0,0Zm-6.52,3.89,0,0,0,0Zm41.87,1.26,0,0h0s0,0,0,0Zm0,0Zm0,0v.06a.13.13,0,0,1,0-.06Zm4.46,3.31v0Zm0,0v0Zm0,0v0h0a.13.13,0,0,0,0,.06V88Zm-.36.25,0,0,0,0Zm-.86,1.35,0,0,0,0Zm-1.55,1.63,0,.06,0-.06Zm-.23.32v0Zm0,.08v0Zm-.09,2.15v0Zm-1.42,4.4-.07,0,.07,0Zm-.11,0ZM44.77,99.28l-.05,0,.05,0Zm41.39.33v0a.09.09,0,0,0,0,0Zm-33,7.46,0,0,0,0Zm-19.8,3.06v0Zm28.1.16h0Zm-12.75.33h0Zm-4.09.47,0,0,0,0Zm-6,.42-.09.06.09-.06Zm-4,.57,0,0,0,0Zm.75.24h0Zm38,.38,0,0,0,0Zm.92,0,0,0,0,0Zm-3.21.35.07,0-.07,0Zm1.39.09h0ZM91.37,88Z"/><path class="cls-1" d="M114.59,96.22l-.59,0c-.24,0-.48.06-.72.11s-.39.09-.58.16l-.65.26a4.11,4.11,0,0,0-.56.27l-.55.36a8.53,8.53,0,0,0-1,.81,5.73,5.73,0,0,0-.63.67,3.56,3.56,0,0,0-.45.69,2.59,2.59,0,0,0-.26.9,2.77,2.77,0,0,0,.14,1.07,3.34,3.34,0,0,0,.45,1,4.71,4.71,0,0,0,.94.9c.25.2.51.4.77.57a8.44,8.44,0,0,0,.83.47c.3.15.61.28.92.41l-.08,0a16.87,16.87,0,0,0,2,.72,16.63,16.63,0,0,1,1.86.56,3.7,3.7,0,0,1,.61.35,4.69,4.69,0,0,1,.63.63,3,3,0,0,1,.26.46,2.85,2.85,0,0,1,.13.48,2.64,2.64,0,0,1,0,.4,3.28,3.28,0,0,1-.15.51c-.07.13-.13.27-.21.39s-.19.28-.29.41l-.18.21a.55.55,0,0,0-.4,0c-.24.07-.49.15-.73.24l-.36.12-.26.1a2.06,2.06,0,0,0-.26.12,1.38,1.38,0,0,0-.25.17,1.63,1.63,0,0,0-.3.34,1.25,1.25,0,0,0-.14.5,1,1,0,0,0,0,.26.66.66,0,0,0,0,.15,1.15,1.15,0,0,0,.12.25,1.37,1.37,0,0,0,.21.28,2.17,2.17,0,0,0,.47.39,1.57,1.57,0,0,0,.25.14,4.59,4.59,0,0,0,.7.27,4.44,4.44,0,0,0,.55.12,7,7,0,0,0,1.3.12c.41,0,.82,0,1.23,0h1.21a9.39,9.39,0,0,0,1.19-.07l.73-.11a5,5,0,0,0,.55-.16c.18-.07.36-.13.54-.21a2.77,2.77,0,0,0,.48-.26,3.16,3.16,0,0,0,.44-.38c.12-.1.24-.21.36-.3l.33-.23.39-.2.32-.11a2,2,0,0,1,.35-.07,3.36,3.36,0,0,1,.71,0,1.59,1.59,0,0,1,.3.06l.28.1a8,8,0,0,1,1.23.73c.14.11.26.23.4.35l.45.38a5.23,5.23,0,0,1,.42.39l.41.4a12.25,12.25,0,0,0,2,1.35c.33.2.63.44,1,.62a3.24,3.24,0,0,0,.6.27,2.42,2.42,0,0,0,.65.13,4.16,4.16,0,0,0,1.22,0,5.14,5.14,0,0,0,.78-.16c.51-.17,1.09-.49,1.11-1.09a1.37,1.37,0,0,0-.19-.58l-.12-.23c-.09-.15-.17-.3-.25-.46a1.8,1.8,0,0,1-.1-.33.61.61,0,0,1,0-.14.88.88,0,0,1,0-.15c.1-.19.24-.35.35-.53a2.67,2.67,0,0,0,.32-.76,4,4,0,0,0,.07-1.24c0-.22-.06-.44-.11-.66a2.58,2.58,0,0,0-.19-.53,2.29,2.29,0,0,0-.28-.41,3.51,3.51,0,0,0-.37-.4l-.43-.35-.67-.53a4.55,4.55,0,0,1-.57-.59c-.25-.33-.47-.68-.69-1a10.26,10.26,0,0,0-.76-1c-.22-.3-.4-.62-.6-.94s-.39-.63-.6-.94a7.76,7.76,0,0,0-.74-1c-.27-.28-.59-.51-.88-.77l-.89-.8-.94-.76-.9-.73c-.31-.26-.6-.54-.9-.8a9.61,9.61,0,0,0-1-.8,6.26,6.26,0,0,0-.55-.34,4.78,4.78,0,0,0-.61-.28,2.9,2.9,0,0,0-.87-.2,3.27,3.27,0,0,0-1,.11c-.39.08-.75.22-1.13.33-.54.15-1.07.3-1.62.4a2.56,2.56,0,0,1-.39,0,3.15,3.15,0,0,1-.44,0l-.52-.1c-.2-.05-.42-.1-.62-.17-.38-.13-.75-.28-1.12-.43l0,0-.1,0h0l-.55-.24c-.15-.06-.29-.12-.45-.17a3,3,0,0,0-.61-.13,4.91,4.91,0,0,0-.67-.06h-.61Zm.25,1a6.51,6.51,0,0,1,1,0,5.06,5.06,0,0,1,1,.32l.53.21a8,8,0,0,0,1.13.39,7.61,7.61,0,0,0,1.32.23,4.28,4.28,0,0,0,1.29-.1l.7-.18q.38-.09.75-.21a11.2,11.2,0,0,1,1.5-.44,3.08,3.08,0,0,1,.43,0,3.48,3.48,0,0,1,.63.18c.22.1.44.21.65.33a6.34,6.34,0,0,1,.6.41c.22.17.43.35.64.54l.66.6c.46.38.93.75,1.41,1.12h0l.12.09h0c.21.16.42.33.62.51l.6.55c.2.18.41.35.62.52a4.85,4.85,0,0,1,.55.56c.36.49.71,1,1,1.52.16.27.32.54.5.8s.43.53.65.8.42.65.64,1a5.88,5.88,0,0,0,.79.94c.28.26.58.51.89.75a4.58,4.58,0,0,1,.42.35,2.31,2.31,0,0,1,.34.36,3.45,3.45,0,0,1,.2.32,4.41,4.41,0,0,1,.16.7c0,.14,0,.28,0,.43a4.18,4.18,0,0,1,0,.5,2.64,2.64,0,0,1-.14.57,2.87,2.87,0,0,1-.32.53,1.35,1.35,0,0,0-.24.46,1.1,1.1,0,0,0,0,.76,5,5,0,0,0,.27.57,3.92,3.92,0,0,1,.29.53.88.88,0,0,1,0,.15V115a.22.22,0,0,1,0,.08.57.57,0,0,1-.11.11,1.17,1.17,0,0,1-.27.15,3.17,3.17,0,0,1-.62.18l-.3,0h0a5,5,0,0,1-.95,0,1.9,1.9,0,0,1-.36-.08l-.34-.11a5.26,5.26,0,0,1-.65-.38c-.22-.15-.43-.31-.65-.45-.44-.29-.89-.58-1.32-.89l-.36-.3q-.19-.19-.39-.42a10.58,10.58,0,0,0-.81-.83l-.39-.37c-.17-.15-.35-.28-.53-.41s-.33-.22-.49-.31a4,4,0,0,0-.54-.29,3.42,3.42,0,0,0-.61-.22,3.74,3.74,0,0,0-.66-.09,3.7,3.7,0,0,0-1.19.18,3.28,3.28,0,0,0-.58.25,2.82,2.82,0,0,0-.44.26,5,5,0,0,0-.51.4c-.14.11-.26.23-.39.35l-.38.23a5.08,5.08,0,0,1-.51.17,4.13,4.13,0,0,1-.61.13c-.38,0-.76.07-1.14.08s-.81,0-1.22,0-.79,0-1.18,0h-.64l-.51-.05a5.49,5.49,0,0,1-1-.27l-.25-.12-.19-.13a1.53,1.53,0,0,1-.18-.18l0,0h0l.17-.09c.38-.15.78-.28,1.17-.41a.63.63,0,0,0,.36-.28.61.61,0,0,0,.06-.46.56.56,0,0,0-.11-.2,5.26,5.26,0,0,0,.64-.85c0-.08.09-.16.13-.24a2.22,2.22,0,0,0,.21-.56,2.3,2.3,0,0,0,0-.74,2.8,2.8,0,0,0-.25-.72,2.39,2.39,0,0,0-.42-.58l-.21-.23a3.47,3.47,0,0,0-.43-.35,3.07,3.07,0,0,0-.43-.26,3,3,0,0,0-.41-.17l-.36-.14-.82-.25-.82-.25c-.26-.09-.51-.19-.76-.3-.44-.18-.87-.37-1.29-.59a6.44,6.44,0,0,1-.63-.36,5.66,5.66,0,0,1-.56-.4,7,7,0,0,1-1.06-1,2.12,2.12,0,0,1-.21-.36,4.08,4.08,0,0,1-.22-.85,1.87,1.87,0,0,1,0-.41,2.17,2.17,0,0,1,.11-.42,4.14,4.14,0,0,1,.3-.5,8.59,8.59,0,0,1,1.24-1.17,7.15,7.15,0,0,1,.68-.44c.14-.09.28-.16.43-.24l.27-.12a4.88,4.88,0,0,1,.64-.23,6.08,6.08,0,0,1,.74-.16c.31,0,.61-.08.92-.09Zm-1,.09h0Zm17.66,5.53,0,0,0,0Zm2.24,3.2v0Zm-16.84.43,0,0,0,0Zm1,1.57h0Zm10.85,4.29,0,0,0,0Zm-11.49,0Zm18.43,3.19h0Zm-6.69-14.86h0l0,0,.06,0Zm-11.6-3.89.05,0-.06,0Z"/><path class="cls-1" d="M175.24,142.09l-1.76-.08-3.66-.2-3.24-.22-3.27-.2c-2.4-.15-4.8-.28-7.21-.42-4.72-.28-9.45-.54-14.17-.71s-9.39-.33-14.08-.58c-2.33-.12-4.66-.24-7-.33s-4.7-.17-7-.29-4.89-.24-7.33-.32L99,138.52c-2.65-.08-5.31-.1-8-.1l-6,0c-2.24,0-4.48,0-6.72.08l-6.86.13-3.51.08c-1.17,0-2.34,0-3.51.08s-2.39.06-3.59.11l-3.55.13c-2.37.08-4.74.18-7.12.23-1.15,0-2.31,0-3.47.09s-2.29.07-3.44.13-2.31.11-3.46.19l-3.48.22c-1.18.08-2.35.14-3.53.23s-2.44.18-3.66.29l-7.37.62-3.65.35c-1.23.11-2.45.25-3.67.39a.48.48,0,1,0,0,1c1.21-.19,2.44-.27,3.67-.39l3.65-.33,7.37-.61,3.66-.28c1.18-.09,2.35-.15,3.53-.23l3.48-.22c1.15-.07,2.31-.12,3.46-.17s2.3-.09,3.44-.13,2.32,0,3.47-.08c2.37-.05,4.75-.14,7.12-.22L60.9,140l3.59-.1,3.51-.07,3.51-.07,6.86-.11c2.24,0,4.48-.05,6.72-.05s4.57,0,6.85,0c1.18,0,2.35,0,3.52,0s2.38,0,3.57.09l7.46.26c2.44.09,4.88.22,7.33.35s4.69.22,7,.31,4.66.21,7,.34,4.71.23,7.07.33,4.67.19,7,.27,4.64.2,6.95.33c4.82.27,9.63.55,14.43.87l3.27.21,3.24.23c1.22.07,2.44.15,3.66.2l1.7.08C175.91,143.5,176,142.11,175.24,142.09Z"/></svg>