<svg id="para_exportar" data-name="para exportar" xmlns="http://www.w3.org/2000/svg" viewBox="0 0 97 97"><defs><style>.cls-1,.cls-3{fill:#fff;}.cls-2{fill:none;stroke:#fff;stroke-miterlimit:10;stroke-width:2.47px;}.cls-3{font-size:44.43px;font-family:MyriadPro-Regular, Myriad Pro;}</style></defs><path class="cls-1" d="M96.06,48.5c.14,34-34.31,57.7-65.87,44.21A48.82,48.82,0,0,1,.65,48.5C.25,22.25,22.23.1,48.5.34,74.72.08,96.38,22.48,96.06,48.5Zm-.12,0c.11-25.77-21.84-47-47.44-46.84C15.25,1.64-7.82,35.77,4.83,66.59,11.69,84,29.89,95.86,48.5,95.47c25.47.13,47.65-21.29,47.44-47Z"/><line class="cls-2" x1="40.42" y1="41.88" x2="70.57" y2="41.88"/><line class="cls-2" x1="40.42" y1="56.47" x2="70.57" y2="56.47"/><line class="cls-2" x1="70.57" y1="71.03" x2="28.11" y2="71.03"/><text class="cls-3" transform="translate(24.43 57.51)">i</text><line class="cls-2" x1="40.42" y1="27.92" x2="70.57" y2="27.92"/></svg>