<svg id="para_exportar" data-name="para exportar" xmlns="http://www.w3.org/2000/svg" viewBox="0 0 190 190"><defs><style>.cls-1{fill:#fff;}</style></defs><path class="cls-1" d="M188.63,95a96.75,96.75,0,0,1-6.93,35.91,94.38,94.38,0,0,1-20,30.76A92.2,92.2,0,0,1,95,189.54a93.72,93.72,0,0,1-52.23-16.37,95,95,0,0,1-14.19-11.75A95.43,95.43,0,0,1,.81,95,93.6,93.6,0,0,1,28.05,28.05,95.18,95.18,0,0,1,58.71,7.4a93.37,93.37,0,0,1,103,20.9A95.49,95.49,0,0,1,188.63,95Zm-.26,0a91.36,91.36,0,0,0-27.84-65.53,94.54,94.54,0,0,0-30.2-19.76A97.24,97.24,0,0,0,113,4.54,93,93,0,0,0,2.19,95a91.32,91.32,0,0,0,27,65.81A93.61,93.61,0,0,0,113,185.63a98.15,98.15,0,0,0,17.34-5.24,95.2,95.2,0,0,0,30.19-19.83,93.06,93.06,0,0,0,20.53-29.9A90.76,90.76,0,0,0,188.37,95Z"/><path class="cls-1" d="M119.91,109c-19.83.64-41.48-.09-60.48.73,17.12.59,36.85-.08,54.82.08,1.83,0,10.29.05,5.66-.81Z"/><path class="cls-1" d="M71.63,186c4-6.35,7.69-12.87,11.09-19.61,7.89-14,16.47-27.56,25.4-40.87,3.27-4.79,7.8-8.86,10-14.3.18-.44.12-1.31.81-1.16h0c.64,4.52-7.36,11.63-9.81,15.82-6.08,8.75-11.28,18.08-17,27-6.69,11-12.57,22.44-19,33.55Z"/><path class="cls-1" d="M17.78,148.25c6-3.08,11.9-6.2,17.77-9.45,18.27-10,36.12-20.86,55.32-29h0c.74.27-.65.61-.91.75l0,0C70.63,118.91,52.62,130,34.15,140.11c-5.33,3-10.72,5.8-16.13,8.61Z"/><path class="cls-1" d="M61.94,97.37c-2,2.89-1.71,6.65-3.78,9.5l0-.07a2.32,2.32,0,0,1-.3.4c-.86-1.73-.7-3.72-1-5.71s-1.38-4.19-1.2-3.5A67,67,0,0,1,57,107c1.85,3.44,3.91-5.15,4.14-6.43h0l0-.08v0c0-.61,2.44-5.29.77-3.15Zm-5.29,4.7v0Zm0,1.93v0Zm1.24,3.23h0Zm3.3-6.67h0l0,0,0,0Z"/><path class="cls-1" d="M63.19,97.32c-.37,1.38-2.56,5.2-.62,5.83-2,3.66-4.36,7.45-4.34,11.77h0c.11.87-1.1,4.93.81,3.46.64-3.09.15-6.4,1.65-9.31,1.39-3.31,3.4-6.31,4.9-9.55-.32-2.31-2.41,1.87-2.92,2.44-.47-.84,1.46-3.55.94-4.64h-.42Zm-.09,2.34v0Z"/><path class="cls-1" d="M54.83,100.66c0,5.87.34,10.34.35,16.21.11.82-1.09,2.71.45,2.52,1.54-1.88-.07-10.25,0-13.14-.34-.71.07-9.77-.76-7.68v2.09Z"/><path class="cls-1" d="M59.88,39.13a13.1,13.1,0,0,0-8.6,6.53c-.48,1.75-.78,3.58-2.36,4.73C44.05,55.26,35.73,59,36.67,67.1c0,1.88,1.14,3.45,1.63,5.21,0,3.74-3.39,7.86-.09,11.27,1.25,1.75,3.34,2.59,4.79,4.15,4,5.66,2.34,13.64,12.23,10.8L54,98.82c.37-.09,1.69-.13,1.9-.51.18-.07-.19-1-.13-1.2a2.08,2.08,0,0,1,1.95-1.72c1.25.31,2.34.89,3.66.44,1.11.3,1.11,1.88,1.92,2.59,2.9,2.92,7.18,1.16,10.47,0,2.4-.21,4-2.08,5.68-3.6l-.08.07c3.52-2.74,5-6.87,6.6-10.85,1.93-2.56,4.75-4.53,5.57-7.82,1.68-5.26-.4-4.77-1.21-8.83.12-3.84.36-5.85-2.77-8.65-6.67-9.82-4.25-9.4-16.16-13.14C67.17,44,65,38.22,59.88,39.13ZM61,40c3.5,0,5.17,3.54,7.86,5.2,3.29,2.4,7.61,2.36,11,4.44,2.82,1.87,4,5.24,5.73,8,1.18,2.18,4,3.74,3.72,6.49-1.25,6.15,2.87,6.22.94,11.6a.56.56,0,0,0,0-.12c-.76,3.38-3.75,5.28-5.56,8-1.51,4.47-3.67,8.6-7.55,11.51l.12-.11c-1.45,1.82-3.62,2.06-5.67,2.75-2.83,1.36-7.3,1.84-8.55-1.79-.6-1.4-2-1.21-3.26-.88-1.72-.86-5.2-.46-4.72,2.08-9.32,2.94-7.08-6-11.5-10.63-1.35-1.36-3.22-2.13-4.41-3.67-3.47-3.51,1.35-7.72,0-11.57-.7-1.66-1.63-3.29-1.49-5.15-.28-7.48,7.92-10.68,12.31-15.46,1.81-1.37,1.59-3.73,2.61-5.52,1.89-2.66,5-5,8.34-5.17ZM50.76,47.75l0,.06,0-.06Zm29.15,1.92.07,0-.07,0ZM41.12,58.49l-.07.06.07-.06ZM89,62.15l0,0,0,0ZM38.53,81.91l0,.06,0-.06Zm43.83,7.44,0,.07,0-.07ZM63.49,96.68v0Zm15.38-1.32-.07.07.07-.07ZM55.28,98.52h0Zm23.81-3.35.11-.1-.11.1Zm.12-.11h0Z"/><path class="cls-1" d="M51.19,61.29c-6.6,1.18-4.74,2.13-6.82,7.24-3.52,7.13-2.54,10.55,5.12,13.09.7.66-1.25,1.89-.88,2.93.1,1.57,1.48,2.46,2.27,3.67.82,1,1.28,2.45,2.09,3.29C52.64,89,49.74,87.22,49,84.8v0c-.41-1.23,1.06-2,1.09-3.09-2-2.08-6.5-1.79-7-5.42,0,0,0,0,0,.07-.79-4.5,3-8.11,3.66-12.36,4.11-2.86,8.2-2.26,9.92,2.81C61.9,71,65.15,68.54,66.87,77.33c.53,2.75,2.74,6.38.44,8.77a5.16,5.16,0,0,1-4.52,1.7,1.34,1.34,0,0,0-.74.07c-2.59,1.08-5.12,5.55-8,2.32-1.4-1.22-2-1.46-1.69-.76,2.39,4.33,6.32,2.61,9-.38l0,0c.88-1.15,2.27-.06,3.42-.49a5.53,5.53,0,0,0,4.06-7.35c-1.29-3.76-1.26-8.56-4.57-11.22-1.74-1.52-4-2.07-6-3.11-2-2.52-2.77-6.23-7-5.61ZM64.58,71.58l0,0,0,0ZM44.2,78.47l0,0,0,0Zm5.3,3.16,0,0,0,0Zm.2.16v0Zm0,0v0Zm-.25,1.29v0ZM49,84.27v0Zm11.62,4.5,0,0,0,0Zm.71.34,0,0,0,0Z"/><path class="cls-1" d="M32,115.41c1,4.85-.09,10.33.53,15,1-.49.15-7.06.37-8.66-.15-.71,0-7.36-.9-6.29Z"/><path class="cls-1" d="M34.77,113.18a21.3,21.3,0,0,1-.64,7.87c-.71-.28-.72,1-.39,1.33,1,3.36,2.42-11.15,1-9.2Z"/><path class="cls-1" d="M37.4,113.83c-1.7,4.93-4.09,10.25-2.83,15.52.08.54.12,1.61.93,1.38.87-.68-.44-3-.4-4.1-.21-2.73.67-5.49,1.21-8.15h0a.19.19,0,0,1,0-.07v0c.09-.27.17-.54.26-.81a.14.14,0,0,0,0,.07c.24-.74.49-1.47.72-2.2l0,.06c.07-.37,1.14-2.34.14-1.73Zm-1.09,4.64h0v0Z"/><path class="cls-1" d="M12,128.07c.55,3.84.69,7.74.87,11.6,0,.3,0,.77.51.73,1-.64-.08-3.62,0-4.75-.31-.71-.13-9.39-1.42-7.58Z"/><path class="cls-1" d="M8,129.6,11.32,53m8,72c-3.22,3.15-8,2-11.81,3.51L8,129.6,9.55,129l-.14,0c5.82-.71,10.12-.7,12.79-6.57a1.63,1.63,0,0,1,.33-.49c3-3.21.36-3.44,1.93-6.38,1.37-3.19,6-5.28,4.67-9.27-.48-1.89-2.06-3.75-1.47-5.76C32.9,92.18,38.52,87.69,26,82.27c-9.75-2.07-1.46-14.36-4.53-21-2-4-6.42-6-10.15-8.31l-.62,1c3,1.77,6.05,3.48,8.47,6,4.39,5.62-.63,13.28,1.28,19.55,1,3,4.54,3.4,7,4.64,4.84,2.56,6.48,5.34,3,10.14l0,0C23,104,28.36,100.7,28.33,109a9.89,9.89,0,0,1-1.89,2.73c-6.15,6.69-.41,5.75-4.49,10M19.1,60l0,0,0,0Zm1.49,2.67v0ZM21,122.91"/><path class="cls-1" d="M12.59,82.08c-6.89,3.53-8.64,14-3.5,19.78,2.54,3,4.06,7.26,8.28,8.2.9.1,2.67,1.46,3.22.47a.49.49,0,0,0-.38-.56c-2.21-.72-4.68-1.27-6.25-3.11C9.63,101,4.24,95.33,8.44,87.75c2.61-4.57,4.6-6.63,9.23-2.79,3.65,1.72,8.79,1.05,11.44,4.49,1.26,4.93-4.85,8.62-5.11,13.46,0,1.31,1.17,2.22,1.49,3.43-.06,2.3-2.61,4.06-4,5.76-.34.52-1.57.93-1.34,1.57.15.12.32,0,.43-.12l0,0c11-9.64.8-6.77,5.27-14.08,7.41-10.85,5.05-12.2-6.76-14.83h0l-.1,0h0c-2.24-.67-3.77-3.49-6.4-2.57ZM11.19,84l0,0,0,0ZM7.57,89.7l0,.06,0-.06Zm21.84,1.17v0Zm-.25,1.24v0Zm-4.44,9.62v0Zm.17,2.54h0ZM19,84.66h0l-.06,0Z"/><path class="cls-1" d="M47.1,100c-.27,2.64.83,5.56-1.1,7.92-2.45,4-4.1,4.58-8.39,3.73a.78.78,0,0,0-.45,0c-3,1.3-5.83,3.61-8.66.31-.43-.26-.57-1.3-1.15-1.1-.29.81,1,1.67,1.52,2.22,2.21,2.19,5.22,1.22,7.5-.28l-.09,0c3-1.45,4.77,2,8.3-1.55a10.8,10.8,0,0,0,3.5-11,.56.56,0,0,0-1-.31ZM47,105.87l0,.12s0-.08,0-.12Zm-8.22,6.68.08,0-.08,0Zm-4.28.4-.07,0,.07,0Z"/><path class="cls-1" d="M29.7,50.48a13.33,13.33,0,0,0-9.25,4.41c-.82,1-2.3,2.63-1.49,3.68.6,0,.49-2,1.39-2.68h0l0-.06,0,0c2.33-3.08,7.19-5.4,11.54-4.46,1.47.57,2.37,1.84,4.06,2.09,3,.13,3.1,3.81,4.52,3.37.64-.51-.38-1.17-.54-1.7a5.59,5.59,0,0,0-4.2-2.59c-1.94-.85-3.49-2.65-6-2.11Zm1.62.75h0Zm1,.39.08,0-.08,0Zm-7.8.81h0Zm-.06,0,0,0,0,0Zm-1.28.77,0,0,0,0Zm0,0h0Zm-.16.12,0,0,0,0Zm-.05,0,0,0,0,0Zm-.07.06h0Zm0,0-.05,0,.05,0Zm-.24.18,0,0,0,0Zm-2.28,2.23Z"/><path class="cls-1" d="M132.24,60.24a16.57,16.57,0,0,1-1.71,1.16h0l-.25.15,0,0c-.39.22-.78.43-1.18.63s-.82.38-1.23.55a22.34,22.34,0,0,1-2.62.87h0a19.85,19.85,0,0,1-5,.62,20.92,20.92,0,0,1-2.74-.2,19.22,19.22,0,0,1-2.59-.54,20.33,20.33,0,0,1-4.67-2,22.89,22.89,0,0,1-2.11-1.42,20,20,0,0,1-2-1.72l.07.07a20.31,20.31,0,0,1-3.25-4.25,20.22,20.22,0,0,1-2-4.82v.05l0-.08v0a19.88,19.88,0,0,1,.09-10.21,20.87,20.87,0,0,1,1.95-4.62v0l0-.07,0,.05a21.87,21.87,0,0,1,1.45-2.15,18.87,18.87,0,0,1,1.67-1.91,21.78,21.78,0,0,1,1.92-1.68,19.18,19.18,0,0,1,2.07-1.39,19.94,19.94,0,0,1,10.16-2.65h0a20.19,20.19,0,0,1,4.89.7h0a20.14,20.14,0,0,1,4.74,2l-.08-.05a20.28,20.28,0,0,1,4,3.1,20,20,0,0,1,3.2,4.17.21.21,0,0,1,0-.06,20.63,20.63,0,0,1,1.22,2.5,22.85,22.85,0,0,1,.84,2.58.29.29,0,0,1,0-.09,20.81,20.81,0,0,1,.57,3.4.3.3,0,0,0,.33.27.3.3,0,0,0,.26-.34,20.33,20.33,0,0,0-.59-3.71,20.6,20.6,0,0,0-1.3-3.57,20.3,20.3,0,0,0-2-3.3,20.72,20.72,0,0,0-2.52-2.85,19.85,19.85,0,0,0-3-2.32,20.61,20.61,0,0,0-3.44-1.75,20.08,20.08,0,0,0-3.7-1.08,20.46,20.46,0,0,0-3.83-.37,20.11,20.11,0,0,0-7.39,1.39,20.66,20.66,0,0,0-6.4,4,20.28,20.28,0,0,0-2.53,2.78,20.06,20.06,0,0,0-3.36,6.83,20.12,20.12,0,0,0,.1,11.27c.19.63.41,1.26.66,1.87A20.49,20.49,0,0,0,104,56.9h0a20,20,0,0,0,2.57,2.71c.48.43,1,.82,1.5,1.2s1,.7,1.57,1a21,21,0,0,0,3.35,1.6,20,20,0,0,0,3.55,1,19.2,19.2,0,0,0,3.86.28l.94,0c.33,0,.66-.06,1-.1a20.1,20.1,0,0,0,3.55-.76l.87-.28.9-.35.81-.36c.27-.13.54-.26.8-.4s.52-.27.77-.42l.72-.44m-27.62-7.28,0,0,0,0Zm7.16,7.23,0,0,0,0Zm-9.06-22.35v0ZM120.31,64.2h0Zm-10-36.85.06,0-.06,0Zm15,36.24h0Zm-10-38.24h0Zm22.08,9.3v0Zm-16.8-9.94h0Zm-17.32,9.78v0h0v0Zm-2,14.85h0v0Z"/><path class="cls-1" d="M148.69,52.08c-6.28.08-14.56,2.37-16.95,8.77a.37.37,0,0,0,.52.44c.28-.16.2-.55.3-.82,5.76-9.49,18.84-8.17,28.27-6.23a20.43,20.43,0,0,1,6.43,3.17c.5.26,1.12,1.25,1.68.81-4.7-5.53-13.37-5.57-20.25-6.14Zm-2.21.81h0Z"/><path class="cls-1" d="M132,61.12c.51,7.9-.36,15.54.72,23.24.56-5.07-.32-10-.12-15.29,0-2.65,0-5.3-.13-7.95,0-.21-.48-.22-.47,0Z"/><path class="cls-1" d="M168.47,59.18c-.17,5.68-.05,11.33.25,17-.05,2.87.27,5.72.35,8.59.11.53-.24,1.56.38,1.75.81-.17.09-4.23.17-5.14q-.27-7.29-.56-14.59c-.15-.69.69-9.77-.59-7.61Z"/><path class="cls-1" d="M153,84.08c-1.08.54.1,2.4.3,3.27,2.24,4.84,8.37,7.5,13.45,6.37,2.63-.58,1.93-4.69,2.11-6.37a.27.27,0,0,0-.53,0,21.45,21.45,0,0,1-.87,4.57,1.29,1.29,0,0,1-1,.86A12.22,12.22,0,0,1,155,88c-1-.86-.95-4.19-2-3.91Z"/><path class="cls-1" d="M130.63,84.9a.63.63,0,0,0-.47.75c.61,3.65-3.5,6.16-5.66,8.59a16.54,16.54,0,0,1-3.94,2.58c-.59.26-1.72.33-1.56,1.22,2.06,2.33,9.49-5.79,10.91-7.61,1-1.05,2.89-5.09.72-5.53Zm-9.94,11.88-.07,0,.07,0Z"/><path class="cls-1" d="M121.43,97.45c.78,8.62.35,17.44.39,26.06,1.05.48.67-.77.72-1.17a105.91,105.91,0,0,0,.08-11.41,92.11,92.11,0,0,0-.59-12.3c-.15-.35.22-1.39-.6-1.18Z"/><path class="cls-1" d="M163.55,94c.24,12.24,0,24.48.19,36.72.24,1.78-.75,8.44.45,8.86,1-.25.3-4.22.53-5.47.12-7.69-.19-15.38-.1-23.07-.23-1.23.62-21.57-1.07-17Z"/><path class="cls-1" d="M152.5,83.85c-5.15,0-10.31.06-15.46.38-1.12.24-6.18-.3-6.17.78.18.65,1.06.25,1.56.28,4.33-.17,8.67-.3,13-.44,2.49-.29,5.34.68,7.65-.13a.56.56,0,0,0-.58-.87Z"/><path class="cls-1" d="M133.17,51.17c-.43,2.44-.42,5-.75,7.44,0,.31-.15.68,0,1a.32.32,0,0,0,.56-.24c.05-2.63.13-5.27.32-7.9,0-.14,0-.49-.16-.25Z"/><path class="cls-1" d="M138.05,43.31c-.53,1.32-5.94,7.76-4.94,8.18s2.54-3.31,3.31-4c.31-.58,4-5.23,1.63-4.18Z"/><path class="cls-1" d="M149.69,40.36c-3.36.77-6.58,2-10,2.68-.47.22-1.6,0-1.61.63a.33.33,0,0,0,.39.24,83.7,83.7,0,0,0,8.85-2.25c.47-.2,4.08-.7,2.33-1.3Z"/><path class="cls-1" d="M151.61,40c-.65.09-2.15-.07-2.12.7a.51.51,0,0,0,.59.3c2.8-.64,5.58.63,8.3,1.06l-.14,0A24.33,24.33,0,0,1,163,43.13c.6.15,1-.56.44-.83A70.6,70.6,0,0,0,151.61,40Z"/><path class="cls-1" d="M163.19,42.6c-.58.7.86,2.12,1.11,2.89,1.21,2,2.28,4.11,3.51,6.1,2.26.78-1.71-4.26-1.88-5-.66-.66-2.05-4.34-2.74-4Z"/><path class="cls-1" d="M168,51.42c-.15.75-.62,6.2,0,6.19s.15-2.43.33-3.21c-.12-.66.55-3.59-.3-3Z"/><path class="cls-1" d="M150.51,40.47c.09,3.82.28,7.85,0,11.74a.43.43,0,0,0,.41.44c.91-.23.31-2.16.5-2.92-.16-1,.4-10.06-.92-9.26Z"/><path class="cls-1" d="M136.67,46.54c.16,1-.48,9.26.61,8.5.15-2-.16-4.1-.12-6.12-.09-.43.31-3.58-.49-2.38Z"/><path class="cls-1" d="M164.83,46.35c-.24,2.28.09,4.59-.07,6.88.1.56-.34,1.66.31,1.89.78-.1.06-5.06.21-6-.19-.4.41-4-.45-2.74Z"/><path class="cls-1" d="M158.14,45.37a.88.88,0,0,0-.78.43c-1.48-.78-2.79,1.09-.88,1.55-.54,1.56,1.76,2.81,2.59,1.3,1.22.77,2.21-1.52.88-2-.42-.59-1-1.31-1.81-1.31Zm0,1.15a.31.31,0,0,0,.17-.27,2.69,2.69,0,0,1,1.07,1.07c.32.18.68.31.22.66a.75.75,0,0,1-.17-.1c-.11-.61-.85-.4-.91.13-.52,1.12-1.62.08-1.23-.83.07-.65-.72-.43-1-.72.48-.5,1.3.25,1.89.06Zm-1.8-.17h0Zm-.07.14,0,0,0,0Zm0,0v0Zm.08,0,0,0,0,0Zm.1,0h0Zm.34.82h0Zm3.06.15,0,0,0,0Zm-.43.29h0Zm.2.16h0Z"/><path class="cls-1" d="M144.32,44.77c-.33.14-.76.42-.78.81-1.55.18-3.16,2.92-.75,3a1.25,1.25,0,0,0,2.38-.2c1.75,0,2.54-2.45.49-2.76a1.17,1.17,0,0,0-1.34-.8Zm.35.8h0Zm-.06,0c.58.42.26,1.07,1.25.84.78.4-.11,1-.63,1.11a.49.49,0,0,0-.7.21c-.4.93-.79.88-1.08-.05-.27-.33-.67,0-1-.11-.1-1.08,1.41-.87,1.66-1.62.19-.08.28-.31.48-.38Zm1.15.8h0Zm.15.06h0Zm.25.52a.08.08,0,0,1,0,0l0,0Zm-.29.28,0,0,0,0Zm-.37.21h0Zm-3.06.13h0Zm.05,0h0Zm.67.79h0Zm0,0-.05,0,.05,0Z"/><path class="cls-1" d="M158.13,73.69c-2.32,1.08-2.16,4.52-2.2,6.72,0,0,0-.09,0-.14-.07,3.22,2,6,5.27,4.21h0c2.39-2,2.62-11.56-1.88-11a2.6,2.6,0,0,0-1.18.2Zm1.55.94c3.46.15,2.86,11.46-1.26,9.1l.13.06c-1.61-.54-1.36-2.61-1.62-4l0,.15c.13-1.71-.16-4.33,1.46-5.34a4.19,4.19,0,0,0,1.27,0Zm-2.05.75,0,0,0,0Zm-.43,1.53s0,0,0,.08v-.08Z"/><path class="cls-1" d="M156.36,76.77c-.12.89,1.53.59,1.63,2,.62,1.19-.27,5.84.72,5.82,1.16-.22.3-4.75.23-5.8s-1.65-3.21-2.58-2.07Z"/><path class="cls-1" d="M158.72,61.53c-1.53.62-1.44,4.82.17,5.15,2.83,1.51,2.29-5.93-.17-5.15Zm.5,1.07-.07,0,.07,0Zm0,0h0Zm0,0h0Zm-.07,0h0l0,0,0,0Zm0,0h0Zm0,0c.38.84,1,2.49.23,3.17a3.49,3.49,0,0,1-.23-3.17Zm.19.38,0,.05,0-.05Zm.15,2.79h0Zm0,0h0Z"/><path class="cls-1" d="M171,86.87c-.71-.63-1.23-1.63-1.91-1.18h0c-.56.75.52,1,1.07,1.6a13.14,13.14,0,0,0,2.05,1.76.41.41,0,0,1,.21.38A13.94,13.94,0,0,0,176,100.22c-.4,9.41-1.12,18.84-.73,28.26,0,.65.16,2.3,1.08,1.43a8.81,8.81,0,0,0,0-1.85c-.44-7.84.23-15.69.42-23.53.17-5.22,1-3.07-1.72-7.31-1.58-2.5-1.82-5.46-1.72-8.34-.24-.55-.62-.34-1.46-1.18Zm4.91,11.86h0Z"/><path class="cls-1" d="M138,114.56c-.17,4.37-.73,8.74-.51,13.14,0,1,1.32.56.82-.2-.23-4.3.21-8.58.39-12.86,0-.36-.66-.45-.7-.08Z"/><path class="cls-1" d="M143.31,112.87c-1.66,0-3.88,0-5,1.33a.37.37,0,0,0,.64.29l-.08.05a5.11,5.11,0,0,1,1.25-.59h0a7.94,7.94,0,0,1,3.75-.2l-.1,0a7.42,7.42,0,0,1,1.86,1c1.36-.67-1.59-1.86-2.25-1.81Zm1.43,1.29,0,0,0,0Z"/><path class="cls-1" d="M145.56,114.12c-.61,3.29.39,6.9.15,10.28-.09,2.66-.1,5.32-.44,7.95,0,.31,0,.74.5.79,1,0,.5-1.18.7-1.71.21-3.16.34-6.33.24-9.5-.07-2-.36-4.08-.36-6.11-.07-.52.41-2.06-.79-1.7Z"/><path class="cls-1" d="M139.41,105.45c-2.11.75-1.75,5.06.59,5.13,2.15-.17,2.06-4.07.53-4.88-.18-.34-.78-.27-1.12-.25Zm.41.5c.16,0,.33.07.5.07,1,1,1.21,4.51-.88,3.74-1-.87-1.3-3.62.38-3.81Z"/><path class="cls-1" d="M144,98c-2.59.35-2.61,5.13-.07,5.62,2.44-.15,2.88-4.49.85-5.45-.18-.21-.53-.15-.78-.17Zm.52.64a.21.21,0,0,0,.11,0,3,3,0,0,1,.72,2.72c-.2.7-.88,2-1.76,1.41-1.38-1-1.16-4.46.93-4.12Zm-.83,0h0Z"/><path class="cls-1" d="M147.73,105.06c-2.92,0-2.95,5.11-.55,6,2.15.11,2.66-5,.86-5.6a.32.32,0,0,0-.31-.4Zm0,.64a.2.2,0,0,0,.11,0,4.2,4.2,0,0,1,.6,2.62v-.06c-1,5.69-4.13-2.33-.72-2.53Zm.71,2.59v0Z"/><path class="cls-1" d="M132,104.93c-1.1-.35-1.87.72-2.19,1.61a4.31,4.31,0,0,0,0,2.9,3.45,3.45,0,0,0,.71,1.23,1.4,1.4,0,0,0,1.45.07,1.58,1.58,0,0,0,.9-1.08,9.16,9.16,0,0,0,.45-1.71,2.85,2.85,0,0,0-1.1-3c-.35-.21-.66.33-.32.55a2.07,2.07,0,0,1,.85,1.88,5.83,5.83,0,0,1-.25,1.31,4,4,0,0,1-.42,1.16.78.78,0,0,1-.44.29,1.52,1.52,0,0,1-.59.09c-.14,0-.24-.25-.32-.36a4.58,4.58,0,0,1-.28-.54,3.74,3.74,0,0,1-.21-2.17c.14-.67.65-2,1.56-1.67.39.12.55-.48.17-.61Z"/><path class="cls-1" d="M152.81,97.48a2.49,2.49,0,0,0-1.72,1.91,6,6,0,0,0,.46,3.34,1.11,1.11,0,0,0,1.08.78,1.5,1.5,0,0,0,1.19-.7,5.18,5.18,0,0,0,.8-3.14,2.34,2.34,0,0,0-.43-1.52,2.22,2.22,0,0,0-1.49-.63.33.33,0,0,0-.39.22.31.31,0,0,0,.22.38,2.33,2.33,0,0,1,1.06.31,1.22,1.22,0,0,1,.39.94,5.42,5.42,0,0,1-.36,2.52,1.8,1.8,0,0,1-.67.91.76.76,0,0,1-.47.08.61.61,0,0,1-.37-.44,6.14,6.14,0,0,1-.45-2.67A1.91,1.91,0,0,1,153,98.09a.32.32,0,0,0-.17-.61Z"/><path class="cls-1" d="M138.21,73.69a2,2,0,0,0-1,1.89,3,3,0,0,0,.08,1.16,2.09,2.09,0,0,0,.72.92.87.87,0,0,0,1.06.17,1.55,1.55,0,0,0,.54-.92,5.35,5.35,0,0,0,.14-1.26,3.63,3.63,0,0,0-.13-1.14,1.38,1.38,0,0,0-.74-.86,1,1,0,0,0-1.08.14.32.32,0,0,0,0,.45.33.33,0,0,0,.44,0,.42.42,0,0,1,.43,0,.78.78,0,0,1,.37.51,3.36,3.36,0,0,1,.08.77,6.33,6.33,0,0,1,0,.87,2.36,2.36,0,0,1-.24.78c-.13.22-.26.15-.43,0a1.61,1.61,0,0,1-.51-.59,1.71,1.71,0,0,1-.07-.78c0-.49,0-1.3.58-1.51a.32.32,0,1,0-.17-.61Z"/><path class="cls-1" d="M142.19,78.62a1.56,1.56,0,0,0-1.37,1.57,2.57,2.57,0,0,0,.79,2.18,1.3,1.3,0,0,0,1.91-.41,2.35,2.35,0,0,0,.32-1.16,3,3,0,0,0-.12-1.12,1.6,1.6,0,0,0-.79-.94,1.22,1.22,0,0,0-1.16,0,.31.31,0,0,0,.31.54c.4-.23.84.11,1,.47a2.41,2.41,0,0,1,0,1.61c-.14.42-.58.81-1,.55a1.67,1.67,0,0,1-.63-1.41c0-.49.12-1.24.74-1.27.4,0,.4-.65,0-.63Z"/><path class="cls-1" d="M151.49,77.94a1.35,1.35,0,0,0-1.91.62,3,3,0,0,0,.15,2.45,1.73,1.73,0,0,0,.6.85,1,1,0,0,0,1.1,0,2.29,2.29,0,0,0,.87-2,2.83,2.83,0,0,0-.22-1.35,1.16,1.16,0,0,0-1.07-.64.32.32,0,0,0-.31.32.31.31,0,0,0,.31.31c.61-.06.66.76.66,1.18a2.09,2.09,0,0,1-.36,1.42c-.13.16-.37.34-.58.25a.93.93,0,0,1-.38-.49,3,3,0,0,1-.32-1.72,1,1,0,0,1,.42-.68.67.67,0,0,1,.72,0c.33.23.65-.32.32-.54Z"/><path class="cls-1" d="M147.35,56.23a1.18,1.18,0,0,0-1.8.53,4.41,4.41,0,0,0-.22,2.49,1.2,1.2,0,0,0,.54,1,1.16,1.16,0,0,0,1,.07,1.89,1.89,0,0,0,1-1.9,13.86,13.86,0,0,0-.08-1.43c0-.43-.29-1-.81-.9-.17,0-.32.13-.32.32a.32.32,0,0,0,.32.31c.22,0,.19.39.2.53l.06.93a1.72,1.72,0,0,1-.41,1.45.58.58,0,0,1-.52.12c-.24-.06-.31-.24-.35-.46a4.42,4.42,0,0,1,0-1.81,1.2,1.2,0,0,1,.37-.71.47.47,0,0,1,.55,0,.33.33,0,0,0,.45,0,.31.31,0,0,0,0-.44Z"/><path class="cls-1" d="M151.77,60.83a2.63,2.63,0,0,0-1.21.15,1.31,1.31,0,0,0-.72,1,4,4,0,0,0,.16,2.75,1.58,1.58,0,0,0,2.13.71c.79-.47.74-1.58.81-2.38a2.6,2.6,0,0,0-.23-1.53,1.3,1.3,0,0,0-1.14-.69c-.4,0-.4.64,0,.63.72,0,.78.91.75,1.42s0,.74-.1,1.11a1.5,1.5,0,0,1-.25.77c-.4.48-1.11.16-1.38-.28a3,3,0,0,1-.2-2c.05-.33.1-.72.44-.87a2,2,0,0,1,.94-.08c.41,0,.41-.6,0-.63Z"/><path class="cls-1" d="M142.55,44.91l3.61-.88c.39-.09.22-.7-.17-.6l-3.61.88a.31.31,0,0,0,.17.6Z"/><path class="cls-1" d="M142.79,51.16c1.19-.3,2.4-.56,3.61-.76a.31.31,0,1,0-.16-.6c-1.22.2-2.42.45-3.62.75a.32.32,0,0,0,.17.61Z"/><path class="cls-1" d="M140.4,46.55c0,.85,0,1.71,0,2.57a.32.32,0,0,0,.31.31.31.31,0,0,0,.32-.31,22.07,22.07,0,0,1,0-2.57.32.32,0,0,0-.31-.32.33.33,0,0,0-.32.32Z"/><path class="cls-1" d="M147.81,45.05c0,.92-.05,1.83,0,2.75,0,.4.64.4.63,0,0-.92,0-1.83,0-2.75,0-.4-.61-.4-.62,0Z"/><path class="cls-1" d="M140.84,46.84a7.48,7.48,0,0,0,1.8-2,.32.32,0,0,0-.12-.43.33.33,0,0,0-.43.11,4.52,4.52,0,0,1-.34.51s-.05.06,0,0l0,0a.64.64,0,0,1-.1.13,2.2,2.2,0,0,1-.2.23l-.42.43-.24.2-.11.09-.06.05,0,0a.32.32,0,0,0-.11.43.33.33,0,0,0,.43.11Z"/><path class="cls-1" d="M146,44a5.43,5.43,0,0,0,2.12,1.19.31.31,0,0,0,.38-.22.32.32,0,0,0-.21-.39,4.57,4.57,0,0,1-1.85-1A.31.31,0,0,0,146,44Z"/><path class="cls-1" d="M140.57,49.39a5.22,5.22,0,0,1,1,.77,3.52,3.52,0,0,0,1,.78.31.31,0,0,0,.42-.11.31.31,0,0,0-.11-.43,1.35,1.35,0,0,1-.26-.15l-.07,0s0,0,0,0l-.11-.1c-.15-.14-.29-.29-.45-.43a6,6,0,0,0-1.11-.82.31.31,0,1,0-.31.54Z"/><path class="cls-1" d="M147.83,47.64c-.29.35-.57.71-.84,1.07l-.36.53-.18.28,0,0s0,.07,0,0l0,0a.32.32,0,0,0-.12.43.31.31,0,0,0,.43.11,1.25,1.25,0,0,0,.44-.5c.12-.19.25-.38.38-.56a11.63,11.63,0,0,1,.8-1.05.31.31,0,0,0-.44-.44Z"/><path class="cls-1" d="M154,45.17a10,10,0,0,1,0,2.56.31.31,0,0,0,.31.31.32.32,0,0,0,.31-.31,10.32,10.32,0,0,0,0-2.72.31.31,0,0,0-.38-.22.32.32,0,0,0-.22.38Z"/><path class="cls-1" d="M161.86,47a12.78,12.78,0,0,0-.24,2.62c0,.4.64.4.63,0a11.88,11.88,0,0,1,.22-2.45.33.33,0,0,0-.22-.39.32.32,0,0,0-.39.22Z"/><path class="cls-1" d="M156.29,50.93c.71,0,1.41.07,2.11.12l1,.08.51,0,.29,0h.13c.12,0,.11,0,0,0v-.43h.44a.32.32,0,0,0-.45,0,.32.32,0,0,0,0,.44h0a.31.31,0,0,0,.44,0h0a.33.33,0,0,0,0-.45c-.11-.12-.28-.11-.43-.13l-.59-.05-1.14-.1c-.77-.06-1.54-.1-2.32-.13-.4,0-.4.61,0,.62Z"/><path class="cls-1" d="M157.07,44.06c.64.13,1.27.28,1.9.45a7.89,7.89,0,0,0,1.84.41c.41,0,.41-.6,0-.62a8.15,8.15,0,0,1-1.74-.41c-.61-.16-1.22-.31-1.83-.44-.4-.08-.56.52-.17.61Z"/><path class="cls-1" d="M154.07,48l1,1.46a6,6,0,0,1,.43.68,2.69,2.69,0,0,0,.32.66.3.3,0,0,0,.44,0,.31.31,0,0,0,0-.44.94.94,0,0,1-.1-.23,1.73,1.73,0,0,0-.16-.37,6.65,6.65,0,0,0-.42-.66l-.92-1.42c-.22-.33-.77,0-.55.32Z"/><path class="cls-1" d="M154.44,45.45c.52-.21,1-.42,1.53-.67.23-.12.44-.26.68-.36a4.33,4.33,0,0,0,.71-.27c.34-.21,0-.76-.32-.54a3.84,3.84,0,0,1-.67.25c-.23.1-.44.23-.66.35a15.31,15.31,0,0,1-1.44.63.32.32,0,0,0,.17.61Z"/><path class="cls-1" d="M160.51,44.89l1.33,2.22a.31.31,0,1,0,.54-.31l-1.33-2.22a.31.31,0,0,0-.54.31Z"/><path class="cls-1" d="M161.83,49.23a4.41,4.41,0,0,0-1.68,1.5.32.32,0,0,0,.11.43.32.32,0,0,0,.43-.12l.15-.2c0,.06,0,0,0,0l0,0,.09-.1a4.17,4.17,0,0,1,.36-.37l.1-.08,0,0s.06,0,0,0,0,0,0,0l.05,0,.1-.08c.15-.1.3-.18.45-.26a.32.32,0,0,0,.12-.43.32.32,0,0,0-.43-.11Z"/></svg>