<svg id="para_exportar" data-name="para exportar" xmlns="http://www.w3.org/2000/svg" viewBox="0 0 190 190"><defs><style>.cls-1{fill:#fff;}</style></defs><path class="cls-1" d="M38.17,62.44a.67.67,0,0,0-.41.31.7.7,0,0,0-.07.53.74.74,0,0,0,.31.41,11.91,11.91,0,0,0,1.62,1.11,8.08,8.08,0,0,0,1.76.7c.64.16,1.28.28,1.92.45a17.53,17.53,0,0,1,1.71.5l.73.34.87.44a12.45,12.45,0,0,1,1.66,1.13l-.14-.11.34.26c.38.3.75.61,1.1.94.18.16.35.35.53.52l.58.54a22.54,22.54,0,0,1,2.15,2.22c.27.36.54.73.79,1.1s.48.76.72,1.15a17.78,17.78,0,0,1,1.32,2.28,11.3,11.3,0,0,1,.51,1.52c.16.6.28,1.22.39,1.83.2,1.1.4,2.19.57,3.29s.24,2.48.45,3.71c.11.62.26,1.22.38,1.83s.19,1.12.27,1.68c.1.78.16,1.56.24,2.33s.14,1.72.19,2.58c.08,1.67.12,3.35.15,5,0,.86,0,1.72,0,2.57s-.07,1.67-.09,2.51,0,1.7-.08,2.55-.09,1.62-.12,2.43c0,1.19,0,2.37-.1,3.55a.79.79,0,0,0,.78.77.77.77,0,0,0,.54-.22.88.88,0,0,0,.23-.55c.07-.92.06-1.84.07-2.77s0-1.67.07-2.5.08-1.63.1-2.45,0-1.67.09-2.5.1-1.7.11-2.55,0-1.69,0-2.53c0-1.69.07-3.39,0-5.07,0-.74-.13-1.48-.18-2.22s-.17-1.49-.29-2.24-.27-1.4-.43-2.1-.26-1.31-.35-2c-.1-.82-.2-1.63-.36-2.44s-.34-1.54-.51-2.3-.32-1.61-.55-2.4a13.47,13.47,0,0,0-1-2.51c-.38-.72-.87-1.38-1.31-2.06s-1-1.49-1.54-2.2a16.72,16.72,0,0,0-1.67-1.8l-.86-.8-.83-.8a16.81,16.81,0,0,0-1.31-1.09l0,0c-.32-.25-.65-.5-1-.73a7.16,7.16,0,0,0-.87-.56l-.93-.46c-.34-.17-.69-.34-1-.48a22.34,22.34,0,0,0-2.16-.63A21,21,0,0,1,41.06,64,8.81,8.81,0,0,1,40,63.43a14.7,14.7,0,0,1-1.31-.92.52.52,0,0,0-.33-.1.58.58,0,0,0-.19,0Zm20,31s0,.1,0,.14,0-.09,0-.14Z"/><path class="cls-1" d="M60.46,43.83a4.32,4.32,0,0,0-.21-1,16,16,0,0,0-.84-1.89c-.3-.57-.59-1.14-.91-1.69a8.59,8.59,0,0,0-1.31-1.69c-.3-.31-.6-.61-.87-.95a12.7,12.7,0,0,1-.92-1.49c-.32-.57-.65-1.13-1-1.71s-.64-1.14-1-1.71-.67-1.16-1.07-1.7a.88.88,0,0,0-.47-.36l-.2,0a.79.79,0,0,0-.4.1.77.77,0,0,0-.36.47.84.84,0,0,0,.08.6,8.4,8.4,0,0,0,.51.93l.5.9c.35.61.68,1.22,1,1.84.15.3.32.59.47.88l.5.91A9.2,9.2,0,0,0,55.26,38c.24.28.51.53.76.79a10.69,10.69,0,0,1,.71.8,17.94,17.94,0,0,1,1.08,1.78c.35.63.72,1.24,1,1.9A3.46,3.46,0,0,1,59,44a8.29,8.29,0,0,1,.06.85c0,.34,0,.68,0,1,0,.68,0,1.35,0,2S59,49.36,59,50.08s0,1.4-.07,2.1l-.12,1.24c0,.38-.05.75-.08,1.12-.06.76-.09,1.52-.18,2.27-.07.45-.18.89-.28,1.34l-.18.71a5,5,0,0,1-.18.63,5.41,5.41,0,0,1-.57,1,1.67,1.67,0,0,1-.23.23l-.16.09a4.92,4.92,0,0,1-.55.14l-.49.09a6.63,6.63,0,0,1-.89,0q-.52,0-1,0l-2.06-.12c-1.29-.09-2.58,0-3.86-.19A6.53,6.53,0,0,1,47,60.48c-.34-.11-.67-.24-1-.38a20.08,20.08,0,0,0-2.29-.68.46.46,0,1,0-.24.89,20,20,0,0,1,2.28.7l0,0,.9.36a6,6,0,0,0,1,.29,15.05,15.05,0,0,0,2,.21c.68,0,1.36,0,2,.07S53,62,53.7,62a15.27,15.27,0,0,0,2,0,9.91,9.91,0,0,0,1.09-.18,2.68,2.68,0,0,0,.67-.24,2.3,2.3,0,0,0,.7-.69,6.8,6.8,0,0,0,.47-.83,3.43,3.43,0,0,0,.19-.48c0-.16.09-.32.13-.49.16-.67.35-1.34.47-2s.15-1.34.21-2,.13-1.25.21-1.87.2-1.43.26-2.14l.06-1c0-.36.06-.73.1-1.09.12-1.37.17-2.74.21-4.12A8.11,8.11,0,0,0,60.46,43.83Z"/><path class="cls-1" d="M58.79,43.15v0Z"/><path class="cls-1" d="M58.5,56.86v.08a.22.22,0,0,0,0-.08Z"/><path class="cls-1" d="M54.67,30.07a.53.53,0,0,0-.37.65c.24.61.47,1.23.73,1.83A8.35,8.35,0,0,0,55.88,34c.5.7,1.13,1.5,2.07,1.5a1,1,0,0,0,.88-.62,2.38,2.38,0,0,0,.19-.68c.06-.33.09-.66.12-1,0-.69.07-1.37.11-2.05a.57.57,0,0,0-.57-.57.56.56,0,0,0-.4.17.62.62,0,0,0-.16.4c-.11.88-.1,1.76-.2,2.64a3,3,0,0,1-.12.52l-.08,0a1,1,0,0,1-.23-.13,5.15,5.15,0,0,1-.64-.68,8.27,8.27,0,0,1-.61-.93c-.17-.31-.32-.64-.46-1s-.31-.78-.46-1.18a.55.55,0,0,0-.51-.39l-.14,0Zm3.1,4.35h0Zm0,0h0Z"/><path class="cls-1" d="M77.78,25.9a11.83,11.83,0,0,0-.71,1c-.17.28-.34.56-.52.83-.34.55-.71,1.08-1,1.63-.19.3-.37.59-.53.9l-.42.86q-.45,1-.84,2c-.24.61-.46,1.23-.65,1.86s-.34,1.21-.5,1.82-.35,1.27-.5,1.9-.29,1.27-.45,1.9-.34,1.34-.56,2-.43,1.24-.65,1.85L69,48.19l-.21.57a10.19,10.19,0,0,1-1,1.78,2.82,2.82,0,0,1-.33.36l-.12.08-.07,0h-.09l-.08,0-.07,0-.18-.19a4.48,4.48,0,0,1-.35-.65,7,7,0,0,1-.28-.92,9.73,9.73,0,0,1-.18-1.08l0,.19c-.15-1.18-.27-2.36-.43-3.53,0-.27-.07-.54-.12-.81s-.11-.59-.16-.89c-.08-.53-.17-1.07-.24-1.6s-.14-1.18-.22-1.77l0,.18c-.07-.54-.13-1.08-.21-1.62s-.15-.93-.23-1.39c-.16-1-.37-2-.52-2.93q-.08-.62-.12-1.23c0-.46-.08-.93-.09-1.4,0-1,0-2,0-3a.56.56,0,0,0-.54-.56.56.56,0,0,0-.54.56q0,1.07,0,2.13c0,.33,0,.67,0,1s0,.67,0,1c0,.7.09,1.4.18,2.1s.21,1.33.33,2c.1.51.16,1,.23,1.54s.12,1.26.18,1.89.13,1.34.2,2,.18,1.38.31,2.07.18,1.19.26,1.79.13,1.06.2,1.58a19.68,19.68,0,0,0,.32,2,5.42,5.42,0,0,0,.36,1.05,3.71,3.71,0,0,0,.78,1.2,1.5,1.5,0,0,0,.46.33,1.66,1.66,0,0,0,.58.15,1.41,1.41,0,0,0,1-.31,3.5,3.5,0,0,0,.79-.92,11.75,11.75,0,0,0,.91-1.85c.48-1.28.92-2.56,1.4-3.84s.94-2.5,1.3-3.79c.18-.63.32-1.28.47-1.93s.33-1.26.51-1.89A37.06,37.06,0,0,1,74.66,34l.21-.52c.24-.58.49-1.15.77-1.7l.47-.88c.17-.3.36-.59.55-.88.34-.52.71-1,1-1.57a9.12,9.12,0,0,0,.47-.79c.17-.33.35-.67.54-1a.62.62,0,0,0-.1-.73.59.59,0,0,0-.41-.18.54.54,0,0,0-.42.18Z"/><path class="cls-1" d="M80.94,30.64c-.34.43-.68.86-1,1.31s-.53.77-.78,1.16a9.51,9.51,0,0,0-.7,1.19c-.21.45-.41.9-.58,1.36A12.22,12.22,0,0,0,77.51,37l-.06.32a1.54,1.54,0,0,0,0,.64,1.13,1.13,0,0,0,.56.74,2.38,2.38,0,0,0,.7.22,6.5,6.5,0,0,0,1.53.06c.47,0,.93-.11,1.41-.14a19.86,19.86,0,0,0,3.06-.39c.46-.11.92-.25,1.38-.37l1.43-.37c.4-.1.8-.2,1.2-.33a11.08,11.08,0,0,0,1.24-.5.45.45,0,0,0-.35-.83l-.75.24c-.22.07-.45.15-.68.2-.47.11-.94.22-1.41.31s-.95.2-1.42.32-.94.24-1.42.32l-.42.07c-.39,0-.79.08-1.18.1l-1.15.08c-.4,0-.79.09-1.19.12a5.37,5.37,0,0,1-1.06,0,2.7,2.7,0,0,1-.39-.08l-.06,0h0a4.62,4.62,0,0,1,0-.91,7.18,7.18,0,0,1,.28-1.13c.12-.35.26-.69.4-1s.24-.51.38-.76.3-.51.46-.76a15.32,15.32,0,0,1,1-1.5c.13-.16.25-.32.38-.47a.41.41,0,0,0,.09-.23.32.32,0,0,0-.09-.23.37.37,0,0,0-.25-.1.25.25,0,0,0-.21.1Zm-2.5,7,0,.06,0-.06Zm0,0,0,0,0,0Z"/><path class="cls-1" d="M92.82,38.09l-1,.37a5.92,5.92,0,0,0-.93.4c-.55.3-1,.68-1.62,1s-.9.33-1.36.47a10.79,10.79,0,0,1-1.6.32l.16,0c-1.45.19-2.91.34-4.34.65-.34.08-.68.16-1,.27a6.75,6.75,0,0,0-1,.46,14.5,14.5,0,0,0-1.64,1,28,28,0,0,0-3.18,2.72,7.27,7.27,0,0,0-.71.85,10.47,10.47,0,0,0-.55.91,11.46,11.46,0,0,0-.8,2,10.68,10.68,0,0,0-.29,2.26c0,.68,0,1.37,0,2.05a21,21,0,0,0,0,2.1,15.64,15.64,0,0,0,.42,2.25c.08.32.16.65.25,1s.15.64.23,1,.15.68.25,1a4.89,4.89,0,0,0,.42,1.1,2.11,2.11,0,0,0,.6.66,3.21,3.21,0,0,0,.88.41,4,4,0,0,0,1.19.15,8.05,8.05,0,0,0,1.09-.11,5.21,5.21,0,0,0,1-.24c.51-.19,1-.43,1.49-.65l-.13.05.63-.26-.13.05L81.7,62c.59-.25,1.2-.45,1.8-.7.36-.15.72-.31,1.07-.48l1-.49c.64-.3,1.26-.63,1.87-1a15.08,15.08,0,0,0,1.85-1.21c.56-.44,1.08-.92,1.64-1.37S92,56,92.55,55.64l.94-.54c.3-.18.59-.37.88-.58A14.25,14.25,0,0,0,96,53.07a18.57,18.57,0,0,0,1.39-1.54,21.26,21.26,0,0,0,1.3-1.81c.38-.59.75-1.19,1.12-1.79s.75-1.24,1.13-1.85.79-1.17,1.18-1.75.73-1,1.11-1.55v0l.19-.24a.57.57,0,0,0,.17-.41.59.59,0,0,0-1-.41,19.67,19.67,0,0,0-1.34,1.81l-.57.84c-.2.27-.4.55-.58.84-.77,1.19-1.47,2.43-2.25,3.61-.36.54-.72,1.08-1.11,1.61s-.91,1.11-1.41,1.62a18.86,18.86,0,0,1-1.63,1.46c-.2.14-.4.28-.62.41s-.49.28-.73.42c-.49.28-1,.59-1.4.91s-.91.68-1.34,1-.76.68-1.16,1a20.57,20.57,0,0,1-2.56,1.59c-.46.25-.93.47-1.39.71s-.91.46-1.38.66c-.72.3-1.46.55-2.18.86s-1.16.48-1.74.73l-.56.19a5.71,5.71,0,0,1-1.81.14,4.64,4.64,0,0,1-.64-.17l-.27-.16-.1-.1a1.71,1.71,0,0,1-.13-.23,4.5,4.5,0,0,1-.17-.63c-.05-.23-.09-.46-.13-.7s-.09-.43-.12-.65-.06-.45-.11-.68c-.17-.86-.34-1.72-.47-2.6a24.78,24.78,0,0,1,0-2.86c0-1,0-2,.11-3a8.69,8.69,0,0,1,.51-1.79,9.19,9.19,0,0,1,.86-1.57,12.26,12.26,0,0,1,1.27-1.33c.48-.43,1-.87,1.47-1.28s.84-.61,1.29-.9a9.88,9.88,0,0,1,1.46-.81,13.35,13.35,0,0,1,2-.54c.71-.14,1.41-.26,2.12-.37a17.76,17.76,0,0,0,2.06-.37,13.09,13.09,0,0,0,2-.74,8.19,8.19,0,0,0,1.07-.7c.17-.12.35-.23.53-.34a4.44,4.44,0,0,1,.49-.24c.4-.16.8-.3,1.2-.44a.51.51,0,0,0,.35-.61.53.53,0,0,0-.48-.36l-.13,0Zm4,12.28-.06.07.06-.07Zm-.07.08,0,0,0,0Zm-22,.08s0,.07,0,.1,0-.06,0-.1Zm13.81,6.71,0,0,0,0ZM81.66,62l0,0,0,0Z"/><path class="cls-1" d="M133.62,57.63l-1.16.15-1.09.18a11.6,11.6,0,0,1-1.77.07c-.63,0-1.26,0-1.89,0h-1l-1,0-1.85.08c-.62,0-1.25.09-1.88.13s-1.29.06-1.94.08l-2,0c-.65,0-1.31-.07-2-.09s-1.27,0-1.9,0-1.27,0-1.91,0h-7.74a29.66,29.66,0,0,0-3.88.19,11.39,11.39,0,0,0-2.07.44c-.58.18-1.14.46-1.71.7s-1.25.53-1.87.82l-.87.43c-.29.13-.58.26-.86.41A18.13,18.13,0,0,0,91,62.85c-.78.61-1.49,1.31-2.24,2-.47.4-1,.79-1.43,1.17s-1.1.8-1.64,1.2-1.06.73-1.58,1.11a13.42,13.42,0,0,0-1.53,1.39,7.14,7.14,0,0,0-.72.83c-.24.31-.48.61-.71.93-.45.61-.86,1.25-1.28,1.88s-.78,1.1-1.19,1.63-.83,1.1-1.26,1.63a17.23,17.23,0,0,0-2.33,3.64,22.19,22.19,0,0,0-.78,2.11c-.22.65-.4,1.31-.57,2s-.32,1.4-.47,2.1-.26,1.41-.39,2.12a22.85,22.85,0,0,0-.29,2.35c0,.37,0,.74-.07,1.11s-.06.7-.08,1c-.06.7-.09,1.4-.11,2.1s0,1.38,0,2.07c0,1.45.21,2.87.3,4.31,0,.71.07,1.42.13,2.13a20.44,20.44,0,0,0,.31,2.22c.15.71.34,1.41.53,2.1s.43,1.31.65,2,.49,1.37.66,2.08.22,1.3.35,1.94c.09.46.17.92.27,1.38a7.83,7.83,0,0,0,.41,1.24,4.35,4.35,0,0,1,.18.71,14.87,14.87,0,0,0,.19,2,.52.52,0,0,0,.64.4.6.6,0,0,0,.36-.7,2.23,2.23,0,0,1,0-.23c0-.23,0-.46,0-.69s0-.49,0-.73a5.19,5.19,0,0,0-.13-.88c-.07-.24-.16-.47-.25-.7a10.75,10.75,0,0,1-.42-2c-.11-.67-.2-1.35-.31-2a17.67,17.67,0,0,0-.55-2c-.2-.66-.43-1.31-.6-2a26.16,26.16,0,0,1-.64-3.17c-.07-.68-.13-1.36-.15-2s0-1.41-.1-2.11-.11-1.47-.14-2.21c0-.35,0-.7,0-1s0-.71,0-1.07c0-1,0-2,.13-2.95,0-.52.09-1,.12-1.57s.07-1.08.13-1.62.2-1.29.32-1.93.25-1.36.37-2c.07-.36.12-.72.21-1.08s.17-.69.26-1c.17-.67.37-1.33.59-2l.18-.51a14.86,14.86,0,0,1,.7-1.51c.27-.49.57-1,.88-1.41.46-.66,1-1.27,1.44-1.92s1-1.42,1.55-2.14l0,0c.41-.59.81-1.19,1.21-1.79l.58-.77c.2-.27.4-.54.62-.79s.44-.46.66-.68.45-.43.68-.64c.47-.39,1-.72,1.47-1.07l1.62-1.17a35,35,0,0,0,3.17-2.69l.43-.39A14.24,14.24,0,0,1,93.23,63c.78-.45,1.59-.82,2.4-1.21L98,60.69a7.83,7.83,0,0,1,1.19-.45A11.27,11.27,0,0,1,100.5,60a29.84,29.84,0,0,1,3.78-.22h7.83l1.89,0c.64,0,1.27-.06,1.9-.07s1.32.06,2,.08,1.3,0,1.95,0,1.3,0,2-.06l1.87-.17c.31,0,.61,0,.91,0l1-.08c.66-.05,1.31-.09,2-.11a36.64,36.64,0,0,0,3.77-.21l1.08-.18,1.28-.16a.53.53,0,0,0,.33-.15.59.59,0,0,0,.13-.36.5.5,0,0,0-.42-.51Zm-1.19,1.17h0ZM88.82,64.73l-.07.06.07-.06Z"/><path class="cls-1" d="M107.32,41.27c-.37.49-.75,1-1.1,1.48a15.81,15.81,0,0,0-.79,1.38c-.13.25-.27.49-.4.75s-.24.49-.36.75c-.23.49-.46,1-.73,1.44a9.29,9.29,0,0,1-.53.85,10.94,10.94,0,0,1-1,1.16c-.17.19-.34.37-.52.54s-.38.36-.55.56a4.1,4.1,0,0,0-.29.4,2.34,2.34,0,0,0-.19.46,2,2,0,0,0-.09.35,2.2,2.2,0,0,0,0,.36,1,1,0,0,0,.09.38.92.92,0,0,0,.27.32,1.77,1.77,0,0,0,.47.25,1.58,1.58,0,0,0,.37.11c.3.06.61.08.91.11l.75.08.79.1c.51.08,1,.13,1.54.17s1.1.1,1.65.18,1,.14,1.52.18,1.07.08,1.6.14,1,.09,1.54.12l1.56,0c.55,0,1.1.07,1.65.11,1,.08,2.08.11,3.11.27.26,0,.53.09.8.12s.51,0,.77.05c.52,0,1,0,1.56,0,.91,0,1.83,0,2.74,0l1.4.11c.46,0,.93,0,1.4,0a.61.61,0,0,0,.57-.62.71.71,0,0,0-.16-.45.63.63,0,0,0-.4-.19l-1.56-.11c-.51,0-1-.1-1.52-.13s-1.07,0-1.6,0H121c-.38,0-.76,0-1.14,0a9.44,9.44,0,0,1-1.29-.15l.16,0-.23,0,.16,0a13.21,13.21,0,0,0-1.65-.18l-1.59-.09c-.54,0-1.09-.08-1.63-.1l-1.57-.07c-.37,0-.75-.06-1.12-.1s-.76-.09-1.15-.12c-.78-.06-1.56-.14-2.33-.26l.16,0c-.55-.08-1.1-.16-1.66-.21s-1-.09-1.49-.16l.16,0-.78-.12-.65-.07c-.39,0-.77,0-1.16-.1l-.23-.06h0a2.68,2.68,0,0,1,.07-.27l.15-.27c.29-.38.61-.74.91-1.11a16.07,16.07,0,0,0,1-1.34c.16-.25.31-.49.45-.75s.26-.49.39-.74c.24-.48.44-1,.66-1.47s.47-.91.7-1.36a10.48,10.48,0,0,1,.81-1.33l-.06.08.77-1a.44.44,0,0,0,0-.56.39.39,0,0,0-.26-.12.29.29,0,0,0-.24.12Z"/><path class="cls-1" d="M65.12,63.39h0a.57.57,0,0,0-.78.21c-.18.34-.35.68-.52,1l-.24.35a5.19,5.19,0,0,0-.62,1.54A13.72,13.72,0,0,0,62.68,68a7.35,7.35,0,0,0-.07,2.34,5.73,5.73,0,0,0,.31,1.2,3.38,3.38,0,0,0,.55,1,2.3,2.3,0,0,0,.46.42,1.81,1.81,0,0,0,.52.26,1.4,1.4,0,0,0,.28.06l.3.11a1.73,1.73,0,0,0,.75.06,2.4,2.4,0,0,0,1.49-.69,3.78,3.78,0,0,0,.49-.57,5,5,0,0,0,.72-1.42,6.57,6.57,0,0,0,.22-.9c0-.23.08-.47.11-.71a4.5,4.5,0,0,0,0-1.1c0-.3-.1-.59-.16-.89a7.39,7.39,0,0,0-.89-2.31c-.12-.19-.26-.38-.4-.56a2.94,2.94,0,0,0-.81-.72,1.72,1.72,0,0,0-.79-.23h0a1.5,1.5,0,0,0-.6.13Zm.63,1.48h0l.11.07a2.73,2.73,0,0,1,.33.35c.1.13.19.26.28.4a5.28,5.28,0,0,1,.27.53c.11.28.22.56.31.86l.09.38A1.15,1.15,0,0,0,67,67.3a.74.74,0,0,0-.91-.12.75.75,0,0,0-.27,1,2.19,2.19,0,0,1,.16.3,3.17,3.17,0,0,1,.12.44,5.42,5.42,0,0,1,0,.9,4.44,4.44,0,0,1-.15.63c-.11.21-.23.42-.36.62a2.39,2.39,0,0,1-.23.22.41.41,0,0,1-.11.07h0a1,1,0,0,1-.24,0H65a1.8,1.8,0,0,1-.19-.2l-.17-.28c-.07-.21-.13-.42-.2-.63a6,6,0,0,1-.12-.61,9.66,9.66,0,0,1,.09-1.78,9.54,9.54,0,0,1,.39-1.68,5.6,5.6,0,0,1,.54-.88,4.83,4.83,0,0,1,.38-.4l.08,0Zm0,0,0,0,0,0Zm-.29,6.45-.07,0,.07,0Z"/><path class="cls-1" d="M61.22,14.59m-4,1.51-2.44.06c-.68.34-1.36.66-2,1s-1.33.64-2,1c-.31.16-.63.31-.94.48s-.62.39-.91.59a10.66,10.66,0,0,0-1.78,1.64,11.21,11.21,0,0,0-.77.91,6.38,6.38,0,0,0-.61.92c-.07.13-.14.27-.2.41a3.59,3.59,0,0,0-.3,1.11,2.68,2.68,0,0,0,.31,1.55,6.55,6.55,0,0,0,.75,1.06c.19.26.36.52.53.79s.29.57.42.86a9.1,9.1,0,0,0,.45.88,2.38,2.38,0,0,0,.67.74,2.21,2.21,0,0,0,.93.36,6.65,6.65,0,0,0,1.18.12,5.58,5.58,0,0,0,1.15-.15,6.91,6.91,0,0,0,1-.3,9.73,9.73,0,0,0,1.06-.42c.33-.16.66-.31,1-.48s.62-.31.93-.44a5,5,0,0,1,1-.24,5.62,5.62,0,0,1,1.23,0l1,.17a6.17,6.17,0,0,0,.62.09,4.89,4.89,0,0,0,.55.05c.21,0,.41,0,.61,0h.25a1.45,1.45,0,0,0,.3,0h.11l.1,0c.44-.06.87-.14,1.3-.24A6.81,6.81,0,0,0,64.07,28a12.38,12.38,0,0,0,1.14-.6,11.28,11.28,0,0,1,1.1-.55,8.16,8.16,0,0,1,1-.32c.35-.09.7-.17,1-.28s.67-.23,1-.35a11.52,11.52,0,0,0,1.07-.47,8.35,8.35,0,0,0,1.83-1.28,9.87,9.87,0,0,0,1.36-1.78,5.59,5.59,0,0,0,.63-1.15,2.65,2.65,0,0,0,.06-1.34,4.92,4.92,0,0,0-.14-.55,8.34,8.34,0,0,0-.35-.95,6.28,6.28,0,0,0-.27-.59,2.72,2.72,0,0,0-.27-.42,5.49,5.49,0,0,0-.44-.52,3.51,3.51,0,0,0-.56-.46,7.18,7.18,0,0,0-1-.56c-.7-.33-1.43-.63-2.16-.91-.34-.13-.69-.23-1-.33a7.8,7.8,0,0,0-1.28-.23,8.92,8.92,0,0,0-1.16-.07,11.67,11.67,0,0,0-2.2.24l-.64.12-.34.07-1,.27-1.84.51m7.22.83a6.51,6.51,0,0,1,.88.17,9.32,9.32,0,0,1,1,.3c.65.21,1.29.45,1.92.71l.53.25a4.08,4.08,0,0,1,.44.28,4.35,4.35,0,0,1,.48.48,8.38,8.38,0,0,1,.77,1.41,4.11,4.11,0,0,1,.17.6,2.09,2.09,0,0,1,0,.25,1.58,1.58,0,0,1-.09.31,8.7,8.7,0,0,1-.53.94c-.19.29-.37.59-.58.88a7.11,7.11,0,0,1-.91.91,8.42,8.42,0,0,1-.8.52,8.09,8.09,0,0,1-.84.4c-.47.19-1,.37-1.44.52s-1,.25-1.49.44a11.31,11.31,0,0,0-1.46.67c-.46.25-.92.5-1.4.71a12.06,12.06,0,0,1-2.44.59H61c-.32,0-.63,0-.94,0a6.11,6.11,0,0,1-.86-.09l.1,0a15.12,15.12,0,0,0-1.64-.26,6.78,6.78,0,0,0-1.68.15,6.18,6.18,0,0,0-1.54.61c-.46.22-.91.46-1.37.66s-.71.27-1.07.39a5.73,5.73,0,0,1-1.07.25,6.31,6.31,0,0,1-1.15,0,3.5,3.5,0,0,1-.56-.13l-.16-.1a1.45,1.45,0,0,1-.21-.22,2.82,2.82,0,0,1-.23-.42c-.1-.25-.18-.5-.26-.76s-.24-.66-.38-1c-.25-.6-.64-1.11-.92-1.7a2.91,2.91,0,0,1-.16-.5c0-.13,0-.24,0-.37a4,4,0,0,1,.17-.59,7.34,7.34,0,0,1,.87-1.41,12.59,12.59,0,0,1,1.82-1.9q.36-.28.75-.54t.93-.51c.64-.35,1.3-.68,1.94-1l1.71-.88a.85.85,0,0,0,0,.35.92.92,0,0,0,1.12.64c1.37-.39,2.75-.76,4.13-1.14l2-.53c.27-.06.53-.13.8-.18.44-.07.88-.16,1.33-.22a10.23,10.23,0,0,1,2.28,0ZM63.44,27.08l-.1,0,.1,0Zm-2,1.62h-.11l.15,0ZM73.22,17.36h0Zm0,0,0,0,0,0Zm0,0-.11-.13.11.13Z"/><path class="cls-1" d="M48.25,45.6c-.2-.32-.43-.63-.65-1s-.43-.65-.66-1A8.82,8.82,0,0,0,46,42.57a11.36,11.36,0,0,0-1.12-.94,6.34,6.34,0,0,0-1.61-.79c-.39-.15-.77-.27-1.16-.4s-.69-.23-1-.36a4.18,4.18,0,0,1-1.51-.52l-.26-.2a3.48,3.48,0,0,1-.43-.22l-.11-.08a3.75,3.75,0,0,1-.62-.19l-1.45.07a10,10,0,0,0-2.5.44,18.6,18.6,0,0,0-2.16,1c-.38.19-.77.36-1.15.54l-1,.54a14.16,14.16,0,0,1-1.29.65c-.73.28-1.47.51-2.21.78a23,23,0,0,0-2.2,1,10.62,10.62,0,0,0-2.08,1.29c-.63.52-1.18,1.14-1.78,1.7s-1.07,1-1.57,1.52c-.27.29-.52.61-.77.92a4.34,4.34,0,0,0-.55,1.07,2.48,2.48,0,0,0-.08,1.35,1.8,1.8,0,0,0,.25.57,3.06,3.06,0,0,0,.42.53,7.9,7.9,0,0,0,1,.77c.32.21.65.41,1,.6a9.76,9.76,0,0,1,.89.51l.1.11,0,0,0,.1h0a4.37,4.37,0,0,1-.17.62,11.91,11.91,0,0,1-.62,1.1,9.75,9.75,0,0,0-.61,1.09,6.53,6.53,0,0,0-.48,1.3,4,4,0,0,0,.2,2.48A8.17,8.17,0,0,0,20.68,64,4.74,4.74,0,0,0,22,65.1a8.72,8.72,0,0,0,1.29.57,10.72,10.72,0,0,0,1.58.39,6.16,6.16,0,0,0,2.42,0,8.15,8.15,0,0,0,.82-.2c.29-.09.57-.2.86-.32.5-.21,1-.45,1.48-.67a3.86,3.86,0,0,1,.58-.17c.2,0,.41,0,.62,0a5.81,5.81,0,0,0,.59,0,8.69,8.69,0,0,1,1.14,0l.26,0a2.76,2.76,0,0,0,.64,0,4.5,4.5,0,0,0,1.06-.39c.37-.15.72-.33,1.08-.51.66-.33,1.33-.64,2-1s1.42-.7,2.15-1c.43-.16.86-.32,1.27-.52a9.69,9.69,0,0,0,1-.62l2-1.33a14.26,14.26,0,0,0,2-1.6,10.39,10.39,0,0,0,1.63-2.16A10.55,10.55,0,0,0,49,54.31a6.54,6.54,0,0,0,.33-1.17,16.16,16.16,0,0,0,.23-2.51A9,9,0,0,0,48.25,45.6Zm-.65,6.83a7.14,7.14,0,0,1-.15.78,6.3,6.3,0,0,1-.25.77,9.49,9.49,0,0,1-1,1.71c-.23.27-.46.53-.71.78s-.52.47-.79.69c-.64.47-1.32.9-2,1.34a15.7,15.7,0,0,1-2.08,1.25L39.9,60c-.36.15-.7.29-1,.45-.52.24-1,.49-1.53.75l-1.49.73-1.47.71a3.62,3.62,0,0,1-.53.17,5.83,5.83,0,0,1-.59,0,5.43,5.43,0,0,0-.57,0l-.63,0c-.24,0-.48,0-.72,0a4.11,4.11,0,0,0-1,.1,4.53,4.53,0,0,0-.8.3c-.4.17-.78.36-1.17.53s-.53.21-.8.3a6.64,6.64,0,0,1-1,.23,5.62,5.62,0,0,1-1.16,0,10.85,10.85,0,0,1-2.24-.58,4.86,4.86,0,0,1-.77-.43,6.65,6.65,0,0,1-.64-.66c-.16-.23-.32-.46-.46-.7a9.12,9.12,0,0,1-.41-.83,5.53,5.53,0,0,1-.24-.79,2.35,2.35,0,0,1,0-.53A5.86,5.86,0,0,1,21,58.6a12.27,12.27,0,0,1,.71-1.28c.14-.23.27-.47.39-.71a3.91,3.91,0,0,0,.33-.82,2.32,2.32,0,0,0,.1-1.14,1.87,1.87,0,0,0-.33-.75,2.52,2.52,0,0,0-.66-.6c-.21-.15-.44-.28-.67-.42a11.75,11.75,0,0,1-1.26-.81,4.14,4.14,0,0,1-.58-.53L19,51.4l0-.11v-.16a3.06,3.06,0,0,1,.13-.43,4.78,4.78,0,0,1,.38-.61,24.23,24.23,0,0,1,1.91-2c.33-.33.65-.66,1-1a9.15,9.15,0,0,1,1-.91,14.89,14.89,0,0,1,1.63-1c.57-.29,1.14-.57,1.72-.83s1.28-.45,1.92-.69a14.56,14.56,0,0,0,2.15-1c.62-.35,1.27-.66,1.91-1,.33-.16.64-.36,1-.53s.57-.3.86-.43a6.5,6.5,0,0,1,.85-.28,8.23,8.23,0,0,1,1.08-.21c.68-.08,1.35-.12,2-.18a1,1,0,0,0,0,.63.94.94,0,0,0,.45.58c.79.37,1.6.73,2.43,1,.62.22,1.26.42,1.88.66a5.8,5.8,0,0,1,.9.54,9,9,0,0,1,1.19,1.2c.35.46.69.93,1,1.4a6.34,6.34,0,0,1,.51.73,6.59,6.59,0,0,1,.44.83,7.75,7.75,0,0,1,.49,1.77A13.69,13.69,0,0,1,47.6,52.43Z"/><path class="cls-1" d="M47.12,47.49l0,.09a.36.36,0,0,0,0-.09Z"/><path class="cls-1" d="M21,55.12v0Z"/><path class="cls-1" d="M46.13,55.77l-.05.06.05-.06Z"/><path class="cls-1" d="M40.7,61.68l-.16.07.16-.07Z"/><path class="cls-1" d="M74.15,18a.62.62,0,1,0,.61-.62.62.62,0,0,0-.61.62Z"/><path class="cls-1" d="M85.71,9.05l-.25,0a12.78,12.78,0,0,0-2.65.63A30,30,0,0,0,80,10.92c-.42.2-.84.42-1.25.66s-.8.48-1.19.73a11,11,0,0,0-2.27,1.8,9.64,9.64,0,0,0-.7.88,4.78,4.78,0,0,0-.53,1.06,4.88,4.88,0,0,0-.28,1.14,5.65,5.65,0,0,0,0,1,8.48,8.48,0,0,0,.13.88,1,1,0,0,0,0,.1c-.22.55-.45,1.1-.65,1.67a4,4,0,0,0-.25,1.29,4.6,4.6,0,0,0,0,.64,2.66,2.66,0,0,0,.4,1,4.46,4.46,0,0,0,1.46,1.44,6.94,6.94,0,0,0,.77.39c.52.24,1.06.43,1.6.63l.8.36a6.58,6.58,0,0,1,1.25.75,9.4,9.4,0,0,1,1.16,1.2A6.1,6.1,0,0,1,81,29.61a7.37,7.37,0,0,1,.39,1.29,11.57,11.57,0,0,0,.38,1.43,4.38,4.38,0,0,0,.5,1,5,5,0,0,0,.73.8A9.35,9.35,0,0,0,84.2,35c.8.51,1.64,1,2.47,1.4l1.22.63c.38.2.77.36,1.15.56.77.4,1.5.88,2.26,1.31.41.23.83.44,1.25.65s.87.45,1.32.63.81.3,1.21.45.76.31,1.15.45a6.81,6.81,0,0,0,1.34.29,7.43,7.43,0,0,0,.81.09h.79c.31,0,.63,0,1,0s.66,0,1,.07l-.21,0c.85.12,1.7.24,2.57.29l1.18,0,1.14.1a7.09,7.09,0,0,0,1.22,0,1,1,0,0,0,.25,0c.36-.05.71-.12,1.07-.2.74-.18,1.45-.45,2.19-.58.29,0,.57,0,.86-.05a6.66,6.66,0,0,1,.76.06l.54.12.68.26a4.56,4.56,0,0,0,1.51.25,12.24,12.24,0,0,0,2.87-.49c.93-.22,1.88-.33,2.81-.56a13.24,13.24,0,0,0,2.75-1c.83-.41,1.68-.82,2.51-1.25a9.48,9.48,0,0,0,1.2-.68c.45-.31.88-.65,1.3-1a6.66,6.66,0,0,0,.95-1,8.23,8.23,0,0,0,.91-1.38,8.86,8.86,0,0,0,.57-1.48,10.52,10.52,0,0,0,.34-1.34,11.66,11.66,0,0,0,.22-1.65,6.54,6.54,0,0,0-.17-1.71,14,14,0,0,0-.41-1.44,11.58,11.58,0,0,0-.57-1.48,11.35,11.35,0,0,0-.75-1.31c-.25-.38-.51-.74-.79-1.1a7.66,7.66,0,0,0-1.09-1c-.73-.61-1.5-1.18-2.25-1.77s-1.28-1.09-1.91-1.64-1.36-1.18-2.08-1.72-1.47-1.1-2.23-1.63-1.3-.9-1.94-1.38c-.38-.3-.75-.61-1.14-.89s-.81-.55-1.23-.79a10,10,0,0,0-1.54-.68c-.49-.17-1-.33-1.48-.47a27,27,0,0,0-2.81-.61,30.85,30.85,0,0,0-3.17-.4l-2.83-.2c-1-.06-2-.14-3-.17s-2-.06-2.93-.1-1.88-.07-2.82-.07h-.7c-.45,0-.89,0-1.33,0-.71,0-1.42-.07-2.14-.13s-1.37-.08-2.06-.1h-.32a15.32,15.32,0,0,0-1.91.13Zm1.07,1.79a14,14,0,0,1,1.45,0l1.46.13c.47,0,.93.12,1.39.16s1,.08,1.5.1l1.37,0c1,0,1.94.08,2.91.13l2.48.16c.84.05,1.69.12,2.54.19,1.74.16,3.49.26,5.23.48h0l.17,0h0l.12,0-.25,0h0l1.49.26c.47.09.93.2,1.4.31s1,.26,1.56.41a13.08,13.08,0,0,1,1.33.46,7.62,7.62,0,0,1,.85.44c.33.2.65.42,1,.64l.86.65c.31.24.63.47,1,.69,1.27.86,2.56,1.72,3.78,2.65.89.72,1.75,1.46,2.62,2.2.5.42,1,.8,1.56,1.19s.86.64,1.28,1a9.11,9.11,0,0,1,1.32,1.24,9.11,9.11,0,0,1,.65,1c.18.32.35.63.52,1a14.41,14.41,0,0,1,.79,2.57c0,.23,0,.45,0,.68a3.88,3.88,0,0,1,0,.68,13.92,13.92,0,0,1-.32,1.56,12.35,12.35,0,0,1-.44,1.34,9.37,9.37,0,0,1-.79,1.28,9.05,9.05,0,0,1-.65.74,10,10,0,0,1-.77.67c-.18.13-.35.26-.54.38s-.43.26-.64.39l-1.32.72c-.88.48-1.74,1-2.65,1.39a16.7,16.7,0,0,1-2.76.79c-.94.2-1.86.49-2.81.65a5.56,5.56,0,0,1-1.08,0,5.23,5.23,0,0,1-.76-.18,6.55,6.55,0,0,0-.89-.27,6.68,6.68,0,0,0-1.84-.09,9.31,9.31,0,0,0-1.89.38,15.51,15.51,0,0,1-1.76.42H107a5.89,5.89,0,0,1-.84,0l-.82-.08h0c-.91-.12-1.82-.19-2.74-.3-.75-.12-1.49-.27-2.25-.35s-1.44,0-2.15-.08a7.18,7.18,0,0,1-1.5-.38l-.92-.4c-.38-.16-.77-.3-1.15-.45s-.66-.35-1-.51-.85-.43-1.26-.67-.77-.45-1.14-.69a11,11,0,0,0-1.09-.67c-.38-.21-.78-.38-1.16-.58l-1.27-.64c-.81-.42-1.65-.83-2.44-1.31-.33-.21-.65-.42-1-.65a5.6,5.6,0,0,1-.55-.54,3.25,3.25,0,0,1-.3-.51c-.31-.86-.49-1.76-.87-2.6-.06-.14-.13-.29-.2-.43.52.62,1.1,1.18,1.64,1.76s1.29,1.44,2,2.15a24.91,24.91,0,0,0,2.08,2,.75.75,0,1,0,1.07-1.06,41.42,41.42,0,0,1-2.9-3.17c-.43-.51-.87-1-1.32-1.48s-1-1.05-1.46-1.61a11.83,11.83,0,0,1-1.17-2l.09.2a14.17,14.17,0,0,0-1.09-2.21c-.22-.33-.44-.66-.69-1a5.63,5.63,0,0,0-.89-.87,7.59,7.59,0,0,0-1-.62,7.7,7.7,0,0,0-.92-.43,9.8,9.8,0,0,1-1.89-.94,1.21,1.21,0,0,1-.16-.16,2.53,2.53,0,0,1-.13-.22,4.09,4.09,0,0,1-.17-.69,6.41,6.41,0,0,1,0-1,4.76,4.76,0,0,1,.23-.82,4.78,4.78,0,0,1,.44-.8,8.8,8.8,0,0,1,1.34-1.32c.66-.47,1.36-.89,2-1.3A20.44,20.44,0,0,1,81.81,12a17.21,17.21,0,0,1,1.7-.61,16.94,16.94,0,0,1,2-.44c.43,0,.86-.09,1.3-.11Zm-12.2,9.68a3.9,3.9,0,0,0,.69.54,6,6,0,0,0,.8.41l1.1.47L77,21.85l.91.4a5.47,5.47,0,0,1,.89.55,5.35,5.35,0,0,1,.63.63c.22.3.42.61.62.92a9.15,9.15,0,0,1,.63,1.25l-.08-.2c.18.44.37.87.58,1.3.09.18.18.36.28.53a3.61,3.61,0,0,0-.33-.35A6.82,6.82,0,0,0,80,26c-.2-.14-.4-.27-.61-.39a9,9,0,0,0-1-.48c-.41-.18-.83-.35-1.26-.49s-.73-.26-1.08-.4a6.59,6.59,0,0,1-.86-.49,5,5,0,0,1-.6-.62,3.14,3.14,0,0,1-.24-.39c0-.11-.06-.22-.09-.33a3.42,3.42,0,0,1,0-.64,6.66,6.66,0,0,1,.35-1.21ZM128.23,33.3l0,.07,0-.07Zm-25.51,6.81h0Zm4.6.3-.1,0,.1,0Zm-.18-28.14.13,0h0l-.15,0Zm0,0Zm0,0Z"/><path class="cls-1" d="M146.45,46c-.41,0-.81,0-1.22,0-.86.09-1.72.17-2.59.29l-.67.09-2-.07c-.8,0-1.6-.11-2.4-.15l-1.31-.05c-.38,0-.76,0-1.14,0s-.81,0-1.21,0l-1.25.13c-.87.1-1.75.2-2.62.37a16.8,16.8,0,0,0-2.3.67,6.85,6.85,0,0,0-2.69,1.49,3,3,0,0,0-.69,1.16,2.85,2.85,0,0,0,0,1.3,4.18,4.18,0,0,0,.37,1.15,4,4,0,0,0,.75,1,7.27,7.27,0,0,0,1,.81,6.67,6.67,0,0,0,.7.48c.28.17.56.34.84.49a12.05,12.05,0,0,0,1.73.75c.52.18,1.06.31,1.58.5a2.82,2.82,0,0,1,.42.23l.13.12a2.31,2.31,0,0,1,.18.35,3.25,3.25,0,0,0,.46.81,2.85,2.85,0,0,0,.51.47,3.56,3.56,0,0,0,.86.46c.52.2,1,.36,1.58.51.8.23,1.62.4,2.44.55s1.73.28,2.61.37,1.62.12,2.43.15a31.1,31.1,0,0,0,4.92-.18c.78-.09,1.55-.18,2.34-.21s1.69-.08,2.54-.16a13.57,13.57,0,0,0,2.53-.46,12.61,12.61,0,0,0,2.35-1,11.81,11.81,0,0,0,1-.61,7.87,7.87,0,0,0,1.24-1,4.29,4.29,0,0,0,.8-1.37,3.73,3.73,0,0,0,.23-1.52,8.25,8.25,0,0,0-.18-1.4,7,7,0,0,0-1.06-2.75,7.89,7.89,0,0,0-.88-1.12,6.37,6.37,0,0,0-1.08-.84,8,8,0,0,0-1.25-.6,9.5,9.5,0,0,0-1.18-.37,23.76,23.76,0,0,0-2.48-.52c-.49-.08-1-.13-1.47-.18s-.77-.09-1.16-.12c-.85-.06-1.7-.11-2.56-.15h-1.14Zm-12.23,1.69c.81-.06,1.61,0,2.42,0l1,0a.93.93,0,0,0,0,.33.77.77,0,0,0,.38.5l.2.09a.86.86,0,0,0,.45,0h.07l2.55-.3c.74-.09,1.49-.19,2.23-.25l1.61-.13c.29,0,.57,0,.85,0h.23l.41,0L149,48l.47,0c.86.08,1.71.18,2.57.29a21,21,0,0,1,3.92.95,7.61,7.61,0,0,1,1.12.62,5.82,5.82,0,0,1,.45.4,3.62,3.62,0,0,1,.36.42c.12.16.23.33.34.51a3.55,3.55,0,0,1,.28.55,10.68,10.68,0,0,1,.51,2,5,5,0,0,1,0,.77,3,3,0,0,1-.17.58,2.86,2.86,0,0,1-.3.54,4.48,4.48,0,0,1-.64.59,10.56,10.56,0,0,1-1.1.74c-.43.24-.86.47-1.31.68a10.26,10.26,0,0,1-1.32.45,15.18,15.18,0,0,1-1.63.33c-.78.1-1.55.16-2.33.21s-1.6.13-2.4.23-1.64.15-2.47.18-1.57,0-2.35,0c-1.08,0-2.16-.11-3.24-.23-.83-.12-1.66-.25-2.48-.43a18.52,18.52,0,0,1-3.12-.88,4.17,4.17,0,0,1-.46-.26,3,3,0,0,1-.25-.25,3.15,3.15,0,0,1-.28-.51,2.12,2.12,0,0,0-.37-.61A3.3,3.3,0,0,0,131.5,55c-.54-.21-1.09-.38-1.63-.59A13.27,13.27,0,0,1,127.4,53a6.69,6.69,0,0,1-1-.93,3.1,3.1,0,0,1-.29-.5,4.25,4.25,0,0,1-.2-.72,2.16,2.16,0,0,1,0-.36.94.94,0,0,1,0-.16,2.77,2.77,0,0,1,.22-.37,3.57,3.57,0,0,1,.27-.28,6.23,6.23,0,0,1,1.16-.64,21.27,21.27,0,0,1,2.08-.72,15.73,15.73,0,0,1,2.15-.43c.79-.1,1.58-.2,2.38-.25Zm4.44.91-.11,0,.11,0Zm14.11,9.88h0Zm-12.88.43.08,0-.08,0Z"/><path class="cls-1" d="M179.61,54.88a13.3,13.3,0,0,1-.7-1.22c-.06-.11-.11-.22-.16-.33-.12.38-.24.76-.39,1.13a4,4,0,0,1-.26.45c-.14.22-.29.43-.44.63a14.58,14.58,0,0,1-1.92,1.66c-.35.23-.7.45-1.08.65s-.86.41-1.3.59c-.79.32-1.57.62-2.36.92-.5.18-1,.36-1.51.51a13.79,13.79,0,0,1-1.54.37c-.95.18-1.9.31-2.86.42a21.38,21.38,0,0,1-2.53.19,20,20,0,0,1-2.32-.13c-.47-.08-.93-.18-1.4-.25s-.93-.13-1.38-.21a12.74,12.74,0,0,0-1.62-.18c-.47,0-.94,0-1.4,0-1,0-2,.14-3,.2a23.31,23.31,0,0,1-2.77-.09c-.72-.05-1.44-.06-2.16-.09S145.12,60,144.4,60s-1.19-.14-1.8-.19L141,59.64l-1.5-.21-.85-.17-.89-.15c-1.15-.18-2.33-.22-3.49-.34l-1.58-.2a19.92,19.92,0,0,0-2.31-.16c-.77,0-1.53,0-2.29.08l-2.5.2c-.86.06-1.72.17-2.57.3a.61.61,0,0,0-.48.76.64.64,0,0,0,.32.37.87.87,0,0,0,.53.06l1-.16c.55-.05,1.1-.08,1.65-.12s1.29-.1,1.93-.13a24.87,24.87,0,0,1,3.56,0c.67.09,1.33.21,2,.31.83.13,1.65.22,2.48.31.52.07,1.05.14,1.56.24s1.19.28,1.79.39,1.15.23,1.74.3,1.24.13,1.86.2l1.6.22c.5.06,1,.1,1.51.14.93.07,1.86.1,2.79.17.46,0,.91.07,1.37.09s1,0,1.52,0c.94,0,1.88-.14,2.82-.18a14.28,14.28,0,0,1,1.85,0c.89.13,1.78.27,2.65.46a19.22,19.22,0,0,0,3.13.35,21,21,0,0,0,2.86-.14c1-.1,2-.22,3-.39a15.09,15.09,0,0,0,2.76-.7q1.44-.51,2.85-1.08c.46-.18.91-.36,1.37-.56a10.19,10.19,0,0,0,1.27-.66,13.78,13.78,0,0,0,2.42-1.84,7.87,7.87,0,0,0,1-1.11,6.18,6.18,0,0,0,.4-.64A8.9,8.9,0,0,1,179.61,54.88Z"/><path class="cls-1" d="M135.85,60.42h0Z"/><path class="cls-1" d="M165.07,60.66l-.12,0,.12,0Z"/><path class="cls-1" d="M55.71,76.69A12.32,12.32,0,0,0,54,76.35c-.56-.06-1.13-.09-1.7-.11s-1.09,0-1.64-.07S49.56,76.08,49,76c-.78-.12-1.56-.23-2.35-.3s-1.43-.1-2.14-.1c-.39,0-.78,0-1.17,0a9.47,9.47,0,0,0-1.19.17c-.37.06-.73.17-1.09.26s-.7.21-1,.33a24,24,0,0,0-2.22.9c-.72.34-1.44.67-2.16,1-1.34.67-2.64,1.45-4,2.18-.52.29-1.07.56-1.62.8s-1,.37-1.49.54l-1.7.59c-.55.19-1.11.36-1.67.52-.28.08-.56.16-.84.22a5.85,5.85,0,0,1-.73.12c-.62.07-1.24.12-1.86.16a11.08,11.08,0,0,1-1.73,0,16.21,16.21,0,0,1-2.81-.76,12.76,12.76,0,0,0-1.37-.42c-.51-.11-1-.17-1.56-.24a14.63,14.63,0,0,1-1.86-.39A15.33,15.33,0,0,1,10.8,81c-.61-.26-1.23-.52-1.84-.8L8.1,79.8a7.25,7.25,0,0,1-.75-.47A9.45,9.45,0,0,1,6.13,78.1a3.71,3.71,0,0,1-.33-.54,13.88,13.88,0,0,1-.39-1.44c-.1-.41-.19-.82-.29-1.23s-.19-.84-.27-1.27a2.87,2.87,0,0,1,0-.31c-.1.24-.19.49-.21.56-.16.53-.29,1.07-.42,1.61s-.24,1-.36,1.54c0,.06,0,.12,0,.18.05.22.12.43.19.65A3.88,3.88,0,0,0,4.65,79a10.06,10.06,0,0,0,.81.92,7.27,7.27,0,0,0,1.87,1.34c.78.37,1.57.71,2.36,1a18.59,18.59,0,0,0,2.43.9,18.55,18.55,0,0,0,2.54.46c.32,0,.64.09.95.17s.67.2,1,.32c.69.23,1.36.47,2.06.65a8.61,8.61,0,0,0,2.31.34A18.54,18.54,0,0,0,23.21,85c.45-.05.89-.1,1.32-.18s.71-.16,1.06-.26c.69-.21,1.37-.43,2-.69l2-.74a17.46,17.46,0,0,0,2.21-1c1.32-.7,2.58-1.52,3.88-2.26A40.89,40.89,0,0,1,40,77.83l.1,0c.51-.19,1-.37,1.55-.53a12.77,12.77,0,0,1,1.54-.35,13.73,13.73,0,0,1,2-.09c.75,0,1.5.05,2.25.12s1.5.19,2.26.24,1.52.08,2.28.1,1.35,0,2,.12a14.19,14.19,0,0,1,1.44.31.54.54,0,0,0,.65-.37A.53.53,0,0,0,55.71,76.69Z"/><path class="cls-1" d="M43.05,76.92h0Z"/><path class="cls-1" d="M10.66,81l.07,0-.07,0Z"/><path class="cls-1" d="M123.33,59c-.42.12-.84.24-1.25.38s-.79.23-1.18.34l-1.14.31a10.78,10.78,0,0,1-1.11.2,13.94,13.94,0,0,0-2.65.42,11.92,11.92,0,0,0-1.29.51l-1.14.51c-.5.21-1,.4-1.52.56s-1.14.31-1.72.45-1.17.25-1.76.37-1.13.25-1.69.4-1.18.34-1.78.52-1.07.34-1.61.53c-.27.09-.55.18-.82.29s-.66.28-1,.44a12.81,12.81,0,0,0-1.47.86c-.41.27-.81.56-1.2.85-.19.15-.39.28-.59.41a5.41,5.41,0,0,1-.63.33,3.18,3.18,0,0,1-.57.19L96.5,68c-.57.06-1.15.1-1.72.15s-1.21,0-1.81.08-1.25.11-1.88.2a4.75,4.75,0,0,0-1.7.68c-.27.15-.53.31-.81.44s-.54.26-.81.38l-.61.25-1.53.64c-.58.24-1.17.45-1.74.72A14.67,14.67,0,0,0,81,73.51c-.68.55-1.36,1.1-2,1.69s-1.34,1.28-2,1.93a.47.47,0,0,0,0,.66.48.48,0,0,0,.66,0c.6-.59,1.18-1.19,1.81-1.75s1.26-1.07,1.91-1.58h0c.5-.39,1-.79,1.55-1.13.31-.2.62-.38.93-.56s.54-.26.81-.39l1.47-.57c.49-.18,1-.38,1.45-.58s1-.4,1.51-.62c.23-.11.46-.22.68-.34l.69-.37.47-.16a3.78,3.78,0,0,1,.46-.1c.56-.06,1.11-.1,1.67-.12s1.21,0,1.81-.06,1.31-.06,2-.16a5.91,5.91,0,0,0,.84-.15,5.53,5.53,0,0,0,1-.38,8.81,8.81,0,0,0,1-.66c.33-.24.66-.51,1-.74a17.78,17.78,0,0,1,2.2-1.28c1-.41,2.13-.75,3.21-1.09.58-.18,1.17-.34,1.76-.49s1.16-.26,1.74-.38a26.21,26.21,0,0,0,3.16-.83l.73-.29.87-.38,1.42-.65a8.43,8.43,0,0,1,1-.34,7.27,7.27,0,0,1,.91-.17c.52-.06,1-.1,1.54-.19l.78-.15c.24-.05.48-.13.73-.2,1-.28,2-.54,3-.88a.54.54,0,0,0,.37-.65.53.53,0,0,0-.51-.39.32.32,0,0,0-.14,0ZM98,67.65l-.09,0,.09,0ZM87.89,69.91l0,0,0,0Zm-.65.27-.06,0,.06,0Zm-6,4.31-.05,0,.05,0Z"/><path class="cls-1" d="M24.34,125.53l-3.08.76c-1,.23-1.94.51-2.91.72l-3.23.7c-1,.21-1.94.42-2.91.66s-1.8.49-2.71.71l-1.37.33a4.39,4.39,0,0,1,.17.59l2.14-.47c.85-.2,1.71-.39,2.57-.57,1.08-.24,2.17-.44,3.25-.65s2-.37,2.95-.58,1.9-.43,2.85-.64c1.51-.33,3.42-.69,4.93-1-.14-.32,0-.71,0-1.11C26.28,125.12,25,125.37,24.34,125.53Z"/><path class="cls-1" d="M125.1,117.47l-1.64-.08c-.51,0-1,0-1.54,0l-1,0-1.79,0-6.26-.13c-4.27-.08-8.53-.17-12.79-.23-2,0-3.93,0-5.89,0-2.16,0-4.32.09-6.48.19-.91,0-1.83.08-2.74.14l-3.19.24c-1.09.09-2.18.15-3.27.23s-1.92.18-2.88.28-2,.18-3,.29l-3.21.37-.63.07a9.68,9.68,0,0,1,.75,1.65l1.82-.2c1.09-.12,2.18-.21,3.28-.3s2-.19,3-.28,1.93-.14,2.9-.2l3-.19,1.7-.12,1.68-.07c1,0,1.9-.08,2.86-.1s2,0,2.92,0c1.15,0,2.3,0,3.45-.05s2,0,3,0c4.1.06,8.2.18,12.3.29l6.18.15c2.1,0,4.21.08,6.32.2l4,.21a5.42,5.42,0,0,1-1.43-2.18Z"/><path class="cls-1" d="M137.36,118.1c-.92,0-1.84-.11-2.76-.15l-2.19-.11c.05,1.74-2.77.6-3.11,2l.93,0c2.09.13,4.19.23,6.28.36l1.74.09A4.25,4.25,0,0,0,137.36,118.1Z"/><path class="cls-1" d="M183.65,122.28c-1-.1-2.08-.23-3.13-.35s-2-.21-3-.34l-3.14-.37c-1-.11-2-.22-3-.35l-3.1-.38c-1-.11-1.94-.2-2.92-.29s-2-.2-3-.31l-3.45-.34c-1-.09-2-.17-2.95-.27s-2-.21-3-.29-2.23-.17-3.35-.24l-2.4-.16v2.18l1.57.1,2.73.18c1.09.09,2.19.19,3.28.3s2.08.22,3.12.31,1.93.16,2.9.26l3.24.35c1.07.12,2.15.21,3.22.31,2,.2,4.07.51,6.1.73.84.09,1.68.17,2.52.28s1.81.23,2.72.33l5.16.56a5.22,5.22,0,0,1,.19-.94.69.69,0,0,0,.05-.13v0a2.56,2.56,0,0,1,0-.39c0-.21.05-.43.09-.64Z"/><path class="cls-1" d="M155.26,165.87a3.14,3.14,0,0,1,.32-.31h-1c-.93,0-1.85,0-2.78-.06-1.26,0-2.52-.1-3.77-.17l-3.84-.17c-2.69-.11-5.37-.26-8-.42l-1.36-.1-1.36-.13c-.88-.08-1.76-.19-2.63-.29-1.91-.21-3.8-.47-5.7-.74s-3.72-.54-5.58-.81-3.49-.61-5.26-.83-3.68-.43-5.52-.62-3.75-.39-5.63-.56-3.67-.39-5.51-.56L92,159.57c-.86-.08-1.72-.16-2.59-.2l-3.1-.13L80.86,159c-1.8-.07-3.61-.07-5.41-.07-1,0-2,0-2.92.05l-1.75.06-.84,0c-1.94.1-3.88.21-5.82.35-.87.06-1.75.14-2.62.23l-3.08.33c-.82.09-1.64.21-2.46.32l-3,.42-2.64.4c-.91.14-1.82.28-2.73.44l-2.89.55c-.93.18-1.86.39-2.78.6s-1.68.4-2.52.61l-2.52.62c-1,.23-1.89.46-2.82.73l-1.49.43a3.89,3.89,0,0,1,.81.76c.85-.23,1.7-.47,2.56-.68s1.7-.4,2.55-.6c1.73-.41,3.46-.81,5.2-1.17,1-.19,1.95-.4,2.93-.57l2.91-.48c1.79-.27,3.57-.51,5.36-.75l3.07-.4c.81-.11,1.62-.19,2.43-.26,1-.1,2-.2,3-.28l2.76-.19c1.92-.12,3.85-.2,5.78-.27.65,0,1.31,0,2-.05l2.34,0q2.31,0,4.62.09c1.48,0,3,.12,4.42.18l4.43.2c.92.07,1.83.15,2.75.24l2.45.23,3,.3c.83.08,1.65.18,2.48.27,1.88.21,3.76.36,5.63.57s3.77.39,5.65.61c.85.1,1.7.2,2.55.32.45.07.91.12,1.37.2l1.61.28c1.75.29,3.51.56,5.26.83s3.66.56,5.5.8,3.91.49,5.88.69c.85.09,1.72.15,2.58.2l3,.19c1.81.11,3.61.2,5.41.28s3.71.18,5.57.27c1.22.06,2.43.08,3.65.1A4.81,4.81,0,0,1,155.26,165.87Z"/><path class="cls-1" d="M30.36,153a1.33,1.33,0,0,1,.36.73c0,.27.07.54.1.8a1.59,1.59,0,0,1-.05.82.64.64,0,0,1-.43.42.62.62,0,0,1-.57-.22,1.33,1.33,0,0,1-.36-.73c0-.27-.07-.53-.11-.8a1.7,1.7,0,0,1,.06-.82.56.56,0,0,1,1-.2Z"/><path class="cls-1" d="M33.16,142h0a1.16,1.16,0,0,0-.32,0h0c-.12,0-.25.07-.36.12a4.79,4.79,0,0,0-.58.33,7.76,7.76,0,0,0-1.29.92,2.78,2.78,0,0,0-.5.68,4,4,0,0,0-.31.79c-.06.24-.14.48-.2.72a4.69,4.69,0,0,0-.11.54c-.13.06-.26.11-.38.18s-.32.23-.48.34-.32.19-.48.28a5.28,5.28,0,0,0-.62.33,3.37,3.37,0,0,0-.38.28,2.5,2.5,0,0,0-.24.22c-.17.18-.33.38-.48.57s-.17.23-.24.36a3.39,3.39,0,0,0-.44,1.36,2,2,0,0,0,0,.55,1.82,1.82,0,0,0,.27.7,3.6,3.6,0,0,0,.52.71,3.74,3.74,0,0,0,1.47.82,7.81,7.81,0,0,0,.95.25c.27.05.54.06.82.11l.34.07a5,5,0,0,0,1.54.15,3.53,3.53,0,0,0,.91-.15,5.87,5.87,0,0,0,.81-.36,4.4,4.4,0,0,0,.8-.49,1.88,1.88,0,0,0,.31-.32.8.8,0,0,0,.13-.19,1.64,1.64,0,0,0,.14-.3,2.88,2.88,0,0,0,.11-.49,3.37,3.37,0,0,0,0-.84c0-.21-.06-.43-.09-.65s0-.71,0-1.07a7.41,7.41,0,0,1,.07-1.05,2.47,2.47,0,0,1,.11-.36,2.4,2.4,0,0,1,.18-.26,3.85,3.85,0,0,1,.68-.6,8.84,8.84,0,0,1,.86-.46l.44-.23a.53.53,0,0,0,.27-.53.62.62,0,0,0-.31-.38c-.3-.17-.63-.27-.94-.41s-.69-.31-1-.48a.36.36,0,0,0-.46.23.34.34,0,0,0,0,.28.37.37,0,0,0,.21.18l.2.1h0l.74.37.33.15-.29.14a3.88,3.88,0,0,0-.87.58,3.43,3.43,0,0,0-.68.79,2.59,2.59,0,0,0-.33.85,4.06,4.06,0,0,0-.08.69c0,.23,0,.46,0,.69s0,.45,0,.67,0,.44,0,.66a3.35,3.35,0,0,1-.07.71,2.75,2.75,0,0,1-.11.41l-.09.14a2.05,2.05,0,0,1-.23.2,6.22,6.22,0,0,1-.56.32c-.19.09-.37.18-.56.25a3.53,3.53,0,0,1-.63.13,5,5,0,0,1-1-.07c-.27-.06-.54-.14-.82-.18s-.51-.05-.76-.09a6.75,6.75,0,0,1-1.27-.42l-.34-.22a1.93,1.93,0,0,1-.29-.34,3.3,3.3,0,0,1-.26-.45.9.9,0,0,1,0-.16,1.76,1.76,0,0,1,0-.4c0-.13.09-.26.14-.39a1.73,1.73,0,0,1,.2-.32c.06-.09.13-.17.2-.26a5.12,5.12,0,0,1,.58-.56,3.1,3.1,0,0,1,.47-.26l.58-.25a3.06,3.06,0,0,0,.51-.26,4.74,4.74,0,0,1,.5-.26,1,1,0,0,0,.32-.14,1.1,1.1,0,0,0,.51-.65c0-.18.06-.35.09-.53s.13-.48.19-.72a3.91,3.91,0,0,1,.24-.68,2.65,2.65,0,0,1,.26-.39A2.74,2.74,0,0,1,32,144l.66-.46a3.7,3.7,0,0,1,.43-.25l.18,0h0l.13.05.26.17a.57.57,0,0,0,.8-.16.59.59,0,0,0,0-.7,1.72,1.72,0,0,0-.92-.57,1.39,1.39,0,0,0-.35,0Zm-1.24,2h0l-.06,0,.06,0Zm3.81.86h0l.08,0-.08,0Zm-2.09,6.45h0l0,0,0,0Zm-3.15.88ZM34,147.4h0v0Zm0,0h0v-.08s0,.05,0,.08Zm1.18-2.82h0l-.06,0,.06,0Z"/><path class="cls-1" d="M34.16,144.73a.78.78,0,1,1-.92-.61.79.79,0,0,1,.92.61Z"/><path class="cls-1" d="M32.39,153.13a7.63,7.63,0,0,1,.66.73,8,8,0,0,1,.53.84.52.52,0,0,1-.11.61.53.53,0,0,1-.38.13.49.49,0,0,1-.34-.17l-.5-.75a6,6,0,0,0-.63-.7.52.52,0,0,1,.05-.73.57.57,0,0,1,.23-.12.51.51,0,0,1,.49.16Z"/><path class="cls-1" d="M111.64,139.84a.83.83,0,0,0-.53.36c-.38.78-.74,1.56-1.06,2.37s-.54,1.48-.79,2.23c-.51,1.5-1.23,2.91-1.84,4.36a.73.73,0,0,0,.28.83.71.71,0,0,0,.55.1.65.65,0,0,0,.44-.3c.39-.73.76-1.46,1.12-2.21s.69-1.46,1-2.22.52-1.43.81-2.13.56-1.34.87-2l0-.1.1-.2a.85.85,0,0,0,0-.45.87.87,0,0,0-.36-.52.73.73,0,0,0-.42-.14.89.89,0,0,0-.23,0Zm.88,1.29,0,.1,0-.1Z"/><path class="cls-1" d="M128.66,131.85l-1.69.53a10.57,10.57,0,0,0-1.75.72c-.55.28-1.09.6-1.62.91-.26.14-.51.28-.78.4l-.8.34c-1.16.46-2.32.94-3.47,1.44-.55.25-1.11.49-1.66.76l-1.68.8c-.7.33-1.41.63-2.11,1s-1.5.7-2.25,1a.72.72,0,0,0-.32,1,.71.71,0,0,0,.41.35.73.73,0,0,0,.56,0c1.17-.5,2.31-1.06,3.48-1.58s2.24-1.12,3.38-1.65,2.23-1,3.36-1.5c.56-.24,1.11-.48,1.66-.74s1-.61,1.52-.91l1-.56a10.32,10.32,0,0,1,1-.48l1-.45,1.05-.46a.45.45,0,0,0,.23-.49.46.46,0,0,0-.4-.36.29.29,0,0,0-.13,0Z"/><path class="cls-1" d="M118.71,144.71a4.49,4.49,0,0,0-.82.11,5,5,0,0,0-.74.26c-.43.17-.84.39-1.26.6a21.57,21.57,0,0,1-2.45,1l-1.53.54c-.59.2-1.18.4-1.75.63s-1,.41-1.49.66l-1.67.82a.94.94,0,1,0,.85,1.68l2-1a18.51,18.51,0,0,1,1.79-.71c1.3-.46,2.62-.88,3.89-1.42s2.27-1.21,3.47-1.69a.79.79,0,0,0,.41-.86.81.81,0,0,0-.66-.62Z"/><path class="cls-1" d="M128.57,132.1c-.47.52-.93,1-1.38,1.58s-.8.91-1.18,1.38l-.63.76c-.2.25-.38.51-.57.77-.36.5-.71,1-1,1.5-.7,1-1.35,2.08-2.11,3.07s-1.5,1.92-2.25,2.88l-.48.58-.49.63a.53.53,0,0,0,.16.75.57.57,0,0,0,.77-.15c.18-.23.35-.47.54-.7l.55-.68,1.13-1.39c.4-.49.79-1,1.18-1.49s.73-1,1.08-1.55c.55-.83,1.11-1.66,1.71-2.46.3-.4.6-.8.92-1.18s.67-.79,1-1.17l-.11.11c.58-.63,1.13-1.29,1.7-1.94l.34-.38a.61.61,0,0,0,.21-.42.6.6,0,0,0-.16-.44A.61.61,0,0,0,129,132a.63.63,0,0,0-.46.15Zm.5,1.31-.11.11.11-.11Z"/><path class="cls-1" d="M76.51,124.72a.84.84,0,0,0-.53.34.8.8,0,0,0,.23,1.13c.62.36,1.25.7,1.9,1s1.16.53,1.75.78,1.29.5,1.94.74l.91.34c.34.13.67.28,1,.43.6.27,1.2.53,1.82.76l2,.74c.65.26,1.31.52,1.94.82l2,.91c1.28.58,2.57,1.12,3.86,1.66l1.89.8c.63.27,1.29.51,1.93.76,1.27.51,2.57,1,3.83,1.52.64.28,1.27.57,1.91.84l1.87.77q.87.36,1.71.75c.72.34,1.42.72,2.13,1.1a.45.45,0,0,0,.61-.12.43.43,0,0,0-.13-.59,18.69,18.69,0,0,0-2.93-1.65c-1-.48-2.1-.95-3.15-1.41-.61-.3-1.21-.61-1.82-.89s-1.3-.58-1.95-.84-1.33-.56-2-.84-1.22-.5-1.81-.78c-1.69-.78-3.4-1.53-5.09-2.31l-1.72-.85c-.65-.33-1.3-.66-2-.93s-1.36-.54-2-.8l-1-.39-1-.43c-.48-.21-1-.43-1.43-.61l-1.58-.58c-1-.35-1.87-.77-2.79-1.21-.53-.26-1-.55-1.56-.85a1,1,0,0,0-.43-.14l-.21,0Zm2.27,1,0,0,0,0Z"/><path class="cls-1" d="M82.83,142.13a.86.86,0,0,0-.29.61.84.84,0,0,0,.22.64,1,1,0,0,0,.61.3l1.75.31,2.39.59c.79.2,1.57.45,2.36.68l4.84,1.42c.77.22,1.53.47,2.3.69l2.3.68c.77.23,1.56.43,2.32.68s1.49.49,2.23.74l1.26.42a7.17,7.17,0,0,0,1.37.32.66.66,0,0,0,.25-1.28c-.35-.11-.71-.18-1.06-.29s-.74-.28-1.1-.42l-2.21-.86c-.74-.28-1.49-.52-2.24-.78s-1.53-.49-2.3-.72l-2.3-.74c-.8-.26-1.6-.49-2.4-.72s-1.54-.47-2.32-.69-1.63-.5-2.46-.73-1.51-.38-2.26-.57-1.74-.36-2.61-.51h-.06a.83.83,0,0,0-.59.23Z"/><path class="cls-1" d="M76.25,125.4a.92.92,0,0,0-.4,1.23c.73,1.62,1.49,3.23,2.18,4.87.16.39.32.77.49,1.14s.41.85.63,1.27c.41.78.87,1.54,1.25,2.34.23.49.46,1,.67,1.5s.38.95.58,1.42.41,1,.62,1.47.38.85.54,1.29c.07.2.14.39.22.59s.19.38.28.57a.74.74,0,0,0,1.39-.49,6.41,6.41,0,0,0-.38-1.09c-.26-.76-.58-1.51-.87-2.26s-.62-1.66-1-2.48a22.11,22.11,0,0,0-1.07-2.32c-.44-.81-.88-1.63-1.26-2.47-.23-.51-.44-1-.65-1.55s-.42-1-.64-1.52c-.45-1-.94-2.07-1.41-3.11a.87.87,0,0,0-.76-.49.9.9,0,0,0-.46.09Z"/><path class="cls-1" d="M126.88,132l-2.14,0h-2.25c-.76,0-1.52,0-2.28,0h-1.52l-1.59,0h-1.56l-1.64,0a.73.73,0,0,0-.09,1.45l2.25,0c.35,0,.7,0,1,0l1.08,0c.76,0,1.53,0,2.3,0s1.42,0,2.13,0c1.06,0,2.12,0,3.18-.07.53,0,1.06,0,1.59,0s1.06,0,1.6,0a.72.72,0,0,0,.47-.16.65.65,0,0,0-.4-1.14l-.49,0c-.56,0-1.13,0-1.69,0Z"/><path class="cls-1" d="M105.94,123.57c-.06.63-.11,1.26-.15,1.9s-.09,1.28-.1,1.92c0,1.27,0,2.54-.1,3.81l-.06,1.44q0,.74-.12,1.47c0,.47-.1.94-.16,1.41s-.13,1-.17,1.58a.56.56,0,0,0,.52.59.53.53,0,0,0,.4-.14.56.56,0,0,0,.19-.38c.2-1.32.38-2.63.51-3.95.06-.65.08-1.3.11-1.95s.06-1.24.08-1.86c0-.95,0-1.9.09-2.85s.13-2,.22-2.92a.63.63,0,1,0-1.26-.07Z"/><path class="cls-1" d="M105.92,124.46a.6.6,0,0,0,1.19.07.61.61,0,0,0-.56-.63.6.6,0,0,0-.63.56Z"/><path class="cls-1" d="M105.28,123.12c-.32.36-.67.71-1,1.1s-.49.71-.73,1.07a18.8,18.8,0,0,1-1.37,1.85c-.89,1-1.88,1.87-2.82,2.81a23.44,23.44,0,0,0-2.63,3l-.29.45a.59.59,0,0,0,.16.8.58.58,0,0,0,.81-.16c.18-.27.35-.54.54-.8s.35-.46.54-.68a33.51,33.51,0,0,1,2.81-2.78c.5-.45,1-.91,1.48-1.38a15.2,15.2,0,0,0,1.34-1.55c.54-.69,1-1.46,1.52-2.13.17-.2.34-.38.51-.57a.73.73,0,0,0,.23-.48.63.63,0,0,0-.17-.49.66.66,0,0,0-.47-.23.65.65,0,0,0-.5.17Zm-6.69,9.37,0,.06,0-.06Z"/><path class="cls-1" d="M105.62,122.65a1.23,1.23,0,0,0-.1,1.74c.34.44.69.86,1,1.29s.62.83.92,1.25c.6.83,1.19,1.67,1.81,2.49s1.31,1.62,2,2.41,1.33,1.56,2,2.34c.45.54.91,1.08,1.37,1.61s.85,1.05,1.25,1.59a.73.73,0,0,0,.87.17.74.74,0,0,0,.36-.42.77.77,0,0,0,0-.56,6.55,6.55,0,0,0-.46-1.05c-.23-.38-.49-.74-.76-1.1-.51-.69-1-1.38-1.57-2.07-1-1.34-2-2.66-3-4-.57-.87-1.13-1.74-1.71-2.59-.36-.53-.71-1.08-1.1-1.58s-.73-.93-1.09-1.39a1.13,1.13,0,0,0-.83-.41,1.28,1.28,0,0,0-.92.3Z"/><path class="cls-1" d="M99.39,130.22q-.54,0-1.08.06l-1,.11c-.57.07-1.15.14-1.72.23l-1.88.28-.88.1c-.32,0-.64.08-1,.13a.6.6,0,0,0-.5.72.62.62,0,0,0,.28.38.73.73,0,0,0,.5.09c.3,0,.6-.06.9-.09l.87-.08c.58-.07,1.16-.16,1.74-.24s1.11-.14,1.66-.21,1-.14,1.57-.18l.38,0a.75.75,0,0,0,.5-.16.6.6,0,0,0,.23-.44.64.64,0,0,0-.17-.47.79.79,0,0,0-.45-.21Z"/><path class="cls-1" d="M137.51,105.85a.43.43,0,0,0-.33.05.36.36,0,0,0-.13.19s0,0,0,0-.22.23-.34.35l-.37.34c-.15.13-.29.27-.42.4a4.59,4.59,0,0,1-.41.36,3.52,3.52,0,0,1-.56.39l-.31.08a10,10,0,0,0-1.64.22,3.07,3.07,0,0,0-.42.17.7.7,0,0,0-.35.39.88.88,0,0,0-.05.39c0,.27.11.52.15.79a1.13,1.13,0,0,1,0,.26l0,.14a1.71,1.71,0,0,1-.13.23,9,9,0,0,1-.94.91c-.17.16-.33.32-.48.49a5.1,5.1,0,0,1-.47.46l0,0,0,0h0l-.33.24-.38.23-.39.22-.38.26a7.51,7.51,0,0,0-.72.54,7.8,7.8,0,0,0-.58.57,7.46,7.46,0,0,0-.56.7,5.31,5.31,0,0,0-.48.75,4,4,0,0,0-.29,1,2.53,2.53,0,0,0,0,1.06,2,2,0,0,0,.55.92,3.8,3.8,0,0,0,.37.33,1.46,1.46,0,0,0,.33.22l.22.1a2.24,2.24,0,0,0,.5.16l.46.07a2.15,2.15,0,0,0,.51,0,4,4,0,0,0,.5-.09l.44-.12.42-.14.48-.2a2.64,2.64,0,0,0,.38-.18,7.2,7.2,0,0,0,.74-.48l.75-.48a2.71,2.71,0,0,1,.37-.21l.53-.2a4,4,0,0,1,.58-.12,5.11,5.11,0,0,0,.86-.2l.4-.15.44-.18a4.23,4.23,0,0,0,.41-.23,2.36,2.36,0,0,1,.38-.22,3,3,0,0,0,.74-.55,1.37,1.37,0,0,0,.24-.29c.06-.09.13-.18.18-.27a6.47,6.47,0,0,0,.36-.69.28.28,0,0,0,0-.2.25.25,0,0,0-.12-.16.28.28,0,0,0-.2,0,.29.29,0,0,0-.19.18l-.07.21c-.07.16-.14.31-.22.46s-.16.28-.25.42a2,2,0,0,1-.26.24,1.73,1.73,0,0,1-.28.19c-.1.06-.2.1-.3.15a2.61,2.61,0,0,0-.28.17l-.29.16-.73.27a3.27,3.27,0,0,1-.74.21l-.48.07a2.46,2.46,0,0,0-.45.11l-.42.17a4,4,0,0,0-.46.24l-.77.45-.35.23c-.13.08-.26.16-.4.23l-.25.12.07,0-.38.15-.41.12a6.91,6.91,0,0,1-.76.17H129a3.26,3.26,0,0,1-.45-.09,2.61,2.61,0,0,1-.27-.06L128,119a3,3,0,0,1-.36-.19,3.75,3.75,0,0,1-.44-.45A2.5,2.5,0,0,1,127,118l-.06-.2a2.81,2.81,0,0,1,0-.41c0-.14,0-.28.08-.41a3.94,3.94,0,0,1,.14-.49,1.59,1.59,0,0,1,.15-.29l.24-.39c.13-.21.28-.42.43-.62s.3-.37.46-.54a6.64,6.64,0,0,1,.55-.51l.32-.23.37-.25c.26-.17.52-.34.76-.52a3.12,3.12,0,0,0,.4-.32l.3-.34a7.47,7.47,0,0,1,.62-.64,6,6,0,0,0,.94-1,1.28,1.28,0,0,0,.22-.61,2.27,2.27,0,0,0,0-.45c0-.2-.1-.4-.13-.6a.91.91,0,0,1,0-.17.43.43,0,0,0,0,0h0l0,0,.17-.09a3.25,3.25,0,0,1,.61-.17l.9-.1a2.49,2.49,0,0,0,.46-.09,1.67,1.67,0,0,0,.54-.3,5.17,5.17,0,0,0,.65-.59l.6-.66a4.69,4.69,0,0,0,.42-.47h0l.06-.08,0,0,.05,0,0,0h0l.39.28.28.25.34.3a7.47,7.47,0,0,0,.79.6.37.37,0,0,0,.29,0,.38.38,0,0,0,.23-.18.37.37,0,0,0,0-.29.38.38,0,0,0-.17-.22l-.32-.22c-.27-.21-.52-.44-.77-.66a2,2,0,0,0-.49-.32l-.25-.09Zm-.29.53,0,0,0,0ZM134.68,108h0Zm2.53,7.74h0Zm-7-3.27h0Zm6.87-6,0,0,0,0Z"/><path class="cls-1" d="M135.7,117.05a.33.33,0,1,0-.16.63,2.16,2.16,0,0,1,.44.1,2.69,2.69,0,0,1,.29.16,4.86,4.86,0,0,1,.68.68,6.49,6.49,0,0,1,.36.55c.1.18.18.37.27.56l0,0a5.28,5.28,0,0,1,.35,1.31,6.83,6.83,0,0,1,.06.78,5.09,5.09,0,0,1,0,.78,6.09,6.09,0,0,1-.32,1.39,3.66,3.66,0,0,1-.28.56c-.12.19-.25.38-.37.58a9.31,9.31,0,0,0-.71,1.32,9.43,9.43,0,0,0-.5,1.47,8.08,8.08,0,0,0-.25,1.55c0,.46,0,.93,0,1.4a6.65,6.65,0,0,0,.15,1.54,3.5,3.5,0,0,0,.3.84,2.62,2.62,0,0,0,.35.61,6.87,6.87,0,0,0,.55.66c.14.15.29.3.43.46a2.92,2.92,0,0,1,.24.37c.07.13.13.26.19.4a7.55,7.55,0,0,1,.49,1.55c0,.27.06.54.07.81a7.87,7.87,0,0,1,0,.84c-.05.36-.11.72-.16,1.08s-.07.78-.11,1.17c-.09.65-.22,1.29-.36,1.93a15.59,15.59,0,0,1-.55,2c-.17.42-.39.83-.58,1.25l-.29.69c-.1.24-.21.48-.32.71-.2.44-.42.86-.62,1.3l-.64,1.32c-.13.28-.25.56-.4.83a5,5,0,0,1-.41.61c-.11.14-.24.25-.33.39a1,1,0,0,0-.11.23.62.62,0,0,0,0,.19.57.57,0,0,0,.08.28,1.19,1.19,0,0,0,.46.43,2.87,2.87,0,0,0,.39.2,4.7,4.7,0,0,0,.63.22.62.62,0,0,0,.74-.44.59.59,0,0,0-.07-.45.64.64,0,0,0-.37-.28l-.22-.08-.46-.19c.06-.13.13-.25.19-.37s.22-.45.33-.68.19-.45.3-.68l.31-.67c.1-.22.19-.44.29-.65s.21-.43.32-.64c.22-.45.44-.9.64-1.36s.41-.9.63-1.34c.1-.2.21-.4.29-.61a7.15,7.15,0,0,0,.29-.77c.15-.5.28-1,.41-1.52s.25-.95.35-1.42c0-.25.09-.51.12-.76s.07-.48.12-.72.11-.49.15-.74.09-.6.12-.9a7.49,7.49,0,0,0,0-1.42,6,6,0,0,0-.36-1.55c-.09-.25-.19-.49-.3-.73a4,4,0,0,0-.35-.56,5.8,5.8,0,0,0-.52-.58,5.36,5.36,0,0,1-.4-.43,3.88,3.88,0,0,1-.23-.33q-.1-.18-.21-.39a3.26,3.26,0,0,1-.15-.44c0-.15-.07-.31-.1-.46-.06-.49-.08-1-.1-1.46,0-.26,0-.52,0-.78s0-.45,0-.68a9.28,9.28,0,0,1,.52-2,9.75,9.75,0,0,1,.63-1.25c.11-.19.23-.38.33-.58a3.9,3.9,0,0,0,.31-.73,5.93,5.93,0,0,0,.16-.73c0-.26.08-.52.1-.77s0-.52,0-.78,0-.51-.08-.76a10,10,0,0,0-.23-1.09,5.7,5.7,0,0,0-.3-.78c-.07-.16-.16-.3-.24-.45a4.43,4.43,0,0,0-.68-.87,3.81,3.81,0,0,0-.61-.52,1.53,1.53,0,0,0-.51-.21l-.32-.07Zm1.42,9.63,0,0,0,0Zm-2.31,25.75.12,0-.12,0Z"/><path class="cls-1" d="M144.92,130.16a.33.33,0,0,0-.32.32,10.08,10.08,0,0,0,0,1.45c0,.44.06.89.07,1.33,0,.22,0,.44,0,.67s0,.45,0,.68a10.57,10.57,0,0,0,.13,1.38c0,.24.06.49.09.73l-.06.06-.17.22c-.17.21-.35.41-.5.63s-.27.41-.42.6a6.65,6.65,0,0,0-.36.56c-.23.38-.49.73-.69,1.12s-.47.88-.68,1.32c-.45.91-.91,1.8-1.35,2.71-.21.44-.42.88-.61,1.33s-.45,1-.63,1.52l-.22.57c-.07.21-.15.41-.23.62s-.19.47-.27.71-.14.5-.2.75-.11.44-.17.67a1.68,1.68,0,0,0-.06.45v.1c0,.14-.06.28-.09.42s0,.16,0,.24h0a1.89,1.89,0,0,0-.25.31l0,.05c-.13.17-.28.33-.41.5s-.26.33-.4.48a5.89,5.89,0,0,1-.42.45c-.05,0-.12.1-.17.16l-.14-.07c-.13-.07-.28-.12-.42-.18a.57.57,0,0,0-.46.07.62.62,0,0,0-.29.38.64.64,0,0,0,.07.47.67.67,0,0,0,.38.28l.08,0,.39.16a1.37,1.37,0,0,0,.29.07l.24,0a.69.69,0,0,0,.49-.19,1.12,1.12,0,0,0,.17-.21l.12-.13a1.64,1.64,0,0,0,.21-.24l.44-.49c.14-.16.28-.33.44-.49l.24-.25c.08-.1.15-.2.23-.29l.13-.11a.8.8,0,0,0,.23-.41l.09-.28a3.39,3.39,0,0,0,.11-.43,2,2,0,0,0,0-.43c0-.15.08-.3.12-.44l.12-.43c.09-.32.19-.63.3-.94s.16-.34.23-.52l.3-.74-.07.17c.08-.21.16-.42.25-.63.37-.92.76-1.83,1.16-2.74.2-.45.42-.9.63-1.35l.65-1.38c.21-.44.41-.88.64-1.3.1-.2.22-.39.33-.58a6.22,6.22,0,0,0,.32-.56l.36-.59c.12-.2.24-.41.38-.61l.36-.52.09-.15a1.19,1.19,0,0,0,.08-.2.92.92,0,0,0,0-.33c0-.11-.06-.21-.08-.32l-.09-.53c0-.18-.09-.37-.12-.56a9.81,9.81,0,0,1-.08-1.09c0-.41,0-.82-.05-1.24s-.07-.79-.11-1.19a7.28,7.28,0,0,1,0-1.32.3.3,0,0,0-.24-.3Zm-.17,5.75v0Zm.92.54v0Z"/><path class="cls-1" d="M135.33,149.52a.59.59,0,0,0-.35.39.58.58,0,0,0,.12.51l.53.55a4.1,4.1,0,0,0,.64.51,4.3,4.3,0,0,0,.59.34c.25.12.51.22.77.32a1.1,1.1,0,0,0,.64.1.74.74,0,0,0,.47-.29.54.54,0,0,0,0-.51.86.86,0,0,0-.42-.42l-.76-.32a2.64,2.64,0,0,1-.37-.2,3.81,3.81,0,0,1-.49-.39l-.28-.3a1,1,0,0,0-.52-.33,1,1,0,0,0-.62,0Z"/><path class="cls-1" d="M160.35,127.54c.25,0,.49,0,.74,0s.51,0,.77,0a11.82,11.82,0,0,0,1.19,0l.56-.07a4.14,4.14,0,0,1,.61,0c.4,0,.81.07,1.21.08l.58,0,.48,0,1.18.16h0a5.48,5.48,0,0,1,1.27.24c.33.14.65.31,1,.46a6.69,6.69,0,0,1,1,.55c.23.19.42.42.63.63s.46.42.66.66.41.49.62.72.4.43.59.65a4.15,4.15,0,0,1,.47.82,2.6,2.6,0,0,1,.1.4V133c0,.1,0,.21,0,.31a1.4,1.4,0,0,0,.09.29c.06.19.09.39.14.58a5.69,5.69,0,0,1,.18.68c0,.19.07.38.11.58a11.66,11.66,0,0,1,.16,1.68c0,.29,0,.58,0,.88a5.7,5.7,0,0,1,0,.82c0,.33-.09.66-.13,1s0,.76-.08,1.15c0,.1,0,.21-.05.31s-.08.26-.12.39-.17.51-.25.77c-.16.5-.33,1-.44,1.52s-.21,1-.29,1.53a9,9,0,0,0-.08.91l0,.46a18.72,18.72,0,0,1,1.74-3.1c.05-.07.11-.12.16-.18.06-.27.11-.54.18-.81s.15-.51.23-.76.07-.24.1-.35a5.35,5.35,0,0,0,.07-.56c0-.25,0-.5,0-.76a7.49,7.49,0,0,1,0-.82c0-.26.06-.51.08-.76a4.81,4.81,0,0,0,0-.76c0-.55-.08-1.09-.16-1.63s-.16-1-.27-1.5a6.77,6.77,0,0,0-.2-.74c0-.11-.07-.23-.11-.35s-.05-.22-.09-.33a2.64,2.64,0,0,1-.17-.47V133a5.06,5.06,0,0,0-.18-.77,3.59,3.59,0,0,0-.24-.53,2.55,2.55,0,0,0-.24-.39,5.86,5.86,0,0,0-.62-.7,6.4,6.4,0,0,1-.66-.72,6.06,6.06,0,0,0-.47-.54c-.17-.17-.36-.34-.52-.52a5.38,5.38,0,0,0-.52-.55,4.6,4.6,0,0,0-.69-.46l-.69-.37-.68-.38a5,5,0,0,0-1.56-.45l-.79-.13a8.08,8.08,0,0,0-.86-.11c-.24,0-.48,0-.73,0l-.76,0a7,7,0,0,0-.79-.06c-.24,0-.49,0-.73.07a12.52,12.52,0,0,1-1.5,0c-.41,0-.82,0-1.23,0a5.63,5.63,0,0,1-.58,0l-.56,0a12.1,12.1,0,0,1-2.29-.54c-.38-.13-.75-.28-1.13-.43s-.77-.26-1.14-.41a5.06,5.06,0,0,1-.67-.3c-.25-.15-.49-.29-.74-.42l-.78-.41a6.2,6.2,0,0,1-.69-.44c-.34-.27-.65-.58-1-.88s-.68-.61-1-.9a8.12,8.12,0,0,1-1-1c-.29-.34-.56-.69-.84-1l-.37-.48-.57-.75a5.1,5.1,0,0,1-.52-.91c-.08-.19-.15-.38-.24-.56l-.27-.53c-.18-.35-.34-.7-.5-1s-.32-.6-.47-.9-.37-.7-.52-1.06l-.14-.32-.12-.31q-.1-.27-.24-.54a9.17,9.17,0,0,0-.46-.88,9,9,0,0,0-.62-.86l-.66-.83a.29.29,0,0,0-.16-.09.38.38,0,0,0-.37.63l.29.36,0,0,.05.07h0l.05.06a6.18,6.18,0,0,1,.36.53,5.52,5.52,0,0,1,.4.66c.1.2.19.41.29.61s.21.41.3.61c.19.46.43.9.64,1.35.11.24.22.47.34.7s.21.39.3.59.25.57.38.84.28.56.42.85.26.57.4.85.15.28.23.41.18.26.27.38l.65.85.93,1.23q.27.35.57.66l.62.56c.4.34.78.68,1.15,1l.58.55a6.92,6.92,0,0,0,.69.52,10.49,10.49,0,0,0,1,.55c.32.16.62.34.93.52a8.08,8.08,0,0,0,1,.47c.36.15.72.27,1.08.41s1,.42,1.54.58a7.88,7.88,0,0,0,.83.24l.77.16q.43.07.87.12A4.81,4.81,0,0,0,160.35,127.54Z"/><path class="cls-1" d="M144.43,113.46l0,0,0,0Z"/><path class="cls-1" d="M144.63,115.67l0,0,0,0Z"/><path class="cls-1" d="M154.64,125.05l.11,0-.11,0Z"/><path class="cls-1" d="M174.55,135.47v0Z"/><path class="cls-1" d="M142,110.62h0v0Z"/><path class="cls-1" d="M159.92,159.45a.67.67,0,0,0,.48.06l.15-.07a.66.66,0,0,0,.22-.22l.15-.24.18-.25.36-.51c.22-.33.44-.65.68-1a1.13,1.13,0,0,1-.1.13,13.84,13.84,0,0,0,.81-1.19c.22-.36.43-.73.64-1.1a10.2,10.2,0,0,0,.66-1.16,9.63,9.63,0,0,0,.47-1.37c.24-.87.44-1.75.63-2.62.1-.44.19-.87.26-1.31,0-.27.07-.54.09-.82s0-.47,0-.7a21.3,21.3,0,0,0,0-2.65,12.93,12.93,0,0,0-.2-1.41,7.71,7.71,0,0,0-.45-1.33c-.15-.35-.34-.68-.5-1s-.32-.64-.46-1a2.85,2.85,0,0,1-.18-.54,4.17,4.17,0,0,1,0-.5c0-.23.1-.45.16-.68s.14-.49.23-.73a4,4,0,0,1,.42-.72,3.69,3.69,0,0,1,.38-.41,6.51,6.51,0,0,1,1-.56.24.24,0,0,0,.08-.33.21.21,0,0,0-.14-.1.25.25,0,0,0-.19,0,5.21,5.21,0,0,0-1.18.71,3.72,3.72,0,0,0-.46.51,4.21,4.21,0,0,0-.39.55,5.44,5.44,0,0,0-.28.66c-.09.22-.16.45-.24.67a3,3,0,0,0-.11.73,2.42,2.42,0,0,0,.13.84c.26.72.61,1.4.92,2.1a7.06,7.06,0,0,1,.29.81c.08.3.15.59.2.89s.07.62.09.93,0,.67,0,1c0,.67-.09,1.34-.16,2a11.56,11.56,0,0,1-.25,1.28c-.11.43-.23.87-.35,1.3-.23.84-.43,1.69-.69,2.51a4.72,4.72,0,0,1-.18.53,5.9,5.9,0,0,1-.45.82l-.5.86c-.16.26-.31.54-.47.8a7.39,7.39,0,0,1-.53.8c-.26.35-.52.69-.76,1l-.36.52-.18.26a1.78,1.78,0,0,0-.21.44.58.58,0,0,0,0,.32A.67.67,0,0,0,159.92,159.45Z"/><path class="cls-1" d="M164.41,157.47l.11-.12a3.12,3.12,0,0,1,1.16-.84c.07-.11.12-.22.19-.34a9,9,0,0,1,.5-.85c.13-.15.27-.29.4-.43l.49-.46c.31-.28.61-.58.9-.88s.29-.31.43-.46.29-.29.44-.43a2.24,2.24,0,0,0,.43-.58,3.78,3.78,0,0,0,.23-.67,3.94,3.94,0,0,0,0-1.93c-.07-.3-.16-.6-.25-.89a6.8,6.8,0,0,1-.26-.8,2.91,2.91,0,0,1,0-.42l.06-.25a3,3,0,0,1,.34-.53,2.78,2.78,0,0,1,.41-.43,6.2,6.2,0,0,0,.44-.45,6.12,6.12,0,0,0,.81-1.15c.21-.36.4-.74.58-1.12a11.82,11.82,0,0,0,.48-1.34c.11-.35.21-.71.32-1.07s.18-.71.26-1.06c.17-.74.35-1.47.47-2.21a.25.25,0,0,0-.18-.31.26.26,0,0,0-.31.18,20.2,20.2,0,0,1-.54,2.3,22.65,22.65,0,0,1-.73,2.15,9,9,0,0,1-.64,1.28c-.24.39-.48.78-.75,1.14a5.7,5.7,0,0,1-.88.89c-.17.14-.33.28-.49.44a2.11,2.11,0,0,0-.19.23c-.09.12-.19.24-.27.37a2.16,2.16,0,0,0-.29.74,2.89,2.89,0,0,0,0,.88,3.42,3.42,0,0,0,.18.54c.09.22.17.44.25.66a7.76,7.76,0,0,1,.25.82,3.87,3.87,0,0,1,0,.48,2.69,2.69,0,0,1,0,.49,2.33,2.33,0,0,1-.13.52,1.36,1.36,0,0,1-.13.24,5.66,5.66,0,0,1-.42.43l-.43.41-.44.45c-.15.15-.31.28-.46.42l-.5.44-.5.48a5.19,5.19,0,0,0-.79,1.07c-.32.52-.64,1-.93,1.57-.14.26-.27.52-.4.79l-.19.39s0,0,0,0C163.77,158,164.09,157.74,164.41,157.47Z"/><path class="cls-1" d="M168.71,151.48v0Z"/><path class="cls-1" d="M172.89,147.56c.1-.24.21-.47.32-.71s0-.28,0-.42.07-.56.12-.84.12-.61.17-.91.1-.64.14-1c0-.15,0-.29,0-.44s0-.31,0-.46a.07.07,0,0,1,0,.05c0-.2.05-.41.07-.62s.05-.4.05-.6,0-.42,0-.63l0-.57a5.62,5.62,0,0,0,0-.58l-.06-.51a4.11,4.11,0,0,0-.25-1.09c-.07-.19-.15-.39-.22-.59a.2.2,0,0,0-.14-.13.17.17,0,0,0-.1,0,.2.2,0,0,0-.13.24l.15.4c0,.11.09.22.13.34a3.93,3.93,0,0,1,.15.68c0,.2.06.39.08.59s0,.21,0,.31,0,.23,0,.34,0,.44,0,.66,0,.48,0,.72-.1.78-.16,1.16-.13.8-.22,1.2-.2.77-.31,1.15-.2.79-.28,1.18c-.05.23-.1.45-.13.67s-.06.47-.09.7,0,.27,0,.41A7.6,7.6,0,0,0,172.89,147.56Z"/><path class="cls-1" d="M160,143a7.19,7.19,0,0,0,.9-.39,8.15,8.15,0,0,0,.8-.49l.74-.53.9-.68a.31.31,0,0,0,.12-.16.24.24,0,0,0,0-.2.28.28,0,0,0-.17-.13.27.27,0,0,0-.19,0l-.72.51c-.22.16-.45.33-.68.48s-.47.31-.71.45-.47.24-.7.35l-.23.09-.39.13-.72.2c-.46.11-.92.21-1.38.29l-.36,0-.47,0-.78,0h-.91c-.28,0-.55,0-.83,0l-.36,0-.46-.08-.46-.11-.21-.06-.2-.06c-.29-.09-.58-.19-.86-.3l-.92-.34-1.15-.41-.67-.28-.3-.16-.34-.19a6.82,6.82,0,0,1-.64-.39l-.65-.46-1.11-.9c-.4-.33-.8-.65-1.23-1a.27.27,0,0,0-.2,0,.26.26,0,0,0-.15.12.27.27,0,0,0,0,.2.31.31,0,0,0,.12.16l.26.19c.23.18.46.38.68.57l.69.59c.23.2.47.4.71.58a8.19,8.19,0,0,0,.77.54c.27.17.55.34.83.49a6,6,0,0,0,.82.37c.58.24,1.19.44,1.78.65l.83.31c.31.11.62.2.93.29a9.13,9.13,0,0,0,1.87.31,8,8,0,0,0,.85,0c.31,0,.63,0,.94,0s.61,0,.92-.06a4.13,4.13,0,0,0,.49-.07l.5-.09.85-.19.47-.12Z"/><path class="cls-1" d="M160.37,142.17h0Z"/><path class="cls-1" d="M147,140.08h0Z"/><path class="cls-1" d="M147,140.1l0,0,0,0Z"/><path class="cls-1" d="M143.57,109.37a.38.38,0,0,0-.18.23.37.37,0,0,0,.05.29l.57.77c.2.28.38.57.6.84l.32.36c.1.11.21.21.32.32a6.06,6.06,0,0,1,.6.64c.09.13.17.26.25.39a3.36,3.36,0,0,1,.22.42,6.7,6.7,0,0,1,.32,1.08c.05.21.09.42.14.63a5.43,5.43,0,0,1,.13.58c0,.28.07.57.12.85s0,.4.07.6l.09.71c.07.44.12.89.18,1.33a.48.48,0,0,0,.13.29.42.42,0,0,0,.3.12.43.43,0,0,0,.41-.43,8.19,8.19,0,0,0-.12-1c-.05-.28-.11-.56-.16-.84s-.09-.56-.14-.83-.12-.52-.17-.79a3.21,3.21,0,0,0-.11-.52l-.15-.54c-.1-.33-.19-.66-.28-1a5.1,5.1,0,0,0-.46-1.11c-.09-.15-.19-.31-.29-.45s-.28-.34-.42-.51-.26-.27-.38-.41l-.35-.4c-.18-.25-.34-.5-.51-.75s-.38-.51-.58-.77a.38.38,0,0,0-.23-.18.37.37,0,0,0-.29.05Zm4.05,6.59s0,.05,0,.08l0-.08Z"/><path class="cls-1" d="M147.68,119.76a.37.37,0,0,0-.21.09.31.31,0,0,0-.09.22c0,.23.07.46.08.69s0,.46,0,.69v0c0,.13,0,.26-.05.39l-.09.5c-.07.35-.13.7-.2,1.05-.13.64-.29,1.27-.43,1.91,0,.09,0,.18-.07.27a.31.31,0,0,0,.23.38.32.32,0,0,0,.38-.22c.16-.69.33-1.38.47-2.08.06-.3.11-.61.17-.91s.13-.69.17-1c0-.15,0-.3,0-.45a2.29,2.29,0,0,0,0-.37,7.43,7.43,0,0,0-.09-.81.33.33,0,0,0-.09-.21.35.35,0,0,0-.13-.08Zm-.23,1.61v0Z"/><path class="cls-1" d="M146.92,118.66a.8.8,0,0,0-.49.39.84.84,0,0,0-.08.64c.05.24.1.48.14.73a8.25,8.25,0,0,1,0,1.79c-.06.42-.11.85-.18,1.27s-.16,1.08-.19,1.63a.71.71,0,0,0,.53.67.73.73,0,0,0,.87-.51c.21-.93.4-1.86.56-2.8a9.39,9.39,0,0,0,.13-1.59,7.64,7.64,0,0,0-.24-1.65.76.76,0,0,0-.59-.57.82.82,0,0,0-.44,0Z"/><path class="cls-1" d="M130.53,113.41a2.7,2.7,0,0,0-1,0,.64.64,0,0,0-.4.2.65.65,0,0,0-.18.46.66.66,0,0,0,.16.44.49.49,0,0,0,.42.17,3.79,3.79,0,0,1,.67-.06,2.36,2.36,0,0,1,.38.1,3.27,3.27,0,0,1,.64.4,3.2,3.2,0,0,1,.51.53,4.78,4.78,0,0,1,.44.84,2,2,0,0,1,.09.33q0,.32,0,.63a.49.49,0,0,0,.49.52.53.53,0,0,0,.35-.17.67.67,0,0,0,.15-.39c0-.17,0-.33,0-.5a2.78,2.78,0,0,0-.05-.58,3.76,3.76,0,0,0-.25-.76,4.19,4.19,0,0,0-.51-.9,3.66,3.66,0,0,0-.84-.78,2.8,2.8,0,0,0-1-.49l-.06,0Z"/><path class="cls-1" d="M129.52,116.51a.55.55,0,0,0-.22,0h-.06a.59.59,0,0,0-.38.18l-.06.08-.08.07a.31.31,0,0,0-.1.24s0,.06,0,.08l-.06.08a.37.37,0,0,0,0,.25.31.31,0,0,0,.15.2l.4.15a.89.89,0,0,0,.51,0,.94.94,0,0,0,.23-.1.48.48,0,0,0,.18-.17.76.76,0,0,0,.08-.36.61.61,0,0,0,0-.27.59.59,0,0,0-.11-.19.65.65,0,0,0-.21-.16.44.44,0,0,0-.16-.06Z"/><path class="cls-1" d="M147.48,97.28H147a2.48,2.48,0,0,0-.38,0,2.42,2.42,0,0,0-.47.07l-.33.08-.38.17-.35.2-.2.12-.21.15-.4.31-.29.26c-.2.2-.42.4-.6.62l-.14.17c-.07.08-.12.16-.18.24l-.22.33c-.09.13-.17.27-.25.41s-.14.24-.21.36-.25.53-.37.79-.24.53-.34.8-.18.55-.26.83c-.15.55-.28,1.11-.46,1.65l-.21.56c-.18.44-.36.87-.55,1.3a6.29,6.29,0,0,1-.65,1.2,3.66,3.66,0,0,1-.59.59,1.24,1.24,0,0,1-.27.17,2.48,2.48,0,0,1-.39.1.25.25,0,0,0-.17.3.24.24,0,0,0,.12.14.28.28,0,0,0,.18,0,2.61,2.61,0,0,0,.27-.06,1.38,1.38,0,0,0,.53-.26,3.8,3.8,0,0,0,.37-.33c.1-.1.2-.22.29-.33a2.65,2.65,0,0,0,.26-.39,6.8,6.8,0,0,0,.39-.76c.12-.26.23-.52.35-.79l.34-.78a9.18,9.18,0,0,0,.31-.88c.18-.55.31-1.12.49-1.67.05-.19.12-.37.19-.56s.18-.42.28-.63.23-.49.35-.73a9.06,9.06,0,0,1,.79-1.25c.19-.21.39-.42.6-.62s.25-.23.38-.34l.28-.22.26-.18.25-.15.45-.23a3,3,0,0,1,.59-.16c.35,0,.69-.05,1-.08a.28.28,0,0,0,.27-.29.27.27,0,0,0-.08-.19.24.24,0,0,0-.13-.07l-.07,0ZM139,108.53l0,0,0,0Z"/><path class="cls-1" d="M147.2,97.75a.34.34,0,0,0-.33.35c0,.27,0,.53.07.8s0,.49,0,.73a11.19,11.19,0,0,1-.06,1.53c0,.32-.08.63-.13.94s-.15.68-.23,1-.16.64-.25,1a8.13,8.13,0,0,1-.34.94l0-.09a11.88,11.88,0,0,1-1.19,2.19,6,6,0,0,1-.88.93,4.66,4.66,0,0,1-.47.3l-.48.31c-.34.22-.7.37-1,.59a3.73,3.73,0,0,0-.5.39,1.9,1.9,0,0,0-.19.21c-.08.12-.16.23-.23.35a3.45,3.45,0,0,0-.3.65,2.87,2.87,0,0,0-.14.72,2.46,2.46,0,0,0,0,.47.48.48,0,0,0,.5.48.49.49,0,0,0,.34-.15.52.52,0,0,0,.14-.35c0-.09,0-.18,0-.28a3.38,3.38,0,0,1,.16-.7,3.78,3.78,0,0,1,.37-.64l.19-.19a7.37,7.37,0,0,1,.67-.47c.26-.16.5-.34.74-.52l0,0c.16-.13.34-.23.51-.36a4.22,4.22,0,0,0,.47-.39,8.64,8.64,0,0,0,.77-.93,9.89,9.89,0,0,0,1.17-2.23,10.71,10.71,0,0,0,.4-1.21c.1-.41.19-.83.28-1.25a15,15,0,0,0,.35-2.58c0-.35,0-.71,0-1.07s-.06-.75-.08-1.13a.35.35,0,0,0-.25-.32Z"/><path class="cls-1" d="M147.24,100.14a5.33,5.33,0,0,0-.89.06,2.24,2.24,0,0,0-.54.21,3.07,3.07,0,0,0-.36.2,6.72,6.72,0,0,0-1.38,1.11,7.87,7.87,0,0,0-1,1.32,10.25,10.25,0,0,0-.73,1.44,14.15,14.15,0,0,0-.54,1.59,4.7,4.7,0,0,0-.18,1,3.67,3.67,0,0,0,.1,1,.53.53,0,0,0,.53.39.52.52,0,0,0,.37-.16.51.51,0,0,0,.15-.39,5.75,5.75,0,0,1,0-.93,9.13,9.13,0,0,1,.26-1c.1-.35.21-.69.34-1a10,10,0,0,1,.53-1.15c.2-.33.41-.66.64-1a6,6,0,0,1,.86-.89,6.81,6.81,0,0,1,1.11-.72l.16,0a5.62,5.62,0,0,1,.58,0,.51.51,0,0,0,.11-1l-.13,0Z"/><path class="cls-1" d="M138.32,96.5l-.3,0a1.37,1.37,0,0,0-.38.15,3.11,3.11,0,0,0-1.16,1,4.19,4.19,0,0,0-.42.67c-.06.13-.12.27-.17.4a4.11,4.11,0,0,0-.19.56,4.17,4.17,0,0,0-.06.71c0,.12,0,.23,0,.35s.06.5.09.75v0a5.51,5.51,0,0,1,.05,1.15,2.52,2.52,0,0,1-.13.47,3.4,3.4,0,0,1-.38.67c-.2.25-.41.49-.6.75a4,4,0,0,0-.27.44,3.25,3.25,0,0,0-.18.43,2.17,2.17,0,0,0,0,.25,1.62,1.62,0,0,0,0,.38,2.24,2.24,0,0,0,.13.57,3.08,3.08,0,0,0,.16.38,4.11,4.11,0,0,0,.59.89,2.93,2.93,0,0,0,.41.38.51.51,0,0,0,.37.15.55.55,0,0,0,.36-.15.52.52,0,0,0,0-.73c-.12-.13-.24-.25-.35-.38a4.86,4.86,0,0,1-.5-.85,1.71,1.71,0,0,1-.09-.3.81.81,0,0,1,0-.22,1.42,1.42,0,0,1,.05-.22,4.71,4.71,0,0,1,.35-.62,7.79,7.79,0,0,0,.62-.8,3.57,3.57,0,0,0,.46-1,4.17,4.17,0,0,0,.09-1.11,7.14,7.14,0,0,0-.14-1,5,5,0,0,1-.05-1,2.87,2.87,0,0,1,.17-.57,4.62,4.62,0,0,1,.41-.72,3.47,3.47,0,0,1,.41-.45,2.91,2.91,0,0,1,.45-.26l.2-.07h.07l0,0,.08.07a2.19,2.19,0,0,1,.16.3c.06.14.1.29.15.44a4.56,4.56,0,0,1,.13.53c.05.44,0,.89.08,1.34s.13.92.17,1.38.05,1,.1,1.47a14.36,14.36,0,0,0,.25,1.46c0,.15.07.3.11.45a3.35,3.35,0,0,0,.23.55,2.42,2.42,0,0,0,.4.6,4.49,4.49,0,0,0,.39.36.43.43,0,0,0,.6,0,.44.44,0,0,0,0-.61,5.7,5.7,0,0,1-.43-.42,2.3,2.3,0,0,1-.23-.4c-.05-.12-.09-.24-.13-.36s-.07-.32-.1-.48-.11-.57-.16-.85c-.06-.45-.09-.91-.11-1.37,0-.22,0-.45-.05-.68s-.05-.46-.08-.69,0-.47-.06-.71,0-.47,0-.71a4.45,4.45,0,0,0-.08-.81c-.05-.23-.13-.46-.2-.68a2.17,2.17,0,0,0-.31-.65,1.44,1.44,0,0,0-.22-.27,1.52,1.52,0,0,0-.48-.27h-.05a1,1,0,0,0-.22,0Zm-.07,1-.08,0,.08,0Zm-2.9,5.78,0,0,0,0Zm0,2.63v0Z"/><path class="cls-1" d="M136,111a2.7,2.7,0,0,0-.63.12,1.75,1.75,0,0,0-.44.2,4.77,4.77,0,0,0-.77.72.37.37,0,0,0,0,.52.35.35,0,0,0,.24.1.32.32,0,0,0,.16.32,2.86,2.86,0,0,0,1,.27,4,4,0,0,0,.49,0,2.34,2.34,0,0,0,.45-.07,1.47,1.47,0,0,0,.34-.15,1.34,1.34,0,0,0,.31-.27.55.55,0,0,0,.14-.22,1.1,1.1,0,0,0,.06-.26,1.06,1.06,0,0,0-.17-.74,1.48,1.48,0,0,0-.46-.4,1.19,1.19,0,0,0-.26-.11,1.76,1.76,0,0,0-.51,0Zm.49.66.18.1a1.37,1.37,0,0,1,.17.17l0,.06,0,.11a.67.67,0,0,1,0,.2.13.13,0,0,1,0,.06.25.25,0,0,1,0,.07.68.68,0,0,1-.12.12,1.38,1.38,0,0,1-.24.14l-.21.06a3.13,3.13,0,0,1-.53,0,2.94,2.94,0,0,1-.58-.16,2.1,2.1,0,0,1-.3-.15l-.06,0a5.6,5.6,0,0,1,.55-.54l.18-.11a2.8,2.8,0,0,1,.41-.13,2.17,2.17,0,0,1,.36,0l.17,0Zm-.22,1.09h0Zm-1.15-.19h0Z"/><path class="cls-1" d="M134.84,112.28a.55.55,0,0,0,.39.67.55.55,0,0,0,.67-.4.54.54,0,0,0-.4-.66.54.54,0,0,0-.66.39Z"/><path class="cls-1" d="M161.74,157.82c.21,0,.42.06.63.11s.44.1.66.15a1.38,1.38,0,0,0,.67,0l.51-.44c.07-.37-.3-.74-.84-.9l-.2-.06c-.36-.09-.72-.15-1.08-.21l-.28-.05a1.12,1.12,0,0,0-.49.07.6.6,0,0,0-.42.4.63.63,0,0,0,.18.55A1.25,1.25,0,0,0,161.74,157.82Z"/><path class="cls-1" d="M188.62,95a96.35,96.35,0,0,1-6.93,35.91,94.51,94.51,0,0,1-20,30.76A92.24,92.24,0,0,1,95,189.53a93.63,93.63,0,0,1-52.23-16.36,95,95,0,0,1-14.19-11.75A96.78,96.78,0,0,1,8.2,131,95.52,95.52,0,0,1,.82,95,93.58,93.58,0,0,1,28.05,28.05,95.11,95.11,0,0,1,58.72,7.4a93.41,93.41,0,0,1,103,20.9A95.44,95.44,0,0,1,188.62,95Zm-.24,0a91.42,91.42,0,0,0-27.85-65.53,94.26,94.26,0,0,0-30.2-19.76A96.45,96.45,0,0,0,113,4.53,92.79,92.79,0,0,0,59.71,9.81,92.92,92.92,0,0,0,9.52,59.6,93.78,93.78,0,0,0,2.18,95a91.39,91.39,0,0,0,27,65.81A92.21,92.21,0,0,0,95,187.47a94.09,94.09,0,0,0,18-1.83,98.18,98.18,0,0,0,17.34-5.25,95,95,0,0,0,30.19-19.83,92.9,92.9,0,0,0,20.53-29.9A90.77,90.77,0,0,0,188.38,95Z"/><path class="cls-1" d="M63.5,107.84h0a1,1,0,0,0-.3,0,.44.44,0,0,0-.18.09.44.44,0,0,0-.14.28v.13l0,.11a.86.86,0,0,0,.13.2l.27.25,0,0,.56.47a.44.44,0,0,0,.37.07.45.45,0,0,0,.31-.21.49.49,0,0,0,.08-.37.51.51,0,0,0-.12-.23l-.09-.08,0,0h.23a2.44,2.44,0,0,0,.39,0,.26.26,0,0,0,.22-.23c0-.12-.08-.19-.16-.25a.19.19,0,0,0-.19,0,3.56,3.56,0,0,0-.47,0c-.2,0-.4,0-.6-.05Zm.41.66Z"/><path class="cls-1" d="M64.51,107.14l.57-.07a.15.15,0,0,1,.17.12.14.14,0,0,1-.11.18l-.57.07a.25.25,0,0,1-.12,0,.21.21,0,0,1-.06-.1.15.15,0,0,1,.11-.17Z"/><path class="cls-1" d="M65.69,106.67h0a.23.23,0,0,0-.21,0,.28.28,0,0,0-.2.13.3.3,0,0,0,.08.41l.39.32a1.14,1.14,0,0,1,.24.25,2,2,0,0,1,.14.25c0,.09.07.19.12.28a2.47,2.47,0,0,0,.34.54,2.92,2.92,0,0,0,.84.68,3.75,3.75,0,0,0,1,.48,10.88,10.88,0,0,0,1.13.26l.26,0a3.58,3.58,0,0,1,.56.16l.33.22.23.25a15.85,15.85,0,0,0-2,.87c-.16.11-.39.23-.42.45a1.91,1.91,0,0,0,.06.58c0,.37.11.74.15,1.11v0a.64.64,0,0,0-.43,0,.58.58,0,0,0-.34.31l-.12.32,0,0-.11,0h-.2c-.2,0-.52-.12-.66.07a.74.74,0,0,0,0,.62,5.49,5.49,0,0,0,.55,1.21,15.16,15.16,0,0,1,1.14,2.53,14.9,14.9,0,0,1,.73,3.29,15.46,15.46,0,0,1,0,1.67c0,.54-.1,1.08-.19,1.62a11.24,11.24,0,0,1-.3,1.1,7.35,7.35,0,0,1-.43,1,17.93,17.93,0,0,1-1.86,3c-.5.56-1,1.08-1.48,1.66-.23.29-.45.59-.65.89l-.58.87a13,13,0,0,0-1,1.78,18.43,18.43,0,0,0-.63,1.76q-.12.41-.21.81a4.27,4.27,0,0,0-.14,1.42,4.6,4.6,0,0,0,.46,1.32c.06.12.12.24.17.36l-.37.26a8.18,8.18,0,0,0-.64.53l-.64.63c-.2.19-.4.39-.59.59a1,1,0,0,0-.31.63.93.93,0,0,0,.24.68,1,1,0,0,0,.63.31,1,1,0,0,0,.68-.23c.33-.26.66-.52,1-.79l.92-.74a6.2,6.2,0,0,0,.67-.47,1.57,1.57,0,0,0,.61-1.06,1.58,1.58,0,0,0-.29-.94c-.13-.21-.27-.41-.41-.62a5.32,5.32,0,0,1-.39-.65l0-.19a2.93,2.93,0,0,1,0-.59,13.81,13.81,0,0,1,.86-2.59c.3-.55.65-1.08,1-1.6s.71-1.06,1.11-1.56c.27-.31.54-.61.82-.91a12.35,12.35,0,0,0,.91-1.12q.38-.54.72-1.11c.24-.4.46-.8.68-1.21a12.66,12.66,0,0,0,.79-1.86,9.36,9.36,0,0,0,.24-.91,9,9,0,0,0,.19-1.06,11,11,0,0,0-.08-3.76,9,9,0,0,0-.24-.89c-.11-.34-.22-.69-.36-1a13.21,13.21,0,0,0-.76-1.56,8.27,8.27,0,0,0-.54-.82,4.72,4.72,0,0,0-.52-.66c-.16-.18-.33-.35-.5-.53a5.27,5.27,0,0,1-.5-.55,1.19,1.19,0,0,1-.13-.25v0a2.44,2.44,0,0,0,.26.06h.2a.91.91,0,0,0,.4.06c.27-.06.37-.3.47-.53.11,0,.21.08.32.12a.37.37,0,0,0,.31,0,.41.41,0,0,0,.19-.24.61.61,0,0,0,0-.3,1.5,1.5,0,0,0,0-.22c0-.12,0-.24,0-.36a5.56,5.56,0,0,0-.35-1.27h0l.42-.19c.22-.07.44-.14.67-.19l.81-.19.33-.1c.21-.07.47-.12.59-.31a.6.6,0,0,0,0-.63,2.24,2.24,0,0,0-.21-.36,2.47,2.47,0,0,0-.49-.48,2,2,0,0,0-.63-.34,12.83,12.83,0,0,0-1.37-.29l-.5-.13-.42-.18.1.05-.55-.26a3.46,3.46,0,0,1-.45-.29,2.73,2.73,0,0,1-.33-.35,4.15,4.15,0,0,0-.52-.79,8.14,8.14,0,0,0-.63-.54Zm3.6,5.38h0l0,0,0,0Zm-.39.17Zm0,0h0s0,0,0,0a.06.06,0,0,1,0,0Zm0,0h0v0Zm-1,2.25h0l0,.06,0-.06Zm0,0h0l0,0,0,0Zm0,0h0l0,0,0,0Zm.65-.07Zm0,0Zm0,0h0l0,0,0,0ZM67,114.9Z"/><path class="cls-1" d="M35,109.93h0a3.74,3.74,0,0,0-.75.06l-.07,0a2.76,2.76,0,0,0-.83.3,1.59,1.59,0,0,0-.21.15,1,1,0,0,0-.17.18,1.05,1.05,0,0,0-.18.54,1.5,1.5,0,0,0,0,.42c0,.11.07.22.11.33a2.26,2.26,0,0,0,.17.35,1.15,1.15,0,0,0-.5.2,2,2,0,0,0-.67,1c-.07.23-.13.45-.2.67a1.31,1.31,0,0,0-.59,0c-.38.08-.51.5-.51.84a3.73,3.73,0,0,0,.12.88l.24.85c0,.13.07.26.11.39-.14-.15-.27-.3-.4-.47s-.23-.31-.35-.47l-.15-.22a1.47,1.47,0,0,0-.29-.32.45.45,0,0,0-.56,0,.64.64,0,0,0-.17.44c0,.13,0,.25,0,.38s0,.48-.05.73L29,118.77c0,.2,0,.41,0,.61a.93.93,0,0,0-.15-.13.44.44,0,0,0-.5,0,1.07,1.07,0,0,0-.26.66,6.83,6.83,0,0,0-.06.78c0,.26,0,.52,0,.78s0,.56,0,.84c0-.11,0-.22-.05-.34s0-.49-.09-.74a3,3,0,0,0-.08-.41,1.21,1.21,0,0,0-.05-.18s0-.11-.05-.16l-.1-.17a.39.39,0,0,0-.54,0,.7.7,0,0,0-.18.44,1,1,0,0,0,0,.17v0a6.71,6.71,0,0,0-.17,1.41c0,.48,0,1,0,1.42s-.12,1-.14,1.48a7.88,7.88,0,0,0,.24,1.81c.05.27.1.53.16.79s.15.5.23.74c.16.53.33,1,.49,1.57a7.51,7.51,0,0,0,.58,1.54c.27.47.58.91.87,1.36.14.21.28.43.4.65a4.27,4.27,0,0,0,.46.73c.16.19.34.36.5.54s.33.39.51.56a24.87,24.87,0,0,0,2.38,1.85c.43.32.84.66,1.29.94.23.15.47.28.71.41L36,139a8.48,8.48,0,0,0,1.4.55,9.85,9.85,0,0,1,1.38.49c.17.09.34.18.51.29a5.85,5.85,0,0,1,.49.38c.26.23.5.48.76.73l.58.55c.22.2.46.39.69.57.42.31.82.63,1.25.93a8,8,0,0,0,1.47.79,6.81,6.81,0,0,0,.76.26l.75.19a3.16,3.16,0,0,0,.92.09c.31,0,.61,0,.9-.06s.54,0,.8-.08.52-.08.78-.13a15.68,15.68,0,0,0,1.52-.46l.71-.23.73-.25a13.64,13.64,0,0,1,1.4-.35c.52-.1,1-.21,1.59-.26a2.11,2.11,0,0,1,.35,0,4.33,4.33,0,0,1,.78.3l-.05,0,.06,0,0,0,0,0c.51.26,1,.52,1.51.82s1,.72,1.5,1.09a.44.44,0,0,0,.48-.73c-.39-.29-.77-.59-1.16-.87A11.05,11.05,0,0,0,57.7,143l-.63-.32c-.23-.12-.47-.25-.71-.35l-.36-.12a1.85,1.85,0,0,0-.47-.08,2.26,2.26,0,0,0-.45,0l-.69.08c-.53.09-1.08.16-1.61.28a7.44,7.44,0,0,0-.78.2l-.73.19-.74.18-.75.19c-.26.06-.52.11-.79.15s-.45.06-.67.07l-.63,0-.67.05a3.49,3.49,0,0,1-.65-.05l-.9-.23a7.84,7.84,0,0,1-.95-.38,10.35,10.35,0,0,1-1.07-.63q-.54-.34-1.05-.72l-.55-.4c-.16-.14-.32-.29-.49-.42-.35-.29-.68-.59-1-.86a6.55,6.55,0,0,0-1.43-.82,13,13,0,0,0-1.47-.44,10.39,10.39,0,0,1-1.36-.47c-.48-.21-1-.44-1.41-.66a8.76,8.76,0,0,1-.85-.47l-.9-.54a11.93,11.93,0,0,1-1.49-1.07l-.32-.29c-.11-.12-.21-.24-.31-.37s-.42-.48-.61-.74-.29-.51-.43-.78-.28-.48-.42-.72a9.78,9.78,0,0,1-.81-1.49c-.15-.44-.25-.89-.37-1.34s-.23-.9-.36-1.35c-.06-.22-.13-.43-.18-.65s-.09-.45-.12-.68l-.12-.71c0-.25-.09-.5-.11-.75,0-.77.14-1.52.15-2.28a7.82,7.82,0,0,0,.45,1.13l.18.34c.1.16.21.38.4.44a.38.38,0,0,0,.44-.15.53.53,0,0,0,0-.41c0-.15-.05-.29-.09-.44s-.11-.51-.16-.77-.07-.48-.09-.72c0-.43,0-.86,0-1.29,0-.1,0-.21,0-.31l0,.06a8.65,8.65,0,0,0,.38,1.32,3.17,3.17,0,0,0,.34.66.8.8,0,0,0,.57.41.59.59,0,0,0,.56-.61,2.57,2.57,0,0,0-.21-.9c-.07-.16-.13-.33-.19-.5a5.39,5.39,0,0,1-.23-1.1c0-.75,0-1.49,0-2.23,0-.36,0-.72,0-1.08,0-.07,0-.13,0-.2.11.15.21.29.33.43a4.49,4.49,0,0,0,.41.46,3.45,3.45,0,0,0,.28.26.81.81,0,0,0,.28.17.56.56,0,0,0,.44,0,.54.54,0,0,0,.27-.37,1.54,1.54,0,0,0,0-.3,3.7,3.7,0,0,0-.1-.58c-.05-.2-.11-.4-.17-.61a7.55,7.55,0,0,1-.3-1.18V115l.12,0a.85.85,0,0,0,.7,0,1.13,1.13,0,0,0,.46-.75,5.85,5.85,0,0,1,.26-.84,1.3,1.3,0,0,1,.1-.15.52.52,0,0,1,.11-.1h0a.28.28,0,0,1,.13,0,2,2,0,0,1,.42,0l.14,0,.54.53.27.27.18.16a1.63,1.63,0,0,0,.22.17.51.51,0,0,0,.36.07.49.49,0,0,0,.43-.45.77.77,0,0,0-.22-.53,2.7,2.7,0,0,0-.28-.31,4.23,4.23,0,0,0-.72-.54l-.15-.09a5.21,5.21,0,0,1-.67-.74,3,3,0,0,1-.21-.4l0-.14a.28.28,0,0,1,0-.09s0,0,0,0l0,0,.06-.06.34-.16a3.57,3.57,0,0,1,.71-.14,3.83,3.83,0,0,1,.83.07,7.75,7.75,0,0,1,1.44.58l.55.31a5.63,5.63,0,0,1,.75.53c.16.14.33.28.47.43s.33.37.5.56.53.68.77,1c.12.17.23.35.35.53.58.91,1.1,1.86,1.66,2.78.28.45.58.89.87,1.34l.45.69c.16.23.32.46.5.68a2.6,2.6,0,0,0,1.46.89,3.76,3.76,0,0,0,.82.11,5.45,5.45,0,0,0,.9-.06c.54-.07,1.07-.17,1.6-.26l.76-.14.67-.08c.71,0,1.42,0,2.13,0a13.24,13.24,0,0,1,2.09.08,5.28,5.28,0,0,1,1,.31l.5.23a1.24,1.24,0,0,0,.77.2c.43-.07.63-.48.75-.86a5.34,5.34,0,0,1,.18-.52c.1-.26.21-.51.32-.76A3.51,3.51,0,0,1,58,119a3.48,3.48,0,0,0,.28-.39,7.55,7.55,0,0,0,.48-.94c.11-.21.24-.42.36-.63a8.2,8.2,0,0,0,.45-1c.12-.3.2-.6.29-.9a5.13,5.13,0,0,1,.25-.69c.18-.32.39-.62.59-.93a8.47,8.47,0,0,1,.65-.92l0-.06,0,0h0l0,0c.3-.35.63-.68.92-1a4.24,4.24,0,0,0,.55-1l.17-.25.17-.18.15-.13a1.18,1.18,0,0,0,.29-.3.71.71,0,0,0-.2-1,.72.72,0,0,0-.82,0,1.55,1.55,0,0,0-.29.14,5.63,5.63,0,0,0-.46.36,2.61,2.61,0,0,0-.27.3,1.13,1.13,0,0,0-.12.18c-.07.13-.14.27-.2.4a3.74,3.74,0,0,1-.35.53l-.1.11c-.27.29-.55.57-.81.86l0,0c-.12.15-.24.29-.35.45s-.31.44-.46.67-.3.46-.45.69a5.68,5.68,0,0,0-.63,1.58c-.07.28-.17.54-.26.81a6.25,6.25,0,0,1-.24.6c-.13.24-.26.48-.37.73s-.16.37-.24.55a6.22,6.22,0,0,1-.35.54,3.5,3.5,0,0,0-.45.83c-.09.23-.19.46-.26.7a5.36,5.36,0,0,0-.14.54l-.49-.16a5.43,5.43,0,0,0-.88-.23,11.34,11.34,0,0,0-1.65-.1c-.53,0-1.05,0-1.58,0a15.82,15.82,0,0,0-1.69,0c-.52.05-1,.17-1.53.26s-1,.18-1.57.24a5.55,5.55,0,0,1-1-.08,2.6,2.6,0,0,1-.36-.13,3,3,0,0,1-.38-.24,3.19,3.19,0,0,1-.33-.4c-.32-.48-.63-1-.94-1.47s-.62-1-.91-1.48-.57-.94-.85-1.42a14.77,14.77,0,0,0-1-1.43A9.44,9.44,0,0,0,38.11,111a11.15,11.15,0,0,0-1.52-.72,5.19,5.19,0,0,0-.79-.25,3.18,3.18,0,0,0-.82-.1ZM33.68,111h0l-.06.07.06-.07Zm-.09.12h0l0,0,0,0Zm0,0h0a.29.29,0,0,0,0,.09.29.29,0,0,1,0-.09Zm0,.11h0a.15.15,0,0,0,0,.07.15.15,0,0,1,0-.07Zm-1.85,2.9Zm.14,0Zm8.12,0h0l0,.07,0-.07Zm23.13-4h0l-.1.12.1-.12Zm-18.73,9.13h0l0,0,0,0Zm-15.83,3.31h0v0ZM38.8,140.1Zm17.7,3.27Z"/><path class="cls-1" d="M64.17,110.16h0a.32.32,0,0,0-.17,0,.32.32,0,0,0-.24.22,8.44,8.44,0,0,0-.28,1.1,1.88,1.88,0,0,0-.06.53,2.17,2.17,0,0,0,.06.57,1.69,1.69,0,0,0,.15.37,1.13,1.13,0,0,0,.24.29,1.46,1.46,0,0,0,.38.27,2.11,2.11,0,0,0,.54.22c.29.08.6.12.9.18L66,114l-.06.14a1.37,1.37,0,0,0-.08.8,1.53,1.53,0,0,0,.35.71,1.12,1.12,0,0,0,.2.18.49.49,0,0,0,.14.11l.34.16a.69.69,0,0,0,.58,0,.74.74,0,0,0-.1-1.37h0l.06-.08a1.05,1.05,0,0,0,.17-.29,1,1,0,0,0,0-.82.82.82,0,0,0-.2-.26,1,1,0,0,0-.2-.16,1.81,1.81,0,0,0-.48-.2,2,2,0,0,0-.35-.06,1.87,1.87,0,0,0-.34,0c-.4,0-.81,0-1.22-.05l-.3-.09-.13-.09,0,0s0-.11-.08-.16a1.91,1.91,0,0,1-.06-.33,3.55,3.55,0,0,1,0-.46c.07-.32.16-.64.25-1a.33.33,0,0,0-.2-.42Zm3.13,4.52Zm0,0h0l0,0,0,0Zm0,.07h0v0s0,0,0,0Zm0,0h0v0Z"/><path class="cls-1" d="M67.56,110.6a.69.69,0,0,1-.53.8.7.7,0,0,1-.81-.53.69.69,0,0,1,.54-.8.68.68,0,0,1,.8.53Z"/><path class="cls-1" d="M43.28,123.43h0c-.25,0-.49,0-.74.09l-.12,0a5,5,0,0,0-1.26.48,3.2,3.2,0,0,0-.45.3,2.9,2.9,0,0,0-.34.36,8.75,8.75,0,0,0-.58.78,7.39,7.39,0,0,0-.47.76c-.07.16-.15.31-.21.47a2.6,2.6,0,0,0-.15.42c-.15.61-.19,1.23-.28,1.85a5.1,5.1,0,0,1-.26.78c-.09.18-.17.35-.25.53a2.43,2.43,0,0,0-.27,1.18,1.18,1.18,0,0,0,.06.27,1.1,1.1,0,0,0,.59.75,2.23,2.23,0,0,0,.72.17,3.38,3.38,0,0,0,.78,0l.56-.14.48-.07c.72,0,1.44-.05,2.15-.11l2.1-.2c.5,0,1,0,1.49,0a14.88,14.88,0,0,1,1.64.09,8.92,8.92,0,0,1,1.74.59l.86.41a3.08,3.08,0,0,0,1.08.28,4.14,4.14,0,0,0,1.11-.06,9.41,9.41,0,0,0,.91-.25,4.58,4.58,0,0,0,1.66-.88,12.26,12.26,0,0,0,1.56-1.66,5,5,0,0,0,.75-1.3c.07-.23.13-.45.18-.68a6.41,6.41,0,0,0,.17-1.14c0-.31,0-.63,0-.94a7.35,7.35,0,0,1,.09-.79q.07-.33.18-.66a.92.92,0,1,0-1.75-.59,11.57,11.57,0,0,0-.29,1.16,8.08,8.08,0,0,0-.1.86c0,.27,0,.55-.05.83s-.06.5-.1.75a5.65,5.65,0,0,1-.24.8,8.69,8.69,0,0,1-1,1.36,7,7,0,0,1-1,1,7.76,7.76,0,0,1-1.37.64l.19-.07-.33.11a2.6,2.6,0,0,1-.47.09,3,3,0,0,1-.52,0c-.39-.1-.76-.27-1.13-.39s-.78-.25-1.17-.35a7,7,0,0,0-1.2-.21c-.42,0-.85,0-1.27,0-.64,0-1.29,0-1.92.11l-1.82.26c-.62.08-1.24.14-1.86.21a6,6,0,0,0-.85.13,9.17,9.17,0,0,1-.9.24,3.55,3.55,0,0,1-.65,0l-.22-.07-.15-.09,0,0a2.24,2.24,0,0,1-.13-.27l0-.17a1,1,0,0,1,0-.24,4.26,4.26,0,0,1,.35-.92,5.29,5.29,0,0,0,.32-.68q.09-.3.15-.6c.08-.35.13-.69.2-1h0a2.92,2.92,0,0,1,.12-.49c.07-.19.15-.37.23-.56a7.45,7.45,0,0,1,.43-.71l.56-.75-.06.08a3.38,3.38,0,0,1,.5-.5,3.83,3.83,0,0,1,.79-.38,5.49,5.49,0,0,1,1.14-.23l.4,0a4.55,4.55,0,0,1,.9.07c.18.05.37.08.55.14a3.52,3.52,0,0,1,.39.16c.37.19.72.41,1.06.63a.46.46,0,0,0,.64-.13.47.47,0,0,0-.13-.64l-.53-.32a4.71,4.71,0,0,0-1.05-.53c-.19-.06-.38-.1-.57-.14a3.63,3.63,0,0,0-.66-.1,5.43,5.43,0,0,0-.9,0Zm1.22.9Zm-5.85,7.46h0l0,0,0,0Zm13.52.23Z"/><path class="cls-1" d="M41.65,134.1h0a.69.69,0,0,0-.55-.11.8.8,0,0,0-.5.32,7.52,7.52,0,0,0-.69,1,3.1,3.1,0,0,0-.25.56c0,.16-.07.32-.11.48a3.92,3.92,0,0,1-.22.74.57.57,0,0,1-.08.13l-.19.16a3.28,3.28,0,0,1-.6.28,2.74,2.74,0,0,1-.39.09h-.13a.73.73,0,1,0-.1,1.45,3,3,0,0,0,1.71-.39,2.7,2.7,0,0,0,.66-.46,1.79,1.79,0,0,0,.36-.46,3,3,0,0,0,.16-.31c.21-.46.26-1,.45-1.45a9.59,9.59,0,0,1,.69-1,.76.76,0,0,0-.22-1.06Zm-2.1,2.28h0l0,.12a.5.5,0,0,1,0-.12Z"/><path class="cls-1" d="M60.06,143.35h0m1.51,2.9a4,4,0,0,1,.37.71,3.5,3.5,0,0,1,.15.64,4.63,4.63,0,0,1-.05.91c0,.16-.08.32-.13.48s-.14.44-.19.67a.57.57,0,0,0,.11.52.58.58,0,0,0,.15.11,1.94,1.94,0,0,0,.3.13,1.11,1.11,0,0,0,.82,0,2,2,0,0,0,.52-.34c.11-.09.21-.19.31-.29s.19-.21.3-.3h0l.08,0a5.23,5.23,0,0,1,.63.41c.22.15.43.31.64.48l.31.22a1.33,1.33,0,0,0,.63.28,1.06,1.06,0,0,0,.31,0,.63.63,0,0,0,.31-.17.79.79,0,0,0,.18-.29c0-.07,0-.14,0-.21a1.53,1.53,0,0,0,0-.3,2.77,2.77,0,0,0-.1-.26l-.08-.16a3.78,3.78,0,0,0-.55-.7l-.17-.16h.13l.33,0a3,3,0,0,0,.42,0l.22,0a2.46,2.46,0,0,0,.38-.14l.23-.17a1,1,0,0,0,.33-.7,1.32,1.32,0,0,0-.64-1.07,2.2,2.2,0,0,0-.32-.21,3.93,3.93,0,0,0-.78-.36,3.71,3.71,0,0,0-.81-.14,4.71,4.71,0,0,0-.65,0l-.53.05-.19,0h-.18l-.21-.07a9,9,0,0,1-.91-.61c-.28-.2-.55-.42-.82-.64a9.75,9.75,0,0,1-1-1.06.68.68,0,0,0-1,0c-.08.06-.25.27-.17.23C59.69,144,61.57,146.25,61.57,146.25Zm1.61.63h0a4,4,0,0,0,.54.37.6.6,0,0,0-.12.32.65.65,0,0,0,.07.34,1,1,0,0,0,.38.39l.17.1.32.21a.85.85,0,0,0-.23,0,1.08,1.08,0,0,0-.53.12,2,2,0,0,0-.44.38,6.55,6.55,0,0,1-.56.49l-.15.08-.09,0h0a6,6,0,0,0,.34-1.57c0-.13,0-.27,0-.41a3.09,3.09,0,0,0-.14-.85,4.52,4.52,0,0,0-.18-.47l.1.08.57.44Zm1.08,2.57Zm0,0h0l.07,0-.07,0Zm.09,0h0l.05,0-.05,0Z"/><path class="cls-1" d="M52.53,143.74h0a.5.5,0,0,0-.56-.26l-.11,0a.48.48,0,0,0-.25.29.46.46,0,0,0,0,.26,1.77,1.77,0,0,1,.08.4c0,.38,0,.76,0,1.14a10.2,10.2,0,0,1-.1,1.23c-.05.16-.09.33-.14.5s-.09.31-.14.46a5.68,5.68,0,0,1-.36.94l-.39.73a2.62,2.62,0,0,0-.3.85.35.35,0,0,0,.09.26.37.37,0,0,0,.23.12.62.62,0,0,0,.33,0l.42-.17c.23-.11.44-.25.68-.34l.11,0h.08l0,0c.11.1.2.22.31.32a1.15,1.15,0,0,0,.26.19.42.42,0,0,0,.27,0,.5.5,0,0,0,.36-.47,6.11,6.11,0,0,0-.07-.86v0a6,6,0,0,1,.52.36l.54.4c.17.13.35.27.54.39a2.5,2.5,0,0,0,.53.3.62.62,0,0,0,.55,0,.6.6,0,0,0,.33-.49,1,1,0,0,0-.35-.72,2.61,2.61,0,0,0-.23-.24,6,6,0,0,0-.53-.48c-.31-.26-.65-.48-1-.74a1.94,1.94,0,0,1-.32-.32,1.3,1.3,0,0,1-.08-.17.64.64,0,0,1,0-.2,3.4,3.4,0,0,1,0-.71,10.12,10.12,0,0,1,.52-1.49c.11-.2.22-.4.35-.6a4.58,4.58,0,0,1,.5-.66.59.59,0,0,0-.17-.81.58.58,0,0,0-.44-.09.65.65,0,0,0-.37.25,8.36,8.36,0,0,0-.57.76c-.12.2-.23.41-.33.62a6.36,6.36,0,0,0-.31.76c-.08.21-.14.42-.2.64a3.44,3.44,0,0,0-.14.79v.37a3.75,3.75,0,0,0,0,.47,1.66,1.66,0,0,0,.32.7.58.58,0,0,0-.46.31.91.91,0,0,0-.1.48,2,2,0,0,0,0,.25l-.11-.05a1.22,1.22,0,0,0-1,.15l-.3.19c.06-.11.13-.21.19-.31a7.63,7.63,0,0,0,.65-1.23c.09-.21.16-.43.24-.64s.16-.45.22-.68a11.56,11.56,0,0,0,.18-1.44c0-.23,0-.46,0-.68v-.36a2.58,2.58,0,0,0,0-.29,2.55,2.55,0,0,0-.13-.39ZM51,148.68h0l0,0,0,0Zm3.25-.62h0l0,0,0,0Z"/><path class="cls-1" d="M53.88,147.42a.8.8,0,0,1-.61.94.81.81,0,0,1-.94-.62.8.8,0,0,1,.62-.93.79.79,0,0,1,.93.61Z"/></svg>