<svg id="para_exportar" data-name="para exportar" xmlns="http://www.w3.org/2000/svg" viewBox="0 0 190 190"><defs><style>.cls-1{fill:#fff;}</style></defs><path class="cls-1" d="M41.87,37.21a3.85,3.85,0,0,0-.58.08,8.69,8.69,0,0,0-1.82.74l-1.19.43a8.45,8.45,0,0,0-1.28.63c-.38.23-.77.45-1.14.7-.19.14-.4.27-.6.4l-.6.41L34,41l-.61.42c-.42.3-.81.63-1.21,1a12.9,12.9,0,0,0-1,.92,12.06,12.06,0,0,0-1,1.05c-.32.39-.62.81-.91,1.22s-.58.8-.86,1.21-.55.74-.81,1.12l-.79,1.19c-.13.19-.25.38-.37.58s-.24.36-.36.54-.25.38-.37.57-.22.42-.32.63a8.27,8.27,0,0,0-.55,1.43c-.07.23-.13.46-.19.7s-.12.47-.17.71A12.67,12.67,0,0,0,24.31,56c0,.26,0,.52,0,.78s0,.46-.06.69a4.15,4.15,0,0,1-.14.61l0,0c-.38,0-.76,0-1.14,0a2.83,2.83,0,0,0-1.06.32l-.29.21a2.49,2.49,0,0,0-.38.34,4.44,4.44,0,0,0-.45.62c-.12.21-.22.43-.32.64a9.92,9.92,0,0,0-.55,1.46c-.13.44-.23.88-.32,1.32l-.15.71c-.05.28-.08.56-.11.83a6.75,6.75,0,0,0,0,1.42,7,7,0,0,0,.13.8c.05.23.12.46.19.69a13.71,13.71,0,0,0,.53,1.39q.14.32.3.63c.11.21.24.4.37.6.26.39.54.76.82,1.13l.5.65c.14.17.3.35.44.53.28.36.57.72.88,1A4.43,4.43,0,0,0,24,74c.2.15.41.29.62.42.4.25.82.49,1.23.73a12.33,12.33,0,0,0,1.41.7c.36.15.73.29,1.1.41a7.62,7.62,0,0,0,1,.23,9.93,9.93,0,0,0,1.2.18c.36,0,.71,0,1.06.07a2.91,2.91,0,0,1,.56.15,5.39,5.39,0,0,1,.9.52q.47.3.9.63a8,8,0,0,1,.62.54,6,6,0,0,1,.52.61l0-.06a4.48,4.48,0,0,1,.44.72c0,.12.09.23.13.35a3.83,3.83,0,0,1,.16.58.29.29,0,0,0,.36.2.3.3,0,0,0,.2-.35,4,4,0,0,0-.52-1.46A5.52,5.52,0,0,0,35,78a11.24,11.24,0,0,0-1.18-1,6.68,6.68,0,0,0-1.15-.75,3.23,3.23,0,0,0-1.26-.33c-.41,0-.82,0-1.22-.09q-.33,0-.66-.12c-.22,0-.43-.06-.65-.12a8.79,8.79,0,0,1-1.34-.45l-.79-.38c-.26-.13-.52-.29-.78-.44s-.52-.31-.77-.47a7.52,7.52,0,0,1-.75-.5,3.62,3.62,0,0,1-.54-.49l-.53-.64-.51-.65c-.36-.47-.7-1-1-1.45-.16-.23-.32-.47-.47-.71a8.69,8.69,0,0,1-.4-.81c-.15-.37-.28-.75-.4-1.13a7,7,0,0,1-.3-1.2,4.9,4.9,0,0,1,0-.77q0-.37.06-.75a13.41,13.41,0,0,1,.38-1.78c.09-.29.17-.59.27-.87s.19-.53.29-.79a8.22,8.22,0,0,1,.67-1.19,2.79,2.79,0,0,1,.38-.39,3,3,0,0,1,.33-.21L23,59.4a5.82,5.82,0,0,1,.59,0,4.9,4.9,0,0,0,.77-.05,1.06,1.06,0,0,0,.6-.31,1.41,1.41,0,0,0,.3-.55,4.5,4.5,0,0,0,.15-.8c0-.24,0-.47.05-.71s0-.48,0-.72q0-.72.09-1.44a.2.2,0,0,1,0-.07c0-.18,0-.37.1-.56s.11-.42.16-.63a10.79,10.79,0,0,1,.36-1.14l.09-.21a8.66,8.66,0,0,1,.65-1.2c.13-.19.25-.38.38-.56s.25-.39.38-.59l.78-1.17c.27-.39.54-.77.83-1.15l.74-1c.26-.36.5-.72.76-1.07a16.24,16.24,0,0,1,1.37-1.5c.26-.25.53-.47.8-.7s.5-.42.76-.62l0,0,0,0,.09-.07-.08.06a13.63,13.63,0,0,1,1.17-.82c.42-.25.81-.54,1.21-.82.2-.12.38-.26.57-.39l.56-.36c.38-.24.75-.49,1.15-.7l.35-.16c.38-.15.75-.3,1.12-.47s.73-.39,1.11-.56a5.5,5.5,0,0,1,.88-.25,7.72,7.72,0,0,1,1.52.1.41.41,0,0,0,.3-.12.43.43,0,0,0,0-.6.47.47,0,0,0-.3-.12l-1-.1-.29,0Zm-3.09,2.1h0ZM25.54,54.63v0Zm-1.33,2.85v0Zm-.08.59h0ZM20.3,64.61v0Zm.66,4,0,.07,0-.07Zm3.51,4.76.06,0-.06,0Zm5.77,2.47h0ZM33.69,42.6Z"/><path class="cls-1" d="M36.06,80.71A6.65,6.65,0,0,1,35.78,82a3.07,3.07,0,0,1-.17.31c-.1.12-.21.22-.32.33a3.87,3.87,0,0,1-.41.4,3.8,3.8,0,0,1-.77.41l-.6.26c-.32.13-.65.25-1,.39l.12,0a8,8,0,0,0-1,.49,8.26,8.26,0,0,0-.91.64c-.26.2-.48.44-.72.66s-.43.39-.66.57-.39.29-.59.43l-.32.22a2.53,2.53,0,0,1-.37.18l-.78.34c-.25.11-.5.24-.75.37a8.24,8.24,0,0,0-.77.42c-.24.16-.47.32-.69.5l-.69.49-.35.24-.32.23c-.24.17-.48.35-.7.54a2.57,2.57,0,0,0-.61.7c-.13.23-.24.47-.36.7a6.49,6.49,0,0,0-.33.87c-.09.28-.17.57-.25.87a7.65,7.65,0,0,0-.18.83,14.25,14.25,0,0,0-.12,1.85A8.09,8.09,0,0,0,21.35,98a5.41,5.41,0,0,0,.19.69c.1.24.2.49.31.73,0,.08.07.16.1.25a24.26,24.26,0,0,1,.94,3.08c.15.56.34,1.11.52,1.66.09.25.16.5.25.75s.2.5.3.75c.18.42.37.83.56,1.23a9,9,0,0,0,.62,1.09c.25.37.52.72.79,1.08s.59.72.87,1.08l.45.62c.17.25.36.48.54.71.34.46.69.91,1,1.37l.47.67c.15.21.3.43.46.64a15.66,15.66,0,0,0,1.16,1.4c.19.19.41.36.62.54s.48.35.72.52c.9.61,1.81,1.2,2.72,1.8l.69.45.78.5a7,7,0,0,0,.74.45,6.17,6.17,0,0,0,.93.36c.28.09.57.16.85.22s.6.13.9.17.6.09.91.12.62.06.93.1c1.17.13,2.35.16,3.53.18.54,0,1.07,0,1.6-.06s1-.1,1.57-.17l.89-.11c.33,0,.65-.08,1-.12l.86-.14.9-.13c.55-.08,1.09-.23,1.63-.36s1.11-.25,1.66-.39c.28-.07.55-.16.81-.25l.78-.25q.78-.24,1.56-.54c.56-.21,1.12-.42,1.67-.65s1.09-.49,1.63-.76a16.91,16.91,0,0,0,1.5-.84L64,116c.24-.17.46-.35.69-.53.45-.33.91-.65,1.37-1s1-.67,1.47-1,1-.6,1.47-1c.27-.19.54-.4.8-.61l.68-.55c.4-.34.79-.69,1.2-1s1-.72,1.49-1.07c.26-.18.52-.35.77-.54s.56-.42.84-.64A16.67,16.67,0,0,0,76.1,107c.22-.19.4-.42.6-.63s.39-.48.57-.72a11.93,11.93,0,0,0,.92-1.49l.45-.82a6.32,6.32,0,0,1,.47-.68l.41-.57a.6.6,0,0,0,.08-.29.54.54,0,0,0-.17-.4.57.57,0,0,0-.81,0,5,5,0,0,0-.36.42,5.46,5.46,0,0,0-.36.45,8,8,0,0,0-.58.93,18.25,18.25,0,0,1-1.08,1.75,12.49,12.49,0,0,1-.95,1.1A14.11,14.11,0,0,1,74,107.11h0l-.65.51c-.35.26-.72.5-1.07.76s-.77.54-1.14.82-.82.64-1.21,1l-1.06.85a14.84,14.84,0,0,1-1.32.92c-.47.28-.95.55-1.4.85s-1,.67-1.45,1l-.66.47-.65.52A16.48,16.48,0,0,1,61.49,116a23.76,23.76,0,0,1-2.16,1l-1.48.58c-.53.19-1.05.38-1.58.55l-.79.26a8.11,8.11,0,0,1-.84.25l-1.64.39c-.27.08-.55.14-.82.2s-.63.11-1,.16l-.92.16-.87.14c-.53.07-1.07.13-1.6.21s-1.13.12-1.7.16-1.15,0-1.73,0-1.19,0-1.78-.05-1.18-.11-1.78-.16l-.81-.08c-.39-.06-.78-.15-1.18-.23a8.62,8.62,0,0,1-1.1-.32,15,15,0,0,1-1.49-.89l-.72-.46-.66-.44c-.46-.3-.92-.59-1.38-.9s-.87-.57-1.29-.88a6.37,6.37,0,0,1-.82-.74c-.28-.3-.55-.63-.81-1s-.35-.48-.53-.72l-.56-.78c-.4-.55-.82-1.1-1.25-1.64-.22-.3-.43-.61-.66-.91s-.57-.72-.86-1.07a17.44,17.44,0,0,1-1.1-1.56,14.77,14.77,0,0,1-.84-1.75l0,.1c-.1-.25-.21-.5-.3-.76s-.16-.49-.24-.74c-.18-.55-.37-1.09-.51-1.64l-.21-.83c-.06-.27-.13-.54-.2-.8-.15-.54-.31-1.07-.5-1.6-.13-.33-.26-.65-.36-1a6.84,6.84,0,0,1-.21-1,9.19,9.19,0,0,1,0-1.39c0-.46,0-.91.08-1.37,0-.15,0-.3.09-.45s.11-.42.16-.64A7,7,0,0,1,23,92.38a6.72,6.72,0,0,1,.5-1,2.28,2.28,0,0,1,.22-.22L24,91c.31-.22.62-.42.94-.63s.36-.24.53-.37L26,89.6a12.87,12.87,0,0,1,2.26-1.2,7.35,7.35,0,0,0,.76-.34l.29-.19.28-.21c.23-.17.46-.34.68-.52s.35-.31.52-.48.38-.36.56-.55l.47-.41c.22-.15.44-.3.67-.44s.5-.27.76-.4c.5-.25,1-.47,1.5-.73a3.29,3.29,0,0,0,.76-.54,5.56,5.56,0,0,0,.54-.66,3.11,3.11,0,0,0,.53-1.41l.12-.65a.31.31,0,0,0-.22-.38h-.07a.31.31,0,0,0-.31.23Zm-2,2.72h0Zm-4.41,4.14,0,0,0,0Zm-7.75,12s0,.07,0,.11,0-.07,0-.11ZM76.21,105l0,0,0,0Zm-2,2-.07,0,.07,0Zm-46,3.8,0,0,0,0ZM59.38,117l0,0,0,0Z"/><path class="cls-1" d="M49.77,37.19h-.53c-.36,0-.71,0-1.06-.06L47.12,37a4.18,4.18,0,0,0-.61,0l-.46.05-.59,0-.5.07a8.69,8.69,0,0,0-.88.07c-.29,0-.58.1-.87.16a.36.36,0,0,0-.26.42.34.34,0,0,0,.4.27A9.5,9.5,0,0,1,44.52,38L45,38l.51-.05H46a4.55,4.55,0,0,0,.52,0,4.81,4.81,0,0,1,.76,0l.88.13,1.66.2.59.17q.33.07.66.12l.42.12.56.11c.31.07.63.15.94.24l.47.12.54.14c.34.09.69.16,1,.27l.49.2.45.22c.21.12.43.24.63.38a7.73,7.73,0,0,1,.64.49c.26.27.49.58.74.86s.29.32.43.48l.39.5a.53.53,0,0,0,.75,0,.62.62,0,0,0,.18-.38.65.65,0,0,0-.13-.41,11.56,11.56,0,0,0-.9-1.09c-.14-.17-.28-.35-.44-.53S58.1,40.09,58,40a3.7,3.7,0,0,0-.36-.33c-.16-.14-.33-.28-.51-.41a4.94,4.94,0,0,0-.55-.32,7.74,7.74,0,0,0-1.27-.6c-.45-.16-.92-.24-1.37-.36l-.63-.16c-.23-.06-.45-.12-.68-.16l-.55-.12a2.76,2.76,0,0,1-.4-.06l-.28-.06a1.59,1.59,0,0,0-.3-.06H51c-.2,0-.4,0-.6-.08a3.15,3.15,0,0,0-.52-.09Z"/><path class="cls-1" d="M59.63,42.3a.39.39,0,0,0,.14.54l.81.57a1.17,1.17,0,0,1,0-.11,2.18,2.18,0,0,1-.2-.5,1.18,1.18,0,0,1-.37-.26l-.23-.3,0,0a.39.39,0,0,0-.08.1Z"/><path class="cls-1" d="M56.5,83.12a3,3,0,0,0-.24,1,4.35,4.35,0,0,0,.12,1.72c.1.3.22.6.34.9a5.72,5.72,0,0,0,.39.73,4.77,4.77,0,0,0,.59.77,8.74,8.74,0,0,0,.77.72,10.37,10.37,0,0,0,1.45,1c.49.27,1,.55,1.47.81s.86.44,1.3.62l.63.25a3.57,3.57,0,0,1,.57.23l.65.31c.21.1.43.18.65.26.46.18.93.32,1.4.49s1,.35,1.42.55l1.37.58.39.18-.08,0c.74.35,1.46.74,2.21,1.08l.82.37.67.28.56.3c.2.11.4.2.6.29l.52.27a3.8,3.8,0,0,1,.53.36c.25.22.49.46.72.7a9.43,9.43,0,0,1,.73.83,6.58,6.58,0,0,1,.42.73c.15.28.28.57.4.86s.17,1.94.27,2.29a.61.61,0,0,0,.71.45.6.6,0,0,0,.46-.7c-.11-.36-.19-2-.32-2.3a.78.78,0,0,0,.05.14,9.9,9.9,0,0,0-.79-1.64,6.16,6.16,0,0,0-.56-.78c-.2-.23-.42-.45-.63-.66a6.79,6.79,0,0,0-1.5-1.22c-.25-.14-.5-.26-.75-.39l-.72-.39c-.47-.26-1-.45-1.47-.67l-.42-.2c-.52-.25-1-.53-1.54-.79s-1.15-.58-1.74-.84-1.11-.49-1.68-.7-1.13-.41-1.7-.63c-.18-.07-.37-.14-.55-.23l-.18-.08c-.32-.15-.63-.31-1-.44s-.64-.25-1-.39-.55-.27-.82-.41-.68-.36-1-.54-.65-.36-1-.56-.62-.43-.91-.66l-.38-.36a3.8,3.8,0,0,1-.42-.47c-.1-.15-.2-.3-.29-.46A5.17,5.17,0,0,1,57.8,86c0-.14-.1-.3-.14-.45a2.57,2.57,0,0,1-.08-.4,5.47,5.47,0,0,1,.08-.9c0-.13.07-.26.11-.39a1.93,1.93,0,0,1-.18-.64,2,2,0,0,1-.43-.34,1.37,1.37,0,0,1-.3-.42,7,7,0,0,0-.36.66ZM69.26,94l.11.05L69.26,94Zm4.18,2,0,0,0,0Z"/><path class="cls-1" d="M1.86,96.86c.28-.15.56-.3.83-.46a14.93,14.93,0,0,0,2.07-1.47c.32-.28.63-.57,1-.85l.81-.67c.78-.58,1.63-1,2.42-1.6l.55-.4a7.23,7.23,0,0,1,.64-.44,10.88,10.88,0,0,1,1.09-.52l.88-.37-.16.06,1.34-.5.77-.25.76-.26c.47-.16.94-.31,1.41-.43s.81-.16,1.22-.21.82-.07,1.23-.08.91-.06,1.37-.09,1,0,1.57,0a11.31,11.31,0,0,1,1.3.06,11.71,11.71,0,0,1,1.17.28l.65.16.72.21a.57.57,0,0,0,.69-.38.57.57,0,0,0-.39-.69c-.56-.17-1.13-.31-1.69-.5-.27-.09-.53-.2-.81-.27a8.32,8.32,0,0,0-.87-.15c-.61-.08-1.24-.1-1.86-.12h-.15c-.5,0-1,.06-1.51.08a15.09,15.09,0,0,0-1.64.13,12.66,12.66,0,0,0-1.37.24c-.47.12-.94.27-1.4.43l-1.54.53c-.76.28-1.49.61-2.23.93-.34.15-.68.3-1,.48a8.52,8.52,0,0,0-1,.71c-.38.29-.76.57-1.16.84s-1,.67-1.5,1-.78.63-1.16,1-.87.83-1.34,1.22h0l-.19.14c-.36.27-.73.53-1.11.77l-.53.32A3.45,3.45,0,0,1,1.86,96.86Z"/><path class="cls-1" d="M111.18,127.76a2.85,2.85,0,0,0-.29-.75,5.27,5.27,0,0,0-.37-.59c-.27-.39-.56-.77-.85-1.15a11.56,11.56,0,0,0-.92-1.07c-.34-.33-.7-.64-1-1s-.53-.58-.78-.88-.54-.79-.8-1.2c-.15-.25-.32-.49-.49-.73s-.37-.57-.55-.85l-.45-.75c-.16-.26-.33-.52-.5-.78-.3-.44-.6-.88-.94-1.29a15.7,15.7,0,0,0-1.18-1.27c-.42-.4-.82-.8-1.26-1.18s-.83-.67-1.25-1-.86-.76-1.33-1.09-.72-.45-1.09-.67-.9-.61-1.37-.88-.79-.42-1.2-.62a9.13,9.13,0,0,1-1.17-.68,15.11,15.11,0,0,1-1.68-1.62c-.27-.3-.51-.62-.8-.9s-.56-.49-.85-.72-.41-.33-.63-.48a3.53,3.53,0,0,0-.66-.36c-.38-.16-.76-.31-1.15-.45-.7-.24-1.42-.46-2.12-.74-.25-.11-.48-.25-.72-.37l-.79-.39c-.53-.28-1.08-.54-1.64-.78-.38-.16-.76-.35-1.16-.5a7.1,7.1,0,0,0-1.22-.34.79.79,0,0,0-.89.36.77.77,0,0,0-.08.61.74.74,0,0,0,.36.48c.47.21,1,.32,1.46.5l.81.38c.33.14.64.29,1,.44s.64.32,1,.48l.46.22.46.24a12.56,12.56,0,0,0,1.21.46l.89.28.89.29c.23.07.47.17.7.26a4,4,0,0,1,.74.46l0,0,.17.14,0,0c.32.25.63.5.92.77s.3.35.45.52l.43.48c.3.32.61.63.94.92a7.4,7.4,0,0,0,1.17.92,12.37,12.37,0,0,0,1.19.63c.42.21.83.42,1.22.66.21.12.41.26.61.39s.45.28.68.41.66.39,1,.61l.82.68c.31.25.64.49.95.73.58.46,1.12,1,1.66,1.47a13.73,13.73,0,0,1,1.44,1.51c.48.63.94,1.29,1.37,2,.27.41.54.82.83,1.22s.53.79.79,1.19a10.93,10.93,0,0,0,.71,1,11.67,11.67,0,0,0,.82.9c.33.35.7.67,1,1a12,12,0,0,1,.87,1h0l.19.24-.1-.12a8.08,8.08,0,0,1,.89,1.35,3.17,3.17,0,0,1,.12.41,3.49,3.49,0,0,1,0,.56,3.6,3.6,0,0,1-.12.44l-.12.2-.14.13a2.59,2.59,0,0,1-.33.19c-.47.17-1,.28-1.43.46a4.43,4.43,0,0,0-.83.38,7,7,0,0,0-.82.61c-.21.18-.4.38-.59.57l-.56.61-.54.63-.34.38a4.59,4.59,0,0,1-.39.37,6.46,6.46,0,0,1-1,.53l-.53.21a4,4,0,0,0-1,.53,12.38,12.38,0,0,0-1.36,1.35c-.42.45-.82.91-1.26,1.34l-.61.54-.63.53a5.71,5.71,0,0,1-.87.49l-.89.4a5,5,0,0,0-1,.65,7.19,7.19,0,0,0-.8.76c-.55.58-1.1,1.16-1.66,1.73s-1.1,1-1.68,1.51c-.19.14-.38.27-.59.4s-.45.23-.68.34-.52.2-.79.29a7.57,7.57,0,0,1-.92.2,15.15,15.15,0,0,1-3-.08,9.7,9.7,0,0,0-2.21-.28,3.75,3.75,0,0,0-.57.09,2,2,0,0,0-.34.13,3.18,3.18,0,0,0-.44.26,4.06,4.06,0,0,0-.49.44l-.44.48a5.85,5.85,0,0,1-.47.4,9,9,0,0,1-1.48,1,2.86,2.86,0,0,1-.64.16c-.38,0-.77,0-1.16.05a3.84,3.84,0,0,0-1,.21,3,3,0,0,0-.63.35,2.42,2.42,0,0,0-.31.25c-.3.29-.56.63-.84,1-.13.16-.27.31-.41.46a3.69,3.69,0,0,1-.41.38,10.09,10.09,0,0,1-1.34.8l-.26.1a4.8,4.8,0,0,1-.63.15c-.44.05-.88.09-1.32.18a5.46,5.46,0,0,0-1.31.44,6.54,6.54,0,0,0-.93.62l-1,.74a8.42,8.42,0,0,1-1.3.83,3.31,3.31,0,0,1-.45.12h-.37l-.3,0c-.44-.07-.87-.17-1.32-.22l-.28,0a2.38,2.38,0,0,0-.88.13,3.74,3.74,0,0,0-.51.22l-.3.18c-.39.25-.75.55-1.12.83l-.55.38a7.94,7.94,0,0,1-.89.52,4.41,4.41,0,0,1-.71.2h-.39a4.18,4.18,0,0,1-.71-.22c-.7-.33-1.37-.72-2.1-1a5,5,0,0,0-1.76-.35,3.91,3.91,0,0,0-.68.06,2.89,2.89,0,0,0-.58.14l-.54.23c-.21.08-.43.17-.65.23a8,8,0,0,1-.85.19,6.69,6.69,0,0,1-1,0c-.4,0-.79-.06-1.18-.11-.83-.11-1.67-.21-2.5-.26a6.17,6.17,0,0,0-1.29.08,4.62,4.62,0,0,0-1.16.31,11.91,11.91,0,0,0-1.19.58q-.51.27-1,.51c-.23.09-.45.17-.68.24a4.13,4.13,0,0,1-.61.13,5.35,5.35,0,0,1-1,0c-.46-.08-.91-.19-1.37-.26s-1-.1-1.56-.13-.81,0-1.22,0a14.6,14.6,0,0,1-1.62,0,4.44,4.44,0,0,1-.6-.16,3.24,3.24,0,0,1-.36-.2,5,5,0,0,1-.56-.57c-.21-.25-.42-.51-.64-.76s-.45-.49-.68-.74-.27-.24-.4-.36l-.45-.36a8.09,8.09,0,0,0-1.21-.7,5.23,5.23,0,0,0-1.28-.38,8.44,8.44,0,0,0-.87,0,17.39,17.39,0,0,1-1.91,0h-.09a2.49,2.49,0,0,1-.53-.16l-.2-.11-.1-.1a3,3,0,0,1-.26-.46,26.82,26.82,0,0,0-1.08-3,4.13,4.13,0,0,0-.65-.9,2.78,2.78,0,0,0-.33-.27l-.31-.22a2.34,2.34,0,0,0-1.07-.28h-.26a2.51,2.51,0,0,1,.45.71l0,.07a43.75,43.75,0,0,1,3.14,4.59c.17.26.35.53.54.78,0,0,.56.57.65.65l.2.19.46,0a17.89,17.89,0,0,1,1.94,0,4.52,4.52,0,0,1,.89.25,7.77,7.77,0,0,1,1,.63,8.07,8.07,0,0,1,.8.75c.28.3.54.62.8.94a9.37,9.37,0,0,0,.78.89,3.44,3.44,0,0,0,1.57.79,5.62,5.62,0,0,0,1.3.11c.4,0,.81,0,1.22,0a19,19,0,0,1,2.13.13c.54.09,1.08.23,1.62.29a5.17,5.17,0,0,0,1.84-.12,8.09,8.09,0,0,0,1.77-.68c.48-.24.95-.51,1.44-.74a4.62,4.62,0,0,1,.6-.19l.51-.09a11,11,0,0,1,2,.09c.68.08,1.36.18,2,.24a7,7,0,0,0,1,0,7.26,7.26,0,0,0,1.14-.15,6,6,0,0,0,.83-.24c.3-.11.58-.23.87-.36a3.58,3.58,0,0,1,.56-.16,4.21,4.21,0,0,1,.71,0,5.65,5.65,0,0,1,.71.17,3.16,3.16,0,0,1,.43.16c.43.19.85.41,1.27.62a4.11,4.11,0,0,0,2.16.59,6.56,6.56,0,0,0,3.52-1.78,6.7,6.7,0,0,1,.94-.63l.31-.09a3.57,3.57,0,0,1,.46,0c.3.06.59.13.9.18a5.55,5.55,0,0,0,1,.09,3.26,3.26,0,0,0,1.52-.44,9.3,9.3,0,0,0,1-.64l.39-.3,0,0,.63-.51a7,7,0,0,1,1-.67,5.74,5.74,0,0,1,1.08-.29,7.37,7.37,0,0,0,1.93-.34,6.07,6.07,0,0,0,.89-.43c.24-.13.47-.29.7-.44a6.85,6.85,0,0,0,.72-.59,5.47,5.47,0,0,0,.51-.57c.19-.22.36-.45.54-.67a4.67,4.67,0,0,1,.44-.45,1.35,1.35,0,0,1,.26-.15,2,2,0,0,1,.44-.13l.61,0a8.5,8.5,0,0,0,.87-.07,3.91,3.91,0,0,0,1.59-.61,14.56,14.56,0,0,0,1.36-1,5.43,5.43,0,0,0,.65-.62,5.44,5.44,0,0,1,.48-.48,1.78,1.78,0,0,1,.27-.17l.17,0,.33,0,.31,0c.45.08.9.2,1.35.26a17.37,17.37,0,0,0,1.91.17,9.67,9.67,0,0,0,1.86-.09,7.61,7.61,0,0,0,1.63-.47,8.88,8.88,0,0,0,.94-.44,5.48,5.48,0,0,0,.77-.52,18.14,18.14,0,0,0,1.49-1.27c.91-.84,1.69-1.79,2.58-2.65a1.7,1.7,0,0,1,.24-.22c.18-.14.38-.26.57-.38a6.94,6.94,0,0,1,.68-.32l-.08,0a6.91,6.91,0,0,0,1.4-.73,8.55,8.55,0,0,0,.74-.61c.23-.19.46-.38.68-.59s.45-.44.67-.67l.65-.73A13.4,13.4,0,0,1,102.2,136a3.23,3.23,0,0,1,.41-.22c.41-.17.83-.31,1.23-.51a5.64,5.64,0,0,0,.53-.31,3.28,3.28,0,0,0,.43-.33,3.94,3.94,0,0,0,.5-.5,17.93,17.93,0,0,1,2.16-2.28,4,4,0,0,1,.34-.23l.45-.23c.36-.14.72-.25,1.08-.38a4.14,4.14,0,0,0,.85-.4,2.26,2.26,0,0,0,.81-1,3.32,3.32,0,0,0,.25-1.12A3.38,3.38,0,0,0,111.18,127.76Z"/><path class="cls-1" d="M11.31,90.41l0,0,0,0Z"/><path class="cls-1" d="M8.65,90.48l-.07,0,.07,0Z"/><path class="cls-1" d="M88.72,107l.1.07-.1-.07Z"/><path class="cls-1" d="M89,107.25l.1.08-.1-.08Z"/><path class="cls-1" d="M70.43,151.67h0Z"/><path class="cls-1" d="M69.73,153.25h0Z"/><path class="cls-1" d="M39.55,157.2l-.06,0,.06,0Z"/><polygon class="cls-1" points="3.54 94.52 3.54 94.52 3.54 94.52 3.54 94.52 3.54 94.52 3.54 94.52"/><path class="cls-1" d="M23.21,88.29l-.71.52a5.67,5.67,0,0,1-.66.42,2.93,2.93,0,0,0-.56.44l-.22.23-.19.16a10.68,10.68,0,0,0-1.36,1,2.64,2.64,0,0,0-.49.65,2.48,2.48,0,0,0-.22.93,2.25,2.25,0,0,1-.08.24,6.85,6.85,0,0,1-.4.69,2.59,2.59,0,0,0-.37.85c-.08.32-.15.64-.2,1s-.09.68-.11,1c-.05.63-.06,1.27-.07,1.9v.49a4.35,4.35,0,0,0,.06.52c.05.31.14.61.21.92l.15.7c.05.25.08.5.13.76s.08.5.13.75.11.5.16.74a6.82,6.82,0,0,0,.23.77,3.6,3.6,0,0,0,.37.7,6.22,6.22,0,0,0,.46.56c.18.19.34.39.51.59a4.21,4.21,0,0,1,.36.57c.07.2.13.41.19.62a4.2,4.2,0,0,0,.29.77,4,4,0,0,0,.2.35,3.37,3.37,0,0,0,.21.31,5.25,5.25,0,0,1,.4.68c.13.31.22.62.33.94a1.52,1.52,0,0,0,.56.86,2.69,2.69,0,0,0,.29.16,1.43,1.43,0,0,1,.3.16,2.72,2.72,0,0,1,.37.39c.18.24.36.49.55.73h0c.24.31.49.62.74.92a5.51,5.51,0,0,0,.75.7,10.1,10.1,0,0,1,1.55,1.44l.45.62a6,6,0,0,0,.57.68c.16.17.33.34.49.52s.35.4.51.61l.21.23a3.08,3.08,0,0,0,.42.39,3.78,3.78,0,0,0,.69.36,6.9,6.9,0,0,1,1.25.75c.39.31.76.64,1.15.94l0,0,.59.44c.2.14.41.26.62.38a9.7,9.7,0,0,0,1.3.5c.33.15.64.33,1,.51a8,8,0,0,0,1.16.52c.2.07.4.16.6.22a5.47,5.47,0,0,0,.7.16c.42.07.84.1,1.26.15a4.75,4.75,0,0,1,1,.26,3.17,3.17,0,0,1,.41.21l.43.31a2.72,2.72,0,0,0,.66.33,1.55,1.55,0,0,0,.43.07,1.42,1.42,0,0,0,.41-.08c.12,0,.23-.1.35-.15a2.73,2.73,0,0,1,.56-.15c.6-.07,1.2-.07,1.8-.09a14,14,0,0,0,1.83-.19h0a19.61,19.61,0,0,0,2-.32c.31-.07.61-.16.92-.26a7.17,7.17,0,0,1,.93-.29l1-.19c.33-.07.66-.16,1-.24l1-.22a3.58,3.58,0,0,0,1-.31,3.12,3.12,0,0,0,.62-.4l.44-.38a2.14,2.14,0,0,1,.38-.23,3.22,3.22,0,0,1,.61-.16,13.05,13.05,0,0,0,2.41-.25,4,4,0,0,0,.58-.2,5.45,5.45,0,0,0,.68-.35l.53-.34a4.74,4.74,0,0,1,.5-.26,6,6,0,0,1,.68-.23c.22-.07.46-.12.69-.17a7.84,7.84,0,0,0,1.37-.34,4.43,4.43,0,0,0,.45-.2,4,4,0,0,0,.61-.4,6.06,6.06,0,0,0,.54-.47c.32-.31.62-.65,1-.93a1.92,1.92,0,0,1,.31-.18l.43-.13.5-.1a5.92,5.92,0,0,0,1-.3,4.21,4.21,0,0,0,.93-.51c.3-.23.56-.48.84-.72l.34-.22c.12-.07.25-.13.38-.19.31-.14.62-.29.92-.46l.82-.46.85-.44a5,5,0,0,0,.75-.43,6,6,0,0,0,.84-.75c.24-.26.46-.52.71-.76s.38-.32.57-.47h0l.35-.24.4-.22a6,6,0,0,0,.82-.47,5,5,0,0,0,.42-.36,2.42,2.42,0,0,0,.3-.35c.2-.25.38-.51.57-.76s.43-.5.65-.75a6.21,6.21,0,0,1,.62-.64,8.7,8.7,0,0,0,.76-.6c.27-.23.53-.48.79-.72a.53.53,0,0,0,0-.73.51.51,0,0,0-.37-.15.53.53,0,0,0-.37.15c-.36.32-.7.66-1.07,1-.21.16-.43.31-.63.49a7.29,7.29,0,0,0-.53.58c-.19.23-.4.45-.58.68s-.36.46-.53.69l-.24.29a1.28,1.28,0,0,1-.29.28,7.07,7.07,0,0,1-1,.56,4.39,4.39,0,0,0-.47.27c-.18.12-.35.25-.51.38a6.85,6.85,0,0,0-.89.81l-.45.48a5.08,5.08,0,0,1-.43.38,3.71,3.71,0,0,1-.54.33c-.2.12-.42.22-.63.32-.43.22-.84.46-1.27.69l-.6.31c-.24.11-.48.21-.71.33a7,7,0,0,0-1.23.93,3.73,3.73,0,0,1-.7.4,5.75,5.75,0,0,1-1,.31l-.61.13a3.09,3.09,0,0,0-.81.36,8.21,8.21,0,0,0-.94.83l-.44.42-.34.29a4.49,4.49,0,0,1-.7.4c-.73.24-1.5.36-2.23.61a5.85,5.85,0,0,0-1.17.53c-.34.21-.67.42-1,.6a5.6,5.6,0,0,1-1,.27,8.34,8.34,0,0,1-.85.07c-.39,0-.78.06-1.16.12a3.07,3.07,0,0,0-1,.36,5.48,5.48,0,0,0-.8.64,4.94,4.94,0,0,1-.49.3l-.27.09-.51.11-.93.2-.95.23c-.32.08-.65.13-1,.19-.59.11-1.13.36-1.7.5s-1.11.23-1.68.31l-1.13.15c-.31,0-.63.06-.95.07s-.69,0-1,0a7.87,7.87,0,0,0-1.08.09,2.92,2.92,0,0,0-.49.12,4.1,4.1,0,0,0-.48.21l-.1,0H42.8a1,1,0,0,1-.21-.07,5.58,5.58,0,0,1-.71-.43,2.39,2.39,0,0,0-.48-.24,3.75,3.75,0,0,0-.47-.17,9.93,9.93,0,0,0-1.09-.19l-.87-.08a4.75,4.75,0,0,1-.92-.22c-.29-.09-.57-.21-.85-.32l-.56-.28-.62-.35a10,10,0,0,0-1.41-.55,8.47,8.47,0,0,1-1.39-.9c-.5-.4-1-.83-1.49-1.18A7,7,0,0,0,31,118a7.22,7.22,0,0,1-.77-.43,4.68,4.68,0,0,1-.54-.55c-.16-.21-.33-.41-.51-.61s-.34-.34-.5-.52-.38-.42-.56-.64-.25-.35-.39-.52a5.08,5.08,0,0,0-.5-.54c-.3-.28-.62-.54-.94-.8a6.5,6.5,0,0,1-.92-.82c-.29-.31-.56-.66-.82-1s-.34-.47-.52-.69a2.58,2.58,0,0,0-.6-.54l-.22-.11a1.27,1.27,0,0,1-.23-.12l0,0a2,2,0,0,1-.11-.2c-.15-.38-.27-.76-.44-1.12a4.69,4.69,0,0,0-.63-1,3.6,3.6,0,0,1-.39-.69c-.08-.2-.14-.41-.21-.62a2.6,2.6,0,0,0-.13-.36,2.23,2.23,0,0,0-.31-.54c-.31-.42-.66-.8-1-1.2a3.27,3.27,0,0,1-.4-.64,4.75,4.75,0,0,1-.18-.57c-.06-.2-.09-.4-.14-.6-.09-.39-.16-.79-.23-1.18,0-.21-.06-.42-.1-.63l-.12-.59c-.08-.38-.17-.76-.23-1.15a7.85,7.85,0,0,1,0-.84c0-.29,0-.57,0-.86a14.5,14.5,0,0,1,.1-1.61c0-.24.08-.49.14-.73a5.09,5.09,0,0,1,.18-.67,6.67,6.67,0,0,1,.58-.91,2.41,2.41,0,0,0,.33-.71,4.13,4.13,0,0,1,.15-.5,2.67,2.67,0,0,1,.22-.36,3.61,3.61,0,0,1,.35-.33c.34-.25.7-.47,1-.73s.47-.52.74-.75a2.68,2.68,0,0,1,.28-.18,4.13,4.13,0,0,0,.38-.25c.28-.18.55-.4.82-.6a.42.42,0,0,0,.18-.25.38.38,0,0,0,0-.31.36.36,0,0,0-.24-.18l-.12,0a.31.31,0,0,0-.19.06ZM19.82,92.1v0ZM18.4,95.74v0Zm.89,7.94v0Zm.64,2,0,.05a.1.1,0,0,1,0-.05Zm51.82,9.08,0,0,0,0Zm-6.2,2.45-.11.09.11-.09Zm-41.46-4.86-.06-.07.06.07Z"/><path class="cls-1" d="M21.18,87.88l-.92.74c-.28.21-.53.45-.8.67l-.65.46a2.34,2.34,0,0,0-.49.45,3.17,3.17,0,0,0-.32.49,3.94,3.94,0,0,0-.36.85,5.79,5.79,0,0,0-.12.82,7.72,7.72,0,0,1-.29.85,3.34,3.34,0,0,0-.1.43l-.09.49a18.73,18.73,0,0,0-.16,2.12c0,.66,0,1.32,0,2,0,.31,0,.61,0,.92a7.46,7.46,0,0,0,.1,1,6.66,6.66,0,0,0,.29,1.06c.05.16.1.32.14.49a6.38,6.38,0,0,1,.12.63v-.1a7.23,7.23,0,0,0,.34,1.65,8.15,8.15,0,0,0,.33.75l.19.38c.07.14.13.28.19.42a5.78,5.78,0,0,1,.24.7c.09.28.16.57.28.85a6.81,6.81,0,0,0,1.08,1.43c.2.28.39.55.56.84s.38.61.56.93.37.63.57.93.41.6.64.89l-.07-.09c.15.2.31.4.47.59l.39.45c.21.28.45.54.67.82l.34.45c.12.17.23.36.34.54l.27.45a5,5,0,0,0,.41.61,3.88,3.88,0,0,0,.39.42c.17.16.36.3.54.44s.62.44.92.67l.59.45c.21.17.41.37.61.55s.45.39.69.58h0l0,0,.07.05h0l.13.09c.32.27.64.55,1,.79l.49.32.54.33c.33.19.68.36,1,.54a6.36,6.36,0,0,0,.59.28l.44.18h0a20.3,20.3,0,0,1,2,1,8.67,8.67,0,0,0,1,.49c.21.09.41.19.62.26l.58.23h0l.48.19c.34.16.67.34,1,.52l.51.27c.19.1.38.2.57.28l.52.18c.21,0,.43.08.65.11s.69,0,1,.08l.89.2a4.45,4.45,0,0,0,1,.08,6.74,6.74,0,0,0,.88-.15l.82-.16a8.72,8.72,0,0,1,1-.06l.56,0a4.73,4.73,0,0,0,.53,0c.2,0,.41-.06.61-.11a2.79,2.79,0,0,0,.61-.22,2.6,2.6,0,0,0,.45-.28,3.22,3.22,0,0,1,.39-.25l.17-.05h.46l.44.07.36,0a2,2,0,0,0,.55,0c.34,0,.66-.14,1-.21s.65-.15,1-.22.72-.12,1.08-.18.68-.14,1-.21a8.13,8.13,0,0,0,1-.31l.44-.17.52-.15c.33-.09.66-.2,1-.31s.66-.24,1-.35.65-.19,1-.29a4.58,4.58,0,0,0,.49-.15,5.31,5.31,0,0,0,.55-.23c.31-.14.61-.29.92-.42a12.39,12.39,0,0,0,1.19-.49c.34-.19.67-.39,1-.55l.74-.26.91-.29c.63-.21,1.25-.44,1.85-.7.36-.15.71-.32,1.07-.48s.65-.2,1-.35a7.71,7.71,0,0,0,.77-.49c.13-.09.26-.16.38-.25a4,4,0,0,0,.47-.34c.13-.11.25-.24.37-.36l.27-.26L73,116c.42-.15.88-.21,1.31-.32a4.43,4.43,0,0,0,1.34-.67c.77-.53,1.44-1.2,2.17-1.78l-.13.09c.43-.32.83-.67,1.24-1s.75-.72,1.14-1.06a8,8,0,0,1,.68-.45c.28-.16.57-.3.87-.44l.4-.2a4.2,4.2,0,0,0,.5-.36c.23-.18.44-.39.65-.59a4.17,4.17,0,0,0,.36-.37,4.41,4.41,0,0,0,.36-.49c.19-.28.36-.57.55-.85l.24-.37c.09-.14.15-.29.23-.43l.45-.83.18-.29a.66.66,0,0,0-.1-.78.65.65,0,0,0-.92,0,3.93,3.93,0,0,0-.61.84c-.15.25-.27.51-.41.76s-.34.47-.49.72-.3.48-.46.72-.31.33-.47.49l-.48.44-.28.19a4.11,4.11,0,0,1-.42.21l-.4.2c-.17.09-.33.19-.49.29a7.39,7.39,0,0,0-.85.62,7.47,7.47,0,0,0-.64.62c-.22.22-.46.43-.69.64l-.67.61-.66.56-.7.63-.6.51a5.86,5.86,0,0,1-.89.57,4.31,4.31,0,0,1-.61.19q-.43.09-.87.21a2.49,2.49,0,0,0-1,.59c-.2.19-.39.39-.59.57l-.69.46-.37.25-.35.19-.49.17c-.22.08-.43.18-.64.28l-1,.44-1.17.43-1.28.41a7,7,0,0,0-1.19.5c-.35.18-.67.38-1,.54s-.67.26-1,.41-.64.31-1,.46c-.56.22-1.16.35-1.73.56l-1,.35c-.33.11-.65.2-1,.29-.16,0-.31.09-.46.15l-.49.18a6.88,6.88,0,0,1-1,.29c-.34.08-.68.14-1,.2s-.74.11-1.11.19l-.87.22c-.3.06-.58.16-.88.22a3.67,3.67,0,0,1-.74,0,5.46,5.46,0,0,0-.58,0l-.33,0a1.28,1.28,0,0,0-.35.09l-.21.08a2.63,2.63,0,0,0-.44.3,3.31,3.31,0,0,1-.47.29,3.75,3.75,0,0,1-.75.19l-.31,0-.47,0q-.48,0-1,.06a9.17,9.17,0,0,0-1,.16l-.51.11-.42.09a2.17,2.17,0,0,1-.36,0l-.39,0c-.41-.07-.81-.18-1.22-.23l-.56,0-.46,0a4.11,4.11,0,0,1-.85-.23c-.18-.08-.34-.18-.52-.27l-.63-.33c-.21-.11-.41-.24-.62-.33s-.46-.2-.69-.29l-.87-.35c-.3-.14-.6-.28-.9-.44l-.91-.52c-.32-.18-.63-.35-1-.51s-.68-.29-1-.42-.41-.2-.61-.3l-.7-.37a11.09,11.09,0,0,1-1.3-.84c-.33-.26-.63-.53-1-.79a6.42,6.42,0,0,1-.48-.43l-.43-.4c-.16-.15-.34-.29-.52-.43l-.6-.48c-.32-.25-.66-.47-1-.71a5.29,5.29,0,0,1-.58-.58c-.22-.32-.42-.66-.63-1a10,10,0,0,0-.88-1.18c-.14-.15-.28-.3-.41-.46l-.39-.46c-.29-.31-.57-.65-.83-1l.06.09c-.24-.33-.47-.66-.68-1s-.45-.74-.68-1.11-.47-.71-.72-1-.55-.64-.82-1a3.58,3.58,0,0,1-.25-.42c-.09-.22-.15-.45-.23-.68s-.18-.52-.28-.78c-.21-.47-.47-.91-.67-1.38a5.81,5.81,0,0,1-.28-1c-.07-.37-.11-.76-.19-1.13s-.21-.69-.31-1a7.06,7.06,0,0,1-.24-1c0-.4,0-.8-.05-1.21s0-.92,0-1.38a24.81,24.81,0,0,1,.1-2.59q0-.33.12-.66a3.15,3.15,0,0,1,.17-.62,3.66,3.66,0,0,0,.23-.63c0-.12,0-.25.05-.37l0-.3a3.45,3.45,0,0,1,.17-.65c.05-.12.1-.24.16-.36a2.73,2.73,0,0,1,.26-.43,2.92,2.92,0,0,1,.45-.41l-.05,0,.52-.39c.21-.16.39-.34.59-.51.4-.35.82-.67,1.24-1a.22.22,0,0,0,0-.31.24.24,0,0,0-.15-.06.27.27,0,0,0-.16.06Zm-3.35,5.34v0Zm2.31,15.26,0,0,0,0ZM29.07,119,29,119h0l.06,0Zm39.29-.26.09,0-.09,0Zm.12,0,0,0,0,0Z"/><path class="cls-1" d="M20.65,152a4.51,4.51,0,0,1,0-.52c0-.29,0-.57.05-.86a.62.62,0,0,0-.61-.61.61.61,0,0,0-.52.31C19.94,150.88,20.29,151.44,20.65,152Z"/><path class="cls-1" d="M59.51,42.14a.39.39,0,0,0-.27.48c.22.6.43,1.2.67,1.78a3,3,0,0,0,.16.36c.13.34.24.69.39,1l0-.1c.17.41.28.84.45,1.25.07.19.13.39.19.59s.13.42.2.64.13.37.17.56.09.42.13.63.06.4.1.6.08.4.11.61.06.68.07,1a5.8,5.8,0,0,1,0,.59,4.21,4.21,0,0,1,0,.5,8.6,8.6,0,0,1-.39,1.49c-.15.48-.33,1-.53,1.42a7.75,7.75,0,0,1-.68,1.27c-.24.37-.47.76-.73,1.11l-.83,1.08c-.33.41-.68.81-1,1.26-.15.23-.29.47-.43.72a5.58,5.58,0,0,0-.35.83,9.27,9.27,0,0,0-.41,1.73,15.25,15.25,0,0,0-.1,1.66,6.49,6.49,0,0,1,0,.77,4.86,4.86,0,0,1-.11.55,6.45,6.45,0,0,1-.21.62.94.94,0,0,1-.12.22,2.39,2.39,0,0,1-.23.22,2.46,2.46,0,0,1-.45.25,2.37,2.37,0,0,1-.36.09h-.27a3.55,3.55,0,0,1-.64-.17c-.2-.09-.39-.2-.59-.3l-.66-.33a3.7,3.7,0,0,0-1.83-.53,2.76,2.76,0,0,0-1,.28l-.64.33a4.48,4.48,0,0,0-1.25.9,14.15,14.15,0,0,0-1.28,1.69c-.28.34-.6.66-.89,1s-.38.39-.56.6-.34.43-.51.65a7.67,7.67,0,0,0-.53.74,3.1,3.1,0,0,0-.31.78,5.53,5.53,0,0,0-.12.91c0,.27,0,.55,0,.83A7.1,7.1,0,0,0,44,77.07a12.1,12.1,0,0,0,.5,1.47c.08.22.14.44.21.66a6,6,0,0,1,.2.69,2.26,2.26,0,0,1,0,.26,2.92,2.92,0,0,1-.1.4h0l0,0-.21.13a3.57,3.57,0,0,1-.47.11,21.69,21.69,0,0,1-2.55,0l-.69,0-.58,0c-.4,0-.8-.06-1.19-.11a2.65,2.65,0,0,1-.57-.15,5.24,5.24,0,0,1-.61-.34.7.7,0,0,0-1,.25.68.68,0,0,0-.07.54.78.78,0,0,0,.32.42,3.46,3.46,0,0,0,.45.29,3.27,3.27,0,0,0,.51.22,3.31,3.31,0,0,0,.92.17c.27,0,.54,0,.81,0l.76,0c.55,0,1.09,0,1.64,0s1.06,0,1.59-.11a4,4,0,0,0,.84-.16,1.66,1.66,0,0,0,1.12-.94,2.76,2.76,0,0,0,.11-1.14,5.2,5.2,0,0,0-.23-.86c-.07-.23-.14-.46-.23-.68s-.17-.44-.24-.66a8.61,8.61,0,0,1-.36-1.39,7.8,7.8,0,0,1,0-1.08c0-.33,0-.66.06-1a2.82,2.82,0,0,1,.15-.57,2.9,2.9,0,0,1,.29-.52c.14-.21.29-.39.44-.59a4.81,4.81,0,0,1,.42-.48c.18-.19.36-.39.55-.58s.31-.31.46-.46.32-.36.47-.55h0a.18.18,0,0,0,.05-.07h0l0,0c.15-.19.28-.38.42-.56a6.25,6.25,0,0,1,.86-.92,3.77,3.77,0,0,1,.64-.39l.68-.31a2,2,0,0,1,.41-.13h.34a4,4,0,0,1,.67.2l.27.12,0,0,0,0h.05l.29.12.26.11h0l.34.16c.15.08.31.14.48.21a2.85,2.85,0,0,0,.71.18l.49,0a3,3,0,0,0,.66-.09,3.24,3.24,0,0,0,.83-.37,3.48,3.48,0,0,0,.39-.28,1.84,1.84,0,0,0,.45-.55c.08-.15.14-.33.21-.49l.12-.35a6.51,6.51,0,0,0,.29-1.8c0-.53,0-1.06.1-1.59a9.18,9.18,0,0,1,.19-.91c.08-.32.16-.63.27-.94A8.57,8.57,0,0,1,59,60.29l.5-.64L60,59c.15-.19.3-.39.44-.6s.25-.43.38-.64a13.37,13.37,0,0,0,.79-1.5c.21-.5.4-1,.57-1.54a10.75,10.75,0,0,0,.42-1.6,7.23,7.23,0,0,0,.07-1.68,10.57,10.57,0,0,0-.21-1.68,13.45,13.45,0,0,0-.37-1.55c-.16-.45-.29-.9-.45-1.36,0-.11-.09-.23-.13-.35s-.1-.26-.14-.4a6.52,6.52,0,0,0-.29-.73c-.06-.17-.13-.34-.19-.52s-.15-.38-.23-.57L60.56,44l0,.09c-.19-.47-.36-1-.53-1.43l-.11-.1-.23-.3a.37.37,0,0,1,0-.11h-.17Zm0,15.75,0,0,0,0ZM58.69,59l0,0,0,0Zm-1,4.68v0Zm-2.09,4,0,0,0,0Zm-3.54.6h0Zm-4,1.47,0,.05,0-.05Zm-.37.5h0l0,0,0,0Zm0,.05,0,0,0,0ZM44.82,80.47a0,0,0,0,0,0,0,0,0,0,0,1,0,0Zm-.08.12-.06,0,.06,0Zm0,0s0,0,0,0,0,0,0,0Z"/><path class="cls-1" d="M52.06,68.26h0Z"/><path class="cls-1" d="M49.79,67.22a5,5,0,0,0-1.63.9,3.08,3.08,0,0,0-.75,1.94,3.41,3.41,0,0,0,.2,1.58c.09.25.2.5.31.74a6.85,6.85,0,0,0,.37.71l.37.53.5.66c.27.32.56.62.83,1a4.44,4.44,0,0,0,.73.83,2.48,2.48,0,0,0,1.19.61,3.08,3.08,0,0,0,.8.1,2.12,2.12,0,0,0,.85-.27,2.45,2.45,0,0,0,.38-.24,1.38,1.38,0,0,0,.4-.53,3,3,0,0,0,.22-.78.78.78,0,0,0,0-.16.51.51,0,0,0-.08-.29.58.58,0,0,0-1.07.14,4.5,4.5,0,0,1-.17.63.54.54,0,0,1,0,.11l-.07.06a2.6,2.6,0,0,1-.36.21l-.15,0a1.51,1.51,0,0,1-.3,0,3.26,3.26,0,0,1-.6-.14l-.31-.19a5.81,5.81,0,0,1-.43-.43c-.15-.17-.28-.36-.43-.54s-.59-.65-.87-1a9.63,9.63,0,0,1-.68-1,9.26,9.26,0,0,1-.47-1,3.62,3.62,0,0,1-.18-.62,5.21,5.21,0,0,1,0-.55c0-.18,0-.35.05-.52a3.22,3.22,0,0,1,.15-.63,2.54,2.54,0,0,1,.16-.28c.08-.08.15-.16.24-.24a3.14,3.14,0,0,1,.46-.28L50,68h0l0,0h0a.41.41,0,0,0,.24-.19.37.37,0,0,0,0-.31.36.36,0,0,0-.18-.24.4.4,0,0,0-.22-.06.15.15,0,0,0-.09,0Zm-1,1.51,0,0,0,0Zm-.25,2.56,0,0,0,0Z"/><path class="cls-1" d="M37.09,80.75a.56.56,0,0,0,0,.79,14.31,14.31,0,0,0,1.22,1,2.38,2.38,0,0,0,.51.24l.32.11.67.22c.42.14.85.25,1.27.4l.6.19c.21.06.41.14.62.21s.33.15.5.21l.58.19a4.59,4.59,0,0,0,.56.18,4,4,0,0,0,.77.09l.64,0,.7,0,1.27.14.83.14c.35,0,.69.08,1,.11.55,0,1.11,0,1.66.06h1.74A16.76,16.76,0,0,0,54.33,85a7.32,7.32,0,0,0,1.4-.24.56.56,0,0,0,.39-.51.55.55,0,0,0-.16-.38.53.53,0,0,0-.38-.16,16.58,16.58,0,0,1-1.73.14c-.29,0-.59,0-.88,0h-.83c-1.16,0-2.32,0-3.47-.08l-.31,0c-.69-.09-1.38-.2-2.07-.26-.34,0-.69-.07-1-.08s-.61,0-.91,0a5.54,5.54,0,0,1-.67-.18c-.23-.07-.46-.13-.69-.21l-.44-.19-.47-.16-.46-.14-.53-.17c-.32-.1-.66-.19-1-.3s-.65-.2-1-.32a2.11,2.11,0,0,1-.33-.18l-.24-.18c-.24-.18-.47-.37-.7-.56a.56.56,0,0,0-.39-.17.54.54,0,0,0-.4.17Z"/><path class="cls-1" d="M35.93,82.8a.46.46,0,0,0,0,.38.47.47,0,0,0,.23.3,7.13,7.13,0,0,0,.81.54,6.46,6.46,0,0,0,.93.42,15.22,15.22,0,0,0,1.77.43c.59.12,1.18.24,1.77.38l.83.24c.28.07.56.15.83.24.58.18,1.14.45,1.73.6a17.17,17.17,0,0,0,1.74.32c.53.08,1,.17,1.57.22.24,0,.49,0,.73.06l.57.07h-.1c.57.08,1.13.21,1.69.3a12.31,12.31,0,0,0,1.82.16c.58,0,1.16,0,1.75,0h.91a2.93,2.93,0,0,0,1-.15.77.77,0,0,0,.29-.17.66.66,0,0,0,.19-.46.65.65,0,0,0-.65-.65,3,3,0,0,0-.52.06c-.25,0-.5,0-.74,0H53.51c-.72,0-1.45,0-2.16-.1l-1.15-.19a10.83,10.83,0,0,0-1.38-.17c-.44,0-.88,0-1.32-.09s-.84-.1-1.25-.15l.15,0h-.11l-.82-.14a6.39,6.39,0,0,1-.84-.2l-.82-.26c-.3-.1-.61-.18-.92-.26l-.81-.19c-.29-.08-.58-.14-.87-.2-.59-.12-1.18-.23-1.76-.36a9.27,9.27,0,0,1-1.54-.43,4.87,4.87,0,0,1-.6-.31c-.24-.15-.47-.31-.7-.47a.4.4,0,0,0-.23-.08.55.55,0,0,0-.45.26Zm10.3,2.63h-.08l.12,0Zm.38,1.23h0Z"/><path class="cls-1" d="M32.53,56.75a.39.39,0,0,0,.14.54c.33.17.65.35,1,.54a8.42,8.42,0,0,1,.8.52,8.61,8.61,0,0,1,1.3,1.26,6.18,6.18,0,0,1,.36.53c.12.22.23.45.33.67a4.2,4.2,0,0,1,.26.83c0,.21,0,.42,0,.62a4.38,4.38,0,0,1,0,.51,4,4,0,0,1-.21.84,4.64,4.64,0,0,1-.25.42,2.37,2.37,0,0,1-.28.27,4.22,4.22,0,0,1-.76.45,3.89,3.89,0,0,1-.49.12,4.14,4.14,0,0,1-.93,0,1.67,1.67,0,0,1-.3-.08l-.08,0-.1-.1a4.24,4.24,0,0,0-.31-.4,1.74,1.74,0,0,0-.58-.39,8.62,8.62,0,0,1-1-.5,1.29,1.29,0,0,1-.16-.17,1.88,1.88,0,0,1-.14-.24,4.1,4.1,0,0,1-.18-.71,4.58,4.58,0,0,1,0-.64,6.13,6.13,0,0,1,.05-.74c0-.12,0-.23.07-.35a1.93,1.93,0,0,1,.11-.34,2.91,2.91,0,0,1,.2-.35l.1-.1.12-.07.23-.06a8.58,8.58,0,0,1,1.52,0c.18,0,.36.06.54.09a3,3,0,0,1,.53.17,1.86,1.86,0,0,1,.34.19,1.34,1.34,0,0,1,.21.2l.12.2.06.22a1.28,1.28,0,0,1,0,.19,2.68,2.68,0,0,1-.07.27,1.59,1.59,0,0,1-.13.22,3.43,3.43,0,0,1-.33.33l-.36.3a1.85,1.85,0,0,1-.33.21l-.19.05h-.23l-.2,0L33,62.12a2,2,0,0,1-.29-.16h0v-.09l0-.11a2,2,0,0,1,.12-.21,5.63,5.63,0,0,1,.71-.67.44.44,0,0,0,0-.62.43.43,0,0,0-.62,0c-.18.16-.37.32-.54.49a2.81,2.81,0,0,0-.4.51,1.38,1.38,0,0,0-.15.4,1.11,1.11,0,0,0,0,.48.73.73,0,0,0,.15.32,1,1,0,0,0,.31.29,2.62,2.62,0,0,0,.45.21,1.83,1.83,0,0,0,.56.13A1.61,1.61,0,0,0,34,63a2,2,0,0,0,.78-.58L35.2,62a2.26,2.26,0,0,0,.39-.67,1.68,1.68,0,0,0,.11-.54,1.5,1.5,0,0,0,0-.42,1.92,1.92,0,0,0-.21-.46,2.57,2.57,0,0,0-1.67-1c-.25,0-.49-.1-.75-.13s-.44,0-.66,0l-.61,0a1.5,1.5,0,0,0-.47.08A1.56,1.56,0,0,0,31,59a1.71,1.71,0,0,0-.36.35,2.92,2.92,0,0,0-.53,1.3A5.11,5.11,0,0,0,30,62.26a3.66,3.66,0,0,0,.1.56,2.71,2.71,0,0,0,.25.67,1.73,1.73,0,0,0,.48.56,2.36,2.36,0,0,0,.4.24c.18.09.37.16.55.23h0l.08,0a2.49,2.49,0,0,1,.43.22.94.94,0,0,1,.1.1,2.56,2.56,0,0,0,.46.58,2.13,2.13,0,0,0,1.28.39l.67,0a2.24,2.24,0,0,0,.68-.15,4,4,0,0,0,1.32-.77,2.91,2.91,0,0,0,.7-1.08,6.25,6.25,0,0,0,.16-.62,6.87,6.87,0,0,0,.08-.78c0-.22,0-.44,0-.65a3.68,3.68,0,0,0-.28-1.13q-.13-.35-.3-.69a5.75,5.75,0,0,0-.78-1.16,9.89,9.89,0,0,0-.94-.89,6.94,6.94,0,0,0-1.1-.76A8.92,8.92,0,0,0,33,56.57h-.1a.37.37,0,0,0-.34.19Zm1.26,5.46h0Zm1,2.65h0ZM30,62.3v0Z"/><path class="cls-1" d="M31.23,52.48a4.66,4.66,0,0,0-.83.15,3.64,3.64,0,0,0-.76.33,11.22,11.22,0,0,0-1.22.81,10,10,0,0,0-1.21,1,7,7,0,0,0-1,1.28c-.14.23-.28.46-.41.7a3.7,3.7,0,0,0-.55,1.15.61.61,0,0,0,0,.44.39.39,0,0,0,.15.16.39.39,0,0,0,.21.06.65.65,0,0,0,.2,0l.17-.08a.71.71,0,0,0,.14-.1,6.66,6.66,0,0,0-.59,1.34,4.88,4.88,0,0,0-.21.9,6.15,6.15,0,0,0-.06.73,13.63,13.63,0,0,0,.11,1.56c0,.3.05.6.1.89s.09.52.15.78a3.12,3.12,0,0,0,.15.43,5.55,5.55,0,0,0,.24.56l.19.3c.17.25.35.49.54.73a7.19,7.19,0,0,0,.51.59,6.26,6.26,0,0,0,.51.52,8.72,8.72,0,0,0,1.3,1,6.53,6.53,0,0,0,3.6,1.35c.55,0,1.09-.08,1.63-.15.3,0,.59-.1.89-.16a4.22,4.22,0,0,0,.76-.25,2.92,2.92,0,0,0,.79-.52c.79-.71,1.45-1.54,2.2-2.28a13.55,13.55,0,0,0,1-1.12c.18-.22.35-.45.52-.68l.27-.37a3.93,3.93,0,0,0,.26-.5,3.8,3.8,0,0,0,.28-.8,6.5,6.5,0,0,0,.12-.87,5.52,5.52,0,0,0-.17-1.67,5.16,5.16,0,0,0-.23-.66c-.11-.27-.23-.54-.36-.8a6.38,6.38,0,0,0-.38-.67c-.14-.22-.3-.43-.46-.64-.3-.41-.61-.81-.92-1.22s-.66-.86-1-1.28-.67-.74-1-1.09a9.86,9.86,0,0,0-1.36-1.05,5.68,5.68,0,0,0-1.7-.73,5,5,0,0,0-.56-.1l-.46,0-.7,0c-.3,0-.6,0-.9,0Zm.92.91a7.61,7.61,0,0,1,1,.08l.3.05a4.38,4.38,0,0,1,.85.26,7.25,7.25,0,0,1,1.47.92,12,12,0,0,1,1,1c.31.34.6.69.88,1.06.47.6.91,1.21,1.36,1.83a8.56,8.56,0,0,1,.63.94,8.81,8.81,0,0,1,.47,1,5.67,5.67,0,0,1,.36,1.28c0,.21,0,.41,0,.62a2.7,2.7,0,0,1,0,.49,3.58,3.58,0,0,1-.09.45c0,.13-.08.25-.13.38a2.59,2.59,0,0,1-.17.33,4.13,4.13,0,0,1-.25.38l-.28.38c-.24.3-.49.59-.76.88s-.6.6-.89.91a20.14,20.14,0,0,1-1.75,1.71,2.21,2.21,0,0,1-.36.23,4.49,4.49,0,0,1-.72.19l-.33.06c-.37,0-.74.08-1.11.09a8.42,8.42,0,0,1-1.23,0,4.68,4.68,0,0,1-.83-.25c-.15-.07-.29-.13-.43-.21l-.54-.31c-.34-.22-.67-.44-1-.68a11.54,11.54,0,0,1-1.8-1.83,6,6,0,0,1-.57-.94,6.49,6.49,0,0,1-.3-1.23q-.09-.68-.15-1.35a6.67,6.67,0,0,1,0-1.34,6,6,0,0,1,.33-1.17,6.54,6.54,0,0,1,.3-.59,4.85,4.85,0,0,1,.39-.61,8,8,0,0,1,.53-.63.61.61,0,0,0,0-.84l0,0,.16-.1c.2-.13.41-.27.62-.39l.67-.34a5.28,5.28,0,0,1,1.18-.32,8,8,0,0,1,1,0,7.42,7.42,0,0,1,.94.06,7.72,7.72,0,0,1,1.64.41,3.87,3.87,0,0,1,.43.27,5,5,0,0,1,.6.69l.55.72c.21.26.44.51.66.77.39.46.78.91,1.16,1.39q.1.13.21.3a1.87,1.87,0,0,1,.22.39,4.64,4.64,0,0,1,.2.73,6.17,6.17,0,0,1,0,.86c0,.29,0,.57-.09.85a4.84,4.84,0,0,1-.22.93,6,6,0,0,1-.65,1,3.73,3.73,0,0,1-.32.36,1.93,1.93,0,0,1-.3.27,7.74,7.74,0,0,1-1.3.7l-.49.17a3.34,3.34,0,0,1-.43.1,7,7,0,0,1-1.21-.06,7.71,7.71,0,0,1-1.16-.24A11.83,11.83,0,0,1,31.16,66a6.05,6.05,0,0,1-.55-.32,5.36,5.36,0,0,1-.87-.91,3.74,3.74,0,0,1-.33-.58,4.83,4.83,0,0,1-.26-1.06,8.44,8.44,0,0,1,0-.87,8.29,8.29,0,0,1,.06-.87s0,.07,0,.1c.05-.39.12-.78.19-1.16a5.61,5.61,0,0,1,.13-.59q.07-.27.18-.54a6.79,6.79,0,0,1,.41-.75c.15-.23.31-.44.47-.65l.45-.56a.34.34,0,0,0,0-.46.33.33,0,0,0-.46,0c-.35.43-.69.85-1,1.3-.15.21-.28.44-.41.66a3.87,3.87,0,0,0-.3.73c-.08.24-.13.48-.19.73s-.11.53-.16.8a8.61,8.61,0,0,0-.17,1.6,6.27,6.27,0,0,0,0,.75,5.1,5.1,0,0,0,.14.78,3.69,3.69,0,0,0,.31.8,4.14,4.14,0,0,0,.48.7,6.66,6.66,0,0,0,.5.56,3.21,3.21,0,0,0,.62.48,3.38,3.38,0,0,0,.72.34l.75.26a10.4,10.4,0,0,0,1.34.31,6,6,0,0,0,1.64.08,5.93,5.93,0,0,0,.73-.16c.25-.08.49-.19.74-.29a6.26,6.26,0,0,0,1.21-.68,4.44,4.44,0,0,0,.56-.5,8.27,8.27,0,0,0,.51-.66,8.09,8.09,0,0,0,.46-.73,4.06,4.06,0,0,0,.34-1.19c.06-.3.08-.6.11-.9a4.71,4.71,0,0,0,0-.75,4.32,4.32,0,0,0-.11-.88,3.61,3.61,0,0,0-.28-.8,4.22,4.22,0,0,0-.41-.65l-.5-.66c-.3-.38-.61-.74-.93-1.1l-.49-.56c-.16-.18-.3-.36-.46-.53A6.88,6.88,0,0,0,35.8,56a1.67,1.67,0,0,0-.45-.34,3.49,3.49,0,0,0-.44-.2,3.53,3.53,0,0,0-.73-.17c-.27-.06-.53-.09-.8-.13a11.66,11.66,0,0,0-1.56-.09,7.66,7.66,0,0,0-1.59.16,5.86,5.86,0,0,0-1.45.58c-.24.13-.46.28-.69.43s-.52.32-.77.49-.54.38-.8.59l-.43.36c.17-.32.38-.62.57-.92s.35-.55.55-.82a7.84,7.84,0,0,1,.54-.61,6.09,6.09,0,0,1,.61-.53,10,10,0,0,1,1.89-1.18,5.27,5.27,0,0,1,.68-.19l.17,0c.35,0,.7,0,1,0Zm-1.63,4.38v0Zm5,8.6,0,0,0,0Zm-2,.21h0Zm1.05,0h0Zm2.91-.15-.06,0,.1-.08,0,0Z"/><path class="cls-1" d="M34.82,69.21a.6.6,0,0,0-.39.72c0,.24.14.47.21.71s.1.41.13.62a4.69,4.69,0,0,1,0,1.06,5,5,0,0,1-.24,1,6.55,6.55,0,0,1-.71,1.16q-.14.18-.3.36c-.12.13-.25.25-.38.37s-.3.21-.45.3-.42.2-.63.31a.49.49,0,0,0-.16.65.45.45,0,0,0,.27.22.46.46,0,0,0,.36,0c.27-.13.54-.26.8-.41a3.37,3.37,0,0,0,.31-.21c.13-.1.26-.2.38-.31a9.86,9.86,0,0,0,1.08-1.32,4.27,4.27,0,0,0,.67-1.58,5.59,5.59,0,0,0,.1-1.73,5.08,5.08,0,0,0-.13-.78,5.33,5.33,0,0,0-.22-.71.62.62,0,0,0-.26-.35.54.54,0,0,0-.28-.08l-.15,0Z"/><path class="cls-1" d="M59.85,42.93a.33.33,0,0,0,.12.45c.29.22.58.44.88.64s.52.36.77.55l.83.72a8.38,8.38,0,0,1,.73.73,8.63,8.63,0,0,1,.51.82c.15.27.3.55.43.84a12.63,12.63,0,0,1,.44,1.22c.07.23.12.46.18.7s.1.4.14.61.09.46.13.69.08.47.13.7.07.44.11.66.09.45.12.68a13.58,13.58,0,0,1,.08,1.56,7.34,7.34,0,0,0,0,.81c0,.26,0,.52,0,.77s0,.31.06.46,0,.28.07.42a6.21,6.21,0,0,0,.2.74,2.72,2.72,0,0,0,.18.44,2.92,2.92,0,0,0,.21.32,5.88,5.88,0,0,0,.52.6l.36.34a5.54,5.54,0,0,0,.45.37l.44.38c.17.16.34.32.5.49s.56.62.82.94l.13.18c.09.11.16.23.24.35s.2.29.28.44a2.74,2.74,0,0,1,.09.39,1.11,1.11,0,0,1,0,.19h0a1.35,1.35,0,0,1-.26.15l-.36.13-.24.13-.33.09a1.26,1.26,0,0,0-.64.45,2,2,0,0,0-.2.53A2,2,0,0,0,68,65,17.84,17.84,0,0,0,67.84,67a2.61,2.61,0,0,0-.06.27,4.33,4.33,0,0,0-.08.5c0,.23,0,.46,0,.69a2.33,2.33,0,0,0,0,.28c0,.14,0,.27-.06.41a1.09,1.09,0,0,1,0,.17c0,.06-.07.12-.1.19a.79.79,0,0,1-.14.23l0,0-.23.31a2.4,2.4,0,0,0-.17.4,3.1,3.1,0,0,0-.09.61,1.94,1.94,0,0,0,0,.24,1.91,1.91,0,0,0,0,.48c0,.16.06.31.09.47s0,.61.06.91,0,.66,0,1,0,.7,0,1c0,.16,0,.32,0,.47a4.3,4.3,0,0,1,0,.62c0,.13,0,.25-.07.38a2.11,2.11,0,0,1-.12.43,2.54,2.54,0,0,1-.16.28.6.6,0,0,1-.08.08,1.51,1.51,0,0,1-.22.11,2.09,2.09,0,0,1-.43.11,6,6,0,0,0-1,.18l-.41.14c-.16.06-.3.13-.45.2l-.19,0-.22,0a4.34,4.34,0,0,0-.52.07h0a8.35,8.35,0,0,0-1.48.34c-.24.08-.49.19-.73.29s-.52.19-.78.27c-.55.19-1.1.37-1.64.61a2.42,2.42,0,0,0-.9.84,3.2,3.2,0,0,0-.37.74c0,.1-.09.2-.13.31l-.24.54a5.85,5.85,0,0,0-.33.82.71.71,0,0,0,.33.8.72.72,0,0,0,1-.25c.11-.22.22-.44.32-.66s.22-.47.32-.71.14-.33.22-.49a3.79,3.79,0,0,1,.2-.34,1.89,1.89,0,0,1,.2-.2,1.71,1.71,0,0,1,.23-.13c.32-.13.63-.25,1-.36l.57-.2c.22-.07.43-.17.64-.26l.38-.16a7,7,0,0,1,.88-.29l.52-.14c.15,0,.32-.06.48-.09l.38-.06a1.82,1.82,0,0,0,.51-.18,1.82,1.82,0,0,1,.31-.16l.23-.11.2-.09a4.69,4.69,0,0,1,.72-.17,2.25,2.25,0,0,0,.82-.33l.21-.16A1.45,1.45,0,0,0,67.4,78a2,2,0,0,0,.22-.41l.12-.36.06-.17c0-.08,0-.16,0-.24s.07-.26.09-.4a3.63,3.63,0,0,0,0-.57c0-.25,0-.5,0-.76L68,73.6c0-.32,0-.64,0-1a5.43,5.43,0,0,0,0-.57L68,71.52a3.64,3.64,0,0,1,0-.66c0-.08,0-.15,0-.22l.13-.2.16-.21a1.83,1.83,0,0,0,.13-.24l.07-.11a1.69,1.69,0,0,0,.12-.28,1.83,1.83,0,0,0,.09-.39c0-.31.13-.61.14-.92a5.37,5.37,0,0,1,0-.7c0-.2.07-.39.08-.58a2.17,2.17,0,0,0,0-.36v-.31a8,8,0,0,1,0-1.1,1.31,1.31,0,0,1,.06-.27,1.65,1.65,0,0,0,.06-.32v0a.52.52,0,0,1,0-.11l.08-.08.31-.16a1.29,1.29,0,0,0,.3-.22L70,64l.21-.1.22-.16a.91.91,0,0,0,.26-.29.83.83,0,0,0,.08-.42,3.8,3.8,0,0,0-.06-.58,2.31,2.31,0,0,0-.32-.74,3.76,3.76,0,0,0-.32-.55c-.14-.2-.27-.41-.41-.6a8,8,0,0,0-.51-.64c-.19-.21-.39-.41-.58-.61s-.52-.48-.77-.73a7.4,7.4,0,0,1-.66-.71l-.11-.14a1.87,1.87,0,0,1-.17-.31,6.77,6.77,0,0,1-.36-1.39c0-.42-.1-.83-.16-1.24s0-.54,0-.8a7.91,7.91,0,0,0-.06-.84c-.06-.55-.18-1.09-.28-1.64s-.22-1-.33-1.55c-.05-.25-.12-.49-.19-.73s-.14-.51-.22-.76a7.68,7.68,0,0,0-.32-.79c-.1-.22-.19-.45-.31-.67a12.72,12.72,0,0,0-.85-1.35,3.41,3.41,0,0,0-.55-.59c-.19-.17-.37-.35-.57-.52a9.31,9.31,0,0,0-1.26-1l-1.07-.77a.24.24,0,0,0-.16-.05.36.36,0,0,0-.3.17ZM63.2,46l0,0,0,0Zm7,17,0,0,0,0Zm-.07.07h0v0Zm-.19.92,0,0,0,0ZM58.5,82.12l0,.1,0-.1Z"/><path class="cls-1" d="M118.43,135.45a6.43,6.43,0,0,0-.45-1.61,4.57,4.57,0,0,0-1-1.42,10.94,10.94,0,0,0-1.33-1,13,13,0,0,0-1.22-.76c-.23-.12-.46-.21-.68-.34a5.14,5.14,0,0,1-.49-.32l-.45-.35-.44-.34a4.78,4.78,0,0,1-.58-.52l-.11-.2a.8.8,0,0,0-.73-.41l-.21,0a.85.85,0,0,0-.5.39.8.8,0,0,0-.09.64,2.51,2.51,0,0,0,.25.49c.09.11.18.22.28.32a4.33,4.33,0,0,0,.47.38l.8.55c.27.18.52.38.8.54a8.53,8.53,0,0,0,1,.45,9.42,9.42,0,0,1,.88.49c.28.17.56.35.82.54a5.87,5.87,0,0,1,.94.85,3.21,3.21,0,0,1,.37.65,6.59,6.59,0,0,1,.35,1.39,7.16,7.16,0,0,1,0,.8,6.3,6.3,0,0,1,0,.75,4.48,4.48,0,0,1-.24.94,3.38,3.38,0,0,1-.24.41,6.39,6.39,0,0,1-.76.71,3.38,3.38,0,0,1-.55.34,2,2,0,0,1-.35.09,3.33,3.33,0,0,1-.63,0c-.35-.06-.7-.13-1-.17a5.19,5.19,0,0,0-2.18.18,5,5,0,0,0-.74.26,4.56,4.56,0,0,0-.58.3c-.15.08-.3.18-.46.26l-.59.34-.09.05a1.39,1.39,0,0,1-.28.39l-.1.08-.09.07a1.93,1.93,0,0,1-.36.28,1.37,1.37,0,0,1-.44.2,1.75,1.75,0,0,1-.65,0c-.31.17-.62.34-.93.49-.67.26-1.37.43-2,.75a5.75,5.75,0,0,0-1.11.73,7.2,7.2,0,0,0-.72.74c-.48.54-1,1.08-1.47,1.61a16.91,16.91,0,0,1-1.67,1.61,4.08,4.08,0,0,1-.57.34,7.69,7.69,0,0,1-1.34.32c-.46.08-.92.16-1.38.27a3.72,3.72,0,0,0-.65.19,4.27,4.27,0,0,0-.67.35l-1.09.65c-.41.27-.81.55-1.21.83a15.12,15.12,0,0,0-1.23,1c-.64.56-1.25,1.16-1.91,1.69-.23.17-.47.33-.71.48a8.72,8.72,0,0,0-.85.61A16.74,16.74,0,0,0,85.86,156a16.46,16.46,0,0,0-1.13,1.23,11.06,11.06,0,0,1-1,1.14l-.41.25-.23.06H83a3.53,3.53,0,0,1-.54-.13,1.64,1.64,0,0,0-.53-.09,1.29,1.29,0,0,0-.48.1,2.21,2.21,0,0,0-.94.62,5.43,5.43,0,0,0-.48.62c-.24.35-.44.71-.65,1.07a11.26,11.26,0,0,1-.69,1,8.18,8.18,0,0,1-1,1.08c-.3.21-.62.4-.91.61s-.66.55-1,.81a3.21,3.21,0,0,1-.46.29,4,4,0,0,1-.62.16c-.32,0-.65,0-1,0h-.58a6,6,0,0,0-1.73.35,3.77,3.77,0,0,0-.84.39,5.07,5.07,0,0,0-.46.35,3,3,0,0,0-.49.52l-.6.73a5.74,5.74,0,0,1-.75.73,2.2,2.2,0,0,1-.47.27,3.75,3.75,0,0,1-.65.2,10.65,10.65,0,0,1-1.13,0l-1,0-.9-.06a4.19,4.19,0,0,0-1,.1,8.29,8.29,0,0,0-1.63.49c-.3.12-.6.25-.88.39l-.7.34-.7.26c-.31.1-.62.21-.92.34-.56.24-1.06.58-1.62.84a8.28,8.28,0,0,1-1.21.32,10.52,10.52,0,0,0-1.22.34,15.71,15.71,0,0,1-2.5.69,6.84,6.84,0,0,1-1.28,0l-.54-.11-.57-.17a8.27,8.27,0,0,0-1.56-.23,7.59,7.59,0,0,0-1.72.14c-.26.05-.51.12-.76.18s-.54.13-.82.18a4.85,4.85,0,0,1-.85,0c-.42-.07-.83-.16-1.25-.22l-.78-.1.22.23.25.18a5.7,5.7,0,0,1,1.08.36,8.06,8.06,0,0,1,1.66,1.06l.35-.06.33-.08c.43-.1.86-.22,1.3-.29a6.93,6.93,0,0,1,1.44,0,7.19,7.19,0,0,1,1,.24,5.45,5.45,0,0,0,1.44.26,6.88,6.88,0,0,0,1.57-.11,10.26,10.26,0,0,0,1.35-.34c.46-.13.9-.3,1.35-.45s.82-.22,1.23-.32a5.71,5.71,0,0,0,.71-.19,6,6,0,0,0,.9-.4l.6-.34.5-.25c.48-.18,1-.32,1.44-.51s1-.44,1.43-.66a8.83,8.83,0,0,1,1.82-.53,4.21,4.21,0,0,1,.71,0L65,170c.59.05,1.19.08,1.79.09a4.43,4.43,0,0,0,1-.12,5.18,5.18,0,0,0,1-.38,2.55,2.55,0,0,0,.4-.27l.34-.28a4.27,4.27,0,0,0,.38-.36,6.87,6.87,0,0,0,.55-.66l.47-.61a3.41,3.41,0,0,1,.43-.42,3.35,3.35,0,0,1,.36-.21,5.9,5.9,0,0,1,1.16-.33c.34,0,.68,0,1,0a5,5,0,0,0,1.27-.07,3,3,0,0,0,1.34-.55c.19-.14.39-.29.57-.45l.44-.38c.42-.31.87-.58,1.27-.92a5.09,5.09,0,0,0,.53-.51c.2-.24.41-.47.6-.73a11.62,11.62,0,0,0,.84-1.27c.24-.41.46-.83.74-1.22a2,2,0,0,1,.24-.26,1,1,0,0,1,.17-.1h0l.26.08a3,3,0,0,0,.49.13,2.36,2.36,0,0,0,1.76-.45,3.92,3.92,0,0,0,.77-.69c.19-.22.37-.44.55-.67a21.5,21.5,0,0,1,2.54-2.51c.4-.29.84-.53,1.24-.82a12.79,12.79,0,0,0,1.13-.94c.31-.28.62-.56.94-.83s.64-.55,1-.81,1-.68,1.47-1c.22-.14.44-.26.67-.39s.41-.25.63-.36a9.34,9.34,0,0,1,1-.27c.39-.08.8-.14,1.2-.21a5.35,5.35,0,0,0,.55-.11,4.39,4.39,0,0,0,.94-.34,5.64,5.64,0,0,0,1-.7c.17-.15.34-.3.5-.46.62-.61,1.18-1.28,1.77-1.94a15.61,15.61,0,0,1,1.51-1.64,5.88,5.88,0,0,1,.77-.44c.51-.19,1-.32,1.54-.52s1.15-.56,1.72-.85,1-.55,1.53-.85l.83-.48c.27-.16.53-.32.8-.45a7,7,0,0,1,1.11-.29,5.79,5.79,0,0,1,1,0,11.86,11.86,0,0,0,1.57.22,5,5,0,0,0,.54-.06,1.43,1.43,0,0,0,.28-.07,4.77,4.77,0,0,0,.52-.22,3.82,3.82,0,0,0,.72-.49,6.1,6.1,0,0,0,.59-.54,3.6,3.6,0,0,0,.63-.86,5,5,0,0,0,.47-1.8A7,7,0,0,0,118.43,135.45Z"/><path class="cls-1" d="M88.43,155.74l-.08.07.08-.07Z"/><path class="cls-1" d="M117.93,46.22c-.1.26-.19.53-.29.79s-.08.23-.11.35a2.17,2.17,0,0,1-.07.24s0,.11-.07.17a2,2,0,0,0-.08.33l0,.26a1,1,0,0,0,0,.34c0,.07,0,.13,0,.2a1.19,1.19,0,0,0,.08.2,2,2,0,0,0,.1.26l0,.12a2,2,0,0,1,.07.23,1.05,1.05,0,0,0,0,.19,1.22,1.22,0,0,0,.07.17,1.19,1.19,0,0,1,.07.27,3,3,0,0,1,0,.42,2.78,2.78,0,0,1,0,.5,5.72,5.72,0,0,1-.11.57,2,2,0,0,0-.09.33l-.09.34-.18.61c-.07.21-.1.43-.17.65l-.09.28-.12.33c-.06.21-.13.41-.18.62s-.12.44-.17.66-.12.38-.17.58l-.06.27a1.11,1.11,0,0,1-.07.26c0,.1,0,.19-.07.28s0,.19,0,.29-.1.34-.14.52-.06.41-.08.61l0,.5a2.74,2.74,0,0,0,0,.7,1.74,1.74,0,0,0,.47.72l.3.36a7,7,0,0,1,.69,1.18,10.39,10.39,0,0,0,.65,1.18c.25.39.49.79.72,1.19.12.2.24.39.34.58s.18.36.27.54.14.4.2.61.1.43.16.65.11.44.17.66a6.85,6.85,0,0,1,.16.76,3.88,3.88,0,0,1,0,.9c0,.2-.09.39-.14.59s-.12.39-.17.59-.13.44-.17.67-.07.47-.1.7a3.93,3.93,0,0,0,0,1.49,2.76,2.76,0,0,0,.28.74,4.09,4.09,0,0,0,.45.64l.31.36c.11.11.2.24.31.35s.45.39.68.58a4.83,4.83,0,0,0,.45.34c.13.08.26.14.4.21a4.92,4.92,0,0,0,1,.4.44.44,0,0,0,.53-.3.44.44,0,0,0-.3-.53l-.25-.09-.51-.25a3.54,3.54,0,0,1-.47-.26l-.39-.33a5.14,5.14,0,0,1-.42-.38c-.13-.14-.24-.3-.37-.44s-.23-.26-.34-.4a3.11,3.11,0,0,1-.38-.63,2,2,0,0,1-.11-.32,2.8,2.8,0,0,1-.06-.28,5.77,5.77,0,0,1,0-.72c0-.22,0-.43,0-.65a10.1,10.1,0,0,1,.28-1.21c.06-.2.11-.42.15-.62a3.31,3.31,0,0,0,.06-.54c0-.11,0-.22,0-.33a6.53,6.53,0,0,0-.08-.76c0-.23-.09-.45-.15-.68-.1-.43-.17-.87-.28-1.29a5.52,5.52,0,0,0-.16-.54c-.07-.19-.16-.39-.25-.58-.15-.36-.34-.7-.52-1s-.38-.69-.57-1-.34-.66-.48-1c0-.1-.09-.21-.13-.31l-.15-.28a4.88,4.88,0,0,0-.34-.58,4.53,4.53,0,0,0-.43-.55l-.32-.34,0-.05c0-.21,0-.43,0-.65a5.25,5.25,0,0,1,0-.56l.06-.32a3.1,3.1,0,0,0,.08-.42,3.78,3.78,0,0,1,.1-.46c0-.17.06-.34.1-.51s.07-.27.11-.41.07-.34.11-.51.15-.63.23-.94c0-.15.09-.29.13-.44a1.74,1.74,0,0,1,0-.22,2.51,2.51,0,0,0,0-.27c0-.16.07-.31.11-.47s.07-.28.1-.42.08-.32.11-.48.08-.33.11-.5a3.42,3.42,0,0,0,.09-.63v-.43a4.26,4.26,0,0,0,0-.5,1.37,1.37,0,0,0-.05-.28l-.09-.22c0-.12-.06-.25-.11-.38s-.1-.22-.15-.34l-.11-.26a2.46,2.46,0,0,1-.09-.29c0-.09,0-.18,0-.26a1.7,1.7,0,0,1,.1-.32c.06-.16.09-.32.14-.49s.23-.63.34-.94a.36.36,0,0,0-.25-.44h-.09a.37.37,0,0,0-.34.26ZM120.15,68v0Z"/><path class="cls-1" d="M120.36,44.37a10.09,10.09,0,0,0-1.08.17,3.19,3.19,0,0,0-.44.13,3.51,3.51,0,0,0-.57.21,2.51,2.51,0,0,0-.81.67.65.65,0,0,0-.18.31.67.67,0,0,0,.07.55.68.68,0,0,0,.42.32.67.67,0,0,0,.55-.07l.33-.26c.1-.07.2-.12.3-.18a5.79,5.79,0,0,1,1-.23,8,8,0,0,1,1.09-.06c.34,0,.67,0,1,.08s.65.08,1,.09l.88,0,1.83,0c.61,0,1.22,0,1.83.09s1.24.15,1.87.2l.56,0c.22,0,.43,0,.65.06s.7,0,1.05.08.48.07.73.09l.59.05,1,.17,1.08.21a4.51,4.51,0,0,0,.53.08,6.51,6.51,0,0,0,.76.07c.33,0,.66,0,1,0l.39.08c.2.06.39.09.58.14a4.94,4.94,0,0,0,.53.1,6.86,6.86,0,0,0,.79.14l-.19,0c.32,0,.63.11,1,.16l.49.1.49.1a11.49,11.49,0,0,1,1.63.53l.4.18-.16-.07.65.27a7.82,7.82,0,0,1,.8.45,4.64,4.64,0,0,0,.42.25c.18.08.37.14.55.2l.24.14c.13.07.26.12.4.18l.33.15.45.17a6.47,6.47,0,0,1,.69.36c.17.11.33.21.49.33a1.37,1.37,0,0,1,.17.17l.22.27A2.22,2.22,0,0,0,149,52l-.13-.1.35.25a1.41,1.41,0,0,0,.4.22l.23.14a2.11,2.11,0,0,0,.33.18l.26.14.34.15.09.05c.33.27.62.58,1,.84l-.06,0a2.7,2.7,0,0,0,.5.33l.4.17.33.2a3.83,3.83,0,0,1,.28.29,2.91,2.91,0,0,1,.3.31l0,0,.3.44a4.61,4.61,0,0,0,.28.38.41.41,0,0,0,.05.09.19.19,0,0,1,0,.07c0,.13,0,.26,0,.39s0,.28,0,.43a2,2,0,0,1-.09.33c0,.12-.08.24-.13.36s-.24.48-.35.73a1.17,1.17,0,0,0,.05-.11c-.11.27-.24.52-.35.79a.54.54,0,0,1,.05-.11c-.1.2-.23.38-.34.57l-.29.54a9.7,9.7,0,0,0-.54,1.18c-.07.15-.14.3-.2.45s-.12.33-.19.49c-.23.55-.45,1.1-.65,1.66s-.38,1.09-.52,1.65a4.86,4.86,0,0,0-.14.85,3.23,3.23,0,0,0,0,.44v1.34a6.77,6.77,0,0,1,0,.78,3.45,3.45,0,0,1-.12.46c0,.11,0,.22-.05.33a2.41,2.41,0,0,1-.08.25c-.13.3-.23.6-.35.9a4.5,4.5,0,0,1-.38.64,11.48,11.48,0,0,1-.94,1l-1.09,1c-.44.41-.85.85-1.27,1.28s-.75.74-1.11,1.12l-.53.6-.54.61c-.18.2-.36.42-.55.62a6.91,6.91,0,0,1-.57.51l-.41.29-.46.22a4.65,4.65,0,0,1-1,.29l-.5.07c-.16,0-.32.07-.48.1l-.29,0-.27.06h-.8a7.13,7.13,0,0,1-.8,0,1.7,1.7,0,0,1-.32-.1l-.39-.13c-.14-.07-.27-.16-.41-.24a5.55,5.55,0,0,0-.6-.29l.12,0c-.3-.13-.58-.3-.89-.43l-.82-.31c-.29-.1-.59-.18-.88-.27s-.52-.15-.77-.25-.58-.21-.88-.3a7.51,7.51,0,0,1-.75-.27c-.27-.1-.54-.18-.82-.26a5.31,5.31,0,0,0-.8-.11l-.11,0,.11,0-.66-.11-.59,0-.94-.14h.1l-.75-.14a4.92,4.92,0,0,0-.93-.07c-.28,0-.55,0-.82,0a5.89,5.89,0,0,0-1,.18.35.35,0,0,0-.25.44.37.37,0,0,0,.44.25,5.63,5.63,0,0,1,.69-.14,4.58,4.58,0,0,1,.74,0c.25,0,.51,0,.76,0l.52.11.64.13c.22,0,.44.1.66.15s.45.07.68.09l.48.1.47.07a3.06,3.06,0,0,1,.54.15c.22.08.45.15.67.24l.59.23c.23.07.47.14.7.23s.43.17.65.24l.61.19a11.62,11.62,0,0,1,1.33.47,4.39,4.39,0,0,1,.53.27c.17.1.35.17.52.26a4.43,4.43,0,0,1,.46.29,3,3,0,0,0,.63.28c.12,0,.24.11.36.15a3.39,3.39,0,0,0,.44.08c.23,0,.47,0,.7,0h.66a2.92,2.92,0,0,0,.51,0l.34-.07a3.85,3.85,0,0,0,.47-.08l.31-.06a3,3,0,0,0,.42,0l.38-.07a5.23,5.23,0,0,0,.91-.33,5,5,0,0,0,1.48-1.08c.21-.21.4-.45.59-.68l.54-.63.54-.64c.16-.19.34-.36.51-.54.38-.41.77-.81,1.16-1.22.21-.23.43-.46.66-.68l.55-.54c.35-.36.71-.72,1.05-1.09a5.93,5.93,0,0,0,.92-1.29c.14-.31.23-.63.36-.94a2.88,2.88,0,0,0,.18-.49,1.6,1.6,0,0,0,0-.21,1.53,1.53,0,0,1,.07-.29,3.77,3.77,0,0,0,.14-1c0-.38,0-.76,0-1.13,0-.16,0-.32,0-.48s0-.36,0-.54a8.86,8.86,0,0,1,.5-1.74c.24-.62.45-1.25.7-1.86l0,.09c.13-.32.25-.63.37-1h0c.08-.19.16-.37.23-.56l.06-.14c.13-.3.27-.59.43-.88l.24-.45c0-.1.11-.18.16-.27a2.2,2.2,0,0,0,.15-.31c.1-.23.2-.46.31-.67a7.54,7.54,0,0,0,.38-.75,3.18,3.18,0,0,0,.26-.73,2.86,2.86,0,0,0,.06-.58c0-.13,0-.27,0-.41a1.24,1.24,0,0,0-.19-.58,1.06,1.06,0,0,0-.19-.24l-.05-.06a1.34,1.34,0,0,0-.11-.14c-.12-.18-.25-.37-.39-.55a5,5,0,0,0-.5-.53,1.9,1.9,0,0,0-.4-.35l-.31-.19c-.2-.11-.42-.2-.61-.33a5.45,5.45,0,0,1-.63-.64,2.94,2.94,0,0,0-.39-.4c-.17-.14-.38-.22-.55-.35h0l-.42-.28-.23-.15a2,2,0,0,0-.36-.16,2.67,2.67,0,0,1-.36-.22l-.13-.14a2.22,2.22,0,0,0-.53-.53,3.54,3.54,0,0,0-.46-.33c-.19-.11-.37-.23-.56-.33s-.39-.18-.59-.27L146.6,49l-.18-.11a1.87,1.87,0,0,0-.32-.15l-.31-.11c-.22-.12-.42-.27-.64-.4a3.62,3.62,0,0,0-.33-.2,6.28,6.28,0,0,0-.59-.27l.16.07-.34-.15-.79-.34.16.07-.91-.37-.39-.12c-.14,0-.29-.09-.44-.12-.63-.14-1.26-.29-1.9-.39-.27,0-.53-.13-.8-.18l-.33-.1-.43-.13a5.84,5.84,0,0,0-1.77-.21,4.35,4.35,0,0,1-.51,0l-.33,0-.47-.1-1-.18-1-.17c-.35,0-.71-.07-1.06-.11l-.86-.11-.84-.07-1.12-.14-.66-.09c-.64-.09-1.28-.19-1.92-.24s-1.18-.06-1.76-.07-1.22,0-1.83,0a6.43,6.43,0,0,1-.88,0l-.88-.06H121l-.63,0ZM122.12,46h0Zm25.11,3.25.13,0-.13,0Zm5.5,5.08.06,0-.06,0Zm.79.67,0,0,0,0Zm-.26,6.27,0,.06,0-.06ZM142.07,78.81l-.07,0,.07,0Z"/><path class="cls-1" d="M138,47.48a12.63,12.63,0,0,0,.27,1.93c.13.56.27,1.11.4,1.67.07.26.13.53.22.79a8.75,8.75,0,0,1,.23.88c.05.27.11.54.17.8a3.06,3.06,0,0,0,.25.68,1.41,1.41,0,0,0,.44.47,1.78,1.78,0,0,0,.36.19,2.06,2.06,0,0,0,1.18,0,2.92,2.92,0,0,0,.74-.29c.21-.11.41-.22.63-.32l.62-.29.59-.33.54-.31.6-.38a5.24,5.24,0,0,1,.48-.23,5,5,0,0,1,1.18-.32,7.3,7.3,0,0,1,.94,0,.58.58,0,0,0,.55-.42.59.59,0,0,0-.4-.71,6,6,0,0,0-1.12-.14,3.66,3.66,0,0,0-1,.13,5.63,5.63,0,0,0-.89.34,3.88,3.88,0,0,0-.77.43c-.46.29-.92.58-1.39.85-.25.16-.52.28-.78.42s-.45.29-.7.42a2.77,2.77,0,0,1-.41.12h-.14l-.15,0a.39.39,0,0,1-.11-.06l-.08-.08a1.62,1.62,0,0,1-.1-.18,7.9,7.9,0,0,1-.32-1.18,5.25,5.25,0,0,0-.18-.65c-.07-.22-.13-.45-.19-.67-.11-.42-.2-.84-.3-1.25s-.21-.89-.29-1.34l-.09-.93a.48.48,0,0,0-.47-.48.48.48,0,0,0-.47.48Z"/><path class="cls-1" d="M148.45,51.47l-.89.05a.4.4,0,1,0,0,.8l.6,0c.21,0,.43,0,.65,0l.13,0,.22.14.22.13.09.07.23.18a2.72,2.72,0,0,1,.24.24,4.4,4.4,0,0,1,.31.56c.06.17.09.34.15.51s0,.19.08.28l.1.27c0,.17.08.34.14.5a2.23,2.23,0,0,1,.13.44,2.41,2.41,0,0,1,0,.38,2.56,2.56,0,0,1-.05.27c0,.11,0,.23-.06.34s-.06.21-.08.32-.06.27-.1.4-.11.5-.16.76-.11.44-.14.66a14.24,14.24,0,0,0-.14,1.73,7.31,7.31,0,0,0,0,.81c0,.25.05.51.08.76,0,.41.11.82.19,1.23a10.94,10.94,0,0,0,.29,1.26.71.71,0,0,0,.3.38.65.65,0,0,0,.49.07.66.66,0,0,0,.45-.79c-.11-.49-.22-1-.32-1.47,0-.22-.1-.45-.13-.67s-.07-.44-.1-.66a11.71,11.71,0,0,1-.09-1.32,10.15,10.15,0,0,1,0-1.35c0-.26.08-.51.11-.77s.1-.49.14-.74,0-.24.07-.36a2.2,2.2,0,0,0,0-.37,2,2,0,0,0,0-.24,1.94,1.94,0,0,0,0-.48,2.83,2.83,0,0,0-.1-.71c0-.11-.07-.22-.1-.34l-.06-.28a3,3,0,0,0-.11-.32c0-.12-.07-.24-.1-.35s-.07-.23-.1-.34A3.36,3.36,0,0,0,151,53a2.38,2.38,0,0,0-.48-.69,3.43,3.43,0,0,0-.58-.42l-.22-.13a1.28,1.28,0,0,0-.27-.11,1.67,1.67,0,0,0-.44-.17l-.3,0Zm3,10s0,.07,0,.11l0-.11Z"/><path class="cls-1" d="M149.89,53.66a17.74,17.74,0,0,1-.13,1.79c-.06.4-.12.8-.21,1.19a6.95,6.95,0,0,1-1.34,2.84c-.23.28-.48.55-.72.82a5.8,5.8,0,0,1-.73.67l-.36.22-.3.07a2.5,2.5,0,0,1-.47,0l-.11,0-.08,0a1.8,1.8,0,0,1-.19-.2,1.74,1.74,0,0,1-.11-.18,2,2,0,0,1-.07-.26,2.94,2.94,0,0,1,0-.42.36.36,0,0,0,0-.1.81.81,0,0,0-.35-.88.78.78,0,0,0-.6-.07.77.77,0,0,0-.46.35,2.78,2.78,0,0,0-.18.48,2.32,2.32,0,0,0-.06.45,3,3,0,0,0,.05.6,1.45,1.45,0,0,0,.12.35,2.36,2.36,0,0,0,.46.74,2.09,2.09,0,0,0,1.05.62,1.54,1.54,0,0,0,.48,0,2.6,2.6,0,0,0,.39,0l.32-.06a2.38,2.38,0,0,0,.73-.27,4,4,0,0,0,.61-.47c.16-.16.32-.31.47-.48s.32-.4.47-.6.42-.52.61-.79a6.26,6.26,0,0,0,.4-.77,9.36,9.36,0,0,0,.6-1.63,17.47,17.47,0,0,0,.34-1.78,17.23,17.23,0,0,0,.17-1.89c0-.09,0-.19,0-.28a.42.42,0,0,0-.83,0Zm-.13,1.81v0Z"/><path class="cls-1" d="M118.55,50.34a.34.34,0,0,0-.24.42c0,.16,0,.31.08.47a4.47,4.47,0,0,1,0,.52,2.64,2.64,0,0,1-.2.62c-.19.43-.42.84-.63,1.25s-.46.92-.66,1.38c-.08.19-.16.37-.23.56l0-.11c-.07.15-.13.3-.19.45v0c-.08.19-.16.38-.23.57a5.68,5.68,0,0,0-.22.7.48.48,0,0,0,.33.57.47.47,0,0,0,.57-.33c.17-.49.32-1,.5-1.48s.35-.92.53-1.38c.11-.27.23-.54.35-.8s.27-.55.38-.83.15-.33.21-.5a3.69,3.69,0,0,0,.14-.66,2.44,2.44,0,0,0,0-.54,6.17,6.17,0,0,0-.1-.62.33.33,0,0,0-.34-.25ZM118,54.53l0,.08,0-.08Zm-1.11.52,0,0,0,0Zm-.33.74,0,.08,0-.08Z"/><path class="cls-1" d="M122.22,58.61a.45.45,0,0,0-.32.55l0,.1-.08.07-.21.13-.22.11a1.58,1.58,0,0,1-.31.09,3.08,3.08,0,0,1-.43,0l-.43-.06h-.4l-.43,0-.51,0-.41,0a8,8,0,0,1-1,0,.36.36,0,0,0-.36.36.36.36,0,0,0,.36.36l.72,0,.66,0c.24,0,.48,0,.71.06l.56.05c.21,0,.42.08.64.1a2.71,2.71,0,0,0,.8-.07,2,2,0,0,0,.4-.17,2.06,2.06,0,0,0,.26-.12,1.4,1.4,0,0,0,.36-.28.88.88,0,0,0,.15-.92.62.62,0,0,0-.21-.27.46.46,0,0,0-.23-.06l-.12,0Zm-.29.67Z"/><path class="cls-1" d="M125.92,49.69a11,11,0,0,0-1.52.16l-.65.12a.48.48,0,0,0-.33.58.44.44,0,0,0,.22.28.5.5,0,0,0,.36.05c.36-.07.71-.14,1.07-.19s.81-.06,1.22-.07a9.41,9.41,0,0,1,1.3,0,4,4,0,0,1,.83.21,5.73,5.73,0,0,1,.79.48,4.84,4.84,0,0,0,.46.33.47.47,0,0,0,.71-.4.45.45,0,0,0-.14-.33,8.16,8.16,0,0,0-.66-.5,3.37,3.37,0,0,0-.61-.36,4.14,4.14,0,0,0-.77-.27,4.29,4.29,0,0,0-.8-.12c-.25,0-.51,0-.77,0l-.71,0Z"/><path class="cls-1" d="M123.73,53.29a.45.45,0,0,0,.14.33.49.49,0,0,0,.34.14c.39,0,.78.07,1.18.09s.88,0,1.32,0a.44.44,0,0,0,.44-.44.45.45,0,0,0-.44-.44c-.83,0-1.67-.08-2.5-.15h0a.49.49,0,0,0-.45.48Z"/><path class="cls-1" d="M139.36,71.65l-.66.8c-.2.23-.42.45-.61.69s-.44.56-.64.85-.32.51-.49.75a5.82,5.82,0,0,1-.78.79,4.53,4.53,0,0,1-.46.3c-.18.1-.38.19-.58.28l-.41.16a2.16,2.16,0,0,1-.44.1,8,8,0,0,1-1,0l-1,0c-.33,0-.67,0-1,.07s-.76.09-1.13.15a.2.2,0,0,0-.14.24.2.2,0,0,0,.24.13l.64-.09h0a8.78,8.78,0,0,1,1-.09c.35,0,.7,0,1.05,0s.69,0,1,0a3.68,3.68,0,0,0,.56-.06,4.6,4.6,0,0,0,.5-.13l.5-.17a3.9,3.9,0,0,0,.47-.2,4.93,4.93,0,0,0,.86-.57c.14-.11.27-.23.4-.35a3,3,0,0,0,.37-.43c.2-.25.37-.52.56-.78s.52-.61.8-.9.29-.31.44-.48.32-.34.47-.52a.42.42,0,0,0-.3-.72.41.41,0,0,0-.3.12Zm-4.18,4.45h0Zm0,0h0Zm-4.23.83h0Z"/><path class="cls-1" d="M170.18,56.88c0,.24-.09.48-.13.72s-.05.51-.08.77-.09.51-.11.76,0,.44-.05.66a3.41,3.41,0,0,1-.14.55,5.59,5.59,0,0,1-.3.6,4.35,4.35,0,0,1-.38.57,4.93,4.93,0,0,1-.76.82,2.36,2.36,0,0,1-.4.24,2.85,2.85,0,0,1-.39.11,5.12,5.12,0,0,1-.68,0h-1.2a16.14,16.14,0,0,1-2-.09,10,10,0,0,1-1-.2l-1-.22c-.36-.08-.72-.13-1.08-.21a11.24,11.24,0,0,0-1.14-.18,8.39,8.39,0,0,1-1-.22,7.48,7.48,0,0,0-1-.23,8.32,8.32,0,0,1-1-.26c-.33-.12-.67-.23-1-.37l-.09,0a6.11,6.11,0,0,1-.61-.36l-.67-.61a.56.56,0,1,0-.8.79l.7.64a4.42,4.42,0,0,0,.82.53c.29.14.6.25.9.37l.78.29a6.93,6.93,0,0,0,.75.2l.8.19c.3.08.59.16.89.22s.58.08.87.11l.84.16.87.15.86.19c.28,0,.56.13.84.18a12.24,12.24,0,0,0,1.81.13l1.81,0a7.06,7.06,0,0,0,.8,0,2.26,2.26,0,0,0,.53-.09,3.82,3.82,0,0,0,.55-.24,3.25,3.25,0,0,0,.73-.55,7.31,7.31,0,0,0,.52-.59,8,8,0,0,0,.58-.82,6.69,6.69,0,0,0,.44-.94,3.08,3.08,0,0,0,.18-1c0-.25,0-.51,0-.76s.06-.4.08-.6,0-.32,0-.48.09-.54.11-.82a.56.56,0,0,0-.42-.54.32.32,0,0,0-.14,0,.56.56,0,0,0-.56.41Z"/><path class="cls-1" d="M114.34,33.62l-1.14,0a10.83,10.83,0,0,0-1.12.1h0c-.33,0-.67,0-1,0a9.27,9.27,0,0,0-1,.14l-.45,0-.7.07a8,8,0,0,0-.83.15,3.39,3.39,0,0,1-.57.1c-.43,0-.86.06-1.29.13-.21,0-.41.09-.62.15l-.62.2c-.19.06-.39.1-.58.14a3.78,3.78,0,0,0-.67.23,2.48,2.48,0,0,0-.51.33c-.2.15-.38.31-.57.46s-.57.38-.84.6-.47.42-.72.63l-.46.34c-.14.09-.26.19-.39.29a1.28,1.28,0,0,0-.2.26s0,.09-.08.14a1.35,1.35,0,0,0-.15.52,1.56,1.56,0,0,0,.09.47l.1.2a1.36,1.36,0,0,0,.32.59,3.19,3.19,0,0,0,.44.37l.27.21.29.23.74.59-.14-.11c.46.36.93.71,1.41,1s.79.58,1.2.85a17.87,17.87,0,0,0,3,1.41l-.17-.07.65.27,1.74.79c.34.15.68.31,1,.43a8.19,8.19,0,0,0,.85.23,16.65,16.65,0,0,0,2,.25c.31,0,.62.06.93.06l1,0,.75,0a8.72,8.72,0,0,0,.88-.08.63.63,0,0,0,.4-.17.58.58,0,0,0,0-.8.56.56,0,0,0-.4-.17,7.42,7.42,0,0,1-1.05.08c-.33,0-.67,0-1-.06s-.67,0-1-.07l-.91-.09c-.38-.06-.77-.13-1.15-.21a7.31,7.31,0,0,1-1.12-.36c-.5-.22-1-.47-1.48-.71s-1.14-.54-1.72-.78-.91-.4-1.35-.61a9.1,9.1,0,0,1-1.33-.75c-.81-.56-1.62-1.11-2.41-1.7l-.07,0c-.16-.13-.32-.26-.49-.38l-.42-.28a1.44,1.44,0,0,0-.25-.18.57.57,0,0,1-.13-.08l-.07-.07,0,0a.53.53,0,0,0-.08-.17l-.06-.1v-.06l0-.06,0-.05c.27-.19.54-.38.8-.6s.24-.22.36-.33l.36-.29c.18-.14.38-.26.56-.4s.38-.29.56-.43a4.51,4.51,0,0,1,.54-.35c.33-.11.67-.14,1-.22s.72-.2,1.09-.26.75-.05,1.13-.08.52-.07.78-.1l.6-.12.9-.07a3.27,3.27,0,0,0,.54,0l.36-.06.78-.05h.42a3.35,3.35,0,0,0,.53-.07c.5-.06,1-.08,1.52-.09l.87,0c.28,0,.55,0,.82,0l.51.1a2.88,2.88,0,0,0,.71.09.63.63,0,0,0,.61-.61.6.6,0,0,0-.54-.61h0c-.45-.09-.88-.24-1.33-.29a7.32,7.32,0,0,0-.81,0Zm-13.33,5v0h0v0Zm9.91,6,.13,0-.13,0Z"/><path class="cls-1" d="M135,30.75c-.72.12-1.44.26-2.15.42-1.34.29-2.64.75-3.95,1.14-.68.21-1.37.4-2.05.6s-1.38.37-2,.59l-2,.64c-.69.21-1.39.43-2.08.67-.47.17-.93.34-1.39.53a14.63,14.63,0,0,0-1.41.61c-.39.21-.78.44-1.16.66a12.63,12.63,0,0,1-1.17.57c-.77.31-1.54.58-2.33.82-.39.12-.78.25-1.16.39s-.77.32-1.15.49a11.73,11.73,0,0,1-2.45.74c-.45.05-.9.09-1.36.1a8.56,8.56,0,0,1-1.52-.09l-1.45-.21a3.78,3.78,0,0,1-.8-.21l-.76-.25c-.58-.17-1.18-.29-1.77-.42a.4.4,0,0,0-.49.28.41.41,0,0,0,.28.49c.69.16,1.39.29,2.06.51.33.1.65.23,1,.31s.65.12,1,.17.66.13,1,.18a11.11,11.11,0,0,0,1.16.11,13.57,13.57,0,0,0,2.11-.11,11.71,11.71,0,0,0,2.11-.56c.34-.12.66-.26,1-.39s.64-.21,1-.3c.66-.19,1.33-.36,2-.58a18.41,18.41,0,0,0,2-.77c.32-.15.63-.33,1-.5s.53-.28.8-.4c.64-.26,1.29-.5,1.94-.72s1.4-.44,2.11-.66l1.89-.57c.7-.22,1.41-.42,2.11-.61,1.35-.36,2.69-.73,4-1.12.67-.2,1.35-.39,2-.55s1.4-.28,2.1-.39l.32,0a15.83,15.83,0,0,1,1.95-.13c.65,0,1.32,0,2,.1s1.39.1,2.09.13,1.27,0,1.9.12a18.3,18.3,0,0,1,2.06.41c.67.18,1.34.41,2,.62s1.3.37,2,.57,1.29.37,1.93.59l.32.12.78.37c.35.18.71.33,1.07.48l.8.38c.27.13.52.29.78.43s.47.32.71.48l.7.5c.28.22.55.46.82.71s.62.62,1,.89c.63.52,1.36.87,2,1.34.49.4.95.83,1.41,1.26a14.23,14.23,0,0,1,1.33,1.47c.32.42.6.85.88,1.3a9.5,9.5,0,0,0,1.12,1.47l.61.58c.21.21.41.42.6.64s.65.73,1,1.11a4.37,4.37,0,0,1,.43.76c.23.56.45,1.13.7,1.69s.49,1,.72,1.58a14.29,14.29,0,0,1,.51,1.43,10.14,10.14,0,0,1,.38,1.41c0,.14,0,.28,0,.42s.05.43.08.64c.06.44.09.88.11,1.33a7.6,7.6,0,0,0,.21,1.64.76.76,0,0,0,.72.55.77.77,0,0,0,.54-.22.75.75,0,0,0,.22-.53c0-.55-.07-1.1-.09-1.65s-.07-1-.14-1.57c0-.32-.07-.63-.12-.95a5.49,5.49,0,0,0-.18-.78c-.16-.52-.33-1-.53-1.55s-.48-1.17-.74-1.75-.48-1-.71-1.57a9,9,0,0,0-.67-1.48,9.51,9.51,0,0,0-1-1.21,14.57,14.57,0,0,0-1-1.08c-.17-.17-.36-.33-.52-.5s-.33-.36-.48-.55c-.39-.53-.7-1.12-1.08-1.66a17.49,17.49,0,0,0-1.45-1.77,10.49,10.49,0,0,0-.75-.74l-.8-.73a8.08,8.08,0,0,0-.88-.66l-.82-.52a3.77,3.77,0,0,1-.39-.26c-.4-.33-.76-.7-1.14-1.06a11.42,11.42,0,0,0-1.43-1.15l-.67-.46c-.21-.14-.43-.27-.66-.4a14.29,14.29,0,0,0-1.67-.81l.2.08c-.33-.14-.66-.28-1-.45s-.69-.34-1-.49a8.22,8.22,0,0,0-1-.33l-1-.31c-.65-.19-1.3-.39-2-.57s-1.31-.43-2-.62c-.35-.09-.7-.19-1.05-.25L143.9,31a11.19,11.19,0,0,0-1.28-.16c-.35,0-.71,0-1.06,0-.72,0-1.43-.05-2.15-.11s-1.45-.09-2.17-.09a15.68,15.68,0,0,0-2.27.19Zm-24.08,8.16h0Zm60.48,16.65s0,.07,0,.11l0-.11Z"/><path class="cls-1" d="M133.53,26.61c-1.35,0-2.71,0-4.05.14l-1,.1-1,.08a5,5,0,0,0-1.08.21,3.67,3.67,0,0,0-1,.42,2.92,2.92,0,0,0-.73.67,5.45,5.45,0,0,0-.56.88c-.3.54-.56,1.11-.86,1.65-.81,1.45-1.75,2.82-2.6,4.24a.47.47,0,0,0,.16.62.46.46,0,0,0,.61-.16c.35-.59.71-1.16,1.08-1.72s.68-1,1-1.55.66-1.07,1-1.63a13.74,13.74,0,0,1,.88-1.48,4.15,4.15,0,0,1,.4-.43,3.43,3.43,0,0,1,.49-.28,5.54,5.54,0,0,1,.8-.21c.63-.07,1.25-.09,1.88-.14s1.28-.09,1.92-.11l2,0a18.43,18.43,0,0,1,2,.08,18,18,0,0,1,1.77.38l1.9.49.91.23,1,.19a9.38,9.38,0,0,1,1.8.48l.06,0a6.77,6.77,0,0,1,1.28.74A20.82,20.82,0,0,0,145.57,32c.33.22.68.42,1,.63l1,.65a.79.79,0,0,0,1-.12.8.8,0,0,0,0-1.12,5.88,5.88,0,0,0-1-.73c-.31-.2-.63-.36-.95-.54a19.49,19.49,0,0,1-1.7-1.15A6.2,6.2,0,0,0,144,29a9.7,9.7,0,0,0-1-.48,8.69,8.69,0,0,0-1.81-.51c-.63-.12-1.28-.19-1.91-.35l-1.87-.44c-.61-.14-1.23-.3-1.86-.41a13.37,13.37,0,0,0-2-.16Zm8.7,3.09.06,0-.06,0Z"/><path class="cls-1" d="M135.56,82.72a4.27,4.27,0,0,0-.71.15,3.69,3.69,0,0,0-.64.29,1.33,1.33,0,0,0-.19.14,1.18,1.18,0,0,0-.25.25,1.41,1.41,0,0,0-.22.77,6.52,6.52,0,0,0,.17,1.39,3.55,3.55,0,0,0,.26.71c.1.24.22.46.34.69a.33.33,0,0,0,.16.17l0,0-.28.28a6.39,6.39,0,0,0-.59.78c-.14.21-.27.44-.41.66s-.28.46-.4.7a10.53,10.53,0,0,0-.67,1.63,5.09,5.09,0,0,0-.23.85,7.34,7.34,0,0,0-.1.93,11,11,0,0,0,0,1.15c0,.39.05.78.07,1.17s0,.77.05,1.15a8.23,8.23,0,0,1,0,1.11,5.42,5.42,0,0,1-.14.7c-.07.27-.16.53-.24.8-.16.54-.34,1.07-.5,1.61s-.29,1.07-.44,1.61-.3,1-.45,1.55c-.07.25-.13.49-.2.73s-.16.5-.22.76c-.16.58-.3,1.18-.42,1.78,0,.28-.09.57-.14.85s-.1.65-.12,1a2,2,0,0,0,.36,1.41,1.08,1.08,0,0,0,1,.37,1.63,1.63,0,0,0,.77-.47A5.39,5.39,0,0,0,132,109c.12-.25.24-.51.35-.77s.24-.52.35-.78a19.51,19.51,0,0,0,1.18-3.23c.14-.57.28-1.14.41-1.7s.26-1.09.37-1.63.24-1.09.37-1.64.22-1,.34-1.57a14.76,14.76,0,0,1,.68-2.17,3.2,3.2,0,0,1,.29-.51l.11-.12.08,0h0l.07,0a2,2,0,0,1,.24.26l.45.64a3.12,3.12,0,0,0,.72.73,1.9,1.9,0,0,0,.39.23l.22.08a1.13,1.13,0,0,0,.32.06.87.87,0,0,0,.58-.2,1.52,1.52,0,0,0,.46-.84,2.5,2.5,0,0,0,0-1,6.26,6.26,0,0,0-.6-1.63c-.22-.45-.47-.89-.68-1.34-.33-.81-.56-1.65-.84-2.48-.14-.42-.26-.84-.39-1.26-.06-.22-.13-.43-.19-.65a3.88,3.88,0,0,0-.15-.36,1.18,1.18,0,0,0-.11-.19l.18-.11.34-.16.62-.35a3,3,0,0,0,.41-.28,1.87,1.87,0,0,0,.26-.3.89.89,0,0,0,.15-.5,1.43,1.43,0,0,0-.19-.56,2.21,2.21,0,0,0-.28-.4,3.52,3.52,0,0,0-.53-.56,4.64,4.64,0,0,0-1.57-.86,2.23,2.23,0,0,0-.63-.09Zm.43.9a3.66,3.66,0,0,1,.44.13,4.6,4.6,0,0,1,.91.53l.25.22a3.85,3.85,0,0,1,.27.3,2.6,2.6,0,0,1,.21.36h0l0,0a1.24,1.24,0,0,1-.2.1l-.36.16.13,0-.37.16c-.24.09-.48.16-.72.27l-.65.31a5.17,5.17,0,0,0-.73.49l0,0v0c-.13-.27-.27-.54-.39-.82a3.39,3.39,0,0,1-.15-.45c0-.15-.05-.3-.08-.45a3.35,3.35,0,0,1,0-.71l0-.1a.47.47,0,0,1,.05-.1l0,0a1.75,1.75,0,0,1,.35-.2,3.28,3.28,0,0,1,.68-.19,3.09,3.09,0,0,1,.43,0Zm-1.4.34,0,0,0,0Zm-.19.31v0Zm.06.71v0Zm3.62.21h0v0Zm0,0v0Zm-1.89,2.26,0,.08c.06.13.1.27.15.41s.18.52.26.78c.18.54.39,1.08.57,1.63s.36,1.12.59,1.67c.1.24.21.48.33.71s.25.48.37.73.27.54.39.82a4,4,0,0,1,.21.75,1.7,1.7,0,0,1,0,.39,3,3,0,0,1-.08.32l-.05.09-.12,0-.29-.17a4.37,4.37,0,0,1-.42-.44c-.18-.25-.35-.5-.54-.74a1.91,1.91,0,0,0-.38-.37,1.15,1.15,0,0,0-.5-.23.65.65,0,0,0-.34,0A1.17,1.17,0,0,0,136,94a2.12,2.12,0,0,0-.72,1c-.11.28-.21.56-.31.84a32.7,32.7,0,0,0-.78,3.25c-.13.54-.26,1.09-.37,1.64s-.25,1.07-.37,1.61-.27,1.13-.42,1.7a13.73,13.73,0,0,1-.55,1.64l-.17.39c-.24.56-.5,1.12-.77,1.66a11.46,11.46,0,0,1-.9,1.65,3,3,0,0,1-.39.41l-.1.06h0l0,0,0-.11a3.5,3.5,0,0,1,0-.65c.09-.56.19-1.11.31-1.66s.26-1.15.42-1.72c.07-.25.15-.5.22-.75s.14-.49.21-.74c.14-.51.31-1,.44-1.53s.27-1.08.43-1.61l.27-.79c.08-.27.17-.55.26-.82s.18-.53.26-.81a6.61,6.61,0,0,0,.17-1,9,9,0,0,0,0-1.56c0-.59-.07-1.17-.1-1.75a8.42,8.42,0,0,1,0-.87c0-.26,0-.52,0-.79a8.65,8.65,0,0,1,.56-1.79,11,11,0,0,1,.57-1.07,12.63,12.63,0,0,1,.69-1.1l.31-.36a1.89,1.89,0,0,1,.2-.2,1.29,1.29,0,0,0,.16-.17,1.56,1.56,0,0,0,.2-.16,2.18,2.18,0,0,1,.22-.21l.16-.13Zm.26,7.31h0Zm.09,0,.09,0-.09,0Zm0,0h0Zm0,0h0l0,0,0,0Zm2.58,1-.05,0h0l.06,0Zm-.12,0Zm-6.63,10.25,0,0,0,0Zm-2.21,3.7h0Zm.15,0h0Zm-.19,0h0Z"/><path class="cls-1" d="M151.09,68a6,6,0,0,0,.11.72.93.93,0,0,0,.12.33.58.58,0,0,0,.18.17c-.14.24-.29.47-.45.7s-.49.6-.75.89a11.76,11.76,0,0,1-.92,1c-.34.31-.68.62-1,.91l-1,.85-.14.11c-.47.34-.93.68-1.36,1.06a8.69,8.69,0,0,0-1,1.08c-.18.21-.35.42-.55.62l-.55.57a7.14,7.14,0,0,1-.54.56l-.57.48-.38.32c-.21.16-.43.3-.64.45l-.72.53-.65.44c-.23.15-.46.27-.69.4l-.72.41c-.23.14-.45.29-.67.44l-1.37.88-.34.22a.41.41,0,1,0,.41.7l1.42-.92c.44-.28.87-.58,1.34-.82a15.46,15.46,0,0,0,1.43-.81c.47-.32.94-.63,1.42-.92a15.38,15.38,0,0,0,1.36-1,7.37,7.37,0,0,0,.57-.54l.53-.57c.19-.2.37-.4.54-.61a7.34,7.34,0,0,1,.51-.6c.16-.18.32-.35.5-.52s.42-.36.63-.54l0,0c.45-.35.91-.68,1.35-1l1.25-1,.64-.56c.19-.19.37-.38.55-.58l.53-.6c.19-.22.38-.45.55-.68s.22-.34.33-.51a1.51,1.51,0,0,0,.15-.28.74.74,0,0,0,.08-.48.52.52,0,0,0-.25-.34.48.48,0,0,0-.37-.05l-.06,0c0-.11,0-.22,0-.33l.06,0c.22.18.44.35.67.51s.42.28.64.41l.62.34c.44.24.9.44,1.35.68a11.93,11.93,0,0,1,1.27.77,4.13,4.13,0,0,1,.39.34c.13.13.24.27.36.41.27.37.53.75.81,1.13s.61.8,1,1.17a7.43,7.43,0,0,0,1,.93c.37.27.79.47,1.17.73l.24.23,0,.06h0a3.11,3.11,0,0,1-.4.22c-.49.2-1,.38-1.46.59a14.21,14.21,0,0,0-1.35.68l-.69.4-.68.42-.66.41c-.24.14-.5.26-.75.39l-.75.37c-.24.13-.49.25-.72.39a10.38,10.38,0,0,0-1.38,1,14.33,14.33,0,0,0-1.19,1.15c-.18.2-.37.39-.55.58a6,6,0,0,1-.66.57l.1-.08a4.85,4.85,0,0,1-.49.29,4,4,0,0,1-.59.16h0l-.12,0h.05a10.49,10.49,0,0,1-1.48.08c-.5,0-1,0-1.5,0s-1-.08-1.44-.12-.89-.06-1.34-.11-1-.17-1.48-.23-.92-.09-1.38-.11-.9,0-1.35-.06c-.22,0-.45,0-.67,0s-.52,0-.78,0a.81.81,0,0,0-.77.59.79.79,0,0,0,.08.62.78.78,0,0,0,.48.37,11.07,11.07,0,0,0,1.91.09c.55,0,1.09,0,1.63,0a17,17,0,0,1,1.75.13c.28,0,.55.06.83.08h.81l1.67,0a15.07,15.07,0,0,0,1.65-.09c.32,0,.65-.06,1-.11a6.78,6.78,0,0,0,.88-.16,3.73,3.73,0,0,0,1.56-.92c.44-.42.82-.88,1.23-1.32a12,12,0,0,1,1.23-1.14c.21-.15.42-.3.64-.44a7.18,7.18,0,0,1,.72-.39l.79-.38c.26-.12.52-.23.77-.36s.45-.26.67-.39l.69-.4c.24-.14.47-.26.71-.38s.45-.24.68-.34l.64-.29c.38-.15.77-.28,1.17-.41.6-.2,1.39-.44,1.56-1.14a1.45,1.45,0,0,0-.49-1.32,4.06,4.06,0,0,0-.61-.46c-.19-.12-.39-.22-.59-.34s-.31-.21-.46-.32a10.77,10.77,0,0,1-1.32-1.38c-.32-.44-.64-.89-1-1.32a5.33,5.33,0,0,0-.68-.74,6.7,6.7,0,0,0-.81-.59,13.88,13.88,0,0,0-1.37-.74c-.5-.23-1-.48-1.48-.74a7.06,7.06,0,0,1-.69-.42c-.19-.12-.37-.24-.55-.38a2.11,2.11,0,0,1-.23-.19l-.14-.11a1.42,1.42,0,0,0-.33-.21.56.56,0,0,0-.21,0c-.4,0-.68.49-.63.87Zm0,1.85,0,.06,0-.06Zm-4,3.82,0,0,0,0Zm14.37,2.44h0Zm0,.07Zm-11.56,7.34,0,0,0,0Zm-.53.18h0Z"/><path class="cls-1" d="M123.29,76.92a7.54,7.54,0,0,0-1,1.52c-.3.52-.62,1-.93,1.54a5.62,5.62,0,0,0-.43.89c0,.13-.09.26-.13.39a1.18,1.18,0,0,0,0,.2c0,.11,0,.22,0,.34a2.35,2.35,0,0,0,0,.37,1.86,1.86,0,0,0,.1.25,1.09,1.09,0,0,0,.19.27,2.43,2.43,0,0,0,.25.2,1.79,1.79,0,0,0,.32.13,2.57,2.57,0,0,0,.4.08l.8.12h-.07a8.29,8.29,0,0,1,1.69.53c.3.12.6.25.91.35a6.07,6.07,0,0,0,.82.19c.3.06.6.11.9.19l.92.27c.58.16,1.16.32,1.75.46l1,.28a6.65,6.65,0,0,0,1,.19,7.44,7.44,0,0,0,.94,0h1.18a.46.46,0,1,0,0-.92,14.6,14.6,0,0,1-1.87,0,5.68,5.68,0,0,1-.71-.18l-.83-.28c-.57-.18-1.15-.35-1.72-.54l-.8-.27c-.29-.1-.58-.21-.88-.29l-.78-.21a4.91,4.91,0,0,1-.74-.24,18.31,18.31,0,0,0-1.89-.78,6.91,6.91,0,0,0-.79-.16l-.44-.08-.19,0a2.58,2.58,0,0,1,.13-.42,8,8,0,0,1,.44-.82l.56-.94c.33-.57.6-1.17.93-1.74a.7.7,0,0,0-.1-.82.68.68,0,0,0-.48-.19.63.63,0,0,0-.47.19ZM122,81.57h0Z"/><path class="cls-1" d="M186.91,77.34l-.1-.76h-.07a3.61,3.61,0,0,0-.87,0l-.85.14c-.15,0-.3,0-.46,0a3.4,3.4,0,0,1-.45,0,6,6,0,0,1-1-.27,2.2,2.2,0,0,1-.43-.27,5.37,5.37,0,0,1-.51-.44,5,5,0,0,1-.48-.54,5.66,5.66,0,0,0-1.13-1.11,2.51,2.51,0,0,0-.54-.28,1.87,1.87,0,0,0-.66-.11h-.13a3.48,3.48,0,0,0-.84.17,15.29,15.29,0,0,0-1.46.58,6.65,6.65,0,0,1-1.22.32,15.14,15.14,0,0,1-1.65,0,14.73,14.73,0,0,0-1.76,0c-.6,0-1.19.12-1.78.2a17.69,17.69,0,0,0-1.79.35c-.37.08-.73.15-1.1.21-.89.11-1.78.15-2.66.18a20.05,20.05,0,0,1-2.8-.18.48.48,0,0,0-.34.82.53.53,0,0,0,.34.13c.62.07,1.25.13,1.88.16s1.16,0,1.73,0,1.22-.07,1.83-.15a17.2,17.2,0,0,0,1.74-.33c.38-.08.76-.16,1.15-.22q.83-.11,1.65-.18c.3,0,.6,0,.91,0l.85,0a16.46,16.46,0,0,0,1.72,0,5.82,5.82,0,0,0,1.79-.45l.23-.1a7.66,7.66,0,0,1,1.47-.48,2.17,2.17,0,0,1,.36,0l.2.06a2.5,2.5,0,0,1,.41.25,11.89,11.89,0,0,1,1.06,1.18,4.78,4.78,0,0,0,.59.6,4,4,0,0,0,.75.55,4.53,4.53,0,0,0,.8.3,5.4,5.4,0,0,0,.72.16l.5.06a2.38,2.38,0,0,0,.38,0c.29,0,.57-.06.86-.1a5,5,0,0,1,1,0l.34.08v-.06C187,77.64,187,77.49,186.91,77.34Z"/><path class="cls-1" d="M121.9,81.41c-.45,0-.91.1-1.36.19a7.09,7.09,0,0,0-1.32.45c-.73.31-1.44.68-2.18,1-.58.23-1.16.44-1.75.66l-1.91.73c-.36.13-.72.26-1.07.41s-.63.29-.94.45c-.59.3-1.15.65-1.71,1l-3,1.87c-.52.34-1,.67-1.55,1s-.89.69-1.34,1c-.27.2-.53.39-.8.57s-.54.33-.81.48c-.59.32-1.2.62-1.81.91-.31.15-.63.3-.94.47a6.79,6.79,0,0,0-.85.54,9.29,9.29,0,0,0-.84.71l-.79.72-1.17,1.08c-.44.39-.88.76-1.34,1.12-.81.62-1.7,1.14-2.47,1.81a10.32,10.32,0,0,0-1,1.07c-.37.43-.69.89-1,1.35-.23.29-.47.57-.71.85s-.68.71-1,1-.65.66-1,1a8.69,8.69,0,0,0-1.13,1.22.63.63,0,0,0-.09.33.65.65,0,0,0,.19.45.65.65,0,0,0,.91,0c.39-.43.82-.8,1.24-1.19s.84-.8,1.25-1.2a13.6,13.6,0,0,0,1.1-1.18c.36-.43.69-.88,1-1.32a9.57,9.57,0,0,1,1.58-1.6c.52-.37,1.06-.72,1.59-1.08.3-.21.58-.44.86-.67s.57-.45.84-.69c1-.84,1.87-1.74,2.86-2.55.23-.17.48-.32.73-.47s.56-.29.85-.44c.57-.28,1.15-.55,1.7-.86a13.91,13.91,0,0,0,1.6-1c.54-.41,1.06-.85,1.59-1.28,1-.78,2.15-1.48,3.24-2.2l1.71-1.12.88-.55c.29-.18.59-.33.89-.48.12-.07.25-.12.38-.18l3.5-1.39a19.21,19.21,0,0,0,1.79-.81c.55-.28,1.1-.56,1.66-.81a7.3,7.3,0,0,1,.79-.26c.24-.06.49-.09.73-.13h0l.45-.06a.51.51,0,0,0,.37-.87.47.47,0,0,0-.33-.16ZM117,83.05l-.08,0,.08,0Z"/><path class="cls-1" d="M117.2,137.42a.43.43,0,0,0-.2.26.44.44,0,0,0,.3.54l2.9.44c.45.06.89.13,1.33.21.23,0,.45.08.68.14a4.08,4.08,0,0,1,.67.23c.5.21,1,.46,1.46.68l.35.15.07,0,.42.17.84.3c.57.21,1.14.42,1.72.6.28.08.55.16.83.22l.9.15c.64.09,1.28.15,1.92.21l1.77.18,1.77.15,1.81.16,1.18.14q.9.13,1.8.24c.6.07,1.21.15,1.81.2.3,0,.59,0,.89,0h.92c.58,0,1.17-.06,1.75-.12l1.88-.19c.3,0,.61-.07.92-.09l.41,0a2.92,2.92,0,0,1,.59,0,.63.63,0,0,0,.33-.09.69.69,0,0,0,.3-.39.65.65,0,0,0-.07-.49.65.65,0,0,0-.39-.3,1.48,1.48,0,0,0-.66-.06c-.15,0-.29,0-.43,0s-.58.06-.87.09l-1.7.21a21.69,21.69,0,0,1-3.51.2c-1.21-.07-2.42-.21-3.63-.36-.61-.08-1.23-.13-1.84-.19-.3,0-.6,0-.9-.05l-.89-.06-1.25-.07-1.35-.11c-.88-.08-1.77-.14-2.64-.24-.35-.05-.68-.11-1-.18s-.75-.21-1.12-.32l-1.15-.4c-.32-.11-.64-.22-1-.35h0l-.24-.1h0l0,0,0,0,.06,0h0l-1.17-.53a8.1,8.1,0,0,0-1.26-.51,10.09,10.09,0,0,0-1.22-.23l-1.32-.18-2.47-.37h-.12a.41.41,0,0,0-.21,0Zm5.6,1.78,0,0,0,0Zm2.37.09h0Zm4.29,1.25h0Zm8.38,1.84h0Zm.12,0h0Zm-13-3.18,0,0h0l.06,0Z"/><path class="cls-1" d="M135.51,150.62c-.49.12-1,.24-1.48.33l-1.59.25c-1,.12-2.06.21-3.09.35-.26,0-.51.06-.77.11l-.84.15c-.47.09-.95.17-1.43.23h0l-.12,0h0l-.29,0,.09,0c-.6.08-1.21.12-1.81.15l-.95.05-.85,0c-.6,0-1.2,0-1.8,0s-1.22,0-1.83-.08-1.11-.1-1.66-.15-1.1-.12-1.65-.19l.1,0-3.59-.5c-1.22-.16-2.43-.37-3.64-.6l-1.73-.37c-.6-.13-1.19-.25-1.79-.36-1.18-.22-2.36-.42-3.53-.67l-1.14-.24a10.13,10.13,0,0,0-1.08-.18,10.29,10.29,0,0,0-1.11,0l-1.32.06a.2.2,0,1,0,0,.39l1.36-.06a8.72,8.72,0,0,1,1.14.07c.55.08,1.09.22,1.64.35s1.2.26,1.8.38c1.16.23,2.32.45,3.46.71.6.14,1.18.3,1.78.42s1.22.25,1.83.36c1.18.22,2.36.4,3.54.59.6.1,1.2.21,1.81.3s1.31.19,2,.27c1.18.14,2.35.26,3.53.32.63,0,1.25,0,1.88.06.28,0,.57,0,.86,0h.87c.62,0,1.24-.05,1.87-.1s1.27-.13,1.9-.23l1-.16h-.14c.58-.07,1.16-.15,1.74-.2l2-.18m-6.27-.21h0Z"/><path class="cls-1" d="M186.88,112.62l.06-.2a.61.61,0,0,0-.19,0,.64.64,0,0,0-.18.06,36.83,36.83,0,0,0-3.18,2.07c-.46.34-.9.69-1.35,1-.25.19-.49.41-.73.61l-.67.54c-.45.36-.92.7-1.39,1s-.92.68-1.38,1l-1.48,1c-.52.36-1,.74-1.55,1.13-.87.66-1.71,1.38-2.57,2.06s-2,1.54-3,2.31-1.76,1.41-2.66,2.09c-.45.35-.9.7-1.36,1l-1.57,1.15c-1,.68-1.89,1.39-2.81,2.11s-1.83,1.48-2.75,2.2c-1.82,1.43-3.69,2.77-5.61,4.05s-4,2.47-6,3.8l-2.92,1.93c-1,.63-1.87,1.29-2.79,1.95l-1.15.79-.67.41c-.25.16-.51.29-.77.44l-1.53.85c-1,.57-2.1,1.14-3.16,1.69s-1.91,1-2.86,1.54c-.52.3-1.06.58-1.58.89l-1.48.91c-1,.62-1.94,1.24-3,1.77-.24.12-.48.25-.73.36l-.86.37-1.68.68c-1,.39-2,.84-3,1.24l-1.61.65c-.53.22-1,.44-1.58.64-.93.37-1.86.74-2.81,1-1.1.31-2.2.6-3.3.88l-1.63.38c-.56.14-1.13.25-1.7.35-1.11.18-2.22.33-3.34.47a30.57,30.57,0,0,1-3.31.28c-1.16,0-2.33,0-3.49,0-.32,0-.64,0-1,0a11.5,11.5,0,0,1-1.18-.07c-.73-.09-1.45-.26-2.18-.39s-1.45-.26-2.18-.37l-1-.14a7.48,7.48,0,0,1-1-.23,3.82,3.82,0,0,1-.72-.31,1.78,1.78,0,0,1-.27-.21,2.33,2.33,0,0,1-.17-.26,3.8,3.8,0,0,1-.18-.47,8,8,0,0,1-.16-1.38c0-.32,0-.64,0-.95a.42.42,0,0,0-.33-.45.36.36,0,0,0-.41.34c0,.6,0,1.21,0,1.81a4.09,4.09,0,0,0,.39,1.59,2.12,2.12,0,0,0,.75.82,3.93,3.93,0,0,0,.77.38,8.43,8.43,0,0,0,1.57.41c1,.18,2.09.37,3.13.59.5.11,1,.23,1.51.33a12.34,12.34,0,0,0,1.6.14c.73,0,1.46,0,2.19,0h1.7c.5,0,1,0,1.52,0s1.14-.07,1.71-.13c1.15-.12,2.3-.25,3.45-.4.53-.07,1.07-.13,1.6-.23l1.62-.35c1.13-.25,2.24-.52,3.36-.81.56-.14,1.12-.27,1.67-.46s1.13-.4,1.7-.6c1-.38,2.08-.82,3.12-1.22s2.11-.84,3.16-1.26,2.14-.84,3.2-1.29c.26-.11.51-.25.76-.38s.52-.28.78-.43c.47-.25.92-.53,1.38-.81s1-.62,1.45-.91,1.07-.61,1.61-.9c2.06-1.14,4.16-2.2,6.24-3.29l1.32-.71.75-.41c.25-.13.5-.26.74-.41l.77-.46c.31-.19.61-.4.91-.61.46-.3.91-.62,1.37-.94,1.81-1.26,3.66-2.43,5.49-3.65,2-1.26,4-2.43,6-3.72,1-.62,1.88-1.29,2.8-2s1.91-1.38,2.82-2.12l2.88-2.28c1-.73,1.91-1.42,2.88-2.11,1.92-1.38,3.76-2.88,5.63-4.34.9-.7,1.8-1.4,2.69-2.12l1.47-1.2,1.45-1.12c.42-.32.86-.61,1.28-.92s1-.73,1.52-1.11c.9-.67,1.8-1.36,2.64-2.12s1.61-1.41,2.44-2.09c.64-.52,1.3-1,2-1.49a2.46,2.46,0,0,1,0-.26A3.15,3.15,0,0,1,186.88,112.62Z"/><path class="cls-1" d="M148.14,142.9l-.07,0,.07,0Z"/><path class="cls-1" d="M85.78,159.74v0Z"/><polygon class="cls-1" points="96.87 163.5 96.87 163.5 96.87 163.5 96.87 163.5 96.87 163.5"/><path class="cls-1" d="M188.62,95a96.35,96.35,0,0,1-6.93,35.91,94.51,94.51,0,0,1-20,30.76A92.24,92.24,0,0,1,95,189.53a93.63,93.63,0,0,1-52.23-16.36,95,95,0,0,1-14.19-11.75A96.78,96.78,0,0,1,8.2,131,95.52,95.52,0,0,1,.82,95,93.58,93.58,0,0,1,28.05,28.05,95.11,95.11,0,0,1,58.72,7.4a93.41,93.41,0,0,1,103,20.9A95.44,95.44,0,0,1,188.62,95Zm-.24,0a91.42,91.42,0,0,0-27.85-65.53,94.26,94.26,0,0,0-30.2-19.76A96.45,96.45,0,0,0,113,4.53,92.79,92.79,0,0,0,59.71,9.81,92.92,92.92,0,0,0,9.52,59.6,93.78,93.78,0,0,0,2.18,95a91.39,91.39,0,0,0,27,65.81A92.21,92.21,0,0,0,95,187.47a94.09,94.09,0,0,0,18-1.83,98.18,98.18,0,0,0,17.34-5.25,95,95,0,0,0,30.19-19.83,92.9,92.9,0,0,0,20.53-29.9A90.77,90.77,0,0,0,188.38,95Z"/></svg>